<?xml version="1.0" standalone="no"?>
<!DOCTYPE svg PUBLIC "-//W3C//DTD SVG 1.1//EN" "http://www.w3.org/Graphics/SVG/1.1/DTD/svg11.dtd" >
<svg>
<metadata>
Created by FontForge 20090914 at Tue Jan 31 10:51:58 2017
 By www-data
Copyright (c) 2017 by Prothom Alo @ 2017. All rights reserved.
</metadata>
<defs>
<font id="Kiron-BoldItalic" horiz-adv-x="0" >
  <font-face 
    font-family="Kiron"
    font-weight="700"
    font-style="italic"
    font-stretch="normal"
    units-per-em="2048"
    panose-1="2 11 5 2 4 5 4 2 2 4"
    ascent="1638"
    descent="-410"
    x-height="772"
    cap-height="1157"
    bbox="-1507.53 -1507 2688 4150"
    underline-thickness="102"
    underline-position="-103"
    unicode-range="U+0020-U+25CC"
  />
<missing-glyph horiz-adv-x="709" 
 />
    <glyph glyph-name=".notdef" horiz-adv-x="709" 
 />
    <glyph glyph-name="space" unicode=" " horiz-adv-x="696" 
 />
    <glyph glyph-name="exclam" unicode="!" horiz-adv-x="758" 
d="M366 17c4 17.333 11.332 33.666 21.999 48.999s23.334 28.666 38.001 39.999s30.334 20.333 47.001 27s33.667 10 51 10c16.667 0 31.834 -3.33301 45.501 -10s24.667 -15.667 33 -27s14 -24.666 17 -39.999s2.5 -31.666 -1.5 -48.999
c-4 -16.667 -11.333 -32.5 -22 -47.5s-23.167 -28.333 -37.5 -40s-29.833 -20.834 -46.5 -27.501s-33.334 -10 -50.001 -10c-17.333 0 -32.833 3.33301 -46.5 10s-24.834 15.834 -33.501 27.501s-14.5 25 -17.5 40s-2.5 30.833 1.5 47.5zM505.999 235l58 344.501l57 343.5
c2.66699 15.333 5.66699 30.666 9 45.999c13.333 54 31.833 91.333 55.5 112s50.5 31 80.5 31c14 0 26.167 -3 36.5 -9s18.333 -15.167 24 -27.5s8.5 -28.5 8.5 -48.5s-3.33301 -44 -10 -72l-4.5 -15.5c-1.66699 -5.66699 -3.16699 -11.167 -4.5 -16.5l-51 -148.5
l-52 -152.5l-15.5 -46l-15.5 -46l-23 -63.5l-23 -65.5l-41.5 -119.5l-37.5 -110.5z" />
    <glyph glyph-name="quotedbl" unicode="&#x22;" horiz-adv-x="683" 
d="M600 629c6.66699 61.333 12.8369 114 18.5039 158l15 112.5l10.5 76.5c2.66699 20 5 36 7 48l4.5 32.5c1 7 1.5 13.167 1.5 18.5c5.33301 20.667 12.5 38 21.5 52s18.667 25.333 29 34s21.166 14.834 32.499 18.501s22 5.5 32 5.5c21.333 0 37.166 -2.33301 47.499 -7
s17.166 -10.834 20.499 -18.501s4.33301 -16.5 3 -26.5s-3.33301 -20 -6 -30c-14.667 -48 -30.834 -96.667 -48.501 -146l-52.5 -143c-10.667 -28 -21.667 -58.5 -33 -91.5l-32 -93.5h-71zM564.003 1074c-7.33301 -28.667 -16.498 -58.1709 -27.498 -88.5039l-35.5 -94.5
l-14 -34.5l-14 -35.5c-5.33301 -13.333 -10.333 -27.166 -15 -41.499s-9.66699 -28.833 -15 -43.5l-19.5 -55.5c-6.33301 -17.667 -12.833 -34.834 -19.5 -51.501h-69l24.5 188.5l24.5 188.5c1.33301 2.66699 2 5.66699 2 9c0.666992 6.66699 1.16699 13.834 1.5 21.501
s1.16602 13.834 2.49902 18.501c8.66699 34 18.5 60 29.5 78s22 30.833 33 38.5s21.333 11.834 31 12.501s17.5 1 23.5 1c28 0 47.167 -8.16699 57.5 -24.5s10.166 -45.166 -0.500977 -86.499z" />
    <glyph glyph-name="numbersign" unicode="#" horiz-adv-x="1179" 
d="M735 401c2 3.33301 4.33105 7.5 6.99805 12.5s5 9.16699 7 12.5l59 115l26 47l23 44l12.5 23.5l12.5 24.5h-163l-21.5 -41.5l-22.5 -42.5l-16 -29.5c-5.33301 -9.66699 -10.333 -19.167 -15 -28.5c-1.33301 -2.66699 -2.66602 -5 -3.99902 -7
s-2.66602 -4.33301 -3.99902 -7v1l-32.5 -62l-31.5 -62h163zM241.998 401h196c5.33301 9.33301 10.166 18.833 14.499 28.5s8.83301 19.167 13.5 28.5l21 42c6.66699 14 13.667 27.667 21 41l19.5 35l16.5 32c5.33301 10.667 11.333 22 18 34s13.334 24.667 20.001 38h-190
l21.5 47l20.5 47h193l47 89.5l50 93.5l36 68.5l35 67.5c6 11.333 11.5 22.5 16.5 33.5s10.167 21.167 15.5 30.5h145l-205 -383h161l25 48l26 51l22.5 42.5l22.5 42.5v-1l36 68.5l35 67.5c6 11.333 11.5 22.5 16.5 33.5s10.167 21.167 15.5 30.5h142l-204 -383h191
c-7.33301 -15.333 -14.333 -31 -21 -47s-13.667 -31.667 -21 -47h-194c-6 -12 -12.5 -24.333 -19.5 -37l-21.5 -38l-18 -33.5l-17 -32.5l-37.5 -69.5l-36.5 -68.5h194l-22.5 -48l-22.5 -48h-195l-24 -46l-24 -48l-22.5 -44l-22.5 -44l-54 -102.5
c-18.667 -35 -35 -66.833 -49 -95.5h-141l201 380h-162l-28.5 -55l-29.5 -59v1l-71 -139.5l-67 -127.5h-141l199 380h-188z" />
    <glyph glyph-name="dollar" unicode="$" horiz-adv-x="1024" 
d="M249 282c-1.33301 -34.667 1.00098 -67.667 7.00098 -99s12.667 -56.666 20 -75.999c15.333 -30.667 38.666 -55 69.999 -73s71 -28.333 119 -31l123 493c-44.667 31.333 -82.834 60.166 -114.501 86.499s-56.167 50.166 -73.5 71.499
c-49.333 59.333 -63.333 132.333 -42 219c7.33301 34 23 67.5 47 100.5s55 64.833 93 95.5c36 26.667 75.5 48.167 118.5 64.5s88.833 25.833 137.5 28.5l29 115h90l-29 -115c26.667 -1.33301 52 -4.33301 76 -9s47.333 -10.334 70 -17.001c48 -16.667 88.333 -43 121 -79
l-55 -222h-55c4 40.667 2 76.834 -6 108.501s-21.333 56.167 -40 73.5v-1c-15.333 20 -34.166 35.667 -56.499 47s-46.833 18 -73.5 20l-106 -425c49.333 -32 94.5 -63.333 135.5 -94s71.167 -58.667 90.5 -84c19.333 -29.333 31.166 -62 35.499 -98
s0.833008 -78 -10.5 -126c-4 -17.333 -10 -35.166 -18 -53.499s-17 -36.166 -27 -53.499c-14.667 -24.667 -33.167 -48.334 -55.5 -71.001s-46.5 -43 -72.5 -61c-22 -15.333 -44.833 -28.166 -68.5 -38.499s-47.167 -19.5 -70.5 -27.5
c-22.667 -8.66699 -43.834 -14.834 -63.501 -18.501s-39.167 -6.16699 -58.5 -7.5l-40 -160h-90l40 160c-39.333 1.33301 -73.5 3.83301 -102.5 7.5s-54.167 9.83398 -75.5 18.501c-10 3.33301 -22.333 9 -37 17l-48 27c-3.33301 1.33301 -7.16602 3.16602 -11.499 5.49902
s-8.16602 4.5 -11.499 6.5s-7.83301 5 -13.5 9s-10.167 7 -13.5 9l64 257h52zM667.001 49c32 18.667 57.8301 42 77.4971 70s35.167 61 46.5 99c6.66699 26 7.33398 51 2.00098 75s-14.666 45.333 -27.999 64c-11.333 13.333 -25.166 27.833 -41.499 43.5
s-35.5 31.167 -57.5 46.5l-110 -441c21.333 5.33301 41.833 12 61.5 20s36.167 15.667 49.5 23zM730.998 1081c-20.667 -4 -42.333 -10.833 -65 -20.5s-42.334 -21.167 -59.001 -34.5c-19.333 -16 -35.666 -34 -48.999 -54s-22.666 -41.333 -27.999 -64
c-5.33301 -22 -5.33301 -44.167 0 -66.5s16.666 -44.5 33.999 -66.5c14 -19.333 38.667 -42 74 -68z" />
    <glyph glyph-name="percent" unicode="%" horiz-adv-x="1563" 
d="M820 1157c14.667 0 27.3271 -0.665039 37.9941 -1.99805s20.5 -3.33301 29.5 -6s17.333 -5.83398 25 -9.50098s15.834 -7.83398 24.501 -12.501c6 -6 11.833 -12.333 17.5 -19l16.5 -19v1c5.33301 -6 12.5 -11.167 21.5 -15.5s18.833 -7.66602 29.5 -9.99902
s21.834 -4 33.501 -5s22.834 -1.5 33.501 -1.5c25.333 0 50.166 2.16699 74.499 6.5s49 11.5 74 21.5s50.833 23.167 77.5 39.5s55 36.166 85 59.499h103l-254 -314l-266.5 -329l-266.5 -329l-255 -314h-115l902 1119l-9 23c-13.333 -13.333 -24.833 -23.5 -34.5 -30.5
s-19.834 -12.333 -30.501 -16s-22.667 -5.83398 -36 -6.50098s-30 -1 -50 -1c-25.333 0 -47.666 1 -66.999 3s-31.666 4.33301 -36.999 7c-2 -9.33301 -3 -16 -3 -20v-8.5c0 -2.33301 -0.333008 -5.16602 -1 -8.49902l-8 -30c-8.66699 -36 -22.167 -72.833 -40.5 -110.5
s-40 -74.334 -65 -110.001s-53 -69.167 -84 -100.5s-63.667 -58.833 -98 -82.5s-69.666 -42.334 -105.999 -56.001s-72.5 -20.5 -108.5 -20.5c-29.333 0 -56.5 5.83301 -81.5 17.5s-45.5 28.834 -61.5 51.501s-26.5 50.167 -31.5 82.5s-2.5 69.5 7.5 111.5
c8.66699 34 22.667 68.667 42 104s42.333 69.5 69 102.5s56.334 63.833 89.001 92.5s66.667 53.834 102 75.501s71.333 38.667 108 51s72.334 18.5 107.001 18.5zM1077.99 487.002c56 48 110.5 83.3359 163.5 106.003s104.5 34 154.5 34c26 0 50.833 -3.33301 74.5 -10
s43.167 -18.834 58.5 -36.501s25.166 -41.334 29.499 -71.001s0.833008 -67.5 -10.5 -113.5c-7.33301 -28.667 -19.333 -60.334 -36 -95.001s-37 -69.5 -61 -104.5s-51.167 -68.833 -81.5 -101.5s-62.833 -61.834 -97.5 -87.501s-71 -46.167 -109 -61.5
s-76.667 -23 -116 -23c-32 0 -61 4.83301 -87 14.5s-47 25.5 -63 47.5c-19.333 22.667 -30.166 50.834 -32.499 84.501s2.16699 73.167 13.5 118.5c13.333 53.333 36 104.5 68 153.5s76 97.5 132 145.5zM1321.99 144.005c78.667 89.333 128.001 174.336 148.001 255.003
c12 49.333 11 85.333 -3 108c-9.33301 10.667 -20 19.167 -32 25.5s-26.667 9.5 -44 9.5c-22 0 -45.333 -7.5 -70 -22.5s-49.667 -34.5 -75 -58.5s-49.833 -51.333 -73.5 -82s-45.334 -61.834 -65.001 -93.501s-36.5 -62.334 -50.5 -92.001s-24 -55.834 -30 -78.501
c-8.66699 -34 -6.16699 -60.333 7.5 -79s37.5 -28 71.5 -28c68.667 0 140.667 45.333 216 136zM745.994 669.008c39.333 42.667 72.1641 87.333 98.4971 134s45.833 95 58.5 145c4.66699 19.333 7 35 7 47s-0.666992 18.667 -2 20l-32 18v-4c-4 1.33301 -9.83301 4 -17.5 8
s-15.167 8.5 -22.5 13.5s-13.666 9.83301 -18.999 14.5s-7.66602 8.33398 -6.99902 11.001c-17.333 -0.666992 -37.333 -8.16699 -60 -22.5s-46.167 -33 -70.5 -56s-48.5 -49.167 -72.5 -78.5s-46.167 -59.5 -66.5 -90.5s-38.166 -61.833 -53.499 -92.5
s-26 -58.334 -32 -83.001c-8 -32.667 -6.83301 -59.167 3.5 -79.5s32.833 -30.5 67.5 -30.5c34 0 68.5 9.5 103.5 28.5s73.833 51.5 116.5 97.5z" />
    <glyph glyph-name="ampersand" unicode="&#x26;" horiz-adv-x="1338" 
d="M947 190c0.666992 -1.33301 2.33301 -2.66699 5 -4l2 4h-7zM540.999 625.999c-0.666992 0.666992 -1.32715 2.66699 -1.99414 6s-1 5.66602 -1 6.99902l-8 52.5c-3.33301 21.667 -4.33301 43.834 -3 66.501c0.666992 8.66699 1.16699 18 1.5 28s0.5 19.333 0.5 28
c0 -2 0.166992 -1.83301 0.5 0.5s0.833008 5.33301 1.5 9s1.33398 7.66699 2.00098 12s1 7.83301 1 10.5c1.33301 5.33301 2.16602 10.166 2.49902 14.499s1.16602 8.5 2.49902 12.5c10 40.667 26.833 79.834 50.5 117.501s52 70.834 85 99.501s69.5 51.667 109.5 69
s81.667 26 125 26c37.333 0 70.833 -5.5 100.5 -16.5s53.834 -26.667 72.501 -47s31.167 -45.166 37.5 -74.499s4.83301 -62.333 -4.5 -99c-10 -39.333 -27.5 -75.333 -52.5 -108s-54.333 -62.334 -88 -89.001s-69.667 -50.167 -108 -70.5s-75.5 -37.833 -111.5 -52.5
c10 -37.333 19.333 -69.5 28 -96.5s17.5 -51.667 26.5 -74s18.667 -44 29 -65l33.5 -68.5c3.33301 -5.33301 6.66602 -11.5 9.99902 -18.5l10 -20.5c38 36.667 70.667 70.334 98 101.001s50 58.667 68 84s32.167 48 42.5 68s17.5 38 21.5 54
c5.33301 22 2.33301 36.5 -9 43.5s-28 13.167 -50 18.5l-11 4c-1.33301 -1.33301 -5.33301 -1.16602 -12 0.500977s-12.667 3.5 -18 5.5l17 66h421l-17 -67c-27.333 -2 -50.833 -5.5 -70.5 -10.5s-37 -11.833 -52 -20.5s-28.5 -18.834 -40.5 -30.501
s-23.667 -24.834 -35 -39.501l-62 -80.5c-17.333 -21.667 -33.333 -40.667 -48 -57l-41.5 -45.5l-43.5 -45l-51 -51l-66 -69c1.33301 -3.33301 3.16602 -7.33301 5.49902 -12s5.16602 -8.66699 8.49902 -12h-2c1.33301 -3.33301 2.66602 -5.33301 3.99902 -6
s2.66602 -1 3.99902 -1c18.667 -19.333 36 -36.5 52 -51.5s31.833 -28 47.5 -39s31.834 -19.333 48.501 -25s35.334 -8.5 56.001 -8.5c15.333 0 28.833 0.666992 40.5 2s24 5.16602 37 11.499s28.167 16.666 45.5 30.999s39.666 34.5 66.999 60.5l17 -20l17 -20
c-4 -9.33301 -11.5 -21 -22.5 -35s-23.5 -28.333 -37.5 -43s-28.333 -28.5 -43 -41.5s-27.334 -22.833 -38.001 -29.5c-28 -23.333 -59.167 -41.833 -93.5 -55.5s-72.833 -20.5 -115.5 -20.5c-27.333 0 -51.666 2.83301 -72.999 8.5s-42 15 -62 28
s-40.167 29.833 -60.5 50.5s-42.833 46.334 -67.5 77.001c-40.667 -30.667 -79.334 -56.334 -116.001 -77.001s-72.667 -37.5 -108 -50.5s-70.5 -22.333 -105.5 -28s-71.167 -8.5 -108.5 -8.5c-49.333 0 -92.5 6.66699 -129.5 20s-66.5 32.833 -88.5 58.5
s-36.167 56.834 -42.5 93.501s-3.5 78.667 8.5 126c10.667 42 27.167 81.333 49.5 118s50.166 71.334 83.499 104.001s71.833 63.667 115.5 93s92.167 57.666 145.5 84.999zM576.006 53.999c24 9.33301 47.668 19.999 71.001 31.999s46.333 25.667 69 41
c-18 34 -33.667 66.5 -47 97.5s-23.666 56.167 -30.999 75.5c-8.66699 17.333 -20.334 46 -35.001 86s-29.667 92.333 -45 157c-42 -22.667 -78 -45 -108 -67s-55.5 -44.333 -76.5 -67s-37.833 -46.167 -50.5 -70.5s-22.334 -50.166 -29.001 -77.499
c-8 -32 -10 -62.167 -6 -90.5s13 -53.333 27 -75s32.833 -38.667 56.5 -51s51.167 -18.5 82.5 -18.5c13.333 0 30.5 2.33301 51.5 7s44.5 11.667 70.5 21zM874.007 796.998c32 25.333 57.167 50.667 75.5 76s31.166 53 38.499 83c10.667 43.333 7.33398 77.333 -9.99902 102
s-44.666 37 -81.999 37c-42 0 -77.167 -13 -105.5 -39s-47.833 -61 -58.5 -105c-8.66699 -32.667 -11.834 -69 -9.50098 -109s7.83301 -81.667 16.5 -125c8 4.66699 16.333 9.16699 25 13.5l24 12.5l42.5 24c15 8.66699 29.5 18.667 43.5 30z" />
    <glyph glyph-name="quotesingle" unicode="'" horiz-adv-x="411" 
d="M559 1153c5.33301 -10 7.16797 -20.4971 5.50098 -31.4971s-4.5 -23.5 -8.5 -37.5l-5 -21c-0.666992 -1.33301 -1.5 -3.83301 -2.5 -7.5s-4.16699 -12.834 -9.5 -27.501l-16.5 -45.5l-27 -76l-41 -115.5l-57.5 -162h-60l24 188.5l23 188.5
c1.33301 3.33301 2.33301 7.5 3 12.5s1.33398 9.16699 2.00098 12.5c0.666992 7.33301 1.66699 15.666 3 24.999s3.66602 21.666 6.99902 36.999l4 14c5.33301 22 16.166 40.5 32.499 55.5s37.833 22.5 64.5 22.5c16 0 29 -2.5 39 -7.5s16.667 -13.167 20 -24.5z" />
    <glyph glyph-name="parenleft" unicode="(" horiz-adv-x="950" 
d="M551 -354c-60.667 55.333 -114.167 117.336 -160.5 186.003s-82.5 144.334 -108.5 227.001c-52.667 164.667 -59 328 -19 490c20 79.333 52.667 160.666 98 243.999s100.333 165 165 245c31.333 38 66 76.167 104 114.5s77.667 75.5 119 111.5s83.5 70.167 126.5 102.5
s85.167 61.166 126.5 86.499h102c-95.333 -72.667 -178.833 -145.5 -250.5 -218.5s-133.5 -146.667 -185.5 -221s-95.167 -150.166 -129.5 -227.499s-61.5 -156.333 -81.5 -237c-20 -81.333 -32 -160.333 -36 -237s1.5 -152.334 16.5 -227.001s40 -148.334 75 -221.001
s81.833 -145.334 140.5 -218.001h-102z" />
    <glyph glyph-name="parenright" unicode=")" horiz-adv-x="916" 
d="M686 1453c60.667 -53.333 113.668 -115.335 159.001 -186.002s81 -146 107 -226s41.333 -162 46 -246s-3 -166 -23 -246s-53.167 -162 -99.5 -246s-102.166 -165.667 -167.499 -245s-138.333 -154.333 -219 -225s-165.334 -133 -254.001 -187h-101
c95.333 72.667 178.833 145.334 250.5 218.001s133.5 146.334 185.5 221.001s95 150.334 129 227.001s61 155.667 81 237c20 80.667 32.167 159.667 36.5 237s-0.833984 153.166 -15.501 227.499s-39.667 148 -75 221s-82.333 145.833 -141 218.5h101z" />
    <glyph glyph-name="asterisk" unicode="*" horiz-adv-x="936" 
d="M412 734c39.333 8.66699 75.9902 17.833 109.99 27.5s63.667 20.167 89 31.5c-7.33301 3.33301 -17 7.33301 -29 12s-24.667 9.33398 -38 14.001c-21.333 7.33301 -43.5 15.5 -66.5 24.5s-43.5 18.833 -61.5 29.5s-32.167 22.5 -42.5 35.5s-13.5 27.167 -9.5 42.5
c2.66699 12 7.33398 22.833 14.001 32.5s14.334 18 23.001 25s18 12.333 28 16s20 5.5 30 5.5c11.333 0 21.166 -3.83301 29.499 -11.5s18.166 -17.834 29.499 -30.501c2.66699 -2.66699 5 -5.5 7 -8.5s4.33301 -6.16699 7 -9.5l1 1
c12.667 -17.333 28.334 -36.5 47.001 -57.5s42.667 -42.167 72 -63.5c5.33301 23.333 8.5 49 9.5 77s1.5 54.333 1.5 79c0.666992 4.66699 0.833984 9.16699 0.500977 13.5s-0.5 8.83301 -0.5 13.5v36.5c0 11 1 20.5 3 28.5c1.33301 5.33301 4.33301 12.833 9 22.5
s11.167 19.334 19.5 29.001s18.5 18 30.5 25s26 10.5 42 10.5c23.333 0 40.166 -8.16699 50.499 -24.5s12.166 -37.166 5.49902 -62.499c-1.33301 -5.33301 -4.16602 -13.333 -8.49902 -24s-9.83301 -21.334 -16.5 -32.001c0 -0.666992 -0.333008 -1.66699 -1 -3l-2 -4
c-11.333 -21.333 -24.333 -47.666 -39 -78.999s-28.667 -67 -42 -107c7.33301 5.33301 16 11.166 26 17.499s19.667 12.166 29 17.499l32 20l51 41l44.5 38c13 10.667 24.833 19.667 35.5 27s20.834 13 30.501 17s19.834 6.66699 30.501 8
c12.667 0 22.834 -1.83301 30.501 -5.5s14.167 -11.167 19.5 -22.5c6 -7.33301 9.83301 -15.166 11.5 -23.499s0.833984 -19.166 -2.49902 -32.499c-5.33301 -20.667 -17.666 -39 -36.999 -55s-45 -27 -77 -33c-79.333 -14 -149.666 -36.667 -210.999 -68
c8 -7.33301 18.5 -14.166 31.5 -20.499s27.5 -12 43.5 -17s33 -9.66699 51 -14s36 -8.16602 54 -11.499h-1c25.333 -7.33301 45 -18.833 59 -34.5s18 -35.167 12 -58.5c-3.33301 -12 -8.5 -22.833 -15.5 -32.5s-15.167 -17.834 -24.5 -24.501s-19.5 -11.834 -30.5 -15.501
s-21.833 -5.5 -32.5 -5.5c-19.333 0 -36.666 8.5 -51.999 25.5s-31.666 37.167 -48.999 60.5l-5 6c-11.333 17.333 -23.833 34.333 -37.5 51s-27.834 29.667 -42.501 39c-7.33301 -36 -11.5 -69.167 -12.5 -99.5s-1.16699 -56.5 -0.5 -78.5
c0 -2.66699 0.166992 -5.16699 0.5 -7.5s0.5 -4.16602 0.5 -5.49902v-12c1.33301 -8.66699 2 -16.667 2 -24s-0.666992 -14.333 -2 -21c-4.66699 -20 -17.667 -40 -39 -60h1c-11.333 -10 -23.333 -17 -36 -21s-26.334 -6 -41.001 -6c-10 0 -18.667 1.83301 -26 5.5
s-12.333 9.16699 -15 16.5c-6.66699 9.33301 -10.5 20 -11.5 32s-0.166992 23 2.5 33c4 8.66699 9 17.667 15 27l31 61c10.667 21.333 20.5 42.166 29.5 62.499s17 39.166 24 56.499s12.167 31.666 15.5 42.999c-23.333 -12.667 -46.666 -27.334 -69.999 -44.001l-67 -50
c-2 -1.33301 -4 -2.83301 -6 -4.5s-6 -4.5 -12 -8.5c-4 -2.66699 -7.66699 -5.5 -11 -8.5s-7 -5.83301 -11 -8.5c-21.333 -16.667 -40.666 -30.5 -57.999 -41.5s-32.666 -16.5 -45.999 -16.5c-29.333 0 -48 7 -56 21s-9.33301 31.333 -4 52
c6.66699 25.333 19.167 45.333 37.5 60s47.5 27.334 87.5 38.001h2z" />
    <glyph glyph-name="plus" unicode="+" horiz-adv-x="1191" 
d="M741 873h154l-99 -396h396l-38 -155h-396l-99 -397h-154l99 397h-398l38 155h398z" />
    <glyph glyph-name="comma" unicode="," horiz-adv-x="580" 
d="M-15 -291c40.667 19.333 77.833 39.3311 111.5 59.998s62.834 41 87.501 61s44.5 39 59.5 57s24.167 34 27.5 48c2.66699 8.66699 3.66699 18.5 3 29.5s-2 20.167 -4 27.5c-13.333 -9.33301 -25.333 -15.333 -36 -18s-21.334 -4 -32.001 -4
c-16 0 -30.5 2.83301 -43.5 8.5s-23.833 13.834 -32.5 24.501s-14.5 23 -17.5 37s-2.5 29.667 1.5 47c4.66699 20 12.667 37.667 24 53s24.333 28.166 39 38.499s30.5 18 47.5 23s33.833 7.5 50.5 7.5c22.667 0 44 -5.33301 64 -16s36.667 -26 50 -46
s22.333 -44.167 27 -72.5s2.66699 -59.833 -6 -94.5c-15.333 -61.333 -56.333 -121.666 -123 -180.999h1c-34 -28.667 -69.333 -53.667 -106 -75s-74 -38.666 -112 -51.999z" />
    <glyph glyph-name="hyphen" unicode="-" horiz-adv-x="797" 
d="M239 558h607l-44 -174h-607z" />
    <glyph glyph-name="period" unicode="." horiz-adv-x="500" 
d="M137 44c4.66699 18 12.3311 34.667 22.998 50s23.167 28.5 37.5 39.5s29.833 19.667 46.5 26s33.334 9.5 50.001 9.5s31.834 -3.16699 45.501 -9.5s24.834 -15 33.501 -26s14.5 -24.167 17.5 -39.5s2.16699 -32 -2.5 -50s-12.167 -34.833 -22.5 -50.5
s-22.666 -29 -36.999 -40s-30 -19.667 -47 -26s-33.833 -9.5 -50.5 -9.5s-31.834 3.16699 -45.501 9.5s-24.834 15 -33.501 26s-14.5 24.333 -17.5 40s-2.16699 32.5 2.5 50.5z" />
    <glyph glyph-name="slash" unicode="/" horiz-adv-x="769" 
d="M-131 -322l536.5 947.5l536.5 947.5h198l-266 -469.5l-270.5 -478l-270.5 -478l-266 -469.5h-198z" />
    <glyph glyph-name="zero" unicode="0" horiz-adv-x="1066" 
d="M742 121c27.333 47.333 53.5029 104.503 78.5029 171.503s49.5 146.167 73.5 237.5c17.333 69.333 30.833 132.833 40.5 190.5s15.167 108.5 16.5 152.5c-0.666992 34 -4 65 -10 93s-14.833 51.833 -26.5 71.5s-25.834 35 -42.501 46s-36 16.5 -58 16.5
c-44 0 -87.333 -19.5 -130 -58.5s-82.667 -97.5 -120 -175.5l1 1c-22 -42.667 -42.667 -93 -62 -151s-38 -123 -56 -195c-16.667 -66.667 -29.334 -127.334 -38.001 -182.001s-12.334 -101.334 -11.001 -140.001v1c0 -70.667 12.167 -123.834 36.5 -159.501
s60.5 -53.5 108.5 -53.5c38 -1.33301 73.667 9.66699 107 33s64 57 92 101zM1112 955.003c32 -116 28.334 -251.333 -10.999 -406c-13.333 -60 -31.666 -118.167 -54.999 -174.5s-51 -111.166 -83 -164.499c-60.667 -102 -128.167 -177.833 -202.5 -227.5
s-156.166 -74.5 -245.499 -74.5c-28.667 -0.666992 -56 2.83301 -82 10.5s-50.167 18.667 -72.5 33s-42.333 31.833 -60 52.5s-32.834 43.667 -45.501 69c-24 58 -36.667 126.833 -38 206.5s9.66699 167.167 33 262.5c18 74 42.5 145.167 73.5 213.5
s67.167 130.833 108.5 187.5c55.333 70.667 117.666 127.167 186.999 169.5s142.333 64.166 219 65.499c143.333 0 234.666 -74.333 273.999 -223z" />
    <glyph glyph-name="one" unicode="1" horiz-adv-x="900" 
d="M840 1176l-275.002 -1101c-5.33301 -20.667 -6.66602 -37.667 -3.99902 -51s7.33398 -21.666 14.001 -24.999c20 -10.667 67.333 -17 142 -19l-14 -55h-530l14 55c26 1.33301 52 4.66602 78 9.99902s51.667 12 77 20c7.33301 2.66699 15.833 13 25.5 31
s17.167 38 22.5 60l205 822c5.33301 20.667 5.33301 37.667 0 51s-13.333 20.666 -24 21.999c-10.667 0 -28.5 -3.66699 -53.5 -11s-59.5 -20 -103.5 -38l13 52l191 88.5l192 88.5h30z" />
    <glyph glyph-name="two" unicode="2" horiz-adv-x="1000" 
d="M810 113v-2c-0.666992 0 1 0.666992 5 2l-2 3zM63 -35l-0.998047 -0.99707l341.5 291c97.667 84 173.5 153.333 227.5 208c48 51.333 88.333 102.5 121 153.5s55 100.5 67 148.5c11.333 40 15 76.167 11 108.5s-14.333 59.166 -31 80.499
c-15.333 21.333 -34.5 37.666 -57.5 48.999s-51.167 17 -84.5 17c-79.333 0 -148.666 -28.333 -207.999 -85h1c-14.667 -12 -31.834 -31.167 -51.501 -57.5s-42.167 -59.5 -67.5 -99.5l-31.5 6l-31.5 6c36 74.667 73.667 137.667 113 189s79.333 91 120 119
c44 27.333 87.667 48 131 62s86 21 128 21c53.333 0 98.666 -7.83301 135.999 -23.5s69 -40.5 95 -74.5c25.333 -34 40.333 -70.833 45 -110.5s1 -83.834 -11 -132.501c-12 -48 -33.167 -97.333 -63.5 -148s-66.833 -98 -109.5 -142l-207.5 -185.5l-320.5 -270.5h370
c47.333 0 86 5.66699 116 17l1 -1c12.667 8.66699 28.167 22 46.5 40s38.166 39.667 59.499 65c7.33301 -3.33301 14.5 -6.83301 21.5 -10.5s14.167 -7.16699 21.5 -10.5l-86 -134.5l-86 -134.5h-735z" />
    <glyph glyph-name="three" unicode="3" horiz-adv-x="1011" 
d="M366 56c23.333 -16.667 44.334 -29.1689 63.001 -37.502s36.667 -12.5 54 -12.5c38.667 0 74.334 7.66699 107.001 23s61.5 35 86.5 59s46.167 51 63.5 81s29.666 60 36.999 90c10 41.333 12 78.833 6 112.5s-19.667 62.334 -41 86.001s-49.666 42 -84.999 55
s-77.333 19.5 -126 19.5h-20.5c-5 0 -9.66699 -0.5 -14 -1.5s-8.66602 -2.33301 -12.999 -4s-10.166 -4.16699 -17.499 -7.5l15 61c50.667 17.333 97.167 35.333 139.5 54s79.5 39.334 111.5 62.001s58.667 47.667 80 75s36.333 58.333 45 93c8 32 8.83301 59.5 2.5 82.5
s-17.166 42 -32.499 57s-33.833 26.167 -55.5 33.5s-43.834 11 -66.501 11c-30 0 -60 -6 -90 -18s-60.667 -28.667 -92 -50c-14 -13.333 -30.833 -30.666 -50.5 -51.999l-71.5 -79l-23 6.5l-23 6.5c25.333 48.667 55 92.834 89 132.501s70.667 73.667 110 102
s80.833 50.166 124.5 65.499s87.5 23 131.5 23c48 0 88.667 -8 122 -24s59.5 -36.5 78.5 -61.5s31 -52.833 36 -83.5s3.83301 -61 -3.5 -91c-6 -24.667 -14 -47.167 -24 -67.5s-23.167 -39.833 -39.5 -58.5s-36.666 -37.334 -60.999 -56.001s-54.166 -39 -89.499 -61
c31.333 -16 57.666 -35.667 78.999 -59s37.666 -49.166 48.999 -77.499s17.666 -58.666 18.999 -90.999s-2.33398 -65.833 -11.001 -100.5c-14 -56 -39.167 -110.5 -75.5 -163.5s-82 -100.333 -137 -142s-118.333 -75 -190 -100s-149.834 -37.5 -234.501 -37.5
c-40.667 0 -73.667 3.33301 -99 10s-44.666 15.5 -57.999 26.5s-21.5 23.667 -24.5 38s-2.5 29.166 1.5 44.499c5.33301 23.333 16.666 42.166 33.999 56.499s37.666 21.5 60.999 21.5c17.333 0 36.333 -3.83301 57 -11.5s42.667 -21.167 66 -40.5z" />
    <glyph glyph-name="four" unicode="4" horiz-adv-x="1066" 
d="M816 930l-93 -97.5l-96 -99.5l-37 -38.5l-37 -37.5l-55 -57l-53 -55l-80 -83l-83 -87h396zM943 1176h106l-200 -801h187l-37 -147h-187l-75 -303h-171l75 303h-510l35 139z" />
    <glyph glyph-name="five" unicode="5" horiz-adv-x="1005" 
d="M335 56c23.333 -17.333 43.498 -30.5068 60.498 -39.5068s31.5 -13.5 43.5 -13.5c34 0 67.667 8.33301 101 25s64.333 38.667 93 66s53.667 58.833 75 94.5s36.666 72.5 45.999 110.5c12.667 52 13 99.5 1 142.5s-34.5 80.5 -67.5 112.5s-75.167 58.167 -126.5 78.5
s-109.666 33.5 -174.999 39.5h-19c-14.667 0 -26.834 1.83301 -36.501 5.5s-12.834 12.167 -9.50098 25.5l2 6c0.666992 1.33301 1.33398 2.5 2.00098 3.5s1 2.16699 1 3.5c1.33301 1.33301 2.5 3 3.5 5l2.5 5l150.5 215l152.5 216h395c12.667 0 26.834 4.83301 42.501 14.5
s34.167 22.834 55.5 39.501c2.66699 -4 6.16699 -8.83301 10.5 -14.5l10.5 -13.5l-49 -77.5l-50 -77.5c-10.667 -13.333 -22 -23.5 -34 -30.5s-23 -10.5 -33 -10.5h-355c-7.33301 -8.66699 -13.333 -16.334 -18 -23.001l-13 -19l-10 -14.5
c-4 -5.66699 -7.66699 -10.5 -11 -14.5l-23 -28.5c-8 -10.333 -14.667 -20.166 -20 -29.499c5.33301 -1.33301 11.5 -2.66602 18.5 -3.99902s13.167 -2.66602 18.5 -3.99902c32 -6.66699 61.667 -13.167 89 -19.5s47 -12.5 59 -18.5
c43.333 -19.333 80.5 -44.166 111.5 -74.499s55.5 -64.5 73.5 -102.5s29.667 -78.667 35 -122s4.33301 -87.666 -3 -132.999c-17.333 -64 -46 -124.667 -86 -182s-88 -107.666 -144 -150.999s-118 -77.666 -186 -102.999s-138.333 -38 -211 -38
c-80.667 0 -139 10.833 -175 32.5s-48.333 54.5 -37 98.5c2.66699 11.333 7.83398 22 15.501 32s16.667 18.667 27 26s21.833 13 34.5 17s25.334 6 38.001 6c19.333 0 38.833 -5 58.5 -15s41.5 -25.667 65.5 -47z" />
    <glyph glyph-name="six" unicode="6" horiz-adv-x="972" 
d="M793 43c-94 -91.333 -200 -136.998 -318 -136.998c-52 0 -100.333 13.5 -145 40.5s-81.667 64.5 -111 112.5c-63.333 102.667 -75 235.334 -35 398.001c26.667 105.333 73.834 205.333 141.501 300s151.167 179 250.5 253v-1
c87.333 60.667 179.166 107.167 275.499 139.5s194.833 48.5 295.5 48.5c-2 -9.33301 -3.5 -18.5 -4.5 -27.5s-2.5 -18.167 -4.5 -27.5c-38.667 -5.33301 -76.5 -13.5 -113.5 -24.5s-70.833 -22.5 -101.5 -34.5c-30 -12.667 -58.667 -26.5 -86 -41.5
s-52.666 -31.833 -75.999 -50.5c-25.333 -20.667 -51.666 -44.834 -78.999 -72.501s-55 -57.5 -83 -89.5c-18.667 -22 -36.834 -46.667 -54.501 -74l-49.5 -80c32 16 57 26.333 75 31c23.333 8.66699 48.833 15.667 76.5 21s53.5 8.66602 77.5 9.99902
c50 0 93.5 -9.16699 130.5 -27.5s67.5 -44.5 91.5 -78.5c23.333 -35.333 37.666 -76.333 42.999 -123s0.333008 -101.334 -15 -164.001c-14 -58 -36 -111.5 -66 -160.5s-68.333 -95.833 -115 -140.5zM778 480.002c-7.33301 48 -23.666 83.667 -48.999 107s-62 35 -110 35
c-42 1.33301 -79.167 -5.16699 -111.5 -19.5s-58.166 -31.833 -77.499 -52.5c-12.667 -16.667 -24.334 -37.5 -35.001 -62.5s-20.667 -55.5 -30 -91.5c-10.667 -44 -15.834 -90.167 -15.501 -138.5s3.83301 -94.5 10.5 -138.5c10 -41.333 26.667 -73.333 50 -96
s56 -34 98 -34c34.667 0 65.334 7.16699 92.001 21.5s49.667 34.5 69 60.5c21.333 28.667 40.666 59.667 57.999 93s31 70.333 41 111c18 72 21.333 140.333 10 205z" />
    <glyph glyph-name="seven" unicode="7" horiz-adv-x="961" 
d="M1162 1157l-12 -49l-170.5 -297l-174 -303l-174 -303l-170.5 -297h-148l630 1088h-367c-24 0 -46.833 -2.66699 -68.5 -8s-40.167 -12.333 -55.5 -21c-9.33301 -6 -25 -19.333 -47 -40s-49 -49.334 -81 -86.001c-8.66699 4.66699 -17.334 9 -26.001 13
s-17 8.33301 -25 13c4 7.33301 8.83301 15.333 14.5 24s11.167 16.667 16.5 24c1.33301 2.66699 2.83301 5.16699 4.5 7.5l4.5 6.5l32 47l26.5 39l18 27c4.33301 6.66699 6.5 10.334 6.5 11.001c1.33301 2.66699 4.33301 8.16699 9 16.5s10.334 17.833 17.001 28.5l20.5 32
c7 10.667 13.167 19.667 18.5 27h701z" />
    <glyph glyph-name="eight" unicode="8" horiz-adv-x="972" 
d="M350 688c-16 30 -25.4951 61.1719 -28.4951 93.5049s0.166992 66.166 9.5 101.499c11.333 44 29.5 83.167 54.5 117.5s58.5 66.166 100.5 95.499c81.333 54 175.666 82.333 282.999 85c94.667 0 167 -27.667 217 -83l1 1c21.333 -29.333 35.666 -59.5 42.999 -90.5
s6.33301 -64.5 -3 -100.5c-8.66699 -34 -25.334 -68.167 -50.001 -102.5s-54.667 -65.5 -90 -93.5v1c-18.667 -13.333 -42.834 -28.833 -72.501 -46.5s-61.5 -35.5 -95.5 -53.5c38.667 -36 70.334 -69.5 95.001 -100.5s44.667 -59.833 60 -86.5
c14.667 -28 23.667 -59.667 27 -95s0.333008 -71.333 -9 -108c-5.33301 -20.667 -13.333 -41.334 -24 -62.001s-23.167 -40.834 -37.5 -60.501s-30 -38.334 -47 -56.001s-33.833 -33.5 -50.5 -47.5c-40 -28 -85 -50.167 -135 -66.5s-101.333 -24.5 -154 -24.5
c-47.333 -1.33301 -91.333 4.66699 -132 18s-76.667 34 -108 62c-56 60 -73 135 -51 225c10 39.333 25.833 76.833 47.5 112.5s47.5 68.167 77.5 97.5c20 18.667 45.667 38.667 77 60s66.666 43.333 105.999 66c-26 28 -48.833 54.5 -68.5 79.5s-33.834 45.5 -42.501 61.5z
M624.005 33.0049c44 36.667 73.001 81.999 87.001 135.999c8.66699 30.667 11 58.334 7 83.001s-12.333 46 -25 64h1c-10.667 17.333 -30.834 41 -60.501 71s-67.5 64 -113.5 102c-22.667 -15.333 -45.167 -32.166 -67.5 -50.499s-41.166 -38.5 -56.499 -60.5
c-34 -50.667 -57 -98.334 -69 -143.001c-10 -40 -13.833 -74.667 -11.5 -104s9.16602 -55 20.499 -77c17.333 -22 37 -39 59 -51s48 -18 78 -18c32 0 60.5 4.5 85.5 13.5s48.167 22.167 69.5 39.5zM656.006 668.004c26 15.333 50.167 31.167 72.5 47.5
s41.166 31.166 56.499 44.499c20 20.667 37.5 43.5 52.5 68.5s26.167 53.167 33.5 84.5c7.33301 27.333 9.66602 52 6.99902 74s-9.66699 42 -21 60s-27.666 31.333 -48.999 40s-49.666 13.667 -84.999 15c-50.667 0 -96.334 -16 -137.001 -48c-42 -34 -68.333 -73 -79 -117
c-6.66699 -25.333 -8.16699 -50 -4.5 -74s11.167 -46.667 22.5 -68c18 -21.333 37.833 -43.166 59.5 -65.499s44.834 -42.833 69.501 -61.5h2z" />
    <glyph glyph-name="nine" unicode="9" horiz-adv-x="1016" 
d="M1031 1017c44.667 -104 50.3311 -222.667 16.998 -356c-24 -97.333 -60.667 -189.333 -110 -276s-112.833 -164.334 -190.5 -233.001s-170 -126.667 -277 -174s-230.5 -80 -370.5 -98c0.666992 10 0.666992 19.667 0 29s-0.666992 19 0 29
c4.66699 3.33301 10.334 6 17.001 8s11.667 3 15 3c72.667 19.333 141.167 45.333 205.5 78s123.333 70.167 177 112.5s102 88.333 145 138s79.5 101.167 109.5 154.5c-20 -11.333 -41.667 -21.833 -65 -31.5s-46.833 -18 -70.5 -25s-46.667 -12.5 -69 -16.5
s-42.5 -6 -60.5 -6c-51.333 0 -95.666 9.66699 -132.999 29s-66.833 45.833 -88.5 79.5s-35.167 73.334 -40.5 119.001s-1.33301 95.167 12 148.5c17.333 68.667 42.833 130.834 76.5 186.501s73 103.167 118 142.5s94 69.666 147 90.999s107.167 32 162.5 32
c132 0 223 -54.667 273 -164zM724.997 491c22 10.667 39.332 20.4971 51.999 29.4971s22.834 18.833 30.501 29.5s13.5 22.5 17.5 35.5s8.33301 28.5 13 46.5l17 67c14 54.667 22.167 106.334 24.5 155.001s-1.66699 91.334 -12 128.001s-27.333 65.5 -51 86.5
s-54.834 31.5 -93.501 31.5c-26 0 -51.667 -6.5 -77 -19.5s-49 -32.333 -71 -58s-42.167 -57.167 -60.5 -94.5s-33.5 -80 -45.5 -128c-9.33301 -37.333 -15.666 -75.833 -18.999 -115.5s-1 -76 7 -109s23.333 -60.167 46 -81.5s55.667 -32 99 -32
c18 0 37.333 2.83301 58 8.5s43.667 13.834 69 24.501z" />
    <glyph glyph-name="colon" unicode=":" horiz-adv-x="1099" 
d="M959 107c-8.66699 -34.667 -28.334 -64.667 -59.001 -90c-32 -24.667 -65.667 -37 -101 -37c-36 0 -63.667 12.333 -83 37c-18.667 25.333 -24 55.333 -16 90c4.66699 17.333 12.334 33.666 23.001 48.999s23.334 28.666 38.001 39.999s30.667 20.166 48 26.499
s34.666 9.5 51.999 9.5c18 0 34 -3.16699 48 -9.5s25.5 -15.166 34.5 -26.499s15 -24.666 18 -39.999s2.16699 -31.666 -2.5 -48.999zM1156 898c-8 -34 -27.667 -63.668 -59 -89.001c-31.333 -24 -65 -36 -101 -36c-35.333 0 -63 12 -83 36
c-18.667 24.667 -24 54.334 -16 89.001c4.66699 18 12.334 34.667 23.001 50s23.5 28.666 38.5 39.999s31.167 20.166 48.5 26.499s34.666 9.5 51.999 9.5c18 0 34 -3.16699 48 -9.5s25.333 -15.166 34 -26.499s14.5 -24.666 17.5 -39.999s2.16699 -32 -2.5 -50z" />
    <glyph glyph-name="semicolon" unicode=";" horiz-adv-x="1072" 
d="M534 -244c41.333 19.333 78.833 39.335 112.5 60.002s62.667 41 87 61s44 39 59 57s24.167 34 27.5 48c2 8.66699 2.83301 18.667 2.5 30s-1.5 20.666 -3.5 27.999c-13.333 -8.66699 -25.166 -14.667 -35.499 -18s-20.833 -5 -31.5 -5c-16 0 -30.5 2.83301 -43.5 8.5
s-23.833 13.834 -32.5 24.501s-14.5 23 -17.5 37s-2.5 29.667 1.5 47c4.66699 20 12.667 37.667 24 53s24.333 28.166 39 38.499s30.5 18.166 47.5 23.499s33.833 8 50.5 8c22 0 43 -5.5 63 -16.5s36.833 -26.5 50.5 -46.5s22.667 -44 27 -72s2.16602 -59.333 -6.50098 -94
c-8 -32 -23.5 -63.667 -46.5 -95s-50.167 -60.666 -81.5 -87.999s-65.5 -51.833 -102.5 -73.5s-72.833 -38.834 -107.5 -51.501zM828 779.002c4 16.667 11.1641 32.5 21.4971 47.5s22.833 28.333 37.5 40s30.334 20.834 47.001 27.501s33.667 10 51 10
c16.667 0 31.834 -3.33301 45.501 -10s24.834 -15.834 33.501 -27.501s14.5 -25 17.5 -40s2.5 -30.833 -1.5 -47.5s-11.5 -32.667 -22.5 -48s-23.667 -28.666 -38 -39.999s-30 -20.5 -47 -27.5s-33.833 -10.5 -50.5 -10.5c-17.333 0 -32.666 3.5 -45.999 10.5
s-24.333 16.167 -33 27.5s-14.334 24.666 -17.001 39.999s-2 31.333 2 48z" />
    <glyph glyph-name="less" unicode="&#x3c;" horiz-adv-x="1061" 
d="M991 69l-42 -167l-416.5 230.5l-416.5 230.5l18 71l531.5 230.5l531.5 230.5l-42 -166l-746 -328z" />
    <glyph glyph-name="equal" unicode="=" horiz-adv-x="1094" 
d="M1096 292l-38 -152h-948l38 152h948zM1188 659l-38 -152h-948l38 152h948z" />
    <glyph glyph-name="greater" unicode="&#x3e;" horiz-adv-x="1228" 
d="M297 727l42 171l452.5 -230.5l452.5 -230.5l-18 -74l-567.5 -230.5l-567.5 -230.5l43 171l810 328z" />
    <glyph glyph-name="question" unicode="?" horiz-adv-x="907" 
d="M428 17c4.66699 18 12 34.833 22 50.5s22 29 36 40s29.5 19.667 46.5 26s34.5 9.5 52.5 9.5s33.833 -3.16699 47.5 -9.5s24.667 -15 33 -26s13.833 -24.333 16.5 -40s1.66699 -32.5 -3 -50.5s-12 -34.667 -22 -50s-22 -28.5 -36 -39.5s-29.333 -19.667 -46 -26
s-34 -9.5 -52 -9.5s-34 3.16699 -48 9.5s-25.167 15 -33.5 26s-13.833 24.167 -16.5 39.5s-1.66699 32 3 50zM513 237c-19.333 35.333 -30.998 67.502 -34.998 96.502s-3.33301 53.167 2 72.5c5.33301 21.333 13.5 41.833 24.5 61.5s25.833 37.834 44.5 54.501
c8.66699 8 20.834 17.833 36.501 29.5s33.667 24.334 54 38.001l66.5 43l73 45.5c26 16 49.667 32.667 71 50s40.333 35 57 53s30.334 35.667 41.001 53s18 33.666 22 48.999c10 42 3.5 75.333 -19.5 100s-58.5 37 -106.5 37c-37.333 0 -71.333 -7.66699 -102 -23
s-54.667 -37 -72 -65c38 -1.33301 63.833 -10.833 77.5 -28.5s16.5 -42.834 8.5 -75.501c-4 -16 -11.5 -31.333 -22.5 -46s-23.667 -27.5 -38 -38.5s-29.5 -19.667 -45.5 -26s-31 -9.5 -45 -9.5c-46 0 -78.833 14.5 -98.5 43.5s-22.834 69.5 -9.50098 121.5
c9.33301 37.333 24.666 71.333 45.999 102s47.166 57 77.499 79s64.5 39.167 102.5 51.5s78.333 18.5 121 18.5c44.667 0 83.334 -7.5 116.001 -22.5s58.667 -35.5 78 -61.5s31.5 -56.833 36.5 -92.5s2.5 -74.5 -7.5 -116.5c-7.33301 -29.333 -16.5 -56.5 -27.5 -81.5
s-25.5 -49 -43.5 -72s-39.833 -45.667 -65.5 -68s-56.5 -45.5 -92.5 -69.5c-70.667 -48 -125 -87.333 -163 -118s-63.333 -56.334 -76 -77.001c-2.66699 -12.667 -3.16699 -25.834 -1.5 -39.501s5.16699 -26.167 10.5 -37.5c11.333 -17.333 20.666 -33 27.999 -47
s13.666 -30.667 18.999 -50z" />
    <glyph glyph-name="at" unicode="@" horiz-adv-x="1436" 
d="M678 301c7.33301 -8 16.001 -14.668 26.001 -20.001s22 -8 36 -8c22.667 0 46 8.5 70 25.5s47.333 38.667 70 65s44.334 55.5 65.001 87.5s39.167 63 55.5 93s29.833 57.333 40.5 82s17.334 42.667 20.001 54c2.66699 10.667 3.66699 21 3 31s-3.33398 19 -8.00098 27
s-11.667 14.333 -21 19s-21.333 7 -36 7c-20 0 -41 -6 -63 -18s-44 -28.167 -66 -48.5s-43.5 -43.666 -64.5 -69.999s-40.167 -53.5 -57.5 -81.5s-32.5 -56 -45.5 -84s-22.5 -54 -28.5 -78c-4.66699 -18 -6.83398 -34.5 -6.50098 -49.5s3.16602 -26.5 8.49902 -34.5z
M270.001 71.999c-108 118 -141.332 260.665 -99.999 427.998c23.333 94 65.333 182 126 264s135 155.333 223 220c42.667 30 87.834 57.333 135.501 82s96.5 45.834 146.5 63.501s100.5 31.334 151.5 41.001s101.5 14.5 151.5 14.5c82.667 0 157.167 -12.667 223.5 -38
s121 -60.666 164 -105.999s72.333 -99.333 88 -162s14.167 -131.334 -4.5 -206.001c-10.667 -41.333 -25.834 -82.166 -45.501 -122.499s-42.667 -78.833 -69 -115.5s-55.333 -70.5 -87 -101.5s-64.5 -57.833 -98.5 -80.5s-68.5 -40.5 -103.5 -53.5
s-69.167 -19.5 -102.5 -19.5c-44.667 0 -80.334 8.83301 -107.001 26.5s-40.667 47.834 -42 90.501c-15.333 -15.333 -32 -30 -50 -44s-36.833 -26.5 -56.5 -37.5s-40 -19.667 -61 -26s-41.5 -9.5 -61.5 -9.5c-33.333 0 -63 6.66699 -89 20s-47.333 31.833 -64 55.5
s-28.167 51.667 -34.5 84s-6.16602 67.833 0.500977 106.5c8.66699 30.667 22.167 62.334 40.5 95.001s40.166 64.5 65.499 95.5s53.5 60.167 84.5 87.5s63.333 51.166 97 71.499s67.834 36.5 102.501 48.5s68.334 18 101.001 18c33.333 0 62.666 -8 87.999 -24
s44 -35 56 -57l7.5 12.5c3 5 5.16699 9.16699 6.5 12.5c1.33301 1.33301 2 2.33301 2 3s0.666992 1.66699 2 3c2.66699 4.66699 5.33398 9.66699 8.00098 15s5 9.66602 7 12.999h179l-40.5 -70.5l-41.5 -72.5l-36 -63l-22 -39c-44 -76 -76.333 -134.667 -97 -176
s-32.667 -67.666 -36 -78.999c-2 -8.66699 -1.83301 -17 0.5 -25s6 -15 11 -21s10.833 -10.667 17.5 -14s13.667 -5 21 -5c18 0 38 4.83301 60 14.5s44.5 23.167 67.5 40.5s46 38.166 69 62.499s44.5 51 64.5 80s38 60.167 54 93.5s28.333 68 37 104
c11.333 46 15 88.333 11 127s-14.167 73.334 -30.5 104.001s-37.666 57.667 -63.999 81s-55.833 42.666 -88.5 57.999s-67.834 26.833 -105.501 34.5s-75.5 11.5 -113.5 11.5c-53.333 0 -107.5 -7.16699 -162.5 -21.5s-108.833 -34.333 -161.5 -60
s-102.834 -56.334 -150.501 -92.001s-91 -75.167 -130 -118.5s-72.5 -89.666 -100.5 -138.999s-48.667 -100.333 -62 -153c-19.333 -76 -22.666 -145.167 -9.99902 -207.5s38.834 -116 78.501 -161s91.167 -79.833 154.5 -104.5s136.666 -37 219.999 -37
c34 0 71.5 3.5 112.5 10.5s83.167 17.167 126.5 30.5s86.666 29.5 129.999 48.5s84.333 40.167 123 63.5c5.33301 -13.333 10.166 -26.5 14.499 -39.5s9.16602 -26.167 14.499 -39.5c-52.667 -28.667 -102.667 -53.5 -150 -74.5s-93.833 -38.333 -139.5 -52
s-91.5 -23.834 -137.5 -30.501s-94 -10 -144 -10c-191.333 0 -339.666 57.667 -444.999 173z" />
    <glyph glyph-name="A" unicode="A" horiz-adv-x="1282" 
d="M-17 -75l15 61.9971c24 1.33301 46.167 7.5 66.5 18.5s41.833 28 64.5 51s47.334 52.667 74.001 89l94 133.5l237 354l242 360l64 95l62 93h60l197 -1041c8 -35.333 14.667 -62.666 20 -81.999s11.333 -33.666 18 -42.999s14.834 -15.5 24.501 -18.5
s22.834 -5.83301 39.501 -8.5c2.66699 -0.666992 6.16699 -1.16699 10.5 -1.5s8.16602 -0.833008 11.499 -1.5l-15 -60h-492l14 57c8.66699 1.33301 16.667 2.33301 24 3s14.333 1.66699 21 3c12.667 1.33301 24.5 2.83301 35.5 4.5s20.667 4.33398 29 8.00098
s15.166 8.5 20.499 14.5s9.33301 14 12 24c3.33301 11.333 4.33301 23 3 35l-4 35c-1.33301 8.66699 -2.33301 16.834 -3 24.501s-1 14.167 -1 19.5c-2.66699 17.333 -5.83398 34.333 -9.50098 51l-11.5 51c-2.66699 10.667 -5 21.5 -7 32.5l-6 31.5h-453l-11 -15
c-33.333 -47.333 -59.5 -85.833 -78.5 -115.5s-33.5 -53.667 -43.5 -72s-16.667 -32 -20 -41s-5.66602 -16.167 -6.99902 -21.5c-4 -15.333 -2.83301 -27.333 3.5 -36s15.166 -15.334 26.499 -20.001s24 -7.66699 38 -9s27 -2 39 -2l-15 -62h-389zM884 421.997
c-14.667 74.667 -28.333 149 -41 223l-37 225l-107.5 -165.5l-108.5 -163.5l-39 -59.5l-39 -59.5h372z" />
    <glyph glyph-name="B" unicode="B" horiz-adv-x="1106" 
d="M407 82c-2.66699 -9.33301 -3.49805 -18.835 -2.49805 -28.502s3.16699 -16.5 6.5 -20.5c20 -5.33301 39.833 -8.66602 59.5 -9.99902s38.5 -2 56.5 -2c42.667 0 84 6.5 124 19.5s78 30.833 114 53.5c35.333 24 64.666 50.833 87.999 80.5s39.666 60.834 48.999 93.501
c8.66699 33.333 9.16699 64.333 1.5 93s-21.5 55.667 -41.5 81c-23.333 24 -50.833 42.667 -82.5 56s-67.5 20 -107.5 20h-156zM-6.99805 -13.002c28 1.33301 54.002 4.66992 78.002 10.0029s48.667 12.666 74 21.999c12.667 18.667 24.834 38.5 36.501 59.5
s19.5 40.167 23.5 57.5l202 810c5.33301 20 7.66602 39.667 6.99902 59s-3 37.666 -7 54.999c-19.333 9.33301 -40.833 17.166 -64.5 23.499s-48.167 10.166 -73.5 11.499l15 62h526c66.667 0 129.5 -6.5 188.5 -19.5s107.167 -30.167 144.5 -51.5
c18 -10.667 33.167 -24.834 45.5 -42.501s21.833 -37.667 28.5 -60s10.167 -46.5 10.5 -72.5s-2.83398 -52.667 -9.50098 -80c-10 -38.667 -28.5 -76.5 -55.5 -113.5s-57.833 -68.167 -92.5 -93.5c-12.667 -8 -29.167 -16.667 -49.5 -26s-42.166 -17.666 -65.499 -24.999
c28 -11.333 53.667 -24.666 77 -39.999s44.666 -31.666 63.999 -48.999c24 -24.667 40 -55.5 48 -92.5s7 -75.833 -3 -116.5c-8 -32.667 -21 -64.5 -39 -95.5s-39.5 -60 -64.5 -87s-52.833 -51.167 -83.5 -72.5s-62.334 -39 -95.001 -53
c-36.667 -12.667 -79 -22.834 -127 -30.501s-97 -11.5 -147 -11.5h-607zM851.004 649.002c17.333 7.33301 34.1689 16.998 50.502 28.998s31.166 25.667 44.499 41s25 32 35 50s17.333 37 22 57c5.33301 22 7.66602 43.5 6.99902 64.5s-4.33398 40.667 -11.001 59
s-16 34.833 -28 49.5s-26.333 26.334 -43 35.001c-20.667 8 -48.5 14.667 -83.5 20s-76.5 8 -124.5 8c-11.333 0 -22 -0.666992 -32 -2s-20.667 -3.66602 -32 -6.99902c0 -0.666992 -0.333008 -1.5 -1 -2.5s-1 -2.16699 -1 -3.5
c-3.33301 -5.33301 -6.33301 -10.833 -9 -16.5s-4.66699 -11.5 -6 -17.5l-99 -397h36c12.667 0 25.334 0.666992 38.001 2h20.5c9.66699 0 17.167 0.333008 22.5 1c7.33301 0 14.333 0.166992 21 0.5s13.667 0.5 21 0.5c26.667 0 53.167 2.5 79.5 7.5s50.5 12.167 72.5 21.5
z" />
    <glyph glyph-name="C" unicode="C" horiz-adv-x="1209" 
d="M1189 1150c23.333 -7.33301 44.166 -13.502 62.499 -18.502s32.5 -8.16699 42.5 -9.5c6.66699 0 13 0.5 19 1.5s11 2.83301 15 5.5c18.667 9.33301 34.334 26.666 47.001 51.999h67l-45 -219l-45 -219h-70c-2.66699 42 -8.16699 80 -16.5 114s-18.166 63.333 -29.499 88
c-24 44 -57.333 77.333 -100 100s-94 34 -154 34c-62 0 -121.333 -12.5 -178 -37.5s-109.667 -61.167 -159 -108.5c-48.667 -47.333 -92 -105.333 -130 -174s-67.667 -146.334 -89 -233.001c-40 -159.333 -30.333 -286.666 29 -381.999
c28.667 -45.333 66 -79.666 112 -102.999s100.333 -35 163 -35c20.667 0 42.667 1.83301 66 5.5s46.833 8.5 70.5 14.5s47.167 13 70.5 21s45.333 16.667 66 26c23.333 10 51.166 26.167 83.499 48.5l105.5 76.5l18.5 -28.5l19.5 -28.5c-30 -26 -62.833 -52 -98.5 -78
s-68.834 -48.333 -99.501 -67c-57.333 -32 -117.5 -57 -180.5 -75s-124.5 -27 -184.5 -27c-97.333 0 -182.333 17 -255 51s-131.334 81.667 -176.001 143c-36.667 58.667 -59.667 125.334 -69 200.001s-3.33301 155.334 18 242.001c22 90 56.833 172.5 104.5 247.5
s107.834 143.833 180.501 206.5c36.667 30.667 75.834 58.167 117.501 82.5s84.5 45 128.5 62s89 30 135 39s92.333 13.5 139 13.5c32.667 0 65.167 -2.83301 97.5 -8.5s65.5 -13.167 99.5 -22.5h2z" />
    <glyph glyph-name="D" unicode="D" horiz-adv-x="1284" 
d="M-2 -13c38 3.33301 68.8291 8.17285 92.4961 14.5059s40.834 12.833 51.501 19.5s20.334 19.667 29.001 39s16.667 44.666 24 75.999l202 810c8 31.333 12.167 56.833 12.5 76.5s-2.16699 33.5 -7.5 41.5c-5.33301 7.33301 -19.166 13.5 -41.499 18.5
s-51.166 9.16699 -86.499 12.5l15 62h507c82.667 0 158.167 -7 226.5 -21s127.5 -33.667 177.5 -59c43.333 -25.333 80.166 -55.833 110.499 -91.5s53.5 -76.334 69.5 -122.001s24.5 -95.667 25.5 -150s-6.16699 -112.833 -21.5 -175.5c-6 -22 -13.333 -44.667 -22 -68
s-18.334 -46.333 -29.001 -69s-22.167 -44.834 -34.5 -66.501s-24.833 -41.834 -37.5 -60.501c-29.333 -40.667 -63.166 -79.334 -101.499 -116.001s-79.833 -69.334 -124.5 -98.001c-28 -18 -56.667 -34 -86 -48s-56.666 -25.667 -81.999 -35
c-52 -17.333 -108.167 -30.333 -168.5 -39s-124.833 -13 -193.5 -13h-522zM648.996 1053.01l-0.999023 -2.99902c-4 -4.66699 -8.16699 -10.834 -12.5 -18.501s-7.83301 -16.167 -10.5 -25.5l-230 -924c-3.33301 -12 -5 -21.833 -5 -29.5s2.66699 -13.5 8 -17.5
c9.33301 -8 36.666 -12 81.999 -12c68 0 132.167 7 192.5 21s116.5 33.667 168.5 59c75.333 43.333 140.5 101.833 195.5 175.5s94.5 159.167 118.5 256.5c22 88.667 26 167.667 12 237s-42 128 -84 176c-18 16.667 -39.667 31.834 -65 45.501s-53.166 25.5 -83.499 35.5
s-62.833 17.833 -97.5 23.5s-70.334 8.83398 -107.001 9.50098c-15.333 1.33301 -29.5 1.16602 -42.5 -0.500977s-23.833 -3.83398 -32.5 -6.50098h1z" />
    <glyph glyph-name="E" unicode="E" horiz-adv-x="1102" 
d="M-2 -13c34 3.33301 61.8311 7.00195 83.498 11.002s39.5 10.833 53.5 20.5s25.167 23.667 33.5 42s16.5 43.5 24.5 75.5l202 810c8 31.333 12.667 56.166 14 74.499s-2.33398 32.333 -11.001 42s-23 16.667 -43 21s-47 8.16602 -81 11.499l15 62h1000l-72 -289h-71
c4 41.333 4.66699 74.5 2 99.5s-11.667 44.333 -27 58s-38.333 22.834 -69 27.501s-71.667 7 -123 7h-246c-13.333 0 -23.666 -1.16699 -30.999 -3.5s-12 -4.83301 -14 -7.5h1c-2.66699 -2 -6.66699 -14 -12 -36l-98 -393h264c37.333 0 67 1.83301 89 5.5
s40.5 11.5 55.5 23.5s28.833 29.667 41.5 53s28.667 54.666 48 93.999h69l-112 -450h-69c0.666992 39.333 0.333984 70.5 -0.999023 93.5s-6.66602 40.5 -15.999 52.5s-24 19.833 -44 23.5s-48.667 5.5 -86 5.5h-264l-108 -434c-4 -15.333 -5.83301 -27.166 -5.5 -35.499
s7 -14.333 20 -18s34.667 -5.83398 65 -6.50098s73.5 -1 129.5 -1c53.333 0 101 1.83301 143 5.5s81.333 13.334 118 29.001s72.167 39.167 106.5 70.5s70.833 74.666 109.5 129.999h86l-89.5 -168l-89.5 -168h-1006z" />
    <glyph glyph-name="F" unicode="F" horiz-adv-x="1013" 
d="M-2 -13c42 4.66699 74.332 9.67188 96.999 15.0049s40.334 13.5 53.001 24.5s22 26.667 28 47s13.667 48.166 23 83.499l196 789c8 31.333 12.667 56.166 14 74.499s-2.33398 32.333 -11.001 42s-23 16.667 -43 21s-47 8.16602 -81 11.499l15 62h1003l-72 -289h-76
c2.66699 44.667 1.66699 79.667 -3 105s-15 44.5 -31 57.5s-38.667 21.167 -68 24.5s-67 5 -113 5h-247c-15.333 0 -27 -2.83301 -35 -8.5s-14.667 -18.5 -20 -38.5l-98 -393h248c36.667 0 66 1.83301 88 5.5s40.667 11.5 56 23.5s29.333 29.667 42 53
s28.334 54.666 47.001 93.999h69l-112 -450h-69c0.666992 42 0 74.833 -2 98.5s-8 41.167 -18 52.5s-25 18.166 -45 20.499s-47 3.5 -81 3.5h-248l-96 -385c-7.33301 -30 -12.333 -54 -15 -72s0 -32.167 8 -42.5s22.667 -17.833 44 -22.5s52 -8.66699 92 -12l-15 -62h-539z
" />
    <glyph glyph-name="G" unicode="G" horiz-adv-x="1301" 
d="M1194 1150c39.333 -14 73.333 -23.334 102 -28.001c12 0 21.5 0.5 28.5 1.5s13 3.16699 18 6.5s9.83301 8.16602 14.5 14.499l18 25.5c0 1.33301 0.666992 2.66602 2 3.99902c0.666992 1.33301 1.5 2.5 2.5 3.5l3.5 3.5h83l-103 -414h-70c-12 64 -26 116.167 -42 156.5
s-35.667 72 -59 95s-51.5 38.833 -84.5 47.5s-72.5 13 -118.5 13c-53.333 0 -107.833 -9.33301 -163.5 -28s-109 -49.667 -160 -93s-97.667 -100.5 -140 -171.5s-76.5 -158.833 -102.5 -263.5c-20.667 -82 -27.5 -155.333 -20.5 -220s25 -119.167 54 -163.5
s67.667 -78.166 116 -101.499s103.5 -35 165.5 -35c6.66699 0 13.834 0.333008 21.501 1l22.5 2c6 0.666992 11.667 1.16699 17 1.5s9.66602 0.5 12.999 0.5c6.66699 0.666992 12.834 1.83398 18.501 3.50098l19.5 5.5c8.66699 3.33301 17.167 6 25.5 8s15.5 3 21.5 3
c25.333 9.33301 46.166 17.333 62.499 24s29.833 14.334 40.5 23.001l78 312c8 31.333 12 56 12 74s-3.83301 31.833 -11.5 41.5s-19.5 16.334 -35.5 20.001s-36.333 6.83398 -61 9.50098c-4.66699 0.666992 -8.66699 1.16699 -12 1.5s-7.66602 0.833008 -12.999 1.5l15 62
h492l-15 -62c-30 -1.33301 -54 -4.16602 -72 -8.49902s-32.5 -11 -43.5 -20s-19.5 -21.333 -25.5 -37s-12 -35.5 -18 -59.5l-89 -356c-2.66699 -10 -12.667 -20.667 -30 -32s-39.666 -22.833 -66.999 -34.5s-58.333 -22.834 -93 -33.501s-70.5 -20 -107.5 -28
s-74 -14.5 -111 -19.5s-71.5 -7.5 -103.5 -7.5c-94 0 -177.667 15.167 -251 45.5s-132.833 73.333 -178.5 129s-75.834 122.167 -90.501 199.5s-10.334 163 12.999 257c22.667 92 60 177.667 112 257s113.833 148.166 185.5 206.499s151 104.166 238 137.499
s177.167 50 270.5 50c34 0 67.5 -2.83301 100.5 -8.5s66.5 -13.167 100.5 -22.5h5z" />
    <glyph glyph-name="H" unicode="H" horiz-adv-x="1254" 
d="M-7 -15c36.667 3.33301 66.9951 7.99707 90.9951 13.9971s41.667 13.667 53 23c9.33301 8.66699 19.333 24.834 30 48.501s20.334 52.5 29.001 86.5l196 789c8 31.333 11.833 56.5 11.5 75.5s-3.16602 33.167 -8.49902 42.5c-6.66699 7.33301 -20 14 -40 20
s-48.667 9.66699 -86 11l15 62h538l-15 -62c-40 -1.33301 -71.833 -4.66602 -95.5 -9.99902s-40.834 -12.333 -51.501 -21c-11.333 -8 -21.166 -21.5 -29.499 -40.5s-16.833 -44.833 -25.5 -77.5l-84 -340h525l84 340c8 31.333 11.833 56.5 11.5 75.5
s-3.16602 33.167 -8.49902 42.5c-5.33301 7.33301 -18.333 14 -39 20s-50 9.66699 -88 11l15 62h536l-15 -62c-36 -3.33301 -66.333 -7.5 -91 -12.5s-41.667 -11.167 -51 -18.5c-9.33301 -8 -19.5 -22.167 -30.5 -42.5s-20.167 -45.5 -27.5 -75.5l-202 -810
c-15.333 -63.333 -16 -101.666 -2 -114.999c6.66699 -7.33301 20.334 -14 41.001 -20s49.334 -10.667 86.001 -14l-15 -62h-536l15 62c41.333 3.33301 73.5 7.83301 96.5 13.5s38.5 12.167 46.5 19.5c22.667 19.333 43.334 65 62.001 137l84 340h-525l-90 -361
c-7.33301 -31.333 -11.666 -56.833 -12.999 -76.5s1.66699 -33.167 9 -40.5v1c5.33301 -8.66699 18.166 -15.167 38.499 -19.5s51.166 -8.83301 92.499 -13.5l-15 -62h-537z" />
    <glyph glyph-name="I" unicode="I" horiz-adv-x="573" 
d="M3 -13c40 1.33301 73.332 5.00293 99.999 11.0029s45.667 13 57 21c10 6 19.833 18.5 29.5 37.5s18.5 45.5 26.5 79.5l202 810c14.667 59.333 15 98.666 1 117.999c-6.66699 8.66699 -21 15.667 -43 21s-54 8.66602 -96 9.99902l15 62h567l-15 -62
c-42 -1.33301 -75.333 -4.83301 -100 -10.5s-44.334 -13.167 -59.001 -22.5c-10 -6.66699 -19.333 -19.667 -28 -39s-17 -45 -25 -77l-202 -810c-7.33301 -32 -11.666 -57.833 -12.999 -77.5s1.33398 -32.834 8.00098 -39.501c7.33301 -8 22.5 -14.5 45.5 -19.5
s55.167 -9.16699 96.5 -12.5l-15 -62h-566z" />
    <glyph glyph-name="J" unicode="J" horiz-adv-x="685" 
d="M71 128l-1.00293 0.000976562c12.667 9.33301 24.667 15.5 36 18.5s23.666 4.5 36.999 4.5c23.333 0 42 -7.5 56 -22.5s23.333 -36.5 28 -64.5c2.66699 -20 6.66699 -35.833 12 -47.5s11.666 -17.5 18.999 -17.5c16 0 25 1 27 3c10 14.667 19.333 32.167 28 52.5
s16.334 43.5 23.001 69.5l205 822c16.667 64.667 18.667 105 6 121c-7.33301 7.33301 -22.666 13 -45.999 17s-53 7.66699 -89 11l15 62h551l-15 -62c-39.333 -1.33301 -71.5 -5 -96.5 -11s-42.833 -13.667 -53.5 -23c-11.333 -8 -22 -21.667 -32 -41s-18.667 -44 -26 -74
l-166 -669c-15.333 -62.667 -36.166 -117 -62.499 -163s-59.166 -85 -98.499 -117c-78 -62 -162 -93 -252 -93c-60.667 0 -104 13.333 -130 40c-13.333 14.667 -22.666 30.667 -27.999 48s-6 34.666 -2 51.999c8 31.333 23.333 57.333 46 78l-2 -5h4z" />
    <glyph glyph-name="K" unicode="K" horiz-adv-x="1277" 
d="M-2 -13c43.333 4 77.0029 8.99609 101.003 14.9961s42.333 15 55 27s22.167 28.167 28.5 48.5s13.5 46.833 21.5 79.5l196 789c8 32 12.667 57 14 75s-2.33398 31.833 -11.001 41.5s-23.334 16.5 -44.001 20.5s-49 8 -85 12l15 62h547l-15 -62
c-36 -1.33301 -65.333 -3.66602 -88 -6.99902s-41.334 -10.166 -56.001 -20.499s-26.667 -25 -36 -44s-18 -44.833 -26 -77.5l-86 -345l241.5 173c67.667 50 123.667 93.333 168 130s78 67 101 91s36.167 42.667 39.5 56c2 9.33301 0.666992 16.833 -4 22.5
s-12 10.167 -22 13.5s-22.5 5.5 -37.5 6.5s-31.5 1.5 -49.5 1.5l15 62h505l-14 -57c-34.667 -1.33301 -64.667 -5.66602 -90 -12.999s-47 -14.666 -65 -21.999c-17.333 -7.33301 -41.666 -21.833 -72.999 -43.5l-105.5 -76.5l-122.5 -94.5l-124 -98.5l-155 -125l73.5 -110
l75.5 -110l60 -89.5l59 -87.5l18.5 -26.5l18.5 -26.5l6 -9c2.66699 -4 7 -11 13 -21l41 -63c12.667 -18.667 27 -34.667 43 -48s34.667 -24.333 56 -33s48 -14.667 80 -18l-15 -60h-585l15 62c26.667 1.33301 48.667 2.5 66 3.5s31 2.83301 41 5.5s17.167 6 21.5 10
s7.5 9.66699 9.5 17c0.666992 3.33301 0.166992 8.83301 -1.5 16.5s-4.5 16.5 -8.5 26.5s-8.66699 20.667 -14 32s-11 22 -17 32l-122.5 183.5l-122.5 184.5l-17 -13c-1.33301 -1.33301 -5.66602 -4.33301 -12.999 -9c-3.33301 -1.33301 -6.33301 -3.33301 -9 -6
s-5.66699 -5.33398 -9 -8.00098l-7 -5l-80 -321c-8 -34 -12.333 -60.167 -13 -78.5s2.83301 -32.166 10.5 -41.499s19.5 -15.5 35.5 -18.5s36.333 -5.83301 61 -8.5c1.33301 0 3.66602 -0.166992 6.99902 -0.5s6.66602 -0.5 9.99902 -0.5c2 -0.666992 4.5 -1 7.5 -1h7.5
l-15 -62h-541z" />
    <glyph glyph-name="L" unicode="L" horiz-adv-x="1092" 
d="M-2 -13c74 7.33301 121.333 18.6689 142 34.002c10 7.33301 19.5 20.833 28.5 40.5s17.167 44.5 24.5 74.5l202 810c7.33301 30 11.166 54.833 11.499 74.5s-2.16699 33.167 -7.5 40.5h1c-5.33301 8.66699 -19 15.667 -41 21s-50.333 9.66602 -85 12.999l15 62h545
l-15 -62c-36 -1.33301 -66.667 -4.5 -92 -9.5s-44 -11.167 -56 -18.5c-10.667 -8.66699 -21.167 -22 -31.5 -40s-19.166 -41 -26.499 -69l-217 -871c-4 -15.333 -5 -27.666 -3 -36.999c3.33301 -4.66699 7.83301 -8.83398 13.5 -12.501s13.167 -6.16699 22.5 -7.5
c1.33301 0 2.83301 -0.166992 4.5 -0.5s3.16699 -0.5 4.5 -0.5c0.666992 -0.666992 2.33398 -1 5.00098 -1h6c3.33301 -1.33301 6.33301 -2 9 -2h6c65.333 0 122.5 0.666992 171.5 2s87.5 3.66602 115.5 6.99902c25.333 3.33301 49.166 7.83301 71.499 13.5
s41.833 11.5 58.5 17.5c28.667 11.333 61 34.333 97 69s74.333 79 115 133h76l-182 -343h-1004z" />
    <glyph glyph-name="M" unicode="M" horiz-adv-x="1577" 
d="M0 -13c80 7.33301 132 21.9971 156 43.9971c26 24.667 50.333 83.334 73 176.001l184 739c8 31.333 11.833 56.5 11.5 75.5s-3.16602 33.167 -8.49902 42.5c-5.33301 7.33301 -19.666 13.5 -42.999 18.5s-54 9.16699 -92 12.5l15 62h386l186 -889l153 223l155 224
l152.5 222l150.5 220h392l-15 -59c-37.333 -4 -67.833 -8.66699 -91.5 -14s-41.834 -13 -54.501 -23c-19.333 -15.333 -37 -53.666 -53 -114.999l-202 -810c-7.33301 -30 -11.666 -55 -12.999 -75s1 -33.333 7 -40c6 -7.33301 19.5 -14 40.5 -20s50.833 -10.667 89.5 -14
l-15 -62h-540l15 62c41.333 3.33301 74 7.5 98 12.5s40.333 11.833 49 20.5h-1c11.333 9.33301 22.5 26 33.5 50s20.833 53 29.5 87l184 738l-4 1l-161 -228l-159 -228l-117.5 -170l-120.5 -170l-61.5 -88.5l-60.5 -86.5h-48l-196 927l-4 -1l-161 -644
c-12 -48 -17.833 -88 -17.5 -120s5.5 -55.667 15.5 -71c5.33301 -5.33301 17.166 -10.666 35.499 -15.999s45.166 -10.333 80.499 -15l-15 -60h-453z" />
    <glyph glyph-name="N" unicode="N" horiz-adv-x="1287" 
d="M-2 -13c38.667 3.33301 70.166 8.16699 94.499 14.5s44.5 17 60.5 32s29.5 36.167 40.5 63.5s22.167 64 33.5 110l198 795c0 3.33301 -3.66699 8.66602 -11 15.999c-1.33301 1.33301 -2.5 3 -3.5 5s-0.833008 5 0.5 9c-7.33301 12 -14.333 22 -21 30s-15 14.5 -25 19.5
s-22.167 8.5 -36.5 10.5s-32.5 3 -54.5 3l15 62h333l467 -846l141 564c10 42 16.833 76.833 20.5 104.5s1.83398 49.834 -5.49902 66.501s-21.5 28.667 -42.5 36s-50.833 11.666 -89.5 12.999l15 62h454l-15 -59c-38 -4.66699 -69.167 -10.334 -93.5 -17.001
s-44.5 -17.5 -60.5 -32.5s-29.333 -36.167 -40 -63.5s-21.667 -64 -33 -110l-242 -971h-52l-544 968l-166 -665c-10 -41.333 -17 -75.166 -21 -101.499s-2.5 -47.5 4.5 -63.5s20.833 -28.167 41.5 -36.5s50.667 -15.166 90 -20.499l-15 -60h-453z" />
    <glyph glyph-name="O" unicode="O" horiz-adv-x="1317" 
d="M430 126c45.333 -88 122.334 -131.997 231.001 -131.997c50 0 100.167 11 150.5 33s98.833 53.333 145.5 94c46 45.333 87.5 103.166 124.5 173.499s67.167 152.166 90.5 245.499c24.667 98.667 36.667 183.5 36 254.5s-14.334 127.5 -41.001 169.5
s-59.5 73.167 -98.5 93.5s-83.833 31.166 -134.5 32.499c-102.667 0 -201.667 -44.333 -297 -133c-95.333 -85.333 -167 -224.333 -215 -417c-23.333 -93.333 -34.333 -174.5 -33 -243.5s15 -125.833 41 -170.5zM498.001 1019c70.667 55.333 144.172 96.501 220.505 123.501
s156.166 41.167 239.499 42.5c165.333 0 292.333 -55.333 381 -166c48.667 -60.667 78.5 -130 89.5 -208s3.83301 -168.333 -21.5 -271c-24.667 -98.667 -63.334 -188.5 -116.001 -269.5s-118.334 -151.5 -197.001 -211.5c-70.667 -52 -144.334 -91.667 -221.001 -119
s-155.334 -41 -236.001 -41c-86.667 0 -162.5 15 -227.5 45s-118.5 74.667 -160.5 134c-46 58.667 -73.667 126.334 -83 203.001s-2.33301 163 21 259c25.333 101.333 64 191.666 116 270.999s117 148.666 195 207.999z" />
    <glyph glyph-name="P" unicode="P" horiz-adv-x="1006" 
d="M880 1029c-22 10.667 -48.335 18.8311 -79.002 24.498s-64.667 8.5 -102 8.5c-9.33301 0 -17.833 -0.833008 -25.5 -2.5s-15.5 -3.16699 -23.5 -4.5c-2 -0.666992 -4 -1 -6 -1s-3.66699 -0.333008 -5 -1c-10 -16 -16 -28.667 -18 -38l-116 -463
c10.667 -1.33301 21 -2 31 -2h19h28c37.333 0 72.5 3.16699 105.5 9.5s64.5 14.833 94.5 25.5c20 8 39.5 19.5 58.5 34.5s36.333 32.5 52 52.5s29.334 42 41.001 66s20.834 49.333 27.501 76c6 24 8.5 47 7.5 69s-5.16699 42.333 -12.5 61s-17.5 35.334 -30.5 50.001
s-28.5 26.334 -46.5 35.001zM-2.00195 -13.0029c21.333 0 42.5 4.67285 63.5 14.0059s40.5 21.666 58.5 36.999s33.667 33.166 47 53.499s23 42.166 29 65.499l196 789c5.33301 20.667 6.16602 40.167 2.49902 58.5s-11 34.166 -22 47.499s-25 23.833 -42 31.5
s-35.833 11.5 -56.5 11.5l15 62h495c77.333 0 145 -7.33301 203 -22s104 -37 138 -67c32.667 -31.333 54.834 -68.333 66.501 -111s11.5 -88.667 -0.5 -138c-7.33301 -29.333 -17.833 -57.666 -31.5 -84.999s-29.834 -53.333 -48.501 -78s-39.5 -47.334 -62.5 -68.001
s-46.833 -38.334 -71.5 -53.001c-21.333 -10.667 -46 -20.5 -74 -29.5s-57.833 -17.167 -89.5 -24.5s-65 -13.5 -100 -18.5s-70.167 -8.5 -105.5 -10.5h-128l-79 -316c-5.33301 -20.667 -5.66602 -40 -0.999023 -58s13.167 -33.833 25.5 -47.5s28 -24.334 47 -32.001
s40.5 -11.5 64.5 -11.5l-15 -62h-539z" />
    <glyph glyph-name="Q" unicode="Q" horiz-adv-x="1319" 
d="M500 1019c70.667 54 144.172 95.1729 220.505 123.506s156.166 42.5 239.499 42.5c84 0 159.167 -15.333 225.5 -46s120.166 -74.167 161.499 -130.5s68.166 -124.166 80.499 -203.499s6.5 -167.666 -17.5 -264.999c-20.667 -82 -50.167 -157.167 -88.5 -225.5
s-84.333 -128.833 -138 -181.5s-113.834 -96.834 -180.501 -132.501s-138.667 -61.834 -216 -78.501c18.667 -38 39.167 -71.333 61.5 -100s49.5 -53.334 81.5 -74.001s70.667 -38.334 116 -53.001s101 -27 167 -37l-14 -57h-87c-67.333 0 -126.833 3 -178.5 9
s-97.334 15 -137.001 27s-74.5 26.333 -104.5 43s-57.333 35.667 -82 57s-47.5 44.666 -68.5 69.999s-42.167 52.666 -63.5 81.999c-8.66699 10.667 -17 19 -25 25s-13.667 10.667 -17 14c-4 3.33301 -6.66699 5 -8 5c-114 64 -191.167 145.333 -231.5 244
s-42.833 219.667 -7.5 363c25.333 101.333 64 191.666 116 270.999s117 148.666 195 207.999zM432.005 126.006c45.333 -88 122.333 -131.998 231 -131.998c52.667 0 104.667 11 156 33s99.5 55.5 144.5 100.5s85.667 101.667 122 170s66.166 149.166 89.499 242.499
c24.667 98 35.5 181.833 32.5 251.5s-16.167 126.667 -39.5 171s-55.166 76.666 -95.499 96.999s-85.833 30.5 -136.5 30.5c-48.667 0 -98.167 -10.5 -148.5 -31.5s-98.5 -53.833 -144.5 -98.5s-88 -101.667 -126 -171s-69 -152.333 -93 -249c-46 -186 -43.333 -324 8 -414z
" />
    <glyph glyph-name="R" unicode="R" horiz-adv-x="1188" 
d="M785 618c50 16.667 90.333 42.668 121 78.001s52.334 78.666 65.001 129.999c19.333 76.667 10 134.834 -28 174.501s-108.667 59.5 -212 59.5c-22 0 -39.5 -0.5 -52.5 -1.5s-23.167 -3.16699 -30.5 -6.5s-12.833 -8 -16.5 -14s-6.83398 -14.333 -9.50098 -25l-108 -435
c61.333 3.33301 114 8.16602 158 14.499s81.667 14.833 113 25.5zM-2 -14.999c37.333 3.33301 67.4971 8.00098 90.4971 14.001s39.5 13.667 49.5 23c20.667 20 40 65 58 135l196 789c8 30.667 12.5 55.5 13.5 74.5s-2.66699 33.833 -11 44.5s-22.166 18 -41.499 22
s-45.666 6.66699 -78.999 8l15 62h518c152 0 262.167 -27.833 330.5 -83.5s88.833 -138.167 61.5 -247.5c-12 -47.333 -30 -89 -54 -125s-53.167 -67 -87.5 -93s-73 -47.167 -116 -63.5s-88.833 -28.5 -137.5 -36.5c11.333 -21.333 23.166 -42.5 35.499 -63.5l37.5 -62.5
l25 -43l24 -44l32 -56.5l33 -56.5l32 -57l33 -56c7.33301 -12 15 -23 23 -33s17.333 -18.667 28 -26s23 -13 37 -17s30.667 -6 50 -6l-15 -62h-314l-294 560c-3.33301 0 -6.5 -0.166992 -9.5 -0.5s-6.16699 -0.5 -9.5 -0.5c-3.33301 -0.666992 -7 -1 -11 -1h-11
c-5.33301 -1.33301 -12.166 -2 -20.499 -2h-20.5l-86 -345c-7.33301 -29.333 -12.166 -52.833 -14.499 -70.5s0.5 -31.834 8.5 -42.501s22.5 -18.5 43.5 -23.5s51.5 -9.16699 91.5 -12.5l-15 -62h-534z" />
    <glyph glyph-name="S" unicode="S" horiz-adv-x="936" 
d="M192 320c15.333 -108.667 45.668 -189.332 91.001 -241.999s109.666 -79 192.999 -79c27.333 0 54.166 4 80.499 12s50.5 20.167 72.5 36.5s41.5 36.666 58.5 60.999s29.5 52.5 37.5 84.5c6 25.333 8.16699 48 6.5 68s-8.83398 39.833 -21.501 59.5
s-31.334 40.334 -56.001 62.001s-56.334 47.167 -95.001 76.5c-47.333 34 -89.166 65.333 -125.499 94s-65.833 57.667 -88.5 87s-37.667 60.666 -45 93.999s-5.66602 72 5.00098 116c10.667 42.667 29 84.167 55 124.5s57.833 76.166 95.5 107.499s80.5 56.333 128.5 75
s99 28 153 28c17.333 0 37.333 -3.16699 60 -9.5s45.667 -13.166 69 -20.499c2.66699 -1.33301 5.16699 -2.16602 7.5 -2.49902s4.5 -1.16602 6.5 -2.49902c15.333 -6 31 -11.167 47 -15.5s30.667 -7.83301 44 -10.5c8.66699 0 16.334 0.833008 23.001 2.5s11 3.5 13 5.5
c5.33301 6 10.666 12.5 15.999 19.5s10.666 18.167 15.999 33.5h66l-33 -209l-33 -209h-70c0 60.667 -7.33301 111.167 -22 151.5s-33.834 72.5 -57.501 96.5s-50 41 -79 51s-57.5 15 -85.5 15c-22 0 -44.167 -3.33301 -66.5 -10s-43.166 -16.334 -62.499 -29.001
s-36.333 -28.334 -51 -47.001s-25 -40.334 -31 -65.001c-6 -24 -7.83301 -45.167 -5.5 -63.5s8.33301 -35.666 18 -51.999s23.167 -32.333 40.5 -48s38.333 -32.5 63 -50.5l173 -133c46.667 -36.667 83.167 -71.667 109.5 -105s42.666 -67.666 48.999 -102.999
s3.5 -77.333 -8.5 -126c-12 -48 -33.333 -93.167 -64 -135.5s-67.667 -79.166 -111 -110.499s-91.666 -56.166 -144.999 -74.499s-109 -27.5 -167 -27.5c-32 0 -60.667 2.66699 -86 8s-51.333 12.333 -78 21l-11 3h1c-5.33301 1.33301 -10.333 2.66602 -15 3.99902
s-9 2.66602 -13 3.99902l-10 4c-3.33301 1.33301 -6.33301 2.66602 -9 3.99902c-11.333 4.66699 -21.166 8.5 -29.499 11.5s-13.166 4.5 -14.499 4.5c-16 0 -28.167 -5.5 -36.5 -16.5s-16.166 -25.833 -23.499 -44.5h-66l22.5 208.5l22.5 207.5h72z" />
    <glyph glyph-name="T" unicode="T" horiz-adv-x="1106" 
d="M317 1157l1058 -0.00195312l-37 -169l-37 -169h-70c1.33301 50.667 -0.333984 92.334 -5.00098 125.001s-13.667 54.667 -27 66c-12.667 14.667 -34.167 25.834 -64.5 33.501s-71.5 11.5 -123.5 11.5h-85l-230 -919c-16 -65.333 -16.667 -104.333 -2 -117v1
c7.33301 -8.66699 22.333 -15.5 45 -20.5s55.334 -9.16699 98.001 -12.5l-15 -62h-561l15 62c42 3.33301 76 7.5 102 12.5s43.667 11.833 53 20.5c22 18 42.333 63.667 61 137l224 898h-88c-46.667 0 -87.5 -3.66699 -122.5 -11s-63.167 -17.666 -84.5 -30.999
c-19.333 -12.667 -39.666 -34.834 -60.999 -66.501s-43.666 -74.167 -66.999 -127.5h-69z" />
    <glyph glyph-name="U" unicode="U" horiz-adv-x="1254" 
d="M822 1157l-14.998 -61.998c-28.667 -1.33301 -54 -3.83301 -76 -7.5s-41.333 -10.667 -58 -21s-30.834 -25 -42.501 -44s-21.5 -44.5 -29.5 -76.5l-144 -580c-30.667 -121.333 -29.334 -211 3.99902 -269s103 -87 209 -87c57.333 0 108.5 7.16699 153.5 21.5
s84.833 37.333 119.5 69s64.5 72.334 89.5 122.001s46.167 109.834 63.5 180.501l118 472c12 48.667 19 86.834 21 114.501s-1.66699 48.667 -11 63s-24.5 24.166 -45.5 29.499s-48.167 9.66602 -81.5 12.999l15 62h449l-15 -62c-38 -3.33301 -69 -8.5 -93 -15.5
s-44 -18.5 -60 -34.5s-29.333 -37.5 -40 -64.5s-21.334 -62.167 -32.001 -105.5l-118 -472c-22.667 -90 -52 -166.833 -88 -230.5s-79 -115.834 -129 -156.501s-107.333 -70.334 -172 -89.001s-136.334 -28 -215.001 -28c-77.333 0 -143.166 9.16699 -197.499 27.5
s-96.5 46.833 -126.5 85.5s-47.667 88.334 -53 149.001s2.66699 133.667 24 219l141 566c8 32.667 12.5 58.5 13.5 77.5s-3.16699 33.667 -12.5 44s-24.166 17.166 -44.499 20.499s-47.5 5.66602 -81.5 6.99902l15 62h545z" />
    <glyph glyph-name="V" unicode="V" horiz-adv-x="1258" 
d="M803 1157l-15.0049 -61.998c-31.333 0 -56.166 -1 -74.499 -3s-32.666 -5 -42.999 -9s-17.833 -9.33301 -22.5 -16s-8.33398 -14.334 -11.001 -23.001c-4 -12.667 -3.83301 -33.667 0.5 -63s11.166 -65.666 20.499 -108.999c0.666992 -3.33301 1.33398 -6.5 2.00098 -9.5
s1.33398 -6.16699 2.00098 -9.5l124 -599l8.5 16.5c3 5.66699 5.5 10.167 7.5 13.5c1.33301 2 2.5 4 3.5 6s2.16699 3.66699 3.5 5l190.5 306.5l190.5 303.5l5 9c14.667 23.333 27.834 45.166 39.501 65.499s19.167 36.166 22.5 47.499c6.66699 26 0 43.833 -20 53.5
s-52.667 14.5 -98 14.5l15 62h403l-14 -57c-23.333 -3.33301 -43.166 -7.16602 -59.499 -11.499s-29.166 -9.83301 -38.499 -16.5c-15.333 -10.667 -32.5 -28 -51.5 -52s-39.167 -52.333 -60.5 -85l-161.5 -252.5l-168.5 -263l-169 -263l-162 -252.5h-52l-200 1010
c-8.66699 42 -16.667 75.167 -24 99.5s-15 41.166 -23 50.499c-9.33301 9.33301 -21.5 17 -36.5 23s-35.833 9.66699 -62.5 11l15 59h514z" />
    <glyph glyph-name="W" unicode="W" horiz-adv-x="1701" 
d="M764 1157l-15.0029 -62.0039c-44 0 -75.5 -4.66699 -94.5 -14s-31.167 -21.666 -36.5 -36.999c-2 -6 -3.16699 -14.167 -3.5 -24.5s1.16699 -25.833 4.5 -46.5l90 -645l38 60l38 60l32 50l31 50l45 72l53.5 87l55.5 88c-2.66699 12.667 -5 25.667 -7 39l-6 40
c-0.666992 4.66699 -1.16699 9 -1.5 13s-0.833008 8.33301 -1.5 13c-3.33301 19.333 -6.16602 37.833 -8.49902 55.5s-4.83301 35.5 -7.5 53.5c-2 16.667 -6 30.5 -12 41.5s-14.333 19.833 -25 26.5s-24.167 11.334 -40.5 14.001s-36.166 4 -59.499 4l15 62h517l-15 -62
c-28.667 0 -51.834 -1 -69.501 -3s-32 -5.33301 -43 -10s-19.167 -10.834 -24.5 -18.501s-9.66602 -17.167 -12.999 -28.5c-2.66699 -6.66699 -2.66699 -16 0 -28c-0.666992 -5.33301 -0.333984 -10.666 0.999023 -15.999c0 -3.33301 0.333008 -5.66602 1 -6.99902
c7.33301 -75.333 16.5 -153.166 27.5 -233.499l33.5 -237.5c2 -16 4 -30.667 6 -44s3.66699 -26.333 5 -39c2 -16 4 -33 6 -51s4.66699 -37.333 8 -58l39.5 64l40.5 64l47.5 75l46.5 74l57 93.5l56 92.5l36.5 59.5l36.5 59.5c18.667 26.667 33.334 51.667 44.001 75
s17.334 39.666 20.001 48.999c5.33301 20.667 -0.333984 37.167 -17.001 49.5s-47.667 18.5 -93 18.5l15 62h388l-15 -62c-36.667 0 -69.167 -9 -97.5 -27s-52.5 -43 -72.5 -75l-60.5 -99l-61.5 -101c-9.33301 -16.667 -19 -33 -29 -49l-30 -49l-67 -115l-68 -113
c-1.33301 -2.66699 -3 -5.33398 -5 -8.00098s-3.66699 -5.33398 -5 -8.00098l-130 -208l-25.5 -44.5l-25.5 -45.5l-22 -38.5l-23 -38.5l-51 -87.5l-49 -84.5h-50l-21 219c-2.66699 16.667 -5.16699 33.834 -7.5 51.501s-4.83301 35.5 -7.5 53.5l-12 84.5
c-4 28.333 -7.66699 55.833 -11 82.5l-6 38.5c-2 12.333 -4.33301 24.166 -7 35.499l-12.5 80.5c-4.33301 27 -8.16602 56.5 -11.499 88.5l-36.5 -58l-35.5 -58l-89 -142.5l-88 -143.5l-43 -71l-44 -72l-58 -96l-57 -93h-53l-36 386c-6.66699 46.667 -12.5 91 -17.5 133
l-13.5 118c-4 38.667 -8 74.667 -12 108l-21 172.5c-6 47.667 -11.833 88 -17.5 121s-12 59.333 -19 79s-15.333 34.834 -25 45.501s-21.167 17.834 -34.5 21.501s-29.333 5.83398 -48 6.50098l15 62h475z" />
    <glyph glyph-name="X" unicode="X" horiz-adv-x="1284" 
d="M-2 -15c28.667 3.33301 53.002 7.83105 73.002 13.498s37.333 13.834 52 24.501c9.33301 6 23.833 17.5 43.5 34.5l69 61.5l87 80.5l97.5 92.5l56 53l56 53l32 30.5l29 28.5l40.5 37l39.5 36c-10 20 -19 40 -27 60l-14.5 31.5l-14.5 32.5l-22 51l-22 50l-45.5 100.5
l-40.5 87.5l-33.5 66.5c-9.66699 18.333 -17.834 31.166 -24.501 38.499c-13.333 14 -30.5 25 -51.5 33s-48.5 12.667 -82.5 14l15 62h580l-15 -62c-28.667 0 -52.334 -0.666992 -71.001 -2s-33.834 -3.83301 -45.501 -7.5s-20.334 -8.5 -26.001 -14.5
s-9.5 -13.667 -11.5 -23c-2 -4.66699 -2.83301 -10.667 -2.5 -18s1.5 -15.166 3.5 -23.499s4.5 -16.833 7.5 -25.5s6.16699 -16.667 9.5 -24l34.5 -78l35.5 -82l22.5 -51l21.5 -49c3.33301 2.66699 6.83301 5.83398 10.5 9.50098l10.5 10.5l26.5 25
c9 8.66699 17.833 16.667 26.5 24l93.5 83.5l87 82.5c26.333 26 48.166 49.333 65.499 70s27.333 36 30 46c4.66699 19.333 -2 32 -20 38s-49 9 -93 9l15 62h459l-15 -62c-28.667 0 -53 -1.66699 -73 -5s-37.667 -8.66602 -53 -15.999c-22 -11.333 -51 -31.333 -87 -60
s-75.333 -62 -118 -100l-133.5 -122.5l-133.5 -127.5c-4.66699 -5.33301 -9 -10 -13 -14l-12 -12l-17 -17.5c-5.33301 -5.66699 -10.333 -10.5 -15 -14.5c10.667 -27.333 22.334 -53.333 35.001 -78c12 -23.333 23 -46.333 33 -69l31.5 -71.5l31.5 -72.5l43.5 -101l45.5 -98
c10 -21.333 19 -39.166 27 -53.499s18 -26.333 30 -36s27 -17.834 45 -24.501s42 -12.334 72 -17.001l-15 -60h-570l16 64c32 1.33301 57.333 3 76 5s33.334 4.66699 44.001 8s18 7.66602 22 12.999s7 12 9 20c2 8.66699 3 17 3 25s-3.5 21.833 -10.5 41.5
s-18.667 48.834 -35 87.501l-70.5 163c-2.66699 5.33301 -5 10.666 -7 15.999l-6 16l-11 27.5c-4 9.66699 -8.66699 20.167 -14 31.5l-34 -33l-33.5 -31.5c-11 -10.333 -22.5 -20.5 -34.5 -30.5l-100.5 -94.5l-92 -89.5c-27.667 -28 -50.667 -52.833 -69 -74.5
s-28.833 -37.5 -31.5 -47.5c-2.66699 -11.333 0 -20.666 8 -27.999s18.5 -13 31.5 -17s27.333 -6.66699 43 -8s29.834 -2 42.501 -2l-15 -62h-451z" />
    <glyph glyph-name="Y" unicode="Y" horiz-adv-x="1256" 
d="M822 1157l-14.998 -62.001h-50c-23.333 0 -43.5 -3 -60.5 -9s-27.5 -17.333 -31.5 -34c0 -1.33301 0.333008 -2.66602 1 -3.99902l2 -4c-0.666992 -5.33301 -0.333984 -13.833 0.999023 -25.5s4 -23.167 8 -34.5l41 -101l42 -101c2 -3.33301 3.83301 -7.5 5.5 -12.5
s3.5 -9.16699 5.5 -12.5c5.33301 -12.667 10.5 -24.334 15.5 -35.001s9.83301 -21.667 14.5 -33l18.5 -44.5l19.5 -47.5l111 125.5l110 124.5l62.5 71.5l63.5 72.5c14 16.667 23.667 29.5 29 38.5s8.66602 16.167 9.99902 21.5c3.33301 15.333 -4 26.5 -22 33.5
s-49.333 10.5 -94 10.5l15 62h428l-15 -62c-23.333 0 -46.333 -3.83301 -69 -11.5s-46 -19.5 -70 -35.5s-49.5 -36.833 -76.5 -62.5s-56.5 -56.5 -88.5 -92.5l-370 -409l-87 -348c-7.33301 -31.333 -11.333 -57.333 -12 -78s2.33301 -35 9 -43
c8 -6.66699 24.333 -12.167 49 -16.5s59.667 -8.16602 105 -11.499l-15 -62h-585l15 62c47.333 3.33301 84 7.5 110 12.5s46 13.167 60 24.5s24.333 27.5 31 48.5s14.667 49.167 24 84.5l78 313l-56 124.5l-47 109.5l-82 190c-22 50 -42.667 89.667 -62 119
s-38.833 50 -58.5 62s-43.167 18.667 -70.5 20l15 62h538z" />
    <glyph glyph-name="Z" unicode="Z" horiz-adv-x="1139" 
d="M11 -33l1060 1093h-392c-50 0 -94.5 -5.66699 -133.5 -17s-71.833 -29.666 -98.5 -54.999c-15.333 -14.667 -32.333 -36.167 -51 -64.5s-37 -63.166 -55 -104.499h-75l61 169l61 169h989l-10 -39l-1050 -1095h441c51.333 0 97 6.16699 137 18.5s74 30.166 102 53.499
c17.333 13.333 35.833 34.5 55.5 63.5s43.167 67.167 70.5 114.5h72l-68.5 -173.5l-68.5 -174.5h-1057z" />
    <glyph glyph-name="bracketleft" unicode="[" horiz-adv-x="663" 
d="M858 1237h-315l-363 -1457h315l-28 -112h-433l419 1681h433z" />
    <glyph glyph-name="backslash" unicode="\" horiz-adv-x="773" 
d="M485 1092l182 -1177h-150l-181 1177h149z" />
    <glyph glyph-name="bracketright" unicode="]" horiz-adv-x="702" 
d="M886 1349l-419 -1681h-433l28 112h314l363 1457h-314l28 112h433z" />
    <glyph glyph-name="asciicircum" unicode="^" horiz-adv-x="1008" 
d="M838 1185l78.499 -399.5l78.5 -399.5h-158l-95 547l-294 -430l-15 -23l-16 -23c-7.33301 -12 -15.166 -24.167 -23.499 -36.5l-23.5 -34.5h-156l135.5 196l140.5 203.5l141 203.5l136 196h71z" />
    <glyph glyph-name="underscore" unicode="_" horiz-adv-x="905" 
d="M-86 -302l30 119h938l-30 -119h-938z" />
    <glyph glyph-name="grave" unicode="`" horiz-adv-x="1124" 
d="M815 1009c28.667 0 50.5 -10 65.5 -30s19.167 -44 12.5 -72c-7.33301 -28 -23.5 -52 -48.5 -72s-51.833 -30 -80.5 -30c-28 0 -49.5 10 -64.5 30s-18.833 44 -11.5 72c6.66699 28 22.5 52 47.5 72s51.5 30 79.5 30zM174 637h1093l-33 -132h-1093zM649 347
c28.667 0 50.499 -10.167 65.499 -30.5s18.833 -44.5 11.5 -72.5c-6.66699 -28.667 -22.5 -53 -47.5 -73s-51.833 -30 -80.5 -30c-28 0 -49.667 10 -65 30s-19.666 44.333 -12.999 73c7.33301 28 23.5 52.167 48.5 72.5s51.833 30.5 80.5 30.5z" />
    <glyph glyph-name="a" unicode="a" horiz-adv-x="793" 
d="M592 409c-45.333 -15.333 -86.666 -31.6719 -123.999 -49.0049s-70 -35.666 -98 -54.999s-50.833 -39.666 -68.5 -60.999s-29.5 -43.333 -35.5 -66c-10 -39.333 -7.16699 -70.666 8.5 -93.999s40.5 -35 74.5 -35c16 0 33.5 2.33301 52.5 7s37.167 11.334 54.5 20.001
s32.666 19.334 45.999 32.001s22 26.667 26 42zM257 344.994c28 17.333 73.002 38.4971 135.002 63.4971s135.333 51.5 220 79.5l16 64c7.33301 30 12 55.667 14 77s-0.166992 38.833 -6.5 52.5s-17.166 23.834 -32.499 30.501s-36.333 10 -63 10
c-13.333 0 -27 -1.66699 -41 -5s-27.333 -8.33301 -40 -15s-23.5 -14.5 -32.5 -23.5s-14.833 -19.167 -17.5 -30.5c-2 -7.33301 -3.16699 -14.333 -3.5 -21s-0.5 -12.667 -0.5 -18v-4c0.666992 -3.33301 0.5 -7.5 -0.5 -12.5s-2.16699 -9.16699 -3.5 -12.5
c-8 -32.667 -22.667 -56.667 -44 -72s-44.666 -23 -69.999 -23c-16 0 -29.5 2.66699 -40.5 8s-19.5 12.5 -25.5 21.5s-9.66699 19.333 -11 31s-0.333008 23.834 3 36.501c5.33301 20.667 18.5 43.834 39.5 69.501s47.5 50.167 79.5 73.5c32.667 21.333 70.5 38.5 113.5 51.5
s88.833 19.5 137.5 19.5c47.333 0 87.333 -5.16699 120 -15.5s57.667 -27.5 75 -51.5s26.833 -55.5 28.5 -94.5s-4.5 -87.167 -18.5 -144.5l-89 -354c-8 -34 -11 -57.833 -9 -71.5s11.667 -20.5 29 -20.5c7.33301 0 18.833 3.16699 34.5 9.5s39.167 19.833 70.5 40.5
l-20 -81c-12 -11.333 -25.667 -22.833 -41 -34.5s-31.833 -22.167 -49.5 -31.5s-35.834 -16.833 -54.501 -22.5s-37.667 -8.5 -57 -8.5c-35.333 0 -62 8.83301 -80 26.5s-25 46.5 -21 86.5c-30.667 -20 -59 -37.333 -85 -52s-50.5 -26.834 -73.5 -36.501s-45 -17 -66 -22
s-41.5 -7.5 -61.5 -7.5c-26 0 -49.833 5.16699 -71.5 15.5s-39.834 24.5 -54.501 42.5s-24.5 39.667 -29.5 65s-3.83301 53 3.5 83c11.333 44.667 33.166 86.334 65.499 125.001s75.166 73 128.499 103z" />
    <glyph glyph-name="b" unicode="b" horiz-adv-x="919" 
d="M273 1055l14.0029 56.999c34.667 5.33301 69.834 13 105.501 23s69.5 20.667 101.5 32c6 2 11.667 3.66699 17 5s11 2.83301 17 4.5s12.5 3.33398 19.5 5.00098s15.167 3.5 24.5 5.5c3.33301 0 6.16602 0.333008 8.49902 1s5.16602 1.66699 8.49902 3l-5 -20l-27 -124.5
l-25 -120.5l-25 -121.5l-27 -126.5c41.333 35.333 86 63 134 83s94.667 30 140 30c43.333 0 82.5 -9.83301 117.5 -29.5s63 -47.5 84 -83.5s34.167 -79.333 39.5 -130s0.333008 -106.667 -15 -168c-16 -65.333 -42.5 -126.666 -79.5 -183.999s-80.833 -107.333 -131.5 -150
s-106.5 -76.334 -167.5 -101.001s-123.5 -37 -187.5 -37c-35.333 0 -70 4.16699 -104 12.5s-64.167 18.833 -90.5 31.5s-46.833 26.667 -61.5 42s-20.334 30.333 -17.001 45l235 941c2.66699 10.667 5 21 7 31s2 18.5 0 25.5s-6.83301 12.667 -14.5 17
s-19.834 6.5 -36.501 6.5zM371.003 18.999c38.667 -13.333 71.334 -20 98.001 -20c40.667 0 77.667 8.66699 111 26s62.833 40 88.5 68s47.5 60.167 65.5 96.5s31.667 73.5 41 111.5c6 24.667 10.667 50.5 14 77.5s4.66602 53.167 3.99902 78.5s-4 49.5 -10 72.5
s-15 43.167 -27 60.5s-27.5 31 -46.5 41s-42.167 15 -69.5 15c-16 0 -34.667 -3 -56 -9s-42 -14.5 -62 -25.5s-37.667 -24 -53 -39s-25.333 -31.5 -30 -49.5l-113 -453c-1.33301 -25.333 13.667 -42.333 45 -51z" />
    <glyph glyph-name="c" unicode="c" horiz-adv-x="788" 
d="M846 732c23.333 -20 40.0039 -41.6729 50.0039 -65.0059s12 -47.666 6 -72.999c-4.66699 -18 -11.834 -33 -21.501 -45s-20.5 -21.667 -32.5 -29s-24.167 -12.666 -36.5 -15.999s-23.5 -5 -33.5 -5c-22 0 -40.833 9.16699 -56.5 27.5s-23.5 41.5 -23.5 69.5v42
c-4 23.333 -12.333 41.666 -25 54.999s-32.334 20 -59.001 20c-30.667 0 -61.5 -7.66699 -92.5 -23s-60.167 -36.833 -87.5 -64.5s-51.666 -60.5 -72.999 -98.5s-37.666 -79.333 -48.999 -124c-10.667 -42 -14.834 -82.833 -12.501 -122.5s11.166 -75.167 26.499 -106.5
s37.333 -56.5 66 -75.5s64.334 -28.5 107.001 -28.5c24 0 46.333 2.33301 67 7s42 13.334 64 26.001s45.833 30.334 71.5 53.001s56.167 52 91.5 88l22.5 -13.5l22.5 -13.5c-34 -48.667 -69.833 -92.167 -107.5 -130.5s-76 -70.666 -115 -96.999s-77.833 -46.5 -116.5 -60.5
s-76.334 -21 -113.001 -21c-46.667 0 -89.667 9.66699 -129 29s-71.666 47.333 -96.999 84s-41.833 80.834 -49.5 132.501s-3.5 110.167 12.5 175.5c15.333 61.333 40.666 119.833 75.999 175.5s77.166 104.834 125.499 147.501s101.5 76.5 159.5 101.5
s117.333 37.5 178 37.5c38.667 0 72.667 -4.83301 102 -14.5s56.666 -24.5 81.999 -44.5z" />
    <glyph glyph-name="d" unicode="d" horiz-adv-x="914" 
d="M1081 1181l-13.499 -56.0039c-5 -20 -9.66699 -40 -14 -60l-12.5 -56.5c-4 -17.667 -7 -32.834 -9 -45.501l-8 -29l-198 -784c-3.33301 -14 -5.83301 -26.5 -7.5 -37.5s-1 -20.333 2 -28s9 -13.5 18 -17.5s22.5 -6 40.5 -6h31l30 24l-20 -79l-70 -20
c-1.33301 -0.666992 -2.33301 -1 -3 -1s-1.66699 -0.333008 -3 -1l-13 -4.5l-15 -5.5c-3.33301 -0.666992 -8.16602 -2 -14.499 -4l-18.5 -6l-12 -4l-42 -13.5l-46.5 -15l-46.5 -15.5l-41 -14c1.33301 5.33301 2 10 2 14s0.333008 8.66699 1 14l17 69
c-40 -28.667 -79.833 -51 -119.5 -67s-81.5 -24 -125.5 -24c-54 0 -99.833 11 -137.5 33s-67.334 51.5 -89.001 88.5s-34.667 79.833 -39 128.5s0.166992 99.334 13.5 152.001c16.667 66 42.5 128.333 77.5 187s75.833 109.834 122.5 153.501s97.667 78.334 153 104.001
s111.333 38.5 168 38.5c17.333 0 33 -0.833008 47 -2.5s27.333 -4.66699 40 -9s24.834 -10.666 36.501 -18.999s23.5 -18.833 35.5 -31.5l62 251c3.33301 14 5.83301 26 7.5 36s1.33398 18.333 -0.999023 25s-7 11.5 -14 14.5s-17.5 4.5 -31.5 4.5h-14
c-0.666992 0 -1.33398 -0.166992 -2.00098 -0.5s-1.33398 -0.5 -2.00098 -0.5c-1.33301 -0.666992 -4.33301 -1 -9 -1c-5.33301 -1.33301 -12 -2.16602 -20 -2.49902s-14.667 -0.5 -20 -0.5l15 59l45 10l45 10c29.333 5.33301 60.666 14 93.999 26l7.5 2.5l7.5 2.5
c15.333 5.33301 31.333 10.333 48 15s35 8 55 10zM595.001 71.9961c14 12 26.001 23.333 36.001 34s16 20.667 18 30l96 383c8.66699 35.333 10.167 65.333 4.5 90s-15 44.834 -28 60.501s-28.333 27.167 -46 34.5s-33.834 11 -48.501 11c-36 0 -70.167 -9 -102.5 -27
s-61.833 -42 -88.5 -72s-50 -64.833 -70 -104.5s-35.333 -81.167 -46 -124.5c-10.667 -42 -16.5 -83.833 -17.5 -125.5s4.5 -79.334 16.5 -113.001s31.333 -61 58 -82s62 -31.5 106 -31.5c22 0 42.167 3 60.5 9s35.833 15 52.5 27z" />
    <glyph glyph-name="e" unicode="e" horiz-adv-x="811" 
d="M837 697c28 -30 44.4971 -67.9971 49.4971 -113.997s0.166992 -98.333 -14.5 -157h-565c-11.333 -61.333 -15.666 -115.833 -12.999 -163.5s14 -85.5 34 -113.5h-1c18 -30 41 -52.167 69 -66.5s60.667 -21.5 98 -21.5c58 0 111.667 15.667 161 47
c21.333 13.333 45.833 32.166 73.5 56.499s55.834 53.833 84.501 88.5l51 -21c-24 -40.667 -53.5 -80.5 -88.5 -119.5s-74.5 -75.167 -118.5 -108.5c-42 -32 -86.167 -56.667 -132.5 -74s-93.833 -26 -142.5 -26c-56.667 0 -105 11.5 -145 34.5s-71.667 55.5 -95 97.5
c-18.667 43.333 -29.667 90.166 -33 140.499s1.66699 102.833 15 157.5c14 58 37.833 114.833 71.5 170.5s72.5 104.834 116.5 147.501c44.667 41.333 94.334 74.166 149.001 98.499s112 37.166 172 38.499c86 0 154.333 -30.333 205 -91zM393.997 609.003
c-10.667 -12.667 -20.332 -26 -28.999 -40s-18.667 -33 -30 -57h342c3.33301 22.667 4.5 44 3.5 64s-3.16699 35.667 -6.5 47c-14.667 47.333 -53.334 71 -116.001 71c-64 0 -118.667 -28.333 -164 -85z" />
    <glyph glyph-name="f" unicode="f" horiz-adv-x="683" 
d="M-3 -20c36 1.33301 64.667 4.16797 86 8.50098s38.5 12 51.5 23s23.167 25.833 30.5 44.5s14.666 43 21.999 73l138 555h-152l22 90h152c38 139.333 93.667 244.333 167 315s159.333 106 258 106c28 0 54.333 -3 79 -9s45.834 -14.5 63.501 -25.5s30.667 -24.333 39 -40
s10.166 -33.5 5.49902 -53.5c-2.66699 -10 -8 -20.333 -16 -31s-17.333 -20.334 -28 -29.001s-22 -15.834 -34 -21.501s-23.333 -8.5 -34 -8.5c-9.33301 0 -18.166 1.33301 -26.499 4s-15.5 7.66699 -21.5 15c-5.33301 4.66699 -11.5 14.334 -18.5 29.001l-21.5 43
c-2 4 -3.83301 7.83301 -5.5 11.5s-3.5 7.16699 -5.5 10.5c-2 1.33301 -3.5 3.33301 -4.5 6s-1.16699 4.33398 -0.5 5.00098c-10.667 8.66699 -24.334 13 -41.001 13c-28.667 0 -54 -12 -76 -36s-39 -60 -51 -108l-49 -196h223l-22 -90h-221l-138 -555
c-8 -31.333 -12.667 -57.333 -14 -78s0 -35.334 4 -44.001c5.33301 -5.33301 19.333 -10.833 42 -16.5s55.334 -9.16699 98.001 -10.5l-14 -55h-501z" />
    <glyph glyph-name="g" unicode="g" horiz-adv-x="830" 
d="M198 325c-9.33301 25.333 -14.8311 50.501 -16.498 75.501s1.5 53.5 9.5 85.5c8 34 23.5 69 46.5 105s52.167 68.833 87.5 98.5s76 54 122 73s96.667 28.5 152 28.5c26.667 0 56.5 -4.33301 89.5 -13s63.833 -17.334 92.5 -26.001l43 -12.5
c12.667 -3.66699 23.667 -6.16699 33 -7.5c10.667 0.666992 21.834 1.16699 33.501 1.5s22.5 0.5 32.5 0.5h25.5h13.5h53l-26 -103h-149c0 -0.666992 0.333008 -2.33398 1 -5.00098s1 -4.66699 1 -6c-0.666992 -1.33301 -0.833984 -2.66602 -0.500977 -3.99902
s0.5 -2.66602 0.5 -3.99902c0.666992 -1.33301 1 -3.66602 1 -6.99902c1.33301 -18 2.16602 -36.333 2.49902 -55s-2.83398 -41 -9.50098 -67c-8 -31.333 -23.167 -63.833 -45.5 -97.5s-50.666 -64.334 -84.999 -92.001s-74 -50.334 -119 -68.001s-93.5 -26.5 -145.5 -26.5
c-6 0 -16.667 0.333008 -32 1s-31.333 2.66699 -48 6c-9.33301 -2.66699 -20.333 -8 -33 -16s-25 -16.833 -37 -26.5s-22.5 -19.5 -31.5 -29.5s-14.5 -18.667 -16.5 -26c-1.33301 -6.66699 2.5 -12.5 11.5 -17.5s20.5 -9 34.5 -12s28.667 -5.16699 44 -6.5
s28.666 -2 39.999 -2c93.333 0 168.833 -3.33301 226.5 -10s101.334 -18.334 131.001 -35.001s47.167 -39.167 52.5 -67.5s2.66602 -64.166 -8.00098 -107.499c-8 -33.333 -22.667 -64.166 -44 -92.499s-46.833 -54.333 -76.5 -78s-63 -44.667 -100 -63
s-75 -33.833 -114 -46.5s-78.5 -22.334 -118.5 -29.001s-78 -10 -114 -10c-51.333 0 -96 5.66699 -134 17s-68.833 26.333 -92.5 45s-40 39.667 -49 63s-10.5 47 -4.5 71c4 14.667 11.167 29.167 21.5 43.5s22.5 28.333 36.5 42s29 26.5 45 38.5l46 34
c0 0.666992 1.33301 2 4 4c0.666992 0.666992 1.16699 1 1.5 1s0.833008 0.333008 1.5 1l61 45c-28 14 -45.667 29.167 -53 45.5s-8.33301 35.5 -3 57.5c2.66699 10.667 7.66699 22 15 34s18.333 25.5 33 40.5s33.667 32 57 51s52.666 41.167 87.999 66.5
c-18 11.333 -34.167 25.333 -48.5 42s-26.166 34 -35.499 52zM151.002 -312.999c26 -9.33301 53.335 -16.5 82.002 -21.5s61 -7.5 97 -7.5c44 0 86.333 4 127 12s77.167 19.333 109.5 34s59.333 32 81 52s35.5 42 41.5 66c3.33301 12.667 2.83301 23.834 -1.5 33.501
s-14.333 17.834 -30 24.501s-38.334 11.5 -68.001 14.5s-68.167 4.5 -115.5 4.5c-31.333 0 -61 1.5 -89 4.5s-57.333 6.5 -88 10.5c-12 1.33301 -24.333 2.83301 -37 4.5s-26 3.16699 -40 4.5c-13.333 -10 -26.5 -21.5 -39.5 -34.5s-25.167 -26.333 -36.5 -40
s-21 -26.834 -29 -39.501s-13 -23.334 -15 -32.001c-6 -23.333 -4.83301 -42 3.5 -56s24.166 -25.333 47.499 -34zM571.004 294.001c20 13.333 36.333 31 49 53s23.334 50.333 32.001 85c5.33301 20.667 8.83301 47 10.5 79s-0.5 63 -6.5 93s-17.333 55.667 -34 77
s-40.667 32 -72 32c-40 0 -74.5 -15.833 -103.5 -47.5s-50.167 -75.167 -63.5 -130.5c-8 -30.667 -11.833 -61.667 -11.5 -93s5 -59.666 14 -84.999s22.167 -46 39.5 -62s39.666 -24 66.999 -24c11.333 0 23.5 1.66699 36.5 5s24.167 7.66602 33.5 12.999l-3 -5h4z" />
    <glyph glyph-name="h" unicode="h" horiz-adv-x="914" 
d="M12 -20c30 1.33301 53.501 4.33203 70.501 8.99902s30.667 12.5 41 23.5s18.333 25.5 24 43.5s11.834 40.667 18.501 68l213 854c2.66699 10.667 4.83398 21 6.50098 31s1.5 18.667 -0.5 26s-6.5 13.333 -13.5 18s-17.833 7 -32.5 7h-8.5
c-2.33301 0 -5.33301 -0.5 -9 -1.5l-15 -4c-6.33301 -1.66699 -14.833 -4.16699 -25.5 -7.5l17 70c4.66699 0 10.5 0.833008 17.5 2.5s19.167 4.83398 36.5 9.50098c7.33301 2 16 4 26 6s20.667 4.66699 32 8c6.66699 2.66699 13 5 19 7c36 12 69.333 22.5 100 31.5
s57 13.5 79 13.5l-130 -524c48 36 97.167 65 147.5 87s96.166 33 137.499 33c77.333 0 130.333 -25 159 -75s30.334 -126.667 5.00098 -230l-91 -362c-6 -24 -10.333 -44.833 -13 -62.5s-1.66699 -32.334 3 -44.001s13.5 -20.5 26.5 -26.5s32.5 -9.66699 58.5 -11l-14 -55
h-414l13 53c32.667 4 58 8.66699 76 14s32 13.333 42 24s17.667 24.5 23 41.5s11.333 39.167 18 66.5l90 359c5.33301 22 9.16602 43.833 11.499 65.5s1.16602 41 -3.50098 58s-13.834 30.667 -27.501 41s-33.834 15.5 -60.501 15.5c-16 0 -34.5 -3.83301 -55.5 -11.5
s-41.5 -16.667 -61.5 -27s-38.333 -21.166 -55 -32.499s-29 -20.666 -37 -27.999l-110 -440c-6 -26 -10.667 -47.333 -14 -64s-2.66602 -30.334 2.00098 -41.001s14.667 -19 30 -25s38 -10.667 68 -14l-14 -55h-419z" />
    <glyph glyph-name="i" unicode="i" horiz-adv-x="451" 
d="M-5 -22c36 3.33301 64.001 6.66992 84.001 10.0029s35.667 9.66602 47 18.999s20 23 26 41s13 43.333 21 76l106 423c4.66699 20.667 8 37.667 10 51s2.33301 23.833 1 31.5s-4.83301 13 -10.5 16s-13.5 4.5 -23.5 4.5h-12c-4 -0.666992 -8 -1.66699 -12 -3
s-8.5 -2.66602 -13.5 -3.99902s-10.833 -3 -17.5 -5c-1.33301 -0.666992 -3.5 -1.5 -6.5 -2.5s-6.83301 -2.16699 -11.5 -3.5l-10 -2c-3.33301 -0.666992 -6 -1.33398 -8 -2.00098l16 62l51 14c32 8.66699 61 17.5 87 26.5l71 24.5c25.333 9.33301 47.5 17.166 66.5 23.499
s32.833 8.83301 41.5 7.5c8 0 13 -1.83301 15 -5.5s3 -8.83398 3 -15.501l-160 -641c-7.33301 -31.333 -11.833 -56.833 -13.5 -76.5s-0.833984 -34.167 2.49902 -43.5c10 -8.66699 47 -16.667 111 -24l-14 -55h-460zM431.001 1163c30 21.333 58.333 31.998 85 31.998
c11.333 0 22.833 -2.66699 34.5 -8s21.667 -12.666 30 -21.999s14.5 -20.833 18.5 -34.5s4 -28.5 0 -44.5c-3.33301 -12 -9.5 -24.333 -18.5 -37s-19.667 -24 -32 -34s-26 -18.333 -41 -25s-29.833 -10 -44.5 -10c-12.667 0 -24.667 2.66699 -36 8
s-20.833 12.833 -28.5 22.5s-13.167 20.834 -16.5 33.501s-3 26.667 1 42s10 28.833 18 40.5s17.667 23.167 29 34.5z" />
    <glyph glyph-name="j" unicode="j" horiz-adv-x="437" 
d="M13 -333c20 -34 38.6641 -51 55.9971 -51c24 0 45 11.833 63 35.5s34.667 65.5 50 125.5c0.666992 3.33301 1 6 1 8v5c0 3.33301 0.333008 6 1 8l3 12l186 735c4 16 7.16699 30.333 9.5 43s2.83301 23.5 1.5 32.5s-4.66602 15.833 -9.99902 20.5s-13.666 7 -24.999 7
l-19 -5c-0.666992 -0.666992 -1.66699 -1 -3 -1s-2.33301 -0.166992 -3 -0.5s-1.66699 -0.5 -3 -0.5c-10 -2.66699 -20.167 -5 -30.5 -7s-21.166 -3 -32.499 -3l14 56l170 49.5l122 37.5l17.5 4.5c6.33301 1.66699 12.5 3.16699 18.5 4.5h-1c2 0.666992 4.16699 1 6.5 1
s4.16602 0.333008 5.49902 1l-211 -846c-19.333 -77.333 -42.666 -142.166 -69.999 -194.499s-59 -94.5 -95 -126.5s-76.667 -55 -122 -69s-96 -21 -152 -21c-24.667 0 -46.5 3 -65.5 9s-34.667 14.333 -47 25s-20.833 23.5 -25.5 38.5s-5 31.167 -1 48.5
c2.66699 10 8 19.833 16 29.5s17.167 18.167 27.5 25.5s21 13.166 32 17.499s21.167 6.5 30.5 6.5c17.333 0 33.333 -4.66699 48 -14s27 -25 37 -47zM533.997 1163c14 11.333 27.3359 19.5029 40.0029 24.5029s27.334 7.5 44.001 7.5c15.333 0 27.666 -2.83301 36.999 -8.5
s18.666 -13.167 27.999 -22.5c8 -9.33301 13.5 -20.666 16.5 -33.999s2.5 -28 -1.5 -44c-2.66699 -11.333 -8.33398 -23.166 -17.001 -35.499s-19.334 -24.5 -32.001 -36.5h1c-12 -10 -25.333 -18.167 -40 -24.5s-29.667 -9.5 -45 -9.5c-13.333 0 -25.333 2.66699 -36 8
s-21 12.666 -31 21.999v-1c-8 9.33301 -13.5 20.666 -16.5 33.999s-2.83301 27.666 0.5 42.999c4 15.333 10 29.166 18 41.499s19.333 24.166 34 35.499z" />
    <glyph glyph-name="k" unicode="k" horiz-adv-x="938" 
d="M-1 -20c65.333 2 107.337 8.99707 126.004 20.9971c7.33301 7.33301 15 18.333 23 33s14.667 33 20 55l222 891c4 16.667 5.66699 30.334 5 41.001s-3.5 19 -8.5 25s-11.667 10.167 -20 12.5s-17.833 3.5 -28.5 3.5c-13.333 0 -25.666 -1.16699 -36.999 -3.5
s-23.666 -6.16602 -36.999 -11.499l15 63l48.5 12l49.5 12h-1c5.33301 1.33301 10 2.33301 14 3s8.33301 1.66699 13 3l80 19.5c22.667 5.66699 42 11.834 58 18.501l24.5 7l24.5 7c10 0 18.667 -4.66699 26 -14l-183 -733l66.5 47.5l72 52l72.5 53l68 51.5
c3.33301 3.33301 6.16602 6 8.49902 8s5.16602 4.66699 8.49902 8h-1c4.66699 3.33301 10.667 9 18 17s11.666 13.667 12.999 17c0.666992 2.66699 0.333984 4.83398 -0.999023 6.50098s-5 3.16699 -11 4.5s-15 2.5 -27 3.5s-28.333 2.16699 -49 3.5l14 55h400l-14 -55
c-34.667 -1.33301 -65.5 -5.33301 -92.5 -12s-53.833 -16.5 -80.5 -29.5s-54.334 -29.167 -83.001 -48.5l-99 -70l-68.5 -49.5l-82.5 -57.5l84 -166c24 -47.333 45.667 -88 65 -122s37.166 -62.333 53.499 -85s32.833 -41 49.5 -55s34.167 -24.5 52.5 -31.5
s39.5 -12.167 63.5 -15.5l-12 -50h-426l14 55h45c2.66699 0 6.16699 0.333008 10.5 1s11.833 3.66699 22.5 9c0.666992 4 -3.33301 13.667 -12 29l-166 327l-71 -285c-4 -14.667 -5.33301 -26.834 -4 -36.501s6.16602 -17.667 14.499 -24s21.166 -11 38.499 -14
s40.333 -5.16699 69 -6.5l-14 -55h-457z" />
    <glyph glyph-name="l" unicode="l" horiz-adv-x="465" 
d="M0 -20c20 2 38.8301 4.33203 56.4971 6.99902s33.834 7.83398 48.501 15.501s27.5 18.834 38.5 33.501s19.5 34.667 25.5 60l217 869c8.66699 33.333 9.5 58.666 2.5 75.999s-27.5 26 -61.5 26c-4 0 -8 -1 -12 -3c-5.33301 -2 -12 -4 -20 -6s-18.667 -3 -32 -3l14 57
l64.5 16.5c25 6.33301 51.833 13.5 80.5 21.5l87.5 25c29.667 8.66699 58.5 17.667 86.5 27c6.66699 0 11.834 -1.16699 15.501 -3.5s6 -5 7 -8s1.33301 -6 1 -9s-0.833008 -5.5 -1.5 -7.5l-269 -1080c-6 -23.333 -8.66699 -42.833 -8 -58.5s3.33398 -27.167 8.00098 -34.5
c5.33301 -3.33301 17.333 -7 36 -11s43 -7.33301 73 -10l-14 -55h-458z" />
    <glyph glyph-name="m" unicode="m" horiz-adv-x="1427" 
d="M2 -22c25.333 0.666992 46.6621 2.83496 63.9951 6.50195s31.833 9.5 43.5 17.5s21.167 19 28.5 33s13.666 32 18.999 54l114 458c6.66699 25.333 7.5 47.5 2.5 66.5s-17.833 28.5 -38.5 28.5c-18.667 0 -41.334 -8 -68.001 -24l18 72
c68 25.333 128.333 46.666 181 63.999s96.334 27.333 131.001 30c-0.666992 -12 -1 -19.333 -1 -22v-9l-22 -90c33.333 22.667 63.5 42 90.5 58s52.333 28.667 76 38s46.167 16.166 67.5 20.499s43 6.5 65 6.5c46 0 82.333 -11 109 -33s45 -58 55 -108
c35.333 28 66.833 51 94.5 69s53.5 32.333 77.5 43s47.333 18.167 70 22.5s47 6.5 73 6.5c42.667 0 77.334 -5.83301 104.001 -17.5s46 -30.667 58 -57s16.833 -61.166 14.5 -104.499s-11.5 -96.333 -27.5 -159l-92 -369c-4 -17.333 -5.66699 -32.166 -5 -44.499
s4.83398 -22.5 12.501 -30.5s19.334 -14.167 35.001 -18.5s36.167 -6.83301 61.5 -7.5l-13 -53h-430l14 55c26.667 1.33301 48.834 3.83301 66.501 7.5s32.167 9.83398 43.5 18.501s20.333 20 27 34s12.667 32 18 54l95 382c16 63.333 18 110.333 6 141s-43 46 -93 46
c-17.333 0 -35.666 -3.33301 -54.999 -10s-39.333 -15.334 -60 -26.001c-4.66699 -5.33301 -10.5 -10.333 -17.5 -15l-22.5 -15l-23.5 -15.5c-8.33301 -5.66699 -17.5 -12.5 -27.5 -20.5l-112 -449c-5.33301 -22 -8.66602 -41.167 -9.99902 -57.5s1.16699 -30 7.5 -41
s17.666 -19.5 33.999 -25.5s39.166 -9.33301 68.499 -10l-13 -53h-438l13 53c30 3.33301 54.167 7.16602 72.5 11.499s33.333 12.166 45 23.499s21.5 27.833 29.5 49.5s17 51.834 27 90.501l61 248c11.333 45.333 19.333 84.5 24 117.5s4.83398 60.167 0.500977 81.5
s-13.5 37.166 -27.5 47.499s-33.667 15.5 -59 15.5c-15.333 0 -32 -3.16699 -50 -9.5s-36.333 -14.5 -55 -24.5s-37 -21 -55 -33s-34.333 -23.667 -49 -35l-119 -477c-4 -17.333 -7.16699 -32.5 -9.5 -45.5s-0.666016 -24 5.00098 -33s16.5 -15.833 32.5 -20.5
s40.333 -7 73 -7l-13 -53h-434z" />
    <glyph glyph-name="n" unicode="n" horiz-adv-x="893" 
d="M9 -22c24.667 3.33301 45 6.66895 61 10.002s29.167 9 39.5 17s18.666 19.5 24.999 34.5s12.833 35.5 19.5 61.5l112 451c4.66699 18 7.5 32.5 8.5 43.5s0.333008 20 -2 27s-6.33301 12.167 -12 15.5s-12.5 6.66602 -20.5 9.99902h-69l15 61c6.66699 0 14 0.666992 22 2
s17.5 3.5 28.5 6.5s24.167 6.83301 39.5 11.5s34 10.667 56 18c7.33301 2.66699 15.166 5.16699 23.499 7.5s17.166 5.16602 26.499 8.49902l45.5 14l46.5 14c4.66699 -0.666992 8.83398 -1.5 12.501 -2.5s7.83398 -1.83301 12.501 -2.5l-27 -124l95 64.5
c25.333 17 48.333 30.167 69 39.5s40.334 15.833 59.001 19.5s40 5.5 64 5.5c34.667 0 64 -6.83301 88 -20.5s42.5 -33.167 55.5 -58.5s20.167 -55.666 21.5 -90.999s-3.33398 -75 -14.001 -119l-104 -415c-5.33301 -21.333 -8 -38.5 -8 -51.5s1.66699 -24.167 5 -33.5
c6.66699 -6.66699 17.334 -12 32.001 -16s33 -6 55 -6l-14 -55h-409l13 53c28.667 4 51.667 8.5 69 13.5s31 12.5 41 22.5s18 23.333 24 40s12.333 38.667 19 66l94 377c6.66699 24.667 10.167 47 10.5 67s-1.5 38.333 -5.5 55c-5.33301 11.333 -14.833 21.166 -28.5 29.499
s-31.5 12.5 -53.5 12.5c-27.333 0 -57 -8.33301 -89 -25s-67.667 -41 -107 -73l-122 -488c-8 -32.667 -6 -57 6 -73c5.33301 -7.33301 15.833 -12.833 31.5 -16.5s35.167 -5.5 58.5 -5.5l-14 -55h-417z" />
    <glyph glyph-name="o" unicode="o" horiz-adv-x="910" 
d="M320 660c49.333 43.333 101.831 75.6709 157.498 97.0039s113.834 32 174.501 32c59.333 0 112 -10.833 158 -32.5s83.333 -51.834 112 -90.501s47.167 -84.834 55.5 -138.501s4.5 -112.5 -11.5 -176.5c-14.667 -58.667 -38.834 -115.334 -72.501 -170.001
s-73.834 -103 -120.501 -145s-98.667 -75.667 -156 -101s-117.333 -38 -180 -38c-57.333 0 -108.666 11.5 -153.999 34.5s-82.166 54.833 -110.499 95.5s-46.833 88.667 -55.5 144s-5 115.333 11 180c14.667 59.333 37.334 114.666 68.001 165.999s72 99 124 143z
M606.998 705.005c-22 0 -44.5 -4.33398 -67.5 -13.001s-48.167 -22.667 -75.5 -42c-57.333 -51.333 -100.666 -136.666 -129.999 -255.999c-11.333 -45.333 -17.666 -92.5 -18.999 -141.5s3.5 -93.833 14.5 -134.5s29.167 -74.167 54.5 -100.5s59 -39.5 101 -39.5
c33.333 0 64.333 8.5 93 25.5s54.5 40 77.5 69s43 62.667 60 101s30.833 78.5 41.5 120.5c7.33301 30 12.666 61 15.999 93s4.16602 63.333 2.49902 94s-6.16699 59.5 -13.5 86.5s-17.833 50.667 -31.5 71s-30.667 36.5 -51 48.5s-44.5 18 -72.5 18z" />
    <glyph glyph-name="p" unicode="p" horiz-adv-x="907" 
d="M-103 -412c29.333 1.33301 53.1709 4.67285 71.5039 10.0059s33.166 12.666 44.499 21.999s20 21 26 35s11.333 30.333 16 49l212 852c5.33301 21.333 8.5 37.833 9.5 49.5s0 20.5 -3 26.5s-8.33301 9.83301 -16 11.5s-17.834 3.16699 -30.501 4.5
c-7.33301 0 -15.666 -0.833008 -24.999 -2.5s-21.666 -5.83398 -36.999 -12.501l17 66l100 31c2.66699 1.33301 5.5 2.16602 8.5 2.49902s6.16699 1.16602 9.5 2.49902l83 23.5c32 9 67.333 19.833 106 32.5l12 -17l-23 -96c53.333 40.667 102.166 70 146.499 88
s89.166 27 134.499 27c42 0 79.667 -9.16699 113 -27.5s60 -44.833 80 -79.5s32.333 -77 37 -127s-1 -106.667 -17 -170c-10 -38.667 -24.167 -77.5 -42.5 -116.5s-40 -76.333 -65 -112s-52.833 -68.834 -83.5 -99.501s-63.167 -57.334 -97.5 -80.001
s-69.833 -40.5 -106.5 -53.5s-73.667 -19.5 -111 -19.5c-32.667 0 -63.334 4.33301 -92.001 13s-52.667 23.667 -72 45l-63 -253c-6 -25.333 -9.83301 -45.333 -11.5 -60s1.66602 -26.167 9.99902 -34.5s22.5 -14.333 42.5 -18s48.333 -7.16699 85 -10.5l-14 -59h-468z
M380.005 26.0068c22 -18 53.333 -27 94 -27c30 0 60.333 8.33301 91 25s59.5 40 86.5 70s51.333 66.167 73 108.5s38.834 89.5 51.501 141.5c12 49.333 17 93.333 15 132s-9.5 71.334 -22.5 98.001s-31 47 -54 61s-49.5 21 -79.5 21c-18.667 0 -38.334 -3.5 -59.001 -10.5
s-40 -15.667 -58 -26s-33.667 -21.833 -47 -34.5s-21.333 -24.667 -24 -36l-109 -440c1.33301 -7.33301 3.16602 -15.166 5.49902 -23.499s5.33301 -16.333 9 -24s7.83398 -14.834 12.501 -21.501s9.66699 -11.334 15 -14.001z" />
    <glyph glyph-name="q" unicode="q" horiz-adv-x="877" 
d="M772 774c3.33301 -1.33301 12.334 -5.66895 27.001 -13.002s30.667 -16.666 48 -27.999c13.333 7.33301 25.833 13.833 37.5 19.5s23.834 11.167 36.501 16.5c6.66699 3.33301 13.167 6.33301 19.5 9s12.166 5.33398 17.499 8.00098v4h-2
c5.33301 3.33301 10 4.66602 14 3.99902s7.33301 -2.5 10 -5.5s4.83398 -6.66699 6.50098 -11s3.16699 -8.83301 4.5 -13.5l-271 -1085c-7.33301 -28.667 -5.16602 -51.167 6.50098 -67.5s40.167 -25.833 85.5 -28.5l-13 -52h-458l14 57c25.333 0 48 1.33301 68 4
s37.667 8.33398 53 17.001s28.333 21.334 39 38.001s19.334 38.667 26.001 66l76 307c-28 -23.333 -54 -42.333 -78 -57s-47.5 -26.334 -70.5 -35.001s-45.833 -14.5 -68.5 -17.5s-46.334 -4.5 -71.001 -4.5c-36.667 0 -71.167 9 -103.5 27s-59 44.667 -80 80
s-34.333 79 -40 131s0.166016 112 17.499 180c17.333 68.667 44.166 131.5 80.499 188.5s79.333 106.167 129 147.5s104 73.5 163 96.5s120.167 34.5 183.5 34.5c18 0 35.167 -1.5 51.5 -4.5s30.166 -7.16699 41.499 -12.5zM461.001 48.9971c16 0 34 2.00098 54 6.00098
s39.667 10.667 59 20s36.833 22.166 52.5 38.499s27.167 36.5 34.5 60.5l93 373c13.333 54 11.166 95.5 -6.50098 124.5s-54.167 43.5 -109.5 43.5c-41.333 0 -79 -9.5 -113 -28.5s-64.167 -43.833 -90.5 -74.5s-49 -65.667 -68 -105s-33.5 -79.333 -43.5 -120
c-11.333 -44.667 -17.666 -87.5 -18.999 -128.5s3.16699 -77 13.5 -108s27.333 -55.667 51 -74s54.5 -27.5 92.5 -27.5z" />
    <glyph glyph-name="r" unicode="r" horiz-adv-x="652" 
d="M4 -18c26.667 1.33301 49.1689 3.66016 67.502 6.99316s33.833 9 46.5 17s22.834 18.833 30.501 32.5s14.167 31.167 19.5 52.5l100 399c5.33301 21.333 9.33301 40.833 12 58.5s3.16699 32.834 1.5 45.501s-5.83398 23 -12.501 31s-16.667 13.333 -30 16
c-6.66699 -1.33301 -13.834 -2.5 -21.501 -3.5s-15.167 -2.16699 -22.5 -3.5c-4 -0.666992 -8 -1.16699 -12 -1.5s-8 -1.16602 -12 -2.49902l15 61l68 18c19.333 5.33301 36.833 10.5 52.5 15.5s30.167 10 43.5 15l41 15.5c13.333 5.33301 28 10.833 44 16.5l53 19.5
c3.33301 0 6.5 -0.333008 9.5 -1s6.16699 -1 9.5 -1c4 -5.33301 6 -9.66602 6 -12.999s-0.333008 -6.33301 -1 -9l-28 -110c44 44 85.833 77.333 125.5 100s77.5 34 113.5 34c32.667 0 57.667 -10.5 75 -31.5s21.666 -49.167 12.999 -84.5
c-2.66699 -11.333 -7.5 -22.166 -14.5 -32.499s-15.5 -19.666 -25.5 -27.999s-21.5 -15.666 -34.5 -21.999s-26.5 -10.5 -40.5 -12.5c-15.333 1.33301 -31.166 7.5 -47.499 18.5s-29.833 21.167 -40.5 30.5c-8.66699 7.33301 -14.334 12 -17.001 14
c-8.66699 -1.33301 -20.167 -6.16602 -34.5 -14.499s-28.833 -18.833 -43.5 -31.5s-28 -27 -40 -43s-20 -32.333 -24 -49l-100 -402c-5.33301 -22 -8 -40.667 -8 -56s4.16699 -27.833 12.5 -37.5s22 -16.667 41 -21s44.833 -6.5 77.5 -6.5l-14 -57h-467z" />
    <glyph glyph-name="s" unicode="s" horiz-adv-x="655" 
d="M114 235l55.002 0.000976562c-2 -47.333 -0.333008 -87.166 5 -119.499s14.5 -58.5 27.5 -78.5s30.333 -34.5 52 -43.5s48.167 -13.5 79.5 -13.5c19.333 0 37.833 3 55.5 9s33.167 13 46.5 21c13.333 12 24.5 25 33.5 39s15.5 29.667 19.5 47
c13.333 51.333 -6.33398 93.666 -59.001 126.999l-43.5 28l-44.5 28c-26.667 20.667 -50.834 41 -72.501 61s-39.5 40.833 -53.5 62.5s-23.333 44.667 -28 69s-3.33398 51.166 3.99902 80.499c8.66699 35.333 23.667 67.666 45 96.999s46.666 54.666 75.999 75.999
s61.5 38 96.5 50s70.5 18 106.5 18c17.333 0 35.333 -2.16699 54 -6.5s36 -9.16602 52 -14.499c9.33301 -3.33301 18.333 -6.16602 27 -8.49902s17.334 -4.16602 26.001 -5.49902h7c2.66699 0 6 0.666992 10 2c0 0.666992 0.666992 2 2 4c0.666992 1.33301 1.66699 3 3 5
s2.66602 4.66699 3.99902 8h55l-69 -278h-55c6.66699 72.667 -1.16602 128 -23.499 166s-60.5 57 -114.5 57c-19.333 0 -37 -3 -53 -9s-30.333 -14.167 -43 -24.5s-23.334 -22.166 -32.001 -35.499s-15 -27.333 -19 -42c-7.33301 -23.333 -4.16602 -46.333 9.50098 -69
s37.167 -44.334 70.5 -65.001l52 -31.5l50 -32.5c24.667 -16.667 46.667 -35 66 -55s34.833 -40.833 46.5 -62.5s19.5 -43.834 23.5 -66.501s3.66699 -45 -1 -67c-9.33301 -37.333 -25.333 -71.5 -48 -102.5s-50.167 -57.833 -82.5 -80.5s-68.166 -40.167 -107.499 -52.5
s-80.333 -18.5 -123 -18.5c-21.333 0 -43.5 2.33301 -66.5 7s-44.5 9.66699 -64.5 15c-24 6 -44.667 10.667 -62 14c-1.33301 0 -3.33301 -1 -6 -3s-4.66699 -3.66699 -6 -5c-2 -2.66699 -4 -5.5 -6 -8.5s-4 -6.16699 -6 -9.5h-50z" />
    <glyph glyph-name="t" unicode="t" horiz-adv-x="531" 
d="M681 774l-23.0049 -93.9971h-181l-124 -497c-13.333 -54 -16.666 -92.167 -9.99902 -114.5s24 -33.5 52 -33.5c6.66699 0 13.334 0.333008 20.001 1s14.667 3.16699 24 7.5s20.333 11.5 33 21.5s28.667 24 48 42l32 -39l-19.5 -23l-19.5 -23
c-33.333 -35.333 -71.166 -63.166 -113.499 -83.499s-82.166 -30.5 -119.499 -30.5c-64 0 -104.5 21.167 -121.5 63.5s-15.167 104.166 5.5 185.499l130 523h-85c-9.33301 0 -16.166 2.16699 -20.499 6.5s-5.83301 10.166 -4.5 17.499
c4.66699 0.666992 13.667 6.16699 27 16.5s29.5 23.833 48.5 40.5l62.5 56.5l68.5 64.5l67.5 65.5l59 58.5c11.333 -0.666992 20.333 -3.83398 27 -9.50098s9 -11.834 7 -18.501l-51 -204h181z" />
    <glyph glyph-name="u" unicode="u" horiz-adv-x="891" 
d="M493 777l-145.001 -584.001c-12 -48 -11.833 -84.833 0.5 -110.5s40.5 -38.5 84.5 -38.5c30 0 61.667 8.5 95 25.5s66.666 39.833 99.999 68.5l120 480c4.66699 18 7.33398 32.833 8.00098 44.5s-2.66602 21.167 -9.99902 28.5s-19.333 13 -36 17s-40.334 8 -71.001 12
l14 57h317l-160 -641c-4 -15.333 -6.83301 -28.5 -8.5 -39.5s0 -20 5 -27s15 -12.167 30 -15.5s37.167 -5 66.5 -5l-13 -53l-59 -14c-4 -1.33301 -9.83301 -3 -17.5 -5s-16 -4.5 -25 -7.5l-27.5 -9c-9.33301 -3 -17.666 -5.5 -24.999 -7.5
c-11.333 -4 -25.833 -8.5 -43.5 -13.5l-52.5 -15.5l-29 -8.5l-29 -8.5l32 136c-50 -43.333 -99 -76.666 -147 -99.999s-95 -35 -141 -35c-26 0 -51.667 4.33301 -77 13s-46.5 22.834 -63.5 42.501s-28.667 45.5 -35 77.5s-3.5 71.667 8.5 119l116 462
c4.66699 18.667 7.16699 34.167 7.5 46.5s-2.5 22.166 -8.5 29.499s-16 12.833 -30 16.5s-33.333 6.16699 -58 7.5l13 55h294z" />
    <glyph glyph-name="v" unicode="v" horiz-adv-x="863" 
d="M586 779l-14 -57.001c-1.33301 0 -2.83301 -0.166992 -4.5 -0.5s-4.16699 -0.5 -7.5 -0.5c-3.33301 -0.666992 -6.5 -1 -9.5 -1h-6.5c-16 -1.33301 -30.167 -3.66602 -42.5 -6.99902s-20.5 -12.666 -24.5 -27.999l-3 -15c-2 -4.66699 -0.333008 -19.334 5 -44.001
l65 -421l54.5 85.5l55.5 85.5c5.33301 7.33301 10.5 15 15.5 23l15.5 24l51 76.5c16.667 25.667 32 50.5 46 74.5c1.33301 3.33301 4.33301 8 9 14c1.33301 1.33301 3 3.66602 5 6.99902s3.66699 5.66602 5 6.99902c1.33301 3.33301 3.33301 7 6 11s4.66699 7.66699 6 11
l18 31.5c5.33301 9.66699 8.66602 17.167 9.99902 22.5c3.33301 12 -0.5 22.333 -11.5 31s-32.5 13 -64.5 13l14 57h282l-14 -57c-16 0 -30.167 -2.66699 -42.5 -8s-24.166 -13.333 -35.499 -24s-22.833 -24.667 -34.5 -42s-24.834 -38 -39.501 -62l-215 -327l-214 -328
c-5.33301 -5.33301 -12 -10.5 -20 -15.5s-13.333 -7.5 -16 -7.5c-6.66699 0 -13.667 4.83301 -21 14.5s-10.666 19.834 -9.99902 30.501c-3.33301 16.667 -6.5 33.334 -9.5 50.001l-9.5 51l-19.5 111l-19.5 111l-52 326c-5.33301 28 -11 50.833 -17 68.5
s-13 29.167 -21 34.5v-1c-4.66699 4.66699 -12 8.16699 -22 10.5s-25.333 4.83301 -46 7.5l14 57h389z" />
    <glyph glyph-name="w" unicode="w" horiz-adv-x="1256" 
d="M1021 722c-38 -2.66699 -65.6689 -7 -83.002 -13s-29.333 -17.333 -36 -34c-1.33301 -4 -1.83301 -9.66699 -1.5 -17s1.16602 -14.666 2.49902 -21.999c1.33301 -8.66699 2.33301 -17 3 -25s0.333984 -14 -0.999023 -18l12 -88c4 -29.333 8.33301 -58 13 -86
c5.33301 -33.333 10.166 -67.5 14.499 -102.5l12.5 -101.5l53 80.5l55 81.5l84 122c27.333 40.667 52.666 81.334 75.999 122.001l-2 -1l2 2c0.666992 0.666992 1 1.16699 1 1.5s0.333008 0.833008 1 1.5c7.33301 13.333 13 24.666 17 33.999s6.66699 15.666 8 18.999
c3.33301 14.667 0.833008 24.167 -7.5 28.5s-20.5 8.83301 -36.5 13.5c-3.33301 1.33301 -7 2.33301 -11 3s-8.33301 1.66699 -13 3l13 53h256l-13 -52c-25.333 -8.66699 -47.166 -22 -65.499 -40s-30.5 -37 -36.5 -57l-114.5 -173l-114.5 -174l-115.5 -176.5l-113.5 -175.5
c-3.33301 -3.33301 -7 -6.66602 -11 -9.99902s-7.66699 -6.66602 -11 -9.99902c-3.33301 -0.666992 -6.33301 -1.16699 -9 -1.5s-5.66699 -0.833008 -9 -1.5c-3.33301 2.66699 -6 5.5 -8 8.5s-4.66699 5.83301 -8 8.5l-72 463l-38 -53.5l-38 -51.5l-42.5 -57.5l-42.5 -57.5
c-9.33301 -13.333 -19.666 -27.333 -30.999 -42l-33 -43l-66.5 -87.5c-22.333 -30.333 -40.5 -58.5 -54.5 -84.5c-3.33301 -0.666992 -6.66602 -1.16699 -9.99902 -1.5s-6.66602 -0.833008 -9.99902 -1.5c-4 2 -8.16699 4.66699 -12.5 8l-10.5 8l-103 655
c-2.66699 13.333 -4.83398 25.333 -6.50098 36l-4.5 29c-2.66699 16 -5 28.833 -7 38.5s-5 17.167 -9 22.5s-9.83301 9.16602 -17.5 11.499s-18.5 4.16602 -32.5 5.49902l14 57h358l-14 -57c-23.333 0 -44 -2.83301 -62 -8.5s-29.333 -17.5 -34 -35.5
c-2 -8.66699 -3.5 -18.5 -4.5 -29.5s-0.666992 -26 1 -45s4.83398 -43.5 9.50098 -73.5s11.334 -68 20.001 -114l30 -218l113.5 155l110.5 155c2 2.66699 3.33301 6.5 4 11.5s0.666992 12.167 0 21.5s-2.33398 21.5 -5.00098 36.5s-6.66699 34.167 -12 57.5
c-2 14.667 -4 27 -6 37s-6 18.5 -12 25.5s-14.667 12.333 -26 16s-27.333 6.5 -48 8.5l14 57h401z" />
    <glyph glyph-name="x" unicode="x" horiz-adv-x="865" 
d="M229 11l2 1zM615 772l-14.001 -55.0029c-25.333 0 -45.666 -2 -60.999 -6s-24 -10 -26 -18c5.33301 -32 12.666 -62.333 21.999 -91l28 -86c6 4 9.16699 6.33301 9.5 7s1.16602 1.66699 2.49902 3c2 2 3.83301 4 5.5 6s2.83398 3.33301 3.50098 4
c17.333 22 34 41.667 50 59l42 45c11.333 12 20.333 21.833 27 29.5s10.667 14.167 12 19.5l1 4c0.666992 2 1 4.16699 1 6.5s-2 4.5 -6 6.5s-10.667 4 -20 6s-22.666 3.66699 -39.999 5l14 55h315l-14 -55c-20 -1.33301 -37.667 -4.16602 -53 -8.49902
s-30.666 -9.16602 -45.999 -14.499c-16 -8 -32 -18.833 -48 -32.5s-32.167 -28.667 -48.5 -45s-32.833 -33.833 -49.5 -52.5l-49 -55l-36.5 -41.5l-35.5 -38.5c8.66699 -19.333 17.167 -40 25.5 -62s16.166 -44.667 23.499 -68l41.5 -114
c14.333 -38 30.166 -72.167 47.499 -102.5s36.5 -55 57.5 -74s45.167 -28.5 72.5 -28.5l-14 -55h-397l14 55h42c5.33301 0 15 4.33301 29 13l7 10c-7.33301 14.667 -13.833 31.834 -19.5 51.501l-17.5 61.5c-6.66699 25.333 -14 51 -22 77s-19.667 51.333 -35 76l-45 -54
l-51 -59l-52 -58.5l-48 -52.5l-16 -17.5l-15 -16.5l-5 -1c1.33301 -2 1.33301 -5 0 -9c-0.666992 -2 -1.66699 -3.66699 -3 -5c4 -5.33301 12 -9 24 -11s27.667 -3.66699 47 -5l-14 -55h-293l13 53c1.33301 0.666992 2.66602 1 3.99902 1s3 0.333008 5 1h-1l44.5 8.5
c11.667 2.33301 19.834 5.16602 24.501 8.49902v-1c16 11.333 34.333 26.5 55 45.5s42.334 40.333 65.001 64l70.5 75l71.5 78.5l47.5 53l45.5 49c-9.33301 19.333 -19 41.333 -29 66l-30 75l-25.5 62l-24 57.5c-7.66699 17.667 -15 33.334 -22 47.001
s-13.5 24.167 -19.5 31.5c-3.33301 3.33301 -11.833 6.5 -25.5 9.5s-33.5 5.5 -59.5 7.5l14 55h406z" />
    <glyph glyph-name="y" unicode="y" horiz-adv-x="875" 
d="M195 772l404.002 -0.00292969l-14 -57c-13.333 0 -25.833 -0.666992 -37.5 -2s-21.167 -2.66602 -28.5 -3.99902c-2.66699 -0.666992 -6.33398 -1 -11.001 -1c-22.667 -6.66699 -35.667 -16.667 -39 -30c-2.66699 -7.33301 -4.33398 -15.666 -5.00098 -24.999
c0 -2 0.666992 -5 2 -9c1.33301 -6 2.83301 -13.667 4.5 -23s4.16699 -18 7.5 -26l85 -399l12.5 20c5 8 9.16699 15 12.5 21l47 79l48 79l11 17.5l11 17.5l59 95.5l57 95.5c0.666992 2 1.33398 3.33301 2.00098 4c2 0.666992 3 1.66699 3 3
c3.33301 6 7.33301 13.833 12 23.5s8 19.167 10 28.5c2 8 1.16699 14.333 -2.5 19s-9 8.16699 -16 10.5s-15.333 3.83301 -25 4.5s-19.5 1 -29.5 1l14 57h272l-14 -57c-28.667 -3.33301 -50.667 -12.333 -66 -27s-27.666 -31 -36.999 -49v1l-233.5 -369.5l-232.5 -370.5
c-39.333 -60 -76.5 -113.167 -111.5 -159.5s-69.5 -85.333 -103.5 -117s-68.167 -55.5 -102.5 -71.5s-70.5 -24 -108.5 -24c-16 0 -31.667 2.33301 -47 7s-28.666 11.834 -39.999 21.501s-19.5 21.667 -24.5 36s-4.83301 31.5 0.5 51.5c7.33301 30 23.333 53.833 48 71.5
s52.334 26.5 83.001 26.5c11.333 0 23.666 -2 36.999 -6s26.333 -8.33301 39 -13l4 -2c9.33301 -3.33301 18.166 -6.16602 26.499 -8.49902s14.833 -3.5 19.5 -3.5c9.33301 0 20.666 5.16699 33.999 15.5s27.166 23.666 41.499 39.999s28.666 34.5 42.999 54.5
s27.5 39.333 39.5 58s22.5 35.834 31.5 51.501s14.833 27.167 17.5 34.5c0.666992 0.666992 1 2.66699 1 6s-0.166992 7.66602 -0.5 12.999s0.166992 10.333 1.5 15l-34 153c-11.333 52 -22 103.333 -32 154l-33.5 154c-11 52.667 -21.167 104 -30.5 154
c-3.33301 6 -5.5 11.5 -6.5 16.5s-2.16699 9.5 -3.5 13.5c-0.666992 1.33301 -1.16699 2.5 -1.5 3.5s-0.833008 2.16699 -1.5 3.5c-2 10 -4.16699 18.5 -6.5 25.5s-6.16602 13.333 -11.499 19s-13 10.5 -23 14.5s-23.667 8 -41 12z" />
    <glyph glyph-name="z" unicode="z" horiz-adv-x="776" 
d="M929 772l-11.002 -44l-661 -718h224c44 0 79.333 2.83301 106 8.5s45.334 13.167 56.001 22.5c10.667 8 25.834 27 45.501 57s41.167 67 64.5 111c9.33301 -2 18.333 -4.33301 27 -7s17.667 -5 27 -7l-45.5 -135l-45.5 -135h-717l9 39l653 725h-210
c-30.667 0 -56.167 -2.66699 -76.5 -8s-35.833 -12.333 -46.5 -21v1c-11.333 -8 -22.5 -22.833 -33.5 -44.5s-24.167 -52.167 -39.5 -91.5h-57l32 123.5l32 123.5h667z" />
    <glyph glyph-name="braceleft" unicode="{" horiz-adv-x="1005" 
d="M1200 1489c-153.333 -20 -250.332 -111.999 -290.999 -275.999l-100 -400c-24.667 -100 -58 -170.333 -100 -211c-31.333 -30 -79 -57.667 -143 -83c54 -24.667 88.333 -55.667 103 -93c20.667 -45.333 17.667 -121.333 -9 -228l-18.5 -66.5
c-7.66699 -27 -17.167 -58.5 -28.5 -94.5l-29 -95c-8 -26.667 -14 -48.667 -18 -66c-47.333 -187.333 -0.333008 -294 141 -320l-50 -77c-144.667 0 -235.334 33.667 -272.001 101c-34 58.667 -33 161.667 3 309l45 182l29.5 112.5c8.33301 30.333 14.5 54.166 18.5 71.499
c20 80 22 136 6 168c-15.333 34 -59 66 -131 96c78.667 27.333 139.334 68 182.001 122c42 49.333 74 119 96 209c4 16 8.66699 36 14 60s11 52 17 84l19 85l13 60c19.333 75.333 41.166 139.5 65.499 192.5s51.166 95.5 80.499 127.5
c72.667 74.667 181.334 112 326.001 112z" />
    <glyph glyph-name="bar" unicode="|" horiz-adv-x="344" 
d="M536 1100l-296 -1185h-145l296 1185h145z" />
    <glyph glyph-name="braceright" unicode="}" horiz-adv-x="983" 
d="M994 519c-102.667 -36 -167.999 -74.333 -195.999 -115c-22.667 -32.667 -42.334 -82.334 -59.001 -149.001l-46 -184l-42 -173c-10.667 -42.667 -17.667 -70 -21 -82c-34.667 -105.333 -77.667 -183.333 -129 -234c-70.667 -68.667 -179.334 -103 -326.001 -103l-11 77
c153.333 26 253.666 132.667 300.999 320l14.5 66c5.66699 26.667 11.5 58.334 17.5 95.001l19 94.5c5.33301 27 10.333 49.167 15 66.5c13.333 52.667 28.5 98 45.5 136s36.833 68.667 59.5 92c32.667 37.333 82.334 68.333 149.001 93
c-51.333 24.667 -85 52.334 -101 83.001c-10 21.333 -14.667 49.333 -14 84s7.33398 77 20.001 127l100 400c40.667 164 -11.333 256 -156 276l71 82c146 0 236 -37.333 270 -112c28.667 -62.667 24 -169.334 -14 -320.001c-3.33301 -16 -8.33301 -36 -15 -60
s-15 -52.333 -25 -85l-24 -84c-6.66699 -24 -12 -44 -16 -60c-21.333 -89.333 -24 -159 -8 -209c16 -53.333 56.333 -94 121 -122z" />
    <glyph glyph-name="asciitilde" unicode="~" horiz-adv-x="978" 
d="M1232 1183l-62.0029 -61.5029l-62 -61.5h-194c7.33301 -17.333 11.833 -36.166 13.5 -56.499s1.83398 -41.833 0.500977 -64.5h26c10.667 0 21.834 -0.166992 33.501 -0.5s23 -0.5 34 -0.5h28.5c20.667 -0.666992 40.667 -1 60 -1h56l-59 -65l-59 -65h-146
c-8 -22 -19.333 -43.833 -34 -65.5s-33.667 -46.5 -57 -74.5h1c-30.667 -27.333 -60 -50.666 -88 -69.999s-53.667 -33.666 -77 -42.999c-36 -15.333 -73.833 -27.666 -113.5 -36.999s-76.834 -15.333 -111.501 -18c2 -4 5.66699 -10 11 -18
c3.33301 -4.66699 6.66602 -10 9.99902 -16l11 -20l280 -476l-7 -27c-1.33301 -6 -3.66602 -9.5 -6.99902 -10.5s-7.66602 -1.5 -12.999 -1.5h-174l-56.5 92.5l-52.5 85.5l-62 102.5l-53 86.5l-84 138.5c-19.333 31.667 -28.666 48.5 -27.999 50.5l31 126
c36.667 -7.33301 71.667 -11 105 -11c83.333 0 155.166 14.167 215.499 42.5s107.5 69.166 141.5 122.499c4 6 8 12.5 12 19.5s7 14.167 9 21.5h-121.5c-41.667 0 -83.167 0.333008 -124.5 1c-40.667 0 -81.167 0.166992 -121.5 0.5s-79.833 0.5 -118.5 0.5l64 65l64 65
l364 3c-6 19.333 -16 37.5 -30 54.5s-33 31.167 -57 42.5c-43.333 14 -79.666 21 -108.999 21c-38 0.666992 -76.167 1.5 -114.5 2.5s-76.5 1.83301 -114.5 2.5l62 59l61 59h817z" />
    <glyph glyph-name="glyph28" unicode="&#xd7;" horiz-adv-x="1167" 
d="M524 1112l255 -340l425 339l69 -92l-424 -340l255 -340l-116 -93l-255 340l-422 -337l-69 92l421 337l-255 341z" />
    <glyph glyph-name="uni0964" unicode="&#x964;" horiz-adv-x="788" 
d="M519 77l305 1225l58 -79.5l59 -78.5l-305 -1223z" />
    <glyph glyph-name="uni0965" unicode="&#x965;" horiz-adv-x="1120" 
d="M518 77l305 1225l59 -79.5l59 -78.5l-305 -1223zM897 77l305 1225l58 -79.5l59 -78.5l-305 -1223z" />
    <glyph glyph-name="uni0981" unicode="&#x981;" 
d="M308 1727c-3.33301 -13.333 -9.16699 -26 -17.5 -38s-18 -22.5 -29 -31.5s-23.167 -16.333 -36.5 -22s-26.333 -8.5 -39 -8.5c-14 0 -26.333 2.83301 -37 8.5s-19.334 13 -26.001 22s-11.167 19.5 -13.5 31.5s-1.83301 24.667 1.5 38c3.33301 12.667 9 25 17 37
s17.667 22.333 29 31s23.666 15.667 36.999 21s27 8 41 8c12.667 0 24.334 -2.66699 35.001 -8s19.334 -12.333 26.001 -21s11.167 -19 13.5 -31s1.83301 -24.333 -1.5 -37zM450.999 1707c-9.33301 -37.333 -22.332 -76.001 -38.999 -116.001s-37.667 -76.667 -63 -110
s-55.333 -60.666 -90 -81.999s-74.334 -32 -119.001 -32c-33.333 0 -62 6 -86 18s-44.667 27.833 -62 47.5s-31.166 42.667 -41.499 69s-18.5 54 -24.5 83s-10 58.167 -12 87.5s-2.66699 57.333 -2 84l29.5 -16.5l28.5 -16.5c12 -50 31.667 -96.333 59 -139
c27.333 -41.333 72.666 -62 135.999 -62c60.667 0 113.667 22 159 66c43.333 41.333 72.333 92 87 152z" />
    <glyph glyph-name="uni0982" unicode="&#x982;" horiz-adv-x="711" 
d="M822 886c-8.66699 -34.667 -23.3311 -66.666 -43.998 -95.999s-45 -54.666 -73 -75.999s-58.833 -38 -92.5 -50s-67.834 -18 -102.501 -18c-38.667 0 -73.5 7.33301 -104.5 22s-56.333 34.667 -76 60s-33 55.166 -40 89.499s-5.5 71.166 4.5 110.499
c9.33301 36.667 24.666 70.334 45.999 101.001s46.5 57 75.5 79s60.667 39 95 51s69.5 18 105.5 18c40 0 75.167 -7.83301 105.5 -23.5s54.5 -36.834 72.5 -63.501s29.667 -57.667 35 -93s3 -72.333 -7 -111zM651.003 -262.999
c-60.667 100 -130.001 193.166 -208.001 279.499s-160.667 168.5 -248 246.5l75 135l75 135c38.667 -49.333 75.334 -101.833 110.001 -157.5s67 -113 97 -172s57.833 -119.167 83.5 -180.5s49.167 -122.666 70.5 -183.999zM726.002 973
c6.66699 26.667 4.1709 44.667 -7.49609 54s-28.5 14 -50.5 14c-12.667 0.666992 -27.834 -2 -45.501 -8s-36 -14.167 -55 -24.5s-38 -22.333 -57 -36s-36.333 -28 -52 -43s-28.834 -30 -39.501 -45s-17.334 -28.833 -20.001 -41.5
c-4.66699 -18 -1.83398 -32.667 8.49902 -44s25.5 -17 45.5 -17c12 0.666992 26.667 4 44 10s35.5 14 54.5 24s38 21.333 57 34s36.5 26 52.5 40s29.833 28 41.5 42s19.5 27.667 23.5 41z" />
    <glyph glyph-name="uni0983" unicode="&#x983;" horiz-adv-x="730" 
d="M874 933c-8.66699 -34.667 -23.334 -66.5 -44.001 -95.5s-45.167 -54.167 -73.5 -75.5s-59 -38 -92 -50s-66.167 -18 -99.5 -18c-40 0 -75.5 7.33301 -106.5 22s-56.333 34.667 -76 60s-32.667 55 -39 89s-4.5 70.667 5.5 110c8.66699 36 23.5 69.167 44.5 99.5
s45.833 56.666 74.5 78.999s60.334 39.666 95.001 51.999s70 18.5 106 18.5c40 0 75 -7.83301 105 -23.5s54 -36.667 72 -63s29.667 -57.166 35 -92.499s3 -72.666 -7 -111.999zM726 262c-9.33301 -35.333 -24.5029 -67.834 -45.5029 -97.501s-45.667 -55.167 -74 -76.5
s-59 -38 -92 -50s-66.167 -18 -99.5 -18c-40 0 -75.333 7.5 -106 22.5s-55.667 35.5 -75 61.5s-32.166 56.167 -38.499 90.5s-4.83301 70.833 4.5 109.5c9.33301 37.333 24.5 71.333 45.5 102s46 56.834 75 78.501s60.833 38.5 95.5 50.5s70 18 106 18
c40.667 0 75.834 -8.16699 105.501 -24.5s53.334 -38 71.001 -65s29 -58 34 -93s2.83301 -71.167 -6.5 -108.5zM777.997 1020c6.66699 26.667 4.16992 44.8311 -7.49707 54.498s-28.5 14.5 -50.5 14.5c-19.333 0 -43.333 -6.66699 -72 -20s-56.834 -30 -84.501 -50
s-52.334 -41.5 -74.001 -64.5s-34.834 -44.5 -39.501 -64.5c-4.66699 -18 -1.16699 -32.5 10.5 -43.5s27.5 -16.5 47.5 -16.5c18 0.666992 41.167 7.33398 69.5 20.001s56.333 28.334 84 47.001s52.5 39 74.5 61s36 42.667 42 62zM630 348.996
c5.33301 24 2.83105 41.001 -7.50195 51.001s-27.833 15 -52.5 15c-19.333 0 -43.166 -6.5 -71.499 -19.5s-56.333 -29.5 -84 -49.5s-52.167 -41.667 -73.5 -65s-34.666 -45.333 -39.999 -66c-2 -9.33301 -1.66699 -17.5 1 -24.5s6.83398 -13 12.501 -18
s12.5 -8.66699 20.5 -11s16 -3.5 24 -3.5c12 0 26.667 2.83301 44 8.5s35.5 13.5 54.5 23.5s38 21.5 57 34.5s36.5 26.5 52.5 40.5s29.667 28.167 41 42.5s18.666 28.166 21.999 41.499z" />
    <glyph glyph-name="uni0985" unicode="&#x985;" horiz-adv-x="1477" 
d="M1601 1115l-292.999 -1174l-27.5 35.5l-28.5 35.5h1c-1.33301 74.667 -14.666 146 -39.999 214s-64.666 127.667 -117.999 179c-39.333 -62.667 -89.333 -111.334 -150 -146.001s-126 -52 -196 -52c-141.333 0 -254 68 -338 204c-42 68 -74.333 154.167 -97 258.5
s-37.334 230.833 -44.001 379.5c10.667 -8.66699 21.167 -16.5 31.5 -23.5s20.833 -14.5 31.5 -22.5c18.667 -101.333 41.5 -186.5 68.5 -255.5s58.167 -124.667 93.5 -167s74.5 -72.833 117.5 -91.5s89.833 -28 140.5 -28c47.333 0 90.166 7.16699 128.499 21.5
s71.5 33 99.5 56s50.833 48.833 68.5 77.5s30.167 57 37.5 85c14 56 7.33301 101 -20 135c-29.333 34.667 -66 52 -110 52c-13.333 0 -26.333 -3.66699 -39 -11c0.666992 -12.667 1.16699 -24.667 1.5 -36s-0.833984 -22.333 -3.50098 -33c-12.667 -50 -36.5 -89 -71.5 -117
s-77.167 -42 -126.5 -42c-51.333 0 -92 17 -122 51c-31.333 32.667 -39.333 81.334 -24 146.001c11.333 43.333 38 84 80 122c40.667 38 89.667 59.333 147 64c-12 28.667 -33.167 49.667 -63.5 63s-65.833 20 -106.5 20h-354l-53 72l-53 72h1542l110 -144h-220zM1260 309
c1.33301 36 3.83203 66.832 7.49902 92.499s8.16699 48.5 13.5 68.5l161 645h-571c4 -12.667 8.66699 -25.5 14 -38.5l15 -37.5c50 -1.33301 95.333 -13.666 136 -36.999s73.834 -56 99.501 -98s42 -92.5 49 -151.5s1.5 -124.5 -16.5 -196.5c18 -40 34.833 -81 50.5 -123
s27.5 -83 35.5 -123z" />
    <glyph glyph-name="uni0986" unicode="&#x986;" horiz-adv-x="2008" 
d="M2217 1115c-17.333 0 -34.166 3.49902 -50.499 10.499s-26.833 17.167 -31.5 30.5l-9 -8l-274 -1218l-119 147l177 710c8 31.333 12.167 62 12.5 92s-2.5 58.167 -8.5 84.5s-15 50.166 -27 71.499s-26.333 38.666 -43 51.999c-18.667 14.667 -42.667 24 -72 28h-171
l-293 -1174l-28 35.5l-29 35.5h1c-1.33301 74.667 -14.5 146 -39.5 214s-64.167 127.667 -117.5 179c-20 -31.333 -42.667 -59.166 -68 -83.499s-52.833 -45 -82.5 -62s-61 -30 -94 -39s-66.833 -13.5 -101.5 -13.5c-141.333 0 -254.333 68 -339 204
c-42 68.667 -73 157.334 -93 266.001s-33.333 238.334 -40 389.001l31.5 -25.5l31.5 -24.5c18.667 -100.667 41.167 -186.167 67.5 -256.5s56.666 -127.666 90.999 -171.999s72.666 -76.5 114.999 -96.5s88.5 -30 138.5 -30c47.333 0 90.166 7.16699 128.499 21.5
s71.5 33 99.5 56s50.833 48.833 68.5 77.5s30.167 57 37.5 85c14 56 7.33301 101 -20 135c-28.667 34.667 -65 52 -109 52c-13.333 0 -26.333 -3.66699 -39 -11c0.666992 -12.667 1.16699 -24.667 1.5 -36s-0.833984 -22.333 -3.50098 -33c-12.667 -50 -36.5 -89 -71.5 -117
s-77.5 -42 -127.5 -42c-50.667 0 -91 17 -121 51c-31.333 32.667 -39.333 81.334 -24 146.001c11.333 43.333 38 84 80 122c40.667 38 89.334 59.333 146.001 64c-11.333 28.667 -32.166 49.667 -62.499 63s-65.833 20 -106.5 20h-355l-53 72l-52 72h1636
c31.333 0 57.833 -5.83301 79.5 -17.5s39.334 -30.167 53.001 -55.5s23.667 -57.833 30 -97.5s9.5 -87.834 9.5 -144.501l13 6c1.33301 17.333 3.33301 37.333 6 60l9 73c1.33301 7.33301 2.5 14.5 3.5 21.5s2.16699 13.833 3.5 20.5c2.66699 15.333 5 29.666 7 42.999
s4.33301 25.666 7 36.999l35.5 147l35.5 147l28 -32.5c9.33301 -10.333 18.333 -21.166 27 -32.499c-14 -70 -12.333 -116 5 -138c16 -24.667 43 -37 81 -37h26l53 -72l54 -72h-154zM1259 308.999c1.33301 36 3.83301 66.832 7.5 92.499s8.16699 48.5 13.5 68.5l161 645
h-571c4 -12.667 8.66699 -25.5 14 -38.5l15 -37.5c50 -1.33301 95.5 -13.666 136.5 -36.999s74.333 -56 100 -98s42 -92.5 49 -151.5s1.5 -124.5 -16.5 -196.5c18 -40 34.833 -81 50.5 -123s27.167 -83 34.5 -123z" />
    <glyph glyph-name="uni0987" unicode="&#x987;" horiz-adv-x="1192" 
d="M1083 -275c-65.333 78 -129.334 144.669 -192.001 200.002s-126 102.833 -190 142.5s-130.167 72.5 -198.5 98.5s-140.5 48.333 -216.5 67l-45 171l-45 171c28.667 -18 56.834 -34 84.501 -48s54.167 -25.667 79.5 -35c28 -10 51.667 -17.667 71 -23s36.333 -8 51 -8
c34 0 69.667 3.83301 107 11.5s74.666 18.334 111.999 32.001s73.166 29.834 107.499 48.501s65.5 39 93.5 61s51.667 45.333 71 70s32 49.667 38 75c4 16.667 4.83301 32.5 2.5 47.5s-8 28.167 -17 39.5s-21.5 20.333 -37.5 27s-35.667 10 -59 10c-18 0 -37.667 -3 -59 -9
s-41.666 -12.667 -60.999 -20c-1.33301 -0.666992 -3.33301 -1.5 -6 -2.5s-4.66699 -1.83301 -6 -2.5c-8 -32 -22.167 -62 -42.5 -90s-44 -52.5 -71 -73.5s-56.167 -37.5 -87.5 -49.5s-62.333 -18 -93 -18c-24 0 -45.167 3.66699 -63.5 11s-33.166 17.666 -44.499 30.999
s-18.833 29.333 -22.5 48s-2.83398 39.334 2.49902 62.001c6.66699 28 18.334 53.5 35.001 76.5s36 43.667 58 62s46 34.166 72 47.499s52.167 24.5 78.5 33.5s51.666 15.667 75.999 20s46.166 6.5 65.499 6.5c-2 45.333 -24 78.333 -66 99h-390l-51 72l-50 72h1009
c14.667 8.66699 27.334 19.334 38.001 32.001s17.667 25.667 21 39c5.33301 22 5 38.667 -1 50s-15.5 19.666 -28.5 24.999s-28.333 8.33301 -46 9s-35.167 1 -52.5 1c-35.333 0 -70.333 -1 -105 -3s-69.667 -4.33301 -105 -7s-70.5 -4.83398 -105.5 -6.50098
s-69.833 -2.5 -104.5 -2.5c-48.667 0 -95.834 3.83301 -141.501 11.5s-84.667 21.834 -117 42.501s-55.5 49.5 -69.5 86.5s-13.667 84.5 1 142.5c16 61.333 46.667 110.666 92 147.999l26.5 -17.5l26.5 -17.5c-16 -11.333 -30.5 -24.5 -43.5 -39.5
s-21.833 -31.167 -26.5 -48.5c-7.33301 -28.667 -6.83301 -51.667 1.5 -69s21.166 -30.5 38.499 -39.5s37.5 -14.833 60.5 -17.5s45.833 -4 68.5 -4c32 0 63.667 1 95 3s63.333 4.66699 96 8s65 6.16602 97 8.49902s64 3.5 96 3.5c125.333 0 214 -25 266 -75
c52.667 -50 74.334 -137.667 65.001 -263h135l109 -144h-754c1.33301 -12.667 1.5 -27.5 0.5 -44.5s-2.5 -32.833 -4.5 -47.5c21.333 0 44.833 -2.5 70.5 -7.5s51 -13.333 76 -25s48.333 -26.834 70 -45.501s39.334 -41.5 53.001 -68.5s22.167 -58.333 25.5 -94
s-0.666992 -76.834 -12 -123.501c-24 -95.333 -73 -174.166 -147 -236.499s-174 -107.833 -300 -136.5c45.333 -30.667 89.833 -64.334 133.5 -101.001s84.667 -74.167 123 -112.5s72.833 -76.166 103.5 -113.499s55.334 -71.333 74.001 -102v1z" />
    <glyph glyph-name="uni0988" unicode="&#x988;" horiz-adv-x="1195" 
d="M563 1115c5.33301 -8.66699 9.16992 -19.8281 11.5029 -33.4951s2.5 -26.834 0.5 -39.501c42.667 0 80.167 -5.66699 112.5 -17s60.5 -27.666 84.5 -48.999c46 -42.667 59 -113.667 39 -213c28 24.667 59.167 49.834 93.5 75.501s69 50 104 73s69 43.667 102 62
s61.833 32.5 86.5 42.5c16.667 -7.33301 33.5 -16.833 50.5 -28.5s33.5 -24.834 49.5 -39.501s31 -29.834 45 -45.501s26.667 -30.834 38 -45.501c-66 -50 -122.167 -97.5 -168.5 -142.5s-85 -88.833 -116 -131.5s-56 -84.834 -75 -126.501s-33.833 -84.5 -44.5 -128.5
c-7.33301 -25.333 -13 -55 -17 -89s-7 -69.5 -9 -106.5s-3 -74.167 -3 -111.5s1 -72 3 -104c-12.667 9.33301 -25 17.833 -37 25.5l-37 24.5c-17.333 78.667 -24.833 156 -22.5 232s12.166 150 29.499 222c14.667 58 35.167 114.333 61.5 169s64.5 108 114.5 160l1 9
c-44 -32 -88.833 -69.667 -134.5 -113s-91.5 -91.333 -137.5 -144c-49.333 -58 -93.333 -105.167 -132 -141.5s-73.667 -64.666 -105 -84.999s-59.833 -34.333 -85.5 -42s-50.167 -11.834 -73.5 -12.501c-18.667 0 -37.834 5.33301 -57.501 16s-37.667 27.667 -54 51
s-29.666 53 -39.999 89s-15.166 79.667 -14.499 131l37.5 28l37.5 28c-1.33301 -21.333 -0.5 -39.333 2.5 -54s7.83301 -26.5 14.5 -35.5s14.834 -15.5 24.501 -19.5s20.5 -6 32.5 -6c19.333 0 41.166 5.66699 65.499 17s49.166 26.166 74.499 44.499
s50.333 39.166 75 62.499s47.167 46.833 67.5 70.5s37.5 46.667 51.5 69s23 41.5 27 57.5c8.66699 32.667 5.16699 58.167 -10.5 76.5s-43.167 27.5 -82.5 27.5c-19.333 0 -41.333 -8.33301 -66 -25c-15.333 -62 -40.166 -108.5 -74.499 -139.5
s-76.166 -46.5 -125.499 -46.5c-48 0 -81.833 14.333 -101.5 43s-22.5 71.334 -8.5 128.001c5.33301 22 14.333 43.167 27 63.5s28.167 39 46.5 56s39.666 31.833 63.999 44.5s50.833 22 79.5 28c-10.667 30 -29 52.333 -55 67s-57.667 22 -95 22h-50l-51 72l-50 72h997
c34 24 54 47.667 60 71c6 24 2 44.667 -12 62c-13.333 15.333 -51 23 -113 23c-22 0 -50.333 -0.833008 -85 -2.5s-70.667 -3.83398 -108 -6.50098c-42 -2.66699 -83.5 -5 -124.5 -7s-76.167 -3 -105.5 -3c-143.333 0 -239 25.333 -287 76c-48.667 48 -62 117 -40 207
c8 32.667 19.333 60.667 34 84s33.667 44.666 57 63.999l25.5 -17l26.5 -17c-18 -12 -33.167 -25.5 -45.5 -40.5s-20.833 -31.167 -25.5 -48.5c-10 -41.333 -2.5 -73.333 22.5 -96s73.167 -34 144.5 -34c11.333 0 28 0.666992 50 2s45.333 3 70 5
c13.333 1.33301 27.666 2.33301 42.999 3s29.666 1.66699 42.999 3c18.667 1.33301 37.167 2.33301 55.5 3s35.166 1.66699 50.499 3c17.333 1.33301 32.5 2.33301 45.5 3s22.5 1 28.5 1c66 0 121.167 -6.83301 165.5 -20.5s79.5 -34.5 105.5 -62.5
s43.5 -63.167 52.5 -105.5s10.833 -92.166 5.5 -149.499h114l109 -144h-979z" />
    <glyph glyph-name="uni0989" unicode="&#x989;" horiz-adv-x="1200" 
d="M882 1115l-97.9971 -392.997c-7.33301 -26.667 -0.333008 -40 21 -40c8 0 21.167 3.5 39.5 10.5s42 20.167 71 39.5s63.5 46.666 103.5 81.999s85.667 81 137 137c58.667 -50 96.5 -112.833 113.5 -188.5s13.5 -161.5 -10.5 -257.5
c-15.333 -62.667 -39 -121.334 -71 -176.001s-70.5 -102.5 -115.5 -143.5s-96 -73.333 -153 -97s-118.5 -35.5 -184.5 -35.5c-51.333 0 -99.833 7.5 -145.5 22.5s-87 38.833 -124 71.5s-69 75.167 -96 127.5s-47.5 115.666 -61.5 189.999s-20.667 160.5 -20 258.5
s10 209.333 28 334l28.5 -26l27.5 -25c-3.33301 -126.667 2.16699 -234.5 16.5 -323.5s37.833 -161.667 70.5 -218s74.667 -97.5 126 -123.5s112.666 -39 183.999 -39c50.667 0 99.667 9.33301 147 28s90 42.334 128 71.001s70 60.167 96 94.5s42.667 66.833 50 97.5
c11.333 44.667 1 82.334 -31 113.001c-70.667 -74.667 -139.667 -129.334 -207 -164.001c-36 -18.667 -67.333 -32.667 -94 -42s-49.667 -14 -69 -14c-33.333 0 -59.333 8 -78 24c-18.667 13.333 -38 46 -58 98c-4.66699 11.333 -8.33398 24.5 -11.001 39.5
s-4 31.167 -4 48.5c-0.666992 19.333 -0.333984 37.5 0.999023 54.5s3.66602 32.167 6.99902 45.5l80 319h-449l-50 72l-49 72h1043c14.667 8.66699 27.334 19.334 38.001 32.001s17.667 25.667 21 39c5.33301 22 5 38.667 -1 50s-15.5 19.666 -28.5 24.999
s-28.333 8.33301 -46 9s-34.834 1 -51.501 1c-36 0 -71.333 -1 -106 -3s-69.667 -4.33301 -105 -7s-70.333 -4.83398 -105 -6.50098s-69.667 -2.5 -105 -2.5c-49.333 0 -96.666 3.83301 -141.999 11.5s-84.166 21.834 -116.499 42.501s-55.5 49.5 -69.5 86.5
s-13.667 84.5 1 142.5c8 32 19.333 59.833 34 83.5s33.667 45.167 57 64.5l26.5 -17.5l26.5 -17.5c-15.333 -11.333 -29.5 -24.5 -42.5 -39.5s-21.833 -31.167 -26.5 -48.5c-7.33301 -28.667 -6.83301 -51.667 1.5 -69s21.166 -30.5 38.499 -39.5s37.5 -14.833 60.5 -17.5
s45.833 -4 68.5 -4c32 0 63.5 1 94.5 3s62.833 4.66699 95.5 8c32 3.33301 64.167 6.16602 96.5 8.49902s64.833 3.5 97.5 3.5c125.333 0 214 -25 266 -75c51.333 -49.333 73 -137 65 -263h76v1l55.5 -72.5l56.5 -72.5h-670z" />
    <glyph glyph-name="uni098A" unicode="&#x98a;" horiz-adv-x="1378" 
d="M1036 1115l-94.998 -380.992c-7.33301 -26.667 -1.33301 -40 18 -40c6.66699 0 18.167 2.83301 34.5 8.5s38.166 17.5 65.499 35.5s60.166 43.833 98.499 77.5s82.833 78.834 133.5 135.501c60 -49.333 97.333 -112 112 -188s10 -162 -14 -258
c-16 -66 -42 -126.167 -78 -180.5s-79.333 -101.166 -130 -140.499s-107.5 -69.833 -170.5 -91.5s-129.5 -32.5 -199.5 -32.5c-46.667 0 -91.334 3.83301 -134.001 11.5s-82.5 20 -119.5 37s-70.833 39 -101.5 66s-57.334 59.5 -80.001 97.5
c-22.667 38.667 -41.334 83.334 -56.001 134.001s-24.667 108.167 -30 172.5s-5.5 136.166 -0.5 215.499s16.167 167 33.5 263l28.5 -26l27.5 -25c-7.33301 -112 -7.83301 -208.833 -1.5 -290.5s18.333 -151.834 36 -210.501s40.167 -107.834 67.5 -147.501
s59 -73.167 95 -100.5l8 7c-23.333 33.333 -43.666 71.166 -60.999 113.499s-30.166 94 -38.499 155s-11.333 134 -9 219s11.5 186.833 27.5 305.5l31 -26l30 -25c-7.33301 -136 -6.16602 -249 3.50098 -339s28 -161.667 55 -215s63 -90.833 108 -112.5
s99.167 -32.5 162.5 -32.5c48 0 95.5 8.83301 142.5 26.5s90.167 40.167 129.5 67.5s72.666 58 99.999 92s45 67.333 53 100c13.333 50 6.66602 87.667 -20.001 113c-70 -70.667 -137.667 -124 -203 -160c-64.667 -33.333 -116.334 -50 -155.001 -50
c-14.667 0 -28.667 2 -42 6s-25 9.66699 -35 17c-20 15.333 -39.667 48 -59 98c-3.33301 11.333 -6.16602 25.166 -8.49902 41.499s-4.16602 33.166 -5.49902 50.499c0 19.333 0.833008 37.333 2.5 54s4.16699 31.667 7.5 45l77 307h-591l-109 144h1172
c11.333 8.66699 22.5 20.667 33.5 36s18.167 29.333 21.5 42c6 24 0.666992 44 -16 60c-15.333 15.333 -57 23 -125 23c-20 0 -48.333 -1 -85 -3s-76 -4 -118 -6c-46.667 -2.66699 -92.5 -5 -137.5 -7s-82.167 -3 -111.5 -3c-154.667 0 -258 25 -310 75
c-50 50 -64 120 -42 210c9.33301 36 22.333 66.5 39 91.5s35.667 46.167 57 63.5c8.66699 -5.33301 17 -10.833 25 -16.5s16.333 -11.167 25 -16.5c-20 -15.333 -36.5 -31.833 -49.5 -49.5s-21.167 -34.167 -24.5 -49.5c-9.33301 -37.333 0.5 -66.833 29.5 -88.5
s81.5 -32.5 157.5 -32.5c14 0 32.5 0.666992 55.5 2s48.167 3 75.5 5c13.333 1.33301 27.166 2.16602 41.499 2.49902s28.5 1.16602 42.5 2.49902c12.667 1.33301 25.667 2.16602 39 2.49902s26 1.16602 38 2.49902c26.667 1.33301 50.334 2.66602 71.001 3.99902
s34.667 2 42 2c74 0 135.833 -7.83301 185.5 -23.5s88.834 -38.5 117.501 -68.5s48 -66.833 58 -110.5s12.667 -93.5 8 -149.5h110l53 -72l54 -72h-673z" />
    <glyph glyph-name="uni098B" unicode="&#x98b;" horiz-adv-x="1407" 
d="M1260 142c0 36 -4.17188 71.6709 -12.5049 107.004s-20.166 68.666 -35.499 99.999c-16.667 32 -36 61.167 -58 87.5s-46 48.166 -72 65.499l-140 -560l-23 29l-23 29h1c-6 56.667 -18.667 110.667 -38 162s-46.333 96.333 -81 135s-76.667 69.667 -126 93
s-107 35.666 -173 36.999l-65 112.5l-65 112.5c18 10.667 38.833 22.334 62.5 35.001l75 39.5l82.5 42l86 42.5l85 41.5l81.5 38.5l74.5 33c23.333 10 44.666 18 63.999 24c-28 46 -64 69 -108 69c-10.667 0 -25.334 -3.66699 -44.001 -11l-64 -26l-63.5 -25.5
c-22.333 -9 -45.166 -17.333 -68.499 -25s-46.666 -13.834 -69.999 -18.501s-45.666 -7 -66.999 -7c-62.667 0 -108.667 17.333 -138 52c-28 35.333 -35.667 79 -23 131c4.66699 20 12.5 38.667 23.5 56s24 32.5 39 45.5s31.833 23.333 50.5 31s38 11.5 58 11.5
c21.333 0 40.333 -7.33301 57 -22s28.334 -37.667 35.001 -69c1.33301 -27.333 10.333 -41 27 -41s43.667 11 81 33c18.667 11.333 41.334 27.5 68.001 48.5s59 48.5 97 82.5c14.667 -13.333 31.167 -31.833 49.5 -55.5s36.333 -49.5 54 -77.5s33.834 -56.833 48.501 -86.5
s25.667 -56.834 33 -81.501h14l110 438c4.66699 -6 12 -16 22 -30l32.5 -44.5l33 -44l22.5 -29.5l-151 -604c25.333 -22 46.333 -48.333 63 -79c9.33301 -15.333 18.5 -33 27.5 -53s18.167 -43 27.5 -69h9l238 953l54 -71.5l54 -71.5l-290 -1164zM889.995 268.004
c0.666992 23.333 3 46.833 7 70.5s9 48.5 15 74.5l87 349l-101.5 -44.5l-105.5 -48.5l-101 -49.5l-85 -42.5c60.667 -12 113 -41.667 157 -89c44 -46 85 -122.667 123 -230z" />
    <glyph glyph-name="uni098C" unicode="&#x98c;" horiz-adv-x="1003" 
d="M577 1095c-7.33301 -12.667 -14.1729 -23.8311 -20.5059 -33.498s-12.5 -17.5 -18.5 -23.5c22.667 -15.333 54.334 -32.333 95.001 -51s87 -36.667 139 -54c250 -87.333 347.333 -241.666 292 -462.999c-14 -56 -34 -106.333 -60 -151s-59.333 -83.667 -100 -117
s-88.834 -61 -144.501 -83s-120.5 -38.333 -194.5 -49c11.333 21.333 19.5 39.166 24.5 53.499s9.16699 28.166 12.5 41.499c12.667 51.333 19.334 98.5 20.001 141.5s-5.66602 81.5 -18.999 115.5c-12.667 32.667 -28 57 -46 73s-40.667 24 -68 24
c-18.667 0 -36.667 -4 -54 -12s-33.166 -19.333 -47.499 -34s-27 -32 -38 -52s-19.5 -42.333 -25.5 -67c-10 -37.333 -9.33301 -70 2 -98c13.333 8 28 14.167 44 18.5s30.667 6.5 44 6.5c16.667 0 31.167 -3.5 43.5 -10.5s22 -16.167 29 -27.5s11.333 -24.5 13 -39.5
s0.5 -30.833 -3.5 -47.5c-9.33301 -36.667 -30.666 -66.834 -63.999 -90.501s-73 -35.5 -119 -35.5c-28.667 0 -53.667 6.83301 -75 20.5s-38 32.667 -50 57s-19.167 53.166 -21.5 86.499s1.5 70 11.5 110c22 86.667 71 163.667 147 231c74.667 66.667 155 100 241 100
c37.333 0 71.166 -9.33301 101.499 -28s56.833 -45 79.5 -79c18 -32.667 30.333 -72.167 37 -118.5s4.66699 -95.833 -6 -148.5c46 12.667 85.167 34 117.5 64s53.833 66.667 64.5 110c6.66699 26.667 5.83398 54.834 -2.49902 84.501s-23.166 59 -44.499 88
s-48.666 57 -81.999 84s-72 51.5 -116 73.5c-74.667 33.333 -140.667 65.5 -198 96.5s-100 58.5 -128 82.5c-54.667 52.667 -74.334 109 -59.001 169c9.33301 36 28.5 63.167 57.5 81.5s62.5 27.5 100.5 27.5c36 0 62.333 -11.167 79 -33.5s20.334 -51.5 11.001 -87.5z" />
    <glyph glyph-name="uni098F" unicode="&#x98f;" horiz-adv-x="1288" 
d="M1076 2c1.33301 31.333 -0.329102 60.834 -4.99609 88.501s-11.667 50.167 -21 67.5c-22.667 37.333 -67.667 56 -135 56c-82.667 0 -156.334 -5.66699 -221.001 -17c-62 -12 -117.333 -18 -166 -18c-60 0 -114.5 7.83301 -163.5 23.5s-89.167 40.667 -120.5 75
s-52 78.333 -62 132s-5.33301 118.5 14 194.5c12.667 52 36.334 110 71.001 174c17.333 30.667 35.333 58.667 54 84s38.667 48.666 60 69.999l20 -23l20 -23c-16 -16.667 -30 -33 -42 -49s-22.5 -32.667 -31.5 -50s-17 -35.333 -24 -54s-13.167 -38.667 -18.5 -60
c-10 -39.333 -13.5 -76 -10.5 -110s13.833 -63.667 32.5 -89s46.334 -45.333 83.001 -60s84 -22 142 -22c17.333 0 36 0.333008 56 1s42 1.66699 66 3c24 2 46.5 3.33301 67.5 4s41.167 1 60.5 1c30 0 58.167 -2.66699 84.5 -8s49.166 -13.666 68.499 -24.999
c43.333 -23.333 82.666 -67.666 117.999 -132.999l3 10c0.666992 13.333 1.33398 25.666 2.00098 36.999s1.66699 22.666 3 33.999s3.16602 23.166 5.49902 35.499s5.5 26.5 9.5 42.5l168 674c5.33301 20.667 6.5 33.667 3.5 39s-9.5 8 -19.5 8
c-19.333 0 -50.666 -11.333 -93.999 -34c-20.667 -11.333 -42.5 -24.166 -65.5 -38.499l-72.5 -47.5c-32.667 -25.333 -59.167 -46.666 -79.5 -63.999s-36.666 -32.833 -48.999 -46.5s-21.5 -26.5 -27.5 -38.5s-10.667 -24.667 -14 -38l33 5
c7.33301 2 13.166 3.33301 17.499 4s9.16602 1 14.499 1c36 0 62 -11.833 78 -35.5s18.667 -56.5 8 -98.5c-10 -41.333 -37 -79.333 -81 -114c-44 -34 -97 -51 -159 -51c-67.333 0 -116.333 23 -147 69c-31.333 43.333 -37.333 105 -18 185c9.33301 37.333 23.5 73 42.5 107
s42.5 65.667 70.5 95c28 30 57.333 58.5 88 85.5s62 51.5 94 73.5c33.333 22 66.333 42.167 99 60.5s63.667 33.166 93 44.499c62 24.667 108.333 37 139 37c19.333 0 40.166 -5.5 62.499 -16.5s46.166 -29.167 71.499 -54.5c14.667 -16 26.667 -32.333 36 -49
s15.666 -33.667 18.999 -51s3.5 -38.5 0.5 -63.5s-8.5 -53.5 -16.5 -85.5l-256 -1026z" />
    <glyph glyph-name="uni0990" unicode="&#x990;" horiz-adv-x="1398" 
d="M1633 1160c-21.333 -86 -57.3213 -157.33 -107.988 -213.997c-50.667 -57.333 -106.334 -94.666 -167.001 -111.999l-225 -904l-29.5 36l-29.5 36c1.33301 30.667 -0.333984 60 -5.00098 88s-11.667 50.667 -21 68c-23.333 37.333 -68.333 56 -135 56
c-82.667 0 -156.334 -5.66699 -221.001 -17c-62 -12 -117.667 -18 -167 -18c-60 0 -114.5 7.83301 -163.5 23.5s-89.167 40.667 -120.5 75s-52 78.333 -62 132s-5.33301 118.5 14 194.5c6.66699 25.333 16.167 52.666 28.5 81.999s26.833 60 43.5 92
c17.333 30.667 35.166 58.667 53.499 84s38.166 48.666 59.499 69.999c7.33301 -8 13.833 -15.667 19.5 -23s12.167 -15 19.5 -23c-30.667 -32.667 -55 -65.667 -73 -99s-32.333 -71.333 -43 -114c-10 -39.333 -13.5 -76 -10.5 -110s13.833 -63.667 32.5 -89
s46.5 -45.333 83.5 -60s84.5 -22 142.5 -22c16.667 0 35.167 0.333008 55.5 1s42.833 1.66699 67.5 3c24 2 46.5 3.33301 67.5 4s41.167 1 60.5 1c30 0 57.667 -2.66699 83 -8s48.666 -13.666 69.999 -24.999c40.667 -22 79.667 -66.333 117 -133l3 10
c0 5.33301 0.5 11 1.5 17s1.5 11.333 1.5 16c1.33301 17.333 3.16602 34.833 5.49902 52.5s6.5 38.834 12.5 63.501l168 674c5.33301 20.667 6.5 33.667 3.5 39s-9.5 8 -19.5 8c-18.667 0 -50.334 -11.333 -95.001 -34c-38.667 -20.667 -84.334 -49.334 -137.001 -86.001
l-80 -64c-20.667 -17.333 -37.167 -32.833 -49.5 -46.5s-21.5 -26.334 -27.5 -38.001s-10.667 -24.5 -14 -38.5l33 5c7.33301 2 13.5 3.33301 18.5 4s9.5 1 13.5 1c35.333 0 61.333 -11.833 78 -35.5s19.667 -56.5 9 -98.5c-10.667 -42.667 -38.334 -80.667 -83.001 -114
c-45.333 -34 -98 -51 -158 -51c-32.667 0 -61.667 6 -87 18s-45.666 29 -60.999 51c-30 46 -35.333 107.667 -16 185c19.333 76.667 56.666 144 111.999 202c28 30.667 57.167 59.334 87.5 86.001s62.166 51 95.499 73c64.667 44.667 128.667 79.667 192 105
c63.333 24.667 109.333 37 138 37c21.333 0 42.833 -5.16699 64.5 -15.5s44.167 -28.833 67.5 -55.5c12.667 -13.333 23.334 -26.5 32.001 -39.5s15.334 -26.833 20.001 -41.5s7.16699 -30.834 7.5 -48.501s-1.5 -37.5 -5.5 -59.5c41.333 0 74 12.5 98 37.5
s40.667 56.5 50 94.5c8 30.667 9.16699 58.667 3.5 84s-21.334 48.666 -47.001 69.999s-63 41 -112 59s-113.5 35.333 -193.5 52c-152.667 28.667 -254.334 75 -305.001 139c-52 62.667 -68 134.667 -48 216c11.333 45.333 34.333 85.833 69 121.5s78 63.5 130 83.5
c8 -8 15.667 -16.167 23 -24.5s15 -16.5 23 -24.5c-47.333 -13.333 -83.666 -31.833 -108.999 -55.5s-41 -47.167 -47 -70.5c-3.33301 -14 -2.83301 -28.5 1.5 -43.5s16.5 -30 36.5 -45s50 -29.667 90 -44s94 -27.5 162 -39.5c94.667 -18 171.5 -43.667 230.5 -77
s103.667 -71 134 -113s48.166 -86.833 53.499 -134.5s1.66602 -94.834 -11.001 -141.501z" />
    <glyph glyph-name="uni0993" unicode="&#x993;" horiz-adv-x="1284" 
d="M1304 421c-11.333 -44 -29.4961 -86.0029 -54.4961 -126.003s-56 -75.167 -93 -105.5s-79.333 -54.333 -127 -72s-99.167 -26.5 -154.5 -26.5c-93.333 0 -174.666 23.667 -243.999 71s-128 115 -176 203s-85.833 194.333 -113.5 319s-45.834 264.334 -54.501 419.001
l38 -29l38 -30c20.667 -128 49.667 -236.333 87 -325s80.166 -160.834 128.499 -216.501s101.166 -95.834 158.499 -120.501s116.666 -37 177.999 -37c89.333 0 160 18 212 54c54 38 86.333 78.333 97 121c10.667 41.333 -4 76.333 -44 105
c-44.667 -37.333 -88.667 -56 -132 -56c-46.667 0 -81.334 15.333 -104.001 46c-23.333 29.333 -29.333 66.666 -18 111.999c12.667 52.667 38.334 93.334 77.001 122.001c38.667 29.333 79 44 121 44c11.333 0 23.5 -1.83301 36.5 -5.5s25.833 -8.16699 38.5 -13.5
c13.333 10.667 25.166 21.834 35.499 33.501s20.5 25.167 30.5 40.5c10.667 15.333 19 29.5 25 42.5s10.333 24.5 13 34.5c8 32.667 4.16699 57.334 -11.5 74.001s-40.5 25 -74.5 25c-29.333 0 -62.666 -6.16699 -99.999 -18.5s-74.5 -28.166 -111.5 -47.499
s-72 -41.166 -105 -65.499s-59.5 -48.5 -79.5 -72.5c17.333 -10 29.333 -26.167 36 -48.5s7.33398 -45.166 2.00098 -68.499c-10 -40.667 -31 -74.167 -63 -100.5s-71.667 -39.5 -119 -39.5c-50.667 0 -89 17 -115 51c-26.667 35.333 -32 84.666 -16 147.999
c12 46.667 36.167 93 72.5 139s81.666 87.333 135.999 124s115.5 66.334 183.5 89.001s139.333 34 214 34c95.333 0 165 -27.667 209 -83s54 -132 30 -230c-9.33301 -36.667 -26 -77.334 -50 -122.001c-12.667 -24 -25 -46 -37 -66s-24.667 -37.667 -38 -53
c12.667 -16.667 22.667 -36 30 -58s12.666 -46.667 15.999 -74c6 -51.333 3.33301 -98.333 -8 -141z" />
    <glyph glyph-name="uni0994" unicode="&#x994;" horiz-adv-x="1364" 
d="M1573 1151c-10.667 -44 -27.4941 -88.8359 -50.4941 -134.503s-48.667 -89.167 -77 -130.5s-58 -79.666 -89 -114.999s-59.833 -64.333 -86.5 -87c22.667 -32 37.334 -70.333 44.001 -115s3.33398 -94 -9.99902 -148c-11.333 -44 -29.5 -86 -54.5 -126
s-56 -75.167 -93 -105.5s-79.333 -54.333 -127 -72s-99.167 -26.5 -154.5 -26.5c-93.333 0 -174.833 23.667 -244.5 71s-128.5 115 -176.5 203s-85.667 194.333 -113 319s-45.333 264.334 -54 419.001l38 -29l38 -30c20.667 -128 49.667 -236.333 87 -325
s80.166 -160.834 128.499 -216.501s101.166 -95.834 158.499 -120.501s116.666 -37 177.999 -37c89.333 0 160 18 212 54c54 38 86.333 78.333 97 121c10.667 41.333 -4 76.333 -44 105c-44.667 -37.333 -88.667 -56 -132 -56c-46.667 0 -81.667 15.333 -105 46
c-22.667 29.333 -28.334 66.666 -17.001 111.999c12.667 52.667 38 93.334 76 122.001c39.333 29.333 80 44 122 44c11.333 0 23.5 -1.83301 36.5 -5.5s25.833 -8.16699 38.5 -13.5c13.333 10.667 25.166 21.834 35.499 33.501s20.5 25.167 30.5 40.5
c10.667 15.333 19 29.5 25 42.5s10.333 24.5 13 34.5c8 32.667 4.16699 57.334 -11.5 74.001s-40.5 25 -74.5 25c-29.333 0 -62.666 -6.16699 -99.999 -18.5s-74.5 -28.166 -111.5 -47.499s-72 -41.166 -105 -65.499s-59.5 -48.5 -79.5 -72.5
c17.333 -10 29.333 -26.167 36 -48.5s7.33398 -45.166 2.00098 -68.499c-10 -40.667 -31 -74.167 -63 -100.5s-71.667 -39.5 -119 -39.5c-50.667 0 -89 17 -115 51c-26.667 35.333 -32 84.666 -16 147.999c12 46.667 36.167 93 72.5 139s81.666 87.333 135.999 124
s115.5 66.334 183.5 89.001s139.333 34 214 34c52.667 0.666992 95.5 -6.83301 128.5 -22.5s58.167 -35.834 75.5 -60.501s27.666 -52.167 30.999 -82.5s1.33301 -59.833 -6 -88.5c-2 -9.33301 -6 -23.166 -12 -41.499s-13.667 -34.166 -23 -47.499l6 -2
c17.333 14.667 33.166 31.334 47.499 50.001s27.833 39.667 40.5 63c23.333 48.667 39.333 90.334 48 125.001c6.66699 31.333 6.16699 59.166 -1.5 83.499s-25.167 46.5 -52.5 66.5s-66.5 38.667 -117.5 56s-116.833 34.666 -197.5 51.999
c-152 29.333 -253.333 75.666 -304 138.999c-51.333 62.667 -66.666 134.334 -45.999 215.001c11.333 47.333 33.666 88.666 66.999 123.999s77.666 63.333 132.999 84l23 -24.5c7.33301 -7.66699 14.666 -15.834 21.999 -24.501c-24 -6 -45 -14 -63 -24
s-33.5 -20.667 -46.5 -32s-23.5 -23.333 -31.5 -36s-13.333 -24.667 -16 -36c-3.33301 -12.667 -3.16602 -26.834 0.500977 -42.501s15.167 -31.5 34.5 -47.5s48.666 -31.167 87.999 -45.5s93.333 -26.833 162 -37.5c96 -18 175 -42.333 237 -73s109.5 -66 142.5 -106
s53 -83.833 60 -131.5s4.16699 -97.5 -8.5 -149.5z" />
    <glyph glyph-name="uni0995" unicode="&#x995;" horiz-adv-x="1333" 
d="M1103 1115l-22.998 -89.9961c53.333 0 103.333 -10.167 150 -30.5s85.5 -49.333 116.5 -87s52.333 -83.5 64 -137.5s9.16699 -114.667 -7.5 -182c-8.66699 -34.667 -21.5 -67.5 -38.5 -98.5s-37.167 -60.167 -60.5 -87.5c-23.333 -24.667 -49.333 -43.667 -78 -57
s-58 -20 -88 -20c-40 0 -72 13.333 -96 40c-24 26 -30.667 60.333 -20 103c8.66699 35.333 29.667 69 63 101c32 30 66 45 102 45c12.667 0 25.334 -2.16699 38.001 -6.5s24.167 -10 34.5 -17s19.166 -15.333 26.499 -25s12.333 -19.834 15 -30.501
c7.33301 4 13.666 10.167 18.999 18.5s9.33301 17.5 12 27.5c6.66699 28 4.5 56.333 -6.5 85s-29.667 54.5 -56 77.5s-59.833 41.833 -100.5 56.5s-87.334 22 -140.001 22l-219 -879c-8 9.33301 -16 17.666 -24 24.999s-16 15.666 -24 24.999c0 16 -1.5 34.167 -4.5 54.5
s-7.83301 41.166 -14.5 62.499s-15 43.166 -25 65.499s-22.333 43.5 -37 63.5c-40.667 58.667 -91.5 105.834 -152.5 141.501s-135.5 57.5 -223.5 65.5l-65 117l-64 117l230.5 136c71 40 137.333 74.167 199 102.5s119 51.333 172 69s102.833 29.5 149.5 35.5l23 92h-675
l-55.5 72l-54.5 72h1447l110 -144h-619zM756.002 244.004c1.33301 28.667 2.66602 55.1689 3.99902 79.502s3.66602 43.833 6.99902 58.5l103 416c-18.667 -2.66699 -40 -7.83398 -64 -15.501s-49.333 -16.834 -76 -27.501s-53.667 -22.5 -81 -35.5
s-53.333 -26.167 -78 -39.5l-69 -38.5c-21.333 -12.333 -39 -23.5 -53 -33.5c36.667 -15.333 69.334 -32.5 98.001 -51.5s54.834 -42.5 78.501 -70.5s45.5 -61.833 65.5 -101.5s39.667 -87.5 59 -143.5z" />
    <glyph glyph-name="uni0996" unicode="&#x996;" horiz-adv-x="1213" 
d="M1400 1115c-30.667 0 -51.6729 7.66992 -63.0059 23.0029l-299 -1201l-22.5 31.5c-7 9.66699 -14.167 20.167 -21.5 31.5h1c-4.66699 54.667 -18.5 107.667 -41.5 159s-55.667 97.666 -98 138.999s-94.5 75.666 -156.5 102.999s-134.333 44.666 -217 51.999l-77.5 140
l-79.5 140c26.667 -3.33301 48.834 -5.5 66.501 -6.5s32.5 -1.5 44.5 -1.5c76.667 0 145.5 9.5 206.5 28.5s113.167 41.5 156.5 67.5s77.5 52.667 102.5 80s39.5 49.666 43.5 66.999c4 16.667 3.16699 30.167 -2.5 40.5s-13.5 15.5 -23.5 15.5
c-6.66699 0 -17 -3.33301 -31 -10s-30.667 -15.334 -50 -26.001l-76 -38c-28.667 -14 -59 -27.167 -91 -39.5s-65.333 -22.666 -100 -30.999s-69.334 -12.5 -104.001 -12.5c-28 0 -53.333 3.5 -76 10.5s-42 17.833 -58 32.5c-30.667 30.667 -39 74.334 -25 131.001
c11.333 46 32.833 83.333 64.5 112s70.834 43 117.501 43c25.333 0 46.333 -8.33301 63 -25s25 -39 25 -67c0 -16 1.5 -27.167 4.5 -33.5s7.83301 -9.5 14.5 -9.5c14 0 33.667 8 59 24c13.333 8.66699 27.333 18.5 42 29.5s30.834 23.833 48.501 38.5l59.5 50l75 65
c34 -21.333 63.5 -46.333 88.5 -75s44.5 -60 58.5 -94c12.667 -35.333 20.5 -71.333 23.5 -108s0.166992 -72.667 -8.5 -108c-9.33301 -36.667 -23.666 -71 -42.999 -103s-42.833 -60.833 -70.5 -86.5s-58.834 -47.5 -93.501 -65.5s-72 -31.333 -112 -40l-2 -4
c26.667 -8.66699 52.834 -22.834 78.501 -42.501s49.5 -43.167 71.5 -70.5s42 -57.666 60 -90.999s32.667 -68 44 -104l5 1c0.666992 8.66699 2.33398 20.834 5.00098 36.501l9 51l10.5 55c3.66699 18.333 7.5 35.166 11.5 50.499l258 1038l33 -37l33 -37
c-7.33301 -62 -4.66602 -106.667 8.00098 -134s34.334 -41 65.001 -41h25l109 -144h-148z" />
    <glyph glyph-name="uni0997" unicode="&#x997;" horiz-adv-x="1137" 
d="M1331 1115c-34 0 -55.333 13.0049 -64 39.0049l-306 -1228l-59 74.5l-60 74.5l171 621c12 48.667 14.333 96 7 142s-22.333 86.833 -45 122.5s-52.167 64.167 -88.5 85.5s-77.166 31.666 -122.499 30.999c-64.667 0 -121.334 -15.5 -170.001 -46.5
s-83.667 -72.5 -105 -124.5c30.667 8.66699 58.334 14.167 83.001 16.5s45 3.5 61 3.5c82 0 136.167 -24.5 162.5 -73.5s28.833 -116.833 7.5 -203.5c-15.333 -61.333 -48 -127.833 -98 -199.5s-119.667 -148.834 -209 -231.501l-80.5 94.5l-80.5 94.5
c54 36.667 103 73.5 147 110.5s82 71.833 114 104.5s57.333 62 76 88s29.667 46 33 60c4 15.333 2.5 27.833 -4.5 37.5s-17.167 14.5 -30.5 14.5c-14 0 -28.833 -2 -44.5 -6s-31.667 -9.5 -48 -16.5s-32.5 -14.833 -48.5 -23.5s-31 -17.667 -45 -27
c-29.333 -19.333 -53.5 -34.5 -72.5 -45.5s-34.167 -19.333 -45.5 -25s-20 -9.33398 -26 -11.001s-11 -2.5 -15 -2.5c-30.667 0 -54 20.333 -70 61c-8.66699 20 -12.5 44.833 -11.5 74.5s5.5 61.167 13.5 94.5c14 46.667 37 92.5 69 137.5s69.167 85.167 111.5 120.5
s88.166 63.666 137.499 84.999s99 31.666 149 30.999c54 0 101.167 -7.66699 141.5 -23s75.833 -38 106.5 -68c58 -60.667 98.333 -160 121 -298l4 2c-1.33301 17.333 -0.833008 39.333 1.5 66s5.16602 53.5 8.49902 80.5s6.83301 52 10.5 75s6.83398 39.5 9.50098 49.5
l86 347l28 -34l28 -34c-8.66699 -58 -5.66699 -101.333 9 -130s37 -43 67 -43h33l108 -144h-155z" />
    <glyph glyph-name="uni0998" unicode="&#x998;" horiz-adv-x="1097" 
d="M1218 1115l-293.999 -1178l-46 61h1c-4 46.667 -16.5 92.334 -37.5 137.001s-49 84.5 -84 119.5s-76.167 63.167 -123.5 84.5s-99.333 31.666 -156 30.999c-11.333 0 -23.333 -0.333008 -36 -1s-26 -2 -40 -4l-66.5 94.5l-66.5 93.5l309 231h-8
c-19.333 -4.66699 -37.333 -7 -54 -7h-36c-80.667 0 -137.334 22 -170.001 66c-34.667 44.667 -43.667 99.667 -27 165c4 15.333 10.5 32.166 19.5 50.499s21.167 37.166 36.5 56.499h-74l-52 72l-52 72h1172l110 -144h-225zM865.001 224.002
c0.666992 34 3.66699 69.8311 9 107.498s12 72.834 20 105.501l170 678h-248c-91.333 0 -158.333 -15.333 -201 -46v1c-41.333 -29.333 -67.666 -65.666 -78.999 -108.999c-8 -32 -4.5 -58 10.5 -78s41.167 -30 78.5 -30c10 0 22 2.33301 36 7s28.833 10.5 44.5 17.5
s31 14.833 46 23.5s28.5 17 40.5 25l58 -76l58 -75l-336 -245c23.333 -4 48.5 -13.5 75.5 -28.5s53.5 -35.167 79.5 -60.5s50.667 -56 74 -92s42.666 -77.333 57.999 -124z" />
    <glyph glyph-name="uni0999" unicode="&#x999;" horiz-adv-x="1189" 
d="M1214 387c-12 -48 -30.1621 -94 -54.4951 -138s-55.5 -83 -93.5 -117s-82.833 -61.167 -134.5 -81.5s-110.834 -30.5 -177.501 -30.5c-50 0 -97.667 8 -143 24s-86.833 41.167 -124.5 75.5s-70.5 78.5 -98.5 132.5s-49.333 119 -64 195s-22 164 -22 264
s9.33301 212.667 28 338l28.5 -25l29.5 -25c-8 -252 21.5 -437.833 88.5 -557.5s169.833 -179.5 308.5 -179.5c49.333 0 94.5 6.5 135.5 19.5s76.833 29.833 107.5 50.5s55.667 43.334 75 68.001s32 48.667 38 72c5.33301 22 4.66602 43.833 -2.00098 65.5
s-14.667 39.167 -24 52.5c-46 -36 -86 -65.333 -120 -88s-64 -40.5 -90 -53.5s-49.167 -21.833 -69.5 -26.5s-40.5 -7 -60.5 -7c-48 0 -89.667 23.333 -125 70c-17.333 20.667 -31 40.167 -41 58.5s-16.667 39 -20 62s-3 49.833 1 80.5s11.667 68.334 23 113.001
c4.66699 18 10.667 39.167 18 63.5s15.666 47.5 24.999 69.5c-55.333 32.667 -109 76 -161 130c-25.333 25.333 -47.5 51.166 -66.5 77.499s-34.833 54.166 -47.5 83.499l118 25c39.333 8 78 16.333 116 25c0.666992 -21.333 2.83398 -43.666 6.50098 -66.999
s9.16699 -46 16.5 -68s16.166 -43 26.499 -63s21.166 -37 32.499 -51c42.667 82.667 95 147.334 157 194.001c64 48 131.667 72 203 72c34 0 63.333 -5.83301 88 -17.5s44.334 -26.834 59.001 -45.501s24.167 -40.167 28.5 -64.5s3.5 -48.833 -2.5 -73.5
c-6.66699 -27.333 -19 -54.166 -37 -80.499s-40.5 -50 -67.5 -71s-58 -38 -93 -51s-73.5 -19.5 -115.5 -19.5c-20 0 -41 1.5 -63 4.5s-42.667 6.83301 -62 11.5c-7.33301 -20.667 -14 -41.334 -20 -62.001s-11 -39 -15 -55c-8.66699 -36 -15 -64.5 -19 -85.5
s-5.33301 -37 -4 -48s5.16602 -18 11.499 -21s15.166 -4.5 26.499 -4.5c13.333 0 29.666 3.66699 48.999 11s41.833 19.166 67.5 35.499s54.5 37.833 86.5 64.5s67 59.667 105 99c72.667 -52 118.834 -114 138.501 -186s18.167 -153.333 -4.5 -244zM1123 1078
c3.33301 12.667 -0.665039 24.667 -11.998 36s-29 17 -53 17c-21.333 0 -43.333 -4 -66 -12s-45.334 -19.333 -68.001 -34c-46.667 -31.333 -79.334 -71.666 -98.001 -120.999c91.333 0 162.333 11.667 213 35c49.333 23.333 77.333 49.666 84 78.999z" />
    <glyph glyph-name="uni099A" unicode="&#x99a;" horiz-adv-x="940" 
d="M556 1115c-2 -35.333 3.33008 -67.332 15.9971 -95.999s30 -53.334 52 -74.001c23.333 -20.667 50.333 -37.167 81 -49.5s64 -20.166 100 -23.499c29.333 -4 58 -12.333 86 -25s52.167 -29.5 72.5 -50.5s35 -46 44 -75s9.16699 -61.833 0.5 -98.5
c-18 -70.667 -53.667 -142 -107 -214c-52.667 -72.667 -112 -136.334 -178 -191.001c-32 -28 -64.667 -53.333 -98 -76s-67 -43 -101 -61c-33.333 -16.667 -63.666 -29.334 -90.999 -38.001s-51.666 -13 -72.999 -13c-28 0 -51.667 7.83301 -71 23.5
s-36.333 36.834 -51 63.501c-7.33301 14 -14.166 29.167 -20.499 45.5s-11.5 33.833 -15.5 52.5s-6.16699 38 -6.5 58s2.16699 40.667 7.5 62l195 780h-133v-1l-56 72.5l-56 72.5h1031l108 -144h-736zM782.997 588.001c5.33301 19.333 2.66504 35.667 -8.00195 49
s-26.667 22.666 -48 27.999c-22 6.66699 -44.333 18.834 -67 36.501s-43.5 39.834 -62.5 66.501s-34.833 57.334 -47.5 92.001s-20 73 -22 115l-5 -1l-189 -748c-6 -24.667 0.333008 -37 19 -37c15.333 0 34.333 5.66699 57 17c46.667 26.667 91.667 58.167 135 94.5
s81.833 72.666 115.5 108.999s61.334 70.666 83.001 102.999s34.834 57.5 39.501 75.5z" />
    <glyph glyph-name="uni099B" unicode="&#x99b;" horiz-adv-x="1132" 
d="M1136 -232c-66 76.667 -132.164 138 -198.497 184s-133.5 82 -201.5 108s-137.667 44.167 -209 54.5s-145 17.833 -221 22.5l-41.5 130.5l-41.5 130.5c36.667 -18 76.334 -31.333 119.001 -40s83 -13 121 -13c43.333 0 86.666 5 129.999 15s85.333 23.667 126 41
s79.167 37.333 115.5 60s68.666 46.334 96.999 71.001s51.833 50 70.5 76s31 50.667 37 74c10 40.667 6.16699 72.167 -11.5 94.5s-43.834 33.5 -78.501 33.5c-8 0 -17.667 -0.666992 -29 -2s-26 -4 -44 -8c2.66699 -17.333 2.33398 -32 -0.999023 -44
c-6 -24.667 -18.167 -49.667 -36.5 -75s-40.333 -49.833 -66 -73.5s-54 -45.834 -85 -66.501s-62.333 -38.667 -94 -54s-62.667 -27.5 -93 -36.5s-57.5 -13.5 -81.5 -13.5c-10 0 -19.167 0.5 -27.5 1.5s-17 3.66699 -26 8s-18.667 11 -29 20s-22.5 21.5 -36.5 37.5
c-28 31.333 -43.5 63.333 -46.5 96s-0.166992 66.334 8.5 101.001l104 414h-102l-51 72l-50 72h1256l53 -72l54 -72h-1022c2 -20 9.16699 -39 21.5 -57s29.166 -33.5 50.499 -46.5s47.166 -23.333 77.499 -31s64.5 -11.5 102.5 -11.5h167c22 0 42.167 -3.16699 60.5 -9.5
s35.5 -16.5 51.5 -30.5s31.667 -32.167 47 -54.5s31.333 -49.5 48 -81.5c18 -36.667 28.333 -74.667 31 -114s-0.666016 -78.333 -9.99902 -117c-12 -47.333 -32.333 -89.5 -61 -126.5s-63 -68.833 -103 -95.5s-84 -48.334 -132 -65.001s-97.333 -28.334 -148 -35.001l-2 -4
c37.333 -15.333 74.5 -32.666 111.5 -51.999s73.667 -43 110 -71s72.666 -61.167 108.999 -99.5s72.5 -83.5 108.5 -135.5l-1 1zM679.003 775c1.33301 7.33301 2.16504 13.498 2.49805 18.498s0.5 10.5 0.5 16.5c-23.333 4 -44.666 10.333 -63.999 19s-37 21 -53 37
s-30.333 36.833 -43 62.5s-24 57.5 -34 95.5l-4 -1l-4.5 -37.5c-1.66699 -13.667 -3.5 -27.5 -5.5 -41.5s-4 -27.167 -6 -39.5s-4 -22.5 -6 -30.5l-59 -239c-6 -23.333 -7.66699 -38.5 -5 -45.5s11.334 -10.5 26.001 -10.5c12 0 26.333 3.33301 43 10s34 15.334 52 26.001
s36 23 54 37s34.333 28.333 49 43s27.167 28.834 37.5 42.501s16.833 26.167 19.5 37.5z" />
    <glyph glyph-name="uni099C" unicode="&#x99c;" horiz-adv-x="1483" 
d="M1103 1115c-18.667 -6.66699 -38.4951 -14.832 -59.4951 -24.499l-57.5 -26.5c5.33301 -22.667 15.166 -42 29.499 -58s31.5 -29 51.5 -39s41.5 -17.333 64.5 -22s45.5 -7 67.5 -7c24.667 0 46.667 1 66 3s37 4.83301 53 8.5s31 8 45 13s28.333 10.5 43 16.5
c11.333 4.66699 23.666 9.5 36.999 14.5l43 15.5l10.5 -15.5l27 -40l35.5 -53.5l36.5 -55l30.5 -45.5c8.66699 -13 14 -21.5 16 -25.5c-47.333 -34.667 -92 -71.334 -134 -110.001s-80.167 -79.5 -114.5 -122.5s-64.166 -88.333 -89.499 -136s-44.333 -97.834 -57 -150.501
c-6 -25.333 -11.5 -51.333 -16.5 -78s-9.33301 -54.5 -13 -83.5s-6.83398 -59.667 -9.50098 -92s-4.33398 -67.166 -5.00098 -104.499l-38.5 35l-38.5 35c0.666992 102.667 5 194 13 274s18.667 146 32 198c8.66699 34.667 20.167 66.834 34.5 96.501
s30.666 57.834 48.999 84.501s37.666 52.167 57.999 76.5l61.5 71.5l13 15l13 15c-34 -8 -64.333 -12 -91 -12c-46 0 -90.167 5.5 -132.5 16.5s-81.833 26.5 -118.5 46.5s-69.167 44.333 -97.5 73s-51.5 60.667 -69.5 96c-36 -17.333 -70.167 -38 -102.5 -62
s-61.166 -48.5 -86.499 -73.5s-46.166 -49.167 -62.499 -72.5s-26.5 -43 -30.5 -59c-5.33301 -22.667 -2.5 -42.5 8.5 -59.5s29.833 -25.5 56.5 -25.5c18 0 49.667 8.5 95 25.5s103.666 49.5 174.999 97.5c30 -24.667 55 -49.834 75 -75.501s35.167 -53.5 45.5 -83.5
s15.5 -62.667 15.5 -98s-5.33301 -74.333 -16 -117c-27.333 -108 -76.333 -192 -147 -252c-72 -62 -155.667 -93 -251 -93c-67.333 0 -132.333 16.333 -195 49c-31.333 16 -59.5 37.167 -84.5 63.5s-46.5 58.166 -64.5 95.499c-18.667 38 -33.667 81 -45 129
s-18.666 102.333 -21.999 163c-8 118 10.333 265 55 441l25.5 -28c8.33301 -9.33301 17.166 -18.666 26.499 -27.999c-17.333 -108 -21.833 -201.833 -13.5 -281.5s27 -145.667 56 -198s67.667 -91.5 116 -117.5s104.166 -39 167.499 -39c82.667 0 150.667 16.667 204 50
c54 35.333 86.667 75.333 98 120c3.33301 12.667 2.83301 26.167 -1.5 40.5s-11.166 27.5 -20.499 39.5c-16 -10.667 -34 -20.334 -54 -29.001s-41.667 -16.667 -65 -24c-23.333 -8 -45.5 -13.833 -66.5 -17.5s-40.5 -5.5 -58.5 -5.5c-52.667 0 -95.667 10.667 -129 32
s-58.5 48.333 -75.5 81s-26.833 68.5 -29.5 107.5s0.333008 76.167 9 111.5c14.667 58.667 38.167 111.167 70.5 157.5s76.166 90.5 131.499 132.5h-439l-102 144h1572l46.5 -72l47.5 -72h-723z" />
    <glyph glyph-name="uni099D" unicode="&#x99d;" horiz-adv-x="1303" 
d="M1485 1115c-26.667 0 -48.3359 7.66406 -65.0029 22.9971l-262 -1050c-7.33301 10.667 -15 20.667 -23 30l-24 29h1c-1.33301 38.667 -5.5 75.667 -12.5 111s-17.5 68 -31.5 98s-31.833 56.667 -53.5 80s-48.167 42 -79.5 56l-136 -548l-24.5 26
c-8.33301 8.66699 -16.166 17.334 -23.499 26.001c-3.33301 22 -7.66602 45.167 -12.999 69.5s-12.666 49.5 -21.999 75.5s-21.333 52.667 -36 80s-33 55.333 -55 84c-38.667 48.667 -83.5 84.834 -134.5 108.501s-113.167 36.167 -186.5 37.5l-63 113l-62 113l223 134.5
c70 41 135.5 76.833 196.5 107.5s118 55.667 171 75s102.167 32 147.5 38l21 83h-676l-51 72l-50 72h965l-152 -613c28 -20.667 52 -46.667 72 -78s34 -68.666 42 -111.999l4 1l266 1053l32.5 -38l31.5 -38c-3.33301 -31.333 -4.5 -58.5 -3.5 -81.5
s5.16699 -40.5 12.5 -52.5c7.33301 -12.667 19.5 -22 36.5 -28s37.167 -9.33301 60.5 -10l111 -147h-154zM738.998 263.997c1.33301 21.333 3.49707 42.667 6.49707 64s6.16699 39.333 9.5 54l103 416c-20.667 -3.33301 -47.5 -11.5 -80.5 -24.5
s-68.167 -28.833 -105.5 -47.5l-114 -59.5c-38.667 -21 -74 -41.167 -106 -60.5c31.333 -8 59.333 -19 84 -33s47.834 -33.667 69.501 -59s42.834 -58 63.501 -98s42.334 -90.333 65.001 -151z" />
    <glyph glyph-name="uni099E" unicode="&#x99e;" horiz-adv-x="1790" 
d="M1080 2c1.33301 30.667 -0.333008 59.9961 -5 87.9961s-11.667 50.667 -21 68c-23.333 37.333 -69 56 -137 56c-81.333 0 -154.333 -5.66699 -219 -17c-63.333 -12 -119 -18 -167 -18c-60 0 -114.667 7.83301 -164 23.5s-89.5 40.667 -120.5 75s-51.5 78.333 -61.5 132
s-5.33301 118.5 14 194.5c12.667 50.667 36.667 108.667 72 174c34.667 62 72.334 113.333 113.001 154c7.33301 -8 13.666 -15.667 18.999 -23s11.666 -15 18.999 -23c-30 -32.667 -53.667 -65.667 -71 -99s-31.333 -71.333 -42 -114c-10 -39.333 -13.667 -76 -11 -110
s13.334 -63.667 32.001 -89s46.334 -45.333 83.001 -60s84 -22 142 -22c16.667 0 35 0.333008 55 1s42 1.66699 66 3c25.333 2 48.5 3.33301 69.5 4s41.167 1 60.5 1c30 0 57.667 -2.66699 83 -8s48.333 -13.666 69 -24.999c42 -22.667 81.333 -67 118 -133l3 10
c0 5.33301 0.5 11 1.5 17s1.5 11.333 1.5 16c1.33301 17.333 3.16602 34.833 5.49902 52.5s6.5 38.834 12.5 63.501l168 674c5.33301 20.667 6.5 33.667 3.5 39s-9.5 8 -19.5 8c-18.667 0 -50.667 -11.333 -96 -34c-20.667 -10.667 -42.167 -23.334 -64.5 -38.001l-71.5 -48
l-80 -64c-20.667 -17.333 -37.167 -32.833 -49.5 -46.5s-21.5 -26.334 -27.5 -38.001s-10.667 -24.5 -14 -38.5l33 5c7.33301 2 13.5 3.33301 18.5 4s9.5 1 13.5 1c36 0 61.833 -11.833 77.5 -35.5s18.167 -56.5 7.5 -98.5c-11.333 -44 -38 -82 -80 -114
c-44 -34 -97 -51 -159 -51c-33.333 0 -62.5 6 -87.5 18s-45.167 29 -60.5 51c-30 46 -35.333 107.667 -16 185c19.333 76.667 56.666 144 111.999 202c28 30.667 57 59.334 87 86.001s62 51 96 73c66.667 46 130.667 81 192 105c62 24.667 107.667 37 137 37
c20 0 41.333 -5.5 64 -16.5s46.334 -29.167 71.001 -54.5c30 -33.333 48 -66.666 54 -99.999c3.33301 -16.667 3.66602 -37.5 0.999023 -62.5s-8 -53.833 -16 -86.5l-9 -34l4 -1c32 58 65 106.667 99 146s68.667 71.666 104 96.999c36 25.333 72 44.5 108 57.5
s71 19.5 105 19.5s63.167 -5.66699 87.5 -17s43.333 -28.5 57 -51.5s21.334 -52 23.001 -87s-3.5 -76.5 -15.5 -124.5c-5.33301 -20 -12.833 -41.167 -22.5 -63.5s-21 -44.166 -34 -65.499s-26.667 -40.833 -41 -58.5s-28.5 -31.5 -42.5 -41.5
c14 -25.333 24.833 -50.166 32.5 -74.499s12.667 -47.833 15 -70.5s2.5 -44.167 0.5 -64.5s-5.33301 -39.5 -10 -57.5c-14 -56 -45.333 -108 -94 -156c-48 -46 -108.333 -69 -181 -69c-69.333 0 -128.333 24.333 -177 73c-50.667 46.667 -86 126.334 -106 239.001l-4 -1
l-155 -621zM1884 951.996c7.33301 28.667 1.33789 51.8311 -17.9951 69.498s-48.666 26.5 -87.999 26.5s-78 -5.66699 -116 -17s-73.833 -26 -107.5 -44s-64.667 -38.667 -93 -62s-52.5 -47 -72.5 -71c-7.33301 -9.33301 -13.833 -18.833 -19.5 -28.5
s-10.834 -19.5 -15.501 -29.5l-22 -90c-1.33301 -13.333 -1.5 -25.5 -0.5 -36.5s2.83301 -22.167 5.5 -33.5c8 -28 19.833 -54.167 35.5 -78.5s34.167 -45.5 55.5 -63.5s45.166 -32.333 71.499 -43s53.833 -16 82.5 -16c23.333 0 45.666 3.5 66.999 10.5
s40.666 17.167 57.999 30.5s31.666 27.333 42.999 42s19 29.334 23 44.001c5.33301 20 4.16602 38.833 -3.50098 56.5s-21.167 29.834 -40.5 36.501c-16.667 -15.333 -36.167 -27.333 -58.5 -36s-42.166 -13 -59.499 -13c-20 0 -37.167 3.66699 -51.5 11
s-25.833 17.333 -34.5 30s-14 27.5 -16 44.5s-0.333008 35.5 5 55.5c10 40 29.667 72 59 96s64 36 104 36c13.333 0 27.166 -2.5 41.499 -7.5s26.833 -11.167 37.5 -18.5c38.667 8 68.5 22 89.5 42s33.833 39 38.5 57z" />
    <glyph glyph-name="uni099F" unicode="&#x99f;" horiz-adv-x="940" 
d="M556 1115l-203.004 -813.006c-5.33301 -22.667 -5.33301 -39.667 0 -51s13 -17 23 -17c12.667 0 25 1.5 37 4.5s27 11.167 45 24.5v-1c46.667 26.667 88.5 54.334 125.5 83.001s69 57.334 96 86.001s48.833 56.5 65.5 83.5s28.334 51.833 35.001 74.5
c-17.333 -6 -32 -9 -44 -9c-20.667 0 -39 3.66699 -55 11s-28.833 17.833 -38.5 31.5s-15.667 30.334 -18 50.001s-0.5 42.167 5.5 67.5c12 48.667 39.333 90.334 82 125.001c40.667 32.667 89 49 145 49c61.333 0 108 -21.667 140 -65
c32.667 -44 37.334 -112.333 14.001 -205c-8.66699 -34 -21.334 -68.167 -38.001 -102.5s-36.667 -68 -60 -101s-49.166 -65.167 -77.499 -96.5s-58.5 -61 -90.5 -89c-62.667 -56.667 -126.334 -101.667 -191.001 -135c-64.667 -35.333 -120.667 -53 -168 -53
c-18.667 0 -38 6.33301 -58 19c-9.33301 7.33301 -19.5 17.5 -30.5 30.5s-23.167 29.5 -36.5 49.5h1c-12 22 -21.833 42.667 -29.5 62s-13.5 37.333 -17.5 54c-8.66699 32 -8 68.333 2 109l181 724h-136l-55.5 72l-54.5 72h833c32 23.333 51.667 49.333 59 78
c12 47.333 -23 71 -105 71c-22 0 -46.333 -0.5 -73 -1.5s-55.667 -2.83301 -87 -5.5c-32 -2.66699 -62.5 -4.5 -91.5 -5.5s-56.833 -1.5 -83.5 -1.5c-68 0 -125.167 6.66699 -171.5 20s-82.833 32.333 -109.5 57s-43.5 54.334 -50.5 89.001s-5.16699 73.667 5.5 117
c6 25.333 16.5 51.666 31.5 78.999s34.167 51 57.5 71l26.5 -17.5l26.5 -17.5c-21.333 -16 -38.166 -32.667 -50.499 -50s-19.5 -30.666 -21.5 -39.999c-4 -16 -4.66699 -31.667 -2 -47s10.834 -29.333 24.501 -42s33.834 -22.834 60.501 -30.501s62 -11.5 106 -11.5
c21.333 0 47.5 1.33301 78.5 4s61.167 5.66699 90.5 9c23.333 2.66699 45 4.83398 65 6.50098s35.333 2.5 46 2.5c130 0 216.667 -31 260 -93c43.333 -61.333 56.333 -141.666 39 -240.999h64l108 -144h-732z" />
    <glyph glyph-name="uni09A0" unicode="&#x9a0;" horiz-adv-x="914" 
d="M883 1115c32 -66.667 56.5 -128.835 73.5 -186.502s28.167 -111.834 33.5 -162.501s6.16602 -98 2.49902 -142s-10.5 -86 -20.5 -126c-16 -64.667 -41.167 -125.667 -75.5 -183s-75.166 -107.5 -122.499 -150.5s-99.833 -77 -157.5 -102s-117.834 -37.5 -180.501 -37.5
c-58 0 -107.5 10.833 -148.5 32.5s-73.167 49.834 -96.5 84.501s-38.333 73.834 -45 117.501s-4.33398 87.5 6.99902 131.5c3.33301 12.667 7.5 26 12.5 40s10.5 27.667 16.5 41s12 26 18 38s12 22.333 18 31c56.667 12.667 112.334 35.334 167.001 68.001
s104.834 70.834 150.501 114.501s84.667 90.5 117 140.5s54.5 99 66.5 147c2 9.33301 3.66699 18.666 5 27.999s2 18.666 2 27.999v48h-473v-1l-55.5 72.5l-55.5 72.5h560c-30.667 76.667 -54.334 141 -71.001 193s-28.167 96.333 -34.5 133s-8.66602 67.667 -6.99902 93
s5.5 49.666 11.5 72.999c11.333 44.667 31.666 84.834 60.999 120.501s66 65.834 110 90.501l161 -126c-35.333 -0.666992 -66.833 -5.16699 -94.5 -13.5s-51.667 -19.666 -72 -33.999s-37 -31 -50 -50s-22.167 -39.5 -27.5 -61.5c-4.66699 -18.667 -6 -40.834 -4 -66.501
s7.83301 -55.667 17.5 -90s23.834 -73 42.501 -116s42 -91.5 70 -145.5h348l54.5 -72l55.5 -72h-390zM870 589.999c8.66699 36.667 14.498 75.666 17.498 116.999s3.16699 81.5 0.5 120.5s-8.16699 75.333 -16.5 109s-18.833 61.5 -31.5 83.5l-4 -2
c0.666992 -30 -0.666016 -57.833 -3.99902 -83.5s-7.33301 -48.167 -12 -67.5c-13.333 -57.333 -35.666 -114.5 -66.999 -171.5s-68.666 -109.667 -111.999 -158s-91 -89.666 -143 -123.999s-105 -57.5 -159 -69.5c-15.333 -12.667 -26.833 -26.834 -34.5 -42.501
s-13.167 -30.5 -16.5 -44.5c-4.66699 -18 -5.33398 -35.167 -2.00098 -51.5s10.333 -30.666 21 -42.999s25 -22 43 -29s39 -10.5 63 -10.5c22 0 46.833 4.66699 74.5 14s56.334 23 86.001 41s59.5 40.167 89.5 66.5s58.167 56.833 84.5 91.5s50.166 73.167 71.499 115.5
s38.333 88.5 51 138.5z" />
    <glyph glyph-name="uni09A1" unicode="&#x9a1;" horiz-adv-x="1195" 
d="M882 1115l-97.9961 -392.998c-7.33301 -26.667 -0.333008 -40 21 -40c8 0 21.167 3.5 39.5 10.5s42 20.167 71 39.5s63.5 46.666 103.5 81.999s85.667 81 137 137c58.667 -50 96.5 -112.833 113.5 -188.5s13.5 -161.5 -10.5 -257.5
c-15.333 -62.667 -39 -121.334 -71 -176.001s-70.5 -102.5 -115.5 -143.5s-96 -73.333 -153 -97s-118.5 -35.5 -184.5 -35.5c-51.333 0 -99.833 7.5 -145.5 22.5s-87 38.833 -124 71.5s-69 75.167 -96 127.5s-47.5 115.666 -61.5 189.999s-20.667 160.5 -20 258.5
s10 209.333 28 334l28.5 -26l28.5 -25c-3.33301 -126.667 2 -234.5 16 -323.5s37.333 -161.667 70 -218s74.667 -97.5 126 -123.5s112.666 -39 183.999 -39c50.667 0 99.667 9.33301 147 28s90 42.334 128 71.001s70 60.167 96 94.5s42.667 66.833 50 97.5
c11.333 44.667 1 82.334 -31 113.001c-70.667 -74.667 -139.667 -129.334 -207 -164.001c-36 -18.667 -67.333 -32.667 -94 -42s-49.667 -14 -69 -14c-33.333 0 -59.333 8 -78 24c-18.667 13.333 -38 46 -58 98c-4.66699 11.333 -8.33398 24.5 -11.001 39.5
s-4 31.167 -4 48.5c-0.666992 19.333 -0.333984 37.5 0.999023 54.5s3.66602 32.167 6.99902 45.5l80 319h-461l-49.5 72l-48.5 72h1273v1l55.5 -72.5l56.5 -72.5h-670z" />
    <glyph glyph-name="uni09A2" unicode="&#x9a2;" horiz-adv-x="910" 
d="M556 1115l-202.999 -813.004c-5.33301 -22.667 -5.33301 -39.667 0 -51s13 -17 23 -17c12.667 0 25 1.5 37 4.5s27 11.167 45 24.5v-1c46.667 26.667 88.5 54.334 125.5 83.001s69 57.334 96 86.001s48.833 56.5 65.5 83.5s28.334 51.833 35.001 74.5
c-17.333 -6 -32 -9 -44 -9c-20 0 -38 3.66699 -54 11s-28.833 17.833 -38.5 31.5s-15.834 30.334 -18.501 50.001s-1 42.167 5 67.5c12 48.667 39.333 90.334 82 125.001c40.667 32.667 89 49 145 49c61.333 0 108 -21.667 140 -65c32.667 -44 37.334 -112.333 14.001 -205
c-8.66699 -34 -21.334 -68.167 -38.001 -102.5s-36.667 -68 -60 -101s-49.166 -65.167 -77.499 -96.5s-58.5 -61 -90.5 -89c-62.667 -56.667 -126.334 -101.667 -191.001 -135c-64.667 -35.333 -120.334 -53 -167.001 -53c-19.333 0 -39 6.33301 -59 19
c-9.33301 7.33301 -19.5 17.5 -30.5 30.5s-23.167 29.5 -36.5 49.5h1c-12 22 -21.833 42.667 -29.5 62s-13.5 37.333 -17.5 54c-8.66699 32 -8 68.333 2 109l181 724h-135l-55.5 72l-54.5 72h998v1l55.5 -72.5l56.5 -72.5h-707z" />
    <glyph glyph-name="uni09A3" unicode="&#x9a3;" horiz-adv-x="1057" 
d="M1248 1115c-37.333 0 -59.3291 11.335 -65.9961 34.002l-10 -8l-281 -1213l-60 74.5l-60 74.5l165 650c12 47.333 15.833 91.5 11.5 132.5s-15.333 76.5 -33 106.5s-41.334 53.667 -71.001 71s-64.167 26 -103.5 26c-34.667 0 -68.5 -6.5 -101.5 -19.5
s-63.167 -30.667 -90.5 -53s-51.166 -48.833 -71.499 -79.5s-34.833 -63.334 -43.5 -98.001c-7.33301 -28.667 -9.83301 -55 -7.5 -79s9.16602 -44.5 20.499 -61.5s27.166 -30.167 47.499 -39.5s44.833 -14 73.5 -14l9 10c-10 6 -18.833 12.167 -26.5 18.5
s-14 13.5 -19 21.5s-8.16699 17.333 -9.5 28s-0.333008 23 3 37c3.33301 15.333 9.66602 30.5 18.999 45.5s20.666 29.167 33.999 42.5c29.333 27.333 67 41 113 41c43.333 0 74.666 -18.333 93.999 -55c20 -35.333 24 -76.666 12 -123.999
c-5.33301 -22.667 -15.166 -45.834 -29.499 -69.501s-33.5 -45.334 -57.5 -65.001s-53 -35.834 -87 -48.501s-73.333 -19 -118 -19c-46 0 -87.667 8.16699 -125 24.5s-68 40.333 -92 72s-39.667 70.834 -47 117.501s-3.33301 100.334 12 161.001
c16 65.333 40.833 122.833 74.5 172.5s71.334 91.167 113.001 124.5s85.167 58.5 130.5 75.5s88 25.5 128 25.5c34 0 66.667 -3.83301 98 -11.5s60.666 -23.834 87.999 -48.501s52.5 -60.334 75.5 -107.001s43.167 -109 60.5 -187l5 2
c-2.66699 16.667 -3.5 37.167 -2.5 61.5s2.83301 48.833 5.5 73.5s5.66699 47.667 9 69s6.33301 37.333 9 48l41.5 172l40.5 172l29 -32.5c9.33301 -10.333 18.333 -21.166 27 -32.499c-6 -30.667 -8.16699 -57 -6.5 -79s6.16699 -40.167 13.5 -54.5s17 -24.833 29 -31.5
s25.333 -10 40 -10h33l108 -144h-153z" />
    <glyph glyph-name="uni09A4" unicode="&#x9a4;" horiz-adv-x="1254" 
d="M265 1115l-51 72l-50 72h1325l54.5 -72l55.5 -72h-1334zM1293 536c-17.333 -68 -42.168 -129.999 -74.501 -185.999s-70.666 -104 -114.999 -144s-93.5 -70.833 -147.5 -92.5s-111.333 -32.5 -172 -32.5c-70.667 0 -137 16.167 -199 48.5s-116 86.166 -162 161.499
s-82.5 175.333 -109.5 300s-40.5 279 -40.5 463l32 -25l32 -25c17.333 -120.667 40 -223.667 68 -309s61.667 -155.166 101 -209.499s84.666 -94.166 135.999 -119.499s109 -38 173 -38c46 0 90.5 8.16699 133.5 24.5s82 38.333 117 66s65.167 60 90.5 97
s43 76.167 53 117.5c8.66699 36 12 66.833 10 92.5s-7.5 47.167 -16.5 64.5s-20.333 31 -34 41s-27 17.667 -40 23s-25 8.83301 -36 10.5s-18.167 2.5 -21.5 2.5c-18.667 0 -43.334 -6 -74.001 -18c40 -32.667 52.333 -80.334 37 -143.001c-14 -52 -44 -96.667 -90 -134
c-47.333 -35.333 -98.666 -53 -153.999 -53c-61.333 0 -106.333 21 -135 63c-32 42 -38.667 100 -20 174c9.33301 38.667 24.5 74 45.5 106s47.5 60.667 79.5 86c64.667 51.333 141 77 229 77c54.667 0 104.834 -11 150.501 -33s83 -53.833 112 -95.5
s48 -92.834 57 -153.501s3.83301 -129.667 -15.5 -207z" />
    <glyph glyph-name="uni09A5" unicode="&#x9a5;" horiz-adv-x="1174" 
d="M1373 1115c-30.667 0 -51.6631 7.66309 -62.9961 22.9961l-299 -1201l-22.5 31.5c-7 9.66699 -14.167 20.167 -21.5 31.5h1c-2.66699 27.333 -10.334 56 -23.001 86s-30 59.667 -52 89s-48.667 57.333 -80 84s-67.166 50.334 -107.499 71.001
s-84.666 37.334 -132.999 50.001s-100.5 19.334 -156.5 20.001l-78 141.5l-79 140.5c9.33301 -1.33301 17.666 -2.33301 24.999 -3s14.666 -1.66699 21.999 -3l35 -3.5c10 -1 18.667 -1.5 26 -1.5c32.667 0 67.667 4.66699 105 14s74.833 22 112.5 38
s74.334 35.167 110.001 57.5s68 46.333 97 72s53.667 52.834 74 81.501s34.166 57.334 41.499 86.001c4 14.667 4.66699 29.167 2 43.5s-8.5 27 -17.5 38s-21 19.833 -36 26.5s-32.833 10 -53.5 10c-17.333 0 -35.666 -2.33301 -54.999 -7s-39 -11.334 -59 -20.001
c-19.333 -8 -37.333 -17.833 -54 -29.5s-31.334 -24.167 -44.001 -37.5c0.666992 -1.33301 1.5 -2.5 2.5 -3.5s2.16699 -3.16699 3.5 -6.5c3.33301 -3.33301 7 -8 11 -14l11 -16c10 -16 11 -39.667 3 -71c-4 -15.333 -11.333 -31.333 -22 -48s-24.5 -32.167 -41.5 -46.5
s-36.667 -26.166 -59 -35.499s-46.833 -14 -73.5 -14c-52 0 -91 15.667 -117 47c-26.667 33.333 -32.667 79 -18 137c5.33301 20.667 14.5 43 27.5 67s29.333 47.667 49 71s42.667 45.666 69 66.999s55.5 40.333 87.5 57s66.667 30 104 40s77.333 15 120 15
c50.667 0 95.5 -10 134.5 -30s70.5 -47.333 94.5 -82s39.667 -74.834 47 -120.501s4.66602 -94.167 -8.00098 -145.5c-12 -44 -29.833 -85.5 -53.5 -124.5s-51.834 -74.333 -84.501 -106s-69.334 -58.667 -110.001 -81s-83.667 -39.166 -129 -50.499v-4
c24.667 -4.66699 51.167 -16.167 79.5 -34.5s56.333 -42 84 -71s53.834 -62.167 78.501 -99.5s46 -77 64 -119h9c-2.66699 23.333 -1.83398 52 2.49902 86s10.5 67.333 18.5 100l274 1100l33 -37l33 -37c-7.33301 -61.333 -4.5 -105.833 8.5 -133.5s34.5 -41.5 64.5 -41.5
h28l111 -144h-153z" />
    <glyph glyph-name="uni09A6" unicode="&#x9a6;" horiz-adv-x="958" 
d="M540 1115l-98.0029 -393.002l-13 -46.5c-5.33301 -19.667 -11.666 -40.167 -18.999 -61.5l4 -6c27.333 34.667 60.666 70 99.999 106s81.833 71 127.5 105s92.834 66.5 141.501 97.5s96 59.167 142 84.5c17.333 -10.667 36 -23.5 56 -38.5s38.667 -30.167 56 -45.5
c19.333 -17.333 37 -34.666 53 -51.999s29.667 -33.666 41 -48.999c-45.333 -33.333 -86.833 -71.5 -124.5 -114.5s-71 -88.167 -100 -135.5s-53.833 -95.5 -74.5 -144.5s-36.334 -95.833 -47.001 -140.5c-12 -46.667 -19 -98.667 -21 -156s-3 -113.333 -3 -168v-48l-35 34
l-36 34c-8 43.333 -13.667 87 -17 131s-4.83301 86.5 -4.5 127.5s2.5 79.333 6.5 115s9.33301 66.834 16 93.501c4 15.333 9.5 32.833 16.5 52.5l24.5 67.5c20.667 52 45 97 73 135l-1 3c-54 -34.667 -104.167 -71.5 -150.5 -110.5s-87.833 -78.833 -124.5 -119.5
c-31.333 -35.333 -59.666 -71.166 -84.999 -107.499s-48.666 -71.833 -69.999 -106.5l-10 -15.5l-10 -15.5c-16 11.333 -31.167 24.166 -45.5 38.499s-28.166 30.166 -41.499 47.499c-27.333 35.333 -47 72.333 -59 111l173 691h-117l-51 72l-50 72h1064l110 -144h-797z" />
    <glyph glyph-name="uni09A7" unicode="&#x9a7;" horiz-adv-x="1060" 
d="M1173 1115l-293 -1172c-7.33301 8.66699 -14.833 17 -22.5 25l-23.5 25c-2.66699 22 -7.16699 44.667 -13.5 68s-14.833 45.666 -25.5 66.999c-9.33301 20.667 -23.833 44 -43.5 70s-41.167 51 -64.5 75c-20 20 -43.5 38.5 -70.5 55.5s-56.167 31.667 -87.5 44
s-64 22.333 -98 30s-68.333 11.834 -103 12.501l-52 97l-52 97l118.5 73l116.5 69c36.667 20.667 71.667 39.5 105 56.5s63.666 31.5 90.999 43.5v4h-7c-21.333 -6.66699 -42 -10.667 -62 -12s-39.667 -2 -59 -2c-70 0 -121.333 20.333 -154 61
c-31.333 41.333 -39 93.666 -23 156.999c8.66699 35.333 23 67.833 43 97.5s45 56.167 75 79.5c29.333 21.333 61.5 38 96.5 50s71.5 18 109.5 18c51.333 0 92.666 -15.667 123.999 -47c15.333 -16 25.333 -34.333 30 -55s3.33398 -45 -3.99902 -73
c-5.33301 -20 -12.833 -37.5 -22.5 -52.5s-21 -27.833 -34 -38.5s-27 -18.667 -42 -24s-29.833 -8 -44.5 -8c-6.66699 0 -15.5 0.666992 -26.5 2s-21.333 5 -31 11s-17 15.333 -22 28s-4.5 30 1.5 52c1.33301 6 3.83301 12.167 7.5 18.5l11.5 20.5l2 4
c0.666992 1.33301 1.66699 2.66602 3 3.99902c-36.667 0 -64.667 -8 -84 -24s-32.666 -39 -39.999 -69c-5.33301 -20.667 -5.83301 -39.667 -1.5 -57s12.5 -32.166 24.5 -44.499s27.5 -22 46.5 -29s41.167 -10.5 66.5 -10.5c36 0 67 3.5 93 10.5s52.667 16.833 80 29.5
l50.5 29l51.5 28l47 26c16 8.66699 31.333 17.667 46 27l49 197h227l108 -144h-218zM821 236.001c-4 37.333 -1.33301 74.333 8 111l116 465l-101 -62.5l-118.5 -70.5l-122 -71l-110.5 -64c30 -6 60 -16.5 90 -31.5s58.333 -32.833 85 -53.5c26 -22.667 51 -52.5 75 -89.5
s46.333 -81.5 67 -133.5h11z" />
    <glyph glyph-name="uni09A8" unicode="&#x9a8;" horiz-adv-x="1050" 
d="M1171 1115l-294 -1178l-25.5 32.5l-25.5 32.5c2 23.333 3.5 48.833 4.5 76.5s1.5 53.834 1.5 78.501c-0.666992 25.333 -2.5 56.5 -5.5 93.5s-6.83301 74.833 -11.5 113.5c-6.66699 58.667 -17.667 109.667 -33 153s-35.666 78 -60.999 104
c-49.333 51.333 -109 77 -179 77l-2 -7c27.333 -17.333 45.333 -40.5 54 -69.5s8.66699 -60.5 0 -94.5c-14 -57.333 -45.333 -102.666 -94 -135.999c-49.333 -32.667 -99.666 -49 -150.999 -49c-28 0 -54.833 4.83301 -80.5 14.5s-47.167 24.667 -64.5 45
s-29 46.166 -35 77.499s-3.66699 68.333 7 111c19.333 77.333 61 141.666 125 192.999c61.333 51.333 137.666 77 228.999 77c38 0 75.667 -6.33301 113 -19s71.333 -34.5 102 -65.5s56.667 -72.667 78 -125s35 -118.5 41 -198.5l9 2c0.666992 33.333 3.66699 69 9 107
s11.666 70.667 18.999 98l114 456h-754v-1l-56 72.5l-56 72.5h1130l53.5 -72l54.5 -72h-216z" />
    <glyph glyph-name="uni09AA" unicode="&#x9aa;" horiz-adv-x="1312" 
d="M1508 1115c-35.333 0 -57.3369 11.333 -66.0039 34l-11 -8l-139.5 -606.5l-139.5 -606.5l-62.5 74.5l-60.5 74.5l68 270l68 269c8 26.667 13.167 51.5 15.5 74.5s1.83301 45.167 -1.5 66.5s-9.66602 42.333 -18.999 63s-22 41.667 -38 63l-122.5 -91l-142.5 -112.5
l-143 -120c-46.667 -40.333 -88 -78.5 -124 -114.5l-113.5 38l-113.5 38c36 28.667 66.5 54.834 91.5 78.501s45.833 45.167 62.5 64.5s29.334 37 38.001 53s14.667 30.667 18 44c14 58 -4.66699 87 -56 87c-14 0 -27.667 -3.16699 -41 -9.5
s-26.666 -13.166 -39.999 -20.499c-14 -8 -28.5 -15.333 -43.5 -22s-30.167 -10 -45.5 -10c-26.667 0 -49.667 11.333 -69 34c-9.33301 10 -15.333 22.5 -18 37.5s-2.33398 30.833 0.999023 47.5c6.66699 20 18.834 43.167 36.501 69.5s39.5 53.166 65.5 80.499
s55.667 54.166 89 80.499s69 49.833 107 70.5s77.833 37.167 119.5 49.5s83.834 18.166 126.501 17.499c60.667 0 115 -10.667 163 -32s89 -51.333 123 -90c34 -41.333 64.167 -90.5 90.5 -147.5s49.5 -120.833 69.5 -191.5l8 8c-1.33301 26.667 -0.5 61.167 2.5 103.5
s10.5 92.166 22.5 149.499l52 212.5l52 213.5c9.33301 -11.333 18.833 -22.166 28.5 -32.499s19.167 -21.166 28.5 -32.499c-10 -57.333 -6.66699 -100.5 10 -129.5s46 -44.167 88 -45.5l54.5 -72l55.5 -72h-145zM1014 1030c-18 23.333 -41.168 42.165 -69.501 56.498
s-59.166 21.5 -92.499 21.5c-26 0 -51.5 -3.33301 -76.5 -10s-50.5 -16.834 -76.5 -30.501s-52.833 -30.5 -80.5 -50.5s-57.5 -43.333 -89.5 -70c52 0 88.333 -16.333 109 -49c10.667 -16.667 17.5 -34.5 20.5 -53.5s1.83301 -39.167 -3.5 -60.5
c-1.33301 -6 -3 -11.167 -5 -15.5s-5 -9.16602 -9 -14.499l6 -11c52 48.667 105.667 93.667 161 135l168 122c6 4.66699 12.333 9.33398 19 14.001s13 9.33398 19 14.001v2z" />
    <glyph glyph-name="uni09AB" unicode="&#x9ab;" horiz-adv-x="1352" 
d="M604 1115c21.333 -25.333 43.1748 -53.1641 65.5078 -83.4971s43.833 -61 64.5 -92s39.5 -61.333 56.5 -91s30.833 -56.5 41.5 -80.5l-313 -224c25.333 -4.66699 52.833 -15.334 82.5 -32.001s58.5 -38.167 86.5 -64.5s53.667 -57.166 77 -92.499s41.333 -74 54 -116l4 1
c1.33301 38.667 4.33301 73.167 9 103.5s11 61.5 19 93.5l147 586c1.33301 0.666992 3.16602 1 5.49902 1s4.16602 0.333008 5.49902 1c22.667 3.33301 46.667 6.16602 72 8.49902s47.666 3.5 66.999 3.5c72 0 132.167 -8.5 180.5 -25.5s84.166 -42.833 107.499 -77.5
c48.667 -69.333 58.667 -160.333 30 -273c-19.333 -77.333 -52.333 -136.333 -99 -177s-93.334 -61 -140.001 -61c-42.667 0 -73.834 13.167 -93.501 39.5s-24.5 59.5 -14.5 99.5c4 16.667 10.5 32.834 19.5 48.501s20 29.5 33 41.5s27.5 21.667 43.5 29s33.333 11 52 11
c17.333 0 33.833 -5.66699 49.5 -17s27.167 -25.666 34.5 -42.999c29.333 16 47.666 38.333 54.999 67c8.66699 35.333 -2.33301 64.666 -33 87.999s-84.334 35 -161.001 35c-14.667 0 -32.334 -1.16699 -53.001 -3.5s-40 -5.16602 -58 -8.49902l-217 -873l-23 31.5
c-7.33301 9.66699 -14.666 20.167 -21.999 31.5v-1c2 25.333 -2.66699 57 -14 95s-31 76.333 -59 115c-22 29.333 -45.333 55.166 -70 77.499s-52 40.833 -82 55.5c-30 14 -66.167 24.667 -108.5 32s-87.5 11.333 -135.5 12l-69 114.5l-68 113.5l94 69.5l109.5 78.5
l108.5 76.5l92 62.5c-4 14 -11.667 26.5 -23 37.5s-25.666 20.5 -42.999 28.5s-37.333 14.167 -60 18.5s-47 7.16602 -73 8.49902c-32 1.33301 -59 4.16602 -81 8.49902s-39.167 10.666 -51.5 18.999s-20.333 19.5 -24 33.5s-2.83398 31.667 2.49902 53l-56 75.5l-56 75.5
h1430l53 -72l54 -72h-1105z" />
    <glyph glyph-name="uni09AC" unicode="&#x9ac;" horiz-adv-x="1029" 
d="M1150 1115l-293 -1173c-7.33301 9.33301 -15 17.833 -23 25.5s-15.667 16.167 -23 25.5h1c-2 22.667 -5.83301 45.667 -11.5 69s-13.5 47.333 -23.5 72s-23 50.5 -39 77.5s-35.333 55.167 -58 84.5c-18.667 22 -40.667 42.333 -66 61s-53.333 34.834 -84 48.501
s-63.667 24.5 -99 32.5s-72.333 12.333 -111 13l-62.5 113l-63.5 113l113.5 68l114.5 64l111 58.5l103 50.5c68.667 32 132 57.333 190 76s109.333 31.334 154 38.001l21 83h-748l-49.5 72l-48.5 72h1100l110 -144h-215zM800 254.998
c1.33301 23.333 3.83594 46.832 7.50293 70.499s7.16699 42.5 10.5 56.5l103 416c-64 -11.333 -135 -34.666 -213 -69.999c-40 -17.333 -80.167 -36.166 -120.5 -56.499s-80.833 -42.166 -121.5 -65.499c32.667 -8 64.167 -19.833 94.5 -35.5s59.166 -37.334 86.499 -65.001
s53.166 -62.334 77.499 -104.001s47.166 -92.5 68.499 -152.5z" />
    <glyph glyph-name="uni09AD" unicode="&#x9ad;" horiz-adv-x="1345" 
d="M261 1115l-51 72l-50 72h1433l53 -72l54 -72h-1439zM1349 543c-16.667 -66 -42.833 -126.666 -78.5 -181.999s-78.334 -103.333 -128.001 -144s-105 -72.334 -166 -95.001s-125.5 -34 -193.5 -34c-70.667 0 -137.167 15.667 -199.5 47s-116.666 84.166 -162.999 158.499
s-82.833 173.333 -109.5 297s-40 277.834 -40 462.501l31.5 -24.5l31.5 -23.5c18 -120 41.5 -222.5 70.5 -307.5s63.5 -154.333 103.5 -208s85.5 -92.834 136.5 -117.501s107.5 -37 169.5 -37c31.333 0 63.666 4.16699 96.999 12.5s66.166 19.833 98.499 34.5
s63.5 31.834 93.5 51.501s57 41 81 64s44.333 46.833 61 71.5s28 49 34 73c2.66699 11.333 2.66699 25.833 0 43.5s-9.66699 34.167 -21 49.5c-35.333 -32 -70.666 -60.5 -105.999 -85.5s-71.5 -46.333 -108.5 -64s-75.333 -31.167 -115 -40.5s-81.167 -14 -124.5 -14
c-45.333 0 -84.666 6.66699 -117.999 20s-59.333 31.333 -78 54c-15.333 24.667 -25.333 52.5 -30 83.5s-2.66699 63.833 6 98.5c14.667 60.667 45.667 111 93 151c50 40.667 102.333 61 157 61c25.333 0 47 -4.16699 65 -12.5s32.667 -19.833 44 -34.5
c19.333 -32 24 -69.667 14 -113c-4.66699 -17.333 -15 -37.5 -31 -60.5s-37 -44.167 -63 -63.5l-2 -15c30 8 59.833 20 89.5 36s57.167 34.667 82.5 56c26 22.667 53.333 50 82 82s58.667 69.333 90 112c38.667 -24 70 -52 94 -84s41.667 -67 53 -105
s16.5 -78.333 15.5 -121s-7.16699 -87 -18.5 -133z" />
    <glyph glyph-name="uni09AE" unicode="&#x9ae;" horiz-adv-x="1118" 
d="M1246 1115l-293 -1173l-22.5 29l-22.5 29h1c-4.66699 210.667 -77 339.667 -217 387c-34 -43.333 -72 -77.5 -114 -102.5s-88 -37.5 -138 -37.5c-70.667 0 -121.334 22 -152.001 66c-30 44.667 -37.667 97.667 -23 159c16 64 48.667 115 98 153
c25.333 18.667 51.666 32.834 78.999 42.501s56 14.5 86 14.5c16 0 33.167 -3.66699 51.5 -11l53.5 -22c22.667 12.667 38 36.334 46 71.001c4.66699 20 4.16699 41 -1.5 63s-15.5 42.833 -29.5 62.5s-31.833 37.167 -53.5 52.5s-45.5 27 -71.5 35
c-60 17.333 -107.333 32.833 -142 46.5s-60.167 27.834 -76.5 42.501s-25.166 30.834 -26.499 48.501s1.33398 39.5 8.00098 65.5l-40.5 61.5l-40.5 61.5h1151l111 -144h-221zM899 280.996c3.33301 30 6.33398 55.8359 9.00098 77.5029s5.33398 39.167 8.00098 52.5l1 6
c3.33301 13.333 6.16602 25.666 8.49902 36.999s4.83301 22.333 7.5 33l157 628h-497c7.33301 -30.667 21.666 -62.834 42.999 -96.501s49 -68.5 83 -104.5l1 1c20 -24 36.333 -50.333 49 -79s22.334 -57.5 29.001 -86.5s10.167 -56.833 10.5 -83.5
s-1.83398 -50.334 -6.50098 -71.001c-3.33301 -11.333 -7.33301 -23 -12 -35l-15 -37c10 -10 22 -25.833 36 -47.5s27 -45 39 -70s22 -49.5 30 -73.5s11.667 -43 11 -57z" />
    <glyph glyph-name="uni09AF" unicode="&#x9af;" horiz-adv-x="1024" 
d="M1164 1115l-293 -1172l-23.5 27.5l-24.5 27.5c1.33301 22 0.166016 45 -3.50098 69s-10 47.833 -19 71.5s-20.833 46.667 -35.5 69s-32 43.166 -52 62.499c-20 18.667 -42.667 35.834 -68 51.501s-53 29.5 -83 41.5s-62.167 21.5 -96.5 28.5
s-70.166 10.833 -107.499 11.5l-67 114.5l-67 113.5c54 42.667 119 90.667 195 144l68.5 48l65.5 45l34 22.5l32 22.5c-44 54 -101.333 81 -172 81c-136 0 -194 39.667 -174 119l-51.5 73l-51.5 73h1078l110 -144h-194zM815 236c-1.33301 47.333 0.833008 89.167 6.5 125.5
s12.167 69.5 19.5 99.5l164 654h-420l53 -72c28.667 -38 58.5 -80.667 89.5 -128s57.833 -94 80.5 -140l-80 -52l-83.5 -57l-81 -57.5c-26.333 -19 -49.833 -37.5 -70.5 -55.5c22 0 47 -6 75 -18s56.5 -30.833 85.5 -56.5s57 -58.5 84 -98.5s50.5 -87.667 70.5 -143z" />
    <glyph glyph-name="uni09B0" unicode="&#x9b0;" horiz-adv-x="1029" 
d="M1150 1115l-293 -1173c-7.33301 9.33301 -15 17.833 -23 25.5s-15.667 16.167 -23 25.5h1c-2 22.667 -5.83301 45.667 -11.5 69s-13.5 47.333 -23.5 72s-23 50.5 -39 77.5s-35.333 55.167 -58 84.5c-18.667 22 -40.667 42.333 -66 61s-53.333 34.834 -84 48.501
s-63.667 24.5 -99 32.5s-72.333 12.333 -111 13l-62.5 113l-63.5 113l113.5 68l114.5 64l111 58.5l103 50.5c68.667 32 132 57.333 190 76s109.333 31.334 154 38.001l21 83h-748l-49.5 72l-48.5 72h1100l110 -144h-215zM800 254.998
c1.33301 23.333 3.83594 46.832 7.50293 70.499s7.16699 42.5 10.5 56.5l103 416c-64 -11.333 -135 -34.666 -213 -69.999c-40 -17.333 -80.167 -36.166 -120.5 -56.499s-80.833 -42.166 -121.5 -65.499c32.667 -8 64.167 -19.833 94.5 -35.5s59.166 -37.334 86.499 -65.001
s53.166 -62.334 77.499 -104.001s47.166 -92.5 68.499 -152.5zM525.003 152.997c-9.33301 -34.667 -29.333 -64.334 -60 -89.001s-64.334 -37 -101.001 -37c-36 0 -63.667 12.333 -83 37c-18.667 26.667 -23.667 56.334 -15 89.001c4 18 11.333 34.667 22 50
s23.334 28.666 38.001 39.999s30.667 20.166 48 26.499s35 9.5 53 9.5s34 -3.16699 48 -9.5s25.5 -15.166 34.5 -26.499s14.833 -24.666 17.5 -39.999s2 -32 -2 -50z" />
    <glyph glyph-name="uni09B2" unicode="&#x9b2;" horiz-adv-x="1326" 
d="M1429 1115l-137.5 -593.994l-137.5 -593l-60.5 74.5l-59.5 74.5l145 573c-5.33301 31.333 -12.333 57 -21 77s-18 35.833 -28 47.5s-20.167 19.667 -30.5 24s-20.5 6.5 -30.5 6.5c-34 0 -63.167 -13.833 -87.5 -41.5s-42.166 -63.5 -53.499 -107.5
c-1.33301 -7.33301 -2.83301 -16.166 -4.5 -26.499s-3.16699 -24.166 -4.5 -41.499l-28.5 18l-28.5 18c-7.33301 51.333 -26.166 92.5 -56.499 123.5s-75.833 46.5 -136.5 46.5c-34 -1.33301 -67.833 -7.83301 -101.5 -19.5s-64.834 -27.834 -93.501 -48.501
s-53.667 -45.334 -75 -74.001s-36.666 -60.334 -45.999 -95.001c-11.333 -48 -6 -86.333 16 -115c23.333 -30.667 47.666 -46 72.999 -46c10 0 18.333 0.5 25 1.5s14 2.5 22 4.5c-16 17.333 -26.167 35.166 -30.5 53.499s-4.83301 34.166 -1.5 47.499
c4.66699 19.333 12.667 37.666 24 54.999s25.166 32.5 41.499 45.5s34.833 23.167 55.5 30.5s42.667 11 66 11c24.667 0 45.834 -4.5 63.501 -13.5s31.167 -21.833 40.5 -38.5c20.667 -36.667 24.667 -79.334 12 -128.001c-5.33301 -23.333 -15.333 -45.333 -30 -66
s-33 -40 -55 -58c-44 -36 -104.667 -54 -182 -54c-52 -0.666992 -97.667 8.33301 -137 27s-70.833 44.834 -94.5 78.501s-38.667 73.667 -45 120s-2.83301 96.5 10.5 150.5c12 50 32.667 95.5 62 136.5s63.333 76.167 102 105.5s79.667 52 123 68s85 24 125 24
c50 0 91.167 -14.667 123.5 -44s56.166 -71.333 71.499 -126c20 34 38.667 61.833 56 83.5s33 38.167 47 49.5c26 21.333 60.667 32 104 32c17.333 0 34 -4.33301 50 -13s31.167 -22.834 45.5 -42.501s27.833 -44.834 40.5 -75.501s24 -68 34 -112l4 1
c4 28.667 7.5 52.5 10.5 71.5s5.83301 33.5 8.5 43.5l63 250h-1046l-51 72l-50 72h1429l109 -144h-259z" />
    <glyph glyph-name="uni09B6" unicode="&#x9b6;" horiz-adv-x="1248" 
d="M1433 1115c-17.333 0 -32.502 3.16406 -45.502 9.49707s-21.833 16.166 -26.5 29.499l-305 -1226l-55 74.5l-54 74.5l185 689c9.33301 38 10.833 73.833 4.5 107.5s-17 63.334 -32 89.001s-32.333 46 -52 61s-37.834 22.5 -54.501 22.5c-11.333 0 -24 -1.33301 -38 -4
s-25.667 -6.66699 -35 -12c-8 -5.33301 -19.667 -14.666 -35 -27.999s-32.666 -29.666 -51.999 -48.999c32.667 -24 60 -47 82 -69s37.667 -43 47 -63c18.667 -40 23.667 -78.333 15 -115c-14 -56.667 -40.667 -100.834 -80 -132.501s-88.666 -47.5 -147.999 -47.5
c-17.333 0 -33.666 4 -48.999 12s-29 19.833 -41 35.5s-21.667 35.334 -29 59.001s-11.333 51.167 -12 82.5l-1 20c-7.33301 -15.333 -15.5 -31 -24.5 -47s-18.5 -31.333 -28.5 -46s-20.5 -28 -31.5 -40s-21.833 -22 -32.5 -30c-44 -32 -83.333 -48 -118 -48
c-58.667 0 -101.667 16.333 -129 49s-34.333 76 -21 130c4 17.333 10.5 35.333 19.5 54s24.167 39 45.5 61s50.666 46.333 87.999 73s86.333 56.667 147 90c-1.33301 46 -17.333 79.833 -48 101.5s-74 32.5 -130 32.5h-88l-29 72l-28 72h155
c39.333 0 73.833 -3.33301 103.5 -10s55 -18.5 76 -35.5s38.167 -40 51.5 -69s23 -65.5 29 -109.5c46.667 46.667 87 84.334 121 113.001s63.333 51 88 67s45.834 26.667 63.501 32s33.5 8 47.5 8c22 0 44.833 -4.5 68.5 -13.5s46.834 -25.5 69.501 -49.5
s44.5 -57.5 65.5 -100.5s40.167 -98.5 57.5 -166.5l5 2c-2 16.667 -2.16699 38.667 -0.5 66s4.16699 54.833 7.5 82.5s7.16602 53.5 11.499 77.5s7.83301 41.333 10.5 52l73 294l25.5 -32.5l25.5 -32.5c-9.33301 -58.667 -6.5 -102.5 8.5 -131.5s38.5 -43.5 70.5 -43.5h23
l54.5 -72l55.5 -72h-147zM325.998 766.997c-1.33301 -4.66699 0.666992 -7 6 -7c7.33301 0 11.666 2.33301 12.999 7c0 1.33301 -0.666992 3 -2 5s-3.66602 3 -6.99902 3c-2 0 -4.16699 -1 -6.5 -3s-3.5 -3.66699 -3.5 -5zM314.998 723.997
c-1.33301 -4.66699 0.667969 -7 6.00098 -7c7.33301 0 11.666 2.33301 12.999 7c0.666992 1.33301 0.166992 3 -1.5 5s-4.16699 3 -7.5 3c-2 0 -4 -1 -6 -3s-3.33301 -3.66699 -4 -5zM314.999 683.997c-1.33301 -4.66699 0.666016 -7 5.99902 -7
c3.33301 0 6.33301 0.666992 9 2s4.33398 3 5.00098 5c0.666992 1.33301 0 3 -2 5s-4.66699 3 -8 3c-2 0 -4 -1 -6 -3s-3.33301 -3.66699 -4 -5zM327.998 652.997c-0.666992 -2 -0.166992 -3.66699 1.5 -5s3.5 -2 5.5 -2c6.66699 0 10.667 2.33301 12 7
c0.666992 1.33301 0.166992 3 -1.5 5s-4.16699 3 -7.5 3c-2 0 -4 -1 -6 -3s-3.33301 -3.66699 -4 -5zM362.998 631.997c-1.33301 -4.66699 0.667969 -7 6.00098 -7c7.33301 0 11.666 2.33301 12.999 7c0.666992 1.33301 0.166992 3 -1.5 5s-4.16699 3 -7.5 3
c-2 0 -4 -1 -6 -3s-3.33301 -3.66699 -4 -5zM412.999 631.997c-1.33301 -4.66699 0.667969 -7 6.00098 -7c7.33301 0 11.666 2.33301 12.999 7c0.666992 1.33301 0.166992 3 -1.5 5s-4.16699 3 -7.5 3c-2 0 -4 -1 -6 -3s-3.33301 -3.66699 -4 -5zM470 652.997
c-0.666992 -2 -0.166992 -3.66699 1.5 -5s3.5 -2 5.5 -2c6.66699 0 10.667 2.33301 12 7c0.666992 1.33301 0.166992 3 -1.5 5s-4.16699 3 -7.5 3c-2 0 -4 -1 -6 -3s-3.33301 -3.66699 -4 -5zM510 692.997c-0.666992 -2 -0.166992 -3.66699 1.5 -5s3.5 -2 5.5 -2
c6.66699 0 10.667 2.33301 12 7c0.666992 1.33301 0.166992 3 -1.5 5s-4.16699 3 -7.5 3c-2 0 -4 -1 -6 -3s-3.33301 -3.66699 -4 -5zM540 732.997c-0.666992 -2 -0.166992 -3.66699 1.5 -5s3.5 -2 5.5 -2c6.66699 0 10.667 2.33301 12 7
c0.666992 1.33301 0.166992 3 -1.5 5s-4.16699 3 -7.5 3c-2 0 -4 -1 -6 -3s-3.33301 -3.66699 -4 -5zM591 773.997c-0.666992 -2 -0.166992 -3.66699 1.5 -5s3.5 -2 5.5 -2c6.66699 0 10.667 2.33301 12 7c0.666992 1.33301 0.166992 3 -1.5 5s-4.16699 3 -7.5 3
c-2 0 -4 -1 -6 -3s-3.33301 -3.66699 -4 -5zM648 774.997c-1.33301 -4.66699 0.666992 -7 6 -7c7.33301 0 11.666 2.33301 12.999 7c0 1.33301 -0.666992 3 -2 5s-3.66602 3 -6.99902 3c-2 0 -4.16699 -1 -6.5 -3s-3.5 -3.66699 -3.5 -5zM679 742.997
c-1.33301 -4.66699 0.666016 -7 5.99902 -7c3.33301 0 6.33301 0.666992 9 2s4.33398 3 5.00098 5c0 1.33301 -0.833008 3 -2.5 5s-4.16699 3 -7.5 3c-2 0 -4.16699 -1 -6.5 -3s-3.5 -3.66699 -3.5 -5zM689.999 708.997c-0.666992 -2 -0.166992 -3.66699 1.5 -5
s3.5 -2 5.5 -2c6.66699 0 10.667 2.33301 12 7c0.666992 1.33301 0.166992 3 -1.5 5s-4.16699 3 -7.5 3c-2 0 -4 -1 -6 -3s-3.33301 -3.66699 -4 -5zM695.999 676.997c-0.666992 -2 -0.166992 -3.66699 1.5 -5s3.5 -2 5.5 -2c6.66699 0 10.667 2.33301 12 7
c0.666992 1.33301 0.166992 3 -1.5 5s-4.16699 3 -7.5 3c-2 0 -4 -1 -6 -3s-3.33301 -3.66699 -4 -5zM705.999 645.997c-1.33301 -2.66699 -1.16797 -4.66699 0.499023 -6s3.5 -2 5.5 -2c6.66699 0 11 2.66699 13 8c0 1.33301 -0.666992 3 -2 5s-3.66602 3 -6.99902 3
c-2 0 -4.16699 -1 -6.5 -3s-3.5 -3.66699 -3.5 -5zM721.997 614.997c-1.33301 -4.66699 0.667969 -7 6.00098 -7c7.33301 0 11.666 2.33301 12.999 7c0.666992 1.33301 0.166992 3 -1.5 5s-4.16699 3 -7.5 3c-2 0 -4 -1 -6 -3s-3.33301 -3.66699 -4 -5zM751.998 593.997
c-1.33301 -4.66699 0.666992 -7 6 -7c7.33301 0 11.666 2.33301 12.999 7c0 1.33301 -0.666992 3 -2 5s-3.66602 3 -6.99902 3c-2 0 -4.16699 -1 -6.5 -3s-3.5 -3.66699 -3.5 -5zM797.998 599.997c-1.33301 -4.66699 0.667969 -7 6.00098 -7
c7.33301 0 11.666 2.33301 12.999 7c0.666992 1.33301 0.166992 3 -1.5 5s-4.16699 3 -7.5 3c-2 0 -4 -1 -6 -3s-3.33301 -3.66699 -4 -5zM843.999 624.997c-0.666992 -2 -0.166992 -3.66699 1.5 -5s3.5 -2 5.5 -2c6.66699 0 10.667 2.33301 12 7
c0.666992 1.33301 0.166992 3 -1.5 5s-4.16699 3 -7.5 3c-2 0 -4 -1 -6 -3s-3.33301 -3.66699 -4 -5zM882.999 665.997c-1.33301 -4.66699 0.666992 -7 6 -7c7.33301 0 11.666 2.33301 12.999 7c0 1.33301 -0.666992 3 -2 5s-3.66602 3 -6.99902 3c-2 0 -4.16699 -1 -6.5 -3
s-3.5 -3.66699 -3.5 -5zM903.999 717.997c-1.33301 -4.66699 0.666016 -7 5.99902 -7c3.33301 0 6.33301 0.666992 9 2s4.33398 3 5.00098 5c0 1.33301 -0.833008 3 -2.5 5s-4.16699 3 -7.5 3c-2 0 -4.16699 -1 -6.5 -3s-3.5 -3.66699 -3.5 -5zM905.998 766.997
c-1.33301 -4.66699 0.666992 -7 6 -7c7.33301 0 11.666 2.33301 12.999 7c0 1.33301 -0.666992 3 -2 5s-3.66602 3 -6.99902 3c-2 0 -4.16699 -1 -6.5 -3s-3.5 -3.66699 -3.5 -5zM887.998 804.997c-1.33301 -4.66699 0.667969 -7 6.00098 -7
c7.33301 0 11.666 2.33301 12.999 7c0.666992 1.33301 0.166992 3 -1.5 5s-4.16699 3 -7.5 3c-2 0 -4 -1 -6 -3s-3.33301 -3.66699 -4 -5zM861.999 838.997c-1.33301 -4.66699 0.666992 -7 6 -7c7.33301 0 11.666 2.33301 12.999 7c0 1.33301 -0.666992 3 -2 5
s-3.66602 3 -6.99902 3c-2 0 -4.16699 -1 -6.5 -3s-3.5 -3.66699 -3.5 -5zM825.999 870.997c-1.33301 -4.66699 0.666016 -7 5.99902 -7c3.33301 0 6.33301 0.666992 9 2s4.33398 3 5.00098 5c0 1.33301 -0.833008 3.16602 -2.5 5.49902s-4.16699 3.5 -7.5 3.5
c-2 0 -4.16699 -1.16699 -6.5 -3.5s-3.5 -4.16602 -3.5 -5.49902zM794.998 908.997c-1.33301 -4.66699 0.667969 -7 6.00098 -7c7.33301 0 11.666 2.33301 12.999 7c0.666992 1.33301 0.166992 3 -1.5 5s-4.16699 3 -7.5 3c-2 0 -4 -1 -6 -3s-3.33301 -3.66699 -4 -5z
M762.999 940.997c-1.33301 -4.66699 0.667969 -7 6.00098 -7c7.33301 0 11.666 2.33301 12.999 7c0.666992 1.33301 0.166992 3 -1.5 5s-4.16699 3 -7.5 3c-2 0 -4 -1 -6 -3s-3.33301 -3.66699 -4 -5zM724 971.997c-1.33301 -4.66699 0.667969 -7 6.00098 -7
c7.33301 0 11.666 2.33301 12.999 7c0.666992 1.33301 0.166992 3 -1.5 5s-4.16699 3 -7.5 3c-2 0 -4 -1 -6 -3s-3.33301 -3.66699 -4 -5zM687.001 998.997c-1.33301 -5.33301 0.666992 -8 6 -8c7.33301 0 11.666 2.66699 12.999 8c0 1.33301 -0.666992 3 -2 5
s-3.66602 3 -6.99902 3c-2 0 -4.16699 -1 -6.5 -3s-3.5 -3.66699 -3.5 -5zM626.001 981.997c-0.666992 -2 -0.166016 -3.66699 1.50098 -5s3.5 -2 5.5 -2c7.33301 0 11.666 2.33301 12.999 7c0.666992 1.33301 0 3 -2 5s-4.66699 3 -8 3c-2 0 -4 -1 -6 -3
s-3.33301 -3.66699 -4 -5zM579.002 949.997c-0.666992 -2 -0.166992 -3.66699 1.5 -5s3.5 -2 5.5 -2c6.66699 0 10.667 2.33301 12 7c0.666992 1.33301 0.166992 3 -1.5 5s-4.16699 3 -7.5 3c-2 0 -4 -1 -6 -3s-3.33301 -3.66699 -4 -5zM537.002 919.997
c-1.33301 -4.66699 0.667969 -7 6.00098 -7c7.33301 0 11.666 2.33301 12.999 7c0.666992 1.33301 0.166992 3 -1.5 5s-4.16699 3 -7.5 3c-2 0 -4 -1 -6 -3s-3.33301 -3.66699 -4 -5zM480.003 886.997c-1.33301 -4.66699 0.666016 -7 5.99902 -7
c3.33301 0 6.33301 0.666992 9 2s4.33398 3 5.00098 5c0 1.33301 -0.833008 3 -2.5 5s-4.16699 3 -7.5 3c-2 0 -4.16699 -1 -6.5 -3s-3.5 -3.66699 -3.5 -5zM438.002 857.997c-0.666992 -2 -0.166992 -3.66699 1.5 -5s3.5 -2 5.5 -2c6.66699 0 10.667 2.33301 12 7
c0.666992 1.33301 0.166992 3 -1.5 5s-4.16699 3 -7.5 3c-2 0 -4 -1 -6 -3s-3.33301 -3.66699 -4 -5zM383.002 819.997c-1.33301 -4.66699 0.667969 -7 6.00098 -7c7.33301 0 11.666 2.33301 12.999 7c0.666992 1.33301 0.166992 3 -1.5 5s-4.16699 3 -7.5 3
c-2 0 -4 -1 -6 -3s-3.33301 -3.66699 -4 -5z" />
    <glyph glyph-name="uni09B7" unicode="&#x9b7;" horiz-adv-x="1024" 
d="M1162 1115l-148.5 -586.501l-147.5 -586.5l-22.5 28.5l-22.5 28.5c1.33301 22 0 45.167 -4 69.5s-10.667 48.333 -20 72s-21.333 46.667 -36 69s-32 43.166 -52 62.499c-39.333 38 -89 69.333 -149 94s-128.333 37.667 -205 39l-67 114l-69 114l47 33.5l50 34.5l110 79
l109 78l96 67c-6.66699 8.66699 -16.334 17.334 -29.001 26.001s-27.167 16.334 -43.5 23.001s-34.166 12 -53.499 16s-39 6 -59 6c-72.667 0 -122.667 9 -150 27s-35.333 48.667 -24 92h-21l-51 72l-50 72h1164l108 -144h-260zM814 247.999c0 30 1.16699 55.001 3.5 75.001
s6.16602 39.667 11.499 59l73 292c-10 16 -25 35 -45 57v-1l-28.5 32c-8.33301 9.33301 -16.166 17.666 -23.499 24.999c-51.333 -34.667 -104.333 -72.5 -159 -113.5l-154 -118.5c20.667 0 44.5 -6.66699 71.5 -20s55 -33 84 -59s57.5 -58.167 85.5 -96.5
s53.667 -82.5 77 -132.5zM1012 1115h-451c12.667 -9.33301 27.167 -20.833 43.5 -34.5l52.5 -44l56.5 -49.5l54.5 -51l50 -52c16 -17.333 30.5 -34 43.5 -50s24.5 -31 34.5 -45s17.667 -26.333 23 -37z" />
    <glyph glyph-name="uni09B8" unicode="&#x9b8;" horiz-adv-x="1119" 
d="M1253 1115l-296.003 -1187c-5.33301 6 -13.166 16 -23.499 30l-33 44.5l-33 44.5l-22.5 30l145 514c-2 16.667 -6.33301 31.334 -13 44.001s-14.5 23.167 -23.5 31.5s-18.667 14.5 -29 18.5s-19.833 6 -28.5 6c-24.667 0 -56 -13.333 -94 -40
c-20 -14 -43.5 -33.667 -70.5 -59s-57.167 -56.333 -90.5 -93c-43.333 -48 -79.5 -85.833 -108.5 -113.5s-53.167 -48.5 -72.5 -62.5s-35.333 -22.667 -48 -26s-24 -5 -34 -5c-36 0 -74.333 21.333 -115 64c-19.333 20 -36.833 49 -52.5 87s-28.834 83 -39.501 135l45.5 33
l45.5 33c0.666992 -44.667 6.33398 -76.5 17.001 -95.5s23.334 -28.5 38.001 -28.5s39.334 14.333 74.001 43l46.5 42.5l52 49l53 51l50.5 49.5c5.33301 9.33301 9.83301 18.5 13.5 27.5s6.5 17.5 8.5 25.5c5.33301 20.667 6 40.834 2 60.501s-13 39.167 -27 58.5
c-28 38.667 -80.333 60 -157 64c-42 2.66699 -76 7.16699 -102 13.5s-44 15.166 -54 26.499l-1 -1c-18.667 22.667 -23 55.667 -13 99l-45 65l-46 65h1204l54.5 -72l55.5 -72h-233zM1021 686.999c2.66699 21.333 5.33203 39.835 7.99902 55.502s5.33398 28.167 8.00098 37.5
l81 335h-479l-3 -9c34.667 -14 57.667 -37.833 69 -71.5s11 -74.5 -1 -122.5c-3.33301 -12.667 -8.5 -29.834 -15.5 -51.501s-14.5 -42.167 -22.5 -61.5c40.667 36.667 76.667 62.667 108 78s57.333 23 78 23c16 0 31.667 -2.5 47 -7.5s30 -15.333 44 -31
s26.833 -37.834 38.5 -66.501s22.167 -66.667 31.5 -114z" />
    <glyph glyph-name="uni09B9" unicode="&#x9b9;" horiz-adv-x="1161" 
d="M1059 -274c-65.333 78 -129.171 144.668 -191.504 200.001s-125.5 102.666 -189.5 141.999s-130.167 72 -198.5 98s-140.5 48.333 -216.5 67l-45 171l-45 171c27.333 -18 55.166 -34 83.499 -48s55.166 -25.667 80.499 -35s48.5 -16.833 69.5 -22.5
s38.167 -8.5 51.5 -8.5c34 0 69.667 3.83301 107 11.5s74.666 18.334 111.999 32.001s73.166 29.834 107.499 48.501s65.5 39 93.5 61s51.5 45.333 70.5 70s31.833 49.667 38.5 75c4 16.667 4.83301 32.5 2.5 47.5s-8.16602 28.167 -17.499 39.5s-22 20.333 -38 27
s-35.333 10 -58 10c-20 0 -41.5 -3.66699 -64.5 -11l-66.5 -22c-8 -32 -22 -62.167 -42 -90.5s-43.5 -53 -70.5 -74s-56.333 -37.5 -88 -49.5s-62.834 -18 -93.501 -18c-24 0 -45.333 3.66699 -64 11s-33.667 17.666 -45 30.999s-18.666 29.333 -21.999 48
s-2.33301 39.334 3 62.001c10.667 42 31.334 78.5 62.001 109.5s65.167 56.667 103.5 77s77.166 35.333 116.499 45s73.333 14.5 102 14.5c-1.33301 23.333 -7.16602 43.166 -17.499 59.499s-26.166 29.5 -47.499 39.5h-391l-51 72l-50 72h1287l54.5 -72l55.5 -72h-755
c2 -11.333 2.33301 -25.833 1 -43.5s-2.66602 -33.834 -3.99902 -48.501c21.333 0 44.833 -2.5 70.5 -7.5s50.834 -13.333 75.501 -25s47.834 -26.834 69.501 -45.501s39.334 -41.5 53.001 -68.5s22.167 -58.333 25.5 -94s-0.666992 -76.834 -12 -123.501
c-48 -190.667 -197 -315 -447 -373c44.667 -30 88.834 -63.333 132.501 -100s84.667 -74.167 123 -112.5s72.833 -76.166 103.5 -113.499s55.667 -71.666 75 -102.999z" />
    <glyph glyph-name="uni09BC" unicode="&#x9bc;" 
d="M594 -60c-9.33301 -34 -28.6689 -63.332 -58.002 -87.999c-30.667 -24.667 -64.334 -37 -101.001 -37c-36 0 -63.667 12.333 -83 37c-19.333 25.333 -24.666 54.666 -15.999 87.999c4 18 11.5 34.667 22.5 50s23.833 28.666 38.5 39.999s30.667 20.166 48 26.499
s35 9.5 53 9.5s33.833 -3.16699 47.5 -9.5s24.834 -15.166 33.501 -26.499s14.334 -24.666 17.001 -39.999s2 -32 -2 -50z" />
    <glyph glyph-name="uni09BD" unicode="&#x9bd;" horiz-adv-x="1181" 
d="M1059 -274c-65.333 78 -129.334 144.831 -192.001 200.498s-126 103.167 -190 142.5s-129.833 71.833 -197.5 97.5s-139.834 47.834 -216.501 66.501l-45 171l-45 171c28 -18.667 56.167 -35 84.5 -49s55.166 -25.833 80.499 -35.5s48.333 -17 69 -22
s37.667 -7.5 51 -7.5c33.333 0 68.833 3.83301 106.5 11.5s75 18.334 112 32.001s72.833 29.834 107.5 48.501s66 39 94 61s51.5 45.333 70.5 70s31.833 49.667 38.5 75c4 16.667 4.83301 32.5 2.5 47.5s-8 28.167 -17 39.5s-21.5 20.333 -37.5 27s-35.667 10 -59 10
c-20.667 0 -42.167 -3.33301 -64.5 -10s-44.5 -14.334 -66.5 -23.001c-8 -32 -22 -62.167 -42 -90.5s-43.5 -53 -70.5 -74s-56.333 -37.5 -88 -49.5s-62.834 -18 -93.501 -18c-24 0 -45.167 3.66699 -63.5 11s-33.166 17.5 -44.499 30.5s-18.833 28.833 -22.5 47.5
s-2.83398 39.667 2.49902 63c6.66699 28 18.334 53.5 35.001 76.5s36 43.667 58 62s46 34.166 72 47.499s52 24.5 78 33.5s51.167 15.667 75.5 20s46.166 6.5 65.499 6.5c-0.666992 9.33301 -4.83398 20.333 -12.501 33s-21.667 24.834 -42 36.501s-48.333 21.5 -84 29.5
s-81.5 12 -137.5 12c-24.667 0 -52.334 -1 -83.001 -3s-63 -5 -97 -9c-9.33301 12 -18.166 24 -26.499 36l-24.5 37c-8 12 -16.333 23.833 -25 35.5s-17 23.5 -25 35.5c7.33301 0 14 0.166992 20 0.5s12.667 0.5 20 0.5c28.667 1.33301 57.834 2.33301 87.501 3
s59.5 1 89.5 1c49.333 0 97.5 -2 144.5 -6s89.833 -11.667 128.5 -23s71.334 -26.833 98.001 -46.5s44.667 -45.167 54 -76.5c2 -10.667 2.5 -24.5 1.5 -41.5s-2.5 -32.833 -4.5 -47.5c21.333 0 44.833 -2.5 70.5 -7.5s50.834 -13.333 75.501 -25
s47.834 -26.834 69.501 -45.501s39.334 -41.5 53.001 -68.5s22.167 -58.333 25.5 -94s-0.666992 -76.834 -12 -123.501c-48 -192 -197 -316.333 -447 -373c45.333 -30 89.833 -63.333 133.5 -100s84.5 -74.167 122.5 -112.5s72.333 -76.166 103 -113.499
s55.667 -71.666 75 -102.999z" />
    <glyph glyph-name="uni09BE" unicode="&#x9be;" horiz-adv-x="472" 
d="M665 1115c-33.333 0 -55.332 15.333 -65.999 46l-317 -1271l-123 147l199 750c10 41.333 14 81.333 12 120s-8.83301 73 -20.5 103s-27.334 54.5 -47.001 73.5s-41.834 29.5 -66.501 31.5h-50c-11.333 24 -21.666 48 -30.999 72s-19.333 48 -30 72h127
c48 -5.33301 88 -35.666 120 -90.999s49.667 -130 53 -224l13 6c1.33301 17.333 3.33301 37.333 6 60l9 73c1.33301 7.33301 2.5 14.5 3.5 21.5s2.16699 13.833 3.5 20.5c2.66699 15.333 5 29.666 7 42.999s4.33301 25.666 7 36.999l35.5 147l35.5 147l28 -32.5
c9.33301 -10.333 18.333 -21.166 27 -32.499c-13.333 -69.333 -11.333 -115.333 6 -138c16 -24.667 42.667 -37 80 -37h50l53 -72l54 -72h-178z" />
    <glyph glyph-name="uni09BF" unicode="&#x9bf;" horiz-adv-x="497" 
d="M1643 1371c-158.667 218.667 -348.336 327.999 -569.003 327.999c-43.333 0 -85.333 -5.66699 -126 -17s-79.167 -26.5 -115.5 -45.5s-69.666 -40.5 -99.999 -64.5s-57.166 -48.667 -80.499 -74s-42.5 -50.166 -57.5 -74.499s-24.833 -46.166 -29.5 -65.499
c-5.33301 -21.333 -4.83301 -39.5 1.5 -54.5s20.5 -29.833 42.5 -44.5h145l108 -144h-263l-306 -1225l-122 147l290 1078h-200l-103 144h343l-17.5 21.5l-17.5 21.5c-1.33301 1.33301 -2.33301 2.83301 -3 4.5s-1.66699 3.16699 -3 4.5h1c-8 12 -15.833 24.667 -23.5 38
s-14.167 27.333 -19.5 42s-8.83301 30.167 -10.5 46.5s-0.166992 33.5 4.5 51.5c6 26 18.167 53.167 36.5 81.5s41.333 56.166 69 83.499s59.334 53.5 95.001 78.5s74 47 115 66s84 34 129 45s90.833 16.5 137.5 16.5c44.667 0 97 -7.16699 157 -21.5
s121.167 -37.833 183.5 -70.5s122.5 -75 180.5 -127s107.333 -115.667 148 -191z" />
    <glyph glyph-name="uni09C0" unicode="&#x9c0;" horiz-adv-x="425" 
d="M240 1115l-34.998 51.4971l-35 51.5h1c-5.33301 12.667 -16.333 21.834 -33 27.501s-34 8.5 -52 8.5h-79l2 6c14 9.33301 25.5 21 34.5 35s14.833 25.667 17.5 35c3.33301 14 4.16602 26.167 2.49902 36.5s-6.83398 19 -15.501 26s-21 12.167 -37 15.5s-36.667 5 -62 5
c-8 0 -17 -0.166992 -27 -0.5s-20 -1.16602 -30 -2.49902l-65 -4c-22.667 -2 -43.334 -3.66699 -62.001 -5s-33.667 -2 -45 -2c-56 0 -103.667 5.5 -143 16.5s-70.5 26.333 -93.5 46s-38 43.334 -45 71.001s-6.16699 58.5 2.5 92.5c9.33301 38 27.833 71.667 55.5 101
s63.334 54 107.001 74s94.5 35.333 152.5 46s122 16 192 16c96.667 0 183.834 -12.333 261.501 -37s143.167 -62 196.5 -112s93.166 -112.833 119.499 -188.5s36.833 -164.167 31.5 -265.5h137l54.5 -72l55.5 -72h-264l-306 -1225l-122 147l290 1078h-162zM427.002 1259
c8 28 12.502 57.833 13.502 89.5s-1 62.5 -6 92.5s-13.333 58.167 -25 84.5s-26.167 48.5 -43.5 66.5c-47.333 46 -111.333 80 -192 102s-176.667 33 -288 33c-68 0 -125.5 -3.66699 -172.5 -11s-85.5 -16.666 -115.5 -27.999s-52.167 -23.5 -66.5 -36.5
s-22.833 -24.833 -25.5 -35.5c-1.33301 -6 -1.33301 -11.5 0 -16.5s5 -9.5 11 -13.5s14.833 -7 26.5 -9s27.167 -3 46.5 -3c8.66699 0 19.167 0.333008 31.5 1s25.666 1.5 39.999 2.5s29.333 2.33301 45 4s31.167 3.16699 46.5 4.5
c23.333 2.66699 44.833 4.83398 64.5 6.50098s33.834 2.5 42.501 2.5c50.667 0 94.5 -6.16699 131.5 -18.5s67.167 -31.833 90.5 -58.5s40.166 -61.334 50.499 -104.001s14.166 -94.334 11.499 -155.001h283z" />
    <glyph glyph-name="uni09C1" unicode="&#x9c1;" 
d="M85 -605c-18 24 -38.8359 49.501 -62.5029 76.501s-48.5 53.5 -74.5 79.5l-78 75c-26 24 -50.667 45 -74 63c-14 -23.333 -30.333 -45 -49 -65s-39.667 -37.5 -63 -52.5s-48.833 -26.833 -76.5 -35.5s-57.167 -13 -88.5 -13c-26.667 0 -51.667 4.83301 -75 14.5
s-43 23.167 -59 40.5s-27.167 38 -33.5 62s-5.83301 50.667 1.5 80c12 49.333 40 91.666 84 126.999c44 34.667 95.333 52 154 52c8.66699 0 19.834 -1 33.501 -3s28.5 -5.66699 44.5 -11s32.833 -12.333 50.5 -21s34.5 -19.667 50.5 -33c2 7.33301 3.83301 17.5 5.5 30.5
s3.33398 27.667 5.00098 44s3.16699 33.333 4.5 51l4 50.5c1.33301 15.333 2.5 29.5 3.5 42.5s1.83301 23.167 2.5 30.5c9.33301 -6.66699 18 -18.167 26 -34.5s14.333 -36.833 19 -61.5c8 -55.333 5 -121 -9 -197c20.667 -16 42.834 -34.667 66.501 -56s47 -43.5 70 -66.5
l65 -67.5c20.333 -22 37.5 -41.333 51.5 -58h-1zM-291.003 -244.999c-5.33301 3.33301 -13.1689 7.00098 -23.502 11.001s-23.166 7.66699 -38.499 11c-30.667 7.33301 -53.667 11 -69 11c-21.333 0 -41.166 -2.66699 -59.499 -8s-34.5 -12 -48.5 -20s-25.5 -17 -34.5 -27
s-14.5 -19.667 -16.5 -29c-5.33301 -20.667 -1.33301 -36.167 12 -46.5s32 -15.5 56 -15.5c36 0 74.667 9.33301 116 28c45.333 19.333 81 46.666 107 81.999z" />
    <glyph glyph-name="uni09C2" unicode="&#x9c2;" 
d="M-163 -382c-42.667 -16.667 -82.832 -28.4951 -120.499 -35.4951s-69.167 -10.5 -94.5 -10.5c-32.667 0 -62.5 4.5 -89.5 13.5s-49.667 21.667 -68 38s-31 36.333 -38 60s-6.83301 50.5 0.5 80.5c4.66699 20.667 14.667 41.834 30 63.501s34.333 41.167 57 58.5
s48.334 31.666 77.001 42.999s59 17 91 17c14 0 29.333 -2.16699 46 -6.5s28.667 -11.5 36 -21.5l11 42c3.33301 19.333 6.66602 41.166 9.99902 65.499s6.33301 44.166 9 59.499c25.333 -10.667 42.5 -37.334 51.5 -80.001s8.16699 -98 -2.5 -166h-124
c-62 0 -114.333 -10 -157 -30c-43.333 -21.333 -67.333 -41 -72 -59c-1.33301 -6 -1.5 -12.333 -0.5 -19s4 -12.834 9 -18.501s12.5 -10.334 22.5 -14.001s23 -5.5 39 -5.5c14.667 0 31.5 1.5 50.5 4.5s38 7 57 12s37.333 10.833 55 17.5s32.5 13.667 44.5 21
c7.33301 0.666992 15.333 1.16699 24 1.5s16.667 0.833008 24 1.5l133.5 -109l133.5 -109c-0.666992 -20 -0.833984 -40 -0.500977 -60s0.5 -40.333 0.5 -61z" />
    <glyph glyph-name="uni09C3" unicode="&#x9c3;" 
d="M-204 -658l-2 3l-1 -5zM-206 -545c0.666992 -8.66699 1.16797 -17.998 1.50098 -27.998s0.5 -20 0.5 -30s-0.166992 -19.5 -0.5 -28.5s-0.833008 -16.833 -1.5 -23.5l-56 53.5l-72 64.5l-81 69.5l-82 68.5l-76.5 61.5l-63.5 48.5
c-0.666992 2.66699 -1.33398 5 -2.00098 7s-1.66699 4.33301 -3 7l360 183l39 53l2 8l10 42.5c3.33301 14.333 4.33301 28.166 3 41.499c36.667 -22.667 52 -82.334 46 -179.001c0 -4 -0.666992 -9.66699 -2 -17l-4 -23c-1.33301 -8 -2.83301 -15.667 -4.5 -23
s-3.16699 -13.333 -4.5 -18l-237 -132l62 -51l64 -54.5l58 -53.5c18 -17.333 33 -33 45 -47h-1z" />
    <glyph glyph-name="uni09C4" unicode="&#x9c4;" 
d="M-305 -866l-3 3l-1 -5zM-308 -753c1.33301 -17.333 2.00195 -36.6689 2.00195 -58.002s-0.666992 -38.666 -2 -51.999l-54 54c-21.333 20.667 -44.833 42.334 -70.5 65.001l-80.5 69.5l-82.5 68.5l-77.5 61l-65 48c-1.33301 2.66699 -2.33301 5 -3 7
s-1.66699 4.33301 -3 7l277 142l-109 87.5c-34 26.333 -63 47.5 -87 63.5c-1.33301 4 -2.66602 8.66699 -3.99902 14l359 183l39 53l2 8l10 42c3.33301 14.667 4.33301 28.334 3 41.001c17.333 -12.667 30.166 -34 38.499 -64s11.166 -68 8.49902 -114
c0 -4 -0.666992 -9.66699 -2 -17s-2.83301 -15 -4.5 -23l-5 -23c-1.66699 -7.33301 -2.83398 -13.333 -3.50098 -18l-237 -132c9.33301 -8.66699 19.833 -17.5 31.5 -26.5l34.5 -27.5l47 -39l46 -40c14.667 -13.333 28 -26.166 40 -38.499s21.667 -23.833 29 -34.5h-1
c0.666992 -8.66699 1.33398 -18.167 2.00098 -28.5s1 -20.5 1 -30.5s-0.166992 -19.5 -0.5 -28.5s-0.833008 -16.833 -1.5 -23.5c-15.333 17.333 -33.333 36.166 -54 56.499s-42 39.833 -64 58.5l-187 -105l29.5 -25.5c10.333 -9 21.166 -17.833 32.499 -26.5l45.5 -39
l48 -41.5c15.667 -13.667 30 -26.834 43 -39.501s23.167 -24 30.5 -34h-1z" />
    <glyph glyph-name="uni09C7" unicode="&#x9c7;" horiz-adv-x="746" 
d="M1091 1115l-58.998 -0.000976562c-74 -0.666992 -145.833 -16.5 -215.5 -47.5s-134.334 -76.833 -194.001 -137.5s-113.334 -136.167 -161.001 -226.5s-86.5 -195.5 -116.5 -315.5c-14.667 -62 -21.667 -114 -21 -156s5.83398 -75.833 15.501 -101.5s22 -44.167 37 -55.5
s29.167 -17.333 42.5 -18c6 -0.666992 16 -0.333984 30 0.999023s26.333 5.33301 37 12c-6 2.66699 -11.667 7.33398 -17 14.001s-9.5 14.334 -12.5 23.001s-5 17.667 -6 27s-0.5 18 1.5 26c8.66699 34 28.667 65 60 93h-1c30.667 26.667 68 40 112 40
c37.333 0 69 -13.333 95 -40c24.667 -27.333 30 -68.333 16 -123c-14 -55.333 -45.333 -100.333 -94 -135c-47.333 -33.333 -101 -50 -161 -50c-56.667 0 -106.334 13.833 -149.001 41.5s-76 68 -100 121s-37 118 -39 195s9.33301 165.167 34 264.5
c30 120 68 220.667 114 302s99.667 150 161 206l45 40h-273l-55.5 71.5l-55.5 72.5h818v1z" />
    <glyph glyph-name="uni09C8" unicode="&#x9c8;" horiz-adv-x="747" 
d="M1032 1115c-74 -0.666992 -145.836 -16.499 -215.503 -47.499s-134.334 -76.833 -194.001 -137.5s-113.334 -136.167 -161.001 -226.5s-86.5 -195.5 -116.5 -315.5c-14.667 -62 -21.667 -114 -21 -156s5.83398 -75.833 15.501 -101.5s22 -44.167 37 -55.5
s29.167 -17.333 42.5 -18c6 -0.666992 16 -0.333984 30 0.999023s26.333 5.33301 37 12c-6 2.66699 -11.667 7.33398 -17 14.001s-9.5 14.334 -12.5 23.001s-5 17.667 -6 27s-0.5 18 1.5 26c8.66699 34 28.667 65 60 93h-1c30.667 26.667 68 40 112 40
c37.333 0 69 -13.333 95 -40c24.667 -27.333 30 -68.333 16 -123s-45 -99.667 -93 -135c-48.667 -33.333 -102.667 -50 -162 -50c-56.667 0 -106.334 13.833 -149.001 41.5s-76 68 -100 121s-37 118 -39 195s9.33301 165.167 34 264.5c30 120 68 220.667 114 302
s99.667 150 161 206h-1c0.666992 0.666992 2.33398 2.16699 5.00098 4.5s4.33398 3.83301 5.00098 4.5l18.5 16.5c5.66699 5 11.5 9.83301 17.5 14.5h-273l-55.5 71.5l-55.5 72.5h684c6 9.33301 11.5 19.333 16.5 30s8.83301 21 11.5 31c4 16.667 2.33301 30.167 -5 40.5
s-17.5 18.333 -30.5 24s-27.333 9.5 -43 11.5s-29.5 3 -41.5 3c-18.667 0 -37.667 -0.833008 -57 -2.5s-39 -3.83398 -59 -6.50098s-40.167 -5 -60.5 -7s-40.833 -3 -61.5 -3c-46 0 -88.167 4.66699 -126.5 14s-70.166 24.666 -95.499 45.999s-42.666 49.166 -51.999 83.499
s-7.66602 76.166 5.00098 125.499c6.66699 28 17.5 54.167 32.5 78.5s33.5 46.833 55.5 67.5c8.66699 -5.33301 17.5 -11.166 26.5 -17.499s17.833 -12.166 26.5 -17.499c-6 -4.66699 -13 -10.5 -21 -17.5s-15.5 -14.333 -22.5 -22s-13.167 -15.5 -18.5 -23.5
s-9 -15.333 -11 -22c-6 -25.333 -5.66699 -46 1 -62s17.667 -28.5 33 -37.5s33.333 -15 54 -18s42 -4.5 64 -4.5c19.333 0 38.5 0.833008 57.5 2.5s37.833 3.83398 56.5 6.50098l55 6c18 2 36 3 54 3c52 0 95.333 -7 130 -21s62 -34.333 82 -61s33.167 -59.334 39.5 -98.001
s6.83301 -82.667 1.5 -132h36l54.5 -72l55.5 -72h-56z" />
    <glyph glyph-name="uni09CB" unicode="&#x9cb;" horiz-adv-x="2110" 
d="M1180 1115c-62.667 -0.666992 -124.998 -11.167 -186.998 -31.5s-121.833 -48.166 -179.5 -83.499s-112.167 -76.666 -163.5 -123.999s-97.666 -98 -138.999 -152s-76.833 -110.333 -106.5 -169s-51.834 -117 -66.501 -175c-4 -16 -7.33301 -35.333 -10 -58
s-3.83398 -46.334 -3.50098 -71.001s2.16602 -49 5.49902 -73s9.33301 -45.5 18 -64.5s20.167 -34.5 34.5 -46.5s32.166 -18 53.499 -18s42.666 3.66699 63.999 11c-9.33301 14.667 -16.166 30.667 -20.499 48s-4.5 34.666 -0.5 51.999
c4.66699 19.333 12.834 37.166 24.501 53.499s25.167 30.333 40.5 42s32.166 20.834 50.499 27.501s36.833 10 55.5 10c22.667 0 42.334 -4.16699 59.001 -12.5s29.834 -19.666 39.501 -33.999s15.667 -31.5 18 -51.5s0.5 -41.667 -5.5 -65
c-14.667 -56.667 -46.667 -102 -96 -136c-25.333 -15.333 -51.333 -27.333 -78 -36s-53.334 -13 -80.001 -13c-35.333 0 -67.666 5 -96.999 15s-55.5 23.667 -78.5 41s-43.167 38 -60.5 62s-31.333 50 -42 78c-10 28.667 -17.667 59 -23 91s-8.33301 64.667 -9 98
s0.833008 66.5 4.5 99.5s9.16699 64.5 16.5 94.5c28 113.333 74.167 220.166 138.5 320.499s148.166 190.5 251.499 270.5h-360v-1l-56 72.5l-56 72.5h937zM2326 1115c-17.333 0 -34.002 3.50293 -50.002 10.5029s-26.333 17.167 -31 30.5l-10 -8l-141.5 -629.5
l-141.5 -628.5l-61 73.5l-60 73.5l187 750c10.667 42 14.834 82.5 12.501 121.5s-10 73.667 -23 104s-31.333 54.666 -55 72.999s-51.5 28.166 -83.5 29.499l-48.5 72l-47.5 72c56.667 0 103.834 -1.83301 141.501 -5.5s68.167 -15.334 91.5 -35.001s41 -50.834 53 -93.501
s20.667 -103 26 -181l14 6c0 18 1.33301 38.167 4 60.5s6.33398 46.5 11 72.5c0.666992 2 0.833984 3.83301 0.5 5.5c-0.333008 1.66699 -0.166016 3.5 0.5 5.5c4 23.333 7.33301 43.833 10 61.5s5.66699 34.167 9 49.5l35.5 147l35.5 147l28 -32.5
c9.33301 -10.333 18.333 -21.166 27 -32.499c-13.333 -69.333 -11.333 -115.333 6 -138c16 -24.667 43 -37 81 -37h25l53.5 -72l54.5 -72h-154z" />
    </font>
</defs>
</svg>
