<?xml version="1.0" standalone="no"?>
<!DOCTYPE svg PUBLIC "-//W3C//DTD SVG 1.1//EN" "http://www.w3.org/Graphics/SVG/1.1/DTD/svg11.dtd" >
<svg>
<metadata>
Created by FontForge 20090914 at Tue Jan 31 10:51:07 2017
 By www-data
Copyright (c) 2017 by Prothom Alo @ 2017. All rights reserved.
</metadata>
<defs>
<font id="Kiron-Bold" horiz-adv-x="0" >
  <font-face 
    font-family="Kiron"
    font-weight="700"
    font-stretch="normal"
    units-per-em="2048"
    panose-1="2 11 5 2 4 5 4 2 2 4"
    ascent="1638"
    descent="-410"
    x-height="772"
    cap-height="1157"
    bbox="-1333 -1507 2490 4150"
    underline-thickness="102"
    underline-position="-103"
    unicode-range="U+0020-U+25CC"
  />
<missing-glyph horiz-adv-x="709" 
 />
    <glyph glyph-name=".notdef" horiz-adv-x="709" 
 />
    <glyph glyph-name="space" unicode=" " horiz-adv-x="696" 
 />
    <glyph glyph-name="exclam" unicode="!" horiz-adv-x="758" 
d="M362 17c0 17.333 3.5 33.666 10.5 48.999s16.167 28.666 27.5 39.999s24.666 20.333 39.999 27s31.666 10 48.999 10c16.667 0 32.5 -3.33301 47.5 -10s28.333 -15.667 40 -27s20.834 -24.666 27.501 -39.999s10 -31.666 10 -48.999c0 -16.667 -3.33301 -32.5 -10 -47.5
s-15.834 -28.333 -27.501 -40s-25 -20.834 -40 -27.501s-30.833 -10 -47.5 -10c-17.333 0 -33.666 3.33301 -48.999 10s-28.666 15.834 -39.999 27.501s-20.5 25 -27.5 40s-10.5 30.833 -10.5 47.5zM448 235l-28.5 344.5l-28.5 343.5
c-0.666992 8.66699 -1.16699 16.667 -1.5 24s-0.5 14.666 -0.5 21.999c0 54 9.16699 91.333 27.5 112s42.5 31 72.5 31c27.333 0 50.5 -12.167 69.5 -36.5s28.5 -64.5 28.5 -120.5v-15.5c0 -5.66699 -0.333008 -11.167 -1 -16.5l-14 -148.5l-14 -152.5l-4 -46l-4 -46
l-6.5 -63.5c-2.33301 -22.333 -4.5 -44.166 -6.5 -65.499l-11.5 -119.5l-10.5 -110.5z" />
    <glyph glyph-name="quotedbl" unicode="&#x22;" horiz-adv-x="683" 
d="M444 629l-20.4961 158c-5.66699 44 -10.334 81.5 -14.001 112.5s-6.5 56.5 -8.5 76.5s-3.66699 36 -5 48c-1.33301 14.667 -2.5 25.5 -3.5 32.5s-2.16699 13.167 -3.5 18.5c0.666992 20.667 3.66699 38 9 52s12.166 25.333 20.499 34s17.666 14.834 27.999 18.501
s20.5 5.5 30.5 5.5c21.333 0 37.666 -2.33301 48.999 -7s19.666 -10.834 24.999 -18.501s8.5 -16.5 9.5 -26.5s1.5 -20 1.5 -30c-2.66699 -48 -6.5 -96.667 -11.5 -146s-10.5 -97 -16.5 -143c-3.33301 -28 -6.66602 -58.5 -9.99902 -91.5s-6.33301 -64.167 -9 -93.5h-71z
M297.004 1074c0 -28.667 -1.83203 -58.1719 -5.49902 -88.5049s-7.83398 -61.833 -12.501 -94.5c-1.33301 -11.333 -3 -22.833 -5 -34.5s-3.66699 -23.5 -5 -35.5c-1.33301 -13.333 -2.83301 -27.166 -4.5 -41.499s-3.16699 -28.833 -4.5 -43.5l-6 -55.5l-6 -51.5h-69
l-22.5 188.5l-22.5 188.5v4.5c0 1.66699 -0.333008 3.16699 -1 4.5c-1.33301 6.66699 -2.66602 13.834 -3.99902 21.501s-2 13.834 -2 18.501c0 34 3.33301 60 10 78s14.667 30.833 24 38.5s18.666 11.834 27.999 12.501s17 1 23 1c28 0 49.167 -8.16699 63.5 -24.5
s21.5 -45.166 21.5 -86.499z" />
    <glyph glyph-name="numbersign" unicode="#" horiz-adv-x="1179" 
d="M636 401c1.33301 3.33301 2.50195 7.49805 3.50195 12.498s2.16699 9.16699 3.5 12.5c5.33301 19.333 10.333 38.5 15 57.5s10 38.167 16 57.5c5.33301 16.667 10 32.334 14 47.001l12 44l6.5 23.5c2.33301 8.33301 4.5 16.5 6.5 24.5h-163
c-3.33301 -13.333 -7 -27.166 -11 -41.499l-12 -42.5c-3.33301 -10 -6.33301 -19.833 -9 -29.5l-8 -28.5c-0.666992 -2.66699 -1.33398 -5 -2.00098 -7s-1.33398 -4.33301 -2.00098 -7v1l-17 -62l-16 -62h163zM143.002 400.998l196.005 -0.000976562
c2.66699 9.33301 5 18.833 7 28.5l6 28.5l10.5 42c3.66699 14 7.5 27.667 11.5 41l9.5 35c3 10.667 6.16699 21.334 9.5 32.001s6.66602 22 9.99902 34s6.66602 24.667 9.99902 38h-190c3.33301 15.333 6.5 31 9.5 47s6.16699 31.667 9.5 47h193l24.5 89.5l26.5 93.5
c6.66699 22.667 13 45.5 19 68.5l18 67.5c3.33301 11.333 6.16602 22.5 8.49902 33.5s4.83301 21.167 7.5 30.5h145l-109 -383h161l12.5 48l13.5 51l12.5 42.5c4.33301 14.333 8.16602 28.5 11.499 42.5v-1c6.66699 22.667 13 45.5 19 68.5l18 67.5
c3.33301 11.333 6.16602 22.5 8.49902 33.5s4.83301 21.167 7.5 30.5h142l-108 -383h191c-3.33301 -15.333 -6.5 -31 -9.5 -47s-6.16699 -31.667 -9.5 -47h-194l-10.5 -37l-11.5 -38l-9.5 -33.5c-3 -11 -6.16699 -21.833 -9.5 -32.5c-7.33301 -24 -14 -47.167 -20 -69.5
l-19 -68.5h194c-4 -15.333 -7.66699 -31.333 -11 -48s-7 -32.667 -11 -48h-195l-12 -46l-12 -48c-3.33301 -14.667 -7 -29.334 -11 -44.001l-12 -44l-28.5 -102.5l-25.5 -95.5h-141l106 380h-162c-4.66699 -17.333 -9.33398 -35.666 -14.001 -54.999s-9.66699 -39 -15 -59v1
l-36.5 -139.5c-12.333 -47 -24.166 -89.5 -35.499 -127.5h-141l104 380h-188z" />
    <glyph glyph-name="dollar" unicode="$" horiz-adv-x="1024" 
d="M179 282c7.33301 -34.667 17.8301 -67.6641 31.4971 -98.9971s26.834 -56.666 39.501 -75.999c22.667 -30.667 52.167 -55 88.5 -73s78.5 -28.333 126.5 -31v493c-52.667 31.333 -98 60.166 -136 86.499s-68.667 50.166 -92 71.499c-64 60 -96 133 -96 219
c-1.33301 34 5.83398 67.5 21.501 100.5s38.834 64.833 69.501 95.5c29.333 26.667 63.5 48.167 102.5 64.5s82.5 25.833 130.5 28.5v115h90v-115c26.667 -1.33301 52.667 -4.33301 78 -9s50 -10.334 74 -17.001c52 -16.667 99 -43 141 -79v-222h-55
c-6 40.667 -16.833 76.834 -32.5 108.501s-35.167 56.167 -58.5 73.5v-1c-20 20 -42.667 35.667 -68 47s-51.666 18 -78.999 20v-425l83.5 -47.5c27 -15.667 52.167 -31 75.5 -46s44.666 -29.667 63.999 -44s35.333 -27.833 48 -40.5c26.667 -29.333 46.5 -62 59.5 -98
s20.167 -78 21.5 -126c0 -34.667 -6.33301 -70.334 -19 -107.001c-8 -24.667 -20.5 -48.334 -37.5 -71.001s-36.167 -43 -57.5 -61c-18 -15.333 -37.5 -28.166 -58.5 -38.499s-42.167 -19.5 -63.5 -27.5c-20.667 -8.66699 -40.334 -14.834 -59.001 -18.501
s-37.667 -6.16699 -57 -7.5v-160h-90v160c-39.333 1.33301 -74 3.83301 -104 7.5s-56.667 9.83398 -80 18.501c-11.333 3.33301 -25.166 9 -41.499 17l-54.5 27c-3.33301 1.33301 -7.5 3.16602 -12.5 5.49902l-13.5 6.5c-4 2 -9.33301 5 -16 9s-12 7 -16 9v257h52z
M654.997 49.0029c28 18.667 48.168 42 60.501 70s19.5 61 21.5 99c0 26 -5.66699 51 -17 75s-26 45.333 -44 64c-14 13.333 -31.167 27.833 -51.5 43.5s-43.5 31.167 -69.5 46.5v-441c20.667 5.33301 39.667 12 57 20s31.666 15.667 42.999 23zM461.998 1081
c-19.333 -4 -39.1689 -10.832 -59.502 -20.499s-37.166 -21.167 -50.499 -34.5c-15.333 -16 -27.166 -34 -35.499 -54s-12.5 -41.333 -12.5 -64c0 -22 5.33301 -44.167 16 -66.5s27.667 -44.5 51 -66.5c9.33301 -9.33301 21.833 -19.833 37.5 -31.5
s33.5 -23.834 53.5 -36.501v374z" />
    <glyph glyph-name="percent" unicode="%" horiz-adv-x="1563" 
d="M532 1157c14.667 0 27.5 -0.666016 38.5 -1.99902s21.333 -3.33301 31 -6s18.834 -5.83398 27.501 -9.50098s18 -7.83398 28 -12.501c7.33301 -6 14.5 -12.333 21.5 -19s14.167 -13 21.5 -19v1c6.66699 -6 15 -11.167 25 -15.5s20.667 -7.66602 32 -9.99902s23 -4 35 -5
s23.333 -1.5 34 -1.5c25.333 0 49.666 2.16699 72.999 6.5s46.166 11.5 68.499 21.5s44.833 23.167 67.5 39.5s46 36.166 70 59.499h103l-176.5 -314l-184 -329l-184 -329l-176.5 -314h-115l623 1119l-15 23c-10 -13.333 -19 -23.5 -27 -30.5s-16.833 -12.333 -26.5 -16
s-21.167 -5.83398 -34.5 -6.50098s-30 -1 -50 -1c-25.333 0 -48 1 -68 3s-32.667 4.33301 -38 7c0 -4.66699 0.166992 -8.5 0.5 -11.5s0.833008 -5.83301 1.5 -8.5c0.666992 -3.33301 1.33398 -6.16602 2.00098 -8.49902s1 -5.16602 1 -8.49902v-30
c0 -36 -4.5 -72.833 -13.5 -110.5s-21.667 -74.334 -38 -110.001s-36 -69.167 -59 -100.5s-48.667 -58.833 -77 -82.5s-59 -42.334 -92 -56.001s-67.5 -20.5 -103.5 -20.5c-29.333 0 -57.833 5.83301 -85.5 17.5s-52.334 28.834 -74.001 51.501s-39.167 50.167 -52.5 82.5
s-20 69.5 -20 111.5c0 34 5.16699 68.667 15.5 104s24.833 69.5 43.5 102.5s40.667 63.833 66 92.5s53 53.834 83 75.501s61.833 38.667 95.5 51s67.834 18.5 102.501 18.5zM957 487.001c44 48 89.6641 83.3359 136.997 106.003s96 34 146 34c26 0 51.667 -3.33301 77 -10
s47.833 -18.834 67.5 -36.501s35.5 -41.334 47.5 -71.001s18 -67.5 18 -113.5c0 -28.667 -4 -60.334 -12 -95.001s-19.667 -69.5 -35 -104.5s-34 -68.833 -56 -101.5s-47.167 -61.834 -75.5 -87.501s-59.666 -46.167 -93.999 -61.5s-71.166 -23 -110.499 -23
c-32 0 -62.333 4.83301 -91 14.5s-53.667 25.5 -75 47.5c-25.333 22.667 -43.166 50.834 -53.499 84.501s-15.5 73.167 -15.5 118.5c0 53.333 9.83301 104.5 29.5 153.5s51.5 97.5 95.5 145.5zM1287 144.004c56 90 84.001 175.003 84.001 255.003
c0 49.333 -10 85.333 -30 108c-12 10.667 -24.833 19.167 -38.5 25.5s-29.167 9.5 -46.5 9.5c-22 0 -43.5 -7.5 -64.5 -22.5s-41 -34.5 -60 -58.5s-36.667 -51.333 -53 -82s-30.333 -61.834 -42 -93.501s-20.834 -62.334 -27.501 -92.001s-10 -55.834 -10 -78.501
c0 -34 9.16699 -60.333 27.5 -79s44.5 -28 78.5 -28c68 0 128.667 45.333 182 136zM579.998 669.007c28.667 42.667 50.335 87.334 65.002 134.001s22 95 22 145c0 19.333 -1.5 35 -4.5 47s-5.5 18.667 -7.5 20l-36 18c0 -2 0.333008 -3.33301 1 -4
c-4 1.33301 -10.333 4 -19 8s-17.334 8.5 -26.001 13.5s-16.334 9.83301 -23.001 14.5s-10 8.33398 -10 11.001c-17.333 -0.666992 -35.5 -8.16699 -54.5 -22.5s-37.667 -33 -56 -56s-36 -49.167 -53 -78.5s-31.833 -59.5 -44.5 -90.5s-22.667 -61.833 -30 -92.5
s-11 -58.334 -11 -83.001c0 -32.667 7.66699 -59.167 23 -79.5s40.333 -30.5 75 -30.5c33.333 0 65.333 9.66699 96 29s61.667 51.666 93 96.999z" />
    <glyph glyph-name="ampersand" unicode="&#x26;" horiz-adv-x="1338" 
d="M900 190c1.33301 -1.33301 3.33301 -2.66699 6 -4l1 4h-7zM385 625.999c-0.666992 0.666992 -1.66895 2.66797 -3.00195 6.00098s-2.33301 5.66602 -3 6.99902l-20.5 52.5c-8.33301 21.667 -14.833 43.834 -19.5 66.501c-2 8.66699 -4 18 -6 28s-4 19.333 -6 28
c0 -2 -0.166992 -1.83301 -0.5 0.5s-0.666016 5.33301 -0.999023 9s-0.666016 7.66699 -0.999023 12s-0.5 7.83301 -0.5 10.5c-0.666992 5.33301 -1.16699 10.166 -1.5 14.499s-0.5 8.5 -0.5 12.5c0 40.667 7.16699 79.834 21.5 117.501s34.333 70.834 60 99.501
s56.334 51.667 92.001 69s75.167 26 118.5 26c37.333 0 72.166 -5.5 104.499 -16.5s60.333 -26.667 84 -47s42.334 -45.166 56.001 -74.499s20.5 -62.333 20.5 -99c0 -39.333 -8.5 -75.333 -25.5 -108s-39 -62.334 -66 -89.001s-57.167 -50.167 -90.5 -70.5
s-66 -37.833 -98 -52.5c18.667 -37.333 35.834 -69.5 51.501 -96.5s30.834 -51.667 45.501 -74s29.667 -44 45 -65l51 -68.5l14 -18.5l15 -20.5c58 73.333 98.167 135 120.5 185s33.5 90.667 33.5 122c0 22 -6.66699 36.5 -20 43.5s-31.666 13.167 -54.999 18.5l-12 4
c-1.33301 -1.33301 -5.33301 -1.16602 -12 0.500977s-13 3.5 -19 5.5v66h421v-67c-26.667 -2 -49.167 -5.5 -67.5 -10.5s-34 -11.833 -47 -20.5s-24 -18.834 -33 -30.501s-17.5 -24.834 -25.5 -39.501c-16 -32 -30 -58.833 -42 -80.5s-23.167 -40.667 -33.5 -57l-30 -45.5
l-32.5 -45l-38 -51c-14 -18.667 -30.333 -41.667 -49 -69c2 -3.33301 4.66699 -7.33301 8 -12s7.33301 -8.66699 12 -12h-2c3.33301 -4.66699 6.66602 -7 9.99902 -7l64.5 -51.5c19.667 -15 38.834 -28 57.501 -39s37 -19.333 55 -25s37.333 -8.5 58 -8.5
c15.333 0 28.666 0.666992 39.999 2s22.666 5.16602 33.999 11.499s24 16.666 38 30.999s31.333 34.5 52 60.5l22 -20l22 -20c-1.33301 -9.33301 -5.83301 -21 -13.5 -35s-16.667 -28.333 -27 -43s-21.333 -28.5 -33 -41.5s-21.834 -22.833 -30.501 -29.5
c-22.667 -23.333 -49.334 -41.833 -80.001 -55.5s-67.334 -20.5 -110.001 -20.5c-27.333 0 -52.5 2.83301 -75.5 8.5s-46 15 -69 28s-47.333 29.833 -73 50.5s-54.5 46.334 -86.5 77.001c-33.333 -30.667 -65.666 -56.334 -96.999 -77.001s-63 -37.5 -95 -50.5
s-64.833 -22.333 -98.5 -28s-69.167 -8.5 -106.5 -8.5c-49.333 0 -94.166 6.66699 -134.499 20s-74.833 32.833 -103.5 58.5s-50.667 56.834 -66 93.501s-23 78.667 -23 126c0 42 6.66699 81.333 20 118s32.666 71.334 57.999 104.001s56.333 63.667 93 93
s78 57.666 124 84.999zM562.998 54c21.333 9.33301 42.3311 19.999 62.998 31.999s40.334 25.667 59.001 41c-26.667 34 -50.667 66.5 -72 97.5s-37.666 56.167 -48.999 75.5c-13.333 17.333 -32.333 46 -57 86s-52.667 92.333 -84 157c-36 -22.667 -66.333 -45 -91 -67
s-44.667 -44.333 -60 -67s-26.333 -46.167 -33 -70.5s-10 -50.166 -10 -77.499c0 -32 5.5 -62.167 16.5 -90.5s26.167 -53.333 45.5 -75s42.5 -38.667 69.5 -51s56.167 -18.5 87.5 -18.5c13.333 0 30 2.33301 50 7s41.667 11.667 65 21zM675.996 796.999
c25.333 25.333 44 50.667 56 76s18 53 18 83c0 43.333 -11.833 77.333 -35.5 102s-54.167 37 -91.5 37c-42 0 -73.833 -13 -95.5 -39s-32.5 -61 -32.5 -105c0 -32.667 6.16699 -69 18.5 -109s28.166 -81.667 47.499 -125c6.66699 4.66699 13.834 9.16699 21.501 13.5
s14.5 8.5 20.5 12.5l36.5 24c13 8.66699 25.167 18.667 36.5 30z" />
    <glyph glyph-name="quotesingle" unicode="'" horiz-adv-x="411" 
d="M272 1153c8 -10 12.498 -20.498 13.498 -31.498s1.16699 -23.5 0.5 -37.5v-21c0 -1.33301 -0.166992 -3.83301 -0.5 -7.5l-2.5 -27.5c-1.33301 -11.333 -3 -26.5 -5 -45.5l-8 -76l-12 -115.5l-17 -162h-60c-7.33301 62 -15.166 124.833 -23.499 188.5
s-16.166 126.5 -23.499 188.5c0 3.33301 -0.166992 7.5 -0.5 12.5s-0.833008 9.16699 -1.5 12.5c-1.33301 7.33301 -2.5 15.666 -3.5 24.999s-1.5 21.666 -1.5 36.999v14c0 22 6.33301 40.5 19 55.5s32.334 22.5 59.001 22.5c33.333 0 55.666 -10.667 66.999 -32z" />
    <glyph glyph-name="parenleft" unicode="(" horiz-adv-x="950" 
d="M640 -354c-74.667 55.333 -143.667 117.336 -207 186.003s-118.333 144.334 -165 227.001c-94 164.667 -141 328 -141 490c0 79.333 12.333 160.666 37 243.999s59.334 165 104.001 245c22 38 47.167 76.167 75.5 114.5s58.666 75.5 90.999 111.5
s65.833 70.167 100.5 102.5s69.667 61.166 105 86.499h102c-76.667 -72.667 -141.667 -145.5 -195 -218.5s-96.833 -146.667 -130.5 -221s-58 -150.166 -73 -227.499s-22.5 -156.333 -22.5 -237c0 -81.333 7.5 -160.333 22.5 -237s39.333 -152.334 73 -227.001
s77.167 -148.334 130.5 -221.001s118.333 -145.334 195 -218.001h-102z" />
    <glyph glyph-name="parenright" unicode=")" horiz-adv-x="916" 
d="M324 1453c74 -53.333 142.5 -115.335 205.5 -186.002s117.5 -146 163.5 -226s81.833 -162 107.5 -246s38.5 -166 38.5 -246s-12.667 -162 -38 -246s-60.833 -165.667 -106.5 -245s-100 -154.333 -163 -225s-132.167 -133 -207.5 -187h-101
c76.667 72.667 141.834 145.334 195.501 218.001s97.167 146.334 130.5 221.001s57.5 150.334 72.5 227.001s22.5 155.667 22.5 237c0 80.667 -7.5 159.667 -22.5 237s-39.167 153.166 -72.5 227.499s-76.833 148 -130.5 221s-118.834 145.833 -195.501 218.5h101z" />
    <glyph glyph-name="asterisk" unicode="*" horiz-adv-x="936" 
d="M229 734c37.333 8.66699 71.6641 17.8311 102.997 27.498s58.666 20.167 81.999 31.5c-8 3.33301 -18.667 7.33301 -32 12l-42 14c-23.333 7.33301 -47.5 15.5 -72.5 24.5s-47.833 18.833 -68.5 29.5s-37.834 22.5 -51.501 35.5s-20.5 27.167 -20.5 42.5
c0 23.333 7.83301 42.333 23.5 57s33.167 22 52.5 22c11.333 0 22.166 -3.83301 32.499 -11.5s22.5 -17.834 36.5 -30.501c3.33301 -2.66699 6.5 -5.5 9.5 -8.5l9.5 -9.5v1c17.333 -17.333 38 -36.5 62 -57.5s53.333 -42.167 88 -63.5c-1.33301 23.333 -4.83301 49 -10.5 77
s-11.5 54.333 -17.5 79c-1.33301 4.66699 -2.5 9.16699 -3.5 13.5s-2.16699 8.83301 -3.5 13.5l-9 36.5c-2.66699 11 -4 20.5 -4 28.5c0 5.33301 1.16699 12.833 3.5 22.5s6.33301 19.334 12 29.001s13.667 18 24 25s23.5 10.5 39.5 10.5
c23.333 0 42.166 -8.16699 56.499 -24.5s21.5 -37.166 21.5 -62.499c0 -5.33301 -1 -13.333 -3 -24s-4.66699 -21.334 -8 -32.001c0 -2 -0.666992 -4.33301 -2 -7c-6 -21.333 -12.333 -47.666 -19 -78.999s-11.667 -67 -15 -107l22.5 17.5l23.5 17.5l27 20l41 41l35 38
c10 10.667 19.5 19.667 28.5 27s17.833 13 26.5 17s18 6.66699 28 8c12.667 0 23.5 -1.83301 32.5 -5.5s17.167 -11.167 24.5 -22.5c8 -7.33301 13.833 -15.166 17.5 -23.499s5.5 -19.166 5.5 -32.499c0 -20.667 -7.66699 -39 -23 -55s-38.333 -27 -69 -33
c-74.667 -14 -139.334 -36.667 -194.001 -68c10 -7.33301 22.333 -14.166 37 -20.499s30.667 -12 48 -17s35.5 -9.66699 54.5 -14s37.833 -8.16602 56.5 -11.499h-1c26.667 -7.33301 49 -18.833 67 -34.5s27 -35.167 27 -58.5c0 -24.667 -8.5 -43.834 -25.5 -57.501
s-36.167 -20.5 -57.5 -20.5c-19.333 0 -38.833 8.5 -58.5 25.5s-41.167 37.167 -64.5 60.5l-6 6c-16 17.333 -32.833 34.333 -50.5 51s-35.167 29.667 -52.5 39c1.33301 -36 5.5 -69.167 12.5 -99.5s13.5 -56.5 19.5 -78.5c0.666992 -2.66699 1.33398 -5.16699 2.00098 -7.5
s1.33398 -4.16602 2.00098 -5.49902c0.666992 -2 1.16699 -4.16699 1.5 -6.5s0.833008 -4.16602 1.5 -5.49902c3.33301 -8.66699 6 -16.667 8 -24s3 -14.333 3 -21c0 -20 -8 -40 -24 -60h1c-9.33301 -10 -19.666 -17 -30.999 -21s-24.333 -6 -39 -6
c-10 0 -19.167 1.83301 -27.5 5.5s-14.833 9.16699 -19.5 16.5c-8.66699 9.33301 -15 20 -19 32s-6 23 -6 33l4 13.5l4 13.5l16 61c5.33301 21.333 10 42.166 14 62.499s7.33301 39.166 10 56.499s4.33398 31.666 5.00098 42.999c-20 -12.667 -39.667 -27.334 -59 -44.001
s-37.666 -33.334 -54.999 -50.001l-4.5 -4.5c-1.66699 -1.66699 -5.16699 -4.5 -10.5 -8.5c-3.33301 -2.66699 -6.16602 -5.5 -8.49902 -8.5s-5.16602 -5.83301 -8.49902 -8.5c-17.333 -16.667 -33.333 -30.5 -48 -41.5s-28.667 -16.5 -42 -16.5
c-29.333 0 -49.666 7 -60.999 21s-17 31.333 -17 52c0 25.333 7.33301 45.333 22 60s40.667 27.334 78 38.001h2z" />
    <glyph glyph-name="plus" unicode="+" horiz-adv-x="1191" 
d="M524 873h154v-396h396v-155h-396v-397h-154v397h-398v155h398v396z" />
    <glyph glyph-name="comma" unicode="," horiz-adv-x="580" 
d="M57 -291c36.667 19.333 69.3291 39.3311 97.9961 59.998s52.834 41 72.501 61s34.667 39 45 57s15.5 34 15.5 48c0 8.66699 -1.66699 18.5 -5 29.5s-7 20.167 -11 27.5c-11.333 -9.33301 -21.833 -15.333 -31.5 -18s-19.834 -4 -30.501 -4
c-16 0 -31.167 2.83301 -45.5 8.5s-27.166 13.834 -38.499 24.501s-20.333 23 -27 37s-10 29.667 -10 47c0 20 3.66699 37.667 11 53s17 28.166 29 38.499s25.833 18 41.5 23s31.834 7.5 48.501 7.5c22.667 0 45.334 -5.33301 68.001 -16s43.167 -26 61.5 -46
s33.333 -44.167 45 -72.5s17.5 -59.833 17.5 -94.5c0 -61.333 -25.667 -121.666 -77 -180.999h1c-53.333 -57.333 -115.666 -99.666 -186.999 -126.999z" />
    <glyph glyph-name="hyphen" unicode="-" horiz-adv-x="797" 
d="M100 558h607v-174h-607v174z" />
    <glyph glyph-name="period" unicode="." horiz-adv-x="500" 
d="M127 44c0 18 3.33301 34.667 10 50s15.834 28.5 27.501 39.5s25 19.667 40 26s30.833 9.5 47.5 9.5s32.667 -3.16699 48 -9.5s28.833 -15 40.5 -26s20.834 -24.167 27.501 -39.5s10 -32 10 -50s-3.33301 -34.833 -10 -50.5s-15.834 -29 -27.501 -40
s-25.167 -19.667 -40.5 -26s-31.333 -9.5 -48 -9.5s-32.5 3.16699 -47.5 9.5s-28.333 15 -40 26s-20.834 24.333 -27.501 40s-10 32.5 -10 50.5z" />
    <glyph glyph-name="slash" unicode="/" horiz-adv-x="769" 
d="M-51 -322l149.5 471.5l151.5 476l151 476l149 471.5h198l-148.5 -469.5l-151.5 -478l-151.5 -478l-148.5 -469.5h-199z" />
    <glyph glyph-name="zero" unicode="0" horiz-adv-x="1066" 
d="M712 121c15.333 47.333 27.1699 104.503 35.5029 171.503s13.166 146.167 14.499 237.5c0 69.333 -2.33301 132.833 -7 190.5s-11.667 108.5 -21 152.5c-9.33301 34 -20.5 65 -33.5 93s-27.833 51.833 -44.5 71.5s-34.667 35 -54 46s-40 16.5 -62 16.5
c-44 0 -82.5 -19.5 -115.5 -58.5s-58.167 -97.5 -75.5 -175.5v1c-11.333 -42.667 -19.333 -93 -24 -151s-7 -123 -7 -195c0 -66.667 2.33301 -127.334 7 -182.001s12.667 -101.334 24 -140.001v1c17.333 -70.667 42.666 -123.834 75.999 -159.501s74 -53.5 122 -53.5
c38 -1.33301 70.667 9.66699 98 33s49.666 57 66.999 101zM874.004 955.003c30.667 -58.667 53.5 -121.832 68.5 -189.499s22.5 -139.834 22.5 -216.501c1.33301 -60 -2.5 -118.167 -11.5 -174.5s-23.167 -111.166 -42.5 -164.499
c-69.333 -201.333 -193.666 -302 -372.999 -302c-28.667 -0.666992 -56.834 2.83301 -84.501 10.5s-54.334 18.667 -80.001 33s-50.167 31.833 -73.5 52.5s-44.333 43.667 -63 69c-38 58 -67.833 126.833 -89.5 206.5s-32.5 167.167 -32.5 262.5c0 74 7 145.167 21 213.5
s34.333 130.833 61 187.5c38 70.667 86.333 127.167 145 169.5s126.334 64.166 203.001 65.499c143.333 0 253 -74.333 329 -223z" />
    <glyph glyph-name="one" unicode="1" horiz-adv-x="900" 
d="M547 1176l-0.00195312 -1101c0 -20.667 3 -37.667 9 -51s12.667 -21.666 20 -24.999c22.667 -10.667 71.334 -17 146.001 -19v-55h-530v55c26 1.33301 51.333 4.66602 76 9.99902s48.667 12 72 20c7.33301 2.66699 13.333 13 18 31s7 38 7 60v822
c0 20.667 -4.16699 37.667 -12.5 51s-18.166 20.666 -29.499 21.999c-10.667 0 -27.5 -3.66699 -50.5 -11s-54.5 -20 -94.5 -38v52l169.5 88.5l169.5 88.5h30z" />
    <glyph glyph-name="two" unicode="2" horiz-adv-x="1000" 
d="M782 113l1 -2l4 2l-2 3zM72 -35l-1.00293 -0.99707l269.5 291c76.333 84 134.833 153.333 175.5 208c35.333 51.333 63 102.5 83 153.5s30 100.5 30 148.5c1.33301 40 -4.16699 76.167 -16.5 108.5s-29.166 59.166 -50.499 80.499c-20.667 21.333 -44 37.666 -70 48.999
s-55.667 17 -89 17c-78.667 0 -141 -28.333 -187 -85h1c-11.333 -12 -23.5 -31.167 -36.5 -57.5s-27.167 -59.5 -42.5 -99.5l-33 6l-33 6c16.667 74.667 38.334 137.667 65.001 189s57 91 91 119c37.333 27.333 75.833 48 115.5 62s80.5 21 122.5 21
c53.333 0 100.666 -7.83301 141.999 -23.5s79 -40.5 113 -74.5s58.333 -70.833 73 -110.5s22 -83.834 22 -132.501c0 -48 -8.83301 -97.333 -26.5 -148s-42.5 -98 -74.5 -142l-161 -185.5c-69.333 -78.333 -153.666 -168.5 -252.999 -270.5h370c48 0 85.333 5.66699 112 17
l1 -1c10.667 8.66699 22.834 22 36.501 40s28.167 39.667 43.5 65c8.66699 -3.33301 16.667 -6.83301 24 -10.5s15.333 -7.16699 24 -10.5l-52.5 -134.5l-52.5 -134.5h-735v40z" />
    <glyph glyph-name="three" unicode="3" horiz-adv-x="1011" 
d="M353 56c28 -16.667 52.1699 -29.1689 72.5029 -37.502s39.166 -12.5 56.499 -12.5c38.667 0 72.334 7.66699 101.001 23s52.667 35 72 59s33.833 51 43.5 81s14.5 60 14.5 90c0 41.333 -7.33301 78.833 -22 112.5s-35.5 62.334 -62.5 86.001s-59.833 42 -98.5 55
s-82.334 19.5 -131.001 19.5h-20.5c-5 0 -9.5 -0.5 -13.5 -1.5s-8 -2.33301 -12 -4s-9.33301 -4.16699 -16 -7.5v61c46.667 17.333 88.667 35.333 126 54s69.333 39.334 96 62.001s47.167 47.667 61.5 75s21.5 58.333 21.5 93c0 32 -6 59.5 -18 82.5s-27.5 42 -46.5 57
s-40.333 26.167 -64 33.5s-46.834 11 -69.501 11c-30 0 -58.5 -6 -85.5 -18s-53.5 -28.667 -79.5 -50c-10.667 -13.333 -23.167 -30.666 -37.5 -51.999l-51.5 -79c-8 2 -16.167 4.16699 -24.5 6.5s-16.5 4.5 -24.5 6.5c12.667 48.667 31 92.834 55 132.501
s52.333 73.667 85 102s68.834 50.166 108.501 65.499s81.5 23 125.5 23c48 0 90.667 -8 128 -24s68.5 -36.5 93.5 -61.5s44 -52.833 57 -83.5s19.5 -61 19.5 -91c0 -24.667 -2.33301 -47.167 -7 -67.5s-12.834 -39.833 -24.501 -58.5s-27.5 -37.334 -47.5 -56.001
s-45 -39 -75 -61c35.333 -16 66.5 -35.667 93.5 -59s49.833 -49.166 68.5 -77.499s32.667 -58.666 42 -90.999s14 -65.833 14 -100.5c0 -56 -11.5 -110.5 -34.5 -163.5s-56.833 -100.333 -101.5 -142s-99.667 -75 -165 -100s-140.333 -37.5 -225 -37.5
c-40.667 0 -74.5 3.33301 -101.5 10s-48.5 15.5 -64.5 26.5s-27.333 23.667 -34 38s-10 29.166 -10 44.499c0 23.333 6.83301 42.166 20.5 56.499s32.167 21.5 55.5 21.5c17.333 0 37.166 -3.83301 59.499 -11.5s47.833 -21.167 76.5 -40.5z" />
    <glyph glyph-name="four" unicode="4" horiz-adv-x="1066" 
d="M585 930l-69 -97.5l-71 -99.5l-27.5 -38.5l-27.5 -37.5l-40.5 -57l-39.5 -55l-59.5 -83l-61.5 -87h396v555zM650 1176h106v-801h187v-147h-187v-303h-171v303h-510v139z" />
    <glyph glyph-name="five" unicode="5" horiz-adv-x="1005" 
d="M322 56c55.333 -35.333 94.334 -53.0068 117.001 -53.0068c34 0 65.667 8.33301 95 25s54.833 38.667 76.5 66s38.667 58.833 51 94.5s18.5 72.5 18.5 110.5c0 52 -11.5 99.5 -34.5 142.5s-54.833 80.5 -95.5 112.5s-89.334 58.167 -146.001 78.5
s-118.334 33.5 -185.001 39.5h-19c-14.667 0 -27.334 1.83301 -38.001 5.5s-16 12.167 -16 25.5c0 2 0.333008 4 1 6c0 1.33301 0.166992 2.5 0.5 3.5s0.5 2.16699 0.5 3.5c2 2 3 5.33301 3 10l98 215l98 216h395c12.667 0 25.667 4.83301 39 14.5
s28.666 22.834 45.999 39.501c3.33301 -4 8 -8.83301 14 -14.5l14 -13.5l-30.5 -77.5l-30.5 -77.5c-7.33301 -13.333 -16.166 -23.5 -26.499 -30.5s-20.5 -10.5 -30.5 -10.5h-355c-4.66699 -8.66699 -8.5 -16.334 -11.5 -23.001l-8.5 -19
c-1.33301 -4 -3.5 -8.83301 -6.5 -14.5l-7.5 -14.5c-5.33301 -8.66699 -10.5 -18.167 -15.5 -28.5s-9.16699 -20.166 -12.5 -29.499c5.33301 -1.33301 11.833 -2.66602 19.5 -3.99902s14.167 -2.66602 19.5 -3.99902c34 -6.66699 65.333 -13.167 94 -19.5
s49.667 -12.5 63 -18.5c48 -19.333 91.333 -44.166 130 -74.499s71.834 -64.5 99.501 -102.5s49.5 -78.667 65.5 -122s26 -87.666 30 -132.999c-1.33301 -64 -15 -124.667 -41 -182s-61.5 -107.666 -106.5 -150.999s-98.333 -77.666 -160 -102.999
s-128.834 -38 -201.501 -38c-80.667 0 -141.667 10.833 -183 32.5s-62 54.5 -62 98.5c0 11.333 2.5 22 7.5 32s11.833 18.667 20.5 26s18.834 13 30.501 17s23.834 6 36.501 6c19.333 0 40 -5 62 -15s48 -25.667 78 -47z" />
    <glyph glyph-name="six" unicode="6" horiz-adv-x="972" 
d="M783 43c-71.333 -91.333 -165.998 -136.997 -283.998 -136.997c-52 0 -103.667 13.5 -155 40.5s-97.666 64.5 -138.999 112.5c-89.333 102.667 -134 235.334 -134 398.001c0 105.333 22 205.333 66 300s106.667 179 188 253v-1c72.667 60.667 153 107.167 241 139.5
s182.333 48.5 283 48.5c0.666992 -9.33301 1.5 -18.5 2.5 -27.5s1.83301 -18.167 2.5 -27.5c-37.333 -5.33301 -73.166 -13.5 -107.499 -24.5s-65.5 -22.5 -93.5 -34.5c-26.667 -12.667 -51.834 -26.5 -75.501 -41.5s-44.834 -31.833 -63.501 -50.5
c-19.333 -20.667 -39.5 -44.834 -60.5 -72.501s-41.167 -57.5 -60.5 -89.5c-13.333 -22 -25.333 -46.667 -36 -74l-30 -80c27.333 15.333 49.666 25.666 66.999 30.999c21.333 8.66699 45.166 15.667 71.499 21s51.5 8.66602 75.5 9.99902c50 0 95.667 -9.16699 137 -27.5
s78.333 -44.5 111 -78.5c32.667 -35.333 57.5 -76.333 74.5 -123s25.5 -101.334 25.5 -164.001c0 -58 -8.66699 -111.5 -26 -160.5s-44 -95.833 -80 -140.5zM659.002 480.003c-19.333 48 -44.667 83.667 -76 107s-71 35 -119 35c-42 1.33301 -77.333 -5.16699 -106 -19.5
s-50.334 -31.833 -65.001 -52.5c-8 -16.667 -14.333 -37.5 -19 -62.5s-7 -55.5 -7 -91.5c0 -44 6.33301 -90.167 19 -138.5s27.667 -94.5 45 -138.5c20 -41.333 44.5 -73.333 73.5 -96s64.5 -34 106.5 -34c34.667 0 63.5 7.16699 86.5 21.5s41.167 34.5 54.5 60.5
c14.667 28.667 26.334 59.667 35.001 93s13 70.333 13 111c0 72 -13.667 140.333 -41 205z" />
    <glyph glyph-name="seven" unicode="7" horiz-adv-x="961" 
d="M874 1157l0.000976562 -49.001l-195 -600l-195 -600h-148l359 1088h-367c-24 0 -46.167 -2.66699 -66.5 -8s-37.166 -12.333 -50.499 -21c-8 -6 -20.333 -19.333 -37 -40s-36.334 -49.334 -59.001 -86.001c-9.33301 4.66699 -19 9 -29 13s-19.667 8.33301 -29 13l9 24
c3.33301 8.66699 6.66602 16.667 9.99902 24c2.66699 6.66699 4.66699 11.334 6 14.001l20.5 47l16.5 39l11 27c2.66699 6.66699 4 10.334 4 11.001c0.666992 2.66699 2.33398 8.16699 5.00098 16.5s6 17.833 10 28.5l12.5 32c4.33301 10.667 8.16602 19.667 11.499 27h701z
" />
    <glyph glyph-name="eight" unicode="8" horiz-adv-x="972" 
d="M179 688c-23.333 30 -40.501 61.1719 -51.501 93.5049s-16.5 66.166 -16.5 101.499c0 44 8.33301 83.167 25 117.5s42.334 66.166 77.001 95.499c34.667 27.333 73.5 48 116.5 62s91.5 21.667 145.5 23c48 0 91.667 -7 131 -21s75 -34.667 107 -62v1
c29.333 -29.333 51.333 -59.5 66 -90.5s22 -64.5 22 -100.5c0 -34 -8.16699 -68.167 -24.5 -102.5s-38.5 -65.5 -66.5 -93.5v1c-15.333 -13.333 -35.666 -28.833 -60.999 -46.5s-52.666 -35.5 -81.999 -53.5c48 -36 88 -69.5 120 -100.5s59 -59.833 81 -86.5
c21.333 -28 38.166 -59.667 50.499 -95s18.5 -71.333 18.5 -108c0 -20.667 -2.83301 -41.334 -8.5 -62.001s-13.334 -40.834 -23.001 -60.501s-20.667 -38.334 -33 -56.001s-25.166 -33.5 -38.499 -47.5c-32.667 -28 -72 -50.167 -118 -66.5s-95.333 -24.5 -148 -24.5
c-47.333 -1.33301 -93 4.66699 -137 18s-85 34 -123 62c-71.333 60 -107 135 -107 225c0 39.333 6.5 76.833 19.5 112.5s30.833 68.167 53.5 97.5c15.333 18.667 35.833 38.667 61.5 60s55.5 43.333 89.5 66c-33.333 28 -62.833 54.5 -88.5 79.5s-44.834 45.5 -57.501 61.5z
M615.999 33.0049c35.333 37.333 53.002 82.6631 53.002 135.996c1.33301 30.667 -3 58.334 -13 83.001s-23.667 46 -41 64h1c-15.333 17.333 -41.333 41 -78 71s-83 64 -139 102c-19.333 -15.333 -38 -32.166 -56 -50.499s-31.667 -38.5 -41 -60.5
c-10.667 -25.333 -18.834 -49.666 -24.501 -72.999s-8.5 -46.666 -8.5 -69.999c0 -40 4.66699 -74.667 14 -104s22.666 -55 39.999 -77c23.333 -22 47.333 -39 72 -51s52 -18 82 -18c32 0 59.333 4.5 82 13.5s42.667 22.167 60 39.5zM490.001 668.002
c22 15.333 42.1689 31.167 60.502 47.5s33.5 31.166 45.5 44.499c15.333 20.667 27.166 43.5 35.499 68.5s12.5 53.167 12.5 84.5c0 27.333 -4.16699 52 -12.5 74s-20.166 42 -35.499 60c-16 18 -35.667 31.333 -59 40s-52.666 13.667 -87.999 15
c-50.667 0 -92.334 -16 -125.001 -48c-33.333 -33.333 -50 -72.333 -50 -117c0 -25.333 4.66699 -50 14 -74s22.333 -46.667 39 -68c23.333 -21.333 48.666 -43.166 75.999 -65.499s55.666 -42.833 84.999 -61.5h2z" />
    <glyph glyph-name="nine" unicode="9" horiz-adv-x="1016" 
d="M778 1017c70.667 -104.667 106.003 -223.333 106.003 -356c0 -97.333 -13.833 -189.333 -41.5 -276s-71.667 -164.334 -132 -233.001s-138.333 -126.667 -234 -174s-211.167 -80 -346.5 -98c-2 10 -4.33301 19.667 -7 29s-5 19 -7 29c3.33301 3.33301 8.16602 6 14.499 8
s11.166 3 14.499 3c68 19.333 130 45.333 186 78s105.667 70.167 149 112.5s80.166 88.333 110.499 138s54.166 101.167 71.499 154.5c-17.333 -11.333 -36.5 -21.833 -57.5 -31.5s-42.5 -18 -64.5 -25s-43.667 -12.5 -65 -16.5s-41 -6 -59 -6
c-51.333 0 -98 9.66699 -140 29s-78 45.833 -108 79.5s-53.333 73.334 -70 119.001s-25 95.167 -25 148.5c0 68.667 10 130.834 30 186.501s47.5 103.167 82.5 142.5s76.333 69.666 124 90.999s99.167 32 154.5 32c132.667 0 237.334 -54.667 314.001 -164zM603.003 491.001
c19.333 10.667 34.334 20.4971 45.001 29.4971s18.5 18.833 23.5 29.5s7.83301 22.5 8.5 35.5s1 28.5 1 46.5v67c0 54.667 -4.83301 106.334 -14.5 155.001s-24.167 91.334 -43.5 128.001s-43.5 65.5 -72.5 86.5s-62.833 31.5 -101.5 31.5c-26 0 -50 -6.5 -72 -19.5
s-40.833 -32.333 -56.5 -58s-28 -57.167 -37 -94.5s-13.5 -80 -13.5 -128c0 -37.333 3.16699 -75.833 9.5 -115.5s17.666 -76 33.999 -109s38.5 -60.167 66.5 -81.5s63.667 -32 107 -32c18 0 36.667 2.83301 56 8.5s40.333 13.834 63 24.501z" />
    <glyph glyph-name="colon" unicode=":" horiz-adv-x="1099" 
d="M933 107c0 -34 -12.335 -64 -37.002 -90c-26 -24.667 -56.667 -37 -92 -37s-66 12.333 -92 37c-25.333 26.667 -38 56.667 -38 90c0 17.333 3.5 33.666 10.5 48.999s16.5 28.666 28.5 39.999s25.833 20.166 41.5 26.499s32.167 9.5 49.5 9.5
c18 0 34.833 -3.16699 50.5 -9.5s29.334 -15.166 41.001 -26.499s20.834 -24.666 27.501 -39.999s10 -31.666 10 -48.999zM932.998 898c0 -34.667 -12.335 -64.333 -37.002 -89c-25.333 -24 -56 -36 -92 -36c-35.333 0 -66 12 -92 36c-25.333 25.333 -38 55 -38 89
c0 18 3.5 34.667 10.5 50s16.5 28.666 28.5 39.999s25.833 20.166 41.5 26.499s32.167 9.5 49.5 9.5c18 0 34.833 -3.16699 50.5 -9.5s29.334 -15.166 41.001 -26.499s20.834 -24.666 27.501 -39.999s10 -32 10 -50z" />
    <glyph glyph-name="semicolon" unicode=";" horiz-adv-x="1072" 
d="M595 -244c36.667 19.333 69.165 39.335 97.498 60.002s52.333 41 72 61s34.667 39 45 57s15.5 34 15.5 48c0 8.66699 -1.66699 18.667 -5 30s-6.66602 20.666 -9.99902 27.999c-11.333 -8.66699 -21.833 -14.667 -31.5 -18s-19.834 -5 -30.501 -5
c-16 0 -31.167 2.83301 -45.5 8.5s-27.166 13.834 -38.499 24.501s-20.333 23 -27 37s-10 29.667 -10 47c0 20 3.66699 37.667 11 53s17 28.166 29 38.499s25.833 18.166 41.5 23.499s31.834 8 48.501 8c22 0 44.5 -5.5 67.5 -16.5s43.667 -26.5 62 -46.5s33.333 -44 45 -72
s17.5 -59.333 17.5 -94c0 -32 -7.66699 -63.667 -23 -95s-35.333 -60.666 -60 -87.999s-52.667 -51.833 -84 -73.5s-63 -38.834 -95 -51.501zM633.998 779.002c0 16.667 3.33301 32.5 10 47.5s15.834 28.333 27.501 40s25 20.834 40 27.501s31.167 10 48.5 10
c16.667 0 32.667 -3.33301 48 -10s28.666 -15.834 39.999 -27.501s20.5 -25 27.5 -40s10.5 -30.833 10.5 -47.5s-3.5 -32.667 -10.5 -48s-16.167 -28.666 -27.5 -39.999s-24.666 -20.5 -39.999 -27.5s-31.333 -10.5 -48 -10.5c-17.333 0 -33.5 3.5 -48.5 10.5
s-28.333 16.167 -40 27.5s-20.834 24.666 -27.501 39.999s-10 31.333 -10 48z" />
    <glyph glyph-name="less" unicode="&#x3c;" horiz-adv-x="1061" 
d="M974 69v-167l-474 230.5l-474 230.5v71l474 230.5l474 230.5v-166l-664 -328z" />
    <glyph glyph-name="equal" unicode="=" horiz-adv-x="1094" 
d="M1024 292v-152h-948v152h948zM1024 659v-152h-948v152h948z" />
    <glyph glyph-name="greater" unicode="&#x3e;" horiz-adv-x="1228" 
d="M116 727v171l510 -230.5l510 -230.5v-74l-510 -230.5l-510 -230.5v171l729 328z" />
    <glyph glyph-name="question" unicode="?" horiz-adv-x="907" 
d="M424 17c0 18 3.16699 34.833 9.5 50.5s15.166 29 26.499 40s24.666 19.667 39.999 26s32 9.5 50 9.5s34.667 -3.16699 50 -9.5s28.5 -15 39.5 -26s19.667 -24.333 26 -40s9.5 -32.5 9.5 -50.5s-3.16699 -34.667 -9.5 -50s-15 -28.5 -26 -39.5s-24.167 -19.667 -39.5 -26
s-32 -9.5 -50 -9.5s-34.667 3.16699 -50 9.5s-28.666 15 -39.999 26s-20.166 24.167 -26.499 39.5s-9.5 32 -9.5 50zM454 237c-28 35.333 -47.501 67.501 -58.501 96.501s-16.5 53.167 -16.5 72.5c0 21.333 3.16699 41.833 9.5 61.5s16.5 37.834 30.5 54.501
c6.66699 8 16.334 17.833 29.001 29.5s27.5 24.334 44.5 38.001l55.5 43l62 45.5c44 32 78.333 66.5 103 103.5s37 70.833 37 101.5c0 42 -14.667 75.333 -44 100s-68 37 -116 37c-37.333 0 -69.5 -7.66699 -96.5 -23s-45.5 -37 -55.5 -65
c38.667 -1.33301 67 -10.833 85 -28.5s27 -42.834 27 -75.501c0 -16 -3.66699 -31.333 -11 -46s-16.833 -27.5 -28.5 -38.5s-24.667 -19.667 -39 -26s-28.5 -9.5 -42.5 -9.5c-46 0 -82.333 14.5 -109 43.5s-40 69.5 -40 121.5c0 37.333 6.83301 71.333 20.5 102s33 57 58 79
s54.833 39.167 89.5 51.5s73.334 18.5 116.001 18.5c44.667 0 85.167 -7.5 121.5 -22.5s67.5 -35.5 93.5 -61.5s46 -56.833 60 -92.5s21 -74.5 21 -116.5c0 -29.333 -2.5 -56.5 -7.5 -81.5s-13.5 -49 -25.5 -72s-28 -45.667 -48 -68s-45 -45.5 -75 -69.5
c-58.667 -48 -103.334 -87.333 -134.001 -118s-49.667 -56.334 -57 -77.001c1.33301 -12.667 4.5 -25.834 9.5 -39.501s11.5 -26.167 19.5 -37.5c15.333 -17.333 28.5 -33 39.5 -47s21.5 -30.667 31.5 -50z" />
    <glyph glyph-name="at" unicode="@" horiz-adv-x="1436" 
d="M603 301c9.33301 -8 19.665 -14.668 30.998 -20.001s24 -8 38 -8c22.667 0 43.834 8.5 63.501 25.5s37.667 38.667 54 65s30.833 55.5 43.5 87.5s23.334 63 32.001 93s15.334 57.333 20.001 82s7 42.667 7 54c0 10.667 -1.5 21 -4.5 31s-7.83301 19 -14.5 27
s-15.334 14.333 -26.001 19s-23.334 7 -38.001 7c-20 0 -39.5 -6 -58.5 -18s-37 -28.167 -54 -48.5s-32.667 -43.666 -47 -69.999s-26.666 -53.5 -36.999 -81.5s-18.5 -56 -24.5 -84s-9 -54 -9 -78c0 -18 2 -34.5 6 -49.5s9.66699 -26.5 17 -34.5zM252.999 71.999
c-138 118 -207.004 260.664 -207.004 427.997c0 94 20 182 60 264s96 155.333 168 220c35.333 30 73.666 57.333 114.999 82s84.833 45.834 130.5 63.501s92.834 31.334 141.501 41.001s98 14.5 148 14.5c82.667 0 160.334 -12.667 233.001 -38
s136.167 -60.666 190.5 -105.999s97.166 -99.333 128.499 -162s47 -131.334 47 -206.001c0 -62 -10.5 -122.5 -31.5 -181.5s-49.333 -111.667 -85 -158s-76.5 -83.5 -122.5 -111.5s-94 -42 -144 -42c-44.667 0 -82.5 8.83301 -113.5 26.5s-52.833 47.834 -65.5 90.501
c-11.333 -15.333 -24.166 -30 -38.499 -44s-30 -26.5 -47 -37.5s-35.167 -19.667 -54.5 -26s-39 -9.5 -59 -9.5c-33.333 0 -64.666 6.66699 -93.999 20s-55.333 31.833 -78 55.5s-41.334 51.667 -56.001 84s-23.334 67.833 -26.001 106.5
c0.666992 30.667 6.16699 62.334 16.5 95.001s24.5 64.5 42.5 95.5s39 60.167 63 87.5s50.333 51.166 79 71.499s58.834 36.5 90.501 48.5s63.834 18 96.501 18c16.667 0 32.834 -2.16699 48.501 -6.5s30.667 -10.166 45 -17.499s27.5 -16 39.5 -26s22.333 -20.333 31 -31
c1.33301 3.33301 2.66602 7.5 3.99902 12.5s2.66602 9.16699 3.99902 12.5c0.666992 1.33301 1 2.33301 1 3s0.333008 1.66699 1 3c1.33301 4.66699 2.66602 9.66699 3.99902 15s2.66602 9.66602 3.99902 12.999h179c-7.33301 -20.667 -15 -44.167 -23 -70.5l-23 -72.5
c-7.33301 -20 -14.333 -41 -21 -63l-12 -39c-24.667 -76 -42.334 -134.667 -53.001 -176s-16 -67.666 -16 -78.999c0 -8.66699 2 -17 6 -25s9.33301 -15 16 -21s13.834 -10.667 21.501 -14s15.167 -5 22.5 -5c26.667 0 55 10.5 85 31.5s57.333 49.5 82 85.5
s45.167 78 61.5 126s24.5 98.667 24.5 152c0 69.333 -15 130 -45 182s-68.667 95.333 -116 130s-100.333 60.667 -159 78s-116.667 26 -174 26c-53.333 0 -105.833 -7.16699 -157.5 -21.5s-100.5 -34.333 -146.5 -60s-88.5 -56.334 -127.5 -92.001
s-72.5 -75.167 -100.5 -118.5s-50 -89.666 -66 -138.999s-24 -100.333 -24 -153c0 -76 14.167 -145.167 42.5 -207.5s67.666 -116 117.999 -161s110.333 -79.833 180 -104.5s146.167 -37 229.5 -37c34 0 70.667 3.5 110 10.5s79 17.167 119 30.5s79.333 29.5 118 48.5
s74.334 40.167 107.001 63.5c8.66699 -13.333 16.834 -26.5 24.501 -39.5s15.834 -26.167 24.501 -39.5c-45.333 -28.667 -89 -53.5 -131 -74.5s-84.167 -38.333 -126.5 -52s-85.666 -23.834 -129.999 -30.501s-91.5 -10 -141.5 -10
c-95.333 0 -183.666 14.167 -264.999 42.5s-155.666 71.833 -222.999 130.5z" />
    <glyph glyph-name="A" unicode="A" horiz-adv-x="1282" 
d="M1 -75l0.00292969 61.9971c23.333 1.33301 44 7.5 62 18.5s35.5 28 52.5 51s34.333 52.667 52 89s37.834 80.833 60.501 133.5l149 354l152 360l40 95l39 93h60l457 -1041c16.667 -35.333 30 -62.666 40 -81.999s19.5 -33.666 28.5 -42.999s18.667 -15.5 29 -18.5
s24.166 -5.83301 41.499 -8.5c3.33301 -0.666992 7.16602 -1.16699 11.499 -1.5s8.16602 -0.833008 11.499 -1.5v-60h-492v57c8 1.33301 15.667 2.33301 23 3s14 1.66699 20 3c12.667 1.33301 24.167 2.83301 34.5 4.5s19.333 4.33398 27 8.00098s13.5 8.5 17.5 14.5
s6 14 6 24c0 11.333 -2 23 -6 35s-8.33301 23.667 -13 35c-3.33301 8.66699 -6.33301 16.834 -9 24.501s-4.66699 14.167 -6 19.5c-6.66699 17.333 -14 34.333 -22 51l-24 51c-5.33301 10.667 -10.333 21.5 -15 32.5l-14 31.5h-453l-7 -15
c-21.333 -47.333 -37.833 -85.833 -49.5 -115.5s-20.334 -53.667 -26.001 -72s-9 -32 -10 -41s-1.5 -16.167 -1.5 -21.5c0 -15.333 4.16699 -27.333 12.5 -36s18.833 -15.334 31.5 -20.001s26.167 -7.66699 40.5 -9s27.5 -2 39.5 -2v-62h-390zM779.003 421.997l-96.5 223
l-92.5 225l-66 -165.5l-68 -163.5l-24.5 -59.5l-24.5 -59.5h372z" />
    <glyph glyph-name="B" unicode="B" horiz-adv-x="1106" 
d="M387 82c0 -9.33301 1.66699 -18.834 5 -28.501s7 -16.5 11 -20.5c21.333 -5.33301 42 -8.66602 62 -9.99902s39 -2 57 -2c42.667 0 82.334 6.5 119.001 19.5s70.334 30.833 101.001 53.5c59.333 49.333 90.666 107.333 93.999 174c0 33.333 -7.33301 64.333 -22 93
s-35.334 55.667 -62.001 81c-29.333 24 -61.5 42.667 -96.5 56s-72.5 20 -112.5 20h-156v-436zM-4 -13.001c28 1.33301 53.332 4.66992 75.999 10.0029s45.667 12.666 69 21.999c8 18.667 15.167 38.5 21.5 59.5s9.5 40.167 9.5 57.5v810c0 20 -2.66699 39.667 -8 59
s-12.333 37.666 -21 54.999c-21.333 9.33301 -44.833 17.166 -70.5 23.499s-51.167 10.166 -76.5 11.499v62h526c33.333 0 66.333 -1.66699 99 -5s64.167 -8.16602 94.5 -14.499s58.833 -13.833 85.5 -22.5s50.667 -18.334 72 -29.001c20 -10.667 38.5 -24.834 55.5 -42.501
s31.667 -37.667 44 -60s21.833 -46.5 28.5 -72.5s10 -52.667 10 -80c0 -38.667 -9 -76.5 -27 -113.5s-41 -68.167 -69 -93.5c-10.667 -8 -25 -16.667 -43 -26s-37.667 -17.666 -59 -24.999c30 -11.333 58.667 -24.666 86 -39.999s53 -31.666 77 -48.999
c30 -24.667 53.667 -55.5 71 -92.5s26 -75.833 26 -116.5c0 -32.667 -5.16699 -64.5 -15.5 -95.5s-24.666 -60 -42.999 -87s-40 -51.167 -65 -72.5s-52.167 -39 -81.5 -53c-34 -12.667 -74 -22.834 -120 -30.501s-94 -11.5 -144 -11.5h-608v62zM689.999 649.003
c31.333 14.667 57.1689 37.8311 77.502 69.498s30.5 67.5 30.5 107.5c0 22 -3.16699 43.5 -9.5 64.5s-15 40.667 -26 59s-24.333 34.833 -40 49.5s-32.834 26.334 -51.501 35.001c-22.667 8 -52.167 14.667 -88.5 20s-78.5 8 -126.5 8c-11.333 0 -21.833 -0.666992 -31.5 -2
s-19.834 -3.66602 -30.501 -6.99902c0 -0.666992 -0.166992 -1.5 -0.5 -2.5s-0.5 -2.16699 -0.5 -3.5l-4 -16.5c-1.33301 -5.66699 -2 -11.5 -2 -17.5v-397h36c12.667 0 25 0.666992 37 2h20.5c9.66699 0 17.167 0.333008 22.5 1c7.33301 0 14.333 0.166992 21 0.5
s13.667 0.5 21 0.5c26.667 0 52.5 2.5 77.5 7.5s47.5 12.167 67.5 21.5z" />
    <glyph glyph-name="C" unicode="C" horiz-adv-x="1209" 
d="M903 1150c25.333 -7.33301 47.6572 -13.502 66.9902 -18.502s34.333 -8.16699 45 -9.5c14.667 0 25.334 2.33301 32.001 7c16.667 9.33301 28 26.666 34 51.999h67l9.5 -219l9.5 -219h-70c-13.333 42 -28.333 80 -45 114s-33.667 63.333 -51 88
c-35.333 44 -77.166 77.333 -125.499 100s-102.5 34 -162.5 34c-62 0 -118.167 -12.5 -168.5 -37.5s-94.166 -61.167 -131.499 -108.5s-66.333 -105.333 -87 -174s-31 -146.334 -31 -233.001c0 -159.333 41.667 -286.666 125 -381.999
c40 -45.333 85.833 -79.666 137.5 -102.999s108.834 -35 171.501 -35c20.667 0 42.334 1.83301 65.001 5.5s45 8.5 67 14.5s43.5 13 64.5 21s40.833 16.667 59.5 26c20.667 10 44.5 26.167 71.5 48.5s55.833 47.833 86.5 76.5l26 -28.5l26 -28.5
c-23.333 -26 -49.666 -52 -78.999 -78s-57 -48.333 -83 -67c-49.333 -32 -103.166 -57 -161.499 -75s-117.5 -27 -177.5 -27c-97.333 0 -186.5 17 -267.5 51s-151.5 81.667 -211.5 143c-51.333 58.667 -91.166 125.334 -119.499 200.001s-42.5 155.334 -42.5 242.001
c0 90 14.5 172.5 43.5 247.5s71.833 143.833 128.5 206.5c59.333 61.333 129.333 109.5 210 144.5s167.667 52.5 261 52.5c32.667 0 65.834 -2.83301 99.501 -8.5s68.834 -13.167 105.501 -22.5h2z" />
    <glyph glyph-name="D" unicode="D" horiz-adv-x="1284" 
d="M1 -13c38 3.33301 68 8.17188 90 14.5049s37.333 12.833 46 19.5c9.33301 6.66699 15.833 19.667 19.5 39s5.5 44.666 5.5 75.999v810c0 31.333 -2.33301 56.833 -7 76.5s-10.667 33.5 -18 41.5c-7.33301 7.33301 -22.833 13.5 -46.5 18.5s-53.5 9.16699 -89.5 12.5v62
h507c82.667 0 159.834 -7 231.501 -21s135.834 -33.667 192.501 -59c50 -25.333 94.667 -55.833 134 -91.5s72.666 -76.334 99.999 -122.001s48.166 -95.667 62.499 -150s21.5 -112.833 21.5 -175.5c0 -44.667 -5.5 -90.334 -16.5 -137.001s-24.5 -89 -40.5 -127
c-19.333 -40.667 -43.5 -79.334 -72.5 -116.001s-62.167 -69.334 -99.5 -98.001c-23.333 -18 -48 -34 -74 -48s-50.667 -25.667 -74 -35c-48 -17.333 -101 -30.333 -159 -39s-121.333 -13 -190 -13h-523v62zM387 1053.01l0.00195312 -2.99902
c-3.33301 -4.66699 -6.16602 -10.834 -8.49902 -18.501s-3.5 -16.167 -3.5 -25.5v-924c0 -12 1 -21.833 3 -29.5s6 -13.5 12 -17.5c11.333 -8 39.666 -12 84.999 -12c68 0 130.333 7 187 21s108 33.667 154 59c64.667 43.333 115.167 101.833 151.5 175.5
s54.5 159.167 54.5 256.5c0 88.667 -15.667 167.667 -47 237s-74 128 -128 176c-22.667 16.667 -48.334 31.834 -77.001 45.501s-59.334 25.5 -92.001 35.5s-67 17.833 -103 23.5s-72.333 8.83398 -109 9.50098c-15.333 1.33301 -29.5 1.16602 -42.5 -0.500977
s-23.5 -3.83398 -31.5 -6.50098h1z" />
    <glyph glyph-name="E" unicode="E" horiz-adv-x="1102" 
d="M1 -13c33.333 3.33301 60.332 7.00195 80.999 11.002s36.834 10.833 48.501 20.5s19.5 23.667 23.5 42s6 43.5 6 75.5v810c0 31.333 -1.66699 56.166 -5 74.499s-10.5 32.333 -21.5 42s-27 16.667 -48 21s-49.167 8.16602 -84.5 11.499v62h1000v-289h-71
c-6 41.333 -13.5 74.5 -22.5 99.5s-23 44.333 -42 58s-44.333 22.834 -76 27.501s-73.167 7 -124.5 7h-246c-13.333 0 -23.333 -1.16699 -30 -3.5s-10.667 -4.83301 -12 -7.5h1c-2 -2 -3 -14 -3 -36v-393h264c37.333 0 66.5 1.83301 87.5 5.5s37.5 11.5 49.5 23.5
s21.5 29.667 28.5 53s15.167 54.666 24.5 93.999h69v-450h-69c-9.33301 39.333 -17.5 70.5 -24.5 93.5s-16.5 40.5 -28.5 52.5s-28.5 19.833 -49.5 23.5s-50.167 5.5 -87.5 5.5h-264v-434c0 -15.333 1.16699 -27.166 3.5 -35.499s10.5 -14.333 24.5 -18
s36.167 -5.83398 66.5 -6.50098s73.5 -1 129.5 -1c53.333 0 100.5 1.83301 141.5 5.5s78 13.334 111 29.001s62.667 39.167 89 70.5s51.833 74.666 76.5 129.999h86l-48 -168l-47 -168h-1007v62z" />
    <glyph glyph-name="F" unicode="F" horiz-adv-x="1013" 
d="M1 -13c40.667 4.66699 72.0029 9.67188 94.0029 15.0049s37.667 13.5 47 24.5s14.666 26.667 15.999 47s2 48.166 2 83.499v789c0 31.333 -1.66699 56.166 -5 74.499s-10.5 32.333 -21.5 42s-27 16.667 -48 21s-49.167 8.16602 -84.5 11.499v62h1003v-289h-76
c-8 44.667 -17.5 79.667 -28.5 105s-26.167 44.5 -45.5 57.5s-44.166 21.167 -74.499 24.5s-68.5 5 -114.5 5h-247c-15.333 0 -26.333 -2.83301 -33 -8.5s-10 -18.5 -10 -38.5v-393h248c36.667 0 65.5 1.83301 86.5 5.5s37.667 11.5 50 23.5s21.833 29.667 28.5 53
s14.667 54.666 24 93.999h69v-450h-69c-9.33301 42 -18 74.833 -26 98.5s-18.333 41.167 -31 52.5s-29.334 18.166 -50.001 20.499s-48 3.5 -82 3.5h-248v-385c0 -30 1 -54 3 -72s8.16699 -32.167 18.5 -42.5s26.666 -17.833 48.999 -22.5s54.166 -8.66699 95.499 -12v-62
h-540v62z" />
    <glyph glyph-name="G" unicode="G" horiz-adv-x="1301" 
d="M908 1150c41.333 -13.333 77.6709 -22.668 109.004 -28.001c12 0 21.333 0.5 28 1.5s12.167 3.16699 16.5 6.5s8 8.16602 11 14.499l11.5 25.5c0 1.33301 0.333008 2.66602 1 3.99902c1.33301 2.66699 2.66602 5 3.99902 7h83v-414h-70c-27.333 64 -54 116.167 -80 156.5
s-53.833 72 -83.5 95s-62 38.833 -97 47.5s-75.5 13 -121.5 13c-53.333 0 -105.5 -9.33301 -156.5 -28s-96.5 -49.667 -136.5 -93s-72.333 -100.5 -97 -171.5s-37 -158.833 -37 -263.5c0 -82 11.5 -155.333 34.5 -220s54.5 -119.167 94.5 -163.5
s87.167 -78.166 141.5 -101.499s112.5 -35 174.5 -35c6.66699 0 13.667 0.333008 21 1l22 2c6 0.666992 11.667 1.16699 17 1.5s9.66602 0.5 12.999 0.5c6 0.666992 11.667 1.83398 17 3.50098l18 5.5c8 3.33301 16 6 24 8s15 3 21 3
c23.333 9.33301 42.166 17.333 56.499 24s25.833 14.334 34.5 23.001v312c0 31.333 -2.16699 56 -6.5 74s-11.5 31.833 -21.5 41.5s-23.5 16.334 -40.5 20.001s-38.167 6.83398 -63.5 9.50098c-4.66699 0.666992 -8.83398 1.16699 -12.501 1.5s-8.16699 0.833008 -13.5 1.5
v62h492v-62c-29.333 -1.33301 -52.5 -4.16602 -69.5 -8.49902s-29.833 -11 -38.5 -20s-14.167 -21.333 -16.5 -37s-3.5 -35.5 -3.5 -59.5v-356c0 -10 -7.33301 -20.667 -22 -32s-34.167 -22.833 -58.5 -34.5s-52.5 -22.834 -84.5 -33.501s-65.5 -20 -100.5 -28
s-70.333 -14.5 -106 -19.5s-69.5 -7.5 -101.5 -7.5c-94 0 -181.5 15.167 -262.5 45.5s-151.333 73.333 -211 129s-106.5 122.167 -140.5 199.5s-51 163 -51 257c0 92 16 177.667 48 257s76.667 148.166 134 206.499s125.333 104.166 204 137.499s164.667 50 258 50
c34 0 68.167 -2.83301 102.5 -8.5s69.833 -13.167 106.5 -22.5h5z" />
    <glyph glyph-name="H" unicode="H" horiz-adv-x="1254" 
d="M-4 -15c36 3.33301 65.3291 7.99805 87.9961 13.998s38.667 13.667 48 23c7.33301 8.66699 13.333 24.834 18 48.501s7 52.5 7 86.5v789c0 31.333 -2.5 56.5 -7.5 75.5s-11.5 33.167 -19.5 42.5c-8 7.33301 -22.833 14 -44.5 20s-51.5 9.66699 -89.5 11v62h538v-62
c-39.333 -1.33301 -70.166 -4.66602 -92.499 -9.99902s-37.833 -12.333 -46.5 -21c-16.667 -14.667 -25 -54 -25 -118v-340h525v340c0 31.333 -2.5 56.5 -7.5 75.5s-11.5 33.167 -19.5 42.5c-7.33301 7.33301 -22.166 14 -44.499 20s-52.5 9.66699 -90.5 11v62h536v-62
c-35.333 -3.33301 -64.666 -7.5 -87.999 -12.5s-38.666 -11.167 -45.999 -18.5c-7.33301 -8 -13.833 -22.167 -19.5 -42.5s-8.5 -45.5 -8.5 -75.5v-810c0 -62.667 8.66699 -101 26 -115c8.66699 -7.33301 24 -14 46 -20s52 -10.667 90 -14v-62h-536v62
c40 3.33301 70.833 7.83301 92.5 13.5s35.834 12.167 42.501 19.5c18 20 27 65.667 27 137v340h-525v-361c0 -31.333 1.83301 -56.833 5.5 -76.5s10.167 -33.167 19.5 -40.5v1c7.33301 -8.66699 21.666 -15.167 42.999 -19.5s53.333 -8.83301 96 -13.5v-62h-538v60z" />
    <glyph glyph-name="I" unicode="I" horiz-adv-x="573" 
d="M7 -13c40 1.33301 72.5029 5.00195 97.5029 11.002s42.167 13 51.5 21c18 12.667 27 51.667 27 117v810c0 30 -2.5 54.833 -7.5 74.5s-12.167 34.167 -21.5 43.5c-8.66699 8.66699 -24.834 15.667 -48.501 21s-56.5 8.66602 -98.5 9.99902v62h567v-62
c-42 -1.33301 -74.5 -4.83301 -97.5 -10.5s-40.5 -13.167 -52.5 -22.5c-8.66699 -6.66699 -14.834 -19.667 -18.501 -39s-5.5 -45 -5.5 -77v-810c0 -32 2 -57.833 6 -77.5s10 -32.834 18 -39.501c9.33301 -8 26.166 -14.5 50.499 -19.5s57.5 -9.16699 99.5 -12.5v-62h-567
v62z" />
    <glyph glyph-name="J" unicode="J" horiz-adv-x="685" 
d="M40 128l-0.99707 0.000976562c10 9.33301 20.333 15.5 31 18.5s22.667 4.5 36 4.5c23.333 0 44 -7.5 62 -22.5s32.667 -36.5 44 -64.5c7.33301 -20 15.166 -35.833 23.499 -47.5s16.166 -17.5 23.499 -17.5c15.333 0 24 1 26 3c6.66699 14.667 11.834 32.167 15.501 52.5
s5.5 43.5 5.5 69.5v822c0 64.667 -8.33301 105 -25 121c-8.66699 7.33301 -25.167 13 -49.5 17s-55.166 7.66699 -92.499 11v62h551v-62c-38.667 -1.33301 -69.834 -5 -93.501 -11s-39.5 -13.667 -47.5 -23c-9.33301 -8 -16.5 -21.667 -21.5 -41s-7.5 -44 -7.5 -74v-669
c0 -62.667 -7.33301 -117 -22 -163s-37.667 -85 -69 -117c-62 -62 -138.333 -93 -229 -93c-60.667 0 -107.334 13.333 -140.001 40c-16.667 14.667 -29.834 30.667 -39.501 48s-14.5 34.666 -14.5 51.999c0 31.333 8.66699 57.333 26 78l-1 -5h4z" />
    <glyph glyph-name="K" unicode="K" horiz-adv-x="1277" 
d="M1 -13c42.667 4 75.168 8.99609 97.501 14.9961s38.5 15 48.5 27s15.5 28.167 16.5 48.5s1.5 46.833 1.5 79.5v789c0 32 -1.5 57 -4.5 75s-10.167 31.833 -21.5 41.5s-27.833 16.5 -49.5 20.5s-51.167 8 -88.5 12v62h547v-62c-35.333 -1.33301 -64 -3.66602 -86 -6.99902
s-39 -10.166 -51 -20.499s-20.167 -25 -24.5 -44s-6.5 -44.833 -6.5 -77.5v-345l198 173c55.333 50 100.666 93.333 135.999 130s61.333 67 78 91s25 42.667 25 56c0 18.667 -11.5 30.667 -34.5 36s-52.833 8 -89.5 8v62h505v-57
c-34 -1.33301 -62.833 -5.66602 -86.5 -12.999s-43.5 -14.666 -59.5 -21.999c-15.333 -7.33301 -36 -21.833 -62 -43.5s-54.833 -47.167 -86.5 -76.5l-99 -94.5l-99.5 -98.5l-124 -125l101 -110l103 -110l82.5 -89.5l80.5 -87.5l25 -26.5l25 -26.5c2 -2 4.83301 -5 8.5 -9
l18.5 -21c20 -23.333 38.833 -44.333 56.5 -63s36.167 -34.667 55.5 -48s40.666 -24.333 63.999 -33s51.333 -14.667 84 -18v-60h-585v62c26.667 1.33301 48.334 2.5 65.001 3.5s29.667 2.83301 39 5.5s15.833 6 19.5 10s5.5 9.66699 5.5 17c0 3.33301 -2 8.83301 -6 16.5
s-9.16699 16.5 -15.5 26.5s-13.666 20.667 -21.999 32l-24.5 32l-168 183.5l-169 184.5l-13 -13c-1.33301 -1.33301 -2.66602 -2.5 -3.99902 -3.5l-7 -5.5c-2.66699 -1.33301 -5.16699 -3.33301 -7.5 -6s-4.83301 -5.33398 -7.5 -8.00098l-5 -5v-321
c0 -34 2 -60.167 6 -78.5s11 -32.166 21 -41.499s23.333 -15.5 40 -18.5s37.667 -5.83301 63 -8.5c1.33301 0 3.66602 -0.166992 6.99902 -0.5s6.66602 -0.5 9.99902 -0.5c2.66699 -0.666992 5.5 -1 8.5 -1h7.5v-62h-542v62z" />
    <glyph glyph-name="L" unicode="L" horiz-adv-x="1092" 
d="M1 -13c72.667 7.33301 117.332 18.6699 133.999 34.0029c8.66699 7.33301 15 20.833 19 40.5s6 44.5 6 74.5v810c0 30 -2.33301 54.833 -7 74.5s-10.667 33.167 -18 40.5h1c-7.33301 8.66699 -22.666 15.667 -45.999 21s-53 9.66602 -89 12.999v62h545v-62
c-36 -1.33301 -65.833 -4.5 -89.5 -9.5s-40.834 -11.167 -51.501 -18.5c-8 -8.66699 -15 -22 -21 -40s-9 -41 -9 -69v-871c0 -14.667 2 -27 6 -37c4.66699 -4.66699 10.334 -8.83398 17.001 -12.501s14.667 -6.16699 24 -7.5c1.33301 0 2.83301 -0.166992 4.5 -0.5
s3.16699 -0.5 4.5 -0.5c1.33301 -0.666992 3.33301 -1 6 -1h6c3.33301 -1.33301 6.33301 -2 9 -2h6c65.333 0 122.333 0.666992 171 2s86.667 3.66602 114 6.99902c24.667 3.33301 47.334 7.83301 68.001 13.5s38.667 11.5 54 17.5c26 11.333 52.667 34.333 80 69
s54.666 79 81.999 133h76l-97 -343h-1005v62z" />
    <glyph glyph-name="M" unicode="M" horiz-adv-x="1577" 
d="M3 -13c78.667 7.33301 127.333 21.998 146 43.998c19.333 24.667 29 83.334 29 176.001v739c0 31.333 -2.5 56.5 -7.5 75.5s-11.5 33.167 -19.5 42.5c-7.33301 7.33301 -23.333 13.5 -48 18.5s-56.334 9.16699 -95.001 12.5v62h386l408 -889l97.5 223l98.5 224l97 222
l96 220h392v-59c-36 -4 -65.333 -8.66699 -88 -14s-39 -13 -49 -23c-16 -16 -24 -54.333 -24 -115v-810c0 -30 1.83301 -55 5.5 -75s9.16699 -33.333 16.5 -40c8 -7.33301 23.167 -14 45.5 -20s53.5 -10.667 93.5 -14v-62h-540v62c40 3.33301 71.5 7.5 94.5 12.5
s37.833 11.833 44.5 20.5h-1c9.33301 9.33301 16.333 26 21 50s7 53 7 87v738l-4 1l-104 -228l-102 -228l-75 -170l-78 -170l-39.5 -88.5l-39.5 -86.5h-48l-427 927l-4 -1v-644c0 -48 4.16699 -88 12.5 -120s19.5 -55.667 33.5 -71
c6.66699 -5.33301 19.834 -10.666 39.501 -15.999s47.5 -10.333 83.5 -15v-60h-454v62z" />
    <glyph glyph-name="N" unicode="N" horiz-adv-x="1287" 
d="M1 -13c38 3.33301 68.501 8.16699 91.501 14.5s40.667 17 53 32s20.5 36.167 24.5 63.5s6 64 6 110v795c-2 3.33301 -7 8.66602 -15 15.999c-2 1.33301 -3.66699 3 -5 5s-2 5 -2 9c-10 12 -19.5 22 -28.5 30s-19 14.5 -30 19.5s-24 8.5 -39 10.5s-33.5 3 -55.5 3v62h333
l678 -846v564c0 42 -1.66699 76.833 -5 104.5s-10.833 49.834 -22.5 66.501s-28.834 28.667 -51.501 36s-53.667 11.666 -93 12.999v62h454v-59c-37.333 -4.66699 -67.333 -10.334 -90 -17.001s-40 -17.5 -52 -32.5s-20 -36.167 -24 -63.5s-6 -64 -6 -110v-971h-52l-785 968
v-665c0 -41.333 1.33301 -75.166 4 -101.499s9.5 -47.5 20.5 -63.5s28 -28.167 51 -36.5s54.5 -15.166 94.5 -20.499v-60h-454v62z" />
    <glyph glyph-name="O" unicode="O" horiz-adv-x="1317" 
d="M399 126c67.333 -88 155.332 -131.997 263.999 -131.997c50 0 97.5 11 142.5 33s85.5 53.333 121.5 94c34.667 45.333 61.834 103.166 81.501 173.499s29.5 152.166 29.5 245.499c0 98.667 -9.16699 183.5 -27.5 254.5s-46.166 127.5 -83.499 169.5s-78 73.167 -122 93.5
s-91.333 31.166 -142 32.499c-102 0 -190 -44.333 -264 -133c-74 -85.333 -111 -224.333 -111 -417c0 -93.333 9.16699 -174.5 27.5 -243.5s46.166 -125.833 83.499 -170.5zM243.999 1019c57.333 55.333 120.672 96.501 190.005 123.501s145.666 41.167 228.999 42.5
c165.333 0 306 -55.333 422 -166c64 -60.667 111.333 -130 142 -208s46 -168.333 46 -271c0 -98.667 -16.167 -188.5 -48.5 -269.5s-80.5 -151.5 -144.5 -211.5c-58 -52 -121.833 -91.667 -191.5 -119s-144.834 -41 -225.501 -41c-86.667 0 -166.334 15 -239.001 45
s-137.334 74.667 -194.001 134c-60.667 58.667 -105.334 126.334 -134.001 203.001s-43 163 -43 259c0 101.333 16.167 191.666 48.5 270.999s79.833 148.666 142.5 207.999z" />
    <glyph glyph-name="P" unicode="P" horiz-adv-x="1006" 
d="M624 1029c-24.667 10.667 -53.002 18.832 -85.002 24.499s-66.667 8.5 -104 8.5c-9.33301 0 -17.666 -0.833008 -24.999 -2.5s-15 -3.16699 -23 -4.5c-1.33301 -0.666992 -3 -1 -5 -1s-3.66699 -0.333008 -5 -1c-3.33301 -8.66699 -5.66602 -15.834 -6.99902 -21.501
s-2 -11.167 -2 -16.5v-463c10.667 -1.33301 21 -2 31 -2h19h28c37.333 0 71.833 3.16699 103.5 9.5s61.167 14.833 88.5 25.5c18 8 34.5 19.5 49.5 34.5s27.833 32.5 38.5 52.5s19 42 25 66s9 49.333 9 76c0 24 -3.33301 47 -10 69s-16 42.333 -28 61
s-26.333 35.334 -43 50.001s-35 26.334 -55 35.001zM0.998047 -13.002c21.333 0 41.501 4.67285 60.501 14.0059s35.5 21.666 49.5 36.999s25.167 33.166 33.5 53.499s12.5 42.166 12.5 65.499v789c0 20.667 -4.16699 40.167 -12.5 58.5s-19.5 34.166 -33.5 47.499
s-30.5 23.833 -49.5 31.5s-39.167 11.5 -60.5 11.5v62h495c77.333 0 147 -7.33301 209 -22s113.333 -37 154 -67c40.667 -31.333 72.167 -68.333 94.5 -111s33.5 -88.667 33.5 -138c0 -29.333 -3.5 -57.666 -10.5 -84.999s-16.667 -53.333 -29 -78
s-27.333 -47.334 -45 -68.001s-37.167 -38.334 -58.5 -53.001c-38 -21.333 -87.833 -39.5 -149.5 -54.5s-127.834 -24.5 -198.501 -28.5h-128v-316c0 -20.667 4.5 -40 13.5 -58s21.333 -33.833 37 -47.5s34 -24.334 55 -32.001s43.5 -11.5 67.5 -11.5v-62h-540v62z" />
    <glyph glyph-name="Q" unicode="Q" horiz-adv-x="1319" 
d="M246 1019c57.333 54 120.672 95.1729 190.005 123.506s145.666 42.5 228.999 42.5c84 0 163 -15.333 237 -46s138.667 -74.167 194 -130.5s99.166 -124.166 131.499 -203.499s48.5 -167.666 48.5 -264.999c0 -82 -10.667 -157.167 -32 -225.5
s-52.333 -128.833 -93 -181.5s-90 -96.834 -148 -132.501s-123.333 -61.834 -196 -78.501c28.667 -38 57.5 -71.333 86.5 -100s62.167 -53.334 99.5 -74.001s80.666 -38.334 129.999 -53.001s108 -27 176 -37v-57h-87c-67.333 0 -127.5 3 -180.5 9s-100.833 15 -143.5 27
s-81.167 26.333 -115.5 43s-66.333 35.667 -96 57s-58.334 44.666 -86.001 69.999s-55.834 52.666 -84.501 81.999c-11.333 10.667 -21.833 19 -31.5 25s-16.5 10.667 -20.5 14c-5.33301 3.33301 -8.33301 5 -9 5c-130 64 -227.5 145.333 -292.5 244
s-97.5 219.667 -97.5 363c0 101.333 16.167 191.666 48.5 270.999s79.833 148.666 142.5 207.999zM401.006 126.006c67.333 -88 155.335 -131.998 264.002 -131.998c52.667 0 102 11 148 33s85.833 55.5 119.5 100.5s60.167 101.667 79.5 170s29 149.166 29 242.499
c0 98 -10 181.833 -30 251.5s-47.167 126.667 -81.5 171s-74.333 76.666 -120 96.999s-93.834 30.5 -144.501 30.5c-48.667 0 -95.667 -10.5 -141 -31.5s-85.333 -53.833 -120 -98.5s-62.334 -101.667 -83.001 -171s-31 -152.333 -31 -249c0 -186 37 -324 111 -414z" />
    <glyph glyph-name="R" unicode="R" horiz-adv-x="1188" 
d="M631 618c46 16.667 80 42.668 102 78.001s33 78.666 33 129.999c0 76.667 -24 134.834 -72 174.501s-123.667 59.5 -227 59.5c-22 0 -39.333 -0.5 -52 -1.5s-22.334 -3.16699 -29.001 -6.5s-11 -8 -13 -14s-3 -14.333 -3 -25v-435
c60.667 3.33301 112.334 8.16602 155.001 14.499s78 14.833 106 25.5zM1 -14.999c36.667 3.33301 65.999 8.00098 87.999 14.001s36.667 13.667 44 23c16 20 24 65 24 135v789c0 30.667 -1.83301 55.5 -5.5 74.5s-11 33.833 -22 44.5s-26.667 18 -47 22
s-47.5 6.66699 -81.5 8v62h518c152 0 269.167 -27.833 351.5 -83.5s123.5 -138.167 123.5 -247.5c0 -47.333 -7.66699 -89 -23 -125s-36.833 -67 -64.5 -93s-61 -47.167 -100 -63.5s-81.833 -28.5 -128.5 -36.5l51.5 -63.5l52.5 -62.5l35.5 -43l35.5 -44l46.5 -56.5
l46.5 -56.5l46.5 -57l46.5 -56c20.667 -24 42.834 -43.667 66.501 -59s54.5 -23 92.5 -23v-62h-314l-433 560c-3.33301 0 -6.5 -0.166992 -9.5 -0.5s-6.16699 -0.5 -9.5 -0.5c-3.33301 -0.666992 -7 -1 -11 -1h-11c-4.66699 -1.33301 -11.167 -2 -19.5 -2h-20.5v-345
c0 -29.333 1 -52.833 3 -70.5s8.33301 -31.834 19 -42.501s27.167 -18.5 49.5 -23.5s53.833 -9.16699 94.5 -12.5v-62h-535v60z" />
    <glyph glyph-name="S" unicode="S" horiz-adv-x="936" 
d="M113 320c42 -108 92.5039 -188.499 151.504 -241.499s129.833 -79.5 212.5 -79.5c27.333 0 53.166 4 77.499 12s45.5 20.167 63.5 36.5s32.333 36.666 43 60.999s16 52.5 16 84.5c0 25.333 -3.33301 48 -10 68s-18.834 39.833 -36.501 59.5s-41.5 40.334 -71.5 62.001
s-68 47.167 -114 76.5l-148.5 94c-43.667 28.667 -80.5 57.667 -110.5 87s-52.833 60.666 -68.5 93.999s-23.5 72 -23.5 116c0 42.667 8 84.167 24 124.5s39 76.166 69 107.499s66.5 56.333 109.5 75s91.5 28 145.5 28c17.333 0 38.166 -3.16699 62.499 -9.5
s49.166 -13.166 74.499 -20.499c2.66699 -1.33301 5.16699 -2.16602 7.5 -2.49902s4.83301 -1.16602 7.5 -2.49902c17.333 -6 34.5 -11.167 51.5 -15.5s32.167 -7.83301 45.5 -10.5c18.667 0 30 2.66699 34 8c4 6 7.83301 12.5 11.5 19.5s6.16699 18.167 7.5 33.5h66
c6 -70.667 12.333 -140.334 19 -209.001s13 -138.334 19 -209.001h-70c-15.333 60.667 -35.333 111.167 -60 151.5s-51.667 72.5 -81 96.5s-59.833 41 -91.5 51s-61.5 15 -89.5 15c-22 0 -43.333 -3.33301 -64 -10s-39 -16.334 -55 -29.001s-29 -28.334 -39 -47.001
s-15 -40.334 -15 -65.001c0 -24 3.33301 -45.167 10 -63.5s17 -35.666 31 -51.999s31.5 -32.333 52.5 -48s46.167 -32.5 75.5 -50.5l146 -93c42.667 -27.333 80.334 -52.833 113.001 -76.5s60.334 -46.5 83.001 -68.5s41.167 -44.5 55.5 -67.5s24.833 -47.5 31.5 -73.5
s10 -55.333 10 -88c0 -48 -10 -93.167 -30 -135.5s-47.833 -79.166 -83.5 -110.499s-77.834 -56.166 -126.501 -74.499s-102 -27.5 -160 -27.5c-32 0 -61.333 2.66699 -88 8s-54.334 12.333 -83.001 21l-12 3h1l-15.5 4l-14.5 4l-10.5 4l-10.5 4
c-12 4.66699 -22.667 8.5 -32 11.5s-14.666 4.5 -15.999 4.5c-16 0 -26.833 -5.5 -32.5 -16.5s-9.83398 -25.833 -12.501 -44.5h-66c-9.33301 70.667 -19 140.167 -29 208.5l-29 207.5h72z" />
    <glyph glyph-name="T" unicode="T" horiz-adv-x="1106" 
d="M29 1157l1058 -0.00195312c1.33301 -56.667 3 -113 5 -169s3.66699 -112.333 5 -169h-70c-11.333 50.667 -23.5 92.334 -36.5 125.001s-27.167 54.667 -42.5 66c-16.667 14.667 -41.167 25.834 -73.5 33.501s-74.5 11.5 -126.5 11.5h-85v-919
c0 -65.333 9 -104.333 27 -117v1c9.33301 -8.66699 25.833 -15.5 49.5 -20.5s57.5 -9.16699 101.5 -12.5v-62h-561v62c40.667 3.33301 73.5 7.5 98.5 12.5s41.167 11.833 48.5 20.5c8 8.66699 14.333 24.167 19 46.5s7 52.5 7 90.5v898h-88
c-46.667 0 -86.667 -3.66699 -120 -11s-58.666 -17.666 -75.999 -30.999c-16 -12.667 -30.667 -34.834 -44 -66.501s-25.333 -74.167 -36 -127.5h-69z" />
    <glyph glyph-name="U" unicode="U" horiz-adv-x="1254" 
d="M534 1157l0.000976562 -61.998c-28 -1.33301 -52.5 -3.83301 -73.5 -7.5s-38.5 -10.667 -52.5 -21s-24.5 -25 -31.5 -44s-10.5 -44.5 -10.5 -76.5v-580c0 -121.333 23.833 -211 71.5 -269s124.5 -87 230.5 -87c57.333 0 106.666 7.16699 147.999 21.5
s75.333 37.333 102 69s46.334 72.334 59.001 122.001s19 109.834 19 180.501v472c0 48.667 -2.5 86.834 -7.5 114.501s-14 48.667 -27 63s-30.5 24.166 -52.5 29.499s-50.333 9.66602 -85 12.999v62h449v-62c-36.667 -3.33301 -66.167 -8.5 -88.5 -15.5
s-39.5 -18.5 -51.5 -34.5s-20 -37.5 -24 -64.5s-6 -62.167 -6 -105.5v-472c0 -90 -10.167 -166.833 -30.5 -230.5s-50.5 -115.834 -90.5 -156.501s-89.833 -70.334 -149.5 -89.001s-128.834 -28 -207.501 -28c-77.333 0 -145.333 9.16699 -204 27.5s-108 46.833 -148 85.5
s-70.167 88.334 -90.5 149.001s-30.5 133.667 -30.5 219v566c0 32.667 -2 58.5 -6 77.5s-11.833 33.667 -23.5 44s-28.167 17.166 -49.5 20.499s-49.333 5.66602 -84 6.99902v62h545z" />
    <glyph glyph-name="V" unicode="V" horiz-adv-x="1258" 
d="M515 1157l-0.000976562 -61.9971c-31.333 0 -56 -1 -74 -3s-31.667 -5 -41 -9s-15.333 -9.33301 -18 -16s-4.33398 -14.334 -5.00098 -23.001c-1.33301 -12.667 4.16699 -33.667 16.5 -63l47.5 -109c1.33301 -3.33301 2.83301 -6.5 4.5 -9.5s3.16699 -6.16699 4.5 -9.5
l273 -599c1.33301 5.33301 2.83301 10.833 4.5 16.5s3.16699 10.167 4.5 13.5c1.33301 2 2.16602 4 2.49902 6s0.833008 3.66699 1.5 5l114 306.5l115 303.5l3 9c8.66699 23.333 16.334 45.166 23.001 65.499s10 36.166 10 47.499c0 26 -11.167 43.833 -33.5 53.5
s-56.166 14.5 -101.499 14.5v62h403v-57c-22 -3.33301 -40.667 -7.16602 -56 -11.499s-27 -9.83301 -35 -16.5c-13.333 -10.667 -26.333 -28 -39 -52s-25.667 -52.333 -39 -85l-98 -252.5l-103 -263l-103.5 -263l-99.5 -252.5h-52l-451 1010
c-19.333 42 -35.666 75.167 -48.999 99.5s-25.333 41.166 -36 50.499c-12 9.33301 -26.167 17 -42.5 23s-37.833 9.66699 -64.5 11v59h514z" />
    <glyph glyph-name="W" unicode="W" horiz-adv-x="1701" 
d="M476 1157l-0.00195312 -62.001c-43.333 0 -73.666 -4.66699 -90.999 -14s-26.333 -21.666 -27 -36.999c-0.666992 -6 0.166016 -14.167 2.49902 -24.5s7.83301 -25.833 16.5 -46.5l251 -645l23 60l23 60l19.5 50c7 18 13.167 34.667 18.5 50l27 72l32 87l33 88l-16 39
l-16 40c-3.33301 8 -6.66602 16.667 -9.99902 26l-21.5 55.5l-21.5 53.5c-6.66699 16.667 -14.334 30.5 -23.001 41.5s-19.167 19.833 -31.5 26.5s-27 11.334 -44 14.001s-37.167 4 -60.5 4v62h517v-62c-28.667 0 -51.667 -1 -69 -3s-30.666 -5.33301 -39.999 -10
s-15.833 -10.834 -19.5 -18.501s-5.83398 -17.167 -6.50098 -28.5c-0.666992 -6.66699 1.66602 -16 6.99902 -28c0.666992 -5.33301 2.33398 -10.666 5.00098 -15.999c0.666992 -1.33301 1.16699 -2.5 1.5 -3.5s0.833008 -2.16699 1.5 -3.5l86 -233.5l93 -237.5l16.5 -44
l14.5 -39l19 -51l22 -58c7.33301 20.667 15.333 42 24 64l25 64l28 75l28 74l33.5 93.5l33.5 92.5l21.5 59.5l21.5 59.5c12 26.667 20.5 51.667 25.5 75s7.5 39.666 7.5 48.999c0 20.667 -9.83301 37.167 -29.5 49.5s-52.167 18.5 -97.5 18.5v62h388v-62
c-36.667 0 -66.834 -9 -90.501 -27s-41.5 -43 -53.5 -75l-36 -99l-36 -101c-5.33301 -16.667 -11 -33 -17 -49l-18 -49l-38 -115l-40 -113c-1.33301 -2.66699 -2.33301 -5.33398 -3 -8.00098s-1.66699 -5.33398 -3 -8.00098l-78 -208
c-5.33301 -14.667 -10.166 -29.5 -14.499 -44.5s-9.16602 -30.167 -14.499 -45.5l-12 -38.5l-13 -38.5l-29.5 -87.5l-28.5 -84.5h-50l-75 219l-20 51.5l-21 53.5l-33.5 84.5l-31.5 82.5l-15.5 38.5c-5 12.333 -10.167 24.166 -15.5 35.499l-33.5 80.5
c-11 27 -22.167 56.5 -33.5 88.5c-7.33301 -18.667 -14.5 -38 -21.5 -58s-14.167 -39.333 -21.5 -58l-53 -142.5l-52 -143.5l-26 -71l-26 -72l-34 -96l-34 -93h-53l-132 386l-50 133l-43 118l-39 108l-64 172.5c-18 47.667 -34 88 -48 121s-27 59.333 -39 79
s-24 34.834 -36 45.501s-25.167 17.834 -39.5 21.501s-31.166 5.83398 -50.499 6.50098v62h475z" />
    <glyph glyph-name="X" unicode="X" horiz-adv-x="1284" 
d="M1 -15c28 3.33301 51.501 7.83105 70.501 13.498s34.5 13.834 46.5 24.501c8 6 19.667 17.5 35 34.5l53.5 61.5l67 80.5l74.5 92.5l42.5 53l42.5 53l24.5 30.5l22.5 28.5l31 37l30 36c-15.333 20 -29.333 40 -42 60l-22.5 31.5l-22.5 32.5l-34.5 51l-34.5 50l-70 100.5
l-62.5 87.5c-19 26 -35.833 48.167 -50.5 66.5s-26 31.166 -34 38.499c-17.333 14 -37.333 25 -60 33s-51.334 12.667 -86.001 14v62h580v-62c-28.667 0 -52.167 -0.666992 -70.5 -2s-32.833 -3.83301 -43.5 -7.5s-18 -8.5 -22 -14.5s-6 -13.667 -6 -23
c-0.666992 -4.66699 0.166016 -10.667 2.49902 -18s5.5 -15.166 9.5 -23.499s8.5 -16.833 13.5 -25.5s10.167 -16.667 15.5 -24l53.5 -78l56.5 -82l35 -51l34 -49c2 2.66699 4.5 5.83398 7.5 9.50098l8.5 10.5l20 25c6.66699 8.66699 13.667 16.667 21 24l72.5 83.5
c24.333 29 46.333 56.5 66 82.5s35.667 49.333 48 70s18.5 36 18.5 46c0 19.333 -9.83301 32 -29.5 38s-51.5 9 -95.5 9v62h459v-62c-28.667 0 -52.5 -1.66699 -71.5 -5s-35.167 -8.66602 -48.5 -15.999c-19.333 -11.333 -43.333 -31.333 -72 -60s-59.667 -62 -93 -100
l-103 -122.5l-102 -127.5c-3.33301 -5.33301 -6.5 -10 -9.5 -14s-6.16699 -8 -9.5 -12c-4.66699 -6 -9 -11.833 -13 -17.5s-7.66699 -10.5 -11 -14.5c17.333 -26.667 35.666 -52.667 54.999 -78c9.33301 -11.333 18 -22.833 26 -34.5l24 -34.5l49.5 -71.5l49.5 -72.5
l69 -101l70 -98c15.333 -21.333 28.833 -39.166 40.5 -53.499s24.5 -26.333 38.5 -36s30.833 -17.834 50.5 -24.501s45.167 -12.334 76.5 -17.001v-60h-570v64c31.333 1.33301 56.333 3 75 5s32.834 4.66699 42.501 8s15.834 7.66602 18.501 12.999s4 12 4 20
c0 6 -0.333008 11.5 -1 16.5s-2.66699 11.5 -6 19.5s-9 18.333 -17 31l-33 51l-54 80.5l-81 118.5c-4 5.33301 -7.66699 10.666 -11 15.999l-10 16c-5.33301 8.66699 -11.333 17.834 -18 27.501l-22 31.5l-26 -33c-8 -10.667 -16.333 -21.167 -25 -31.5
s-17.667 -20.5 -27 -30.5l-77 -94.5c-26 -31.667 -49.333 -61.5 -70 -89.5s-37.5 -52.833 -50.5 -74.5s-19.5 -37.5 -19.5 -47.5c0 -11.333 4.83301 -20.666 14.5 -27.999s21.667 -13 36 -17s29.5 -6.66699 45.5 -8s30.333 -2 43 -2v-62h-452v60z" />
    <glyph glyph-name="Y" unicode="Y" horiz-adv-x="1256" 
d="M534 1157l-0.00292969 -62.001h-50c-23.333 0 -42.666 -3 -57.999 -9s-23 -17.333 -23 -34l2 -4c0 -0.666992 0.666992 -1.66699 2 -3l1 -1c1.33301 -5.33301 4 -13.833 8 -25.5s9.33301 -23.167 16 -34.5l66 -101l68 -101c2.66699 -3.33301 5.33398 -7.5 8.00098 -12.5
s5.66699 -9.16699 9 -12.5l24.5 -35c7.66699 -10.667 15.167 -21.667 22.5 -33l29.5 -44.5l31.5 -47.5l79.5 125.5l78.5 124.5l45 71.5l45 72.5c10 16.667 16.5 29.5 19.5 38.5s4.5 16.167 4.5 21.5c0 15.333 -10 26.5 -30 33.5s-52.333 10.5 -97 10.5v62h428v-62
c-23.333 0 -45.333 -3.83301 -66 -11.5s-41 -19.5 -61 -35.5s-40.167 -36.833 -60.5 -62.5s-42.166 -56.5 -65.499 -92.5l-268 -409v-348c0 -31.333 2.33301 -57.333 7 -78s11.334 -35 20.001 -43c9.33301 -6.66699 27 -12.167 53 -16.5s62 -8.16602 108 -11.499v-62h-585
v62c46 3.33301 81.5 7.5 106.5 12.5s43 13.167 54 24.5s17.333 27.5 19 48.5s2.5 49.167 2.5 84.5v313l-87 124.5l-74 109.5l-129.5 190c-34.333 50 -64.833 89.667 -91.5 119s-51.334 50 -74.001 62s-48 18.667 -76 20v62h538z" />
    <glyph glyph-name="Z" unicode="Z" horiz-adv-x="1139" 
d="M20 -33l787 1093h-392c-50 0 -93 -5.66699 -129 -17s-64.333 -29.666 -85 -54.999c-11.333 -14.667 -22.833 -36.167 -34.5 -64.5s-21.5 -63.166 -29.5 -104.499h-75c6 56.667 12.333 113 19 169s13 112.333 19 169h989v-39l-777 -1095h441
c51.333 0 95.5 6.16699 132.5 18.5s66.5 30.166 88.5 53.499c13.333 13.333 26.333 34.5 39 63.5s26.667 67.167 42 114.5h72l-24.5 -173.5l-25.5 -174.5h-1057v42z" />
    <glyph glyph-name="bracketleft" unicode="[" horiz-adv-x="663" 
d="M550 1237h-315v-1457h315v-112h-433v1681h433v-112z" />
    <glyph glyph-name="backslash" unicode="\" horiz-adv-x="773" 
d="M213 1092l476 -1177h-150l-475 1177h149z" />
    <glyph glyph-name="bracketright" unicode="]" horiz-adv-x="702" 
d="M550 1349v-1681h-433v112h314v1457h-314v112h433z" />
    <glyph glyph-name="asciicircum" unicode="^" horiz-adv-x="1008" 
d="M543 1185l178 -399.5l178 -399.5h-158l-231 547l-187 -430c-2.66699 -7.33301 -5.66699 -15 -9 -23l-10 -23c-4.66699 -12 -9.66699 -24.167 -15 -36.5l-15 -34.5h-156l86.5 196l90 203.5l90.5 203.5l87 196h71z" />
    <glyph glyph-name="underscore" unicode="_" horiz-adv-x="905" 
d="M-11 -302v119h939v-119h-939z" />
    <glyph glyph-name="grave" unicode="`" horiz-adv-x="1124" 
d="M564 1009c28.667 0 53 -10 73 -30s30 -44 30 -72s-10 -52 -30 -72s-44.333 -30 -73 -30c-28 0 -52 10 -72 30s-30 44 -30 72s10 52 30 72s44 30 72 30zM16 637h1093v-132h-1093v132zM563 347c28.667 0 53 -10.167 73 -30.5s30 -44.5 30 -72.5c0 -28.667 -10 -53 -30 -73
s-44.333 -30 -73 -30c-28 0 -52.167 10 -72.5 30s-30.5 44.333 -30.5 73c0 28 10 52.167 30 72.5s44.333 30.5 73 30.5z" />
    <glyph glyph-name="a" unicode="a" horiz-adv-x="793" 
d="M491 409c-83.333 -30 -149 -64.5029 -197 -103.503s-72 -81.5 -72 -127.5c0 -39.333 10.667 -70.666 32 -93.999s49 -35 83 -35c16 0 33 2.33301 51 7s34.667 11.334 50 20.001s28 19.334 38 32.001s15 26.667 15 42v259zM171 344.997
c24 17.333 63.8281 38.4961 119.495 63.4961s122.5 51.5 200.5 79.5v64c0 30 -1.83301 55.667 -5.5 77s-10.334 38.833 -20.001 52.5s-23 23.834 -40 30.501s-38.833 10 -65.5 10c-13.333 0 -26.5 -1.66699 -39.5 -5s-25 -8.33301 -36 -15s-19.833 -14.5 -26.5 -23.5
s-10 -19.167 -10 -30.5c0 -7.33301 0.666992 -14.333 2 -21s2.66602 -12.667 3.99902 -18c0 -1.33301 0.166992 -2.16602 0.5 -2.49902s0.5 -0.833008 0.5 -1.5c1.33301 -3.33301 2 -7.5 2 -12.5v-12.5c0 -32.667 -8.66699 -56.667 -26 -72s-38.666 -23 -63.999 -23
c-16 0 -30.167 2.66699 -42.5 8s-22.666 12.5 -30.999 21.5s-14.666 19.333 -18.999 31s-6.5 23.834 -6.5 36.501c0 20.667 7.5 43.834 22.5 69.501s35.5 50.167 61.5 73.5c27.333 21.333 60.833 38.5 100.5 51.5s83.834 19.5 132.501 19.5
c47.333 0 88.666 -5.16699 123.999 -15.5s64.666 -27.5 87.999 -51.5s40.666 -55.5 51.999 -94.5s17 -87.167 17 -144.5v-354c0 -34 2.83301 -57.833 8.5 -71.5s17.167 -20.5 34.5 -20.5c7.33301 0 17.833 3.16699 31.5 9.5s33.834 19.833 60.501 40.5v-81
c-9.33301 -11.333 -20.166 -22.833 -32.499 -34.5s-26.166 -22.167 -41.499 -31.5s-31.666 -16.833 -48.999 -22.5s-35.666 -8.5 -54.999 -8.5c-35.333 0 -64.166 8.83301 -86.499 26.5s-36.5 46.5 -42.5 86.5c-25.333 -20 -49.166 -37.333 -71.499 -52
s-43.833 -26.834 -64.5 -36.501s-40.834 -17 -60.501 -22s-39.5 -7.5 -59.5 -7.5c-26 0 -51.167 5.16699 -75.5 15.5s-46 24.5 -65 42.5s-34.333 39.667 -46 65s-17.5 53 -17.5 83c0 44.667 11.333 86.334 34 125.001s57 73 103 103z" />
    <glyph glyph-name="b" unicode="b" horiz-adv-x="919" 
d="M10 1055l0.000976562 57c34 5.33301 67.333 13 100 23s64 20.667 94 32c11.333 4 21.833 7.16699 31.5 9.5l41.5 10.5c3.33301 0 6 0.333008 8 1s4.66699 1.66699 8 3v-20l4 -124.5c1.33301 -41 3 -81.167 5 -120.5c1.33301 -40 2.83301 -80.5 4.5 -121.5
s3.16699 -83.167 4.5 -126.5c32.667 35.333 70.5 63 113.5 83s87.167 30 132.5 30c43.333 0 84.833 -9.83301 124.5 -29.5s74.667 -47.5 105 -83.5s54.5 -79.333 72.5 -130s27 -106.667 27 -168c0 -65.333 -11.333 -126.666 -34 -183.999s-54.167 -107.333 -94.5 -150
s-87.833 -76.334 -142.5 -101.001s-114 -37 -178 -37c-35.333 0 -71 4.16699 -107 12.5s-68.667 18.833 -98 31.5s-53.333 26.667 -72 42s-28 30.333 -28 45v941c0 10.667 -0.166992 21 -0.5 31s-2.5 18.5 -6.5 25.5s-10.333 12.667 -19 17s-21.334 6.5 -38.001 6.5z
M367.001 19c42 -13.333 76.3311 -20.001 102.998 -20.001c40.667 0 75.5 8.66699 104.5 26s52.833 40 71.5 68s32.334 60.167 41.001 96.5s13 73.5 13 111.5c0 37.333 -3.83301 76.333 -11.5 117s-20.167 77.834 -37.5 111.501s-40.166 61.5 -68.499 83.5
s-62.833 33 -103.5 33c-16 0 -33.833 -3 -53.5 -9s-38.167 -14.5 -55.5 -25.5s-31.833 -24 -43.5 -39s-17.5 -31.5 -17.5 -49.5v-453c4.66699 -24.667 24 -41.667 58 -51z" />
    <glyph glyph-name="c" unicode="c" horiz-adv-x="788" 
d="M664 732c28 -20 49.9912 -41.6738 65.9912 -65.0068s24 -47.666 24 -72.999c0 -18 -3.33301 -33 -10 -45s-15 -21.667 -25 -29s-20.833 -12.666 -32.5 -15.999s-22.5 -5 -32.5 -5c-11.333 0 -22.333 2.5 -33 7.5s-20.667 11.833 -30 20.5s-17.666 18.834 -24.999 30.501
s-12.666 24.5 -15.999 38.5l-11 42c-9.33301 23.333 -22 41.666 -38 54.999s-37.333 20 -64 20c-30.667 0 -59.667 -7.66699 -87 -23s-51.166 -36.833 -71.499 -64.5s-36.5 -60.5 -48.5 -98.5s-18 -79.333 -18 -124c0 -42 6.16699 -82.833 18.5 -122.5s30 -75.167 53 -106.5
s51.167 -56.5 84.5 -75.5s71.333 -28.5 114 -28.5c24 0 45.833 2.33301 65.5 7s38.834 13.334 57.501 26.001s38.167 30.334 58.5 53.001s43.5 52 69.5 88c9.33301 -4.66699 17.833 -9.16699 25.5 -13.5s16.167 -8.83301 25.5 -13.5c-22 -48.667 -47 -92.167 -75 -130.5
s-58.167 -70.666 -90.5 -96.999s-66.166 -46.5 -101.499 -60.5s-71.333 -21 -108 -21c-46.667 0 -92.167 9.66699 -136.5 29s-83.666 47.333 -117.999 84s-61.833 80.834 -82.5 132.501s-31 110.167 -31 175.5c0 61.333 10.667 119.833 32 175.5s51 104.834 89 147.501
s82.833 76.5 134.5 101.5s107.834 37.5 168.501 37.5c38.667 0 73.834 -4.83301 105.501 -14.5s62.834 -24.5 93.501 -44.5z" />
    <glyph glyph-name="d" unicode="d" horiz-adv-x="914" 
d="M787 1181c0 -17.333 0.169922 -36.0049 0.50293 -56.0049l1 -60c0.333008 -20 0.833008 -38.833 1.5 -56.5s1.33398 -32.834 2.00098 -45.501v-29l-3 -784c0 -14 0.5 -26.5 1.5 -37.5s4 -20.333 9 -28s12.5 -13.5 22.5 -17.5s24 -6 42 -6h31l24 24v-79l-65 -20
c-1.33301 -0.666992 -2.33301 -1 -3 -1s-1.66699 -0.333008 -3 -1l-11 -4.5c-4 -1.66699 -8.66699 -3.5 -14 -5.5c-3.33301 -0.666992 -8 -2 -14 -4s-11.667 -4 -17 -6c-3.33301 -1.33301 -7 -2.66602 -11 -3.99902l-38 -13.5l-43 -15
c-14.667 -5 -28.834 -10.167 -42.501 -15.5s-26.167 -10 -37.5 -14c-0.666992 5.33301 -1.33398 10 -2.00098 14s-1.33398 8.66699 -2.00098 14v69c-33.333 -28.667 -67.833 -51 -103.5 -67s-75.5 -24 -119.5 -24c-54 0 -102.667 11 -146 33s-80.166 51.5 -110.499 88.5
s-53.833 79.833 -70.5 128.5s-25 99.334 -25 152.001c0 66 10.167 128.333 30.5 187s48.5 109.834 84.5 153.501s78.5 78.334 127.5 104.001s101.833 38.5 158.5 38.5c17.333 0 33.166 -0.833008 47.499 -2.5s28.333 -4.66699 42 -9s27.334 -10.666 41.001 -18.999
s28.167 -18.833 43.5 -31.5v251c0 14 -0.5 26 -1.5 36s-3.33301 18.333 -7 25s-9.5 11.5 -17.5 14.5s-19 4.5 -33 4.5h-14c-0.666992 0 -1.33398 -0.166992 -2.00098 -0.5s-1.33398 -0.5 -2.00098 -0.5c-1.33301 -0.666992 -4.33301 -1 -9 -1
c-4.66699 -1.33301 -11 -2.16602 -19 -2.49902s-14.667 -0.5 -20 -0.5v59l42.5 10l42.5 10c28.667 5.33301 58 14 88 26c2 0.666992 4.33301 1.5 7 2.5s5 1.83301 7 2.5c13.333 5.33301 27.833 10.333 43.5 15s33.167 8 52.5 10zM578.003 71.9951
c11.333 12 20.499 23.333 27.499 34s10.5 20.667 10.5 30v383c0 35.333 -5.83301 65.333 -17.5 90s-26.167 44.834 -43.5 60.501s-35.666 27.167 -54.999 34.5s-36.333 11 -51 11c-36 0 -68 -9 -96 -27s-51.5 -42 -70.5 -72s-33.5 -64.833 -43.5 -104.5
s-15 -81.167 -15 -124.5c0 -42 4.83301 -83.833 14.5 -125.5s24.667 -79.334 45 -113.001s46.333 -61 78 -82s69.5 -31.5 113.5 -31.5c22 0 41.5 3 58.5 9s32.167 15 45.5 27z" />
    <glyph glyph-name="e" unicode="e" horiz-adv-x="811" 
d="M664 697c34.667 -30 60.334 -67.9971 77.001 -113.997s25 -98.333 25 -157h-565c4.66699 -61.333 14.167 -115.833 28.5 -163.5s34.833 -85.5 61.5 -113.5h-1c25.333 -30 53.833 -52.167 85.5 -66.5s66.167 -21.5 103.5 -21.5c57.333 0 107.333 15.667 150 47
c18 13.333 37.833 32.166 59.5 56.499s42.167 53.833 61.5 88.5l57 -21c-14 -40.667 -33.5 -80.5 -58.5 -119.5s-55.5 -75.167 -91.5 -108.5c-34.667 -32 -73 -56.667 -115 -74s-87.333 -26 -136 -26c-56.667 0 -107.834 11.5 -153.501 34.5s-85.167 55.5 -118.5 97.5
c-30 43.333 -53 90.166 -69 140.499s-24 102.833 -24 157.5c0 58 9.83301 114.833 29.5 170.5s46.167 104.834 79.5 147.501c34 41.333 75.5 74.166 124.5 98.499s103.167 37.166 162.5 38.499c44 0 84.333 -7.33301 121 -22s72 -37.667 106 -69v-1zM243 609.003
c-7.33301 -12.667 -13.6709 -26 -19.0039 -40s-10.666 -33 -15.999 -57h342c-2.66699 22.667 -7 44 -13 64s-12 35.667 -18 47c-13.333 24.667 -31.166 42.667 -53.499 54s-49.166 17 -80.499 17c-63.333 0 -110.666 -28.333 -141.999 -85z" />
    <glyph glyph-name="f" unicode="f" horiz-adv-x="683" 
d="M1 -20c36 1.33301 64.168 4.16797 84.501 8.50098s35.666 12 45.999 23s16.833 25.833 19.5 44.5s4 43 4 73v555h-152v90h152c2.66699 139.333 32 244.333 88 315s133.333 106 232 106c28 0 55.167 -3 81.5 -9s49.5 -14.5 69.5 -25.5s36.167 -24.333 48.5 -40
s18.5 -33.5 18.5 -53.5c0 -10 -2.66699 -20.333 -8 -31s-12.333 -20.334 -21 -29.001s-18.167 -15.834 -28.5 -21.501s-20.833 -8.5 -31.5 -8.5c-9.33301 0 -18.5 1.33301 -27.5 4s-17.5 7.66699 -25.5 15c-6 4.66699 -14.5 14.334 -25.5 29.001l-32.5 43
c-3.33301 4 -6.16602 7.83301 -8.49902 11.5s-4.83301 7.16699 -7.5 10.5c-2.66699 1.33301 -4.83398 3.33301 -6.50098 6s-2.16699 4.33398 -1.5 5.00098c-13.333 8.66699 -28 13 -44 13c-28.667 0 -51 -12 -67 -36s-24 -60 -24 -108v-196h223v-90h-221v-555
c0 -31.333 2 -57.333 6 -78s9 -35.334 15 -44.001c6.66699 -5.33301 22 -10.833 46 -16.5s57.333 -9.16699 100 -10.5v-55h-502v55z" />
    <glyph glyph-name="g" unicode="g" horiz-adv-x="830" 
d="M117 325c-15.333 25.333 -27.0029 50.5039 -35.0029 75.5039s-12 53.5 -12 85.5c0 34 7 69 21 105s34.833 68.833 62.5 98.5s62.167 54 103.5 73s89.666 28.5 144.999 28.5c13.333 0 28 -1.16699 44 -3.5s32.333 -5.5 49 -9.5s33.5 -8.33301 50.5 -13l48.5 -13l46 -12.5
c13.333 -3.66699 25 -6.16699 35 -7.5c10.667 0.666992 21.834 1.16699 33.501 1.5s22.334 0.5 32.001 0.5h25h13.5h53v-103h-149c0 -0.666992 0.666992 -2.33398 2 -5.00098l3 -6c0 -2.66699 0.666992 -5.33398 2 -8.00098c0.666992 -1.33301 1.16699 -2.5 1.5 -3.5
s0.833008 -2.16699 1.5 -3.5c6 -18 11.333 -36.333 16 -55s7 -41 7 -67c0 -31.333 -7 -63.833 -21 -97.5s-34.833 -64.334 -62.5 -92.001s-61.667 -50.334 -102 -68.001s-86.5 -26.5 -138.5 -26.5c-6 0 -16.833 0.333008 -32.5 1s-32.167 2.66699 -49.5 6
c-8.66699 -2.66699 -18.334 -8 -29.001 -16s-20.834 -16.833 -30.501 -26.5s-17.667 -19.5 -24 -29.5s-9.5 -18.667 -9.5 -26c0 -6.66699 5.16699 -12.5 15.5 -17.5s22.833 -9 37.5 -12s29.834 -5.16699 45.501 -6.5s29.167 -2 40.5 -2
c93.333 0 169.666 -3.33301 228.999 -10s105.833 -18.334 139.5 -35.001s56.834 -39.167 69.501 -67.5s19 -64.166 19 -107.499c0 -33.333 -7 -64.166 -21 -92.499s-33 -54.333 -57 -78s-52.167 -44.667 -84.5 -63s-66.5 -33.833 -102.5 -46.5
s-73.167 -22.334 -111.5 -29.001s-75.5 -10 -111.5 -10c-51.333 0 -97.333 5.66699 -138 17s-75.167 26.333 -103.5 45s-50 39.667 -65 63s-22.5 47 -22.5 71c0 14.667 3.5 29.167 10.5 43.5s16 28.333 27 42s22.833 26.5 35.5 38.5l37 34c0 0.666992 1 2 3 4
c0.666992 0.666992 1.16699 1 1.5 1s0.833008 0.333008 1.5 1l49 45c-31.333 14 -52.666 29.167 -63.999 45.5s-17 35.5 -17 57.5c0 10.667 2.16699 22 6.5 34s12 25.5 23 40.5s25.833 32 44.5 51s42.334 41.167 71.001 66.5c-21.333 11.333 -41.166 25.333 -59.499 42
s-34.5 34 -48.5 52zM229.997 -312.996c28 -9.33301 56.9961 -16.5 86.9961 -21.5s63 -7.5 99 -7.5c44 0 85.333 4 124 12s72.334 19.333 101.001 34s51.334 32 68.001 52s25 42 25 66c0 12.667 -3.33301 23.834 -10 33.501s-18.667 17.834 -36 24.501
s-41.166 11.5 -71.499 14.5s-69.166 4.5 -116.499 4.5c-31.333 0 -61.333 1.5 -90 4.5s-59 6.5 -91 10.5c-12.667 1.33301 -25.5 2.83301 -38.5 4.5s-26.5 3.16699 -40.5 4.5c-10.667 -10 -21 -21.5 -31 -34.5s-19 -26.333 -27 -40s-14.333 -26.834 -19 -39.501
s-7 -23.334 -7 -32.001c0 -23.333 6 -42 18 -56s30.667 -25.333 56 -34zM497.993 294.004c16.667 13.333 28.6709 31.001 36.0039 53.001s11 50.333 11 85c0 14 -1.33301 30.667 -4 50s-6.83398 39.333 -12.501 60s-13 41.167 -22 61.5s-20 38.666 -33 54.999
s-27.833 29.5 -44.5 39.5s-35.334 15 -56.001 15c-40 0 -70.5 -15.833 -91.5 -47.5s-31.5 -75.167 -31.5 -130.5c0 -30.667 4 -61.667 12 -93s19.667 -59.666 35 -84.999s33.666 -46 54.999 -62s45.666 -24 72.999 -24c11.333 0 23 1.66699 35 5s22 7.66602 30 12.999l-1 -5
h4z" />
    <glyph glyph-name="h" unicode="h" horiz-adv-x="914" 
d="M17 -20c29.333 1.33301 52.001 4.33301 68.001 9s27.833 12.5 35.5 23.5s12.167 25.5 13.5 43.5s2 40.667 2 68v854c0 10.667 -0.333008 21 -1 31s-3 18.667 -7 26s-10.167 13.333 -18.5 18s-19.833 7 -34.5 7h-8.5c-2.33301 0 -5.33301 -0.5 -9 -1.5l-14 -4
c-5.66699 -1.66699 -13.5 -4.16699 -23.5 -7.5v70c4.66699 0 10.167 0.833008 16.5 2.5l34.5 9.5c7.33301 2 15.5 4 24.5 6s19.167 4.66699 30.5 8c5.33301 2.66699 11 5 17 7c32.667 12 63.334 22.5 92.001 31.5s54 13.5 76 13.5v-524c38.667 36 80.5 65 125.5 87
s88.167 33 129.5 33c77.333 0 136.666 -25 177.999 -75s62 -126.667 62 -230v-362c0 -24 0.833008 -44.833 2.5 -62.5s6.16699 -32.334 13.5 -44.001s18.333 -20.5 33 -26.5s35 -9.66699 61 -11v-55h-414v53c31.333 4 55.333 8.66699 72 14s28.834 13.333 36.501 24
s12 24.5 13 41.5s1.5 39.167 1.5 66.5v359c0 22 -1.5 43.833 -4.5 65.5s-9 41 -18 58s-21.667 30.667 -38 41s-37.833 15.5 -64.5 15.5c-16 0 -33.5 -3.83301 -52.5 -11.5s-37.167 -16.667 -54.5 -27s-33 -21.166 -47 -32.499s-24 -20.666 -30 -27.999v-440
c0 -26 0.5 -47.333 1.5 -64s5.16699 -30.334 12.5 -41.001s19.166 -19 35.499 -25s40.166 -10.667 71.499 -14v-55h-420v55z" />
    <glyph glyph-name="i" unicode="i" horiz-adv-x="451" 
d="M0 -22c34.667 3.33301 61.6699 6.6709 81.0029 10.0039s33.666 9.66602 42.999 18.999s14.833 23 16.5 41s2.5 43.333 2.5 76v423c0 20.667 -0.666992 37.667 -2 51s-3.83301 23.833 -7.5 31.5s-8.66699 13 -15 16s-14.5 4.5 -24.5 4.5h-12
c-3.33301 -0.666992 -7 -1.66699 -11 -3c-3.33301 -1.33301 -7.5 -2.66602 -12.5 -3.99902s-10.5 -3 -16.5 -5c-2 -2 -7.33301 -4 -16 -6c-3.33301 -0.666992 -6.5 -1.33398 -9.5 -2.00098s-5.5 -1.33398 -7.5 -2.00098v62l48 14c30 8.66699 56.833 17.5 80.5 26.5
l64.5 24.5c23.333 9.33301 43.666 17.166 60.999 23.499s30.666 8.83301 39.999 7.5c8 0 13.5 -1.83301 16.5 -5.5s5.16699 -8.83398 6.5 -15.501v-641c0 -31.333 1.83301 -56.833 5.5 -76.5s8.16699 -34.167 13.5 -43.5c6.66699 -5.33301 19.667 -9.83301 39 -13.5
s45 -7.16699 77 -10.5v-55h-461v53zM142.003 1163c24 21.333 49.668 31.998 77.001 31.998c11.333 0 23.5 -2.66699 36.5 -8s25 -12.666 36 -21.999s20 -20.833 27 -34.5s10.5 -28.5 10.5 -44.5c0 -12 -3 -24.333 -9 -37s-14 -24 -24 -34s-21.667 -18.333 -35 -25
s-27.333 -10 -42 -10c-12.667 0 -25.334 2.66699 -38.001 8s-24 12.833 -34 22.5s-18.167 20.834 -24.5 33.501s-9.5 26.667 -9.5 42s2.66699 28.833 8 40.5s12 23.167 20 34.5z" />
    <glyph glyph-name="j" unicode="j" horiz-adv-x="437" 
d="M97 -333c28 -34 50.6709 -51 68.0039 -51c24 0 42.167 11.833 54.5 35.5s18.5 65.5 18.5 125.5c0 4.66699 -0.666992 9 -2 13c-0.666992 2 -1 4.66699 -1 8v12l3 735c0 32 -2.66699 57.167 -8 75.5s-19.333 27.5 -42 27.5l-18 -5c-0.666992 -0.666992 -1.66699 -1 -3 -1
s-2.33301 -0.166992 -3 -0.5s-1.33398 -0.5 -2.00098 -0.5c-9.33301 -2.66699 -19 -5 -29 -7s-20.667 -3 -32 -3v56l158 49.5l113 37.5c5.33301 1.33301 10.833 2.83301 16.5 4.5s11.167 3.16699 16.5 4.5h-1c2 0.666992 4.16699 1 6.5 1s4.16602 0.333008 5.49902 1v-846
c0 -77.333 -7.16699 -142.166 -21.5 -194.499s-35.5 -94.5 -63.5 -126.5s-63.167 -55 -105.5 -69s-91.5 -21 -147.5 -21c-24.667 0 -47.334 3 -68.001 9s-38.5 14.333 -53.5 25s-26.667 23.5 -35 38.5s-12.5 31.167 -12.5 48.5c0 10 2.83301 19.833 8.5 29.5
s12.667 18.167 21 25.5s17.5 13.166 27.5 17.499s19.667 6.5 29 6.5c17.333 0 34.666 -4.66699 51.999 -14s34 -25 50 -47zM245.004 1163c11.333 11.333 22.665 19.5029 33.998 24.5029s25.333 7.5 42 7.5c15.333 0 28.333 -2.83301 39 -8.5s21.667 -13.167 33 -22.5
c10.667 -9.33301 19.167 -20.666 25.5 -33.999s9.5 -28 9.5 -44c0 -11.333 -2.83301 -23.166 -8.5 -35.499s-13.167 -24.5 -22.5 -36.5h1c-9.33301 -10 -20.666 -18.167 -33.999 -24.5s-27.666 -9.5 -42.999 -9.5c-13.333 0 -26 2.66699 -38 8s-24 12.666 -36 21.999v-1
c-10.667 9.33301 -19.167 20.666 -25.5 33.999s-9.5 27.666 -9.5 42.999s2.5 29.166 7.5 41.499s13.5 24.166 25.5 35.499z" />
    <glyph glyph-name="k" unicode="k" horiz-adv-x="938" 
d="M3 -20c65.333 2 106.003 8.99707 122.003 20.9971c5.33301 7.33301 10.166 18.333 14.499 33s6.5 33 6.5 55v891c0 16.667 -1.83301 30.334 -5.5 41.001s-8.66699 19 -15 25s-13.833 10.167 -22.5 12.5s-18.334 3.5 -29.001 3.5c-13.333 0 -25.333 -1.16699 -36 -3.5
s-22.334 -6.16602 -35.001 -11.499v63l46 12l46 12h-1c4.66699 1.33301 9 2.33301 13 3s8 1.66699 12 3l75.5 19.5c21 5.66699 38.833 11.834 53.5 18.501c7.33301 2 14.833 4.33301 22.5 7s15.167 5 22.5 7c10 0 20 -4.66699 30 -14v-733l54 47.5l59 52l59.5 53l55.5 51.5
l6.5 8l6.5 8h-1c3.33301 3.33301 7.83301 9 13.5 17s8.5 13.667 8.5 17c0 2.66699 -0.833008 4.83398 -2.5 6.50098s-5.5 3.16699 -11.5 4.5s-15.167 2.5 -27.5 3.5s-29.166 2.16699 -50.499 3.5v55h400v-55c-34 -1.33301 -63.833 -5.33301 -89.5 -12
s-50.167 -16.5 -73.5 -29.5s-46.833 -29.167 -70.5 -48.5l-81.5 -70l-57 -49.5l-68 -57.5l125.5 -166l95.5 -122c28 -34 53 -62.333 75 -85s43 -41 63 -55s40.167 -24.5 60.5 -31.5s42.833 -12.167 67.5 -15.5v-50h-426v55h45c2.66699 0 6.16699 0.333008 10.5 1
s11.166 3.66699 20.499 9c0 4 -6.33301 13.667 -19 29l-248 327v-285c0 -14.667 1.83301 -26.834 5.5 -36.501s10.5 -17.667 20.5 -24s24 -11 42 -14s41.333 -5.16699 70 -6.5v-55h-458v55z" />
    <glyph glyph-name="l" unicode="l" horiz-adv-x="465" 
d="M4 -20c20 2 38.668 4.33203 56.001 6.99902s32.333 7.83398 45 15.501s22.667 18.834 30 33.501s11 34.667 11 60v869c0 33.333 -5.66699 58.666 -17 75.999s-34 26 -68 26c-3.33301 0 -7 -1 -11 -3c-4.66699 -2 -10.834 -4 -18.501 -6s-18.167 -3 -31.5 -3v57l60.5 16.5
c23.667 6.33301 48.667 13.5 75 21.5l81.5 25c28 8.66699 54.667 17.667 80 27c6.66699 0 12 -1.16699 16 -3.5s7 -5 9 -8s3.16699 -6 3.5 -9s0.5 -5.5 0.5 -7.5v-1080c0 -23.333 2.33301 -42.833 7 -58.5s10 -27.167 16 -34.5c6.66699 -3.33301 19.667 -7 39 -11
s44.333 -7.33301 75 -10v-55h-459v55z" />
    <glyph glyph-name="m" unicode="m" horiz-adv-x="1427" 
d="M8 -22c25.333 0.666992 46.1689 2.83594 62.502 6.50293s29.333 9.5 39 17.5s16.334 19 20.001 33s5.5 32 5.5 54v458c0 25.333 -4.83301 47.5 -14.5 66.5s-24.834 28.5 -45.501 28.5c-18.667 0 -39.334 -8 -62.001 -24v72c62 25.333 117.167 46.666 165.5 63.999
s89.5 27.333 123.5 30c2.66699 -12 4.16699 -19.333 4.5 -22s1.16602 -5.66699 2.49902 -9v-90c28 22.667 53.5 42 76.5 58s45 28.667 66 38s41.833 16.166 62.5 20.499s42 6.5 64 6.5c46 0 85 -11 117 -33s59.333 -58 82 -108c28 28 53.5 51 76.5 69s45.333 32.333 67 43
s43.334 18.167 65.001 22.5s45.5 6.5 71.5 6.5c42.667 0 78.667 -5.83301 108 -17.5s53.333 -30.667 72 -57s32.167 -61.166 40.5 -104.499s12.5 -96.333 12.5 -159v-369c0 -17.333 2 -32.166 6 -44.499s10.833 -22.5 20.5 -30.5s22.834 -14.167 39.501 -18.5
s37.667 -6.83301 63 -7.5v-53h-430v55c26.667 1.33301 48.334 3.83301 65.001 7.5s29.5 9.83398 38.5 18.501s15.167 20 18.5 34s5 32 5 54v382c0 63.333 -9.83301 110.333 -29.5 141s-54.5 46 -104.5 46c-17.333 0 -34.833 -3.33301 -52.5 -10s-35.5 -15.334 -53.5 -26.001
c-3.33301 -5.33301 -7.83301 -10.333 -13.5 -15l-18.5 -15c-6.66699 -4.66699 -13.334 -9.83398 -20.001 -15.501s-14 -12.5 -22 -20.5v-449c0 -22 1.33301 -41.167 4 -57.5s8.66699 -30 18 -41s22.666 -19.5 39.999 -25.5s41 -9.33301 71 -10v-53h-438v53
c29.333 3.33301 52.5 7.16602 69.5 11.499s30 12.166 39 23.499s14.833 27.833 17.5 49.5s4 51.834 4 90.501v248c0 45.333 -1.83301 84.5 -5.5 117.5s-10.334 60.167 -20.001 81.5s-22.834 37.166 -39.501 47.499s-37.667 15.5 -63 15.5
c-15.333 0 -31.166 -3.16699 -47.499 -9.5s-32.5 -14.5 -48.5 -24.5s-31.5 -21 -46.5 -33s-28.5 -23.667 -40.5 -35v-477c0 -17.333 0.5 -32.5 1.5 -45.5s5.33301 -24 13 -33s20.167 -15.833 37.5 -20.5s42.333 -7 75 -7v-53h-435v53z" />
    <glyph glyph-name="n" unicode="n" horiz-adv-x="893" 
d="M15 -22c24 3.33301 43.502 6.66699 58.502 10s26.5 9 34.5 17s13.5 19.5 16.5 34.5s4.5 35.5 4.5 61.5v451c0 18 -1 32.5 -3 43.5s-5 20 -9 27s-9.16699 12.167 -15.5 15.5s-13.833 6.66602 -22.5 9.99902h-69v61c6.66699 0 13.834 0.666992 21.501 2s16.667 3.5 27 6.5
s22.5 6.83301 36.5 11.5s31 10.667 51 18c7.33301 2.66699 14.666 5.16699 21.999 7.5s15.333 5.16602 24 8.49902c13.333 4.66699 27.5 9.33398 42.5 14.001s29.167 9.33398 42.5 14.001c5.33301 -0.666992 9.83301 -1.5 13.5 -2.5s8.16699 -1.83301 13.5 -2.5l3 -124
l79 64.5c21.333 17 41 30.167 59 39.5s36 15.833 54 19.5s39 5.5 63 5.5c34.667 0 65.667 -6.83301 93 -20.5s50.666 -33.167 69.999 -58.5s34.166 -55.666 44.499 -90.999s15.5 -75 15.5 -119v-415c0 -21.333 1.66699 -38.5 5 -51.5s7.66602 -24.167 12.999 -33.5
c8 -6.66699 19.833 -12 35.5 -16s34.5 -6 56.5 -6v-55h-409v53c28 4 49.833 8.5 65.5 13.5s27.5 12.5 35.5 22.5s12.833 23.333 14.5 40s2.5 38.667 2.5 66v377c0 24.667 -2.33301 47 -7 67s-11 38.333 -19 55c-8.66699 11.333 -20.667 21.166 -36 29.499s-34 12.5 -56 12.5
c-27.333 0 -55 -8.33301 -83 -25s-57.667 -41 -89 -73v-488c0 -32.667 8 -57 24 -73c14.667 -14.667 46.334 -22 95.001 -22v-55h-418v53z" />
    <glyph glyph-name="o" unicode="o" horiz-adv-x="910" 
d="M156 660c38.667 43.333 83.168 75.6709 133.501 97.0039s105.833 32 166.5 32c59.333 0 114.666 -10.833 165.999 -32.5s96 -51.834 134 -90.501s68 -84.834 90 -138.501s33 -112.5 33 -176.5c0 -58.667 -10 -115.334 -30 -170.001s-48.167 -103 -84.5 -145
s-80 -75.667 -131 -101s-107.833 -38 -170.5 -38c-57.333 0 -111.5 11.5 -162.5 34.5s-95.833 54.833 -134.5 95.5s-69.167 88.667 -91.5 144s-33.5 115.333 -33.5 180c0 59.333 9 114.666 27 165.999s47.333 99 88 143zM432.001 705.005c-22 0 -43.5 -4.33301 -64.5 -13
s-42.833 -22.667 -65.5 -42c-44 -50.667 -66 -136 -66 -256c0 -45.333 5.33301 -92.5 16 -141.5s26.667 -93.833 48 -134.5s48 -74.167 80 -100.5s69 -39.5 111 -39.5c33.333 0 62.166 8.5 86.499 25.5s44.333 40 60 69s27.334 62.667 35.001 101s11.5 78.5 11.5 120.5
c0 30 -2.33301 61 -7 93s-11.667 63.333 -21 94s-21 59.5 -35 86.5s-30.333 50.667 -49 71s-39.667 36.5 -63 48.5s-49 18 -77 18z" />
    <glyph glyph-name="p" unicode="p" horiz-adv-x="907" 
d="M-1 -412c29.333 1.33301 52.5 4.66992 69.5 10.0029s30 12.666 39 21.999s14.833 21 17.5 35s4 30.333 4 49v852c0 21.333 -0.833008 37.833 -2.5 49.5s-4.83398 20.5 -9.50098 26.5s-11.167 9.83301 -19.5 11.5s-18.833 3.16699 -31.5 4.5
c-7.33301 0 -15.5 -0.833008 -24.5 -2.5s-20.167 -5.83398 -33.5 -12.501v66l92 31c2.66699 1.33301 5.33398 2.16602 8.00098 2.49902s5.66699 1.16602 9 2.49902l77.5 23.5c29.667 9 62.167 19.833 97.5 32.5l17 -17v-96c44 40.667 85.833 70 125.5 88s82.167 27 127.5 27
c42 0 81.833 -9.16699 119.5 -27.5s71 -44.833 100 -79.5s52 -77 69 -127s25.5 -106.667 25.5 -170c0 -58 -9.66699 -115.833 -29 -173.5s-46.166 -109.167 -80.499 -154.5s-75.166 -82.166 -122.499 -110.499s-99 -42.5 -155 -42.5c-32.667 0 -64.334 4.33301 -95.001 13
s-58.334 23.667 -83.001 45v-253c0 -25.333 1.16699 -45.333 3.5 -60s8.5 -26.167 18.5 -34.5s25.5 -14.333 46.5 -18s50.5 -7.16699 88.5 -10.5v-59h-469v57zM374 26.0039c26.667 -18 60.332 -27 100.999 -27c30 0 58.167 8.33301 84.5 25s49.333 40 69 70
s35 66.167 46 108.5s16.5 89.5 16.5 141.5c0 49.333 -5.83301 93.333 -17.5 132s-27.5 71.334 -47.5 98.001s-43.167 47 -69.5 61s-54.5 21 -84.5 21c-18.667 0 -37.5 -3.5 -56.5 -10.5s-36.333 -15.667 -52 -26s-28.334 -21.833 -38.001 -34.5s-14.5 -24.667 -14.5 -36
v-440c2.66699 -7.33301 6.33398 -15.166 11.001 -23.499s9.83398 -16.333 15.501 -24s11.667 -14.834 18 -21.501s12.5 -11.334 18.5 -14.001z" />
    <glyph glyph-name="q" unicode="q" horiz-adv-x="877" 
d="M580 774c3.33301 -1.33301 13.1719 -5.66895 29.5049 -13.002s34.833 -16.666 55.5 -27.999c11.333 7.33301 22.166 13.833 32.499 19.5s21.166 11.167 32.499 16.5c5.33301 3.33301 10.833 6.33301 16.5 9l16.5 8l-1 4h-2c4.66699 3.33301 9 4.66602 13 3.99902
s7.66699 -2.5 11 -5.5s6.5 -6.66699 9.5 -11s5.5 -8.83301 7.5 -13.5v-1085c0 -14 1.66699 -26.667 5 -38s9.33301 -21.166 18 -29.499s20.334 -14.833 35.001 -19.5s33.667 -7.66699 57 -9v-52h-458v57c25.333 0 47.666 1.33301 66.999 4s35.5 8.33398 48.5 17.001
s22.833 21.334 29.5 38.001s10 38.667 10 66v307c-22 -23.333 -43.333 -42.333 -64 -57s-41.5 -26.334 -62.5 -35.001s-42.333 -14.5 -64 -17.5s-44.834 -4.5 -69.501 -4.5c-36.667 0 -73.5 9 -110.5 27s-70.167 44.667 -99.5 80s-53.333 79 -72 131s-28 112 -28 180
c0 68.667 11 131.5 33 188.5s52.667 106.167 92 147.5s85.666 73.5 138.999 96.5s111.666 34.5 174.999 34.5c18 0 35.5 -1.5 52.5 -4.5s32.167 -7.16699 45.5 -12.5zM449.006 48.9971c16 0 33.499 2.00098 52.499 6.00098s37 10.667 54 20s31.333 22.166 43 38.499
s18.167 36.5 19.5 60.5v373c0 54 -12.5 95.5 -37.5 124.5s-65.167 43.5 -120.5 43.5c-41.333 0 -76.666 -9.5 -105.999 -28.5s-53.333 -43.833 -72 -74.5s-32.5 -65.667 -41.5 -105s-13.5 -79.333 -13.5 -120c0 -44.667 4.33301 -87.5 13 -128.5s22.167 -77 40.5 -108
s41.5 -55.667 69.5 -74s61 -27.5 99 -27.5z" />
    <glyph glyph-name="r" unicode="r" horiz-adv-x="652" 
d="M9 -18c26.667 1.33301 48.666 3.66504 65.999 6.99805s31.333 9 42 17s18.167 18.833 22.5 32.5s6.5 31.167 6.5 52.5v399c0 43.333 -4 78 -12 104s-26 41.667 -54 47c-6.66699 -1.33301 -13.667 -2.5 -21 -3.5s-14.666 -2.16699 -21.999 -3.5
c-3.33301 -0.666992 -7 -1.16699 -11 -1.5s-8 -1.16602 -12 -2.49902v61c24.667 6.66699 46 12.667 64 18s34.167 10.5 48.5 15.5s27.5 10 39.5 15l37 15.5l40.5 16.5l47.5 19.5c3.33301 0 6.66602 -0.333008 9.99902 -1s6.66602 -1 9.99902 -1
c5.33301 -5.33301 8.33301 -9.66602 9 -12.999s1 -6.33301 1 -9v-110c33.333 44 66.833 77.333 100.5 100s68.5 34 104.5 34c32.667 0 60.334 -10.5 83.001 -31.5s34 -49.167 34 -84.5c0 -22 -8.16699 -42.167 -24.5 -60.5s-38.5 -29.833 -66.5 -34.5
c-16 1.33301 -33.5 7.5 -52.5 18.5s-34.833 21.167 -47.5 30.5c-5.33301 3.33301 -9.66602 6.16602 -12.999 8.49902l-8 5.5c-8.66699 -1.33301 -19 -6.16602 -31 -14.499s-23.667 -18.833 -35 -31.5s-21 -27 -29 -43s-12 -32.333 -12 -49v-402
c0 -22 1.83301 -40.667 5.5 -56s11 -27.833 22 -37.5s26.5 -16.667 46.5 -21s46.333 -6.5 79 -6.5v-57h-468v57z" />
    <glyph glyph-name="s" unicode="s" horiz-adv-x="655" 
d="M56 235l55.002 0.00292969c10 -47.333 21.667 -87.166 35 -119.499s29 -58.5 47 -78.5s38.833 -34.5 62.5 -43.5s51.167 -13.5 82.5 -13.5c19.333 0 37.166 3 53.499 9s30.166 13 41.499 21c10 12 17.833 25 23.5 39s8.5 29.667 8.5 47
c0 51.333 -30.333 93.666 -91 126.999l-50.5 28l-51.5 28c-32 20.667 -61.333 41 -88 61s-49.667 40.833 -69 62.5s-34.333 44.667 -45 69s-16 51.166 -16 80.499c0 35.333 7 67.666 21 96.999s33 54.666 57 75.999s52 38 84 50s66 18 102 18
c17.333 0 35.833 -2.16699 55.5 -6.5s38.167 -9.16602 55.5 -14.499c10 -3.33301 19.667 -6.16602 29 -8.49902s18.666 -4.16602 27.999 -5.49902h7c2.66699 0 5.66699 0.666992 9 2c0 0.666992 0.333008 2 1 4c0.666992 1.33301 1.16699 3 1.5 5s1.16602 4.66699 2.49902 8
h55v-278h-55c-11.333 72.667 -33 128 -65 166s-75 57 -129 57c-19.333 0 -36.166 -3 -50.499 -9s-26.5 -14.167 -36.5 -24.5s-17.667 -22.166 -23 -35.499s-8.33301 -27.333 -9 -42c-1.33301 -23.333 7.66699 -46.333 27 -69s48.333 -44.334 87 -65.001l59 -31.5l59 -32.5
c28.667 -16.667 55 -35 79 -55s44.667 -40.833 62 -62.5s30.833 -43.834 40.5 -66.501s14.834 -45 15.501 -67c0 -37.333 -7.5 -71.5 -22.5 -102.5s-35.833 -57.833 -62.5 -80.5s-58.167 -40.167 -94.5 -52.5s-75.833 -18.5 -118.5 -18.5c-21.333 0 -44 2.33301 -68 7
s-46.667 9.66699 -68 15c-12.667 3.33301 -24.5 6.16602 -35.5 8.49902s-21.167 4.16602 -30.5 5.49902c-1.33301 0 -3 -1 -5 -3l-5 -5c-1.33301 -2.66699 -2.5 -5.5 -3.5 -8.5s-2.16699 -6.16699 -3.5 -9.5h-50v317z" />
    <glyph glyph-name="t" unicode="t" horiz-adv-x="531" 
d="M489 774l-0.00488281 -93.998h-181v-497c0 -54 6.16699 -92.167 18.5 -114.5s32.5 -33.5 60.5 -33.5c6.66699 0 13.334 0.333008 20.001 1s14 3.16699 22 7.5s17.167 11.5 27.5 21.5s22.833 24 37.5 42l42 -39l-14 -23l-14 -23
c-24.667 -35.333 -55.667 -63.166 -93 -83.499s-74.666 -30.5 -111.999 -30.5c-64 0 -109.667 21.167 -137 63.5s-41 104.166 -41 185.499v523h-85c-19.333 0 -29.666 8 -30.999 24c4.66699 0.666992 12.334 6.16699 23.001 16.5s23.334 23.833 38.001 40.5l48.5 56.5
l52.5 64.5l51 65.5l45 58.5c11.333 -0.666992 21 -3.83398 29 -9.50098s12 -11.834 12 -18.501v-204h181z" />
    <glyph glyph-name="u" unicode="u" horiz-adv-x="891" 
d="M300 777l0.000976562 -584.001c0 -48 9.5 -84.833 28.5 -110.5s50.5 -38.5 94.5 -38.5c30 0 59.5 8.5 88.5 25.5s56.5 39.833 82.5 68.5v480c0 18 -1 32.833 -3 44.5s-7.5 21.167 -16.5 28.5s-22.5 13 -40.5 17s-42.667 8 -74 12v57h317v-641
c0 -15.333 0.333008 -28.5 1 -39.5s4.5 -20 11.5 -27s18.333 -12.167 34 -15.5s38.167 -5 67.5 -5v-53l-55 -14c-3.33301 -1.33301 -8.5 -3 -15.5 -5s-14.833 -4.5 -23.5 -7.5l-26 -9c-8.66699 -3 -16.334 -5.5 -23.001 -7.5c-10 -4 -23.167 -8.5 -39.5 -13.5l-49.5 -15.5
l-27 -8.5l-26 -8.5l-2 136c-40 -43.333 -81 -76.666 -123 -99.999s-86 -35 -132 -35c-26 0 -52.667 4.33301 -80 13s-52 22.834 -74 42.501s-40 45.5 -54 77.5s-21 71.667 -21 119v462c0 18.667 -1.16699 34.167 -3.5 46.5s-7.5 22.166 -15.5 29.499
s-19.5 12.833 -34.5 16.5s-35.167 6.16699 -60.5 7.5v55h294z" />
    <glyph glyph-name="v" unicode="v" horiz-adv-x="863" 
d="M392 779l-0.000976562 -56.999c-1.33301 0 -2.66602 -0.166992 -3.99902 -0.5s-3.66602 -0.5 -6.99902 -0.5c-3.33301 -0.666992 -6.5 -1 -9.5 -1h-6.5c-15.333 -1.33301 -28.833 -3.83301 -40.5 -7.5s-17.5 -12.834 -17.5 -27.501v-15c0 -6 5.33301 -20.667 16 -44
l170 -421l34 85.5l34 85.5c3.33301 7.33301 6.5 15 9.5 23s6.16699 16 9.5 24l31.5 76.5c10.333 25.667 19.5 50.5 27.5 74.5c0.666992 1.33301 1.5 3.33301 2.5 6s2.16699 5.33398 3.5 8.00098c1.33301 1.33301 2.5 3.66602 3.5 6.99902s1.83301 5.66602 2.5 6.99902
c1.33301 3.33301 2.5 7 3.5 11s2.16699 7.66699 3.5 11l9.5 31.5c3 9.66699 4.5 17.167 4.5 22.5c0 12 -6.5 22.333 -19.5 31s-35.5 13 -67.5 13v57h282v-57c-16 0 -29.5 -2.66699 -40.5 -8s-20.667 -13.333 -29 -24s-16.333 -24.667 -24 -42s-15.834 -38 -24.501 -62
l-132.5 -327l-132.5 -328c-4 -5.33301 -9.5 -10.5 -16.5 -15.5s-11.833 -7.5 -14.5 -7.5c-6.66699 0 -14.834 4.83301 -24.501 14.5s-15.5 19.834 -17.5 30.501l-22 50l-22 51l-47 111l-47 111l-134 326c-12 28 -23.167 50.833 -33.5 68.5s-20.166 29.167 -29.499 34.5v-1
c-5.33301 4.66699 -13.5 8.16699 -24.5 10.5s-27.167 4.83301 -48.5 7.5v57h389z" />
    <glyph glyph-name="w" unicode="w" horiz-adv-x="1256" 
d="M841 722c-37.333 -2.66699 -63.833 -7.00391 -79.5 -13.0039s-24.834 -17.333 -27.501 -34c0 -4 1 -9.66699 3 -17s4.66699 -14.666 8 -21.999c3.33301 -8.66699 6.33301 -17 9 -25s4 -14 4 -18l34 -88l34 -86l40 -102.5l38 -101.5c10 26 21 52.833 33 80.5l35 81.5
l53 122c17.333 40.667 32.666 81.334 45.999 122.001l-2 -1c0 0.666992 0.333008 1.33398 1 2.00098s1 1.16699 1 1.5s0.333008 0.833008 1 1.5c7.33301 27.333 11 45 11 53c0 14.667 -4.66699 24.167 -14 28.5s-22.666 8.83301 -39.999 13.5c-4 1.33301 -8 2.33301 -12 3
s-8.66699 1.66699 -14 3v53h256v-52c-23.333 -8.66699 -41.833 -22 -55.5 -40s-21.167 -37 -22.5 -57l-71 -173l-71 -174l-71.5 -176.5l-69.5 -175.5c-2.66699 -3.33301 -5.5 -6.66602 -8.5 -9.99902s-5.83301 -6.66602 -8.5 -9.99902
c-3.33301 -0.666992 -6.33301 -1.16699 -9 -1.5s-5.66699 -0.833008 -9 -1.5c-3.33301 2.66699 -6.66602 5.5 -9.99902 8.5s-6.66602 5.83301 -9.99902 8.5l-187 463l-25 -53.5l-25 -51.5l-28 -57.5l-28 -57.5l-21 -42l-22 -43c-15.333 -28 -30.333 -57.167 -45 -87.5
s-25.667 -58.5 -33 -84.5c-3.33301 -0.666992 -6.66602 -1.16699 -9.99902 -1.5s-6.66602 -0.833008 -9.99902 -1.5c-4.66699 2 -9.5 4.66699 -14.5 8s-9.16699 6 -12.5 8l-266 655l-15 36c-4.66699 10.667 -8.66699 20.334 -12 29.001l-16.5 38.5
c-4.33301 9.66699 -9.33301 17.167 -15 22.5s-12.667 9.16602 -21 11.499s-19.5 4.16602 -33.5 5.49902v57h358v-57c-23.333 0 -43.333 -2.83301 -60 -8.5s-25 -17.5 -25 -35.5c0 -8.66699 1 -18.5 3 -29.5s6.16699 -26 12.5 -45s15.666 -43.5 27.999 -73.5l48.5 -114
l84 -218l75 155l72 155c0.666992 2.66699 0.833984 6.5 0.500977 11.5s-2 12.167 -5 21.5s-7.83301 21.5 -14.5 36.5l-26 57.5c-5.33301 14.667 -10.333 27 -15 37s-10.834 18.5 -18.501 25.5s-17.834 12.333 -30.501 16s-29.334 6.5 -50.001 8.5v57h401v-57z" />
    <glyph glyph-name="x" unicode="x" horiz-adv-x="865" 
d="M227 11l2 1zM423 772l0.00390625 -55.0029c-25.333 0 -45.166 -2 -59.499 -6s-21.5 -10 -21.5 -18c13.333 -32 28.166 -62.333 44.499 -91l49.5 -86c5.33301 4 7.83301 6.33301 7.5 7s0.166992 1.66699 1.5 3l4 6c1.33301 2 2.33301 3.33301 3 4
c12 22 23.667 41.667 35 59s21.666 32.333 30.999 45l19.5 29.5c5 7.66699 7.5 14.167 7.5 19.5v4c0 2 -0.333008 4.16699 -1 6.5s-3.33398 4.5 -8.00098 6.5s-11.834 4 -21.501 6s-23.167 3.66699 -40.5 5v55h315v-55c-20 -1.33301 -37 -4.16602 -51 -8.49902
s-28.333 -9.16602 -43 -14.499c-13.333 -8 -26.5 -18.833 -39.5 -32.5s-25.5 -28.667 -37.5 -45s-24 -33.833 -36 -52.5l-35 -55l-26 -41.5c-8.66699 -13.667 -17.334 -26.5 -26.001 -38.5c13.333 -19.333 26.833 -40 40.5 -62l40.5 -68l70 -114
c24 -38 48.333 -72.167 73 -102.5s49.834 -55 75.501 -74s52.167 -28.5 79.5 -28.5v-55h-397v55h42c5.33301 0 14 4.33301 26 13l5 10c-11.333 14.667 -22.166 31.834 -32.499 51.501l-32.5 61.5l-42 77c-14.667 26 -32.667 51.333 -54 76l-31.5 -54l-36 -59l-37.5 -58.5
l-35 -52.5l-11.5 -17.5l-10.5 -16.5l-5 -1c2 -3.33301 2.66699 -6.33301 2 -9c-0.666992 -2 -1.33398 -3.66699 -2.00098 -5c5.33301 -5.33301 14.333 -9 27 -11s28.667 -3.66699 48 -5v-55h-294v53c1.33301 0.666992 2.83301 1 4.5 1s3.16699 0.333008 4.5 1h-1l43 8.5
c11.333 2.33301 18.666 5.16602 21.999 8.49902v-1c13.333 11.333 28 26.5 44 45.5s32.5 40.333 49.5 64l51.5 75l52 78.5l67 102l-44.5 66l-49.5 75l-41 62l-38 57.5c-12 17.667 -23.167 33.334 -33.5 47.001s-19.5 24.167 -27.5 31.5c-4.66699 3.33301 -14 6.5 -28 9.5
s-34.333 5.5 -61 7.5v55h406z" />
    <glyph glyph-name="y" unicode="y" horiz-adv-x="875" 
d="M3 772l404.005 -0.00195312v-57c-13.333 0 -25.5 -0.666992 -36.5 -2s-20.167 -2.66602 -27.5 -3.99902c-2.66699 -0.666992 -6.33398 -1 -11.001 -1c-21.333 -7.33301 -32 -17.333 -32 -30v-11c0 -4 0.666992 -8.66699 2 -14c0 -2 1.33301 -5 4 -9l10 -23
c4 -9.33301 8.66699 -18 14 -26l185 -399c2 5.33301 4.33301 12 7 20l7 21l28 79l28 79l6.5 17.5l6.5 17.5l35 95.5l34 95.5c0 2 0.333008 3.33301 1 4c1.33301 1.33301 2 2.33301 2 3c2 6 4 13.833 6 23.5s3 19.167 3 28.5c0 8 -2.33301 14.333 -7 19
s-10.834 8.16699 -18.501 10.5s-16.5 3.83301 -26.5 4.5s-20 1 -30 1v57h272v-57c-28 -3.33301 -47.833 -12.333 -59.5 -27s-19.834 -31 -24.501 -49v1l-141 -369.5l-141 -370.5c-24 -60 -47.667 -113.167 -71 -159.5s-48 -85.333 -74 -117s-54.333 -55.5 -85 -71.5
s-65 -24 -103 -24c-16 0 -32.5 2.33301 -49.5 7s-32.167 11.834 -45.5 21.501s-24.333 21.667 -33 36s-13 31.5 -13 51.5c0 30 10.333 53.833 31 71.5s46.334 26.5 77.001 26.5c11.333 0 24.166 -2 38.499 -6s28.5 -8.33301 42.5 -13l4 -2
c10.667 -3.33301 20.334 -6.16602 29.001 -8.49902s15.334 -3.5 20.001 -3.5c9.33301 0 19.333 5.16699 30 15.5s21.167 23.666 31.5 39.999s20.166 34.5 29.499 54.5s17.666 39.333 24.999 58s13.5 35.834 18.5 51.501s8.16699 27.167 9.5 34.5
c0 2.66699 -0.333008 4.66699 -1 6c-1.33301 3.33301 -2.66602 7.66602 -3.99902 12.999s-2 10.333 -2 15l-72 153l-70 154l-71.5 154l-69.5 154c-4.66699 6 -8.33398 11.5 -11.001 16.5l-7 13.5c-0.666992 1.33301 -1.33398 2.5 -2.00098 3.5
s-1.33398 2.16699 -2.00098 3.5c-4 10 -8.16699 18.5 -12.5 25.5s-9.83301 13.333 -16.5 19s-15.667 10.5 -27 14.5s-26 8 -44 12v52z" />
    <glyph glyph-name="z" unicode="z" horiz-adv-x="776" 
d="M737 772v-44l-482 -718h224c44 0 78.667 2.83301 104 8.5s42 13.167 50 22.5c8.66699 8 19 27 31 57s24.333 67 37 111c9.33301 -2 19 -4.33301 29 -7s19.667 -5 29 -7l-24 -270h-718v39l473 725h-210c-30.667 0 -55.5 -2.66699 -74.5 -8s-32.833 -12.333 -41.5 -21v1
c-9.33301 -8 -16.833 -22.833 -22.5 -44.5s-11.167 -52.167 -16.5 -91.5h-57c0 42 0.333008 83.167 1 123.5s1 81.5 1 123.5h667z" />
    <glyph glyph-name="braceleft" unicode="{" horiz-adv-x="1005" 
d="M829 1489c-148 -20 -221.999 -111.997 -221.999 -275.997v-400c0 -100 -16 -170.333 -48 -211c-23.333 -30.667 -64 -58.334 -122 -83.001c60.667 -24.667 102.667 -55.667 126 -93c16.667 -23.333 28.834 -54 36.501 -92s11.5 -83.333 11.5 -136
c0 -17.333 -0.5 -39.5 -1.5 -66.5s-2.83301 -58.5 -5.5 -94.5c-2.66699 -36.667 -4.5 -68.334 -5.5 -95.001s-1.5 -48.667 -1.5 -66c0 -187.333 73.667 -294 221 -320l-31 -77c-144.667 0 -243.667 33.667 -297 101c-48.667 59.333 -73.334 162.333 -74.001 309v182
c0.666992 44.667 1.16699 82.167 1.5 112.5s0.5 54.166 0.5 71.499c0 80 -12 136 -36 168c-24 34 -75.667 66 -155 96c72 27.333 122.667 68 152 122c29.333 49.333 44 119 44 209c0 16 -0.333008 36 -1 60s-2 52 -4 84c-1.33301 32.667 -2.33301 61 -3 85s-1 44 -1 60
c0 75.333 5.66699 139.5 17 192.5s27.666 95.5 48.999 127.5c54 74.667 153.333 112 298 112z" />
    <glyph glyph-name="bar" unicode="|" horiz-adv-x="344" 
d="M262 1100v-1185h-145v1185h145z" />
    <glyph glyph-name="braceright" unicode="}" horiz-adv-x="983" 
d="M865 519c-46.667 -18 -83.833 -36.335 -111.5 -55.002s-46.167 -38.667 -55.5 -60c-14.667 -33.333 -22 -83 -22 -149v-184c1.33301 -146 1.33301 -231 0 -255c-8 -105.333 -31.333 -183.333 -70 -234c-54 -68.667 -154.333 -103 -301 -103l-30 77
c147.333 26 221 132.667 221 320c0 17.333 -0.5 39.333 -1.5 66s-3.16699 58.334 -6.5 95.001c-4 72 -6 125.667 -6 161c0 52.667 3.83301 98 11.5 136s19.834 68.667 36.501 92c23.333 37.333 65.333 68.333 126 93c-58 24.667 -98.667 52.334 -122 83.001
c-15.333 21.333 -26.833 49.333 -34.5 84s-11.5 77 -11.5 127v400c0 164 -75 256 -225 276l51 82c146 0 245.333 -37.333 298 -112c44 -63.333 66 -170 66 -320c0 -16 -0.333008 -36 -1 -60s-1.66699 -52.333 -3 -85c-1.33301 -32 -2.33301 -60 -3 -84s-1 -44 -1 -60
c0 -90 14.667 -159.667 44 -209c29.333 -53.333 79.666 -94 150.999 -122z" />
    <glyph glyph-name="asciitilde" unicode="~" horiz-adv-x="978" 
d="M938 1183l-47 -61.502l-47 -61.5h-194c11.333 -17.333 20.333 -36.166 27 -56.499s12.334 -41.833 17.001 -64.5h26.5c11 0 22.167 -0.166992 33.5 -0.5s22.666 -0.5 33.999 -0.5h29c20.667 -0.666992 40.667 -1 60 -1h56l-43 -65l-43 -65h-146
c-2.66699 -22 -8.5 -43.833 -17.5 -65.5s-21.833 -46.5 -38.5 -74.5h1c-23.333 -27.333 -46.666 -50.666 -69.999 -69.999s-45.666 -33.666 -66.999 -42.999c-32 -15.333 -66.667 -27.666 -104 -36.999s-73 -15.333 -107 -18c1.33301 -2 3.16602 -4.33301 5.49902 -7
s5.83301 -6.33398 10.5 -11.001l13.5 -16l16.5 -20l199 -238l199 -238v-27c0 -6 -1.5 -9.5 -4.5 -10.5s-7.16699 -1.5 -12.5 -1.5h-174l-80 92.5l-73 85.5l-88.5 102.5l-74.5 86.5l-118.5 138.5c-27 31.667 -40.5 48.5 -40.5 50.5v126c38.667 -7.33301 74.667 -11 108 -11
c83.333 0 151.666 14.167 204.999 42.5s90.333 69.166 111 122.499c2.66699 6 5 12.5 7 19.5s3 14.167 3 21.5h-121.5c-41.667 0 -83.167 0.333008 -124.5 1c-40.667 0 -81.167 0.166992 -121.5 0.5s-79.833 0.5 -118.5 0.5l47.5 65l47.5 65l364 3
c-11.333 19.333 -26 37.5 -44 54.5s-40.667 31.167 -68 42.5c-46 14 -84 21 -114 21c-38 0.666992 -76.333 1.5 -115 2.5s-77 1.83301 -115 2.5l47 59l47 59h817z" />
    <glyph glyph-name="glyph28" unicode="&#xd7;" horiz-adv-x="1167" 
d="M247 1112l340 -340l340 339l92 -92l-339 -340l340 -340l-93 -93l-340 340l-338 -337l-92 92l337 337l-340 341z" />
    <glyph glyph-name="uni0964" unicode="&#x964;" horiz-adv-x="788" 
d="M500 77v1225l77.5 -79.5l78.5 -78.5v-1223z" />
    <glyph glyph-name="uni0965" unicode="&#x965;" horiz-adv-x="1120" 
d="M499 77v1225l78.5 -79.5l78.5 -78.5v-1223zM878 77v1225l77.5 -79.5l78.5 -78.5v-1223z" />
    <glyph glyph-name="uni0981" unicode="&#x981;" 
d="M-122 1727c0 -13.333 -2.66699 -26 -8 -38s-12.333 -22.5 -21 -31.5s-19 -16.333 -31 -22s-24.333 -8.5 -37 -8.5c-14 0 -27 2.83301 -39 8.5s-22.5 13 -31.5 22s-16.167 19.5 -21.5 31.5s-8 24.667 -8 38c0 12.667 2.66699 25 8 37s12.5 22.333 21.5 31
s19.5 15.667 31.5 21s25 8 39 8c12.667 0 25 -2.66699 37 -8s22.333 -12.333 31 -21s15.667 -19 21 -31s8 -24.333 8 -37zM26 1707c0 -37.333 -3.33301 -76.002 -10 -116.002s-18.5 -76.667 -35.5 -110s-40.167 -60.666 -69.5 -81.999s-66.333 -32 -111 -32
c-50 0 -93.333 12.833 -130 38.5s-68 57.834 -94 96.501s-47.167 80.667 -63.5 126s-29.166 88 -38.499 128l33.5 -16.5l32.5 -16.5c12 -25.333 26 -49.5 42 -72.5s33.667 -45.167 53 -66.5c37.333 -41.333 87.666 -62 150.999 -62c61.333 0 109 22 143 66
c32.667 41.333 49 92 49 152z" />
    <glyph glyph-name="uni0982" unicode="&#x982;" horiz-adv-x="711" 
d="M602 886c0 -34.667 -6.66602 -66.666 -19.999 -95.999s-31.5 -54.666 -54.5 -75.999s-49.833 -38 -80.5 -50s-63.334 -18 -98.001 -18c-38.667 0 -75.334 7.33301 -110.001 22s-65 34.667 -91 60s-46.667 55.166 -62 89.499s-23 71.166 -23 110.499
c0 36.667 6.83301 70.334 20.5 101.001s32.334 57 56.001 79s51.167 39 82.5 51s65 18 101 18c40 0 77.167 -7.83301 111.5 -23.5s63.833 -36.834 88.5 -63.501s44 -57.667 58 -93s21 -72.333 21 -111zM717.001 -262.999c-86 100 -178.499 193.166 -277.499 279.499
s-202.167 168.5 -309.5 246.5l41.5 135l41.5 135c51.333 -49.333 101.166 -101.833 149.499 -157.5s94.833 -113 139.5 -172s87.5 -119.167 128.5 -180.5s79.833 -122.666 116.5 -183.999zM484.002 973c0 26.667 -7 44.665 -21 53.998s-32 14 -54 14
c-19.333 0.666992 -41.833 -5.66602 -67.5 -18.999s-50 -30 -73 -50s-42.167 -41.667 -57.5 -65s-22.666 -44.666 -21.999 -63.999c0 -18 6.66699 -32.667 20 -44s30 -17 50 -17c18 0.666992 39.667 7.5 65 20.5s49.666 28.833 72.999 47.5s43.333 39 60 61
s25.667 42.667 27 62z" />
    <glyph glyph-name="uni0983" unicode="&#x983;" horiz-adv-x="730" 
d="M642 933c0 -34.667 -6.83203 -66.5 -20.499 -95.5s-32 -54.167 -55 -75.5s-49.5 -38 -79.5 -50s-61.667 -18 -95 -18c-40 0 -77.333 7.33301 -112 22s-64.834 34.667 -90.501 60s-46 55 -61 89s-22.5 70.667 -22.5 110c0 36 6.66699 69.167 20 99.5
s31.5 56.666 54.5 78.999s50.333 39.666 82 51.999s65.5 18.5 101.5 18.5c40 0 77 -7.83301 111 -23.5s63.333 -36.667 88 -63s44 -57.166 58 -92.499s21 -72.666 21 -111.999zM661.001 262c0 -35.333 -6.83301 -67.834 -20.5 -97.501s-32 -55.167 -55 -76.5
s-49.5 -38 -79.5 -50s-61.667 -18 -95 -18c-40 0 -77.333 7.5 -112 22.5s-64.834 35.5 -90.501 61.5s-46 56.167 -61 90.5s-22.5 70.833 -22.5 109.5c0 37.333 6.83301 71.333 20.5 102s32.167 56.834 55.5 78.501s50.833 38.5 82.5 50.5s65.5 18 101.5 18
c40.667 0 77.834 -8.16699 111.501 -24.5s62.667 -38 87 -65s43.333 -58 57 -93s20.5 -71.167 20.5 -108.5zM524.001 1020c0 27.333 -7.00098 45.665 -21.001 54.998s-32 14 -54 14c-19.333 0 -41.666 -6.66699 -66.999 -20s-49.333 -30 -72 -50
s-41.834 -41.5 -57.501 -64.5s-23.5 -44.5 -23.5 -64.5c0 -18 7.16699 -32.5 21.5 -43.5s31.5 -16.5 51.5 -16.5c18 0.666992 39.5 7.33398 64.5 20.001s49 28.334 72 47.001s42.833 39 59.5 61s25.334 42.667 26.001 62zM543 348.998c0 24 -6.50098 41.001 -19.501 51.001
s-31.833 15 -56.5 15c-19.333 0 -41.666 -6.5 -66.999 -19.5s-49.166 -29.5 -71.499 -49.5s-41.333 -41.667 -57 -65s-23.5 -45.333 -23.5 -66c0 -9.33301 2.16699 -17.5 6.5 -24.5s10 -13 17 -18s14.833 -8.66699 23.5 -11s17 -3.5 25 -3.5c18 0 39.833 6.33301 65.5 19
s50.167 28.5 73.5 47.5s43.166 39.667 59.499 62s24.5 43.166 24.5 62.499z" />
    <glyph glyph-name="uni0985" unicode="&#x985;" horiz-adv-x="1477" 
d="M1323 1115l0.000976562 -1174l-36.5 35.5l-36.5 35.5h1c-20.667 74.667 -52 146 -94 214s-96 127.667 -162 179c-24 -62.667 -62 -111.334 -114 -146.001s-113 -52 -183 -52c-141.333 0 -271 68 -389 204c-59.333 67.333 -113.333 153.5 -162 258.5
s-94.667 231.5 -138 379.5c12.667 -8.66699 25 -16.5 37 -23.5l37 -22.5c44 -101.333 88.167 -186.5 132.5 -255.5s89.5 -124.667 135.5 -167s92.833 -72.833 140.5 -91.5s96.834 -28 147.501 -28c47.333 0 88.333 7.16699 123 21.5s63.167 33 85.5 56
s38.833 48.833 49.5 77.5s16 57 16 85c0 56 -18 101 -54 135c-38 34.667 -79 52 -123 52c-13.333 0 -25.333 -3.66699 -36 -11c3.33301 -12.667 6.66602 -24.667 9.99902 -36s5 -22.333 5 -33c0 -50 -14 -89 -42 -117s-66.667 -42 -116 -42c-52 0 -97 17 -135 51
c-40 32.667 -60 81.334 -60 146.001c0 42.667 16.333 83.334 49 122.001c31.333 38 75 59.333 131 64c-19.333 28.667 -45.833 49.667 -79.5 63s-70.834 20 -111.501 20h-354l-70 72l-71 72h1542l145 -144h-220zM1183 308.999c-7.33301 36 -12.333 66.832 -15 92.499
s-4 48.5 -4 68.5v645h-571c7.33301 -12.667 15.333 -25.5 24 -38.5l24 -37.5c50 -1.33301 98.5 -13.666 145.5 -36.999s88.5 -56 124.5 -98s64.833 -92.5 86.5 -151.5s32.5 -124.5 32.5 -196.5c28 -40 55 -81 81 -123s48 -83 66 -123z" />
    <glyph glyph-name="uni0986" unicode="&#x986;" horiz-adv-x="2008" 
d="M1939 1115c-17.333 0 -34.9922 3.49805 -52.9922 10.498s-31 17.167 -39 30.5l-7 -8l30 -1218l-156 147v710c0 31.333 -3.5 62 -10.5 92s-16.833 58.167 -29.5 84.5s-27.5 50.166 -44.5 71.499s-35.833 38.666 -56.5 51.999c-10.667 7.33301 -22.834 13.333 -36.501 18
s-27.834 8 -42.501 10h-171v-1174l-37 35.5l-37 35.5h1c-20.667 74.667 -51.834 146 -93.501 214s-95.5 127.667 -161.5 179c-24.667 -62.667 -63 -111.334 -115 -146.001s-112.667 -52 -182 -52c-141.333 0 -271.333 68 -390 204
c-59.333 68.667 -112.5 157.334 -159.5 266.001s-92.5 238.334 -136.5 389.001l37.5 -25.5l37.5 -24.5c44 -100.667 88 -186.167 132 -256.5s88.667 -127.666 134 -171.999s91.666 -76.5 138.999 -96.5s96 -30 146 -30c47.333 0 88.333 7.16699 123 21.5s63.167 33 85.5 56
s38.833 48.833 49.5 77.5s16 57 16 85c0 56 -18 101 -54 135c-36.667 34.667 -77.334 52 -122.001 52c-13.333 0 -25.333 -3.66699 -36 -11c3.33301 -12.667 6.66602 -24.667 9.99902 -36s5 -22.333 5 -33c0 -50 -14 -89 -42 -117s-67 -42 -117 -42
c-51.333 0 -96 17 -134 51c-40 32.667 -60 81.334 -60 146.001c0 42.667 16.333 83.334 49 122.001c31.333 38 74.666 59.333 129.999 64c-18.667 28.667 -44.834 49.667 -78.501 63s-70.834 20 -111.501 20h-355l-70 72l-70 72h1636c31.333 0 59.333 -5.83301 84 -17.5
s46.834 -30.167 66.501 -55.5s37.667 -57.833 54 -97.5s31.5 -87.834 45.5 -144.501l12 6c-3.33301 17.333 -6.5 37.333 -9.5 60l-9.5 73c-1.33301 14.667 -2.33301 28.667 -3 42c-3.33301 31.333 -5.33301 58 -6 80c0 48.667 -0.333008 97.667 -1 147s-1 98.333 -1 147
l36 -32.5c12 -10.333 23.667 -21.166 35 -32.499c2.66699 -69.333 15.667 -115.333 39 -138c22.667 -24.667 53 -37 91 -37h26l71 -72l71 -72h-154zM1182.01 308.998c-7.33301 36 -12.333 66.832 -15 92.499s-4 48.5 -4 68.5v645h-571
c7.33301 -12.667 15.333 -25.5 24 -38.5l24 -37.5c50 -1.33301 98.5 -13.666 145.5 -36.999s88.667 -56 125 -98s65.333 -92.5 87 -151.5s32.5 -124.5 32.5 -196.5c28 -40 55 -81 81 -123s47.667 -83 65 -123z" />
    <glyph glyph-name="uni0987" unicode="&#x987;" horiz-adv-x="1192" 
d="M1152 -275c-84.667 78 -165.176 144.669 -241.509 200.002s-151.5 102.833 -225.5 142.5s-148.5 72.5 -223.5 98.5s-152.833 48.333 -233.5 67l-87.5 171l-87.5 171c33.333 -18 65.5 -34 96.5 -48s60.5 -25.667 88.5 -35c30 -10 55.5 -17.667 76.5 -23s38.833 -8 53.5 -8
c34 0 68.667 3.83301 104 11.5s69.833 18.334 103.5 32.001s65.5 29.834 95.5 48.501s56.167 39 78.5 61s40 45.333 53 70s19.5 49.667 19.5 75c0 16.667 -3 32.5 -9 47.5s-15 28.167 -27 39.5s-26.833 20.333 -44.5 27s-38.167 10 -61.5 10c-18 0 -36.833 -3 -56.5 -9
s-38.167 -12.667 -55.5 -20c-1.33301 -0.666992 -3.16602 -1.5 -5.49902 -2.5s-4.16602 -1.83301 -5.49902 -2.5c0 -32 -6.66699 -62 -20 -90s-31 -52.5 -53 -73.5s-47.167 -37.5 -75.5 -49.5s-57.833 -18 -88.5 -18c-24 0 -46.167 3.66699 -66.5 11
s-37.666 17.666 -51.999 30.999s-25.666 29.333 -33.999 48s-12.5 39.334 -12.5 62.001c0 28 5.33301 53.5 16 76.5s24.667 43.667 42 62s37.333 34.166 60 47.499s46 24.5 70 33.5s47.667 15.667 71 20s44.666 6.5 63.999 6.5c-13.333 45.333 -43.666 78.333 -90.999 99
h-390l-68 72l-68 72h1009c12 8.66699 21.833 19.334 29.5 32.001s11.5 25.667 11.5 39c0 22 -4.5 38.667 -13.5 50s-20.667 19.666 -35 24.999s-30.333 8.33301 -48 9s-35.167 1 -52.5 1c-35.333 0 -70.166 -1 -104.499 -3s-68.833 -4.33301 -103.5 -7
s-69.334 -4.83398 -104.001 -6.50098s-69.334 -2.5 -104.001 -2.5c-48.667 0 -96.667 3.83301 -144 11.5s-89.833 21.834 -127.5 42.501s-68 49.5 -91 86.5s-34.5 84.5 -34.5 142.5c0 61.333 18.333 110.666 55 147.999l31 -17.5l31 -17.5
c-13.333 -11.333 -24.666 -24.5 -33.999 -39.5s-14 -31.167 -14 -48.5c0 -28.667 6.16699 -51.667 18.5 -69s28.333 -30.5 48 -39.5s41.334 -14.833 65.001 -17.5s46.834 -4 69.501 -4c32 0 63.333 1 94 3s62 4.66699 94 8s63.667 6.16602 95 8.49902s63 3.5 95 3.5
c126 0 221 -25 285 -75s107.667 -137.667 131 -263h135l144 -144h-754c5.33301 -12.667 9.5 -27.5 12.5 -44.5s5.16699 -32.833 6.5 -47.5c21.333 0 45.5 -2.5 72.5 -7.5s54.333 -13.333 82 -25s54.667 -26.834 81 -45.501s49.833 -41.5 70.5 -68.5s37.167 -58.333 49.5 -94
s18.5 -76.834 18.5 -123.501c0 -95.333 -29.167 -174.166 -87.5 -236.499s-147.166 -107.833 -266.499 -136.5c52.667 -30.667 105.667 -64.334 159 -101.001s103.833 -74.167 151.5 -112.5s91.334 -76.166 131.001 -113.499s72.834 -71.333 99.501 -102v1z" />
    <glyph glyph-name="uni0988" unicode="&#x988;" horiz-adv-x="1195" 
d="M285 1115c7.33301 -8.66699 13.9961 -19.8301 19.9961 -33.4971s9.66699 -26.834 11 -39.501c42.667 0 81.334 -5.66699 116.001 -17s67 -27.666 97 -48.999c56.667 -42 87.334 -113 92.001 -213c21.333 24.667 46 49.834 74 75.501s56.833 50 86.5 73
s58.667 43.667 87 62s53.5 32.5 75.5 42.5c18.667 -7.33301 37.834 -16.833 57.501 -28.5s39.334 -24.834 59.001 -39.501s38.5 -29.834 56.5 -45.501s34.667 -30.834 50 -45.501c-53.333 -50 -97.5 -97.5 -132.5 -142.5s-62.833 -88.833 -83.5 -131.5
s-35.167 -84.834 -43.5 -126.501s-12.5 -84.5 -12.5 -128.5c-0.666992 -25.333 1 -55 5 -89s9.66699 -69.5 17 -106.5s15.666 -74.167 24.999 -111.5s19 -72 29 -104c-14.667 9.33301 -29 17.833 -43 25.5l-43 24.5c-37.333 78.667 -64.333 156 -81 232s-25 150 -25 222
c0 57.333 6.33301 113.5 19 168.5s37.667 108.5 75 160.5l-2 9c-36 -32 -71.5 -69.667 -106.5 -113s-68.833 -91.333 -101.5 -144c-35.333 -58 -67.666 -105.167 -96.999 -141.5s-57 -64.666 -83 -84.999s-51 -34.333 -75 -42s-47.667 -11.834 -71 -12.501
c-18.667 0 -39.167 5.33301 -61.5 16s-44.5 27.667 -66.5 51s-42.667 53 -62 89s-35 79.667 -47 131l30.5 28l30.5 28c4 -21.333 9.33301 -39.333 16 -54s14.5 -26.5 23.5 -35.5s18.833 -15.5 29.5 -19.5s22 -6 34 -6c19.333 0 39.666 5.66699 60.999 17
s42.5 26.166 63.5 44.499s40.833 39.166 59.5 62.499s35.167 46.833 49.5 70.5s25.833 46.667 34.5 69s13 41.5 13 57.5c0 32.667 -10 58.167 -30 76.5s-49.667 27.5 -89 27.5c-19.333 0 -39.333 -8.33301 -60 -25c0 -62 -13.333 -108.5 -40 -139.5
s-64.667 -46.5 -114 -46.5c-48 0 -85.333 14.333 -112 43s-40 71.334 -40 128.001c0 22 3.66699 43.167 11 63.5s18.166 39 32.499 56s32 31.833 53 44.5s45.167 22 72.5 28c-18 30 -42 52.333 -72 67s-63.667 22 -101 22h-50l-68 72l-68 72h997
c28 24.667 42 48.334 42 71.001c0 24.667 -9.33301 45.334 -28 62.001c-17.333 15.333 -56.666 23 -117.999 23c-22 0 -50.167 -0.833008 -84.5 -2.5s-69.833 -3.83398 -106.5 -6.50098c-41.333 -2.66699 -82.333 -5 -123 -7s-75.667 -3 -105 -3
c-143.333 0 -245.333 25.333 -306 76c-60.667 48.667 -91 117.667 -91 207c0 32.667 4.33301 60.667 13 84s22.334 44.666 41.001 63.999l30 -17l30 -17c-15.333 -12 -27.166 -25.5 -35.499 -40.5s-12.5 -31.167 -12.5 -48.5c0 -41.333 15.333 -73.333 46 -96
s81.667 -34 153 -34c11.333 0 27.833 0.666992 49.5 2s44.5 3 68.5 5c13.333 1.33301 27.5 2.33301 42.5 3s29.167 1.66699 42.5 3c18 1.33301 36.167 2.33301 54.5 3s34.833 1.66699 49.5 3c17.333 1.33301 32.333 2.33301 45 3s22 1 28 1c66 0 123 -6.83301 171 -20.5
s88.5 -34.5 121.5 -62.5s59.167 -63.167 78.5 -105.5s33.666 -92.166 42.999 -149.499h114l144 -144h-979z" />
    <glyph glyph-name="uni0989" unicode="&#x989;" horiz-adv-x="1200" 
d="M604 1115l-0.00976562 -392.996c0 -26.667 10.333 -40 31 -40c8 0 20.333 3.5 37 10.5s37 20.167 61 39.5s51.667 46.666 83 81.999s65.666 81 102.999 137c70.667 -50 124.167 -112.833 160.5 -188.5s54.5 -161.5 54.5 -257.5
c0 -62.667 -9.16699 -121.334 -27.5 -176.001s-45 -102.5 -80 -143.5s-78 -73.333 -129 -97s-109.5 -35.5 -175.5 -35.5c-51.333 0 -101.666 7.5 -150.999 22.5s-96.666 38.833 -141.999 71.5s-88 75.167 -128 127.5s-76.167 115.666 -108.5 189.999
s-60.5 160.5 -84.5 258.5s-42.333 209.333 -55 334l34.5 -26l34.5 -25c28 -126.667 60.333 -234.5 97 -323.5s78.334 -161.667 125.001 -218s98.834 -97.5 156.501 -123.5s122.167 -39 193.5 -39c50.667 0 97.334 9.33301 140.001 28s79.5 42.334 110.5 71.001
s55.167 60.167 72.5 94.5s26 66.833 26 97.5c0 44 -20 81.667 -60 113c-51.333 -74.667 -106.666 -129.334 -165.999 -164.001c-62.667 -37.333 -112.334 -56 -149.001 -56c-33.333 0 -61.333 8 -84 24c-21.333 13.333 -48.666 46 -81.999 98c-16 24 -28.333 53.333 -37 88
c-11.333 40 -17 73.333 -17 100v319h-449l-67 72l-67 72h1043c12 8.66699 21.833 19.334 29.5 32.001s11.5 25.667 11.5 39c0 22 -4.5 38.667 -13.5 50s-20.667 19.666 -35 24.999s-30.333 8.33301 -48 9s-34.834 1 -51.501 1c-36 0 -71.167 -1 -105.5 -3
s-68.833 -4.33301 -103.5 -7s-69.167 -4.83398 -103.5 -6.50098s-69.166 -2.5 -104.499 -2.5c-49.333 0 -97.666 3.83301 -144.999 11.5s-89.666 21.834 -126.999 42.501s-67.5 49.5 -90.5 86.5s-34.5 84.5 -34.5 142.5c0 32 4.33301 59.833 13 83.5
s22.334 45.167 41.001 64.5l31 -17.5l31 -17.5c-13.333 -11.333 -24.5 -24.5 -33.5 -39.5s-13.5 -31.167 -13.5 -48.5c0 -28.667 6.16699 -51.667 18.5 -69s28.333 -30.5 48 -39.5s41.334 -14.833 65.001 -17.5s46.834 -4 69.501 -4c32 0 63.167 1 93.5 3
s61.5 4.66699 93.5 8s63.667 6.16602 95 8.49902s63.333 3.5 96 3.5c126 0 221 -25 285 -75c63.333 -49.333 107 -137 131 -263h76l-1 1l74 -72.5l74 -72.5h-670z" />
    <glyph glyph-name="uni098A" unicode="&#x98a;" horiz-adv-x="1378" 
d="M758 1115l0.00390625 -380.993c0 -26.667 9.33301 -40 28 -40c6.66699 0 17.5 2.83301 32.5 8.5s34 17.5 57 35.5s49.5 43.833 79.5 77.5s63 78.834 99 135.501c72.667 -49.333 125.834 -112 159.501 -188s50.5 -162 50.5 -258c0 -66 -11.167 -126.167 -33.5 -180.5
s-54 -101.166 -95 -140.499s-90.167 -69.833 -147.5 -91.5s-121 -32.5 -191 -32.5c-46.667 0 -92.334 3.83301 -137.001 11.5s-87.667 20 -129 37s-80.666 39 -117.999 66s-72 59.5 -104 97.5c-32 38.667 -61.833 83.334 -89.5 134.001s-52.167 108.167 -73.5 172.5
s-39.333 136.166 -54 215.499s-25.334 167 -32.001 263l34.5 -26l34.5 -25c20.667 -112 44.334 -208.833 71.001 -290.5s56 -151.834 88 -210.501s66.667 -107.834 104 -147.501s77.333 -73.167 120 -100.5l7 7c-31.333 33.333 -61 71.166 -89 113.499s-53.833 94 -77.5 155
s-45 134 -64 219s-35.167 186.833 -48.5 305.5l37 -26l37 -25c26.667 -136 56 -249 88 -339s68.167 -161.667 108.5 -215s85.666 -90.833 135.999 -112.5s107.166 -32.5 170.499 -32.5c48 0 93.333 8.83301 136 26.5s80.167 40.167 112.5 67.5s58 58 77 92
s28.5 67.333 28.5 100c0 50.667 -16.333 88.334 -49 113.001c-52.667 -72 -107 -125.333 -163 -160c-55.333 -33.333 -102.666 -50 -141.999 -50c-14.667 0 -29.167 2 -43.5 6s-27.5 9.66699 -39.5 17c-23.333 15.333 -51 48 -83 98c-6 11.333 -12.333 25.166 -19 41.499
s-12.667 33.166 -18 50.499c-10 38 -15 71 -15 99v307h-591l-144 144h1172c8.66699 8.66699 16.667 20.667 24 36s11 29.333 11 42c0 24.667 -10.333 44.667 -31 60c-19.333 15.333 -63 23 -131 23c-20 0 -48 -1 -84 -3s-74.667 -4 -116 -6
c-23.333 -1.33301 -46.5 -2.5 -69.5 -3.5l-67 -3c-21.667 -1 -41.834 -1.83301 -60.501 -2.5s-35.334 -1 -50.001 -1c-154.667 0 -264.334 25 -329.001 75c-62.667 50.667 -94 120.667 -94 210c0 36 5.33301 66.5 16 91.5s24.334 46.167 41.001 63.5l29.5 -16.5l29.5 -16.5
c-16.667 -15.333 -29.167 -31.833 -37.5 -49.5s-12.5 -34.167 -12.5 -49.5c0 -37.333 17.333 -66.833 52 -88.5s90 -32.5 166 -32.5c14 0 32.333 0.666992 55 2s47.334 3 74.001 5c13.333 1.33301 27 2.16602 41 2.49902s28 1.16602 42 2.49902
c12 1.33301 24.667 2.16602 38 2.49902s25.666 1.16602 36.999 2.49902c26.667 1.33301 50.167 2.66602 70.5 3.99902s34.166 2 41.499 2c74 0 137.667 -7.83301 191 -23.5s98.166 -38.5 134.499 -68.5s65 -66.833 86 -110.5s36.167 -93.5 45.5 -149.5h110l71 -72l71 -72
h-673z" />
    <glyph glyph-name="uni098B" unicode="&#x98b;" horiz-adv-x="1407" 
d="M1225 142c-9.33301 36 -22.4971 71.6709 -39.4971 107.004s-37.167 68.666 -60.5 99.999c-24 32 -50.333 61.167 -79 87.5s-58.334 48.166 -89.001 65.499v-560l-30.5 29l-30.5 29h1c-20 56.667 -46.167 110.667 -78.5 162s-70.5 96.333 -114.5 135
s-93.667 69.667 -149 93s-116 35.666 -182 36.999l-93 112.5l-93 112.5c15.333 10.667 33.166 22.334 53.499 35.001l65 39.5l72 42l75.5 42.5l74.5 41.5l72.5 38.5l66.5 33c21 10 40.167 18 57.5 24c-39.333 46 -81 69 -125 69c-10.667 0 -24.5 -3.66699 -41.5 -11
l-57.5 -26l-57 -25.5c-20 -9 -40.833 -17.333 -62.5 -25s-43.5 -13.834 -65.5 -18.501s-43.667 -7 -65 -7c-62 0 -112.333 17.333 -151 52c-37.333 35.333 -56 79 -56 131c0 20 3.33301 38.667 10 56s16 32.5 28 45.5s26.333 23.333 43 31s35 11.5 55 11.5
c21.333 0 42.166 -7.33301 62.499 -22s37.5 -37.667 51.5 -69c8.66699 -27.333 21 -41 37 -41c17.333 0 41.666 11 72.999 33c16 11.333 34.667 27.5 56 48.5s47 48.5 77 82.5c18 -13.333 39.167 -31.833 63.5 -55.5s48.833 -49.5 73.5 -77.5s48 -56.833 70 -86.5
s39.667 -56.834 53 -81.501h14v438l30 -30l43.5 -44.5l43.5 -44l30 -29.5v-604c15.333 -11.333 29.833 -23.5 43.5 -36.5s26.834 -27.167 39.501 -42.5c13.333 -15.333 26.833 -33 40.5 -53s28.5 -43 44.5 -69h9v953l72 -71.5l72 -71.5v-1164zM824.003 268.004
c-5.33301 23.333 -9.00098 46.833 -11.001 70.5s-3 48.5 -3 74.5v349l-91 -44.5c-30.667 -15 -61.667 -31.167 -93 -48.5l-89 -49.5l-74 -42.5c62.667 -12 122.334 -41.667 179.001 -89c54.667 -45.333 114.667 -122 180 -230z" />
    <glyph glyph-name="uni098C" unicode="&#x98c;" horiz-adv-x="1003" 
d="M304 1095c-4 -12.667 -7.83594 -23.833 -11.5029 -33.5s-7.83398 -17.5 -12.501 -23.5c26 -15.333 61.667 -32.333 107 -51s96.333 -36.667 153 -54c271.333 -87.333 407 -241.666 407 -462.999c0 -56 -7.5 -106.333 -22.5 -151s-38.5 -83.667 -70.5 -117
s-73.167 -61 -123.5 -83s-111.166 -38.333 -182.499 -49c5.33301 21.333 8.83301 39.166 10.5 53.499s2.5 28.166 2.5 41.499c0 51.333 -5.16699 98.5 -15.5 141.5s-26.166 81.5 -47.499 115.5c-20.667 32.667 -42 57 -64 73s-46.667 24 -74 24
c-37.333 0 -67.333 -15.167 -90 -45.5s-34 -70.166 -34 -119.499c0 -37.333 9 -70 27 -98c11.333 8 24.333 14.167 39 18.5s28.667 6.5 42 6.5c16.667 0 32 -3.5 46 -10.5s26 -16.167 36 -27.5s17.833 -24.5 23.5 -39.5s8.5 -30.833 8.5 -47.5
c0 -18 -3.66699 -34.833 -11 -50.5s-17.666 -29 -30.999 -40s-29.333 -19.667 -48 -26s-39.334 -9.5 -62.001 -9.5c-28.667 0 -55.334 6.83301 -80.001 20.5s-46.167 32.667 -64.5 57s-32.666 53.166 -42.999 86.499s-15.5 70 -15.5 110c0 86.667 29.667 163.667 89 231
c58.667 66.667 130.667 100 216 100c37.333 0 73.5 -9.33301 108.5 -28s68.167 -45 99.5 -79c26 -32.667 48 -72.167 66 -118.5s28.333 -95.833 31 -148.5c43.333 12.667 77.333 34 102 64s37 66.667 37 110c0 26.667 -7.83301 54.834 -23.5 84.501s-37.667 59 -66 88
s-62.666 57 -102.999 84s-85.166 51.5 -134.499 73.5c-83.333 33.333 -157.5 65.5 -222.5 96.5s-114.5 58.5 -148.5 82.5c-67.333 52 -101 108.333 -101 169c0 36 12.333 63.167 37 81.5s56 27.5 94 27.5c36 0 65 -11.167 87 -33.5s33 -51.5 33 -87.5v-6z" />
    <glyph glyph-name="uni098F" unicode="&#x98f;" horiz-adv-x="1288" 
d="M1076 2c-6.66699 31.333 -15.666 60.835 -26.999 88.502s-24 50.167 -38 67.5c-31.333 37.333 -81 56 -149 56c-82 0 -154.333 -5.66699 -217 -17c-59.333 -12 -113 -18 -161 -18c-60 0 -116.5 7.83301 -169.5 23.5s-99.333 40.667 -139 75s-71.167 78.333 -94.5 132
s-35 118.5 -35 194.5c0 54 9.33301 112 28 174c18.667 60.667 43.667 112 75 154l26 -23l26 -23c-23.333 -33.333 -39.666 -66.333 -48.999 -99s-14 -70.667 -14 -114c0 -39.333 5.66699 -76 17 -110s29.5 -63.667 54.5 -89s57.667 -45.333 98 -60s89.5 -22 147.5 -22
c17.333 0 36 0.333008 56 1s41.667 1.66699 65 3c23.333 2 45.5 3.33301 66.5 4s41.167 1 60.5 1c30 0 58.667 -2.66699 86 -8s52.333 -13.666 75 -24.999c23.333 -11.333 47.666 -28 72.999 -50s51.333 -49.667 78 -83v10c-2.66699 13.333 -5 25.666 -7 36.999
s-3.83301 22.666 -5.5 33.999s-2.83398 23.166 -3.50098 35.499s-1 26.5 -1 42.5v674c0 20.667 -2.16699 33.667 -6.5 39s-11.5 8 -21.5 8c-19.333 0 -47.666 -11.333 -84.999 -34c-34.667 -21.333 -73.667 -50 -117 -86c-26 -25.333 -47.167 -46.666 -63.5 -63.999
s-28.833 -32.833 -37.5 -46.5s-14.5 -26.5 -17.5 -38.5s-4.5 -24.667 -4.5 -38l32 5c6.66699 2 12.167 3.33301 16.5 4s9.16602 1 14.499 1c36 0 64.833 -11.833 86.5 -35.5s32.5 -56.5 32.5 -98.5s-17.667 -80 -53 -114s-84 -51 -146 -51c-67.333 0 -122 23 -164 69
c-42.667 43.333 -64 105 -64 185c0 37.333 5.16699 73 15.5 107s25.833 65.667 46.5 95c21.333 30 43.833 58.5 67.5 85.5s48.834 51.5 75.501 73.5c28 22 56 42.167 84 60.5s55.333 33.166 82 44.499c55.333 24.667 98.333 37 129 37c19.333 0 41.666 -5.5 66.999 -16.5
s53.666 -29.167 84.999 -54.5c18.667 -16 34.834 -32.333 48.501 -49s24.167 -33.667 31.5 -51c14 -34 21 -83.667 21 -149v-1026z" />
    <glyph glyph-name="uni0990" unicode="&#x990;" horiz-adv-x="1398" 
d="M1344 1160c0 -86 -17.9971 -157.332 -53.9971 -213.999c-36.667 -57.333 -83 -94.666 -139 -111.999v-904l-39 36c-14 12.667 -26.667 24.667 -38 36c-6.66699 30.667 -15.667 60 -27 88s-24 50.667 -38 68c-32 37.333 -81.667 56 -149 56c-42 0 -81 -1.5 -117 -4.5
s-69.333 -7.16699 -100 -12.5c-59.333 -12 -113.333 -18 -162 -18c-60 0 -116.5 7.83301 -169.5 23.5s-99.333 40.667 -139 75s-71.167 78.333 -94.5 132s-35 118.5 -35 194.5c0 25.333 2.5 52.666 7.5 81.999s12.167 60 21.5 92c19.333 62 44 113.333 74 154
c9.33301 -8 17.833 -15.667 25.5 -23s16.167 -15 25.5 -23c-22.667 -32.667 -38.834 -65.667 -48.501 -99s-14.5 -71.333 -14.5 -114c0 -39.333 5.66699 -76 17 -110s29.5 -63.667 54.5 -89s57.833 -45.333 98.5 -60s90 -22 148 -22c16.667 0 35.167 0.333008 55.5 1
s42.5 1.66699 66.5 3c23.333 2 45.5 3.33301 66.5 4s41.167 1 60.5 1c30 0 58.333 -2.66699 85 -8s52 -13.666 76 -24.999c45.333 -21.333 95.333 -65.666 150 -132.999v10c-1.33301 5.33301 -2.16602 11 -2.49902 17s-1.16602 11.333 -2.49902 16
c-3.33301 17.333 -6 34.833 -8 52.5s-3 38.834 -3 63.501v674c0 20.667 -2.16699 33.667 -6.5 39s-11.5 8 -21.5 8c-18.667 0 -47.334 -11.333 -86.001 -34c-34 -20.667 -72.667 -49.334 -116 -86.001c-26.667 -25.333 -48 -46.666 -64 -63.999s-28.5 -32.833 -37.5 -46.5
s-15 -26.334 -18 -38.001s-4.5 -24.5 -4.5 -38.5l32 5c6.66699 2 12.5 3.33301 17.5 4s9.5 1 13.5 1c35.333 0 64.166 -11.833 86.499 -35.5s33.5 -56.5 33.5 -98.5c0 -42.667 -18.333 -80.667 -55 -114c-36 -34 -84.333 -51 -145 -51c-32.667 0 -63 6 -91 18
s-52.667 29 -74 51c-20 22.667 -35.333 49.5 -46 80.5s-16 65.833 -16 104.5c0 76 20.333 143.333 61 202c20.667 30.667 42.834 59.334 66.501 86.001s49.5 51 77.5 73c54.667 45.333 110 80.333 166 105s98.667 37 128 37c21.333 0 44.166 -5.16699 68.499 -15.5
s51.5 -28.833 81.5 -55.5c16 -13.333 30 -26.5 42 -39.5s22.167 -26.833 30.5 -41.5s14.833 -30.834 19.5 -48.501s7.66699 -37.5 9 -59.5c40.667 0 70 12.5 88 37.5s27 56.5 27 94.5c0 30.667 -5.83301 58.667 -17.5 84s-33 48.666 -64 69.999s-73.333 41 -127 59
s-122.5 35.333 -206.5 52c-160.667 29.333 -273.667 75.666 -339 138.999c-68 62.667 -102 134.667 -102 216c0 45.333 13 85.833 39 121.5s62.333 63.5 109 83.5c10 -8 19.667 -16.167 29 -24.5s19 -16.5 29 -24.5c-44 -13.333 -75.833 -31.833 -95.5 -55.5
s-29.5 -47.167 -29.5 -70.5c0 -14 4 -28.5 12 -43.5s24 -30 48 -45s57.667 -29.667 101 -44s100.666 -27.5 171.999 -39.5c99.333 -18 182.666 -43.667 249.999 -77s121.5 -71 162.5 -113s70 -86.833 87 -134.5s24.833 -94.834 23.5 -141.501z" />
    <glyph glyph-name="uni0993" unicode="&#x993;" horiz-adv-x="1284" 
d="M1200 421c0 -44 -7.66992 -86.0029 -23.0029 -126.003s-37.833 -75.167 -67.5 -105.5s-66 -54.333 -109 -72s-92.167 -26.5 -147.5 -26.5c-93.333 0 -180.666 23.667 -261.999 71s-157 115 -227 203s-134.333 194.333 -193 319s-111.667 264.334 -159 419.001l45.5 -29
l45.5 -30c52.667 -128 108.667 -236.333 168 -325s120 -160.834 182 -216.501s124.833 -95.834 188.5 -120.501s126.167 -37 187.5 -37c89.333 0 155.666 18 198.999 54c44.667 38 67 78.333 67 121c0 41.333 -23.333 76.333 -70 105
c-35.333 -37.333 -74.666 -56 -117.999 -56c-46.667 0 -85.334 15.333 -116.001 46c-30.667 30 -46 67.333 -46 112c0 53.333 15.667 94 47 122c31.333 29.333 68 44 110 44c11.333 0 24 -1.83301 38 -5.5s28 -8.16699 42 -13.5c10.667 10.667 19.667 21.834 27 33.501
s14 25.167 20 40.5c12.667 30 19 55.667 19 77c0 32.667 -10 57.334 -30 74.001s-47 25 -81 25c-29.333 0 -61.166 -6.16699 -95.499 -18.5s-67.5 -28.166 -99.5 -47.499s-61.5 -41.166 -88.5 -65.499s-47.5 -48.5 -61.5 -72.5c10 -5.33301 19 -12.166 27 -20.499
s15 -17.833 21 -28.5s10.667 -21.834 14 -33.501s5 -23.167 5 -34.5c0 -40.667 -12.667 -74.167 -38 -100.5s-61.666 -39.5 -108.999 -39.5c-50.667 0 -93.334 17 -128.001 51c-34.667 36 -52 85.333 -52 148c0 46.667 12.5 93 37.5 139s60 87.333 105 124
s98.667 66.334 161 89.001s130.833 34 205.5 34c94.667 0 171.334 -27.667 230.001 -83c58 -55.333 87 -132 87 -230c0 -17.333 -1.5 -36.333 -4.5 -57s-7.83301 -42.334 -14.5 -65.001c-6.66699 -24 -13.667 -46 -21 -66s-15.666 -37.667 -24.999 -53
c17.333 -16.667 32.5 -36 45.5 -58s24.167 -46.667 33.5 -74c18.667 -51.333 28 -98.333 28 -141z" />
    <glyph glyph-name="uni0994" unicode="&#x994;" horiz-adv-x="1364" 
d="M1287 1151c0 -44 -5.83594 -88.8359 -17.5029 -134.503s-26.5 -89.167 -44.5 -130.5s-38.167 -79.666 -60.5 -114.999s-43.833 -64.333 -64.5 -87c30.667 -32 55 -70.333 73 -115s27 -94 27 -148c0 -44 -7.66699 -86 -23 -126s-37.833 -75.167 -67.5 -105.5
s-66 -54.333 -109 -72s-92.167 -26.5 -147.5 -26.5c-93.333 0 -180.666 23.667 -261.999 71s-157 115 -227 203s-134.333 194.333 -193 319s-111.667 264.334 -159 419.001l45.5 -29l45.5 -30c52.667 -128 108.667 -236.333 168 -325s120 -160.834 182 -216.501
s124.833 -95.834 188.5 -120.501s126.167 -37 187.5 -37c89.333 0 155.666 18 198.999 54c44.667 38 67 78.333 67 121c0 41.333 -23.333 76.333 -70 105c-35.333 -37.333 -74.666 -56 -117.999 -56c-46 0 -85 15.333 -117 46c-30 30 -45 67.333 -45 112
c0 52.667 15.333 93.334 46 122.001c32.667 29.333 69.667 44 111 44c11.333 0 24 -1.83301 38 -5.5s28 -8.16699 42 -13.5c10.667 10.667 19.667 21.834 27 33.501s14 25.167 20 40.5c12.667 30 19 55.667 19 77c0 32.667 -10 57.334 -30 74.001s-47 25 -81 25
c-29.333 0 -61.166 -6.16699 -95.499 -18.5s-67.5 -28.166 -99.5 -47.499s-61.5 -41.166 -88.5 -65.499s-47.5 -48.5 -61.5 -72.5c10 -5.33301 19 -12.166 27 -20.499s15 -17.833 21 -28.5s10.667 -21.834 14 -33.501s5 -23.167 5 -34.5
c0 -40.667 -12.667 -74.167 -38 -100.5s-61.666 -39.5 -108.999 -39.5c-50.667 0 -93.334 17 -128.001 51c-34.667 36 -52 85.333 -52 148c0 46.667 12.5 93 37.5 139s60 87.333 105 124s98.667 66.334 161 89.001s130.833 34 205.5 34
c52.667 0.666992 97.5 -6.83301 134.5 -22.5s67.167 -35.834 90.5 -60.501s40.5 -52.167 51.5 -82.5s16.5 -59.833 16.5 -88.5c0 -9.33301 -0.666992 -23.166 -2 -41.499s-5 -34.166 -11 -47.499l6 -2c14 14.667 25.833 31.334 35.5 50.001s17.834 39.667 24.501 63
c5.33301 24 9.5 46.333 12.5 67s4.5 40 4.5 58c-1.33301 31.333 -8.66602 59.166 -21.999 83.499s-36.333 46.5 -69 66.5s-76.667 38.667 -132 56s-125.333 34.666 -210 51.999c-159.333 29.333 -272.333 75.666 -339 138.999c-66.667 62.667 -100 134.334 -100 215.001
c0 47.333 12.333 88.666 37 123.999s62 63.333 112 84l29 -24.5c9.33301 -7.66699 18.666 -15.834 27.999 -24.501c-22 -6 -41 -14 -57 -24s-29 -20.667 -39 -32s-17.333 -23.333 -22 -36s-7 -24.667 -7 -36c0 -12.667 3.66699 -26.834 11 -42.501
s22.666 -31.5 45.999 -47.5s56.5 -31.167 99.5 -45.5s100.167 -26.833 171.5 -37.5c100.667 -18 185.834 -42.333 255.501 -73s126 -66 169 -106s74 -83.833 93 -131.5s28.5 -97.5 28.5 -149.5z" />
    <glyph glyph-name="uni0995" unicode="&#x995;" horiz-adv-x="1333" 
d="M825 1115v-89.9961c53.333 0 105.833 -10.167 157.5 -30.5s97.834 -49.333 138.501 -87s73.5 -83.5 98.5 -137.5s37.5 -114.667 37.5 -182c0 -34.667 -4.5 -67.5 -13.5 -98.5s-22.167 -60.167 -39.5 -87.5c-17.333 -24.667 -38.666 -43.667 -63.999 -57s-53 -20 -83 -20
c-40 0 -75.333 13.333 -106 40c-30 26 -45 60.333 -45 103c0 36 12.667 69.667 38 101c24 30 54 45 90 45c12.667 0 25.834 -2.16699 39.501 -6.5s26.5 -10 38.5 -17s23 -15.333 33 -25s17.667 -19.834 23 -30.501c6.66699 4 11.667 10.167 15 18.5s5 17.5 5 27.5
c0 28 -9 56.333 -27 85s-43.167 54.5 -75.5 77.5s-70.666 41.833 -114.999 56.5s-92.833 22 -145.5 22v-879c-10.667 9.33301 -20.834 17.666 -30.501 24.999s-19.834 15.666 -30.501 24.999c-4 16 -10 34.167 -18 54.5s-18 41.166 -30 62.499s-25.833 43.166 -41.5 65.499
s-33.167 43.5 -52.5 63.5c-55.333 58.667 -118 105.834 -188 141.501s-150 57.5 -240 65.5l-94 117l-93 117c139.333 102 262.666 181.5 369.999 238.5s205.666 91.833 294.999 104.5v92h-675l-72.5 72l-72.5 72h1447l145 -144h-619zM696 244.004
c-6.66699 28.667 -12.333 55.167 -17 79.5s-7 43.833 -7 58.5v416c-27.333 -4 -58.833 -13.333 -94.5 -28s-71.334 -31.5 -107.001 -50.5s-69 -38.667 -100 -59s-55.167 -37.833 -72.5 -52.5c40.667 -15.333 77.667 -32.5 111 -51.5s65.333 -42.5 96 -70.5
s60.834 -61.833 90.501 -101.5s61.167 -87.5 94.5 -143.5z" />
    <glyph glyph-name="uni0996" unicode="&#x996;" horiz-adv-x="1213" 
d="M1122 1115c-30 0 -52.668 7.6709 -68.001 23.0039v-1201l-30 31.5l-30 31.5h1c-18 54.667 -44.833 107.667 -80.5 159s-79.834 97.666 -132.501 138.999s-113.334 75.666 -182.001 102.999s-145.334 44.666 -230.001 51.999l-113 140l-114 140
c27.333 -3.33301 50 -5.5 68 -6.5s33 -1.5 45 -1.5c76.667 0 143 9.5 199 28.5s102.5 41.5 139.5 67.5s64.5 52.667 82.5 80s27 49.666 27 66.999c0 16.667 -4.16699 30.167 -12.5 40.5s-17.5 15.5 -27.5 15.5c-6.66699 0 -16 -3.33301 -28 -10s-26.667 -15.334 -44 -26.001
l-66.5 -38c-25 -14 -52 -27.167 -81 -39.5s-59.833 -22.666 -92.5 -30.999s-66.334 -12.5 -101.001 -12.5c-57.333 0 -105.333 14.333 -144 43c-38.667 30.667 -58 74.334 -58 131.001c0 46 12.167 83.333 36.5 112s59.833 43 106.5 43c25.333 0 48.333 -8.33301 69 -25
s34.667 -39 42 -67c4 -16 8.33301 -27.167 13 -33.5s10.334 -9.5 17.001 -9.5c14 0 31.667 8 53 24c10.667 8.66699 22 18.5 34 29.5s25.167 23.833 39.5 38.5l47 50l58.5 65c40 -21.333 76 -46.333 108 -75s59 -60 81 -94c21.333 -35.333 38.166 -71.333 50.499 -108
s18.5 -72.667 18.5 -108c0 -36.667 -5.66699 -71 -17 -103s-27.666 -60.833 -48.999 -86.5s-47.166 -47.5 -77.499 -65.5s-64.166 -31.333 -101.499 -40l-1 -4c29.333 -8.66699 59.166 -22.834 89.499 -42.501s60 -43.167 89 -70.5s56.5 -57.666 82.5 -90.999
s49.333 -68 70 -104l4 1c-1.33301 8.66699 -2.66602 20.834 -3.99902 36.501s-2.66602 32.667 -3.99902 51s-2.33301 36.666 -3 54.999s-1 35.166 -1 50.499v1038l42 -37l42 -37c8 -62 21.833 -106.667 41.5 -134s44.834 -41 75.501 -41h25l144 -144h-148z" />
    <glyph glyph-name="uni0997" unicode="&#x997;" horiz-adv-x="1137" 
d="M1053 1115c-34 0 -58.3359 13.0049 -73.0029 39.0049v-1228l-78 74.5l-78 74.5l16 621c0 48.667 -9.5 96 -28.5 142s-44.333 86.833 -76 122.5s-68.167 64.167 -109.5 85.5s-84.666 31.666 -129.999 30.999c-64.667 0 -117.5 -15.5 -158.5 -46.5
s-65.5 -72.5 -73.5 -124.5c28 8.66699 54.167 14.167 78.5 16.5s44.5 3.5 60.5 3.5c82 0 142.333 -24.5 181 -73.5s58 -116.833 58 -203.5c0 -61.333 -16.167 -127.833 -48.5 -199.5s-82.833 -148.834 -151.5 -231.501l-104 94.5l-104 94.5
c45.333 36.667 85.333 73.5 120 110.5s63.834 71.833 87.501 104.5s41.667 62 54 88s18.5 46 18.5 60c0 15.333 -4.66699 27.833 -14 37.5s-20.666 14.5 -33.999 14.5c-28 0 -57 -7.5 -87 -22.5s-57 -31.833 -81 -50.5c-24.667 -19.333 -45 -34.5 -61 -45.5
s-29 -19.333 -39 -25s-17.833 -9.33398 -23.5 -11.001s-10.5 -2.5 -14.5 -2.5c-30.667 0 -59.334 20.333 -86.001 61c-13.333 20 -23.166 44.833 -29.499 74.5s-9.83301 61.167 -10.5 94.5c2.66699 46.667 14.334 92.5 35.001 137.5s47.667 85.167 81 120.5
s72.166 63.666 116.499 84.999s91.5 31.666 141.5 30.999c54 0 103.167 -7.66699 147.5 -23s85.5 -38 123.5 -68c73.333 -60.667 138.333 -160 195 -298l4 2c-5.33301 17.333 -10.333 39.333 -15 66s-8.66699 53.5 -12 80.5s-6 52 -8 75s-3 39.5 -3 49.5v347l36 -34l36 -34
c6 -58 20 -101.333 42 -130s48 -43 78 -43h33l72 -72l71 -72h-155z" />
    <glyph glyph-name="uni0998" unicode="&#x998;" horiz-adv-x="1097" 
d="M940 1115l0.000976562 -1178l-61 61h1c-15.333 46.667 -39.166 92.334 -71.499 137.001s-70.333 84.5 -114 119.5s-91.834 63.167 -144.501 84.5s-107.334 31.666 -164.001 30.999c-11.333 0 -23.333 -0.333008 -36 -1s-25.667 -2 -39 -4l-89.5 94.5l-89.5 93.5l251 231
h-8c-18.667 -4.66699 -36 -7 -52 -7h-36c-80.667 0 -143 22 -187 66c-45.333 44 -68 99 -68 165c0 15.333 2.33301 32.166 7 50.499s12 37.166 22 56.499h-74l-69.5 72l-69.5 72h1172l145 -144h-225zM810.001 224.002c-8 34 -14 69.832 -18 107.499s-6 72.834 -6 105.501
v678h-248c-91.333 0 -154.333 -15.333 -189 -46v1c-34.667 -30 -52 -66.333 -52 -109c0 -32 10 -58 30 -78s48.667 -30 86 -30c10 0 21.5 2.33301 34.5 7s26.333 10.5 40 17.5s27 14.833 40 23.5s24.5 17 34.5 25l36.5 -36.5l40 -39.5l40 -39.5l36.5 -35.5l-275 -245
c24 -4 51.5 -13.5 82.5 -28.5s62.667 -35.167 95 -60.5s64.5 -56 96.5 -92s61.667 -77.333 89 -124z" />
    <glyph glyph-name="uni0999" unicode="&#x999;" horiz-adv-x="1189" 
d="M1118 387c0 -48 -6.66699 -93.998 -20 -137.998s-34.666 -83 -63.999 -117s-67.333 -61.167 -114 -81.5s-103.334 -30.5 -170.001 -30.5c-50 0 -99.667 8 -149 24s-97.166 41.167 -143.499 75.5s-90.166 78.5 -131.499 132.5s-78.833 119 -112.5 195
s-62.834 164 -87.501 264s-43.667 212.667 -57 338l34.5 -25l35.5 -25c54.667 -252 130.5 -437.833 227.5 -557.5s214.833 -179.5 353.5 -179.5c49.333 0 92.833 6.5 130.5 19.5s69.334 29.833 95.001 50.5s45.167 43.334 58.5 68.001s20 48.667 20 72
c0 10.667 -1.66699 21.667 -5 33s-7.66602 22.166 -12.999 32.499s-11.333 20 -18 29s-13.334 16.833 -20.001 23.5c-37.333 -36 -70 -65.333 -98 -88s-53.333 -40.5 -76 -53.5s-43.667 -21.833 -63 -26.5s-39 -7 -59 -7c-48 0 -95.333 23.333 -142 70
c-22 20.667 -40.5 40.167 -55.5 58.5s-27 39 -36 62s-15.333 49.833 -19 80.5s-5.5 68.334 -5.5 113.001c0 18 0.833008 39.167 2.5 63.5s4.16699 47.5 7.5 69.5c-64 33.333 -128.333 76.666 -193 129.999c-32 25.333 -60.833 51.166 -86.5 77.499
s-48.167 54.166 -67.5 83.499l111 25c37.333 8 74 16.333 110 25c6 -21.333 13.667 -43.666 23 -66.999s20.666 -46 33.999 -68s27.333 -43 42 -63s29.667 -37 45 -51c22 82.667 58.333 147.334 109 194.001c52 48 113.667 72 185 72c34 0 64.833 -5.83301 92.5 -17.5
s51.167 -26.834 70.5 -45.501s34.166 -40.167 44.499 -64.5s15.5 -48.833 15.5 -73.5c0 -27.333 -5.66699 -54.166 -17 -80.499s-27.833 -50 -49.5 -71s-48.5 -38 -80.5 -51s-69 -19.5 -111 -19.5c-20 0 -41.333 1.5 -64 4.5s-44.334 6.83301 -65.001 11.5
c-2 -20.667 -3.33301 -41.334 -4 -62.001s-1 -39 -1 -55c0 -36 0.666992 -64.5 2 -85.5s4 -37 8 -48s9.5 -18 16.5 -21s16.167 -4.5 27.5 -4.5c13.333 0 28.833 3.66699 46.5 11s37.334 19.166 59.001 35.499s45.167 37.833 70.5 64.5s52 59.667 80 99
c85.333 -52 146.833 -114.167 184.5 -186.5s56.5 -153.5 56.5 -243.5zM855 1078c0 12.667 -7 24.668 -21 36.001s-33 17 -57 17c-21.333 0 -42.333 -4 -63 -12s-40.667 -19.333 -60 -34c-39.333 -32 -62 -72.333 -68 -121c91.333 0 159.333 11.667 204 35
c43.333 23.333 65 49.666 65 78.999z" />
    <glyph glyph-name="uni099A" unicode="&#x99a;" horiz-adv-x="940" 
d="M278 1115c7.33301 -35.333 20.832 -67.333 40.499 -96s43.167 -53.334 70.5 -74.001c28 -20.667 59 -37.167 93 -49.5s69.333 -20.166 106 -23.499c30 -4 60.833 -12.333 92.5 -25s60.167 -29.5 85.5 -50.5s46.166 -46 62.499 -75s24.5 -61.833 24.5 -98.5
c0 -68.667 -17.667 -140 -53 -214c-18 -37.333 -37.833 -71.5 -59.5 -102.5s-45.5 -60.5 -71.5 -88.5c-25.333 -28 -51.833 -53.333 -79.5 -76s-56.167 -43 -85.5 -61c-28.667 -16.667 -55.667 -29.334 -81 -38.001s-48.666 -13 -69.999 -13c-28 0 -53.667 7.83301 -77 23.5
s-45.666 36.834 -66.999 63.501c-10.667 14 -21.334 29.167 -32.001 45.5s-20.167 33.833 -28.5 52.5s-15.166 38 -20.499 58s-8 40.667 -8 62v780h-133l1 -1l-74 72.5l-74 72.5h1031l71 -72l72 -72h-736zM636.999 588c0 19.333 -6.83203 35.667 -20.499 49
s-31.834 22.666 -54.501 27.999c-24 6.66699 -49.5 18.834 -76.5 36.501s-53.333 39.834 -79 66.501s-49.167 57.334 -70.5 92.001s-38.333 73 -51 115l-4 -1l-3 -748c0 -24.667 9.33301 -37 28 -37c16 0 33.667 5.66699 53 17c40 26.667 77 58.167 111 94.5
s63.333 72.666 88 108.999s44 70.666 58 102.999s21 57.5 21 75.5z" />
    <glyph glyph-name="uni099B" unicode="&#x99b;" horiz-adv-x="1132" 
d="M1194 -232c-85.333 76.667 -166.829 138.001 -244.496 184.001s-153.834 82 -228.501 108s-148.834 44.167 -222.501 54.5s-149.167 17.833 -226.5 22.5l-74 130.5l-74 130.5c41.333 -18 84.333 -31.333 129 -40s86 -13 124 -13c64.667 0 126.667 11 186 33
s111.666 49.667 156.999 83s81.5 69.666 108.5 108.999s40.5 76.666 40.5 111.999c0 40.667 -11.5 72.167 -34.5 94.5s-51.833 33.5 -86.5 33.5c-8 0 -17.5 -0.666992 -28.5 -2s-25.167 -4 -42.5 -8c4 -9.33301 6.66699 -17.666 8 -24.999s2 -13.666 2 -18.999
c0 -24.667 -5.83301 -49.667 -17.5 -75s-27.5 -49.833 -47.5 -73.5s-42.833 -45.834 -68.5 -66.501s-52.334 -38.667 -80.001 -54s-55.667 -27.5 -84 -36.5s-54.5 -13.5 -78.5 -13.5c-10 0 -19.333 0.5 -28 1.5s-18 3.66699 -28 8s-21.333 11 -34 20s-28 21.5 -46 37.5
c-36 31.333 -59.5 63.333 -70.5 96s-16.5 66.334 -16.5 101.001v414h-102l-68 72l-68 72h1256l71 -72l71 -72h-1022c6.66699 -20 18.5 -39 35.5 -57s38 -33.5 63 -46.5s53.5 -23.333 85.5 -31s67 -11.5 105 -11.5h167c22 0 42.833 -3.16699 62.5 -9.5
s39.334 -16.5 59.001 -30.5s40 -32.167 61 -54.5s43.833 -49.5 68.5 -81.5c27.333 -36.667 47.166 -74.667 59.499 -114s18.5 -78.333 18.5 -117c0 -47.333 -9.83301 -89.5 -29.5 -126.5s-46 -68.833 -79 -95.5s-71.5 -48.334 -115.5 -65.001s-90.333 -28.334 -139 -35.001
l-1 -4c40.667 -15.333 82 -32.666 124 -51.999s84.667 -43 128 -71s87.833 -61.167 133.5 -99.5s93.167 -83.5 142.5 -135.5l-1 1zM486.004 775.001c0 7.33301 -0.501953 13.502 -1.50195 18.502s-2.16699 10.5 -3.5 16.5c-24 4 -46.833 10.333 -68.5 19s-42.5 21 -62.5 37
s-39.667 36.833 -59 62.5s-38.666 57.5 -57.999 95.5l-4 -1c1.33301 -11.333 3 -23.833 5 -37.5s3.83301 -27.5 5.5 -41.5s3 -27.167 4 -39.5s1.5 -22.5 1.5 -30.5v-239c0 -23.333 2.16699 -38.5 6.5 -45.5s13.833 -10.5 28.5 -10.5c18.667 0 39.834 7.16699 63.501 21.5
s46 31.666 67 51.999s38.833 41.666 53.5 63.999s22 41.833 22 58.5z" />
    <glyph glyph-name="uni099C" unicode="&#x99c;" horiz-adv-x="1483" 
d="M825 1115c-16.667 -6.66699 -34.3369 -14.834 -53.0039 -24.501l-51 -26.5c10.667 -22.667 25.334 -42 44.001 -58s39.167 -29 61.5 -39s45.666 -17.333 69.999 -22s47.5 -7 69.5 -7c24.667 0 46.334 1 65.001 3s35.5 4.83301 50.5 8.5s28.833 8 41.5 13
s25.667 10.5 39 16.5l33.5 14.5c11.667 5 24.834 10.167 39.501 15.5l14.5 -15.5l37 -40l49 -53.5l50.5 -55l41.5 -45.5c11.667 -13 19.167 -21.5 22.5 -25.5c-38.667 -34.667 -74.167 -71.334 -106.5 -110.001s-60.333 -79.5 -84 -122.5s-42.167 -88.333 -55.5 -136
s-20 -97.834 -20 -150.501c0 -25.333 0.833008 -51.333 2.5 -78s4.16699 -54.5 7.5 -83.5s8 -59.667 14 -92s13 -67.166 21 -104.499l-47 35l-47 35c-25.333 102.667 -43.833 194 -55.5 274s-17.5 146 -17.5 198c0 34.667 3.5 66.834 10.5 96.501s16.333 57.834 28 84.501
s24.667 52.167 39 76.5l43.5 71.5l9.5 15c3.66699 6 6.83398 11 9.50098 15c-32 -8 -61.333 -12 -88 -12c-46 0 -91.667 5.5 -137 16.5s-88.666 26.5 -129.999 46.5s-79.833 44.333 -115.5 73s-66.834 60.667 -93.501 96c-31.333 -17.333 -60.333 -38 -87 -62
s-49.5 -48.5 -68.5 -73.5s-33.833 -49.167 -44.5 -72.5s-16 -43 -16 -59c0 -22.667 7.66699 -42.5 23 -59.5s36.333 -25.5 63 -25.5c8.66699 0 20.667 1.83301 36 5.5s33.166 10.334 53.499 20.001s43.166 22.334 68.499 38.001s52.666 35.5 81.999 59.5
c36 -24.667 67.333 -49.834 94 -75.501s48.834 -53.5 66.501 -83.5s30.834 -62.667 39.501 -98s13 -74.333 13 -117c0 -108 -28 -192 -84 -252c-56.667 -62 -132.667 -93 -228 -93c-68 0 -137 16.333 -207 49c-71.333 32.667 -134.333 85.667 -189 159
c-28 38 -53.833 81 -77.5 129s-44.5 102.333 -62.5 163c-36.667 116 -55 263 -55 441l33 -28l33 -28c10 -108 29 -201.833 57 -281.5s63.167 -145.667 105.5 -198s90.833 -91.5 145.5 -117.5s113.667 -39 177 -39c82.667 0 146.334 16.667 191.001 50
c46 35.333 69 75.333 69 120c0 12.667 -4 26.167 -12 40.5s-18 27.5 -30 39.5c-13.333 -10.667 -29 -20.334 -47 -29.001s-37.667 -16.667 -59 -24c-21.333 -8 -42 -13.833 -62 -17.5s-39 -5.5 -57 -5.5c-52.667 0 -98.334 10.667 -137.001 32s-70.667 48.333 -96 81
s-44.166 68.5 -56.499 107.5s-18.5 76.167 -18.5 111.5c0 58.667 10.333 111.167 31 157.5s53.334 90.5 98.001 132.5h-439l-68 72l-69 72h1572l129 -144h-723z" />
    <glyph glyph-name="uni099D" unicode="&#x99d;" horiz-adv-x="1303" 
d="M1207 1115c-26 0 -49.334 7.66504 -70.001 22.998v-1050l-31 30l-31 29h1c-11.333 38.667 -24.833 75.667 -40.5 111s-34.167 68 -55.5 98s-45.833 56.667 -73.5 80s-58.834 42 -93.501 56v-548l-30.5 26l-30.5 26c-8.66699 22 -18.667 45.167 -30 69.5
s-25 49.5 -41 75.5s-34.667 52.667 -56 80s-46.666 55.333 -75.999 84c-50.667 48.667 -104.334 84.834 -161.001 108.501s-122 36.167 -196 37.5l-91 113l-90 113l189.5 134.5c59.667 41 116.167 76.833 169.5 107.5s104 55.667 152 75s94 32 138 38v83h-676l-68 72l-68 72
h965v-613c33.333 -20.667 63.833 -46.667 91.5 -78s51.167 -68.666 70.5 -111.999l4 1l3 1053l42 -38l41 -38c4 -31.333 9.33301 -58.5 16 -81.5s15.334 -40.5 26.001 -52.5c10.667 -12.667 25.334 -22 44.001 -28s39.667 -9.33301 63 -10l147 -147h-154zM673.999 263.998
c-4.66699 21.333 -8.16699 42.667 -10.5 64s-3.5 39.333 -3.5 54v416c-20 -3.33301 -44.833 -11.5 -74.5 -24.5s-61 -28.833 -94 -47.5s-66.167 -38.5 -99.5 -59.5s-63.666 -41.167 -90.999 -60.5c33.333 -8 64.166 -19 92.499 -33s56.5 -33.667 84.5 -59
s57.167 -58 87.5 -98s64.5 -90.333 102.5 -151z" />
    <glyph glyph-name="uni099E" unicode="&#x99e;" horiz-adv-x="1790" 
d="M1080 2c-6.66699 30.667 -15.6641 59.9961 -26.9971 87.9961s-24 50.667 -38 68c-32 37.333 -82.333 56 -151 56c-42 0 -80.667 -1.5 -116 -4.5s-68.333 -7.16699 -99 -12.5c-60 -12 -114 -18 -162 -18c-60 0 -116.5 7.83301 -169.5 23.5s-99.5 40.667 -139.5 75
s-71.5 78.333 -94.5 132s-34.5 118.5 -34.5 194.5c0 50 9.66699 108 29 174c17.333 60 42 111.333 74 154c9.33301 -8 17.666 -15.667 24.999 -23s15.666 -15 24.999 -23c-22 -32.667 -37.5 -65.667 -46.5 -99s-13.5 -71.333 -13.5 -114c0 -39.333 5.5 -76 16.5 -110
s29 -63.667 54 -89s57.667 -45.333 98 -60s89.5 -22 147.5 -22c16.667 0 35 0.333008 55 1s41.667 1.66699 65 3c24.667 2 47.5 3.33301 68.5 4s41.167 1 60.5 1c30 0 58.333 -2.66699 85 -8s51.667 -13.666 75 -24.999c47.333 -22.667 97.666 -67 150.999 -133v10
c-1.33301 5.33301 -2.16602 11 -2.49902 17s-1.16602 11.333 -2.49902 16c-3.33301 17.333 -6 34.833 -8 52.5s-3 38.834 -3 63.501v674c0 20.667 -2.16699 33.667 -6.5 39s-11.5 8 -21.5 8c-18.667 0 -47.667 -11.333 -87 -34c-18 -10.667 -36.333 -23.334 -55 -38.001
l-60 -48c-26.667 -25.333 -48 -46.666 -64 -63.999s-28.5 -32.833 -37.5 -46.5s-15 -26.334 -18 -38.001s-4.5 -24.5 -4.5 -38.5l32 5c6.66699 2 12.5 3.33301 17.5 4s9.5 1 13.5 1c36 0 64.667 -11.833 86 -35.5s32 -56.5 32 -98.5c0 -43.333 -17.333 -81.333 -52 -114
c-35.333 -34 -84 -51 -146 -51c-33.333 0 -63.833 6 -91.5 18s-52.167 29 -73.5 51c-20 22.667 -35.333 49.5 -46 80.5s-16 65.833 -16 104.5c0 76 20.333 143.333 61 202c20.667 30.667 42.834 59.334 66.501 86.001s49.5 51 77.5 73c54 45.333 109.333 80.333 166 105
c55.333 24.667 97.666 37 126.999 37c20 0 42.833 -5.5 68.5 -16.5s53.834 -29.167 84.501 -54.5c18.667 -16 34.667 -32.333 48 -49s23.666 -33.667 30.999 -51c7.33301 -16.667 12.833 -37.5 16.5 -62.5s5.5 -53.833 5.5 -86.5v-34l4 -1
c17.333 58 38.166 106.667 62.499 146s50.833 71.666 79.5 96.999c61.333 51.333 126 77 194 77c34 0 64.667 -5.66699 92 -17s50.666 -28.5 69.999 -51.5s34.166 -52 44.499 -87s15.5 -76.5 15.5 -124.5c0 -20 -2.16699 -41.167 -6.5 -63.5s-10.333 -44.166 -18 -65.499
s-16.5 -40.833 -26.5 -58.5s-20.667 -31.5 -32 -41.5c20.667 -25.333 37.667 -50.166 51 -74.499s24 -47.833 32 -70.5s13.667 -44.167 17 -64.5s5 -39.5 5 -57.5c0 -56.667 -18.667 -108.667 -56 -156c-36 -46 -90.333 -69 -163 -69c-69.333 0 -134.666 24.333 -195.999 73
c-61.333 46.667 -116.333 126.334 -165 239.001l-4 -1v-621zM1647 951.996c0 28.667 -11.8389 51.8311 -35.5059 69.498s-55.167 26.5 -94.5 26.5s-76.5 -5.66699 -111.5 -17s-67.167 -26 -96.5 -44s-55.166 -38.667 -77.499 -62s-40.5 -47 -54.5 -71
c-10 -19.333 -17 -38.666 -21 -57.999v-90c4.66699 -26 12.334 -49.333 23.001 -70c14.667 -28 32.834 -54.167 54.501 -78.5s45.5 -45.5 71.5 -63.5s53.5 -32.333 82.5 -43s57.833 -16 86.5 -16c23.333 0 44.666 3.5 63.999 10.5s36.333 17.167 51 30.5
c13.333 13.333 24 27.333 32 42s12 29.334 12 44.001c0 20 -6 38.833 -18 56.5s-28.333 29.834 -49 36.501c-12.667 -15.333 -29.167 -27.333 -49.5 -36s-39.166 -13 -56.499 -13c-20 0 -38.167 3.66699 -54.5 11s-30.166 17.333 -41.499 30s-20.166 27.5 -26.499 44.5
s-9.5 35.5 -9.5 55.5c0 40 11.667 72 35 96s55 36 95 36c13.333 0 27.833 -2.5 43.5 -7.5s29.834 -11.167 42.501 -18.5c18 4 33.5 9.66699 46.5 17s23.667 15.666 32 24.999s14.5 18.833 18.5 28.5s6 19.167 6 28.5z" />
    <glyph glyph-name="uni099F" unicode="&#x99f;" horiz-adv-x="940" 
d="M278 1115v-813.007c0 -22.667 4.16699 -39.667 12.5 -51s17.5 -17 27.5 -17c12.667 0 24.5 1.5 35.5 4.5s24.167 11.167 39.5 24.5v-1c40.667 26.667 75.834 54.334 105.501 83.001s54.334 57.334 74.001 86.001s34.5 56.5 44.5 83.5s15.667 51.833 17 74.5
c-16 -6 -30 -9 -42 -9c-20.667 0 -40 3.66699 -58 11s-33.5 17.833 -46.5 31.5s-23.167 30.334 -30.5 50.001s-11 42.167 -11 67.5c0 49.333 17 91 51 125c32.667 32.667 77 49 133 49c60.667 0 112.667 -21.667 156 -65s65 -111.666 65 -204.999
c0 -34 -4.16699 -68.167 -12.5 -102.5s-20 -68 -35 -101s-32.833 -65.167 -53.5 -96.5s-43.334 -61 -68.001 -89c-48.667 -56.667 -101 -101.667 -157 -135c-56 -35.333 -107.667 -53 -155 -53c-18.667 0 -39.667 6.33301 -63 19c-11.333 7.33301 -24.166 17.5 -38.499 30.5
s-30.5 29.5 -48.5 49.5h1c-34 42.667 -59.333 81.334 -76 116.001c-16.667 32.667 -25 69 -25 109v724h-136l-72.5 72l-72.5 72h833c26 23.333 39 49.333 39 78c0 47.333 -41 71 -123 71c-22 0 -46.167 -0.5 -72.5 -1.5s-54.833 -2.83301 -85.5 -5.5
c-31.333 -2.66699 -61.333 -4.5 -90 -5.5s-56.334 -1.5 -83.001 -1.5c-68 0 -127 6.66699 -177 20s-91.167 32.333 -123.5 57s-56.5 54.334 -72.5 89.001s-24 73.667 -24 117c0 25.333 4.16699 51.666 12.5 78.999s21.5 51 39.5 71l31 -17.5l31 -17.5
c-17.333 -16 -30 -32.667 -38 -50s-12 -30.666 -12 -39.999c0 -16 3.33301 -31.667 10 -47s18.5 -29.333 35.5 -42s39.667 -22.834 68 -30.501s64.5 -11.5 108.5 -11.5c21.333 0 47 1.33301 77 4s59.667 5.66699 89 9c22.667 2.66699 43.667 4.83398 63 6.50098
s34.333 2.5 45 2.5c130 0 224.667 -31 284 -93c29.333 -30.667 52.166 -66.167 68.499 -106.5s26.5 -85.166 30.5 -134.499h64l71 -72l72 -72h-732z" />
    <glyph glyph-name="uni09A0" unicode="&#x9a0;" horiz-adv-x="914" 
d="M605 1115c48.667 -66.667 88.6709 -128.837 120.004 -186.504s56.166 -111.834 74.499 -162.501s31 -98 38 -142s10.5 -86 10.5 -126c0 -64.667 -10 -125.667 -30 -183s-48.167 -107.5 -84.5 -150.5s-80.333 -77 -132 -102s-108.834 -37.5 -171.501 -37.5
c-58 0 -110.167 10.833 -156.5 32.5s-85.5 49.834 -117.5 84.501s-56.667 73.834 -74 117.501s-26 87.5 -26 131.5c0 12.667 0.833008 26 2.5 40s3.66699 27.667 6 41s5.16602 26 8.49902 38s7 22.333 11 31c53.333 12.667 103.333 35.334 150 68.001
s87.167 70.834 121.5 114.501s61.5 90.5 81.5 140.5s30 99 30 147c0 19.333 -2.33301 38 -7 56l-12 48h-473l1 -1l-73.5 72.5l-73.5 72.5h560c-50 76.667 -89.833 141 -119.5 193s-52.167 96.333 -67.5 133s-25.333 67.667 -30 93s-7 49.666 -7 72.999
c0 44.667 10.167 84.834 30.5 120.501s49.5 65.834 87.5 90.501l193 -126c-35.333 -0.666992 -65.833 -5.16699 -91.5 -13.5s-46.834 -19.666 -63.501 -33.999s-29.167 -31 -37.5 -50s-12.5 -39.5 -12.5 -61.5c0 -18.667 4.16699 -40.834 12.5 -66.501
s21.833 -55.667 40.5 -90s42.5 -73 71.5 -116s64.5 -91.5 106.5 -145.5h348l72.5 -72l72.5 -72h-390zM723.004 589.997c0 36.667 -3.66699 75.666 -11 116.999s-17.333 81.5 -30 120.5s-27.167 75.333 -43.5 109s-33.833 61.5 -52.5 83.5l-3 -2
c8 -30 13.5 -57.833 16.5 -83.5s4.5 -48.167 4.5 -67.5c1.33301 -57.333 -6.66699 -114.5 -24 -171.5s-41.666 -109.667 -72.999 -158s-68.666 -89.666 -111.999 -123.999s-90.333 -57.5 -141 -69.5c-12.667 -12.667 -20.834 -26.834 -24.501 -42.501s-5.5 -30.5 -5.5 -44.5
c0 -18 3.66699 -35.167 11 -51.5s18 -30.666 32 -42.999s30.833 -22 50.5 -29s41.5 -10.5 65.5 -10.5c22 0 45.667 4.66699 71 14s50.666 23 75.999 41s49.666 40.167 72.999 66.5s43.833 56.833 61.5 91.5s31.834 73.167 42.501 115.5s16 88.5 16 138.5z" />
    <glyph glyph-name="uni09A1" unicode="&#x9a1;" horiz-adv-x="1195" 
d="M604 1115l-0.00390625 -392.997c0 -26.667 10.333 -40 31 -40c8 0 20.333 3.5 37 10.5s37 20.167 61 39.5s51.667 46.666 83 81.999s65.666 81 102.999 137c70.667 -50 124.167 -112.833 160.5 -188.5s54.5 -161.5 54.5 -257.5
c0 -62.667 -9.16699 -121.334 -27.5 -176.001s-45 -102.5 -80 -143.5s-78 -73.333 -129 -97s-109.5 -35.5 -175.5 -35.5c-51.333 0 -101.666 7.5 -150.999 22.5s-96.666 38.833 -141.999 71.5s-88 75.167 -128 127.5s-76.167 115.666 -108.5 189.999
s-60.5 160.5 -84.5 258.5s-42.333 209.333 -55 334l34.5 -26l35.5 -25c28 -126.667 60.167 -234.5 96.5 -323.5s77.833 -161.667 124.5 -218s98.834 -97.5 156.501 -123.5s122.167 -39 193.5 -39c50.667 0 97.334 9.33301 140.001 28s79.5 42.334 110.5 71.001
s55.167 60.167 72.5 94.5s26 66.833 26 97.5c0 44 -20 81.667 -60 113c-51.333 -74.667 -106.666 -129.334 -165.999 -164.001c-62.667 -37.333 -112.334 -56 -149.001 -56c-33.333 0 -61.333 8 -84 24c-21.333 13.333 -48.666 46 -81.999 98c-16 24 -28.333 53.333 -37 88
c-11.333 40 -17 73.333 -17 100v319h-461l-66.5 72l-66.5 72h1273l-1 1l74 -72.5l74 -72.5h-670z" />
    <glyph glyph-name="uni09A2" unicode="&#x9a2;" horiz-adv-x="910" 
d="M278 1115l-0.00292969 -813.005c0 -22.667 4.16699 -39.667 12.5 -51s17.5 -17 27.5 -17c12.667 0 24.5 1.5 35.5 4.5s24.167 11.167 39.5 24.5v-1c40.667 26.667 75.834 54.334 105.501 83.001s54.334 57.334 74.001 86.001s34.5 56.5 44.5 83.5s15.667 51.833 17 74.5
c-16 -6 -30 -9 -42 -9c-20 0 -38.833 3.66699 -56.5 11s-33.167 17.833 -46.5 31.5s-23.833 30.334 -31.5 50.001s-11.5 42.167 -11.5 67.5c0 49.333 17 91 51 125c32.667 32.667 77 49 133 49c60.667 0 112.667 -21.667 156 -65s65 -111.666 65 -204.999
c0 -34 -4.16699 -68.167 -12.5 -102.5s-20 -68 -35 -101s-32.833 -65.167 -53.5 -96.5s-43.334 -61 -68.001 -89c-48.667 -56.667 -101 -101.667 -157 -135c-56 -35.333 -107.333 -53 -154 -53c-19.333 0 -40.666 6.33301 -63.999 19
c-11.333 7.33301 -24.166 17.5 -38.499 30.5s-30.5 29.5 -48.5 49.5h1c-34 42.667 -59.333 81.334 -76 116.001c-16.667 32.667 -25 69 -25 109v724h-135l-72.5 72l-72.5 72h998l-1 1l74 -72.5l74 -72.5h-707z" />
    <glyph glyph-name="uni09A3" unicode="&#x9a3;" horiz-adv-x="1057" 
d="M970 1115c-36.667 0 -61.3271 11.3369 -73.9941 34.0039l-8 -8l21 -1213l-78 74.5l-79 74.5l3 650c0 47.333 -7.16699 91.5 -21.5 132.5s-34.166 76.5 -59.499 106.5s-55 53.667 -89 71s-70.667 26 -110 26c-34.667 0 -66.834 -6.5 -96.501 -19.5
s-55.5 -30.667 -77.5 -53s-39.167 -48.833 -51.5 -79.5s-18.5 -63.334 -18.5 -98.001c0 -28.667 4.16699 -55 12.5 -79s20.166 -44.5 35.499 -61.5s34.333 -30.167 57 -39.5s48.334 -14 77.001 -14l7 10c-22.667 11.333 -41.5 24.666 -56.5 39.999s-22.5 37 -22.5 65
c0 15.333 2.83301 30.5 8.5 45.5s13.5 29.167 23.5 42.5c22 27.333 56 41 102 41c43.333 0 79.333 -18.333 108 -55c14.667 -17.333 25.5 -36.5 32.5 -57.5s10.5 -43.167 10.5 -66.5c0 -22.667 -4.16699 -45.834 -12.5 -69.501s-22 -45.334 -41 -65.001
s-44 -35.834 -75 -48.501s-68.833 -19 -113.5 -19c-46 0 -89.833 8.16699 -131.5 24.5s-78.334 40.333 -110.001 72s-56.834 70.834 -75.501 117.501s-28 100.334 -28 161.001c0 65.333 10.5 122.833 31.5 172.5s48.333 91.167 82 124.5s71 58.5 112 75.5
s81.5 25.5 121.5 25.5c34 0 67.667 -3.83301 101 -11.5s66.666 -23.834 99.999 -48.501s67.166 -60.334 101.499 -107.001s70.166 -109 107.499 -187l4 2c-6.66699 16.667 -12.5 37.167 -17.5 61.5s-9.33301 48.833 -13 73.5s-6.33398 47.667 -8.00098 69
s-2.5 37.333 -2.5 48l-2 172l-2 172l37 -32.5c12 -10.333 23.667 -21.166 35 -32.499c1.33301 -30.667 5.66602 -57 12.999 -79s16.5 -40.167 27.5 -54.5s23.333 -24.833 37 -31.5s27.834 -10 42.501 -10h33l71 -72l72 -72h-153z" />
    <glyph glyph-name="uni09A4" unicode="&#x9a4;" horiz-adv-x="1254" 
d="M-13 1115l-68 72l-68 72h1325l72.5 -72l72.5 -72h-1334zM1160 536c0 -68 -9.33203 -130 -27.999 -186s-45.167 -104 -79.5 -144s-75.833 -70.833 -124.5 -92.5s-103.334 -32.5 -164.001 -32.5c-70.667 0 -141 16.167 -211 48.5s-137.5 86.166 -202.5 161.499
s-126.333 175.333 -184 300s-109.5 279 -155.5 463l38 -25l38 -25c47.333 -120.667 95.666 -223.667 144.999 -309s100.5 -155.166 153.5 -209.499s108.333 -94.166 166 -119.499s118.5 -38 182.5 -38c46 0 88.5 8.16699 127.5 24.5s72.5 38.333 100.5 66s50 60 66 97
s24 76.167 24 117.5c0 36 -4.33301 66.833 -13 92.5s-19.667 47.167 -33 64.5s-28 31 -44 41s-31.333 17.667 -46 23s-27.667 8.83301 -39 10.5s-18.666 2.5 -21.999 2.5c-18 0 -41 -6 -69 -18c48 -33.333 72 -81 72 -143c0 -52 -18.667 -96.667 -56 -134
c-38.667 -35.333 -85.667 -53 -141 -53c-60.667 0 -111 21 -151 63c-42 42 -63 100 -63 174c0 38.667 6.5 74 19.5 106s32.167 60.667 57.5 86c51.333 51.333 121.333 77 210 77c54.667 0 107.5 -11 158.5 -33s96.333 -53.833 136 -95.5s71.5 -92.834 95.5 -153.501
s36 -129.667 36 -207z" />
    <glyph glyph-name="uni09A5" unicode="&#x9a5;" horiz-adv-x="1174" 
d="M1095 1115c-30 0 -52.666 7.66211 -67.999 22.9951v-1201l-30 31.5l-30 31.5h1c-9.33301 27.333 -24 56 -44 86s-44.667 59.667 -74 89s-63 57.333 -101 84s-79.667 50.334 -125 71.001s-93.833 37.334 -145.5 50.001s-105.5 19.334 -161.5 20.001l-113.5 141.5
l-114.5 140.5c10 -1.33301 18.667 -2.33301 26 -3s15 -1.66699 23 -3l35.5 -3.5c10.333 -1 19.166 -1.5 26.499 -1.5c32.667 0 66.5 4.66699 101.5 14s69.333 22 103 38s65.5 35.167 95.5 57.5s56.333 46.333 79 72s40.667 52.834 54 81.501s20 57.334 20 86.001
c0 14.667 -3.16699 29.167 -9.5 43.5s-15.166 27 -26.499 38s-25.333 19.833 -42 26.5s-35.334 10 -56.001 10c-17.333 0 -35.166 -2.33301 -53.499 -7s-36.5 -11.334 -54.5 -20.001c-17.333 -8 -32.833 -17.833 -46.5 -29.5s-25.167 -24.167 -34.5 -37.5l3.5 -3.5
c1 -1 2.83301 -3.16699 5.5 -6.5l13.5 -14l15.5 -16c14 -16 21 -39.667 21 -71c0 -15.333 -3.33301 -31.333 -10 -48s-16.667 -32.167 -30 -46.5s-30 -26.166 -50 -35.499s-43.333 -14 -70 -14c-51.333 0 -94.333 15.667 -129 47c-34.667 32.667 -52 78.334 -52 137.001
c0 31.333 7.83301 65.5 23.5 102.5s39.167 71.167 70.5 102.5s70.666 57.666 117.999 78.999s102.666 32.333 165.999 33c50.667 0 98 -10 142 -30s82.333 -47.333 115 -82s58.334 -74.834 77.001 -120.501s28 -94.167 28 -145.5c-0.666992 -44 -8 -85.5 -22 -124.5
s-33.5 -74.333 -58.5 -106s-55 -58.667 -90 -81s-73.833 -39.166 -116.5 -50.499l1 -4c26 -4.66699 55.333 -16.167 88 -34.5s66.5 -42 101.5 -71s69.667 -62.167 104 -99.5s65.5 -77 93.5 -119h9c-8 23.333 -14.167 52 -18.5 86s-6.5 67.333 -6.5 100v1100l42 -37l42 -37
c8 -61.333 22 -105.833 42 -133.5s45 -41.5 75 -41.5h28l73.5 -72l72.5 -72h-153z" />
    <glyph glyph-name="uni09A6" unicode="&#x9a6;" horiz-adv-x="958" 
d="M262 1115l-0.00195312 -393.002c0 -11.333 -0.333008 -26.833 -1 -46.5s-2 -40.167 -4 -61.5l6 -6c18.667 34.667 43.167 70 73.5 106s64 71 101 105s76 66.5 117 97.5s81.5 59.167 121.5 84.5c19.333 -10.667 41 -23.5 65 -38.5s46.667 -30.167 68 -45.5
c23.333 -17.333 45.166 -34.666 65.499 -51.999s38.166 -33.666 53.499 -48.999c-37.333 -33.333 -69.333 -71.5 -96 -114.5s-48.667 -88.167 -66 -135.5s-30.166 -95.5 -38.499 -144.5s-12.5 -95.833 -12.5 -140.5c0 -23.333 1.66699 -48.166 5 -74.499
s7.83301 -53.5 13.5 -81.5s11.834 -56.167 18.501 -84.5l20 -83.5c2 -8.66699 4 -16.834 6 -24.501l6 -23.5l-43.5 34l-44.5 34c-19.333 43.333 -36.166 87 -50.499 131s-26.166 86.5 -35.499 127.5s-16.5 79.333 -21.5 115s-7.5 66.834 -7.5 93.501
c0 15.333 1 32.833 3 52.5s4.66699 42.167 8 67.5c6.66699 50.667 19.667 95.667 39 135l-2 3c-45.333 -34.667 -86.166 -71.5 -122.499 -110.5s-67.833 -78.833 -94.5 -119.5c-22.667 -35.333 -42 -71.166 -58 -107.499s-30.667 -71.833 -44 -106.5l-6 -15.5l-6 -15.5
c-19.333 11.333 -37.833 24.166 -55.5 38.499s-35.5 30.166 -53.5 47.499c-17.333 17.333 -33.333 35.333 -48 54s-27.334 37.667 -38.001 57v691h-117l-68 72l-68 72h1064l145 -144h-797z" />
    <glyph glyph-name="uni09A7" unicode="&#x9a7;" horiz-adv-x="1060" 
d="M895 1115v-1172l-29.5 25l-29.5 25c-8 22 -18.167 44.667 -30.5 68s-26.166 45.666 -41.499 66.999c-15.333 20.667 -35.833 44 -61.5 70s-53.5 51 -83.5 75c-24.667 20 -52.5 38.5 -83.5 55.5s-63.833 31.667 -98.5 44s-70 22.333 -106 30s-71.333 11.834 -106 12.501
l-76 97l-76 97l99.5 73l99.5 69c32 20.667 62.5 39.5 91.5 56.5s55.5 31.5 79.5 43.5l-1 4h-7c-19.333 -6.66699 -38.833 -10.667 -58.5 -12s-39.167 -2 -58.5 -2c-70 0 -126.333 20.333 -169 61c-42 40.667 -63 93 -63 157c0 35.333 6.33301 67.833 19 97.5
s31 56.167 55 79.5c24 21.333 52 38 84 50s67 18 105 18c51.333 0 96.666 -15.667 135.999 -47c19.333 -16 33.833 -34.333 43.5 -55s14.5 -45 14.5 -73c0 -20 -3 -37.5 -9 -52.5s-14.167 -27.833 -24.5 -38.5s-22.333 -18.667 -36 -24s-27.834 -8 -42.501 -8
c-6.66699 0 -15.667 0.666992 -27 2s-22.5 5 -33.5 11s-20.667 15.333 -29 28s-12.5 30 -12.5 52c0 6 1 12.167 3 18.5s4.33301 13.166 7 20.499c0 2 1 4.66699 3 8c-36.667 0 -62.667 -8 -78 -24s-23 -39 -23 -69c0 -20.667 4.16699 -39.667 12.5 -57
s20 -32.166 35 -44.499s33 -22 54 -29s44.167 -10.5 69.5 -10.5c36 0 66.167 3.5 90.5 10.5s48.5 16.833 72.5 29.5c14 10 28.333 19.667 43 29l45 28l40.5 26c13.667 8.66699 26.834 17.667 39.501 27v197h227l71 -72l72 -72h-218zM763 236
c-13.333 37.333 -20 74.333 -20 111v465l-85.5 -62.5l-101 -70.5l-104 -71l-94.5 -64c31.333 -6 63.833 -16.5 97.5 -31.5s66.5 -32.833 98.5 -53.5c32 -22.667 64.5 -52.5 97.5 -89.5s66.5 -81.5 100.5 -133.5h11z" />
    <glyph glyph-name="uni09A8" unicode="&#x9a8;" horiz-adv-x="1050" 
d="M893 1115v-1178l-33.5 32.5l-33.5 32.5c-4 23.333 -8.83301 48.833 -14.5 76.5s-11.834 53.834 -18.501 78.501c-6.66699 25.333 -16.167 56.5 -28.5 93.5l-39.5 113.5c-21.333 58.667 -45 109.667 -71 153s-55 78 -87 104c-62.667 51.333 -129 77 -199 77v-7
c32 -17.333 55.833 -40.5 71.5 -69.5s23.5 -60.5 23.5 -94.5c0 -58 -20 -103.333 -60 -136c-41.333 -32.667 -87.666 -49 -138.999 -49c-28 0 -56 4.83301 -84 14.5s-53.167 24.667 -75.5 45s-40.5 46.166 -54.5 77.499s-21 68.333 -21 111
c0 77.333 25.667 141.666 77 192.999c49.333 51.333 119.333 77 210 77c38 0 77.167 -6.33301 117.5 -19s79.833 -34.5 118.5 -65.5s75.167 -72.667 109.5 -125s64.5 -118.5 90.5 -198.5l8 2c-7.33301 33.333 -13 69 -17 107s-6 70.667 -6 98v456h-754l1 -1l-74 72.5
l-74 72.5h1130l71.5 -72l71.5 -72h-216z" />
    <glyph glyph-name="uni09AA" unicode="&#x9aa;" horiz-adv-x="1312" 
d="M1230 1115c-34.667 0 -59.3281 11.334 -73.9951 34.001l-9 -8l12 -606.5c4 -201 7.66699 -403.167 11 -606.5l-80.5 74.5l-79.5 74.5c0 90.667 0.333008 180.667 1 270s1 179 1 269c0.666992 26.667 -0.5 51.5 -3.5 74.5s-8.83301 45.167 -17.5 66.5
s-20.334 42.333 -35.001 63s-32.667 41.667 -54 63l-99 -91l-114.5 -112.5l-113.5 -120c-36.667 -40.333 -68.334 -78.5 -95.001 -114.5l-123 38l-123 38c28.667 28.667 52.667 54.834 72 78.501s34.666 45.167 45.999 64.5s19.5 37 24.5 53s7.5 30.667 7.5 44
c0 58 -26 87 -78 87c-14 0 -26.833 -3.16699 -38.5 -9.5s-23.167 -13.166 -34.5 -20.499c-12 -8 -24.667 -15.333 -38 -22s-27.666 -10 -42.999 -10c-14 0 -27.333 2.83301 -40 8.5s-25.334 14.167 -38.001 25.5c-12 10 -21.167 22.5 -27.5 37.5s-9.83301 30.833 -10.5 47.5
c2 20 8.5 43.167 19.5 69.5s26.167 53.166 45.5 80.499s42.166 54.166 68.499 80.499s56 49.833 89 70.5s68.667 37.167 107 49.5s79.166 18.166 122.499 17.499c60.667 0 117.667 -10.667 171 -32s102 -51.333 146 -90c44 -41.333 86.167 -90.5 126.5 -147.5
s79.5 -120.833 117.5 -191.5l6 8c-8 26.667 -15.833 61.167 -23.5 103.5s-12.5 92.166 -14.5 149.499c0 71.333 -0.333008 142.166 -1 212.499s-1 141.5 -1 213.5c12 -11.333 24.167 -22.166 36.5 -32.499s24.5 -21.166 36.5 -32.499c4 -57.333 18.167 -100.5 42.5 -129.5
s57.5 -44.167 99.5 -45.5l72.5 -72l72.5 -72h-145zM758.006 1030c-24 23.333 -51.998 42.167 -83.998 56.5s-64.667 21.5 -98 21.5c-26 0 -50.667 -3.33301 -74 -10s-46.333 -16.834 -69 -30.501s-45.334 -30.5 -68.001 -50.5s-46.667 -43.333 -72 -70
c51.333 0 92 -16.333 122 -49c30 -34 45 -72 45 -114c0 -6 -0.333008 -11.167 -1 -15.5s-2.33398 -9.16602 -5.00098 -14.499l8 -11c40 48.667 82.667 93.667 128 135l137 122l15.5 14l15.5 14v2z" />
    <glyph glyph-name="uni09AB" unicode="&#x9ab;" horiz-adv-x="1352" 
d="M326 1115c28 -25.333 57.0049 -53.165 87.0049 -83.498l87.5 -92c28.333 -31 54.666 -61.333 78.999 -91s44.833 -56.5 61.5 -80.5l-257 -224c26 -4.66699 56 -15.334 90 -32.001s68.167 -38.167 102.5 -64.5s67.666 -57.166 99.999 -92.499s60.166 -74 83.499 -116l4 1
c-8.66699 38.667 -14.334 73.167 -17.001 103.5s-4 61.5 -4 93.5v586c1.33301 0.666992 3.16602 1 5.49902 1s4.16602 0.333008 5.49902 1c21.333 3.33301 44.5 6.16602 69.5 8.49902s47.167 3.5 66.5 3.5c144.667 0 249.334 -34.333 314.001 -103
c65.333 -68.667 98 -159.667 98 -273c0 -77.333 -18.333 -136.333 -55 -177s-78.334 -61 -125.001 -61c-21.333 0 -40.833 3.5 -58.5 10.5s-32.667 16.667 -45 29s-22 27 -29 44s-10.5 35.5 -10.5 55.5c0 16.667 2.5 32.834 7.5 48.501s12.5 29.5 22.5 41.5
s22.167 21.667 36.5 29s30.833 11 49.5 11c17.333 0 35.333 -5.66699 54 -17s33.667 -25.666 45 -42.999c25.333 15.333 38 37.666 38 66.999c0 36 -18.167 65.5 -54.5 88.5s-92.833 34.5 -169.5 34.5c-14.667 0 -32 -1.16699 -52 -3.5s-38.667 -5.16602 -56 -8.49902v-873
l-30.5 31.5l-30.5 31.5l1 -1c-4.66699 25.333 -17.334 57 -38.001 95s-50 76.333 -88 115c-29.333 29.333 -59.166 55.166 -89.499 77.499s-62.166 40.833 -95.499 55.5c-33.333 14 -72 24.667 -116 32s-90.333 11.333 -139 12l-97 114.5l-97 113.5l77 69.5l90 78.5
l89.5 76.5l76.5 62.5c-14.667 28 -42.167 50 -82.5 66s-86.833 25 -139.5 27c-32 1.33301 -59.667 4.16602 -83 8.49902s-42.333 10.666 -57 18.999s-25.5 19.5 -32.5 33.5s-10.5 31.667 -10.5 53l-74.5 75.5l-74.5 75.5h1430l71 -72l71 -72h-1105z" />
    <glyph glyph-name="uni09AC" unicode="&#x9ac;" horiz-adv-x="1029" 
d="M872 1115l0.000976562 -1173c-10 9.33301 -19.833 17.833 -29.5 25.5s-19.5 16.167 -29.5 25.5h1c-8 22.667 -17.5 45.667 -28.5 69s-24.667 47.333 -41 72s-35.833 50.5 -58.5 77.5s-49 55.167 -79 84.5c-24 22 -51 42.333 -81 61s-62 34.834 -96 48.501
s-69.833 24.5 -107.5 32.5s-75.834 12.333 -114.501 13l-90.5 113l-91.5 113c63.333 46.667 128.333 90.667 195 132s129 77.666 187 108.999c60.667 32 117.5 57.333 170.5 76s101.167 31.334 144.5 38.001v83h-748l-66.5 72l-66.5 72h1100l145 -144h-215zM737.001 254.999
c-5.33301 23.333 -9.00195 46.832 -11.002 70.499s-3 42.5 -3 56.5v416c-61.333 -11.333 -126.666 -34.666 -195.999 -69.999c-35.333 -17.333 -70.666 -36.166 -105.999 -56.499s-70.666 -42.166 -105.999 -65.499c34.667 -8 69.167 -19.833 103.5 -35.5
s68.666 -37.334 102.999 -65.001s68.833 -62.334 103.5 -104.001s70 -92.5 106 -152.5z" />
    <glyph glyph-name="uni09AD" unicode="&#x9ad;" horiz-adv-x="1345" 
d="M-17 1115l-68 72l-68 72h1433l71 -72l71 -72h-1439zM1214 543c0 -66 -10.833 -126.666 -32.5 -181.999s-52.334 -103.333 -92.001 -144s-87.167 -72.334 -142.5 -95.001s-117 -34 -185 -34c-70.667 0 -141 15.667 -211 47s-137.5 84.166 -202.5 158.499
s-126.333 173.333 -184 297s-109.5 277.834 -155.5 462.501l37.5 -24.5l37.5 -23.5c48 -120 97 -222.5 147 -307.5s101.667 -154.333 155 -208s108.666 -92.834 165.999 -117.501s117 -37 179 -37c31.333 0 62.666 4.16699 93.999 12.5s61.333 19.833 90 34.5
s55.5 31.834 80.5 51.501s46.667 41 65 64s32.666 46.833 42.999 71.5s15.5 49 15.5 73c0 11.333 -3.5 25.833 -10.5 43.5s-18.167 34.167 -33.5 49.5c-27.333 -32 -55.5 -60.5 -84.5 -85.5s-59.833 -46.333 -92.5 -64s-67.667 -31.167 -105 -40.5s-77.666 -14 -120.999 -14
c-45.333 0 -86.333 6.66699 -123 20s-67 31.333 -91 54c-21.333 24.667 -38.333 52.5 -51 83.5s-19 63.833 -19 98.5c0 60 18.667 110.333 56 151c39.333 40.667 86.333 61 141 61c25.333 0 48.166 -4.16699 68.499 -12.5s37.833 -19.833 52.5 -34.5
c28 -32 42 -69.667 42 -113c0 -17.333 -5.16699 -37.5 -15.5 -60.5s-26.166 -44.167 -47.499 -63.5l2 -15c28 8 54.833 20 80.5 36s48.5 34.667 68.5 56c20.667 22.667 41.334 50 62.001 82s41.334 69.333 62.001 112c44.667 -24 83 -52 115 -84s58.333 -67 79 -105
s35.834 -78.333 45.501 -121s14.5 -87 14.5 -133z" />
    <glyph glyph-name="uni09AE" unicode="&#x9ae;" horiz-adv-x="1118" 
d="M968 1115l-0.000976562 -1173l-30 29l-30 29h1c-56.667 210.667 -161 339.667 -313 387c-23.333 -43.333 -52.833 -77.5 -88.5 -102.5s-78.5 -37.5 -128.5 -37.5c-70.667 0 -127 22 -169 66c-41.333 44.667 -62 97.667 -62 159c0 64 20 115 60 153
c20.667 18.667 43.334 32.834 68.001 42.501s52 14.5 82 14.5c16 0 34.167 -3.66699 54.5 -11l59.5 -22c18.667 12.667 28 36.334 28 71.001c0 20 -5.66699 41 -17 63s-26.5 42.833 -45.5 62.5s-41.167 37.167 -66.5 52.5s-52 27 -80 35
c-64.667 17.333 -116 32.833 -154 46.5s-67 27.834 -87 42.501s-32.833 30.834 -38.5 48.501s-8.5 39.5 -8.5 65.5l-55.5 61.5l-55.5 61.5h1151l73.5 -72l72.5 -72h-221zM828.999 280.996c-4.66699 30 -7.99805 55.8359 -9.99805 77.5029l-5 52.5v6
c-0.666992 13.333 -1.16699 25.666 -1.5 36.999s-0.5 22.333 -0.5 33v628h-497c15.333 -30.667 38 -62.834 68 -96.501s66.333 -68.5 109 -104.5v1c26 -24 49 -50.333 69 -79s37 -57.5 51 -86.5s24.5 -56.833 31.5 -83.5s10.5 -50.334 10.5 -71.001
c0 -11.333 -0.833008 -23 -2.5 -35s-3.83398 -24.333 -6.50098 -37c12.667 -10 28.667 -25.833 48 -47.5s38.166 -45 56.499 -70s34.5 -49.5 48.5 -73.5s22.333 -43 25 -57z" />
    <glyph glyph-name="uni09AF" unicode="&#x9af;" horiz-adv-x="1024" 
d="M886 1115v-1172l-31 27.5l-31 27.5c-4 22 -10.833 45 -20.5 69s-22 47.833 -37 71.5s-32.667 46.667 -53 69s-42.833 43.166 -67.5 62.499c-24 18.667 -50.667 35.834 -80 51.501s-60.5 29.5 -93.5 41.5s-67.5 21.5 -103.5 28.5s-73 10.833 -111 11.5l-95 114.5
l-96 113.5c42.667 42.667 95.667 90.667 159 144l111 93l28 22.5l27 22.5c-58 54 -122 81 -192 81c-136 0 -204 39.667 -204 119l-69.5 73l-69.5 73h1078l145 -144h-194zM757 236c-13.333 47.333 -21.668 89.168 -25.001 125.501s-5 69.5 -5 99.5v654h-420l71 -72
l59.5 -60.5l62.5 -67.5l60.5 -70.5c19.667 -23.667 37.834 -46.834 54.501 -69.501l-67 -52l-69.5 -57l-66 -57.5c-21 -19 -39.833 -37.5 -56.5 -55.5c22 0 48.5 -6 79.5 -18s64.167 -30.833 99.5 -56.5s71.5 -58.5 108.5 -98.5s72.167 -87.667 105.5 -143z" />
    <glyph glyph-name="uni09B0" unicode="&#x9b0;" horiz-adv-x="1029" 
d="M872 1115l0.000976562 -1173c-10 9.33301 -19.833 17.833 -29.5 25.5s-19.5 16.167 -29.5 25.5h1c-8 22.667 -17.5 45.667 -28.5 69s-24.667 47.333 -41 72s-35.833 50.5 -58.5 77.5s-49 55.167 -79 84.5c-24 22 -51 42.333 -81 61s-62 34.834 -96 48.501
s-69.833 24.5 -107.5 32.5s-75.834 12.333 -114.501 13l-90.5 113l-91.5 113c63.333 46.667 128.333 90.667 195 132s129 77.666 187 108.999c60.667 32 117.5 57.333 170.5 76s101.167 31.334 144.5 38.001v83h-748l-66.5 72l-66.5 72h1100l145 -144h-215zM737.001 254.999
c-5.33301 23.333 -9.00195 46.832 -11.002 70.499s-3 42.5 -3 56.5v416c-61.333 -11.333 -126.666 -34.666 -195.999 -69.999c-35.333 -17.333 -70.666 -36.166 -105.999 -56.499s-70.666 -42.166 -105.999 -65.499c34.667 -8 69.167 -19.833 103.5 -35.5
s68.666 -37.334 102.999 -65.001s68.833 -62.334 103.5 -104.001s70 -92.5 106 -152.5zM486.999 152.998c0 -34.667 -12.335 -64.333 -37.002 -89s-55.334 -37 -92.001 -37c-35.333 0 -66 12.333 -92 37c-25.333 25.333 -38 55 -38 89c0 18 3.5 34.667 10.5 50
s16.333 28.666 28 39.999s25.334 20.166 41.001 26.499s32.5 9.5 50.5 9.5s34.833 -3.16699 50.5 -9.5s29.334 -15.166 41.001 -26.499s20.834 -24.666 27.501 -39.999s10 -32 10 -50z" />
    <glyph glyph-name="uni09B2" unicode="&#x9b2;" horiz-adv-x="1326" 
d="M1151 1115c3.33301 -198.667 6.83105 -396.664 10.498 -593.997s7.16699 -395 10.5 -593l-78.5 74.5l-78.5 74.5l2 573c-13.333 31.333 -26.666 57 -39.999 77s-26.333 35.833 -39 47.5s-24.834 19.667 -36.501 24s-22.5 6.5 -32.5 6.5
c-34 0 -59.833 -13.833 -77.5 -41.5s-26.5 -63.5 -26.5 -107.5c0 -7.33301 0.5 -16.166 1.5 -26.499s3.16699 -24.166 6.5 -41.499l-33.5 18l-32.5 18c-10 26 -22.167 49.333 -36.5 70s-31.166 38.5 -50.499 53.5s-41.166 26.5 -65.499 34.5s-51.833 12 -82.5 12
c-34 -1.33301 -66.333 -7.83301 -97 -19.5s-57.667 -27.834 -81 -48.501s-42.166 -45.334 -56.499 -74.001s-21.833 -60.334 -22.5 -95.001c0 -47.333 14.667 -85.666 44 -114.999c15.333 -15.333 30 -26.833 44 -34.5s27.667 -11.5 41 -11.5c10 0 18.167 0.5 24.5 1.5
s13.166 2.5 20.499 4.5c-20 17.333 -34.5 35.166 -43.5 53.499s-13.5 34.166 -13.5 47.499c0 19.333 3.5 37.666 10.5 54.999s17 32.5 30 45.5s29 23.167 48 30.5s40.167 11 63.5 11c24.667 0 46.834 -4.5 66.501 -13.5s36.5 -21.833 50.5 -38.5
c14 -17.333 24.833 -36.833 32.5 -58.5s11.5 -44.834 11.5 -69.501c0 -46 -18.333 -87.333 -55 -124c-35.333 -36 -91.333 -54 -168 -54c-52 -0.666992 -100 8.33301 -144 27s-82 44.834 -114 78.501s-57 73.667 -75 120s-27 96.5 -27 150.5c0 50 9.66699 95.5 29 136.5
s44.5 76.167 75.5 105.5s66.167 52 105.5 68s79 24 119 24c50 0 94.667 -14.667 134 -44s73.666 -71.333 102.999 -126c12 34 23.833 61.833 35.5 83.5s23.167 38.167 34.5 49.5c21.333 21.333 53.333 32 96 32c34.667 0 71.167 -18.5 109.5 -55.5
s78.833 -99.5 121.5 -187.5l4 1c-3.33301 28.667 -5.83301 52.5 -7.5 71.5s-2.5 33.5 -2.5 43.5v250h-1046l-68 72l-68 72h1429l144 -144h-259z" />
    <glyph glyph-name="uni09B6" unicode="&#x9b6;" horiz-adv-x="1248" 
d="M1155 1115c-17.333 0 -33.3369 3.16309 -48.0039 9.49609s-25.667 16.166 -33 29.499v-1226l-73 74.5l-73 74.5l14 689c0 38 -7.5 73.833 -22.5 107.5s-33 63.334 -54 89.001s-43.333 46 -67 61s-43.834 22.5 -60.501 22.5c-11.333 0 -23.833 -1.33301 -37.5 -4
s-24.167 -6.66699 -31.5 -12s-17 -14.666 -29 -27.999s-25 -29.666 -39 -48.999c38.667 -24 71.834 -47 99.501 -69s48.5 -43 62.5 -63c28.667 -39.333 43 -77.666 43 -114.999c0 -56.667 -15.667 -100.834 -47 -132.501s-76.666 -47.5 -135.999 -47.5
c-17.333 0 -34.666 4 -51.999 12s-33.833 19.833 -49.5 35.5s-30.167 35.334 -43.5 59.001s-24.333 51.167 -33 82.5l-6 20c-3.33301 -15.333 -7.5 -31 -12.5 -47s-10.667 -31.333 -17 -46s-13.5 -28 -21.5 -40s-16.333 -22 -25 -30c-36 -32 -71.333 -48 -106 -48
c-29.333 0 -56 4.33301 -80 13s-44.5 20.667 -61.5 36s-30.167 34 -39.5 56s-14 46.667 -14 74c0 17.333 2.16699 35.333 6.5 54s14.333 39 30 61s38.834 46.333 69.501 73s72.334 56.667 125.001 90c-12.667 46 -37.167 79.833 -73.5 101.5s-82.5 32.5 -138.5 32.5h-88
l-46 72l-46 72h155c39.333 0 74.666 -3.33301 105.999 -10s59.5 -18.5 84.5 -35.5s47.667 -40 68 -69s39.166 -65.5 56.499 -109.5c35.333 46.667 66.333 84.334 93 113.001s50.5 51 71.5 67s39.667 26.667 56 32s31.5 8 45.5 8c22 0 45.833 -4.5 71.5 -13.5
s52.834 -25.5 81.501 -49.5s58.834 -57.5 90.501 -100.5s64.834 -98.5 99.501 -166.5l4 2c-6.66699 16.667 -12.5 38.667 -17.5 66s-9.16699 54.833 -12.5 82.5s-5.83301 53.5 -7.5 77.5s-2.5 41.333 -2.5 52v294l33.5 -32.5l33.5 -32.5
c5.33301 -58.667 19.166 -102.5 41.499 -131.5s49.5 -43.5 81.5 -43.5h23l72.5 -72l72.5 -72h-147zM134.996 766.996c0 -4.66699 2.66699 -7 8 -7c7.33301 0 11 2.33301 11 7c0 1.33301 -1 3 -3 5s-4.66699 3 -8 3c-2 0 -3.83301 -1 -5.5 -3s-2.5 -3.66699 -2.5 -5z
M134.996 723.996c0 -4.66699 2.66699 -7 8 -7c7.33301 0 11 2.33301 11 7c0 1.33301 -1 3 -3 5s-4.66699 3 -8 3c-2 0 -3.83301 -1 -5.5 -3s-2.5 -3.66699 -2.5 -5zM144.996 683.996c0 -4.66699 2.66699 -7 8 -7c3.33301 0 6.16602 0.666992 8.49902 2s3.5 3 3.5 5
c0 1.33301 -1.16699 3 -3.5 5s-5.16602 3 -8.49902 3c-2 0 -3.83301 -1 -5.5 -3s-2.5 -3.66699 -2.5 -5zM165.996 652.996c0 -4.66699 2.66699 -7 8 -7c7.33301 0 11 2.33301 11 7c0 1.33301 -1 3 -3 5s-4.66699 3 -8 3c-2 0 -3.83301 -1 -5.5 -3s-2.5 -3.66699 -2.5 -5z
M205.996 631.996c0 -4.66699 2.66699 -7 8 -7c7.33301 0 11 2.33301 11 7c0 1.33301 -1 3 -3 5s-4.66699 3 -8 3c-2 0 -3.83301 -1 -5.5 -3s-2.5 -3.66699 -2.5 -5zM255.996 631.996c0 -4.66699 2.66699 -7 8 -7c7.33301 0 11 2.33301 11 7c0 1.33301 -1 3 -3 5
s-4.66699 3 -8 3c-2 0 -3.83301 -1 -5.5 -3s-2.5 -3.66699 -2.5 -5zM307.996 652.996c0 -4.66699 2.66699 -7 8 -7c7.33301 0 11 2.33301 11 7c0 1.33301 -1 3 -3 5s-4.66699 3 -8 3c-2 0 -3.83301 -1 -5.5 -3s-2.5 -3.66699 -2.5 -5zM337.996 692.996
c0 -4.66699 2.66699 -7 8 -7c7.33301 0 11 2.33301 11 7c0 1.33301 -1 3 -3 5s-4.66699 3 -8 3c-2 0 -3.83301 -1 -5.5 -3s-2.5 -3.66699 -2.5 -5zM357.996 732.996c0 -4.66699 2.66699 -7 8 -7c7.33301 0 11 2.33301 11 7c0 1.33301 -1 3 -3 5s-4.66699 3 -8 3
c-2 0 -3.83301 -1 -5.5 -3s-2.5 -3.66699 -2.5 -5zM398.996 773.996c0 -4.66699 2.66699 -7 8 -7c7.33301 0 11 2.33301 11 7c0 1.33301 -1 3 -3 5s-4.66699 3 -8 3c-2 0 -3.83301 -1 -5.5 -3s-2.5 -3.66699 -2.5 -5zM454.996 774.996c0 -4.66699 2.66699 -7 8 -7
c7.33301 0 11 2.33301 11 7c0 1.33301 -1 3 -3 5s-4.66699 3 -8 3c-2 0 -3.83301 -1 -5.5 -3s-2.5 -3.66699 -2.5 -5zM493.996 742.996c0 -4.66699 2.66699 -7 8 -7c3.33301 0 6.16602 0.666992 8.49902 2s3.5 3 3.5 5c0 1.33301 -1.16699 3 -3.5 5s-5.16602 3 -8.49902 3
c-2 0 -3.83301 -1 -5.5 -3s-2.5 -3.66699 -2.5 -5zM513.996 708.996c0 -4.66699 2.66699 -7 8 -7c7.33301 0 11 2.33301 11 7c0 1.33301 -1 3 -3 5s-4.66699 3 -8 3c-2 0 -3.83301 -1 -5.5 -3s-2.5 -3.66699 -2.5 -5zM527.996 676.996c0 -4.66699 2.66699 -7 8 -7
c7.33301 0 11 2.33301 11 7c0 1.33301 -1 3 -3 5s-4.66699 3 -8 3c-2 0 -3.83301 -1 -5.5 -3s-2.5 -3.66699 -2.5 -5zM544.996 645.996c0 -5.33301 2.66699 -8 8 -8c7.33301 0 11 2.66699 11 8c0 1.33301 -1 3 -3 5s-4.66699 3 -8 3c-2 0 -3.83301 -1 -5.5 -3
s-2.5 -3.66699 -2.5 -5zM568.996 614.996c0 -4.66699 2.66699 -7 8 -7c7.33301 0 11 2.33301 11 7c0 1.33301 -1 3 -3 5s-4.66699 3 -8 3c-2 0 -3.83301 -1 -5.5 -3s-2.5 -3.66699 -2.5 -5zM603.996 593.996c0 -4.66699 2.66699 -7 8 -7c7.33301 0 11 2.33301 11 7
c0 1.33301 -1 3 -3 5s-4.66699 3 -8 3c-2 0 -3.83301 -1 -5.5 -3s-2.5 -3.66699 -2.5 -5zM648.996 599.996c0 -4.66699 2.66699 -7 8 -7c7.33301 0 11 2.33301 11 7c0 1.33301 -1 3 -3 5s-4.66699 3 -8 3c-2 0 -3.83301 -1 -5.5 -3s-2.5 -3.66699 -2.5 -5zM688.996 624.996
c0 -4.66699 2.66699 -7 8 -7c7.33301 0 11 2.33301 11 7c0 1.33301 -1 3 -3 5s-4.66699 3 -8 3c-2 0 -3.83301 -1 -5.5 -3s-2.5 -3.66699 -2.5 -5zM716.996 665.996c0 -4.66699 2.66699 -7 8 -7c7.33301 0 11 2.33301 11 7c0 1.33301 -1 3 -3 5s-4.66699 3 -8 3
c-2 0 -3.83301 -1 -5.5 -3s-2.5 -3.66699 -2.5 -5zM724.996 717.996c0 -4.66699 2.66699 -7 8 -7c3.33301 0 6.16602 0.666992 8.49902 2s3.5 3 3.5 5c0 1.33301 -1.16699 3 -3.5 5s-5.16602 3 -8.49902 3c-2 0 -3.83301 -1 -5.5 -3s-2.5 -3.66699 -2.5 -5zM714.996 766.996
c0 -4.66699 2.66699 -7 8 -7c7.33301 0 11 2.33301 11 7c0 1.33301 -1 3 -3 5s-4.66699 3 -8 3c-2 0 -3.83301 -1 -5.5 -3s-2.5 -3.66699 -2.5 -5zM687.996 804.996c0 -4.66699 2.66699 -7 8 -7c7.33301 0 11 2.33301 11 7c0 1.33301 -1 3 -3 5s-4.66699 3 -8 3
c-2 0 -3.83301 -1 -5.5 -3s-2.5 -3.66699 -2.5 -5zM652.996 838.996c0 -4.66699 2.66699 -7 8 -7c7.33301 0 11 2.33301 11 7c0 1.33301 -1 3 -3 5s-4.66699 3 -8 3c-2 0 -3.83301 -1 -5.5 -3s-2.5 -3.66699 -2.5 -5zM608.996 870.996c0 -4.66699 2.66699 -7 8 -7
c3.33301 0 6.16602 0.666992 8.49902 2s3.5 3 3.5 5c0 1.33301 -1.16699 3.16602 -3.5 5.49902s-5.16602 3.5 -8.49902 3.5c-2 0 -3.83301 -1.16699 -5.5 -3.5s-2.5 -4.16602 -2.5 -5.49902zM568.996 908.996c0 -4.66699 2.66699 -7 8 -7c7.33301 0 11 2.33301 11 7
c0 1.33301 -1 3 -3 5s-4.66699 3 -8 3c-2 0 -3.83301 -1 -5.5 -3s-2.5 -3.66699 -2.5 -5zM528.996 940.996c0 -4.66699 2.66699 -7 8 -7c7.33301 0 11 2.33301 11 7c0 1.33301 -1 3 -3 5s-4.66699 3 -8 3c-2 0 -3.83301 -1 -5.5 -3s-2.5 -3.66699 -2.5 -5zM481.996 971.996
c0 -4.66699 2.66699 -7 8 -7c7.33301 0 11 2.33301 11 7c0 1.33301 -1 3 -3 5s-4.66699 3 -8 3c-2 0 -3.83301 -1 -5.5 -3s-2.5 -3.66699 -2.5 -5zM437.996 998.996c0 -5.33301 2.66699 -8 8 -8c7.33301 0 11 2.66699 11 8c0 1.33301 -1 3 -3 5s-4.66699 3 -8 3
c-2 0 -3.83301 -1 -5.5 -3s-2.5 -3.66699 -2.5 -5zM381.996 981.996c0 -4.66699 2.66602 -7 7.99902 -7c8 0 12 2.33301 12 7c0 1.33301 -1.16699 3 -3.5 5s-5.16602 3 -8.49902 3c-2 0 -3.83301 -1 -5.5 -3s-2.5 -3.66699 -2.5 -5zM342.995 949.996
c0 -4.66699 2.66699 -7 8 -7c7.33301 0 11 2.33301 11 7c0 1.33301 -1 3 -3 5s-4.66699 3 -8 3c-2 0 -3.83301 -1 -5.5 -3s-2.5 -3.66699 -2.5 -5zM307.995 919.996c0 -4.66699 2.66699 -7 8 -7c7.33301 0 11 2.33301 11 7c0 1.33301 -1 3 -3 5s-4.66699 3 -8 3
c-2 0 -3.83301 -1 -5.5 -3s-2.5 -3.66699 -2.5 -5zM258.995 886.996c0 -4.66699 2.66699 -7 8 -7c3.33301 0 6.16602 0.666992 8.49902 2s3.5 3 3.5 5c0 1.33301 -1.16699 3 -3.5 5s-5.16602 3 -8.49902 3c-2 0 -3.83301 -1 -5.5 -3s-2.5 -3.66699 -2.5 -5zM224.995 857.996
c0 -4.66699 2.66699 -7 8 -7c7.33301 0 11 2.33301 11 7c0 1.33301 -1 3 -3 5s-4.66699 3 -8 3c-2 0 -3.83301 -1 -5.5 -3s-2.5 -3.66699 -2.5 -5zM178.995 819.996c0 -4.66699 2.66699 -7 8 -7c7.33301 0 11 2.33301 11 7c0 1.33301 -1 3 -3 5s-4.66699 3 -8 3
c-2 0 -3.83301 -1 -5.5 -3s-2.5 -3.66699 -2.5 -5z" />
    <glyph glyph-name="uni09B7" unicode="&#x9b7;" horiz-adv-x="1024" 
d="M884 1115c-0.666992 -196 -1.16699 -391.501 -1.5 -586.501s-0.833008 -390.5 -1.5 -586.5l-30 28.5l-29 28.5c-4 22 -11 45.167 -21 69.5s-22.667 48.333 -38 72s-33.166 46.667 -53.499 69s-42.833 43.166 -67.5 62.499c-48.667 38 -106.167 69.333 -172.5 94
s-137.833 37.667 -214.5 39l-96.5 114l-96.5 114l38.5 33.5l41.5 34.5l90 79l89.5 78l79.5 67c-9.33301 8.66699 -21.333 17.334 -36 26.001s-31 16.334 -49 23.001s-37.167 12 -57.5 16s-40.5 6 -60.5 6c-72.667 0 -124.834 9 -156.501 27s-47.5 48.667 -47.5 92h-21
l-68 72l-68 72h1164l72 -72l71 -72h-260zM753 247.999c-7.33301 30 -12.332 55.001 -14.999 75.001s-4 39.667 -4 59v292l-25 26c-9.33301 9.33301 -20.666 19.666 -33.999 30.999v-1c-26 24 -48 43 -66 57c-42.667 -34.667 -86.334 -72.5 -131.001 -113.5l-124 -118.5
c20.667 0 46.167 -6.66699 76.5 -20s63.166 -33 98.499 -59s72 -58.167 110 -96.5s74.667 -82.5 110 -132.5zM734.001 1115h-450.999l52 -34.5l63.5 -44l68.5 -49.5l68 -51l62.5 -52l56.5 -50c17.333 -16 32.666 -31 45.999 -45s24 -26.333 32 -37z" />
    <glyph glyph-name="uni09B8" unicode="&#x9b8;" horiz-adv-x="1119" 
d="M975 1115l0.000976562 -1187c-6.66699 6 -17 16 -31 30l-44 44.5l-44 44.5l-30 30l17 514c-6 16.667 -14 31.334 -24 44.001s-20.5 23.167 -31.5 31.5s-22.167 14.5 -33.5 18.5s-21.333 6 -30 6c-24 0 -52 -13.333 -84 -40c-16.667 -14 -35.334 -33.667 -56.001 -59
s-43 -56.333 -67 -93c-31.333 -48 -58 -85.833 -80 -113.5s-41 -48.5 -57 -62.5s-29.833 -22.667 -41.5 -26s-22.5 -5 -32.5 -5c-36.667 0 -80.334 21.333 -131.001 64c-24 20 -48.833 49 -74.5 87s-50.167 83 -73.5 135l37.5 33l37.5 33
c11.333 -44.667 24.833 -76.5 40.5 -95.5s30.834 -28.5 45.501 -28.5s35.667 14.333 63 43l35.5 42.5l40 49l40.5 51l38 49.5c6 18.667 9 36.334 9 53.001c0 20.667 -4.33301 40.834 -13 60.501s-22.667 39.167 -42 58.5c-36.667 38.667 -94.334 60 -173.001 64
c-42.667 2.66699 -77.667 7.16699 -105 13.5s-47.666 15.166 -60.999 26.499v-1c-25.333 23.333 -38 56.333 -38 99l-61 65l-62 65h1204l72.5 -72l72.5 -72h-233zM850.001 686.998c-2.66699 21.333 -4.50098 39.835 -5.50098 55.502s-1.5 28.167 -1.5 37.5l-3 335h-479v-9
c38 -14 66.833 -37.833 86.5 -71.5s29.5 -74.5 29.5 -122.5c0 -12.667 -0.833008 -29.834 -2.5 -51.501s-4.16699 -42.167 -7.5 -61.5c32 36.667 61.667 62.667 89 78s51.333 23 72 23c16 0 32.333 -2.5 49 -7.5s33.834 -15.333 51.501 -31s36 -37.834 55 -66.501
s39.167 -66.667 60.5 -114z" />
    <glyph glyph-name="uni09B9" unicode="&#x9b9;" horiz-adv-x="1161" 
d="M1128 -274c-84.667 78 -165.164 144.666 -241.497 199.999s-151.5 102.666 -225.5 141.999s-148.333 72 -223 98s-152.334 48.333 -233.001 67l-87.5 171l-87.5 171c32 -18 63.833 -34 95.5 -48s61.5 -25.667 89.5 -35s53.167 -16.833 75.5 -22.5
s40.166 -8.5 53.499 -8.5c34 0 68.667 3.83301 104 11.5s69.833 18.334 103.5 32.001s65.5 29.834 95.5 48.501s56.167 39 78.5 61s40 45.333 53 70s19.5 49.667 19.5 75c0 16.667 -3.16699 32.5 -9.5 47.5s-15.5 28.167 -27.5 39.5s-26.833 20.333 -44.5 27
s-37.834 10 -60.501 10c-20 0 -40.5 -3.66699 -61.5 -11l-60.5 -22c0 -32 -6.5 -62.167 -19.5 -90.5s-30.5 -53 -52.5 -74s-47.333 -37.5 -76 -49.5s-58.334 -18 -89.001 -18c-24 0 -46.167 3.66699 -66.5 11s-37.833 17.666 -52.5 30.999s-26 29.333 -34 48
s-12 39.334 -12 62.001c0 28 5.33301 53.667 16 77s24.667 44 42 62s37.333 33.833 60 47.5s46 24.834 70 33.501s47.5 15.167 70.5 19.5s44.167 6.5 63.5 6.5c-14 46.667 -44 79.667 -90 99h-391l-68 72l-68 72h1287l72.5 -72l72.5 -72h-755
c5.33301 -11.333 9.5 -25.833 12.5 -43.5s5.5 -33.834 7.5 -48.501c21.333 0 45.5 -2.5 72.5 -7.5s54.167 -13.333 81.5 -25s54.166 -26.834 80.499 -45.501s49.833 -41.5 70.5 -68.5s37.167 -58.333 49.5 -94s18.5 -76.834 18.5 -123.501c0 -190.667 -118 -315 -354 -373
c52.667 -30 105.334 -63.333 158.001 -100s102.834 -74.167 150.501 -112.5s91.5 -76.166 131.5 -113.499s73.667 -71.666 101 -102.999z" />
    <glyph glyph-name="uni09BC" unicode="&#x9bc;" 
d="M609 -60c0 -34 -11.999 -63.332 -35.999 -87.999c-24.667 -24.667 -55 -37 -91 -37s-67 12.333 -93 37c-25.333 25.333 -38 54.666 -38 87.999c0 18 3.5 34.667 10.5 50s16.5 28.666 28.5 39.999s25.833 20.166 41.5 26.499s32.5 9.5 50.5 9.5s34.667 -3.16699 50 -9.5
s28.666 -15.166 39.999 -26.499s20.333 -24.666 27 -39.999s10 -32 10 -50z" />
    <glyph glyph-name="uni09BD" unicode="&#x9bd;" horiz-adv-x="1181" 
d="M1128 -274c-85.333 78 -166.002 144.831 -242.002 200.498s-151 103.167 -225 142.5s-148.167 71.833 -222.5 97.5s-152.166 47.834 -233.499 66.501l-87 171l-88 171c32.667 -18.667 65 -35 97 -49s61.833 -25.833 89.5 -35.5s52.5 -17 74.5 -22s39.667 -7.5 53 -7.5
c33.333 0 67.833 3.83301 103.5 11.5s70.334 18.334 104.001 32.001s65.5 29.834 95.5 48.501s56.167 39 78.5 61s40 45.333 53 70s19.5 49.667 19.5 75c0 16.667 -3 32.5 -9 47.5s-15 28.167 -27 39.5s-26.833 20.333 -44.5 27s-38.167 10 -61.5 10
c-20.667 0 -41.334 -3.33301 -62.001 -10s-40.667 -14.334 -60 -23.001c0 -32 -6.5 -62.167 -19.5 -90.5s-30.5 -53 -52.5 -74s-47.333 -37.5 -76 -49.5s-58.334 -18 -89.001 -18c-24 0 -46.167 3.66699 -66.5 11s-37.666 17.5 -51.999 30.5s-25.666 28.833 -33.999 47.5
s-12.5 39.667 -12.5 63c0 28 5.33301 53.5 16 76.5s24.667 43.667 42 62s37.333 34.166 60 47.499s46 24.5 70 33.5s47.5 15.667 70.5 20s44.167 6.5 63.5 6.5c-3.33301 9.33301 -10.333 20.333 -21 33s-27.5 24.834 -50.5 36.501s-53.333 21.5 -91 29.5s-84.5 12 -140.5 12
c-24.667 0 -52 -1 -82 -3s-62 -5 -96 -9l-35 36l-34 37l-33.5 35.5l-33.5 35.5c7.33301 0 13.833 0.166992 19.5 0.5s12.167 0.5 19.5 0.5c28.667 1.33301 57.667 2.33301 87 3s59 1 89 1c49.333 0 98 -2 146 -6s92.667 -11.667 134 -23s77.833 -26.833 109.5 -46.5
s56.167 -45.167 73.5 -76.5c4.66699 -10.667 8.66699 -24.5 12 -41.5s5.66602 -32.833 6.99902 -47.5c21.333 0 45.5 -2.5 72.5 -7.5s54.167 -13.333 81.5 -25s54.166 -26.834 80.499 -45.501s49.833 -41.5 70.5 -68.5s37.167 -58.333 49.5 -94s18.5 -76.834 18.5 -123.501
c0 -192 -118 -316.333 -354 -373c52.667 -30 105.334 -63.333 158.001 -100s102.834 -74.167 150.501 -112.5s91.5 -76.166 131.5 -113.499s73.667 -71.666 101 -102.999z" />
    <glyph glyph-name="uni09BE" unicode="&#x9be;" horiz-adv-x="472" 
d="M387 1115c-17.333 0 -32.334 4.00098 -45.001 12.001s-23.334 19.333 -32.001 34v-1271l-160 147l12 750c0 41.333 -5.83301 81.333 -17.5 120s-27.167 73 -46.5 103s-41.166 54.5 -65.499 73.5s-49.166 29.5 -74.499 31.5h-50l-48 72l-48 72h127
c24 -2.66699 48.167 -11.834 72.5 -27.501s47.5 -37 69.5 -64s42.333 -59.333 61 -97s34.667 -79.834 48 -126.501l12 6c-3.33301 17.333 -6.5 37.333 -9.5 60l-9.5 73c-1.33301 14.667 -2.33301 28.667 -3 42c-3.33301 31.333 -5.33301 58 -6 80
c0 48.667 -0.333008 97.667 -1 147s-1 98.333 -1 147l36 -32.5c12 -10.333 23.667 -21.166 35 -32.499c2 -34 6.16699 -62.5 12.5 -85.5s15.5 -40.5 27.5 -52.5c22.667 -24.667 52.667 -37 90 -37h50l71 -72l71 -72h-178z" />
    <glyph glyph-name="uni09BF" unicode="&#x9bf;" horiz-adv-x="497" 
d="M1302 1371c-213.333 218.667 -430.335 327.996 -651.002 327.996c-43.333 0 -84 -5.66699 -122 -17s-72.667 -26.5 -104 -45.5s-59.333 -40.5 -84 -64.5s-45.334 -48.667 -62.001 -74s-29.5 -50.166 -38.5 -74.499s-13.5 -46.166 -13.5 -65.499
c0 -21.333 5 -39.5 15 -54.5s28 -29.833 54 -44.5h145l72 -72l71 -72h-263v-1225l-159 147l21 1078h-200l-138 144h343l-23 21.5l-23 21.5c-1.33301 1.33301 -2.66602 2.83301 -3.99902 4.5s-2.66602 3.16699 -3.99902 4.5h1c-11.333 12 -22.5 24.667 -33.5 38
s-21 27.333 -30 42s-16.333 30.167 -22 46.5s-8.5 33.5 -8.5 51.5c0 38.667 12.333 79.834 37 123.501s59 83.834 103 120.501s95.833 67 155.5 91s124.5 36 194.5 36c44.667 0 98.834 -7.16699 162.501 -21.5s130.667 -37.833 201 -70.5s141 -75 212 -127
s136.167 -115.667 195.5 -191v-79z" />
    <glyph glyph-name="uni09C0" unicode="&#x9c0;" horiz-adv-x="425" 
d="M-38 1115l-47.5 51.4971l-47.5 51.5h1c-8.66699 12.667 -22 21.834 -40 27.501s-36 8.5 -54 8.5h-79v6c12 9.33301 20.833 21 26.5 35s8.5 25.667 8.5 35c0 27.333 -9.66699 48 -29 62s-54.333 21 -105 21c-8 0 -17 -0.166992 -27 -0.5s-19.667 -1.16602 -29 -2.49902
l-64 -4c-22 -2 -42.167 -3.66699 -60.5 -5s-33.166 -2 -44.499 -2c-56 0 -105 5.5 -147 16.5s-77 26.333 -105 46s-49 43.334 -63 71.001s-21 58.5 -21 92.5c0 38 10.333 71.667 31 101s50.167 54 88.5 74s85.166 35.333 140.499 46s118 16 188 16
c97.333 0 188 -12.333 272 -37s158.833 -62 224.5 -112s121.167 -112.833 166.5 -188.5s78 -164.167 98 -265.5h137l72.5 -72l72.5 -72h-264v-1225l-159 147l21 1078h-162zM114 1259c0.666992 28 -2.33203 57.834 -8.99902 89.501s-16.334 62.5 -29.001 92.5
s-28 58.167 -46 84.5s-38 48.5 -60 66.5c-58.667 46 -131.167 80 -217.5 102s-185.5 33 -297.5 33c-68 0 -124.667 -3.66699 -170 -11s-81.5 -16.666 -108.5 -27.999s-46 -23.5 -57 -36.5s-16.5 -24.833 -16.5 -35.5c0 -6 1.33301 -11.5 4 -16.5s7.5 -9.5 14.5 -13.5
s16.5 -7 28.5 -9s27.667 -3 47 -3c17.333 0 41 1.16699 71 3.5s59.667 5.16602 89 8.49902c23.333 2.66699 44.5 4.83398 63.5 6.50098s32.833 2.5 41.5 2.5c50.667 0 96 -6.16699 136 -18.5s75.167 -31.833 105.5 -58.5s56 -61.334 77 -104.001
s37.833 -94.334 50.5 -155.001h283z" />
    <glyph glyph-name="uni09C1" unicode="&#x9c1;" 
d="M236 -605c-24 24 -51.3359 49.5 -82.0029 76.5l-94.5 79.5l-96.5 75c-32 24 -62 45 -90 63c-8 -23.333 -19 -45 -33 -65s-30.833 -37.5 -50.5 -52.5s-42.167 -26.833 -67.5 -35.5s-53.666 -13 -84.999 -13c-26.667 0 -52.834 4.83301 -78.501 14.5
s-48.667 23.167 -69 40.5s-36.666 38 -48.999 62s-18.5 50.667 -18.5 80c0 50.667 17.667 93 53 127c34.667 34.667 81.667 52 141 52c8.66699 0 20 -1 34 -3s29.667 -5.66699 47 -11s35.833 -12.333 55.5 -21s39.5 -19.667 59.5 -33c0 7.33301 -0.833008 17.5 -2.5 30.5
s-3.66699 27.667 -6 44s-5 33.333 -8 51l-8.5 50.5c-2.66699 15.333 -5 29.5 -7 42.5s-3.66699 23.167 -5 30.5c11.333 -6.66699 22.833 -18.167 34.5 -34.5s22.834 -36.833 33.501 -61.5c22.667 -56 36.334 -121.667 41.001 -197l80 -56l87.5 -66.5l82 -67.5l65.5 -58h-1z
M-230.003 -245c-6.66699 3.33301 -15.499 7.00098 -26.499 11.001s-24.833 7.66699 -41.5 11c-32.667 7.33301 -56.667 11 -72 11c-21.333 0 -40.5 -2.66699 -57.5 -8s-31.5 -12 -43.5 -20s-21.167 -17 -27.5 -27s-9.5 -19.667 -9.5 -29c0 -20.667 8 -36.167 24 -46.5
s36 -15.5 60 -15.5c35.333 0 71.666 9.33301 108.999 28c40 19.333 68.667 46.666 86 81.999z" />
    <glyph glyph-name="uni09C2" unicode="&#x9c2;" 
d="M-68 -382c-38.667 -16.667 -76.0039 -28.4951 -112.004 -35.4951s-66.667 -10.5 -92 -10.5c-32.667 0 -63.667 4.5 -93 13.5s-55.166 21.667 -77.499 38s-40 36.333 -53 60s-19.5 50.5 -19.5 80.5c0 20.667 5 41.834 15 63.501s24 41.167 42 58.5s40 31.666 66 42.999
s55 17 87 17c14 0 29.833 -2.16699 47.5 -6.5s31.5 -11.5 41.5 -21.5v42c-1.33301 19.333 -3.33301 41.166 -6 65.499s-4.66699 44.166 -6 59.499c28 -10.667 51.833 -37.334 71.5 -80.001s32.834 -98 39.501 -166h-124c-62 0 -112 -10 -150 -30
c-38 -21.333 -57 -41 -57 -59c0 -6 1.33301 -12.333 4 -19s7.33398 -12.834 14.001 -18.501s15.334 -10.334 26.001 -14.001s24 -5.5 40 -5.5c14.667 0 31 1.5 49 4.5s36 7 54 12s35 10.833 51 17.5s29 13.667 39 21c7.33301 0.666992 15.333 1.16699 24 1.5
s16.667 0.833008 24 1.5l160.5 -109l161.5 -109l14.5 -60l15.5 -61z" />
    <glyph glyph-name="uni09C3" unicode="&#x9c3;" 
d="M-40 -658l-3 3v-5zM-71 -545l8.49902 -27.999c3 -10 5.83301 -20 8.5 -30s4.83398 -19.5 6.50098 -28.5l4.5 -23.5l-69.5 53.5l-88 64.5l-98 69.5l-99 68.5l-92 61.5l-75.5 48.5c-1.33301 2.66699 -2.83301 5 -4.5 7s-3.16699 4.33301 -4.5 7l314 183l26 53v8
c0 14 -0.166992 28.167 -0.5 42.5s-2.83301 28.166 -7.5 41.499c21.333 -11.333 39.5 -32 54.5 -62s27.167 -69 36.5 -117c0.666992 -4 1.33398 -9.66699 2.00098 -17s1.16699 -15 1.5 -23l1 -23c0.333008 -7.33301 0.5 -13.333 0.5 -18l-204 -132l74.5 -51l77.5 -54.5
l71.5 -53.5c22.333 -17.333 41.166 -33 56.499 -47h-1z" />
    <glyph glyph-name="uni09C4" unicode="&#x9c4;" 
d="M-90 -866l-3 3v-5zM-121 -753c6 -17.333 11.665 -36.667 16.998 -58s9 -38.666 11 -51.999l-68 54l-87 65l-97.5 69.5l-99.5 68.5l-93 61l-77 48c-1.33301 2.66699 -2.83301 5 -4.5 7s-3.16699 4.33301 -4.5 7l242 142l-131 87.5c-40.667 26.333 -75 47.5 -103 63.5
c-1.33301 2.66699 -2.66602 5 -3.99902 7s-2.66602 4.33301 -3.99902 7l314 183l26 53v8c0 13.333 -0.333008 27.333 -1 42s-3 28.334 -7 41.001c20.667 -12.667 38.667 -34 54 -64s27.666 -68 36.999 -114c0.666992 -4 1.33398 -9.66699 2.00098 -17s1.16699 -15 1.5 -23
l1 -23c0.333008 -7.33301 0.5 -13.333 0.5 -18l-204 -132l38.5 -26.5l41.5 -27.5l57 -39l55.5 -40l49.5 -38.5c15.333 -12.333 28 -23.833 38 -34.5h-1l8.5 -28.5l8.5 -30.5c2.66699 -10 4.83398 -19.5 6.50098 -28.5l4.5 -23.5c-19.333 17.333 -41.833 36.166 -67.5 56.499
s-51.834 39.833 -78.501 58.5l-161 -105l36 -25.5l39 -26.5l55.5 -39l58 -41.5c19 -13.667 36.5 -26.834 52.5 -39.501s29 -24 39 -34h-1z" />
    <glyph glyph-name="uni09C7" unicode="&#x9c7;" horiz-adv-x="746" 
d="M813 1115l-58.9971 -0.000976562c-74 -0.666992 -141.833 -16.5 -203.5 -47.5s-114.834 -76.833 -159.501 -137.5s-79.5 -136.167 -104.5 -226.5s-37.5 -195.5 -37.5 -315.5c0.666992 -62 6.66699 -114 18 -156s25 -75.833 41 -101.5s32.833 -44.167 50.5 -55.5
s33.167 -17.333 46.5 -18c6.66699 -0.666992 16.667 -0.333984 30 0.999023s24.666 5.33301 33.999 12c-7.33301 2.66699 -14.333 7.33398 -21 14.001s-12.5 14.334 -17.5 23.001s-9.16699 17.667 -12.5 27s-5 18 -5 26c0 34 12 65 36 93h-1c24.667 26.667 58.667 40 102 40
c38.667 0 73.667 -13.333 105 -40c31.333 -27.333 47 -68.333 47 -123c0 -55.333 -20 -100.333 -60 -135c-39.333 -33.333 -89 -50 -149 -50c-56.667 0 -109.834 13.833 -159.501 41.5s-93 68 -130 121s-66.167 118 -87.5 195s-32 165.167 -32 264.5
c0 120 12.833 220.667 38.5 302s62.167 150 109.5 206l35 40h-273l-72.5 71.5l-73.5 72.5h818l-1 1z" />
    <glyph glyph-name="uni09C8" unicode="&#x9c8;" horiz-adv-x="747" 
d="M754 1115c-74 -0.666992 -141.829 -16.499 -203.496 -47.499s-114.834 -76.833 -159.501 -137.5s-79.5 -136.167 -104.5 -226.5s-37.5 -195.5 -37.5 -315.5c0.666992 -62 6.66699 -114 18 -156s25 -75.833 41 -101.5s32.833 -44.167 50.5 -55.5s33.167 -17.333 46.5 -18
c6.66699 -0.666992 16.667 -0.333984 30 0.999023s24.666 5.33301 33.999 12c-7.33301 2.66699 -14.333 7.33398 -21 14.001s-12.5 14.334 -17.5 23.001s-9.16699 17.667 -12.5 27s-5 18 -5 26c0 34 12 65 36 93h-1c24.667 26.667 58.667 40 102 40
c38.667 0 73.667 -13.333 105 -40c31.333 -27.333 47 -68.333 47 -123s-19.667 -99.667 -59 -135c-40.667 -33.333 -90.667 -50 -150 -50c-56.667 0 -109.834 13.833 -159.501 41.5s-93 68 -130 121s-66.167 118 -87.5 195s-32 165.167 -32 264.5
c0 120 12.833 220.667 38.5 302s62.167 150 109.5 206h-1c0.666992 0.666992 2 2.16699 4 4.5s3.33301 3.83301 4 4.5c10 12 19.333 22.333 28 31h-273l-72.5 71.5l-73.5 72.5h684c3.33301 9.33301 6.16602 19.333 8.49902 30s3.5 21 3.5 31c0 16.667 -5 30.167 -15 40.5
s-22.167 18.333 -36.5 24s-29.5 9.5 -45.5 11.5s-30 3 -42 3c-18.667 0 -37.5 -0.833008 -56.5 -2.5s-38.167 -3.83398 -57.5 -6.50098s-39 -5 -59 -7s-40.333 -3 -61 -3c-46 0 -89.333 4.66699 -130 14s-76.167 24.666 -106.5 45.999s-54.5 49.166 -72.5 83.499
s-27 76.166 -27 125.499c0 55.333 17.333 104 52 146c10 -5.33301 20.333 -11.166 31 -17.499s21 -12.166 31 -17.499c-5.33301 -4.66699 -11 -10.5 -17 -17.5s-11.667 -14.333 -17 -22s-9.66602 -15.5 -12.999 -23.5s-5 -15.333 -5 -22c0 -25.333 5.33301 -46 16 -62
s24.667 -28.5 42 -37.5s36.833 -15 58.5 -18s43.5 -4.5 65.5 -4.5c19.333 0 38.333 0.833008 57 2.5s37 3.83398 55 6.50098l53.5 6c17.667 2 35.5 3 53.5 3c52 0 97.167 -7 135.5 -21s70.666 -34.333 96.999 -61s47.5 -59.334 63.5 -98.001s27.667 -82.667 35 -132h36
l72.5 -72l72.5 -72h-56z" />
    <glyph glyph-name="uni09CB" unicode="&#x9cb;" horiz-adv-x="2110" 
d="M902 1115c-62.667 -0.666992 -122.495 -11.168 -179.495 -31.501s-109.833 -48.166 -158.5 -83.499s-92.667 -76.666 -132 -123.999s-73 -98 -101 -152s-49.5 -110.333 -64.5 -169s-22.5 -117 -22.5 -175c0 -16 1.5 -35.333 4.5 -58s7.66699 -46.334 14 -71.001
s14.166 -49 23.499 -73s20.666 -45.5 33.999 -64.5s28.666 -34.5 45.999 -46.5s36.666 -18 57.999 -18c22 0 42.667 3.66699 62 11c-13.333 14.667 -24.333 30.667 -33 48s-13 34.666 -13 51.999c0 19.333 3.66699 37.166 11 53.499s17.166 30.333 29.499 42
s26.833 20.834 43.5 27.501s34.334 10 53.001 10c22.667 0 43.334 -4.16699 62.001 -12.5s34.667 -19.666 48 -33.999s23.666 -31.5 30.999 -51.5s11 -41.667 11 -65c0 -56.667 -20.667 -102 -62 -136c-21.333 -15.333 -44.333 -27.333 -69 -36s-50.334 -13 -77.001 -13
c-35.333 0 -69 5 -101 15s-61.667 23.667 -89 41s-52.5 38 -75.5 62s-43.5 50 -61.5 78c-17.333 28.667 -32.5 59 -45.5 91s-24 64.667 -33 98s-15.833 66.5 -20.5 99.5s-7 64.5 -7 94.5c0 112.667 19.667 219.5 59 320.5s100.333 191.167 183 270.5h-360l1 -1l-74 72.5
l-74 72.5h937zM2048 1115c-17.333 0 -34.8311 3.50098 -52.498 10.501s-30.5 17.167 -38.5 30.5l-8 -8l15.5 -629.5l15.5 -628.5l-79.5 73.5l-78.5 73.5v750c0 42 -6 82.5 -18 121.5s-28.333 73.667 -49 104s-45 54.666 -73 72.999s-58.333 28.166 -91 29.499l-65.5 72
l-65.5 72c38 0 71.667 -0.5 101 -1.5s55.666 -4.5 78.999 -10.5s44.333 -15.5 63 -28.5s36 -31.167 52 -54.5s31.667 -52.833 47 -88.5s31.333 -79.5 48 -131.5l13 6c-4.66699 18 -8.5 38.167 -11.5 60.5s-5.5 46.5 -7.5 72.5c0 2 -0.166992 3.83301 -0.5 5.5
s-0.5 3.5 -0.5 5.5c-2 23.333 -3.83301 43.833 -5.5 61.5s-2.83398 34.167 -3.50098 49.5c0 48.667 -0.333008 97.667 -1 147s-1 98.333 -1 147l36 -32.5c12 -10.333 23.667 -21.166 35 -32.499c4 -68 17.333 -114 40 -138c22.667 -24.667 53 -37 91 -37h25l71.5 -72
l71.5 -72h-154z" />
    <glyph glyph-name="uni09CC" unicode="&#x9cc;" horiz-adv-x="2110" 
d="M902 1115c-62.667 -0.666992 -122.497 -11.168 -179.497 -31.501s-109.833 -48.166 -158.5 -83.499s-92.667 -76.666 -132 -123.999s-73 -98 -101 -152s-49.5 -110.333 -64.5 -169s-22.5 -117 -22.5 -175c0 -16 1.5 -35.333 4.5 -58s7.66699 -46.334 14 -71.001
s14.166 -49 23.499 -73s20.666 -45.5 33.999 -64.5s28.666 -34.5 45.999 -46.5s36.666 -18 57.999 -18c22 0 42.667 3.66699 62 11c-13.333 14.667 -24.333 30.667 -33 48s-13 34.666 -13 51.999c0 19.333 3.66699 37.166 11 53.499s17.166 30.333 29.499 42
s26.833 20.834 43.5 27.501s34.334 10 53.001 10c22.667 0 43.334 -4.16699 62.001 -12.5s34.667 -19.666 48 -33.999s23.666 -31.5 30.999 -51.5s11 -41.667 11 -65c0 -56.667 -21 -102 -63 -136c-21.333 -15.333 -44.166 -27.333 -68.499 -36s-49.833 -13 -76.5 -13
c-35.333 0 -69 5 -101 15s-61.667 23.667 -89 41s-52.5 38 -75.5 62s-43.5 50 -61.5 78c-17.333 28.667 -32.5 59 -45.5 91s-24 64.667 -33 98s-15.833 66.5 -20.5 99.5s-7 64.5 -7 94.5c0 112.667 19.667 219.5 59 320.5s100.333 191.167 183 270.5h-360l1 -1l-74 72.5
l-74 72.5h937zM1944 1115c4 -206 8.33203 -410.667 12.999 -614s9 -407.666 13 -612.999l-86 80.5l-85 80.5v1066h-153l-69 72l-69 72h306c13.333 15.333 21.666 28 24.999 38s5 20 5 30c0 32.667 -14 58.667 -42 78s-75.333 29 -142 29c-21.333 0 -50.5 -1 -87.5 -3
s-76.833 -4 -119.5 -6c-48 -2.66699 -95.333 -5 -142 -7s-85 -3 -115 -3c-158 0 -273.833 25 -347.5 75s-110.5 121.333 -110.5 214c0 31.333 5 59.833 15 85.5s24 48.167 42 67.5l30 -16.5l30 -16.5c-16 -14 -28.333 -29.667 -37 -47s-13 -32.333 -13 -45
c0 -44 17.667 -76.333 53 -97c36 -20.667 101.667 -31 197 -31c32 0 67.833 1.16699 107.5 3.5s79.834 5.16602 120.501 8.49902c39.333 3.33301 77 6.16602 113 8.49902s68 3.5 96 3.5c63.333 0 120.833 -7.16699 172.5 -21.5s95.834 -34.166 132.501 -59.499
c72 -54.667 122 -150.667 150 -288h131l71 -72l71 -72h-276z" />
    <glyph glyph-name="uni09CD" unicode="&#x9cd;" 
d="M-246 -214l-19.5 79.499l-19.5 79.5l202 -166l201 -166l18 -79.5c6 -26.333 11.667 -53.166 17 -80.499z" />
    <glyph glyph-name="uni09CE" unicode="&#x9ce;" horiz-adv-x="936" 
d="M983 -43c0 -18 -1.33105 -30.002 -3.99805 -36.002l-38 32l-38 32c2.66699 6 4 14 4 24v19c0 21.333 -4.83301 42.5 -14.5 63.5s-27.5 41.833 -53.5 62.5s-62 40.834 -108 60.501s-105.333 39.167 -178 58.5c-83.333 21.333 -156.666 49.666 -219.999 84.999
s-116.166 76.833 -158.499 124.5s-74.333 100.5 -96 158.5s-32.5 120.667 -32.5 188c0 58.667 9.5 113.667 28.5 165s46.167 95.666 81.5 132.999s77.666 66.833 126.999 88.5s104.666 32.5 165.999 32.5c49.333 0 92.5 -6.66699 129.5 -20s67.833 -32.5 92.5 -57.5
s43.167 -55.167 55.5 -90.5s18.5 -75 18.5 -119c0 -42.667 -6.5 -82.167 -19.5 -118.5s-30.5 -67.833 -52.5 -94.5s-47.333 -47.5 -76 -62.5s-59 -22.5 -91 -22.5c-43.333 0 -80.5 8.16699 -111.5 24.5s-56.5 37.666 -76.5 63.999s-34.833 55.833 -44.5 88.5
s-14.5 65.334 -14.5 98.001s4.33301 67.334 13 104.001c-40.667 -25.333 -71.667 -57.333 -93 -96c-21.333 -39.333 -32 -76.666 -32 -111.999c0 -32.667 6 -63 18 -91s32.667 -54.667 62 -80s68.666 -49.333 117.999 -72s111.333 -44.667 186 -66
c72 -23.333 136 -53.166 192 -89.499s103.167 -77.5 141.5 -123.5s67.666 -95.333 87.999 -148s30.5 -106.667 30.5 -162v-45zM647.002 951.998c0 16.667 -4.49805 32.499 -13.498 47.499s-22 28 -39 39s-37.833 19.833 -62.5 26.5s-52.334 10 -83.001 10
c-17.333 0 -35.833 -0.833008 -55.5 -2.5s-37.5 -4.16699 -53.5 -7.5c0 -22 4.83301 -44.333 14.5 -67s23.5 -43.167 41.5 -61.5s39.667 -33.333 65 -45s53.666 -17.5 84.999 -17.5c28.667 0 52.667 7.33301 72 22s29 33.334 29 56.001z" />
    <glyph glyph-name="uni09D7" unicode="&#x9d7;" horiz-adv-x="472" 
d="M289 1115l0.000976562 -1225l-159 147l21 1078h-160l-138 144h307c13.333 15.333 21.5 28.166 24.5 38.499s4.5 20.166 4.5 29.499c0 32.667 -14 58.667 -42 78s-75.333 29 -142 29c-20.667 0 -49.5 -1 -86.5 -3s-76.833 -4 -119.5 -6
c-24 -1.33301 -48.167 -2.5 -72.5 -3.5l-70 -3c-22.333 -1 -43.333 -1.83301 -63 -2.5s-36.834 -1 -51.501 -1c-79.333 0 -147.833 6.5 -205.5 19.5s-105.334 31.667 -143.001 56s-65.5 54.5 -83.5 90.5s-27 77 -27 123c0 62.667 19 113.667 57 153l30 -16.5l30 -16.5
c-16 -14 -28.333 -29.667 -37 -47s-13 -32.333 -13 -45c0 -43.333 17.667 -75.666 53 -96.999c34.667 -20.667 100.334 -31 197.001 -31c32.667 0 69 1.16699 109 3.5s80.333 5.16602 121 8.49902c38.667 3.33301 76 6.16602 112 8.49902s67.667 3.5 95 3.5
c130 0 232 -27 306 -81c72 -54 121.333 -150 148 -288h133l71 -72l71 -72h-277z" />
    <glyph glyph-name="uni09DC" unicode="&#x9dc;" horiz-adv-x="1195" 
d="M604 1115l-0.00390625 -392.997c0 -26.667 10.333 -40 31 -40c8 0 20.333 3.5 37 10.5s37 20.167 61 39.5s51.667 46.666 83 81.999s65.666 81 102.999 137c70.667 -50 124.167 -112.833 160.5 -188.5s54.5 -161.5 54.5 -257.5
c0 -62.667 -9.16699 -121.334 -27.5 -176.001s-45 -102.5 -80 -143.5s-78 -73.333 -129 -97s-109.5 -35.5 -175.5 -35.5c-51.333 0 -101.666 7.5 -150.999 22.5s-96.666 38.833 -141.999 71.5s-88 75.167 -128 127.5s-76.167 115.666 -108.5 189.999
s-60.5 160.5 -84.5 258.5s-42.333 209.333 -55 334l34.5 -26l35.5 -25c28 -126.667 60.167 -234.5 96.5 -323.5s77.833 -161.667 124.5 -218s98.834 -97.5 156.501 -123.5s122.167 -39 193.5 -39c50.667 0 97.334 9.33301 140.001 28s79.5 42.334 110.5 71.001
s55.167 60.167 72.5 94.5s26 66.833 26 97.5c0 44 -20 81.667 -60 113c-51.333 -74.667 -106.666 -129.334 -165.999 -164.001c-62.667 -37.333 -112.334 -56 -149.001 -56c-33.333 0 -61.333 8 -84 24c-21.333 13.333 -48.666 46 -81.999 98c-16 24 -28.333 53.333 -37 88
c-11.333 40 -17 73.333 -17 100v319h-473l-66.5 72l-66.5 72h1285l-1 1l74 -72.5l74 -72.5h-670zM861.996 -155.997c0 -19.333 -3.16699 -37 -9.5 -53s-15.166 -29.667 -26.499 -41s-24.666 -20.333 -39.999 -27s-32 -10 -50 -10s-34.5 3.33301 -49.5 10
s-28.167 15.667 -39.5 27s-20.166 25 -26.499 41s-9.5 33.667 -9.5 53c0 18 3.16699 34.5 9.5 49.5s15.166 28.167 26.499 39.5s24.5 20.166 39.5 26.499s31.5 9.5 49.5 9.5s34.667 -3.16699 50 -9.5s28.666 -15.166 39.999 -26.499s20.166 -24.5 26.499 -39.5
s9.5 -31.5 9.5 -49.5z" />
    </font>
</defs>
</svg>
