<?xml version="1.0" standalone="no"?>
<!DOCTYPE svg PUBLIC "-//W3C//DTD SVG 1.1//EN" "http://www.w3.org/Graphics/SVG/1.1/DTD/svg11.dtd" >
<svg>
<metadata>
Created by FontForge 20090914 at Tue Jan 31 10:50:23 2017
 By www-data
Copyright (c) 2017 by Prothom Alo @ 2017. All rights reserved.
</metadata>
<defs>
<font id="Kiron-Italic" horiz-adv-x="0" >
  <font-face 
    font-family="Kiron"
    font-weight="400"
    font-style="italic"
    font-stretch="normal"
    units-per-em="2048"
    panose-1="2 11 5 2 4 5 4 2 2 4"
    ascent="1638"
    descent="-410"
    x-height="740"
    cap-height="1121"
    bbox="-1245 -1572 2739 3992"
    underline-thickness="102"
    underline-position="-103"
    unicode-range="U+0020-U+25CC"
  />
<missing-glyph horiz-adv-x="702" 
 />
    <glyph glyph-name=".notdef" horiz-adv-x="702" 
 />
    <glyph glyph-name="space" unicode=" " horiz-adv-x="696" 
 />
    <glyph glyph-name="exclam" unicode="!" horiz-adv-x="700" 
d="M826 1131l-71.5 -223.5l-97.5 -313.5l-54 -207l-84 27c30 134 54 262.667 72 386c6 34 13.833 81.5 23.5 142.5l35.5 224.5c8.66699 44.667 26.667 82.667 54 114c27.333 33.333 55.333 50 84 50c48.667 0 69 -34.667 61 -104l-8.5 -44
c-3 -16 -7.83301 -33.333 -14.5 -52zM653 141c-8.66699 -34 -28.668 -63.667 -60.001 -89c-30.667 -24 -63.667 -36 -99 -36c-34 0 -60.667 12 -80 36c-18 25.333 -22.667 55 -14 89c8 33.333 27.667 63 59 89c32.667 26 65.667 39 99 39c34.667 0 61.334 -13 80.001 -39
c18 -26 23 -55.667 15 -89z" />
    <glyph glyph-name="quotedbl" unicode="&#x22;" horiz-adv-x="677" 
d="M606 594l46.999 388.001c1.33301 11.333 3.83301 24.666 7.5 39.999s4.5 24.333 2.5 27l3 12c1.33301 5.33301 1.33301 9 0 11c5.33301 20.667 12.166 37.5 20.499 50.5s17.5 23.5 27.5 31.5s20.333 13.333 31 16s21 4 31 4c22 0 36.833 -3.5 44.5 -10.5
s11.834 -15.167 12.501 -24.5s0.5 -19 -0.5 -29s0.166992 -17.667 3.5 -23c-12.667 -42 -26.167 -83.667 -40.5 -125l-44.5 -123l-46 -122c-15.333 -40.667 -29.666 -81.667 -42.999 -123h-56zM532.999 1034c-1.33301 -6 -3.66602 -13.501 -6.99902 -22.501
s-6 -15.167 -8 -18.5l1 2l-73.5 -201l-73.5 -200h-52l50 399c0 6 0.666992 14.667 2 26s2.66602 19.333 3.99902 24c8.66699 34.667 18.167 61 28.5 79s21 30.833 32 38.5s21 11.834 30 12.501s16.5 1 22.5 1c27.333 0 45.666 -8.16699 54.999 -24.5s9 -44.833 -1 -85.5
c-0.666992 -3.33301 -2.16699 -8.33301 -4.5 -15s-4.16602 -11.667 -5.49902 -15z" />
    <glyph glyph-name="numbersign" unicode="#" horiz-adv-x="1027" 
d="M1110 758h-198l-107 -271h190l-22 -86h-206l-159 -408h-93l160 408h-269l-165 -408h-92l163 408h-200l22 86h216l108 271h-206l22 86h219l154 381h92l-153 -381h268l153 381h92l-152 -381h185zM818 758h-268l-108 -271h271z" />
    <glyph glyph-name="dollar" unicode="$" horiz-adv-x="1016" 
d="M234 258c-0.666992 -37.333 1.50391 -70.1602 6.50391 -98.4932s12.167 -51.833 21.5 -70.5c30.667 -68 97.667 -103.333 201 -106l125 501c-44.667 30 -82.667 58.5 -114 85.5s-56 51.5 -74 73.5c-46.667 56.667 -60 125.667 -40 207
c7.33301 32.667 22.5 64.167 45.5 94.5s52.833 60.166 89.5 89.499c36.667 27.333 75.834 49 117.501 65s86.834 24.667 135.501 26l28 114h70l-28 -114c27.333 -1.33301 53.166 -3.83301 77.499 -7.5s49.5 -9.5 75.5 -17.5c24.667 -8.66699 45.667 -18.834 63 -30.501
s33.666 -25.834 48.999 -42.501l-51 -204h-38c4 38 2 72.167 -6 102.5s-21.333 54.833 -40 73.5c-18 21.333 -39.333 37.666 -64 48.999s-51.334 17.666 -80.001 18.999l-108 -433l70.5 -45c23 -15.333 44.167 -30.833 63.5 -46.5s36.666 -30.834 51.999 -45.501
s27.666 -28.334 36.999 -41.001c18.667 -28 30.334 -59.167 35.001 -93.5s2 -74.5 -8 -120.5c-8 -32 -23.333 -66 -46 -102c-14 -24.667 -30.833 -47.667 -50.5 -69s-43.5 -41.333 -71.5 -60l1 3c-20 -14 -41.333 -26 -64 -36s-45.334 -19 -68.001 -27
c-25.333 -8 -48.333 -14 -69 -18s-40.334 -6.66699 -59.001 -8l-40 -158h-70l40 158c-37.333 1.33301 -71.166 4 -101.499 8s-56.5 10 -78.5 18c-14 4.66699 -29.833 11.5 -47.5 20.5s-37.834 19.833 -60.501 32.5c-2.66699 2.66699 -6.16699 5.16699 -10.5 7.5
s-7.83301 4.5 -10.5 6.5l60 240h34zM660.004 30.0059c32.667 19.333 59.167 43.332 79.5 71.999s36.166 63 47.499 103c6.66699 28 7.83398 54.333 3.50098 79s-13.5 46.667 -27.5 66c-10 12.667 -24.333 26.667 -43 42s-42.667 33 -72 53l-115 -462
c26 5.33301 49.333 11.833 70 19.5s39.667 16.834 57 27.501zM732.004 1067c-26 -3.33301 -51.167 -10.167 -75.5 -20.5s-46.166 -23.166 -65.499 -38.499c-40.667 -32 -67.334 -73 -80.001 -123c-6 -23.333 -6.16699 -47 -0.5 -71s17.5 -47 35.5 -69
c8 -10.667 19.167 -22.334 33.5 -35.001s31.833 -26.667 52.5 -42z" />
    <glyph glyph-name="percent" unicode="%" horiz-adv-x="1431" 
d="M1464 461c-25.333 -102 -70.332 -191.667 -134.999 -269c-74 -92 -159.333 -138 -256 -138c-72.667 0 -123 24.333 -151 73c-28 49.333 -33 111 -15 185c20.667 83.333 70 168.333 148 255c87.333 98 171.666 147 252.999 147c146.667 0 198.667 -84.333 156 -253z
M1520 1435l-1146 -1438h-88l1024 1288c-100.667 -38.667 -188 -58 -262 -58c-52.667 0 -101.334 11 -146.001 33c3.33301 -35.333 -1 -78 -13 -128c-22.667 -91.333 -67.334 -175 -134.001 -251c-76.667 -89.333 -157 -134 -241 -134c-74 0 -126 24.333 -156 73
c-31.333 48.667 -37.666 110 -18.999 184c25.333 102 79 192 161 270c88 83.333 181.667 125 281 125c2.66699 0 42.334 -20.667 119.001 -62c76 -40.667 148.667 -61 218 -61c100.667 0 213 53 337 159h65zM1416 467c30 120.667 5.00098 181 -74.999 181
c-62.667 0 -130.334 -57.667 -203.001 -173c-30 -47.333 -54.833 -92.5 -74.5 -135.5s-34.167 -83.833 -43.5 -122.5c-20 -78 1.33301 -117 64 -117c64.667 0 133.667 45.333 207 136c65.333 80.667 107 157.667 125 231zM860.002 1185
c9.33301 38.667 6.99902 73.333 -7.00098 104c-14 31.333 -39 47 -75 47c-63.333 0 -131.333 -57.333 -204 -172c-58.667 -92 -97.667 -177.667 -117 -257c-19.333 -77.333 2.33398 -116 65.001 -116c68 0 139.333 49.333 214 148c62.667 84 104 166 124 246z" />
    <glyph glyph-name="ampersand" unicode="&#x26;" horiz-adv-x="1327" 
d="M543 606c-1.33301 9.33301 -4.66602 24.833 -9.99902 46.5s-7 50.167 -5 85.5l2 56c2.66699 9.33301 4.33398 19 5.00098 29s2 19 4 27c10 40 26.333 77.833 49 113.5s49.5 67 80.5 94s65.5 48.5 103.5 64.5s77.667 24.667 119 26c36 0 68 -5.16699 96 -15.5
s50.833 -25.166 68.5 -44.499s29.5 -42.666 35.5 -69.999s4.66699 -58.333 -4 -93c-9.33301 -38.667 -26.5 -74 -51.5 -106s-54 -61 -87 -87s-68.333 -48.667 -106 -68s-74.167 -35.666 -109.5 -48.999c8 -34 15.333 -63 22 -87s13.167 -45.167 19.5 -63.5
s12.833 -35 19.5 -50s13.834 -30.167 21.501 -45.5s16.334 -31.833 26.001 -49.5s20.167 -38.834 31.5 -63.501c77.333 74 134.666 137.333 171.999 190s60 95 68 127c4 14.667 4.83301 26.167 2.5 34.5s-7.5 15 -15.5 20s-19 9.16699 -33 12.5l-51 12l12 47h397l-12 -47
c-24.667 -1.33301 -46.334 -4.5 -65.001 -9.5s-35.667 -12 -51 -21s-29.166 -19.667 -41.499 -32s-24.5 -26.5 -36.5 -42.5l-56 -72.5l-42.5 -53c-13 -15.667 -25.833 -30.167 -38.5 -43.5l-43 -44.5l-56 -56l-77 -77.5c4 -14 8.33301 -23.167 13 -27.5
s9 -9.16602 13 -14.499l1 3l51.5 -53c15.667 -15.333 31.167 -28.166 46.5 -38.499s31.333 -18.333 48 -24s35.667 -8.5 57 -8.5c15.333 0 28.833 0.666992 40.5 2s24 5 37 11s27.833 15.667 44.5 29s37.667 32 63 56l25 -28c-3.33301 -7.33301 -10 -17.5 -20 -30.5
s-21.833 -26.5 -35.5 -40.5s-27.5 -27.333 -41.5 -40s-26.333 -22.334 -37 -29.001l1 2c-26.667 -20.667 -55.834 -37.334 -87.501 -50.001s-67.5 -19 -107.5 -19c-26 0 -49.5 2.83301 -70.5 8.5s-41.333 15 -61 28s-39.667 30 -60 51s-42.833 47.167 -67.5 78.5
c-40 -30 -78.333 -55.5 -115 -76.5s-72.334 -38.167 -107.001 -51.5s-69.334 -23 -104.001 -29s-70.334 -9 -107.001 -9c-47.333 0 -88.666 6.33301 -123.999 19s-63.5 31.167 -84.5 55.5s-34.667 54 -41 89s-3.83301 75.167 7.5 120.5
c10.667 41.333 26.667 79.666 48 114.999s48.333 68.666 81 99.999s70.167 61 112.5 89s89.833 55.667 142.5 83zM566 32c26 10.667 51.332 22.668 75.999 36.001s50 28.666 76 45.999c-19.333 36 -35.833 69.5 -49.5 100.5l-33.5 76.5
c-8 19.333 -19.167 48.666 -33.5 87.999s-29.5 92.333 -45.5 159c-33.333 -17.333 -63.666 -35 -90.999 -53s-50 -34.667 -68 -50h2c-63.333 -55.333 -103.666 -118 -120.999 -188c-8 -33.333 -10 -64.666 -6 -93.999s13.167 -55 27.5 -77s33.666 -39.5 57.999 -52.5
s52.833 -19.5 85.5 -19.5c28.667 0 69.667 9.33301 123 28zM865.999 766.001c32 26 57.3369 52.167 76.0039 78.5s32 55.5 40 87.5c11.333 45.333 7.66602 81.166 -11.001 107.499s-48 39.5 -88 39.5c-42 0 -79.667 -13.667 -113 -41h3
c-12.667 -14 -24.834 -30.167 -36.501 -48.5s-20.167 -39.166 -25.5 -62.499c-8.66699 -34 -11.834 -72.667 -9.50098 -116s8.16602 -87 17.499 -131l88.5 49c25 14 44.5 26.333 58.5 37z" />
    <glyph glyph-name="quotesingle" unicode="'" horiz-adv-x="408" 
d="M540 1123c2.66699 -7.33301 3.33203 -17.333 1.99902 -30l-1 2c2.66699 -8 3.33398 -14.333 2.00098 -19c-5.33301 -16.667 -9.5 -29 -12.5 -37l-6.5 -17l-142 -402h-39l45 363c2 9.33301 3 18.833 3 28.5s1.66699 20.167 5 31.5l9 38c4.66699 18.667 14 34.5 28 47.5
s32.667 19.5 56 19.5c30 0 47 -8.33301 51 -25z" />
    <glyph glyph-name="parenleft" unicode="(" horiz-adv-x="791" 
d="M573 -476c-143.333 112 -243.334 259.666 -300.001 442.999c-54.667 185.333 -57 379.333 -7 582c98 392 368.667 716.667 812 974l5 -16c-311.333 -186 -521.666 -497.667 -630.999 -935c-58 -234 -81 -422.333 -69 -565c8 -90.667 29.5 -174.667 64.5 -252
s84.5 -148.666 148.5 -213.999z" />
    <glyph glyph-name="parenright" unicode=")" horiz-adv-x="791" 
d="M788 483c-98.667 -394.667 -369.334 -715.001 -812.001 -961.001l-3 21c314.667 193.333 525.334 504.333 632.001 933c59.333 237.333 83.333 427 72 569c-12 192.667 -83.667 345.667 -215 459l18 21c146.667 -83.333 248 -231.666 304 -444.999
c25.333 -100 38.5 -199.5 39.5 -298.5s-10.833 -198.5 -35.5 -298.5z" />
    <glyph glyph-name="asterisk" unicode="*" horiz-adv-x="1187" 
d="M1339 1230c-15.333 -62 -67.3359 -93.002 -156.003 -93.002c-42 0 -94.667 -10 -158 -30l-80.5 -27.5l-79.5 -28.5c76.667 -47.333 137 -78.333 181 -93l97 -19c39.333 -8 65.333 -23.333 78 -46c0.666992 -18 2.66699 -35.333 6 -52
c-27.333 -43.333 -61.333 -68.666 -102 -75.999c-40 12.667 -68 37.334 -84 74.001c-12.667 26.667 -31.334 56.667 -56.001 90l-124 116c3.33301 13.333 -1.33398 -2 -14.001 -46l-13 -51c-9.33301 -37.333 -14 -89 -14 -155c0.666992 -75.333 -1 -127 -5 -155l-28.5 -30
c-7 -7.33301 -12.5 -12.333 -16.5 -15c-14 -10.667 -34 -16 -60 -16c-44 0 -58 31 -42 93c4 16.667 33.667 73 89 169c8 13.333 19.833 37 35.5 71s35.167 79 58.5 135c-57.333 -30 -107.166 -58.833 -149.499 -86.5s-77.166 -54.167 -104.499 -79.5
c-74 -66.667 -128.667 -100 -164 -100c-24 0 -43.333 12.333 -58 37l-3 30c24 44.667 44 72 60 82s50.333 18.667 103 26c16 2.66699 32.333 5 49 7s34.334 4.33301 53.001 7c24.667 6 91.667 33 201 81c-38.667 26.667 -94.667 53.667 -168 81
c-89.333 32.667 -148 55.667 -176 69l-10 67c27.333 50.667 60.666 76 99.999 76c24 0 49 -15 75 -45c4.66699 -25.333 13.5 -49.5 26.5 -72.5s29.5 -44.167 49.5 -63.5c8.66699 -9.33301 22.667 -22.833 42 -40.5l74 -67.5l25 99c8.66699 34.667 10.334 88 5.00098 160
s-3.66602 125.667 5.00098 161c12 49.333 49 74 111 74c48.667 0 65.334 -31.667 50.001 -95c-4.66699 -16.667 -21.667 -46 -51 -88l-41 -59c-10.667 -16 -18 -28.333 -22 -37c-20 -42.667 -41 -107.667 -63 -195l-2 -9c127.333 48.667 244.666 122.667 351.999 222
c26.667 13.333 47 20 61 20c21.333 0 41 -12.667 59 -38c2.66699 -13.333 2.33398 -26 -0.999023 -38z" />
    <glyph glyph-name="plus" unicode="+" horiz-adv-x="1339" 
d="M1270 500h-419l-105 -423h-104l105 423h-419l26 103h419l104 418h104l-104 -418h419z" />
    <glyph glyph-name="comma" unicode="," horiz-adv-x="593" 
d="M457 -63c-14.667 -58 -59.668 -122.666 -135.001 -193.999c-35.333 -32 -69.333 -59.333 -102 -82s-66 -41.334 -100 -56.001l-6 25c45.333 17.333 95 52 149 104c56 54 89 100.333 99 139c7.33301 30 -2 49 -28 57c-45.333 -6 -71.666 -9 -78.999 -9
c-30 0 -54 10 -72 30c-17.333 20.667 -22.333 46 -15 76c22 88.667 76.667 133 164 133c54.667 0 93.667 -24 117 -72c19.333 -44 22 -94.333 8 -151z" />
    <glyph glyph-name="hyphen" unicode="-" horiz-adv-x="791" 
d="M816 547h-564l32 127h564z" />
    <glyph glyph-name="period" unicode="." horiz-adv-x="593" 
d="M435 32c-7.33301 -31.333 -28.001 -59.999 -62.001 -85.999c-34.667 -26 -67.667 -39 -99 -39c-32.667 0 -58 13 -76 39c-18 25.333 -23.333 54 -16 86c8.66699 33.333 28.334 62.666 59.001 87.999c31.333 26.667 63.333 40 96 40c35.333 0 63 -12 83 -36
c19.333 -24 24.333 -54.667 15 -92z" />
    <glyph glyph-name="slash" unicode="/" horiz-adv-x="660" 
d="M1088 1544l-1057 -1862h-122l1055 1862h124z" />
    <glyph glyph-name="zero" unicode="0" horiz-adv-x="1155" 
d="M788 105c26.667 46.667 52.1709 103.331 76.5039 169.998s48.5 145.667 72.5 237c35.333 140 54.666 253.667 57.999 341c-0.666992 73.333 -12.667 130 -36 170s-59 60 -107 60c-94.667 0 -180.334 -79 -257.001 -237c-22 -42.667 -42.333 -92.667 -61 -150
s-37 -121.666 -55 -192.999c-16.667 -66.667 -29.334 -127 -38.001 -181s-12.334 -100 -11.001 -138c0.666992 -144.667 50.667 -217 150 -217c41.333 -1.33301 79 9.83398 113 33.501s65.667 58.5 95 104.5zM1135 926.997c30.667 -112 27 -243.998 -11 -395.998
c-13.333 -58.667 -31.333 -115.334 -54 -170.001s-50 -108.334 -82 -161.001c-58.667 -98.667 -123.834 -171.834 -195.501 -219.501s-150.167 -71.5 -235.5 -71.5c-59.333 -1.33301 -109.833 11.334 -151.5 38.001s-74.5 67 -98.5 121c-24.667 56 -37.5 122 -38.5 198
s10.5 162 34.5 258c19.333 77.333 43.333 148 72 212s63.667 123.667 105 179c108 148.667 238.333 224 391 226c70.667 0 127.334 -17.5 170.001 -52.5s74 -88.833 94 -161.5z" />
    <glyph glyph-name="one" unicode="1" horiz-adv-x="960" 
d="M870 1139l-267.998 -1076c-5.33301 -21.333 -6.33301 -39.166 -3 -53.499s9 -23.833 17 -28.5c21.333 -12 65.666 -19 132.999 -21l-9 -35h-503l9 35c23.333 1.33301 47.333 4.66602 72 9.99902s49.667 12 75 20c10.667 5.33301 21.167 17.166 31.5 35.499
s18.5 39.5 24.5 63.5l202 810c5.33301 22 4.66602 40.667 -2.00098 56s-16.667 23.666 -30 24.999c-10.667 0 -27.5 -3 -50.5 -9s-53.833 -16.667 -92.5 -32l8 32l365 168h21z" />
    <glyph glyph-name="two" unicode="2" horiz-adv-x="1106" 
d="M132 -49l332.503 282.499c93.667 81.667 168.5 150.5 224.5 206.5c102 102.667 165.333 203.667 190 303c11.333 42 15.166 79.5 11.499 112.5s-13.834 60.833 -30.501 83.5c-17.333 20.667 -38 36.667 -62 48s-53 17 -87 17c-38 0 -75.333 -7.33301 -112 -22
s-70.334 -36 -101.001 -64c-14.667 -13.333 -31.5 -32.166 -50.5 -56.499s-39.833 -55.5 -62.5 -93.5l-45 7c32.667 70.667 67.5 129.667 104.5 177s75.833 85 116.5 113c42.667 26.667 84.167 46.5 124.5 59.5s81.5 19.5 123.5 19.5c50 0 92.667 -7.66699 128 -23
s65.333 -39.666 90 -72.999c24.667 -32.667 39.5 -67.834 44.5 -105.501s1.83301 -79.167 -9.5 -124.5c-12 -50 -31.833 -98.333 -59.5 -145s-63.167 -91.667 -106.5 -135l-202.5 -181.5c-90.333 -79 -203.833 -173.5 -340.5 -283.5h392c51.333 0 91.333 6 120 18
c12.667 8 28 20.5 46 37.5s36.667 37.833 56 62.5l30 -14l-164 -252h-707z" />
    <glyph glyph-name="three" unicode="3" horiz-adv-x="1033" 
d="M360 37c24 -17.333 45.8281 -30.1748 65.4951 -38.5078s38.167 -12.5 55.5 -12.5c39.333 0 75.833 7.83301 109.5 23.5s63.334 35.834 89.001 60.501s47.334 52.334 65.001 83.001s30.167 61 37.5 91c10.667 42.667 13 81.334 7 116.001s-19.833 64.167 -41.5 88.5
s-50.5 43 -86.5 56s-78.667 19.5 -128 19.5c-17.333 0 -28.666 -0.333008 -33.999 -1s-12 -2.66699 -20 -6l10 37c50.667 17.333 97 35.333 139 54s78.833 39.167 110.5 61.5s58 47.5 79 75.5s35.833 60 44.5 96c8 32.667 8.66699 60.834 2 84.501s-18 43.334 -34 59.001
s-35.167 27.334 -57.5 35.001s-45.166 11.5 -68.499 11.5c-30 0 -60.333 -6.16699 -91 -18.5s-62.334 -30.166 -95.001 -53.499v3c-11.333 -9.33301 -26.166 -24 -44.499 -44l-70.5 -79l-31 9c22.667 46 49.834 87.5 81.501 124.5s66.167 68.5 103.5 94.5
s76.833 46 118.5 60s84.167 21 127.5 21c46 0 84.833 -7.5 116.5 -22.5s56.5 -34.333 74.5 -58s29.5 -50.167 34.5 -79.5s3.83301 -58.333 -3.5 -87c-6 -24.667 -14.333 -47 -25 -67s-24.667 -39.5 -42 -58.5s-38.5 -38 -63.5 -57s-55.167 -39.5 -90.5 -61.5
c32 -14.667 59 -33 81 -55s39.167 -46.833 51.5 -74.5s19.333 -57.667 21 -90s-1.5 -65.5 -9.5 -99.5c-13.333 -53.333 -37.5 -105.666 -72.5 -156.999s-78.833 -97 -131.5 -137s-113.834 -72.167 -183.501 -96.5s-145.5 -36.5 -227.5 -36.5
c-38 0 -68.833 3.16699 -92.5 9.5s-41.667 14.5 -54 24.5s-20.166 21.333 -23.499 34s-3.33301 25.667 0 39c5.33301 20.667 15.333 37.167 30 49.5s32 18.5 52 18.5c16 0 33.5 -3.66699 52.5 -11s39.833 -20 62.5 -38z" />
    <glyph glyph-name="four" unicode="4" horiz-adv-x="1088" 
d="M841 936l-282.5 -293.5l-280.5 -292.5h417zM952 1139h88l-196 -789h184l-32 -127h-184l-74 -298h-149l74 298h-504l31 124z" />
    <glyph glyph-name="five" unicode="5" horiz-adv-x="1039" 
d="M358 37c24 -18.667 44.6699 -32.3379 62.0029 -41.0049s32.666 -13 45.999 -13c34.667 0 69.167 8.33301 103.5 25s66.166 39 95.499 67s54.833 60 76.5 96s37.167 73.667 46.5 113c13.333 52 14 99.833 2 143.5s-34.167 81.834 -66.5 114.501s-74.5 59.167 -126.5 79.5
s-111.667 33.5 -179 39.5h-19c-11.333 0 -21.166 1.16699 -29.499 3.5s-11.166 8.16602 -8.49902 17.499c0.666992 2.66699 2.16699 5.33398 4.5 8.00098s3.83301 6.33398 4.5 11.001l296 420h382c16 0 31 3.83301 45 11.5s30.333 19.167 49 34.5l12 -16l-108 -166
c-4 -4.66699 -9.66699 -8.16699 -17 -10.5s-15 -3.5 -23 -3.5h-354c-16.667 -23.333 -35 -47.666 -55 -72.999s-38.333 -49.666 -55 -72.999c1.33301 0 2.16602 -0.333008 2.49902 -1s1.16602 -1 2.49902 -1s2.5 0.333008 3.5 1s2.16699 1 3.5 1
c44.667 -10 82.5 -18.167 113.5 -24.5s54.167 -13.166 69.5 -20.499c92 -38.667 155 -94.167 189 -166.5s41 -155.5 21 -249.5c-15.333 -62.667 -42.333 -121.667 -81 -177s-85 -103.833 -139 -145.5s-114 -74.5 -180 -98.5s-134.667 -36 -206 -36
c-154.667 0 -222 39.333 -202 118c4.66699 20.667 17.167 37.667 37.5 51s41.5 20 63.5 20c18.667 0 37.167 -4.83301 55.5 -14.5s39.166 -24.5 62.499 -44.5z" />
    <glyph glyph-name="six" unicode="6" horiz-adv-x="1027" 
d="M812 37c-90 -86.667 -191.664 -129.993 -304.997 -129.993c-52 0 -98.667 12.167 -140 36.5s-77 60.833 -107 109.5h2c-63.333 97.333 -75 226.333 -35 387c26 103.333 71.667 200.666 137 291.999s146.666 172.666 243.999 243.999c85.333 58.667 174.5 104 267.5 136
s186.167 48 279.5 48l-5 -37c-77.333 -12 -145.333 -30.667 -204 -56c-34 -14.667 -64.333 -29.334 -91 -44.001s-51.667 -31.334 -75 -50.001c-21.333 -17.333 -45.666 -39.833 -72.999 -67.5s-55.666 -58.5 -84.999 -92.5c-24 -30.667 -45.833 -61.167 -65.5 -91.5
s-36.834 -59.5 -51.501 -87.5c16 9.33301 32.833 17.666 50.5 24.999s32.167 12.666 43.5 15.999c23.333 8.66699 48.166 15.667 74.499 21s51.5 8.66602 75.5 9.99902c48 0 89 -8.5 123 -25.5s63 -41.833 87 -74.5c23.333 -34 37.666 -73.5 42.999 -118.5
s0.666016 -97.833 -14.001 -158.5c-14.667 -56.667 -36.5 -108.5 -65.5 -155.5s-65.833 -92.5 -110.5 -136.5zM815.003 466.007c-7.33301 49.333 -24.667 86.167 -52 110.5s-65.666 36.5 -114.999 36.5c-43.333 1.33301 -81.5 -5 -114.5 -19s-59.5 -33.667 -79.5 -59
c-28 -36 -50.333 -87.667 -67 -155c-10.667 -44.667 -16.167 -91 -16.5 -139s3.16699 -94 10.5 -138c9.33301 -44 26.166 -77.333 50.499 -100s58.833 -34 103.5 -34c34.667 0 66.167 7.5 94.5 22.5s52.833 36.5 73.5 64.5c22.667 29.333 42.5 60.833 59.5 94.5
s30.167 70.167 39.5 109.5c18.667 74 23 142.667 13 206z" />
    <glyph glyph-name="seven" unicode="7" horiz-adv-x="1033" 
d="M1181 1121l-8.99609 -35.001l-676 -1177h-125l621 1071h-376c-24.667 0 -48.334 -3 -71.001 -9s-41.667 -13 -57 -21c-10.667 -7.33301 -26.834 -20.666 -48.501 -39.999s-46.167 -45.333 -73.5 -78l-37 18l44 64l37 55l25.5 38.5
c6.33301 9.66699 9.83301 15.167 10.5 16.5c1.33301 2.66699 4.16602 7.66699 8.49902 15s9.66602 15.833 15.999 25.5l19 29.5l17.5 27h674z" />
    <glyph glyph-name="eight" unicode="8" horiz-adv-x="990" 
d="M684 18c41.333 34.667 69.002 80.666 83.002 137.999c9.33301 32 12.333 60.5 9 85.5s-11.333 47.167 -24 66.5c-10.667 17.333 -31.334 41 -62.001 71s-69.334 64.333 -116.001 103c-26 -14 -50.833 -31 -74.5 -51s-43.5 -41.667 -59.5 -65
c-34 -50 -56.667 -98.333 -68 -145c-10 -40 -13.833 -75.167 -11.5 -105.5s10.5 -58.166 24.5 -83.499h-3c17.333 -22 37 -38.667 59 -50s49 -17 81 -17c65.333 0 119.333 17.667 162 53zM834.002 728.999c22.667 22 41.834 46.332 57.501 72.999s27.5 56 35.5 88
c14 54.667 9.33301 100.334 -14 137.001c-12 19.333 -29.333 33.666 -52 42.999s-52 14.666 -88 15.999c-52.667 0 -100.334 -16.667 -143.001 -50c-42.667 -34 -70 -75 -82 -123c-12.667 -51.333 -4.66699 -101 24 -149h-2c16 -21.333 34.333 -42.666 55 -63.999
s46 -42.666 76 -63.999c31.333 18.667 58.333 36 81 52s40.667 29.667 54 41h-2zM412.002 672.998c-29.333 55.333 -35.3311 117.669 -17.998 187.002c10.667 42 27.667 79.167 51 111.5s55.666 62.833 96.999 91.5c39.333 26.667 81.166 46.5 125.499 59.5
s93.166 20.167 146.499 21.5c46 0 86.5 -6.83301 121.5 -20.5s63.833 -33.167 86.5 -58.5c20.667 -28.667 34.5 -57.334 41.5 -86.001s6.16699 -60 -2.5 -94s-23.834 -66.833 -45.501 -98.5s-50.5 -60.834 -86.5 -87.501c-20.667 -15.333 -46 -31.666 -76 -48.999
s-64 -36 -102 -56c38 -35.333 69.833 -69 95.5 -101s46.834 -62 63.501 -90c14.667 -26.667 23.334 -56.667 26.001 -90s-0.333008 -68 -9 -104c-10.667 -40.667 -29.5 -79.834 -56.5 -117.501s-58.5 -69.834 -94.5 -96.501c-38.667 -28 -81.667 -49.667 -129 -65
s-97 -23 -149 -23c-46.667 -1.33301 -89 4 -127 16s-72.667 32 -104 60c-54 55.333 -70 127 -48 215c19.333 77.333 59.333 144 120 200c20 18.667 45.333 38.334 76 59.001s69 43.667 115 69c-29.333 30.667 -54 58.5 -74 83.5s-34.667 46.167 -44 63.5z" />
    <glyph glyph-name="nine" unicode="9" horiz-adv-x="1100" 
d="M1067 985c43.333 -100.667 48.999 -215.33 16.999 -343.997c-23.333 -94.667 -58.833 -184 -106.5 -268s-109 -159.333 -184 -226s-164.167 -122.834 -267.5 -168.501s-222.333 -77.167 -357 -94.5l1 41c3.33301 2.66699 6.83301 4.16699 10.5 4.5s6.5 0.5 8.5 0.5
c81.333 20 155.5 47 222.5 81s127.667 73.333 182 118s102 93.667 143 147s75.833 109.666 104.5 168.999c-18 -14.667 -38.833 -28 -62.5 -40s-48 -22.333 -73 -31s-50.333 -15.334 -76 -20.001s-49.167 -7 -70.5 -7c-49.333 0 -91.666 9.33301 -126.999 28
s-63.5 44.167 -84.5 76.5s-33.833 70.5 -38.5 114.5s-0.666992 91.333 12 142c16.667 66 41.167 125.833 73.5 179.5s70 99.5 113 137.5s89.833 67.333 140.5 88s102.667 31 156 31c66 0 120.333 -13 163 -39s76 -66 100 -120zM779.999 468.004
c24 11.333 42.8291 22.333 56.4961 33s24.334 22.167 32.001 34.5s13.5 26 17.5 41l14 54.5l12 47c13.333 56 21.166 108.5 23.499 157.5s-1.66699 91.833 -12 128.5s-27.666 65.667 -51.999 87s-56.5 32 -96.5 32c-27.333 0 -54.166 -6.83301 -80.499 -20.5
s-51 -33.5 -74 -59.5s-43.833 -58 -62.5 -96s-34 -81.333 -46 -130c-9.33301 -37.333 -15.666 -76 -18.999 -116s-0.666016 -76.833 8.00098 -110.5s24.667 -61.334 48 -83.001s57.333 -32.5 102 -32.5c18.667 0 38.5 2.83301 59.5 8.5s44.167 13.834 69.5 24.501z" />
    <glyph glyph-name="colon" unicode=":" horiz-adv-x="1090" 
d="M1131 884c-8 -32.667 -28.999 -61.667 -62.999 -87c-32.667 -24.667 -64.667 -37 -96 -37c-32.667 0 -58.667 12.333 -78 37c-18.667 26.667 -24 55.667 -16 87s28 60.333 60 87c32 26 64 39 96 39c18 0 34.167 -3.16699 48.5 -9.5s25.666 -15 33.999 -26
s14 -24.333 17 -40s2.16699 -32.5 -2.5 -50.5zM918.001 32c-7.33301 -32 -27.998 -60.668 -61.998 -86.001c-34 -26 -66.333 -39 -97 -39c-32 0 -57.667 13 -77 39c-18.667 26.667 -24.334 55.334 -17.001 86.001c8 32 28 61.333 60 88c32.667 26.667 65 40 97 40
c18 0 34.167 -3.16699 48.5 -9.5s25.666 -15.166 33.999 -26.499s13.833 -24.833 16.5 -40.5s1.66699 -32.834 -3 -51.501z" />
    <glyph glyph-name="semicolon" unicode=";" horiz-adv-x="660" 
d="M644 891c-8 -31.333 -28.335 -61.334 -61.002 -90.001c-32.667 -27.333 -64.667 -41 -96 -41c-34.667 0 -61.667 13 -81 39c-18.667 27.333 -23.667 58 -15 92c8 32 28.333 60.333 61 85s65.334 37 98.001 37c32 0 57.667 -12.333 77 -37
c18.667 -25.333 24.334 -53.666 17.001 -84.999zM456.998 -63.001c-14.667 -58 -59.667 -122.666 -135 -193.999c-35.333 -32 -69.333 -59.333 -102 -82s-66 -41.334 -100 -56.001l-6 25c155.333 103.333 241.333 188.333 258 255c8 31.333 -5 47 -39 47
c-3.33301 0 -8.33301 -0.5 -15 -1.5s-15 -2.16699 -25 -3.5c-18 -4 -30.667 -6 -38 -6c-30 0 -54 10 -72 30c-17.333 20.667 -22.333 46 -15 76c22 88.667 76.667 133 164 133c54.667 0 93.667 -24 117 -72c19.333 -44 22 -94.333 8 -151z" />
    <glyph glyph-name="less" unicode="&#x3c;" horiz-adv-x="1083" 
d="M1017 70l-843 436l23 92l1061 437l-25 -97l-927 -385l735 -386z" />
    <glyph glyph-name="equal" unicode="=" horiz-adv-x="1116" 
d="M1197 686h-942l25 103h942zM1104 316h-942l26 103h942z" />
    <glyph glyph-name="greater" unicode="&#x3e;" horiz-adv-x="1138" 
d="M1186 506l-1061 -436l24 97l925 386l-733 385l25 97l843 -437z" />
    <glyph glyph-name="question" unicode="?" horiz-adv-x="886" 
d="M1047 863c-17.333 -68.667 -61.335 -136.999 -132.002 -204.999c-34.667 -34 -101.667 -87.667 -201 -161c-86.667 -64.667 -134.667 -116 -144 -154c-2.66699 -10 -1 -34 5 -72l-28 -29c-88 42 -122.333 102 -103 180c10 42 39 82.667 87 122l90 61.5l126 87.5
c76.667 53.333 126 123.666 148 210.999c8.66699 35.333 3 66.333 -17 93c-22 27.333 -49.667 41 -83 41c-36 0 -71.667 -16.667 -107 -50c26.667 -25.333 35.667 -55.333 27 -90c-7.33301 -31.333 -26.333 -59.333 -57 -84c-29.333 -25.333 -60.666 -38 -93.999 -38
c-47.333 0 -79 17.333 -95 52c-15.333 34.667 -14.666 75.667 2.00098 123c24 73.333 72 130 144 170c62 34.667 132.333 52 211 52c90 1.33301 155 -28 195 -88c41.333 -60 50 -134 26 -222zM567.998 16.001c-7.33301 -30 -25.335 -56.668 -54.002 -80.001
c-29.333 -23.333 -58.666 -35 -87.999 -35c-36.667 0 -65.334 12 -86.001 36c-20 24 -25.667 54 -17 90c4 16.667 10.833 32.167 20.5 46.5s21.334 26.833 35.001 37.5s28.334 18.834 44.001 24.501s32.167 8.5 49.5 8.5c34.667 0 61.667 -12.667 81 -38
c18.667 -25.333 23.667 -55.333 15 -90z" />
    <glyph glyph-name="at" unicode="@" horiz-adv-x="1424" 
d="M656 279c14 -20 37.335 -30.0029 70.002 -30.0029c23.333 0 47 8.5 71 25.5s47.667 38.833 71 65.5s45.666 56 66.999 88s40.333 63.333 57 94s30.5 58.334 41.5 83.001s17.833 42.667 20.5 54c6 24.667 4.33301 46.334 -5 65.001s-30.333 28 -63 28
c-20.667 0 -42.334 -6.16699 -65.001 -18.5s-45.334 -28.666 -68.001 -48.999s-44.667 -43.833 -66 -70.5s-41.166 -54.167 -59.499 -82.5s-34 -56.666 -47 -84.999s-22.5 -54.5 -28.5 -78.5c-4.66699 -18.667 -6.66699 -35.834 -6 -51.501s4 -28.167 10 -37.5z
M272.002 67.9971c-104.667 114 -136.67 252.004 -96.0029 414.004c46 184.667 158.667 341.334 338 470.001l-1 -2c177.333 132 368 198 572 198c80 0 151.833 -12.333 215.5 -37s116.334 -59 158.001 -103s70.167 -96.333 85.5 -157s14 -127 -4 -199
c-10 -39.333 -24.5 -78.5 -43.5 -117.5s-41.167 -76 -66.5 -111s-53 -67.5 -83 -97.5s-61.5 -56.167 -94.5 -78.5s-66.167 -39.666 -99.5 -51.999s-66 -18.5 -98 -18.5c-46 0 -81.833 10.167 -107.5 30.5s-36.834 52.833 -33.501 97.5
c-12.667 -16 -27.834 -31.667 -45.501 -47s-36.5 -29 -56.5 -41s-41 -21.667 -63 -29s-44 -11 -66 -11c-32 0 -61 5.83301 -87 17.5s-47.167 28.167 -63.5 49.5s-27.166 47.5 -32.499 78.5s-3.66602 66.167 5.00098 105.5c7.33301 30 19.833 60.833 37.5 92.5
s38.667 62.5 63 92.5s51.333 58.167 81 84.5s60.834 49.333 93.501 69s65.667 35.167 99 46.5s66 17 98 17c18.667 0 36.167 -2.66699 52.5 -8s30.833 -12.5 43.5 -21.5s22.667 -19.5 30 -31.5s11.666 -24.667 12.999 -38c6.66699 13.333 13.834 26.5 21.501 39.5
s14.834 25.833 21.501 38.5h155l-65.5 -114l-65.5 -115c-44 -78 -76.167 -137.333 -96.5 -178s-32.166 -66.667 -35.499 -78c-2 -10 -1.83301 -19.5 0.5 -28.5s6.33301 -16.667 12 -23s12.5 -11.5 20.5 -15.5s16 -6 24 -6c27.333 0 58.833 10.667 94.5 32
s70.667 50.166 105 86.499s65.833 78.666 94.5 126.999s50 99.5 64 153.5c17.333 70 17.5 131.167 0.5 183.5s-45 96 -84 131s-85.667 61.167 -140 78.5s-110.5 26 -168.5 26c-53.333 0 -107.666 -7.16699 -162.999 -21.5s-109.166 -34.333 -161.499 -60
s-102.333 -56.334 -150 -92.001s-91 -75.167 -130 -118.5s-72.5 -89.833 -100.5 -139.5s-48.667 -100.834 -62 -153.501c-18.667 -76 -21.834 -145.5 -9.50098 -208.5s38.166 -117 77.499 -162s90.833 -79.833 154.5 -104.5s137.167 -37 220.5 -37
c34.667 0 72.167 3.16699 112.5 9.5s81.666 15.666 123.999 27.999s84.333 27.666 126 45.999s81.167 39.5 118.5 63.5l22 -60c-50 -27.333 -97.333 -51 -142 -71s-89 -36.5 -133 -49.5s-88.167 -22.667 -132.5 -29s-90.833 -9.5 -139.5 -9.5c-186 0 -330.667 56 -434 168z
" />
    <glyph glyph-name="A" unicode="A" horiz-adv-x="1248" 
d="M-16 -75l9.99902 42.001c23.333 1.33301 44.166 5.83301 62.499 13.5s37.833 22 58.5 43s44.667 50.333 72 88l103 148.5l296.5 442l296.5 442h45l192 -1020c7.33301 -34 13.833 -61.833 19.5 -83.5s11.5 -36.167 17.5 -43.5l1 3
c7.33301 -7.33301 17.666 -13.833 30.999 -19.5s31 -10.167 53 -13.5l-10 -42h-466l10 40c19.333 2.66699 36.833 4.66699 52.5 6s29.5 3.83301 41.5 7.5s22 9 30 16s13.667 17.833 17 32.5c2.66699 10.667 3.83398 21.667 3.50098 33s-1.33301 22.166 -3 32.499
s-3 19.833 -4 28.5s-0.833008 15.667 0.5 21l-19 85c-6.66699 30 -12 59.333 -16 88h-459c-2 -2.66699 -4.16699 -6.16699 -6.5 -10.5s-4.83301 -8.16602 -7.5 -11.499l-61.5 -94l-41 -63c-11 -16.667 -19.333 -29.834 -25 -39.501s-10.167 -17.667 -13.5 -24
s-5.66602 -11.833 -6.99902 -16.5l-3 -15c-4 -16 -3.16699 -29 2.5 -39s14.334 -17.5 26.001 -22.5s24.167 -8.33301 37.5 -10s26 -2.5 38 -2.5l-10 -42h-365zM873.999 396.001c-15.333 80.667 -29.333 160.332 -42 238.999s-26.667 158.334 -42 239.001l-157 -239.5
l-157 -238.5h398z" />
    <glyph glyph-name="B" unicode="B" horiz-adv-x="1097" 
d="M389 70c-3.33301 -13.333 -4.16992 -25.167 -2.50293 -35.5s5.83398 -17.166 12.501 -20.499h-2c20.667 -5.33301 40.834 -9 60.501 -11s38.834 -3 57.501 -3c43.333 0 85 6.5 125 19.5s78.667 31.5 116 55.5c35.333 24.667 65.166 52 89.499 82s41.5 62 51.5 96
c8.66699 36 9.33398 68.667 2.00098 98s-22 56.666 -44 81.999c-45.333 51.333 -109.333 77 -192 77h-164zM-1.00391 -33.001c24.667 1.33301 48.502 4.83984 71.502 10.5068s48.5 13.167 76.5 22.5c12 18.667 24.333 39.167 37 61.5s21.334 43.166 26.001 62.499l199 798
c5.33301 20 7.5 40.5 6.5 61.5s-3.83301 40.833 -8.5 59.5c-19.333 10 -40.333 18.167 -63 24.5s-45.334 10.166 -68.001 11.499l10 42h508c66.667 0 128.667 -6.33301 186 -19s103.666 -29.334 138.999 -50.001c16.667 -10 31 -23.333 43 -40s21.167 -35.667 27.5 -57
s9.5 -44.5 9.5 -69.5s-3.33301 -50.5 -10 -76.5c-10 -39.333 -27.333 -76 -52 -110s-54 -62.667 -88 -86c-16 -11.333 -36.667 -21.833 -62 -31.5s-53 -18.834 -83 -27.501c64.667 -18.667 120.667 -50.334 168 -95.001c23.333 -23.333 38.333 -52.333 45 -87s5 -72 -5 -112
c-8 -32 -20.333 -62.833 -37 -92.5s-36.834 -57.334 -60.501 -83.001s-50 -48.667 -79 -69s-59.833 -36.5 -92.5 -48.5c-36.667 -12.667 -77.5 -22.834 -122.5 -30.501s-92.833 -11.5 -143.5 -11.5h-588zM838.998 620.006c36.667 15.333 69.5 39.499 98.5 72.499
s48.5 69.833 58.5 110.5c5.33301 22.667 7.5 44.667 6.5 66s-4.83301 41.333 -11.5 60s-16.167 35.334 -28.5 50.001s-26.5 26.667 -42.5 36c-21.333 9.33301 -49.666 16.666 -84.999 21.999s-77 8 -125 8c-11.333 0 -22.5 -0.666992 -33.5 -2
s-22.167 -3.66602 -33.5 -6.99902c-5.33301 -7.33301 -10.5 -15.5 -15.5 -24.5s-8.16699 -17.167 -9.5 -24.5l-100 -400c28.667 0 56.667 0.833008 84 2.5s55 2.5 83 2.5c26.667 0 53.667 2.33301 81 7s51.666 11.667 72.999 21z" />
    <glyph glyph-name="C" unicode="C" horiz-adv-x="1199" 
d="M1167 1114c51.333 -16.667 86.333 -26.002 105 -28.002c7.33301 0 15.333 1 24 3s16.667 5.66699 24 11c9.33301 4.66699 17.5 10.5 24.5 17.5s12.5 15.833 16.5 26.5h46l-83 -413h-52c-1.33301 40 -6.66602 76.333 -15.999 109s-19.333 61.667 -30 87
c-24.667 43.333 -58.834 76.833 -102.501 100.5s-95.167 35.5 -154.5 35.5c-127.333 0 -240.666 -49.333 -339.999 -148c-51.333 -48 -95.5 -106.167 -132.5 -174.5s-66.5 -146.166 -88.5 -233.499c-20 -78.667 -27.5 -149.834 -22.5 -213.501s22.833 -119.5 53.5 -167.5
c28.667 -46 66.167 -80.833 112.5 -104.5s101.166 -35.5 164.499 -35.5c88.667 0 179.667 22.333 273 67c27.333 12 55.5 27.833 84.5 47.5s60.833 42.834 95.5 69.501l27 -42c-27.333 -25.333 -56.5 -49.5 -87.5 -72.5s-63.5 -43.833 -97.5 -62.5
c-56.667 -32 -114.834 -56.333 -174.501 -73s-119.167 -25 -178.5 -25c-192.667 0 -331.667 62.333 -417 187c-39.333 58.667 -63.166 123.167 -71.499 193.5s-1.5 149.166 20.5 236.499c43.333 174.667 136 321.334 278 440.001c148.667 128 316.667 192 504 192
c32 0 63.333 -2.66699 94 -8s63.667 -12.666 99 -21.999h2z" />
    <glyph glyph-name="D" unicode="D" horiz-adv-x="1273" 
d="M378 16c5.33301 -4.66699 15.501 -8.16797 30.501 -10.501s33.5 -3.5 55.5 -3.5c68.667 0 133 6.5 193 19.5s116.333 33.833 169 62.5c160 86 265 230.333 315 433c22.667 90 28 169.167 16 237.5s-39.667 125.833 -83 172.5c-39.333 36 -89.5 64.667 -150.5 86
s-129.833 32 -206.5 32c-16.667 1.33301 -32.334 1 -47.001 -1s-27.334 -5.33301 -38.001 -10c-4.66699 -5.33301 -10.5 -12.666 -17.5 -21.999s-11.833 -20 -14.5 -32l-227 -910c-7.33301 -28 -5.66602 -46 5.00098 -54zM-0.999023 -33.001
c34.667 3.33301 63.498 8.16504 86.498 14.498s40.5 13.166 52.5 20.499c22 14.667 41.333 55.334 58 122.001l199 798c8.66699 32.667 13.167 59.334 13.5 80.001s-2.5 35 -8.5 43c-6 9.33301 -19.667 16.5 -41 21.5s-49 9.16699 -83 12.5l10 42h489
c83.333 0 157.5 -6.83301 222.5 -20.5s122.5 -33.5 172.5 -59.5c89.333 -48 149 -115.667 179 -203s29.333 -193.666 -2 -318.999c-11.333 -44 -27.666 -88.167 -48.999 -132.5s-44.666 -85.5 -69.999 -123.5c-29.333 -40.667 -61.833 -78.334 -97.5 -113.001
s-75.834 -66 -120.501 -94c-27.333 -18 -54.666 -33.5 -81.999 -46.5s-54.666 -24.167 -81.999 -33.5c-51.333 -17.333 -105.833 -30.166 -163.5 -38.499s-120.834 -12.5 -189.501 -12.5h-504z" />
    <glyph glyph-name="E" unicode="E" horiz-adv-x="1092" 
d="M-1 -33c33.333 3.33301 60.6631 7.00293 81.9961 11.0029s38.833 11.167 52.5 21.5s25 25.166 34 44.499s17.5 46 25.5 80l199 798c8.66699 33.333 13.667 59.5 15 78.5s-2.16699 33.833 -10.5 44.5s-22.166 18.167 -41.499 22.5s-45.666 8.16602 -78.999 11.499l10 42
h967l-66 -266h-54c4 40 4.5 72.333 1.5 97s-12.333 43.667 -28 57s-39 22.333 -70 27s-72.167 7 -123.5 7h-243c-14 0 -25 -1 -33 -3s-13.667 -4 -17 -6h2c-8 -8.66699 -14.667 -24.334 -20 -47.001l-99 -395h270c38.667 0 69.334 1.66699 92.001 5s41.667 11 57 23
s29.333 29.333 42 52s28 53.334 46 92.001h51l-106 -424h-51c0.666992 38 0.333984 68.333 -0.999023 91s-6.66602 40 -15.999 52s-24.333 19.833 -45 23.5s-50.334 5.5 -89.001 5.5h-270l-109 -437c-4.66699 -18 -7 -31.667 -7 -41s6.83301 -16.333 20.5 -21
s35.834 -7.33398 66.501 -8.00098s75 -1 133 -1c54.667 0 103.167 1.5 145.5 4.5s81.666 12 117.999 27s71.5 38.167 105.5 69.5s70.333 75.333 109 132h63l-164 -312h-975z" />
    <glyph glyph-name="F" unicode="F" horiz-adv-x="1004" 
d="M-1 -33c40.667 4.66699 72.333 9.50293 95 14.5029s40.167 13.333 52.5 25s21.666 28.167 27.999 49.5s14.166 50.666 23.499 87.999l194 778c8.66699 33.333 13.667 59.5 15 78.5s-2.16699 33.833 -10.5 44.5s-22.166 18.167 -41.499 22.5
s-45.666 8.16602 -78.999 11.499l10 42h969l-66 -266h-58c3.33301 43.333 2.66602 77.5 -2.00098 102.5s-15.334 43.833 -32.001 56.5s-39.834 20.667 -69.501 24s-67.834 5 -114.501 5h-245c-18 0 -32.167 -3.5 -42.5 -10.5s-18.166 -22.167 -23.499 -45.5l-99 -395h254
c38.667 0 69.334 1.66699 92.001 5s41.667 11 57 23s29.166 29.333 41.499 52s27.5 53.334 45.5 92.001h51l-106 -424h-51c1.33301 41.333 0.833008 73.5 -1.5 96.5s-8.66602 40.167 -18.999 51.5s-25.666 18.166 -45.999 20.499s-48.166 3.5 -83.499 3.5h-254l-97 -388
c-8 -32 -13.333 -57.667 -16 -77s-0.166992 -34.333 7.5 -45s22 -18.334 43 -23.001s50.833 -8.66699 89.5 -12l-10 -42h-511z" />
    <glyph glyph-name="G" unicode="G" horiz-adv-x="1289" 
d="M1170 1114c20.667 -7.33301 39.4961 -13.3281 56.4961 -17.9951s32.833 -8 47.5 -10c15.333 0 27 0.666992 35 2s15 4.33301 21 9c4 3.33301 9 8.66602 15 15.999s13.667 17.666 23 30.999h50l-85 -390h-52c-8 50.667 -16.833 92 -26.5 124s-20.5 56.667 -32.5 74
c-25.333 36 -58.666 63.5 -99.999 82.5s-90 28.5 -146 28.5c-58 0 -115 -11 -171 -33s-110.333 -54 -163 -96c-104 -81.333 -183.333 -224.333 -238 -429c-20.667 -83.333 -28.167 -156.666 -22.5 -219.999s25.167 -118 58.5 -164c63.333 -92 158 -138 284 -138
c8 0 17.833 0.166992 29.5 0.5s21.5 1.16602 29.5 2.49902c4.66699 0 8.33398 0.333008 11.001 1s4.66699 1 6 1c8.66699 1.33301 19.5 3.5 32.5 6.5s25.833 6.16699 38.5 9.5c2.66699 1.33301 5.33398 2.16602 8.00098 2.49902s5.66699 1.16602 9 2.49902
c26 9.33301 47 17.166 63 23.499s28.667 13.166 38 20.499c1.33301 1.33301 2.66602 4.66602 3.99902 9.99902l77 307c8.66699 36 13.5 64.333 14.5 85s-2.16699 35 -9.5 43l-1 -2c-7.33301 8 -21.166 14.167 -41.499 18.5s-46.833 8.16602 -79.5 11.499l10 43h466l-10 -43
c-24 -1.33301 -44 -4 -60 -8s-28.333 -8.33301 -37 -13c-13.333 -8 -25 -21 -35 -39s-18.667 -42 -26 -72l-88 -353c-3.33301 -11.333 -20.5 -24.5 -51.5 -39.5s-74.167 -31.167 -129.5 -48.5c-54.667 -17.333 -108.5 -30.5 -161.5 -39.5s-102.833 -13.5 -149.5 -13.5
c-85.333 0 -162.5 13.5 -231.5 40.5s-127.5 64.5 -175.5 112.5c-50.667 56.667 -83.667 123.5 -99 200.5s-11.333 163.167 12 258.5c42 168.667 130.333 312.334 265 431.001c77.333 66.667 158.333 116.834 243 150.501s176.334 50.5 275.001 50.5
c32.667 0 65.167 -2.66699 97.5 -8s65.5 -12.666 99.5 -21.999h3z" />
    <glyph glyph-name="H" unicode="H" horiz-adv-x="1243" 
d="M-1 -33c72.667 7.33301 119.668 18.998 141.001 34.998c10.667 10.667 21.334 28.334 32.001 53.001s20.334 54.334 29.001 89.001l194 778c16 63.333 17 104.333 3 123c-6 9.33301 -19.167 17 -39.5 23s-47.833 9.66699 -82.5 11l10 42h510l-10 -42
c-71.333 -3.33301 -118.333 -14.666 -141 -33.999c-23.333 -15.333 -43.333 -56.333 -60 -123l-85 -344h537l85 344c16 64 16.667 105 2 123c-6 9.33301 -19.167 17 -39.5 23s-47.5 9.66699 -81.5 11l10 42h508l-10 -42c-35.333 -3.33301 -64.833 -7.5 -88.5 -12.5
s-40.834 -12.167 -51.501 -21.5c-10.667 -8 -21.167 -22.5 -31.5 -43.5s-19.5 -47.5 -27.5 -79.5l-199 -798c-16.667 -66.667 -17.334 -108 -2.00098 -124v2c7.33301 -8 21 -15 41 -21s47 -10.667 81 -14l-10 -42h-508l10 42c38.667 3.33301 69.167 8 91.5 14
s38.166 13 47.499 21c24.667 21.333 46 68.666 64 141.999l86 345h-537l-91 -365c-8 -32.667 -12.333 -59.5 -13 -80.5s3.33301 -35.5 12 -43.5c5.33301 -8.66699 17.833 -15.5 37.5 -20.5s48.167 -9.16699 85.5 -12.5l-10 -42h-509z" />
    <glyph glyph-name="I" unicode="I" horiz-adv-x="547" 
d="M-3 -33c37.333 1.33301 68.8281 5 94.4951 11s44.834 13.333 57.501 22c10.667 7.33301 21.334 20.833 32.001 40.5s20.334 47.5 29.001 83.5l199 798c8 32 11.833 58.167 11.5 78.5s-4.16602 35.166 -11.499 44.499c-12.667 20 -57.667 31.333 -135 34l10 42h540
l-10 -42c-38 -1.33301 -69 -4.83301 -93 -10.5s-44 -14.167 -60 -25.5c-23.333 -14 -43.333 -54.333 -60 -121l-199 -798c-8 -32.667 -12.167 -59.667 -12.5 -81s3.5 -35.666 11.5 -42.999c8 -8.66699 22.833 -15.5 44.5 -20.5s51.834 -9.16699 90.501 -12.5l-10 -42h-539z
" />
    <glyph glyph-name="J" unicode="J" horiz-adv-x="668" 
d="M70 107c11.333 8.66699 22.1699 14.332 32.5029 16.999s21.166 4 32.499 4c21.333 0 38.666 -6.16699 51.999 -18.5s21.666 -32.833 24.999 -61.5c2.66699 -23.333 7.33398 -40.666 14.001 -51.999s14.667 -17 24 -17c21.333 0 37.666 9.33301 48.999 28
c14 18.667 27.333 53.667 40 105l202 810c17.333 67.333 18.666 109.333 3.99902 126c-7.33301 8.66699 -22.166 15.167 -44.499 19.5s-50.5 8.16602 -84.5 11.499l10 42h524l-10 -42c-38.667 -1.33301 -70 -5.16602 -94 -11.499s-41.667 -14.5 -53 -24.5
c-12 -9.33301 -23.167 -23.833 -33.5 -43.5s-19.5 -45.5 -27.5 -77.5l-164 -659c-14.667 -60 -34.667 -112 -60 -156s-57 -81.333 -95 -112c-76.667 -60.667 -156.334 -91 -239.001 -91c-59.333 0 -100.666 12.667 -123.999 38c-26 26.667 -35 56.667 -27 90
c4 15.333 9.83301 29 17.5 41s17.5 22.667 29.5 32v2z" />
    <glyph glyph-name="K" unicode="K" horiz-adv-x="1250" 
d="M-1 -33c42.667 3.33301 75.665 8.00684 98.998 14.0068s41.333 15.333 54 28s22.334 29.834 29.001 51.501s14 49.5 22 83.5l194 778c8.66699 34 13.834 60.5 15.501 79.5s-1.66602 33.667 -9.99902 44s-22.666 17.666 -42.999 21.999s-48.166 8.16602 -83.499 11.499
l10 42h519l-10 -42c-34.667 -1.33301 -63.334 -3.83301 -86.001 -7.5s-41.334 -11 -56.001 -22s-26.667 -26.5 -36 -46.5s-18.333 -47 -27 -81l-89 -358l248 177c69.333 51.333 126.833 95.666 172.5 132.999s80.167 68.166 103.5 92.499s36.666 43.5 39.999 57.5
c5.33301 22.667 -2 37.5 -22 44.5s-48 10.5 -84 10.5l10 42h477l-9 -38c-31.333 -1.33301 -58.833 -5.33301 -82.5 -12s-45.167 -14.334 -64.5 -23.001c-17.333 -7.33301 -39.333 -19.833 -66 -37.5s-56.334 -38.5 -89.001 -62.5l-105 -79.5l-112 -88.5l-110.5 -89
l-101.5 -81l151.5 -224.5l151.5 -224.5l52 -81c14.667 -22.667 30 -41.834 46 -57.501s34.5 -28.167 55.5 -37.5s48.167 -16 81.5 -20l-10 -40h-556l10 42c26.667 1.33301 48.334 2.66602 65.001 3.99902s29.834 3.5 39.501 6.5s16.834 7.16699 21.501 12.5s8 12.333 10 21
c1.33301 4 1.16602 10.333 -0.500977 19s-4.33398 18.167 -8.00098 28.5s-8 21.333 -13 33s-10.833 22.5 -17.5 32.5l-246 369l-34 -23.5l-33 -22.5l-81 -323c-9.33301 -38 -13.833 -67 -13.5 -87s5.5 -34.667 15.5 -44s25 -15.333 45 -18s45 -5.33398 75 -8.00098l-10 -42
h-514z" />
    <glyph glyph-name="L" unicode="L" horiz-adv-x="1083" 
d="M-1 -33c66.667 6.66699 112.332 18.3311 136.999 34.998c11.333 7.33301 21.666 21.333 30.999 42s18 47.334 26 80.001l199 798c16 64 18 104.333 6 121c-6.66699 10 -20.5 17.667 -41.5 23s-47.833 9.66602 -80.5 12.999l10 42h517l-10 -42
c-66.667 -2.66699 -115.334 -14 -146.001 -34c-11.333 -7.33301 -22 -20.166 -32 -38.499s-19 -42.5 -27 -72.5l-214 -859c-2 -8 -3.16699 -16.5 -3.5 -25.5s-0.166016 -16.5 0.500977 -22.5c2.66699 -3.33301 7.33398 -6.83301 14.001 -10.5s14.334 -6.16699 23.001 -7.5
c2 0 5 -0.333008 9 -1s8.33301 -1 13 -1c3.33301 -1.33301 6.5 -2.16602 9.5 -2.49902s5.5 -0.5 7.5 -0.5c68 0 126 0.833008 174 2.5s85.667 4.16699 113 7.5c26.667 3.33301 50.5 7.66602 71.5 12.999s39.833 11 56.5 17c30.667 13.333 63.5 36.333 98.5 69
s72.5 76.334 112.5 131.001h56l-167 -319h-973z" />
    <glyph glyph-name="M" unicode="M" horiz-adv-x="1545" 
d="M-1 -33c36.667 3.33301 68.167 8.99902 94.5 16.999s45.833 18 58.5 30c26.667 24.667 52 84.334 76 179.001l181 729c16.667 65.333 17.667 106.333 3 123c-5.33301 9.33301 -19.5 16.5 -42.5 21.5s-52.5 9.16699 -88.5 12.5l10 42h363l187 -895l615 895h367l-10 -42
c-36 -3.33301 -65.667 -7.66602 -89 -12.999s-40.666 -13 -51.999 -23c-10 -8 -19.833 -22 -29.5 -42s-18.834 -46.333 -27.501 -79l-199 -798c-8 -32 -12.333 -58.667 -13 -80s2.33301 -36 9 -44v2c14 -16 55 -27.667 123 -35l-10 -42h-512l10 42
c38.667 3.33301 70.167 7.66602 94.5 12.999s41.833 12.666 52.5 21.999h-3c11.333 10.667 22.5 28.334 33.5 53.001s20.833 54.334 29.5 89.001l196 783l-351.5 -501l-350.5 -501h-32l-204 960l-172 -692c-12.667 -48.667 -19.167 -88.834 -19.5 -120.501
s4.16699 -54.5 13.5 -68.5c6.66699 -8 19.167 -15 37.5 -21s44.833 -11.333 79.5 -16l-10 -42h-428z" />
    <glyph glyph-name="N" unicode="N" horiz-adv-x="1259" 
d="M-1 -33c38.667 3.33301 69.9971 8.16992 93.9971 14.5029s44.167 17.333 60.5 33s29.833 37.5 40.5 65.5s22 65.667 34 113l197 790c-2.66699 4.66699 -5.66699 9.16699 -9 13.5s-6.33301 8.83301 -9 13.5h3c-8.66699 13.333 -16.334 24.333 -23.001 33
s-14.667 15.667 -24 21s-20.666 9.16602 -33.999 11.499s-31 3.5 -53 3.5l10 42h314l470 -854l146 586c10.667 42.667 17.834 78.167 21.501 106.5s1.83398 51.166 -5.49902 68.499s-21.166 29.833 -41.499 37.5s-49.5 12.167 -87.5 13.5l10 42h428l-10 -42
c-38 -4.66699 -69 -10.334 -93 -17.001s-44 -17.667 -60 -33s-29.333 -36.833 -40 -64.5s-22 -64.834 -34 -111.501l-236 -949h-37l-545 972l-170 -683c-10.667 -42.667 -18 -77.334 -22 -104.001s-2.5 -48.167 4.5 -64.5s20.5 -28.666 40.5 -36.999
s49.333 -15.166 88 -20.499l-10 -42h-428z" />
    <glyph glyph-name="O" unicode="O" horiz-adv-x="1306" 
d="M413 107c48 -88.667 126.331 -133.001 234.998 -133.001c104 0 204.667 43 302 129h-2c96.667 90 168.334 229.333 215.001 418c24.667 98.667 36.834 183.667 36.501 255s-14.166 128 -41.499 170c-54.667 83.333 -133.334 126 -236.001 128
c-52 0 -103.167 -11.5 -153.5 -34.5s-99.5 -56.5 -147.5 -100.5c-96 -85.333 -168.333 -224.666 -217 -417.999c-22.667 -92 -33.5 -172.5 -32.5 -241.5s14.833 -126.5 41.5 -172.5zM491.998 984.999c69.333 54 141.168 94.332 215.501 120.999s152.166 40.667 233.499 42
c160.667 0 283.334 -54.333 368.001 -163c48 -58.667 77.167 -126 87.5 -202s3.16602 -163.333 -21.501 -262c-24 -96.667 -60.833 -183.667 -110.5 -261s-113.5 -145.333 -191.5 -204c-138 -104 -285.667 -156 -443 -156c-84.667 0 -158.667 14.333 -222 43
s-115 72 -155 130c-44 58.667 -70.833 125 -80.5 199s-3.16699 157 19.5 249c24.667 98.667 62.167 186.334 112.5 263.001s112.833 143.667 187.5 201z" />
    <glyph glyph-name="P" unicode="P" horiz-adv-x="997" 
d="M869 1013c-22 10.667 -48.501 18.666 -79.501 23.999s-65.167 8 -102.5 8c-12 0 -23 -1 -33 -3s-21.333 -4.66699 -34 -8l-14 -23c-4 -6.66699 -7 -13.667 -9 -21l-115 -464c12.667 -1.33301 24.5 -2.5 35.5 -3.5s18.167 -1.5 21.5 -1.5h28
c37.333 0 72.833 3.16699 106.5 9.5s65.834 14.833 96.501 25.5c42 19.333 79.833 50 113.5 92s57.167 89.667 70.5 143c6 24.667 8.5 48.334 7.5 71.001s-5.33301 43.667 -13 63s-18.167 36.5 -31.5 51.5s-29.333 27.167 -48 36.5zM-0.000976562 -33.001
c20.667 0 41.501 4.66699 62.501 14s40.5 22 58.5 38s33.833 34.667 47.5 56s23.5 44.333 29.5 69l194 778c6 22 7.16699 42.5 3.5 61.5s-10.667 35.667 -21 50s-23.833 25.5 -40.5 33.5s-35.334 12 -56.001 12l10 42h478c76.667 0 143 -7.5 199 -22.5
s99.333 -36.5 130 -64.5c32.667 -29.333 54.667 -64.5 66 -105.5s11 -85.167 -1 -132.5c-14.667 -58.667 -39.834 -111.667 -75.501 -159s-79.167 -85 -130.5 -113c-43.333 -23.333 -94.666 -41.5 -153.999 -54.5s-127 -21.167 -203 -24.5h-136l-80 -321
c-5.33301 -22.667 -5.83301 -43.5 -1.5 -62.5s12.5 -35.5 24.5 -49.5s27.333 -25 46 -33s39.667 -12 63 -12l-10 -42h-512z" />
    <glyph glyph-name="Q" unicode="Q" horiz-adv-x="1308" 
d="M494 985c70 52.667 142.165 92.999 216.498 120.999s151.833 42 232.5 42s153.167 -15 217.5 -45s116.5 -72.333 156.5 -127s66.167 -120.5 78.5 -197.5s6.5 -162.833 -17.5 -257.5c-20 -80.667 -49 -154.834 -87 -222.501s-83.667 -127.167 -137 -178.5
s-113.166 -94.166 -179.499 -128.499s-138.166 -58.833 -215.499 -73.5c19.333 -41.333 39.833 -76.833 61.5 -106.5s48.5 -55 80.5 -76s70.667 -38.5 116 -52.5s100.666 -26.333 165.999 -37l-9 -39h-77c-98 0 -179.5 6.66699 -244.5 20s-119.667 32.166 -164 56.499
s-82.166 53.833 -113.499 88.5s-63 73.334 -95 116.001l-27 35v-2c-3.33301 1.33301 -6.83301 2.83301 -10.5 4.5s-7.16699 3.16699 -10.5 4.5c-114 61.333 -190.833 140.333 -230.5 237s-42.167 214.667 -7.5 354c24.667 98.667 62.167 186.334 112.5 263.001
s112.833 143.667 187.5 201zM414.998 106.999c48 -88.667 126.331 -132.999 234.998 -132.999c104 0 204.667 43 302 129h-2c96.667 90 168.334 229.333 215.001 418c25.333 99.333 36.5 184 33.5 254s-16.333 127.167 -40 171.5s-56 76.666 -97 96.999
s-86.833 30.5 -137.5 30.5c-49.333 0 -99.5 -10.5 -150.5 -31.5s-99.667 -53.833 -146 -98.5s-88.666 -102 -126.999 -172s-69.833 -153.667 -94.5 -251c-22.667 -92 -33.5 -172.5 -32.5 -241.5s14.833 -126.5 41.5 -172.5z" />
    <glyph glyph-name="R" unicode="R" horiz-adv-x="1164" 
d="M768 590c102 34 166.665 104.998 193.998 212.998c19.333 78.667 9.66602 138.334 -29.001 179.001s-110.667 61 -216 61c-23.333 0 -42.166 -0.5 -56.499 -1.5s-25.666 -3.5 -33.999 -7.5s-14.666 -9.66699 -18.999 -17s-7.83301 -17.333 -10.5 -30l-110 -438
c66 3.33301 121.667 8.33301 167 15s83.333 15.334 114 26.001zM-1.00195 -33.002c72 7.33301 118.333 19.668 139 37.001h-2c22.667 22 42.667 68.667 60 140l194 778c8 32 12.667 58 14 78s-2 35.667 -10 47s-21.5 19.166 -40.5 23.499s-44.833 7.16602 -77.5 8.49902
l10 42h501c146.667 0 253.167 -26.833 319.5 -80.5s86.5 -132.834 60.5 -237.501c-11.333 -45.333 -29.333 -85.333 -54 -120s-54.5 -64.5 -89.5 -89.5s-73.833 -45.5 -116.5 -61.5s-87.667 -27.333 -135 -34l126.5 -223.5l126.5 -223.5
c15.333 -25.333 32.5 -45.666 51.5 -60.999s46.167 -23 81.5 -23l-10 -42h-296l-289 552c-14 0 -29.667 -0.666992 -47 -2s-33.333 -2 -48 -2l-87 -349c-7.33301 -31.333 -12.333 -56.333 -15 -75s-0.166992 -33.5 7.5 -44.5s22 -19.167 43 -24.5
s50.833 -9.66602 89.5 -12.999l-10 -42h-507z" />
    <glyph glyph-name="S" unicode="S" horiz-adv-x="928" 
d="M177 295c14 -109.333 44.165 -189.332 90.498 -239.999s112.166 -76 197.499 -76c28 0 55.667 4.16699 83 12.5s52.5 20.833 75.5 37.5s43.167 37.5 60.5 62.5s30 54.167 38 87.5c6.66699 27.333 10 50.833 10 70.5s-5.83301 39 -17.5 58s-30.167 39.333 -55.5 61
s-59.666 48.5 -102.999 80.5l-123.5 92.5c-35.667 27.667 -64.5 55.5 -86.5 83.5s-36.5 58 -43.5 90s-5.16699 69.333 5.5 112c10 40.667 27.5 80.334 52.5 119.001s55.5 73 91.5 103s77 54 123 72s95 27 147 27c14.667 0 32.167 -2.5 52.5 -7.5s41.166 -11 62.499 -18
l62.5 -20.5c20.333 -6.66699 38.5 -11.334 54.5 -14.001c20 0 35 4 45 12h-3c6 5.33301 11.833 11.833 17.5 19.5s10.834 17.167 15.501 28.5h46l-61 -394h-51c0.666992 60 -6.33301 110 -21 150s-34 71.833 -58 95.5s-51 40.5 -81 50.5s-59.333 15 -88 15
c-22 0 -44.667 -3.5 -68 -10.5s-45.166 -17.333 -65.499 -31s-38.166 -30.334 -53.499 -50.001s-26.333 -42.167 -33 -67.5c-6 -25.333 -8 -47.5 -6 -66.5s7.66699 -36.667 17 -53s22.833 -32.333 40.5 -48s39.167 -32.834 64.5 -51.501l172.5 -131.5
c46.333 -35.667 82 -69.334 107 -101.001s40.167 -64.334 45.5 -98.001s2 -74.167 -10 -121.5c-11.333 -46 -31.666 -89.167 -60.999 -129.5s-64.833 -75.666 -106.5 -105.999s-88 -54.166 -139 -71.499s-104.167 -26 -159.5 -26c-18.667 0 -35.834 1.16699 -51.501 3.5
s-31.167 5.33301 -46.5 9s-30.833 7.83398 -46.5 12.501l-51.5 15l-18 7c-12.667 5.33301 -23.167 9.33301 -31.5 12s-13.833 4 -16.5 4c-18.667 0 -32.5 -5.33301 -41.5 -16s-17.167 -25.667 -24.5 -45h-49l43 391h51z" />
    <glyph glyph-name="T" unicode="T" horiz-adv-x="1097" 
d="M318 1121l1023 0.00292969l-70 -316h-51c2 50 0.5 90.333 -4.5 121s-14.167 52.667 -27.5 66c-13.333 15.333 -35.666 26.833 -66.999 34.5s-73 11.5 -125 11.5h-92l-228 -914c-8 -32.667 -12 -59.667 -12 -81s4 -35.666 12 -42.999
c6.66699 -8.66699 21.167 -15.5 43.5 -20.5s52.833 -9.16699 91.5 -12.5l-10 -42h-534l10 42c40 3.33301 73.167 7.66602 99.5 12.999s44.5 12.666 54.5 21.999c22 19.333 42.333 66.666 61 141.999l223 894h-96c-46.667 0 -87.834 -3.83301 -123.501 -11.5
s-64.834 -18.5 -87.501 -32.5c-18.667 -12.667 -38.5 -34.334 -59.5 -65.001s-43.5 -72 -67.5 -124h-51z" />
    <glyph glyph-name="U" unicode="U" horiz-adv-x="1243" 
d="M796 1121l-9.99805 -42.002c-28.667 -1.33301 -53.834 -4 -75.501 -8s-40.667 -11.5 -57 -22.5s-30.5 -26.5 -42.5 -46.5s-22.333 -46.667 -31 -80l-142 -572c-30.667 -122.667 -29 -213.334 5 -272.001s105.333 -88 214 -88c58 0 109.833 7.16699 155.5 21.5
s85.834 37.333 120.501 69s64.667 72.667 90 123s47 111.5 65 183.5l116 466c12.667 50 20 89.167 22 117.5s-1.5 50 -10.5 65s-23.833 25.167 -44.5 30.5s-47.334 9.66602 -80.001 12.999l10 42h424l-10 -42c-37.333 -3.33301 -67.833 -8.66602 -91.5 -15.999
s-43.5 -19.166 -59.5 -35.499s-29.5 -38.333 -40.5 -66s-22.167 -63.834 -33.5 -108.501l-116 -466c-22 -87.333 -50.333 -161.666 -85 -222.999s-76.167 -111.666 -124.5 -150.999s-103.333 -68 -165 -86s-130.834 -27 -207.501 -27
c-74.667 0 -138.167 8.83301 -190.5 26.5s-93 45.334 -122 83.001s-46 85.667 -51 144s2.5 128.5 22.5 210.5l139 558c8.66699 34 13.5 61 14.5 81s-3 35.5 -12 46.5s-23.5 18.333 -43.5 22s-46.667 6.16699 -80 7.5l10 42h517z" />
    <glyph glyph-name="V" unicode="V" horiz-adv-x="1229" 
d="M768 1121l-10.001 -42.002c-30 0 -54.167 -1 -72.5 -3s-32.833 -5.5 -43.5 -10.5s-18.334 -11.5 -23.001 -19.5s-8.66699 -17.667 -12 -29c-4.66699 -13.333 -4.16699 -36 1.5 -68s13.834 -72.667 24.501 -122l124 -613l205.5 332l208.5 332c18 28 32.5 51.667 43.5 71
s18.5 36.666 22.5 51.999c7.33301 30 1.5 50.5 -17.5 61.5s-51.167 16.5 -96.5 16.5l10 42h378l-10 -40c-20 -3.33301 -37.667 -7.16602 -53 -11.499s-29 -10.833 -41 -19.5l1 2c-16.667 -11.333 -34.167 -28.166 -52.5 -50.499s-38.5 -51.166 -60.5 -86.499l-648 -1011h-37
l-197 990c-10.667 42 -19.667 75.833 -27 101.5s-14.333 43.167 -21 52.5l-1 -3c-10 11.333 -22.167 19.833 -36.5 25.5s-33.166 9.16699 -56.499 10.5l10 40h487z" />
    <glyph glyph-name="W" unicode="W" horiz-adv-x="1670" 
d="M731 1121l-9.99707 -42.001c-44.667 0 -76.667 -4.83301 -96 -14.5s-31.333 -24.5 -36 -44.5c-3.33301 -7.33301 -5 -15.666 -5 -24.999s1.66699 -25.666 5 -48.999l91 -665l154.5 246l153.5 246c-4.66699 34 -9.83398 69.667 -15.501 107s-10.834 73 -15.501 107
c-3.33301 17.333 -7.83301 32 -13.5 44s-13.834 21.5 -24.501 28.5s-23.834 12 -39.501 15s-34.5 4.5 -56.5 4.5l10 42h489l-10 -42c-28 0 -50.667 -1.16699 -68 -3.5s-31.333 -6 -42 -11s-18.667 -11.667 -24 -20s-10.333 -18.833 -15 -31.5c-3.33301 -8 -4.5 -15 -3.5 -21
s2.16699 -17.667 3.5 -35c10.667 -112.667 24.5 -226.167 41.5 -340.5l50.5 -339.5l183.5 299.5l184.5 299.5c19.333 28 34 53.167 44 75.5s16.333 38.833 19 49.5c6 23.333 1 42.166 -15 56.499s-46.333 21.5 -91 21.5l10 42h364l-10 -42c-36 0 -68 -9.5 -96 -28.5
s-52.333 -45.5 -73 -79.5l-161.5 -266.5l-160.5 -266.5l-128 -205l-95 -164.5l-94 -164.5h-35l-20 210c-11.333 90 -24 179.667 -38 269s-26.667 179 -38 269l-228.5 -374.5l-230.5 -373.5h-37l-34 375c-15.333 123.333 -27.666 228.666 -36.999 315.999
s-18 160.333 -26 219s-15.333 105.334 -22 140.001s-15 61 -25 79s-22.5 29.833 -37.5 35.5s-33.833 9.16699 -56.5 10.5l10 42h450z" />
    <glyph glyph-name="X" unicode="X" horiz-adv-x="1262" 
d="M-1 -33c26 3.33301 48.6699 7.6709 68.0029 13.0039s36.333 13.333 51 24c8.66699 5.33301 23.834 17.333 45.501 36l77 68.5l98.5 91l111 104.5l113 107.5l107 100.5l-48.5 108l-48.5 109.5l-46.5 103l-42 89.5l-34.5 68.5c-10 19 -18.333 32.5 -25 40.5l-1 -2
c-26 30.667 -68.333 47.334 -127 50.001l10 42h552l-10 -42c-28 0 -51.333 -0.833008 -70 -2.5s-33.834 -4.66699 -45.501 -9s-20.334 -10.166 -26.001 -17.499s-10.167 -16.666 -13.5 -27.999c-2 -6 -2.83301 -12.833 -2.5 -20.5s1.5 -15.834 3.5 -24.501
s4.5 -17.334 7.5 -26.001s6.5 -16.667 10.5 -24l118 -266l107.5 99l113.5 105c36 34 66.833 65.167 92.5 93.5s40.167 49.5 43.5 63.5c6 22.667 0.333008 37.834 -17 45.501s-48 11.5 -92 11.5l10 42h434l-10 -42c-24.667 0 -46.5 -1.83301 -65.5 -5.5
s-36.167 -9.83398 -51.5 -18.501c-18.667 -8.66699 -40.334 -22.167 -65.001 -40.5s-51.834 -40 -81.501 -65l-93.5 -82.5l-99 -92.5l-99.5 -95l-92.5 -89.5l108 -247.5l111 -244.5c9.33301 -22.667 17.833 -41.334 25.5 -56.001s17.167 -26.667 28.5 -36
s25.666 -16.833 42.999 -22.5s40.666 -11.167 69.999 -16.5l-10 -42h-542l11 44c30.667 1.33301 55.334 3.16602 74.001 5.49902s33.167 5.5 43.5 9.5s17.666 9.16699 21.999 15.5s7.5 14.166 9.5 23.499c2 7.33301 3.33301 14 4 20s-0.166016 14 -2.49902 24
s-6.66602 23.333 -12.999 40s-15.333 39.167 -27 67.5l-46 107l-69.5 158.5l-78.5 -74.5l-86 -80l-84.5 -80l-74 -73.5c-22 -22.667 -40 -42.834 -54 -60.501s-22.333 -31.5 -25 -41.5c-3.33301 -12.667 -1.16602 -23.167 6.50098 -31.5s18.167 -14.833 31.5 -19.5
s27.666 -7.83398 42.999 -9.50098s29 -2.5 41 -2.5l-10 -42h-426z" />
    <glyph glyph-name="Y" unicode="Y" horiz-adv-x="1229" 
d="M791 1121l-9.99902 -41.999h-39c-24.667 0 -46.167 -4 -64.5 -12s-30.166 -22.333 -35.499 -43c0 -2 -0.5 -9.33301 -1.5 -22s2.83301 -29.334 11.5 -50.001l81.5 -194.5l84.5 -195.5l351 397c10 12 17.833 21.833 23.5 29.5s9.66699 13.667 12 18
s3.66602 7.83301 3.99902 10.5s0.833008 5 1.5 7c4.66699 19.333 -1.66602 33.333 -18.999 42s-48.333 13 -93 13l10 42h403l-10 -42c-22 0 -43.667 -3.66699 -65 -11s-43.666 -19 -66.999 -35s-48.333 -37 -75 -63s-57 -57.333 -91 -94l-366 -406l-87 -346
c-16 -66 -16.667 -109 -2 -129l1 2c8.66699 -8 25 -14.167 49 -18.5s56.333 -8.16602 97 -11.499l-10 -42h-557l10 42c46.667 3.33301 82.667 7.5 108 12.5s45 13.5 59 25.5s24.5 28.833 31.5 50.5s15.167 51.167 24.5 88.5l78 312l-97.5 226l-71.5 165
c-20 46 -37.833 83.667 -53.5 113s-30.834 52.666 -45.501 69.999s-29.834 29.5 -45.501 36.5s-33.834 11.167 -54.501 12.5l10 42h510z" />
    <glyph glyph-name="Z" unicode="Z" horiz-adv-x="1129" 
d="M18 -47l1055 1090h-403c-52 0 -97.667 -6 -137 -18s-73 -30.667 -101 -56c-32.667 -30.667 -67 -85.334 -103 -164.001h-55l114 316h955l-6 -26l-1046 -1093h452c52 0 98.833 6.66699 140.5 20s76.5 31.666 104.5 54.999c17.333 14 35.5 34.667 54.5 62s41.5 64 67.5 110
h51l-125 -324h-1025z" />
    <glyph glyph-name="bracketleft" unicode="[" horiz-adv-x="375" 
d="M660 1473h-149l-380 -1523h120l-23 -93h-219l419 1696h252z" />
    <glyph glyph-name="backslash" unicode="\" horiz-adv-x="680" 
d="M474 1081l178 -1155h-123l-179 1155h124z" />
    <glyph glyph-name="bracketright" unicode="]" horiz-adv-x="416" 
d="M322 -178h-221l23 93h116l377 1509h-150l19 79h253z" />
    <glyph glyph-name="asciicircum" unicode="^" horiz-adv-x="999" 
d="M815 1148l150 -768h-133l-95 559l-190.5 -280.5l-189.5 -278.5h-130l532 768h56z" />
    <glyph glyph-name="underscore" unicode="_" horiz-adv-x="1156" 
d="M1010 -154h-949l36 145h949z" />
    <glyph glyph-name="grave" unicode="`" horiz-adv-x="1124" 
d="M783 890c24 0 42.5 -8.5 55.5 -25.5s16.5 -37.5 10.5 -61.5s-19.667 -44.5 -41 -61.5s-44.333 -25.5 -69 -25.5c-24 0 -42.333 8.5 -55 25.5s-16 37.5 -10 61.5s19.5 44.5 40.5 61.5s43.833 25.5 68.5 25.5zM1214 455h-1078l20 82h1078zM629 270
c24.667 0 43.333 -8.66699 56 -26s16 -38 10 -62s-19.833 -44.667 -41.5 -62s-44.5 -26 -68.5 -26s-42.5 8.66699 -55.5 26s-16.5 38 -10.5 62s19.667 44.667 41 62s44.333 26 69 26z" />
    <glyph glyph-name="a" unicode="a" horiz-adv-x="786" 
d="M595 408c-47.333 -14.667 -90.833 -31 -130.5 -49s-74.167 -37.167 -103.5 -57.5s-53.5 -42 -72.5 -65s-31.5 -46.833 -37.5 -71.5c-10.667 -42 -7.66699 -75.5 9 -100.5s43 -37.5 79 -37.5c16.667 0 35 2.66699 55 8s39.167 12.666 57.5 21.999s34.5 20.833 48.5 34.5
s23.333 28.834 28 45.501zM255 322c27.333 16 71.667 36.166 133 60.499s135 51.166 221 80.499l17 70c8 30.667 12.833 57.167 14.5 79.5s-0.666016 40.833 -6.99902 55.5s-17.666 25.334 -33.999 32.001s-38.5 10 -66.5 10c-14 0 -28.667 -2 -44 -6
s-29.833 -9.5 -43.5 -16.5s-25.334 -15.5 -35.001 -25.5s-16.167 -21 -19.5 -33c-4 -17.333 -5.5 -30.833 -4.5 -40.5s0.5 -18.5 -1.5 -26.5c-8 -30 -21.333 -51.667 -40 -65s-39 -20 -61 -20c-30 0 -50 8.83301 -60 26.5s-12.333 37.834 -7 60.501
c5.33301 21.333 17 43 35 65s44 45.333 78 70l-1 -3c31.333 23.333 66.666 40.5 105.999 51.5s84.333 16.5 135 16.5c45.333 0 83.666 -5 114.999 -15s55 -26.5 71 -49.5s25 -53 27 -90s-4 -82.5 -18 -136.5l-87 -349c-9.33301 -38 -12.166 -64.333 -8.49902 -79
s15.167 -22 34.5 -22c8 0 18.833 2.5 32.5 7.5s33.167 15.833 58.5 32.5l-14 -56c-11.333 -11.333 -24.166 -22.5 -38.499 -33.5s-29.5 -20.667 -45.5 -29s-32.833 -15.166 -50.5 -20.499s-35.5 -8 -53.5 -8c-34 0 -59 10 -75 30s-20.333 50.333 -13 91l-91.5 -57
c-26.333 -16 -51 -29 -74 -39s-44.833 -17.5 -65.5 -22.5s-41.334 -7.5 -62.001 -7.5c-24 0 -46 4.83301 -66 14.5s-36.833 23.167 -50.5 40.5s-23.167 37.833 -28.5 61.5s-4.33301 49.5 3 77.5c10.667 43.333 31.167 83.166 61.5 119.499s71.5 68.833 123.5 97.5z" />
    <glyph glyph-name="b" unicode="b" horiz-adv-x="911" 
d="M279 1038l11.0039 41c32.667 4.66699 66.167 11.667 100.5 21s66.166 19.333 95.499 30l25 8.5c6.66699 2.33301 12.667 4.33301 18 6s11 3.33398 17 5.00098l20 5.5l-2 -11l-110 -515c42.667 42 88.834 74.167 138.501 96.5s98.5 33.5 146.5 33.5
c41.333 0 78.5 -9.5 111.5 -28.5s59.667 -45.667 80 -80s33 -75.833 38 -124.5s0.166992 -102.667 -14.5 -162c-15.333 -63.333 -41 -122.5 -77 -177.5s-78.333 -103.167 -127 -144.5s-102.334 -73.833 -161.001 -97.5s-119 -35.5 -181 -35.5c-34 0 -67.333 3.66699 -100 11
s-61.5 16.666 -86.5 27.999s-44.667 24 -59 38s-19.833 27.667 -16.5 41l232 928l7.5 34c2.33301 10.667 2.16602 20 -0.500977 28s-8.33398 14.333 -17.001 19s-22.334 7 -41.001 7zM360.004 -3c18.667 -5.33301 36.167 -9.66699 52.5 -13s31.5 -5 45.5 -5
c42.667 0 81.167 8.66699 115.5 26s64.666 40.333 90.999 69s48.333 61.5 66 98.5s31.5 74.833 41.5 113.5c9.33301 38 15.333 77.667 18 119s-0.833008 79 -10.5 113s-26.167 62.167 -49.5 84.5s-56.333 33.5 -99 33.5c-16.667 0 -36.167 -3.16699 -58.5 -9.5
s-43.833 -15.333 -64.5 -27s-39 -25.5 -55 -41.5s-26.667 -33.667 -32 -53l-111 -446c-3.33301 -29.333 13.334 -50 50.001 -62z" />
    <glyph glyph-name="c" unicode="c" horiz-adv-x="781" 
d="M825 703c20.667 -18.667 36.0029 -38.5 46.0029 -59.5s12 -43.5 6 -67.5c-4 -16 -10.333 -29.5 -19 -40.5s-18.334 -19.667 -29.001 -26s-21.334 -11 -32.001 -14s-20.334 -4.5 -29.001 -4.5c-10 0 -19.667 2.16699 -29 6.5s-17.166 10.5 -23.499 18.5
s-11.333 17.333 -15 28s-5.16699 22.667 -4.5 36l2 42c-4 26.667 -12.833 46.5 -26.5 59.5s-35.834 19.5 -66.501 19.5c-31.333 0 -62.833 -7.66699 -94.5 -23s-61.5 -37 -89.5 -65s-52.833 -61.167 -74.5 -99.5s-38.167 -80.5 -49.5 -126.5
c-10.667 -42.667 -14.834 -84.334 -12.501 -125.001s11.333 -76.834 27 -108.501s37.834 -57.167 66.501 -76.5s64.667 -29 108 -29c24.667 0 47.667 2.33301 69 7s43 13.334 65 26.001s45.833 30 71.5 52s55.5 50.667 89.5 86l27 -19
c-64 -93.333 -133.5 -165.166 -208.5 -215.499s-148.167 -75.5 -219.5 -75.5c-44 0 -84.833 9.33301 -122.5 28s-68.667 45.5 -93 80.5s-40.333 77.5 -48 127.5s-3.5 106.667 12.5 170c14.667 58.667 39 114.667 73 168s74.333 100.5 121 141.5s98 73.667 154 98
s113 36.5 171 36.5c37.333 0 69.833 -4.66699 97.5 -14s54.167 -23.333 79.5 -42z" />
    <glyph glyph-name="d" unicode="d" horiz-adv-x="907" 
d="M1053 1155l-17.5029 -76l-18 -77c-5.66699 -24 -10.334 -44.667 -14.001 -62s-5.5 -27 -5.5 -29l-195 -774c-4 -15.333 -7 -29 -9 -41s-1.33301 -22.167 2 -30.5s10 -14.833 20 -19.5s25 -7 45 -7h31c1.33301 0 3.33301 0.333008 6 1s6 2.66699 10 6l-11 -42l-60 -18
c-9.33301 -3.33301 -20.666 -7 -33.999 -11s-29 -9 -47 -15l-159 -53v14l23 93c-22.667 -18 -44.167 -33.667 -64.5 -47s-40.5 -24.166 -60.5 -32.499s-40.5 -14.666 -61.5 -18.999s-43.5 -6.5 -67.5 -6.5c-52 0 -96.167 10.667 -132.5 32s-64.833 49.833 -85.5 85.5
s-33 76.667 -37 123s0.333008 94.833 13 145.5c16 63.333 40.833 123.333 74.5 180s73.167 106.167 118.5 148.5s94.5 75.833 147.5 100.5s106.5 37 160.5 37c18.667 0 35.334 -1 50.001 -3s28.334 -5.83301 41.001 -11.5s24.667 -13.334 36 -23.001
s23.333 -21.834 36 -36.501l67 270c4 14.667 6.83301 27.667 8.5 39s1.16699 20.5 -1.5 27.5s-8 12.333 -16 16s-20 5.5 -36 5.5h-14c-2.66699 0 -9.16699 -0.666992 -19.5 -2s-18.166 -2 -23.499 -2l10 40l81 19c17.333 2 34.166 5.66699 50.499 11l51 16.5l53 16.5
c17.667 5.33301 35.834 9 54.501 11zM588.997 51c16.667 13.333 29.833 25.833 39.5 37.5s15.834 23.5 18.501 35.5l94 376c9.33301 36.667 11 68 5 94s-16 47 -30 63s-30 27.667 -48 35s-34.667 11 -50 11c-36.667 0 -71.667 -9 -105 -27s-63.666 -42.333 -90.999 -73
s-51.166 -66.167 -71.499 -106.5s-35.833 -82.5 -46.5 -126.5c-10.667 -42 -16.334 -84.167 -17.001 -126.5s5.16602 -80.5 17.499 -114.5s32 -61.667 59 -83s62.833 -32 107.5 -32c23.333 0 44.666 2.83301 63.999 8.5s37.333 15.167 54 28.5z" />
    <glyph glyph-name="e" unicode="e" horiz-adv-x="805" 
d="M816 668c26 -28 41.3359 -62.999 46.0029 -104.999s0.333984 -90 -12.999 -144h-556c-13.333 -68 -18.5 -125.5 -15.5 -172.5s14.167 -85.5 33.5 -115.5c18 -30.667 41.667 -53.667 71 -69s62.666 -23 99.999 -23c30 0 58.5 3.83301 85.5 11.5s53.833 20.5 80.5 38.5
c47.333 28 97.666 73.667 150.999 137l36 -14c-22 -36 -49 -72 -81 -108s-69 -70 -111 -102c-41.333 -30 -84.333 -53.833 -129 -71.5s-90.334 -26.5 -137.001 -26.5c-56.667 0 -103.667 10.5 -141 31.5s-67 52.5 -89 94.5c-38 84.667 -43.667 181 -17 289
c14.667 58.667 37.5 114 68.5 166s68.833 99.333 113.5 142c42.667 40.667 90.167 72.167 142.5 94.5s107.166 34.166 164.499 35.499c42 0 79 -7.16699 111 -21.5s60.667 -36.833 86 -67.5zM381.003 597.001c-12.667 -14 -24.332 -30.167 -34.999 -48.5
s-21.334 -39.833 -32.001 -64.5h358c5.33301 25.333 7.5 48.5 6.5 69.5s-3.83301 39.167 -8.5 54.5c-6.66699 25.333 -20.167 44 -40.5 56s-46.833 18 -79.5 18c-32 0 -62.333 -7.16699 -91 -21.5s-54.667 -35.5 -78 -63.5z" />
    <glyph glyph-name="f" unicode="f" horiz-adv-x="677" 
d="M-2 -40c34 1.33301 61.834 4.50195 83.501 9.50195s39 13.167 52 24.5s23.333 26.833 31 46.5s15.5 45.167 23.5 76.5l138 556h-150l18 70h150c34.667 138.667 87.334 242.5 158.001 311.5s154 103.5 250 103.5c26 0 50.667 -2.66699 74 -8s43.333 -13 60 -23
s29 -22.333 37 -37s9.66699 -31 5 -49c-2 -9.33301 -6.5 -18.666 -13.5 -27.999s-15.167 -17.833 -24.5 -25.5s-19.333 -13.834 -30 -18.501s-20.667 -7 -30 -7c-8 0 -15.5 1.16699 -22.5 3.5s-13.167 7.16602 -18.5 14.499l-1 -2c-4 4 -9 11.333 -15 22s-12 22 -18 34
s-11.333 23.167 -16 33.5s-7.66699 17.166 -9 20.499l-1 -2c-10.667 7.33301 -24.334 11 -41.001 11c-32 0 -60 -12.667 -84 -38s-42.333 -63 -55 -113l-50 -203h222l-18 -70h-219l-138 -556c-16.667 -64.667 -19 -107 -7 -127h-2
c5.33301 -7.33301 19.166 -13.833 41.499 -19.5s53.5 -9.16699 93.5 -10.5l-9 -35h-474z" />
    <glyph glyph-name="g" unicode="g" horiz-adv-x="823" 
d="M202 317c-8.66699 23.333 -13.8359 47.0029 -15.5029 71.0029s1.16602 50.667 8.49902 80c8 32.667 23 66.167 45 100.5s49.833 65.666 83.5 93.999s72.667 51.5 117 69.5s92.5 27 144.5 27c20.667 0 42.834 -2.66699 66.501 -8s47 -11.333 70 -18l66 -19.5
c21 -6.33301 38.833 -10.5 53.5 -12.5c24.667 1.33301 47 2 67 2h77l-20 -81h-148c0.666992 -14.667 1.5 -28 2.5 -40s1.66699 -23.833 2 -35.5s0 -24 -1 -37s-3.5 -27.5 -7.5 -43.5c-8 -30 -22.667 -61 -44 -93s-48.333 -61.167 -81 -87.5s-70.5 -48 -113.5 -65
s-89.5 -25.5 -139.5 -25.5c-6 0 -16 0.333008 -30 1s-30 2.66699 -48 6c-10 -1.33301 -21.667 -5.83301 -35 -13.5s-26.833 -17 -40.5 -28s-25.334 -22.333 -35.001 -34s-15.834 -21.834 -18.501 -30.501c-2 -8.66699 1.83301 -16 11.5 -22s21.667 -11 36 -15
s29.5 -6.83301 45.5 -8.5s29.667 -2.5 41 -2.5c90.667 0 163.834 -3.16699 219.501 -9.5s97.834 -17.333 126.501 -33s45.667 -36.667 51 -63s3 -59.833 -7 -100.5c-8 -31.333 -22.167 -60.666 -42.5 -87.999s-44.833 -52.333 -73.5 -75s-60.667 -42.834 -96 -60.501
s-72 -32.667 -110 -45s-76.333 -21.666 -115 -27.999s-75.334 -9.5 -110.001 -9.5c-49.333 0 -92.166 5.33301 -128.499 16s-65.666 24.667 -87.999 42s-37.833 37 -46.5 59s-10 44.333 -4 67c3.33301 14.667 10.5 29 21.5 43s23.667 27.667 38 41
s29.166 25.833 44.499 37.5l44 32.5l76 56c-31.333 14 -51.666 28.5 -60.999 43.5s-11.666 32.833 -6.99902 53.5c2.66699 11.333 7.66699 22.833 15 34.5s18.5 24.667 33.5 39s34.833 31.166 59.5 50.499s56.334 42.666 95.001 69.999c-44 19.333 -75.667 51.333 -95 96z
M140.998 -328.997c50.667 -18 110.666 -27.001 179.999 -27.001c45.333 0 88.666 4.16699 129.999 12.5s78.5 20 111.5 35s60.5 32.833 82.5 53.5s36 43.667 42 69c4 14.667 3.83301 27.5 -0.5 38.5s-14.666 20 -30.999 27s-39.5 12.167 -69.5 15.5s-69 5 -117 5h-33
c-7.33301 0 -14 0.333008 -20 1s-11.667 1 -17 1h-37c-11.333 0 -22.333 1.16699 -33 3.5s-22 4.66602 -34 6.99902l-37.5 7c-13 2.33301 -27.167 3.5 -42.5 3.5c-13.333 -9.33301 -27.166 -20.5 -41.499 -33.5s-27.5 -26.667 -39.5 -41s-22.167 -28.5 -30.5 -42.5
s-13.833 -26.333 -16.5 -37c-6.66699 -25.333 -5.5 -45.666 3.5 -60.999s25.833 -27.666 50.5 -36.999zM562.997 272.002c21.333 14 38.9971 32.5 52.9971 55.5s25.333 52.167 34 87.5c5.33301 21.333 8.83301 48.166 10.5 80.499s-0.666016 63.833 -6.99902 94.5
s-18.166 56.834 -35.499 78.501s-42.666 32.5 -75.999 32.5c-42 0 -78.167 -16.333 -108.5 -49s-52.833 -77.667 -67.5 -135c-7.33301 -31.333 -10.833 -63 -10.5 -95s5 -61 14 -87s22.833 -47.167 41.5 -63.5s42 -24.5 70 -24.5c15.333 0 30.333 1.66699 45 5
s27 9.33301 37 18v2z" />
    <glyph glyph-name="h" unicode="h" horiz-adv-x="907" 
d="M18 -40c24.667 1.33301 45.498 4.83496 62.498 10.502s30.167 12.167 39.5 19.5h-2c10.667 9.33301 20.5 24.333 29.5 45s17.167 46.334 24.5 77.001l210 840c2.66699 12 5 23.5 7 34.5s1.83301 20.667 -0.5 29s-7.66602 15 -15.999 20s-21.166 7.5 -38.499 7.5h-9
c-2 0 -4.66699 -0.333008 -8 -1s-7.33301 -1.66699 -12 -3l-18 -5l12 47c0.666992 0 2.5 0.333008 5.5 1s8.16699 2 15.5 4s17.666 4.66699 30.999 8l51 13c38.667 12.667 71.834 22.5 99.501 29.5l84.5 21.5l-133 -534c54.667 50 106 85 154 105s95 30 141 30
c72.667 0 122.5 -23.833 149.5 -71.5s28.167 -120.834 3.5 -219.501l-89 -356c-6 -26 -10.5 -48.333 -13.5 -67s-2.33301 -34.167 2 -46.5s13 -21.5 26 -27.5s32.5 -9.66699 58.5 -11l-9 -35h-390l9 35c31.333 4 56 8.83301 74 14.5s32 14 42 25s17.833 25.5 23.5 43.5
s11.834 41 18.501 69l89 354c5.33301 23.333 9.16602 46.166 11.499 68.499s0.833008 42.166 -4.5 59.499s-15.166 31.333 -29.499 42s-35.5 16 -63.5 16c-18.667 0 -39.834 -4.5 -63.501 -13.5s-46.5 -19.5 -68.5 -31.5s-41 -24 -57 -36s-25.667 -21 -29 -27l-108 -432
c-6.66699 -27.333 -11.667 -50 -15 -68s-2.83301 -32.667 1.5 -44s13.833 -20 28.5 -26s37 -10.667 67 -14l-9 -35h-394z" />
    <glyph glyph-name="i" unicode="i" horiz-adv-x="447" 
d="M0 -40c34.667 3.33301 62.001 6.66406 82.001 9.99707s35.833 9.83301 47.5 19.5s20.667 23.834 27 42.501s13.833 45.334 22.5 80.001l104 416c5.33301 22 9 40.333 11 55s1.83301 26.334 -0.5 35.001s-6.83301 14.667 -13.5 18s-16 5 -28 5h-12
c-2 0 -8.5 -1.66699 -19.5 -5l-46.5 -14l9 39l44 12h-2c35.333 10 67.666 19.833 96.999 29.5l77.5 26l55 18.5c14.333 4.66699 24.5 7 30.5 7c7.33301 0 10.5 -1.66699 9.5 -5s-0.5 -6.33301 1.5 -9l-157 -628c-16 -64.667 -18.333 -106 -7 -124h-2
c5.33301 -7.33301 16.833 -13 34.5 -17s41.167 -7.66699 70.5 -11l-9 -35h-435zM427.001 1127c14 10.667 27.1689 18.498 39.502 23.498s25.166 7.5 38.499 7.5c10.667 0 21.167 -2.33301 31.5 -7s19 -11.334 26 -20.001s12.167 -19 15.5 -31s3.33301 -25.333 0 -40
c-2.66699 -11.333 -8.16699 -22.666 -16.5 -33.999s-18.166 -21.666 -29.499 -30.999s-23.5 -16.833 -36.5 -22.5s-25.833 -8.5 -38.5 -8.5c-12 0 -23 2.5 -33 7.5s-18.5 11.833 -25.5 20.5s-11.833 18.834 -14.5 30.501s-2.33398 24.167 0.999023 37.5
c3.33301 14 8.66602 26.333 15.999 37s16 20.667 26 30z" />
    <glyph glyph-name="j" unicode="j" horiz-adv-x="408" 
d="M1 -345c11.333 -17.333 22.168 -30.498 32.501 -39.498s20.166 -13.5 29.499 -13.5c13.333 0 26 2.83301 38 8.5s23 15 33 28s19.333 30.167 28 51.5s17 47.666 25 78.999c2 7.33301 3.16699 13.666 3.5 18.999s0.833008 9.66602 1.5 12.999l184 725
c8.66699 36 12.167 63.667 10.5 83s-15.167 29 -40.5 29c-0.666992 0 -5 -0.833008 -13 -2.5l-26 -5.5c-9.33301 -2 -18.333 -3.83301 -27 -5.5s-14 -2.5 -16 -2.5l9 37l104 28.5c30 8.33301 57.333 16.333 82 24l68 21l61 19.5l-205 -822
c-18.667 -74 -41.167 -136.333 -67.5 -187s-56.833 -91.5 -91.5 -122.5s-74 -53.167 -118 -66.5s-92.333 -20 -145 -20c-22.667 0 -42.667 2.83301 -60 8.5s-31.833 13.334 -43.5 23.001s-19.667 21.167 -24 34.5s-4.5 28 -0.5 44c2 8.66699 6.33301 17 13 25
s14.5 15.167 23.5 21.5s18.167 11.333 27.5 15s18 5.5 26 5.5c16.667 0 31.5 -4.33301 44.5 -13s24.167 -23 33.5 -43zM529.002 1127c13.333 10.667 25.8311 18.5 37.498 23.5s24.5 7.5 38.5 7.5c12.667 0 23.334 -2.5 32.001 -7.5s17 -12.833 25 -23.5l1 3
c7.33301 -8 12.5 -17.833 15.5 -29.5s2.5 -25.167 -1.5 -40.5c-6 -23.333 -22 -45.333 -48 -66h3c-10.667 -9.33301 -22.5 -16.666 -35.5 -21.999s-26.167 -8 -39.5 -8c-25.333 0 -45.666 10 -60.999 30v-2c-16 15.333 -20.333 38 -13 68c6 25.333 21.333 47.666 46 66.999z
" />
    <glyph glyph-name="k" unicode="k" horiz-adv-x="909" 
d="M-2 -40c28.667 1.33301 52.8369 3.82812 72.5039 7.49512s35.167 9.83398 46.5 18.501l-1 -3c22 17.333 38.667 48.666 50 93.999l219 878c4.66699 18.667 6.33398 33.834 5.00098 45.501s-4.66602 20.834 -9.99902 27.501s-12.5 11.167 -21.5 13.5s-19.5 3.5 -31.5 3.5
h-16c-3.33301 0 -6.33301 -0.666992 -9 -2h-16c-1.33301 0 -3.16602 -0.333008 -5.49902 -1s-7.5 -2.66699 -15.5 -6l10 40l86 21l98.5 23c26.333 6 48.5 13 66.5 21l47 14c2.66699 0 4.66699 -0.5 6 -1.5s4.33301 -4.16699 9 -9.5l-184 -736l144.5 104.5l142.5 104.5l23 19
c2.66699 2 5.66699 4.66699 9 8s6.66602 7 9.99902 11s6.5 8 9.5 12s5.16699 7.66699 6.5 11c1.33301 5.33301 1.5 9.5 0.5 12.5s-4.33301 5.5 -10 7.5s-14.5 3.5 -26.5 4.5s-28 2.16699 -48 3.5l8 34h375l-8 -34c-28.667 -1.33301 -54 -4.16602 -76 -8.49902
s-43.667 -10.833 -65 -19.5s-43 -20 -65 -34s-47 -30.833 -75 -50.5l-96 -68.5l-128 -90l84.5 -166.5c24.333 -47.667 46.166 -88.667 65.499 -123s37.166 -62.833 53.499 -85.5s32.666 -41 48.999 -55s33.333 -24.667 51 -32s38.167 -12.333 61.5 -15l-8 -33h-401l9 35h35
c3.33301 0 7.16602 0.333008 11.499 1s9.16602 2.66699 14.499 6h3c5.33301 1.33301 8 2.33301 8 3s1.33301 3.66699 4 9c0.666992 0.666992 1.5 1.66699 2.5 3s1.33301 3.5 1 6.5s-1.83301 7.33301 -4.5 13s-7.33398 12.834 -14.001 21.501l-169 336l-78 -311
c-3.33301 -15.333 -4.5 -28.333 -3.5 -39s5.5 -19.5 13.5 -26.5s20.333 -12.167 37 -15.5s39 -5.66602 67 -6.99902l-9 -35h-430z" />
    <glyph glyph-name="l" unicode="l" horiz-adv-x="447" 
d="M2 -40c30 3.33301 54.6689 7.16797 74.002 11.501s34 10.5 44 18.5v-2c10.667 8 20.667 20.167 30 36.5s16.666 36.166 21.999 59.499l214 857c4 16 6.5 30.667 7.5 44s0.833008 24 -0.5 32c-2.66699 10.667 -9.33398 19.167 -20.001 25.5s-25.334 9.5 -44.001 9.5
c-3.33301 0 -7 -0.333008 -11 -1s-7.66699 -1 -11 -1c-2.66699 0 -6.66699 -1.66699 -12 -5c-3.33301 -1.33301 -7.83301 -2.5 -13.5 -3.5s-11.167 -2.16699 -16.5 -3.5l11 41c39.333 9.33301 84.333 21.166 135 35.499l172 50.5c5.33301 0 8.33301 -1 9 -3
s1.33398 -4.33301 2.00098 -7h-2c2.66699 -2 4 -3.66699 4 -5s-0.333008 -2.66602 -1 -3.99902l-265 -1064c-6 -24 -9 -44 -9 -60s2.66699 -28 8 -36c14 -10 49.333 -18.667 106 -26l-9 -35h-432z" />
    <glyph glyph-name="m" unicode="m" horiz-adv-x="1387" 
d="M3 -42c24.667 0.666992 45.668 2.83496 63.001 6.50195s32 9.83398 44 18.501s21.667 20.5 29 35.5s14 34.5 20 58.5l112 451c4.66699 17.333 8 32.166 10 44.499s1.83301 22.5 -0.5 30.5s-7.5 14.167 -15.5 18.5s-20 7.5 -36 9.5c-6 0 -10.833 0.166992 -14.5 0.5
s-7.33398 0.166016 -11.001 -0.500977s-8 -2 -13 -4s-11.167 -5.33301 -18.5 -10l11 44l73 21c3.33301 2 9.5 4.5 18.5 7.5l30 10l35.5 12l36 12.5l49 19.5c14.667 5.66699 30.667 8.5 48 8.5c-0.666992 -8 -1 -12.833 -1 -14.5s0.333008 -3.83398 1 -6.50098l-27 -109
c36.667 26 69.167 47.5 97.5 64.5s54.333 30.5 78 40.5s45.834 17 66.501 21s42.334 6 65.001 6c45.333 0 80.666 -11 105.999 -33s42.333 -60.333 51 -115c34.667 28 66 51.333 94 70s54.333 33.834 79 45.501s48.334 20 71.001 25s46.667 7.5 72 7.5
c39.333 0 71.5 -5.5 96.5 -16.5s43.167 -29.333 54.5 -55s15.833 -59 13.5 -100s-10.833 -91.5 -25.5 -151.5l-91 -363c-4.66699 -19.333 -6.66699 -35.833 -6 -49.5s4.83398 -24.834 12.501 -33.501s19 -15.167 34 -19.5s35.167 -6.83301 60.5 -7.5l-8 -33h-405l9 35
c26.667 1.33301 48.667 4 66 8s31.666 10.5 42.999 19.5s20.333 21.167 27 36.5s13 34.666 19 57.999l94 377c16 65.333 17.667 113.833 5 145.5s-45.667 47.5 -99 47.5c-17.333 0 -36 -3.33301 -56 -10s-41.333 -16.334 -64 -29.001l1 2
c-14 -11.333 -29.333 -22.166 -46 -32.499s-32.334 -21.5 -47.001 -33.5l-112 -449c-5.33301 -23.333 -8.83301 -43.666 -10.5 -60.999s0.5 -31.833 6.5 -43.5s16.833 -20.667 32.5 -27s38.167 -9.83301 67.5 -10.5l-8 -33h-413l8 33c29.333 3.33301 53 7.16602 71 11.499
s32.833 12.5 44.5 24.5s21.667 29.333 30 52s17.5 54 27.5 94l61 244c12 47.333 20.167 87.833 24.5 121.5s4 61.334 -1 83.001s-14.833 37.667 -29.5 48s-35.334 15.5 -62.001 15.5c-18 0 -36.5 -3 -55.5 -9s-38 -13.833 -57 -23.5s-37.333 -20.667 -55 -33
s-34.167 -24.833 -49.5 -37.5l-118 -476c-4.66699 -18 -8.33398 -34.167 -11.001 -48.5s-1.16699 -26.5 4.5 -36.5s16.334 -17.5 32.001 -22.5s39.5 -7.5 71.5 -7.5l-8 -33h-409z" />
    <glyph glyph-name="n" unicode="n" horiz-adv-x="886" 
d="M16 -40c24 3.33301 43.501 7.00586 58.501 11.0059s27.167 9.66699 36.5 17c8.66699 7.33301 17.167 19 25.5 35s16.166 38 23.499 66l110 444c4.66699 18 8 33.333 10 46s2.33301 23 1 31l-11.5 11.5c-4.33301 4.33301 -7.83301 7.5 -10.5 9.5
c-5.33301 2.66699 -12.333 5 -21 7h-58l10 40c3.33301 0 6.33301 0.666992 9 2c14 3.33301 35.167 9.16602 63.5 17.499l113.5 33.5l90 28l12 -5l-1 -16l-30 -118l85.5 58.5c27 18.333 46.5 31.166 58.5 38.499c24 13.333 49.167 23.666 75.5 30.999s51.833 11 76.5 11
c21.333 0 40.833 -3.16699 58.5 -9.5s32.834 -14.833 45.501 -25.5c26 -23.333 42.333 -54.5 49 -93.5s2.66699 -87.833 -12 -146.5l-102 -409c-10.667 -42 -10.334 -71.667 0.999023 -89h-2c12 -17.333 39.333 -26 82 -26l-9 -35h-384l9 35
c24 3.33301 44.167 7.16602 60.5 11.499s29.5 10.5 39.5 18.5h-2c10 9.33301 19.833 24.166 29.5 44.499s17.834 44.5 24.501 72.5l93 373c6 23.333 9.16699 45.333 9.5 66s-1.83398 39.667 -6.50098 57c-4.66699 14 -14.167 25.333 -28.5 34s-33.166 13 -56.499 13
c-31.333 0 -69.333 -11.667 -114 -35l-48.5 -32c-17.667 -12 -31.834 -22.667 -42.501 -32l-122 -488c-4.66699 -19.333 -6.16699 -35.333 -4.5 -48s5.16699 -23.334 10.5 -32.001c14 -15.333 42.667 -23 86 -23l-9 -35h-391z" />
    <glyph glyph-name="o" unicode="o" horiz-adv-x="902" 
d="M321 634c94 82 199.665 122.999 316.998 122.999c56.667 0 107.334 -10.333 152.001 -31s80.667 -49.667 108 -87s45 -81.666 53 -132.999s4.33301 -108 -11 -170c-14 -56.667 -37.167 -111.334 -69.5 -164.001s-71.166 -99.334 -116.499 -140.001
s-95.5 -73.167 -150.5 -97.5s-112.5 -36.5 -172.5 -36.5c-54.667 0 -103.834 11.167 -147.501 33.5s-79.167 53 -106.5 92s-45.166 85.167 -53.499 138.5s-4.83301 111.333 10.5 174c14 56.667 36 109.834 66 159.501s70.333 95.834 121 138.501zM468.998 651.999
c-68 -51.333 -118.664 -143 -151.997 -275c-10.667 -45.333 -16.667 -92.666 -18 -141.999s3.66699 -94.5 15 -135.5s30 -74.833 56 -101.5s60.667 -40 104 -40c34 0 65.667 8.66699 95 26s56 40.666 80 69.999s44.833 63.333 62.5 102s31.834 79.667 42.501 123
c7.33301 30 12.666 61.167 15.999 93.5s4.16602 64 2.49902 95s-6.33398 60.167 -14.001 87.5s-18.5 51.333 -32.5 72s-31.333 37 -52 49s-45.334 18 -74.001 18c-46 0 -89.667 -14.667 -131 -44v2z" />
    <glyph glyph-name="p" unicode="p" horiz-adv-x="900" 
d="M-101 -426c29.333 1.33301 53.168 4.83496 71.501 10.502s33.166 13.5 44.499 23.5s19.833 22.333 25.5 37s11.167 32 16.5 52l210 841c5.33301 23.333 8.5 41.5 9.5 54.5s-0.333008 22.667 -4 29s-10 10.333 -19 12s-20.5 3.16699 -34.5 4.5
c-7.33301 0 -14.666 -0.333008 -21.999 -1s-16.333 -3.33398 -27 -8.00098l11 42l90 28c23.333 7.33301 51.5 15.333 84.5 24s70.167 20 111.5 34l9 -12l-28 -114c30 24 57.667 44.167 83 60.5s49.5 29.666 72.5 39.999s45.5 17.833 67.5 22.5s44.667 7 68 7
c39.333 0 75 -8.83301 107 -26.5s57.667 -43 77 -76s31.166 -73.667 35.499 -122s-1.16699 -102.833 -16.5 -163.5c-14 -56.667 -37.167 -112.667 -69.5 -168s-70.5 -105 -114.5 -149s-92.167 -79.5 -144.5 -106.5s-105.166 -40.5 -158.499 -40.5
c-38 0 -71 4.83301 -99 14.5s-51 28.167 -69 55.5l-68 -273c-6.66699 -27.333 -10.834 -48.833 -12.501 -64.5s1.5 -27.667 9.5 -36s21.833 -14.5 41.5 -18.5s47.5 -7.66699 83.5 -11l-10 -40h-441zM359.002 7.00195c24 -18.667 57.001 -28.001 99.001 -28.001
c31.333 0 62.666 8.33301 93.999 25s60.833 40.334 88.5 71.001s52.667 67.5 75 110.5s40.166 90.833 53.499 143.5c12 50 16.833 94.5 14.5 133.5s-10.333 72 -24 99s-32.5 47.667 -56.5 62s-51.333 21.5 -82 21.5c-19.333 0 -39.666 -3.66699 -60.999 -11
s-41.5 -16.5 -60.5 -27.5s-35.5 -23.333 -49.5 -37s-22.333 -26.5 -25 -38.5l-109 -438c2 -16 6.66699 -32.333 14 -49s17 -29 29 -37z" />
    <glyph glyph-name="q" unicode="q" horiz-adv-x="870" 
d="M753 743c10 -3.33301 21.833 -8.83008 35.5 -16.4971l45.5 -25.5l55 28.5l54 27.5c4 3.33301 7.33301 4.66602 10 3.99902s4.66699 -2.33398 6 -5.00098s2.16602 -5.83398 2.49902 -9.50098s1.16602 -6.5 2.49902 -8.5l-266 -1064c-4 -16 -5.83301 -30.167 -5.5 -42.5
s3.66602 -23 9.99902 -32s16.333 -16 30 -21s31.834 -8.16699 54.501 -9.5l-8 -33h-434l9 38c24.667 0 47.167 1.5 67.5 4.5s37.833 9 52.5 18s27.5 22.167 38.5 39.5s20.167 40.666 27.5 69.999l81 326c-28 -24 -54.667 -44.167 -80 -60.5s-49.666 -29.166 -72.999 -38.499
s-46.666 -16 -69.999 -20s-47.666 -6 -72.999 -6c-35.333 0 -68.5 8.66699 -99.5 26s-56.333 42.833 -76 76.5s-32 75.667 -37 126s0.833008 108.5 17.5 174.5c16 66 41.667 126.5 77 181.5s76.666 102.333 123.999 142s99.5 70.5 156.5 92.5s115.833 33 176.5 33
c17.333 0 33.5 -1.5 48.5 -4.5s28.5 -6.83301 40.5 -11.5zM510 37.0029c32.667 9.33301 58.334 18.499 77.001 27.499s32.667 18.333 42 28s15.666 20 18.999 31l11 37.5l91 367c14 56.667 11.667 100 -7 130s-56.667 45 -114 45c-42 0 -80.667 -9.66699 -116 -29
s-66.5 -44.666 -93.5 -75.999s-50.167 -66.833 -69.5 -106.5s-34 -80.167 -44 -121.5c-11.333 -45.333 -17.666 -88.666 -18.999 -129.999s3.5 -77.833 14.5 -109.5s28.5 -56.834 52.5 -75.501s55.667 -28 95 -28c7.33301 0 16.166 1.16699 26.499 3.5s20.5 3.5 30.5 3.5z
" />
    <glyph glyph-name="r" unicode="r" horiz-adv-x="628" 
d="M2 -38c26.667 1.33301 48.999 3.83008 66.999 7.49707s33.333 9.66699 46 18s22.834 19.833 30.501 34.5s14.5 33.667 20.5 57l98 394c6 23.333 10.5 44.5 13.5 63.5s3.5 35.333 1.5 49s-7.33301 24.334 -16 32.001s-21.667 12.167 -39 13.5c-8 0 -17 -1.5 -27 -4.5
s-19 -5.16699 -27 -6.5l10 41c37.333 10 68.166 18.833 92.499 26.5s46.333 15 66 22l60 22l74.5 27.5l8 -2c2.66699 -3.33301 4.16699 -5.83301 4.5 -7.5s0.166016 -3.16699 -0.500977 -4.5l-34 -139c44.667 48 88.167 85.5 130.5 112.5s82.166 40.5 119.499 40.5
c30 0 52.333 -10 67 -30l1 2c15.333 -17.333 19 -42.666 11 -75.999c-5.33301 -20 -16.833 -38.333 -34.5 -55s-39.5 -26.334 -65.5 -29.001c-13.333 0 -24.666 2.83301 -33.999 8.5s-18.666 13.5 -27.999 23.5c-10.667 9.33301 -19.334 16.5 -26.001 21.5
s-12.334 8.16699 -17.001 9.5c-8 0 -19.667 -4.16699 -35 -12.5s-30.666 -19.333 -45.999 -33s-29.666 -29.5 -42.999 -47.5s-22.333 -36.333 -27 -55l-99 -395c-6 -23.333 -9.16699 -43.166 -9.5 -59.499s3.83398 -29.666 12.501 -39.999s22.167 -17.833 40.5 -22.5
s43.5 -7 75.5 -7l-9 -37h-441z" />
    <glyph glyph-name="s" unicode="s" horiz-adv-x="649" 
d="M117 212l37 -0.00292969c-0.666992 -35.333 0 -65.833 2 -91.5s7.33301 -47.167 16 -64.5c11.333 -32 29.333 -56 54 -72s57 -24 97 -24c21.333 0 40.833 3.16699 58.5 9.5s34.5 14.833 50.5 25.5v-2c28 22.667 46.667 53 56 91c3.33301 11.333 5 22.5 5 33.5
s-2.66699 23.167 -8 36.5c-2.66699 9.33301 -9.16699 19.333 -19.5 30s-23.833 21.334 -40.5 32.001l-83 56c-29.333 22.667 -54.333 43.334 -75 62.001s-38.334 38.667 -53.001 60c-14 19.333 -22.167 41 -24.5 65s-0.5 48.667 5.5 74c8.66699 34 22.5 64.167 41.5 90.5
s43.167 50.5 72.5 72.5c30 23.333 60.833 40 92.5 50s65.5 15 101.5 15c16.667 0 33 -1.16699 49 -3.5s32.667 -6.5 50 -12.5c12.667 -6 24 -10.333 34 -13l23 -6c3.33301 0 6.66602 0.5 9.99902 1.5s7 2.16699 11 3.5c3.33301 1.33301 7.66602 6 12.999 14h30l-56 -254h-37
c2 29.333 1.83301 55 -0.5 77s-6.5 41.667 -12.5 59c-20 55.333 -63.333 83 -130 83c-42 0 -70.333 -7 -85 -21c-17.333 -14 -32.333 -29.333 -45 -46s-22 -33.667 -28 -51c-6.66699 -26 -3.16699 -50.333 10.5 -73s37.834 -45 72.501 -67l101 -63
c52 -34 89.333 -71 112 -111s28.334 -83 17.001 -129c-9.33301 -37.333 -24 -70 -44 -98s-47 -53.667 -81 -77l1 2c-31.333 -23.333 -65.166 -40.333 -101.499 -51s-75.833 -16 -118.5 -16c-37.333 0 -76 5.33301 -116 16c-14 5.33301 -27 9.5 -39 12.5
s-23.333 5.16699 -34 6.5c-2.66699 0 -5.5 -0.166992 -8.5 -0.5s-5.5 -1.83301 -7.5 -4.5c-2.66699 -2 -5 -4.16699 -7 -6.5s-5.33301 -7.16602 -10 -14.499h-32z" />
    <glyph glyph-name="t" unicode="t" horiz-adv-x="526" 
d="M658 743l-19 -75.002h-180l-124 -498c-14.667 -57.333 -17.667 -97.666 -9 -120.999s28.334 -35 59.001 -35c6.66699 0 13.5 0.333008 20.5 1s15 3 24 7s19.667 10.5 32 19.5s27.166 21.5 44.499 37.5l23 -28l-26 -28c-34.667 -37.333 -72.334 -65.666 -113.001 -84.999
s-79 -29 -115 -29c-58.667 0 -96 19.833 -112 59.5s-14.333 98.167 5 175.5l131 524h-94c-5.33301 0 -9.66602 1.5 -12.999 4.5s-4.33301 7.16699 -3 12.5c0 -0.666992 5.5 3.33301 16.5 12l43 35.5l60 52l70 62l71 64.5l62.5 60c7.33301 0 12.5 -1.83301 15.5 -5.5
s3.83301 -8.16699 2.5 -13.5l-52 -209h180z" />
    <glyph glyph-name="u" unicode="u" horiz-adv-x="883" 
d="M471 745l-140.998 -565.999c-12.667 -50 -12 -88.5 2 -115.5s44 -40.5 90 -40.5c32 0 65.333 8.83301 100 26.5s69.334 41.5 104.001 71.5l119 478c4.66699 20 7.5 36.167 8.5 48.5s-1.83301 22.5 -8.5 30.5s-18.334 14.167 -35.001 18.5s-40 8.16602 -70 11.499l9 37
h293l-155 -621l-10 -45.5c-2.66699 -12.333 -1.5 -22.333 3.5 -30s14.5 -13.167 28.5 -16.5s35.667 -5 65 -5l-8 -34l-49 -12c-6.66699 -1.33301 -27.834 -7.5 -63.501 -18.5l-168.5 -51.5l34 148c-52.667 -50 -103.5 -87.5 -152.5 -112.5s-97.5 -37.5 -145.5 -37.5
c-24.667 0 -48.834 4 -72.501 12s-43.5 21.333 -59.5 40s-26.833 43.167 -32.5 73.5s-2.83398 67.833 8.49902 112.5l114 456c4.66699 20 7.33398 36.5 8.00098 49.5s-2 23.667 -8 32s-15.833 14.333 -29.5 18s-32.5 6.16699 -56.5 7.5l8 35h270z" />
    <glyph glyph-name="v" unicode="v" horiz-adv-x="839" 
d="M554 747l-9.00098 -36.998c-12 -1.33301 -23 -2.33301 -33 -3s-19.167 -2.33398 -27.5 -5.00098s-15.666 -7 -21.999 -13s-10.833 -14.333 -13.5 -25l-3 -14c-1.33301 -4.66699 -1.66602 -10.334 -0.999023 -17.001l5 -30l68 -442l125 195l126 195l36.5 61.5
c12.333 20.333 19.5 35.166 21.5 44.499c4 15.333 0.833008 28 -9.5 38s-31.5 15 -63.5 15l9 37h259l-9 -37c-16 0 -29.667 -2.16699 -41 -6.5s-22.166 -11.666 -32.499 -21.999s-21.5 -24.5 -33.5 -42.5l-44 -68l-422 -646c-1.33301 -4 -3.33301 -7.16699 -6 -9.5
s-5.5 -4 -8.5 -5s-5.83301 -1.5 -8.5 -1.5h-2c-4.66699 0 -9.83398 3.66699 -15.501 11s-8.16699 16.333 -7.5 27v-1l-54.5 320.5l-53.5 320.5c-5.33301 28 -11.333 50.833 -18 68.5s-13.667 30.5 -21 38.5l-1 -2c-6.66699 4.66699 -14.834 8.5 -24.501 11.5
s-22.167 5.16699 -37.5 6.5l9 37h363z" />
    <glyph glyph-name="w" unicode="w" horiz-adv-x="1229" 
d="M990 710c-36.667 -2 -63.832 -6.83203 -81.499 -14.499s-30.167 -21.167 -37.5 -40.5c-1.33301 -6 -2.33301 -11.667 -3 -17s-0.666992 -12.333 0 -21v-2c-0.666992 -1.33301 -0.666992 -4 0 -8s1.5 -8.33301 2.5 -13s1.83301 -9.16699 2.5 -13.5s0.666992 -7.5 0 -9.5
c8 -66.667 17 -133.167 27 -199.5s19.333 -133.5 28 -201.5l144 213.5c48.667 71 94.334 143.5 137.001 217.5v-2l16.5 35c4.33301 9.33301 7.16602 17 8.49902 23c2.66699 10.667 3.16699 19 1.5 25s-5.33398 10.667 -11.001 14s-13.167 6.16602 -22.5 8.49902l-33 8.5
l9 34h233l-9 -34c-10 -3.33301 -18.167 -6.5 -24.5 -9.5s-12.5 -6.16699 -18.5 -9.5l-21 -28c-3.33301 -4 -7 -8.83301 -11 -14.5l-11.5 -16.5l-9.5 -13.5c-2.66699 -3.66699 -4 -5.83398 -4 -6.50098l-224.5 -342.5l-224.5 -342.5l-19 -19l-7 -2l-16 14l-71 475
l-173.5 -238.5l-171.5 -238.5v2l-5 -7c-1.33301 -2 -2.33301 -3.66699 -3 -5l-14 -2c-4.66699 2.66699 -9.66699 7.33398 -15 14.001l-100 641c-6 36 -10.833 63.833 -14.5 83.5s-6.83398 33.5 -9.50098 41.5h2c-3.33301 5.33301 -9 9.83301 -17 13.5
s-19.667 6.16699 -35 7.5l9 37h333l-9 -37c-23.333 0 -44 -3.33301 -62 -10s-30 -21 -36 -43c-2 -8.66699 -3.5 -18 -4.5 -28s-0.833008 -24 0.5 -42s4.33301 -42.167 9 -72.5s11.667 -69.833 21 -118.5l34 -238l117.5 163l117.5 163
c0.666992 1.33301 1.33398 2.5 2.00098 3.5s1.33398 2.16699 2.00098 3.5l2 8c0.666992 3.33301 1 8.83301 1 16.5s-1.16699 18.334 -3.5 32.001s-6.5 31.5 -12.5 53.5c-2 19.333 -4.33301 35.5 -7 48.5s-6.83398 23.667 -12.501 32s-14 14.666 -25 18.999
s-26.167 7.5 -45.5 9.5l9 37h375z" />
    <glyph glyph-name="x" unicode="x" horiz-adv-x="846" 
d="M585 740l-8.00098 -33.9961c-22 0 -42 -3.33301 -60 -10c-7.33301 -1.33301 -13.666 -4.5 -18.999 -9.5s-9 -11.167 -11 -18.5c2 -11.333 5.16699 -25.5 9.5 -42.5s9.16602 -33.5 14.499 -49.5c1.33301 -3.33301 3.16602 -8.83301 5.49902 -16.5s5.5 -14.834 9.5 -21.501
l8.5 -31c3 -11.333 6.16699 -19.666 9.5 -24.999c6.66699 5.33301 13.167 11.5 19.5 18.5l20.5 23.5l36 37c11.333 12 19.333 20.667 24 26c38.667 44 59.334 71 62.001 81c3.33301 14 0.333008 23.333 -9 28c-2 0 -3.33301 0.333008 -4 1l-2 2
c-5.33301 2 -20 4.33301 -44 7l8 34h291l-8 -34c-17.333 -1.33301 -33.166 -4.16602 -47.499 -8.49902s-29.166 -9.5 -44.499 -15.5c-15.333 -8 -28.333 -16 -39 -24s-22 -17.667 -34 -29l-199 -214l69.5 -174l71.5 -173c17.333 -42.667 34.333 -71.667 51 -87
c8.66699 -8 18.5 -13.5 29.5 -16.5s24.167 -4.5 39.5 -4.5l-9 -35h-372l9 35h32c5.33301 0 10.5 1.16699 15.5 3.5s11.167 5.83301 18.5 10.5c4 2.66699 7.16699 6 9.5 10l6.5 11c0 4.66699 -1.33301 12.167 -4 22.5s-6 24.166 -10 41.499h2
c-0.666992 1.33301 -1.5 3.66602 -2.5 6.99902s-1.83301 5.66602 -2.5 6.99902l-11 23c-1.33301 5.33301 -2.66602 9 -3.99902 11c-2 5.33301 -4 11.166 -6 17.499s-4 12.166 -6 17.499c-0.666992 2.66699 -2 6.33398 -4 11.001s-4 9.66699 -6 15l-5 13
c-2 5.33301 -4 10.166 -6 14.499l-5 10.5c-1.33301 2.66699 -2 3 -2 1c-3.33301 6 -6.5 13.5 -9.5 22.5s-6.16699 16.167 -9.5 21.5c-2.66699 3.33301 -4.66699 7 -6 11s-2.33301 7.33301 -3 10l-95.5 -105.5l-94.5 -105.5c-4 -5.33301 -9.16699 -11.5 -15.5 -18.5
s-11.166 -12.833 -14.499 -17.5l-14 -18c0 -1.33301 -0.666992 -2.5 -2 -3.5s-2 -2.16699 -2 -3.5c-2.66699 -4 -4.33398 -6.66699 -5.00098 -8c-1.33301 -1.33301 -2 -2.66602 -2 -3.99902c-2.66699 -8.66699 -0.333984 -14 6.99902 -16c6.66699 -6 26.667 -10 60 -12
l-9 -35h-269l9 35c18.667 3.33301 34.667 6.66602 48 9.99902s24.666 8.66602 33.999 15.999c5.33301 3.33301 13.5 10 24.5 20s26.167 25 45.5 45l276 294l-53 126.5l-51 127.5c-9.33301 24.667 -18.166 43.834 -26.499 57.501s-14.5 23.167 -18.5 28.5
c-7.33301 4.66699 -17.333 9 -30 13s-29.334 6.66699 -50.001 8l8 34h380z" />
    <glyph glyph-name="y" unicode="y" horiz-adv-x="842" 
d="M189 740l376.997 0.000976562l-9 -37c-14 0 -26.833 -0.833008 -38.5 -2.5s-21.167 -3.16699 -28.5 -4.5c-28.667 -9.33301 -45.334 -22.333 -50.001 -39l-2 -10c-0.666992 -2.66699 -0.666992 -5.66699 0 -9l-1 -4c0 -3.33301 0.666992 -8.16602 2 -14.499
s3.66602 -14.833 6.99902 -25.5l90 -440l136 222l137 223c2.66699 4.66699 7 13 13 25s10.333 23.667 13 35c2.66699 10 2.33398 17.833 -0.999023 23.5s-8.66602 10 -15.999 13s-15.666 5 -24.999 6s-19 1.5 -29 1.5l9 37h249l-9 -37
c-27.333 -2 -48.666 -10.667 -63.999 -26s-28.333 -33 -39 -53l-459 -729c-40 -63.333 -76.833 -117.833 -110.5 -163.5s-66.167 -83.167 -97.5 -112.5s-63.166 -50.833 -95.499 -64.5s-67.5 -20.5 -105.5 -20.5c-15.333 0 -29.833 2.16699 -43.5 6.5
s-25.667 10.666 -36 18.999s-17.666 19.166 -21.999 32.499s-4.5 29 -0.5 47c6.66699 25.333 21 46 43 62s46.667 24 74 24c8 0 17.833 -1.66699 29.5 -5s23.5 -7.16602 35.5 -11.499s23.5 -8.16602 34.5 -11.499s19.5 -5 25.5 -5c10 0 22.167 5.66699 36.5 17
s29.166 25.666 44.499 42.999s30.833 36.5 46.5 57.5s29.834 41.167 42.501 60.5s23.5 36.5 32.5 51.5s14.5 25.5 16.5 31.5c0 1.33301 -0.833008 5.16602 -2.5 11.499s-1.16699 14.833 1.5 25.5l-64 303.5l-65 303.5c-6 16 -10 29.833 -12 41.5s-5.5 21.667 -10.5 30
s-12.333 15.5 -22 21.5s-24.834 11.333 -45.501 16z" />
    <glyph glyph-name="z" unicode="z" horiz-adv-x="770" 
d="M902 740l-6.99902 -29.999l-663 -720h238c45.333 0 81.666 2.66699 108.999 8s47 12.666 59 21.999c22.667 18 58 72.667 106 164l37 -9l-85 -250h-687l7 28l654 725h-224c-32.667 0 -59.667 -2.66699 -81 -8s-38 -12.666 -50 -21.999
c-10 -9.33301 -20.667 -24.333 -32 -45s-24.333 -49.334 -39 -86.001h-39l58 223h639z" />
    <glyph glyph-name="braceleft" unicode="{" horiz-adv-x="983" 
d="M1144 1478c-140.667 -18.667 -232.666 -114.995 -275.999 -288.995l-98 -392c-22 -89.333 -51.833 -153 -89.5 -191s-102.167 -70.333 -193.5 -97c82.667 -25.333 132.167 -60.166 148.5 -104.499s12.5 -114.5 -11.5 -210.5c-8.66699 -34.667 -24 -87.334 -46 -158.001
s-37.333 -123.334 -46 -158.001c-48.667 -194.667 -7 -305 125 -331l-22 -36c-128 0 -207.667 32.333 -239 97c-28 55.333 -26 149.666 6 282.999l45 179l47 180c17.333 69.333 21.666 121.666 12.999 156.999c-10 46 -41.667 80 -95 102
c111.333 40.667 188.666 148.667 231.999 324c8 31.333 18.333 78.666 31 141.999s23 110.666 31 141.999c34 137.333 77 235.333 129 294c66.667 71.333 164.334 107 293.001 107z" />
    <glyph glyph-name="bar" unicode="|" horiz-adv-x="344" 
d="M522 1089l-290 -1163h-123l290 1163h123z" />
    <glyph glyph-name="braceright" unicode="}" horiz-adv-x="983" 
d="M921 509c-64 -22 -112.333 -56.0029 -145 -102.003c-24.667 -34 -45.667 -86.333 -63 -157l-45 -180c-28.667 -116.667 -43.334 -177.667 -44.001 -183c-34 -130 -77.667 -222.333 -131 -277c-66 -66 -163 -99 -291 -99l-4 36c144 26 240.333 136.333 289 331
c8.66699 34.667 19.667 87.334 33 158.001s24.333 123.334 33 158.001c24 96 55.333 166.167 94 210.5s105.334 79.166 200.001 104.499c-78.667 26.667 -126.667 59 -144 97s-15 101.667 7 191l98 392c43.333 174 -1 270.333 -133 289l34 40
c129.333 0 209 -35.667 239 -107c22.667 -58.667 17 -156.667 -17 -294c-8 -31.333 -21.167 -78.666 -39.5 -141.999s-31.5 -110.666 -39.5 -141.999c-43.333 -175.333 -20.333 -283.333 69 -324z" />
    <glyph glyph-name="asciitilde" unicode="~" horiz-adv-x="969" 
d="M408 1146l783.001 0.00195312l-102 -103h-210c10 -16.667 16.833 -37.5 20.5 -62.5s4.83398 -49.833 3.50098 -74.5h224l2 -2l-103 -110h-146c-6.66699 -21.333 -17.167 -43.333 -31.5 -66s-33.5 -48 -57.5 -76c-62.667 -54.667 -126.334 -94.834 -191.001 -120.501
s-130 -38.5 -196 -38.5v-2c-2 -8 9.33301 -31 34 -69l273 -466l-6 -24c-0.666992 -1.33301 -3.33398 -2 -8.00098 -2h-168l-245 402c-54.667 89.333 -82 134.666 -82 135.999l29 115c13.333 -2.66699 27.833 -5 43.5 -7s32.167 -3 49.5 -3c172 0 293 55.667 363 167
c5.33301 8.66699 9.83301 17.667 13.5 27s6.5 18.333 8.5 27h-466l-1 2l106 110h369l1 2c-5.33301 21.333 -15.333 42.833 -30 64.5s-36 38.167 -64 49.5c-40 14 -76.667 21 -110 21h-208l1 5z" />
    <glyph glyph-name="multiply" unicode="&#xd7;" horiz-adv-x="1155" 
d="M246 328l441 353l-264 352l73 58l264 -352l440 352l41 -57l-439 -352l265 -354l-71 -58l-266 354l-441 -353z" />
    <glyph glyph-name="uni0964" unicode="&#x964;" horiz-adv-x="1102" 
d="M1169 1030l-277 -1111l-82 104l274 1097z" />
    <glyph glyph-name="uni0965" unicode="&#x965;" horiz-adv-x="1099" 
d="M869 1030l-277 -1111l-82 104l274 1097zM1219 1030l-277 -1111l-82 104l274 1097z" />
    <glyph glyph-name="uni0981" unicode="&#x981;" 
d="M109 1751c-12 -48.667 -44 -73 -96 -73c-53.333 0 -74 24.333 -62 73s44.667 73 98 73c52 0 72 -24.333 60 -73zM251 1710c-16.667 -65.333 -51.667 -123.333 -105 -174c-54 -51.333 -113 -77 -177 -77c-78 0 -138.667 38.333 -182 115c-34.667 62 -52 136.667 -52 224
l38 -5c36.667 -146.667 107.667 -220 213 -220c79.333 0 163.333 67.667 252 203l19 -22l-2 -21.5c-0.666992 -7 -2 -14.5 -4 -22.5z" />
    <glyph glyph-name="uni0982" unicode="&#x982;" horiz-adv-x="714" 
d="M820 917c-6.66699 -31.333 -19.5 -62.332 -38.5 -92.999s-41.167 -58.334 -66.5 -83.001c-57.333 -50.667 -118.666 -76.667 -183.999 -78c-74 -2.66699 -130 22 -168 74c-38.667 54 -48.667 117.667 -30 191c17.333 70.667 55.666 131.667 114.999 183
c56.667 50.667 121 75 193 73c68.667 0 119.667 -27.667 153 -83c30 -54 38.667 -115.333 26 -184zM759 -185.999c-58 90.667 -129.332 178.833 -213.999 264.5s-183 170.5 -295 254.5l60 241c76 -86.667 152.667 -186.667 230 -300s156.666 -241.333 237.999 -384z
M731.001 928c15.333 37.333 15 68 -1 92c-16.667 24.667 -43.334 36 -80.001 34c-46 -1.33301 -91 -19.666 -135 -54.999c-45.333 -36 -76.666 -76.333 -93.999 -121c-12.667 -36.667 -13.334 -66.167 -2.00098 -88.5s35.333 -33.5 72 -33.5c40.667 0 86.334 19 137.001 57
c52.667 37.333 87 75.666 103 114.999z" />
    <glyph glyph-name="uni0983" unicode="&#x983;" horiz-adv-x="714" 
d="M916 917c-6.66699 -32 -18.666 -62.834 -35.999 -92.501s-41 -57.5 -71 -83.5h1c-56.667 -51.333 -117.667 -77.333 -183 -78c-74 -3.33301 -130.333 21.334 -169 74.001c-18.667 27.333 -30.334 57 -35.001 89s-2.33398 66 6.99902 102c18 72 55.333 133 112 183
c56.667 50.667 121.334 75 194.001 73c68.667 0 119.667 -27.667 153 -83c30.667 -54 39.667 -115.333 27 -184zM744.001 226.999c-6.66699 -32 -19.001 -62.834 -37.001 -92.501s-41 -57.167 -69 -82.5c-27.333 -25.333 -56.5 -44.666 -87.5 -57.999
s-62.833 -20.333 -95.5 -21c-74 -3.33301 -130.333 21.667 -169 75c-37.333 53.333 -46.666 116.666 -27.999 189.999c18 72.667 55 133.667 111 183c57.333 50.667 122.333 75 195 73c68.667 0 119.667 -27.667 153 -83c30.667 -51.333 39.667 -112.666 27 -183.999z
M826 927.998c16 36.667 15.667 67.333 -1 92s-43 36 -79 34c-46.667 -1.33301 -92 -19.666 -136 -54.999c-45.333 -36 -76.666 -76.333 -93.999 -121c-12.667 -36.667 -13.334 -66.167 -2.00098 -88.5s35.333 -33.5 72 -33.5c40 0 85.667 19 137 57
c52.667 37.333 87 75.666 103 114.999zM654 237.997c8 18.667 11.667 35.668 11 51.001s-4.66699 29.333 -12 42c-18 24 -44 35.667 -78 35c-46.667 -1.33301 -92.334 -20 -137.001 -56c-45.333 -36 -76.666 -76.667 -93.999 -122c-12.667 -36 -13.5 -65 -2.5 -87
s35.167 -33 72.5 -33c39.333 0 85 18.333 137 55c52.667 37.333 87 75.666 103 114.999z" />
    <glyph glyph-name="uni0985" unicode="&#x985;" horiz-adv-x="1407" 
d="M863 1041c54 -3.33301 100.337 -17.9971 139.004 -43.9971s72.334 -63.667 101.001 -113c26 -46 41.167 -97.5 45.5 -154.5s-0.833984 -117.833 -15.501 -182.5c19.333 -23.333 36.166 -54 50.499 -92s25.833 -81.667 34.5 -131l206 826h-1151l-72 109h1472l72 -109h-222
l-302 -1213l-46 61c12.667 90 4.33398 186.333 -24.999 289c-16 66 -47 110.667 -93 134c-114.667 -126 -234.334 -189 -359.001 -189c-76.667 0 -143.5 25.5 -200.5 76.5s-102.167 122.5 -135.5 214.5c-24.667 74.667 -43.334 154.167 -56.001 238.5
s-17.667 174.166 -15 269.499l48 -20c4.66699 -81.333 14.834 -155 30.501 -221s37.167 -124 64.5 -174c72.667 -134.667 176.667 -202 312 -202c63.333 0 123.666 19 180.999 57c57.333 38.667 93.333 86.667 108 144c16 64.667 15 119.334 -3 164.001
c-12 30 -27.333 52.667 -46 68s-39.334 23.666 -62.001 24.999c-6 -20.667 -15.167 -39.5 -27.5 -56.5s-27.833 -33.167 -46.5 -48.5c-36 -28.667 -75.333 -43 -118 -43s-75.334 15 -98.001 45c-22.667 32.667 -28.667 70 -18 112c4.66699 18 12 35.333 22 52
s22 31.667 36 45s29.333 24.666 46 33.999s35.5 16.166 56.5 20.499s35 6.83301 42 7.5s13.833 1 20.5 1h24z" />
    <glyph glyph-name="uni0986" unicode="&#x986;" horiz-adv-x="1845" 
d="M859 1042c106 -6.66699 187.338 -59.3301 244.005 -157.997c26 -46 41.167 -97.5 45.5 -154.5s-0.833984 -117.833 -15.501 -182.5c19.333 -23.333 36.166 -54 50.499 -92s25.833 -81.667 34.5 -131l206 826h-1151l-72 109h1493
c25.333 -5.33301 46.833 -18.833 64.5 -40.5s32.834 -48.5 45.501 -80.5c6.66699 -19.333 12.834 -43 18.501 -71s10.5 -60.333 14.5 -97c1.33301 -10.667 2.66602 -20.5 3.99902 -29.5s2.33301 -15.167 3 -18.5c4.66699 8.66699 8.66699 19.667 12 33
c7.33301 29.333 12.333 69.666 15 120.999l19 171l53 211l35 -47c-13.333 -54 -14.833 -92.833 -4.5 -116.5s32.166 -35.5 65.499 -35.5h77l72 -109h-222l-302 -1213l-76 99l206 790c5.33301 24 7.16602 51.833 5.49902 83.5s-6.83398 64.5 -15.501 98.5
c-12 38.667 -28 70.167 -48 94.5s-43 40.166 -69 47.499h-144l-302 -1213l-46 61c12.667 90 4.33398 186.333 -24.999 289c-16 66 -47 110.667 -93 134c-114.667 -126 -234.334 -189 -359.001 -189c-36 0 -69.333 5.83301 -100 17.5s-59.667 28.167 -87 49.5
c-64 50.667 -113.667 125.334 -149 224.001c-14 42.667 -26.167 87 -36.5 133s-18.5 94 -24.5 144c-8.66699 74 -12 151 -10 231l48 -20c2.66699 -34.667 5.83398 -67.834 9.50098 -99.501s8.5 -62.167 14.5 -91.5c16 -78 39.667 -146 71 -204
c41.333 -78 93.333 -133.333 156 -166c46 -24 98 -36 156 -36c63.333 0 123.666 19 180.999 57c57.333 38.667 93.333 86.667 108 144c16 64.667 15 119.334 -3 164.001c-12 30 -27.333 52.667 -46 68s-39.334 23.666 -62.001 24.999c-6 -20.667 -15.167 -39.5 -27.5 -56.5
s-27.833 -33.167 -46.5 -48.5c-36 -28.667 -75.333 -43 -118 -43s-75.334 15 -98.001 45c-22.667 32.667 -28.667 70 -18 112c4.66699 18 12 35.333 22 52s22 31.667 36 45s29.333 24.666 46 33.999s33.834 16.166 51.501 20.499s32.667 7.33301 45 9
s26.5 1.83398 42.5 0.500977z" />
    <glyph glyph-name="uni0987" unicode="&#x987;" horiz-adv-x="1100" 
d="M1006 -112l-33.502 41l-33.5 41v-1l-61.5 59l-40.5 38c-10.667 10 -20 18 -28 24l-23 18l-53.5 39l-53.5 38l-86.5 54l-84.5 54c-24.667 10 -54.834 20.333 -90.501 31s-75.834 21.667 -120.501 33l-49 265c34 -23.333 64.167 -41.5 90.5 -54.5s49.333 -22.833 69 -29.5
s36.167 -10.667 49.5 -12s24.333 -2.33301 33 -3c5.33301 -0.666992 10.333 -1 15 -1h15c44.667 0 91 6.16699 139 18.5s93 29.333 135 51s78.167 46.834 108.5 75.501s49.5 59.334 57.5 92.001c6 26 5.5 49 -1.5 69s-18.167 36.833 -33.5 50.5s-33.833 24.167 -55.5 31.5
s-43.834 11 -66.501 11c-10 0 -18.667 -0.333008 -26 -1s-14 -2.66699 -20 -6c-7.33301 -26 -20 -51.333 -38 -76s-38.833 -46.834 -62.5 -66.501s-50 -35.667 -79 -48s-57.833 -18.5 -86.5 -18.5c-13.333 0 -25.833 3.83301 -37.5 11.5s-21.5 18 -29.5 31
s-13.5 28.333 -16.5 46s-2.16699 36.167 2.5 55.5c4 15.333 10.5 30.833 19.5 46.5s21.333 31 37 46s34.834 29.333 57.501 43s50 26.5 82 38.5l91 28c2 2 2.83301 5.5 2.5 10.5s-1.5 10.167 -3.5 15.5c-2.66699 3.33301 -4.66699 7 -6 11s-3 8 -5 12
c-2.66699 4.66699 -5.5 9 -8.5 13s-6.16699 8 -9.5 12c-10.667 12.667 -22 21 -34 25h-349l-91 109h841c84 0 135.667 28.667 155 86c10 30 -8.66699 54 -56 72c-35.333 13.333 -70.666 21 -105.999 23l-225 -5h-29c-50.667 0 -97.167 1.5 -139.5 4.5
s-78.5 7.16699 -108.5 12.5c-56 12 -94.333 38.333 -115 79c-18 43.333 -20.667 91 -8 143c13.333 51.333 39 95.666 77 132.999l35 -20c-12 -13.333 -21.667 -26.833 -29 -40.5s-12.666 -27.167 -15.999 -40.5c-10 -40 -2 -72 24 -96c26.667 -24.667 61.667 -37 105 -37
c23.333 0 51.833 0.666992 85.5 2s73.834 3.33301 120.501 6c90.667 6 160 9 208 9c98.667 0 172 -30.333 220 -91c46 -58 54 -138 24 -240h111l86 -109h-661v-17v-13c0 -4 0.333008 -8 1 -12c0 -4 0.333008 -8.16699 1 -12.5l2 -12.5c0 -3.33301 0.166992 -6.5 0.5 -9.5
s1.5 -6.16699 3.5 -9.5l4 -6l5 -5c3.33301 -0.666992 6 -1.5 8 -2.5s4.66699 -1.83301 8 -2.5c4.66699 0 11 -1.5 19 -4.5s20 -7.16699 36 -12.5c4.66699 -2 9.83398 -3.83301 15.501 -5.5s11.834 -3.83398 18.501 -6.50098c25.333 -12 48.166 -28.667 68.499 -50
s36.833 -45.333 49.5 -72s20.667 -55.5 24 -86.5s1.33301 -61.833 -6 -92.5c-13.333 -51.333 -35 -95.666 -65 -132.999s-64.167 -69 -102.5 -95s-79 -47 -122 -63s-84.167 -28.333 -123.5 -37l116.5 -86.5c31 -23.667 57.167 -44.834 78.5 -63.501s39.333 -35.667 54 -51
s28.667 -31.666 42 -48.999l113 -158l3 -151l-2 -2z" />
    <glyph glyph-name="uni0988" unicode="&#x988;" horiz-adv-x="1219" 
d="M1562 1150l-944 0.00585938c-5.33301 0 -8.83301 -2 -10.5 -6s-3.5 -10.333 -5.5 -19c-2 -8 -3 -18.667 -3 -32c0.666992 -4.66699 1.16699 -9 1.5 -13s0.833008 -8.33301 1.5 -13c2 -10 4 -17.667 6 -23s5.66699 -8.33301 11 -9c16.667 0 31.834 -1.5 45.501 -4.5
s26.5 -7.5 38.5 -13.5s23.667 -13.333 35 -22s22.666 -18.334 33.999 -29.001c59.333 -58 79 -134.667 59 -230c52 48 99.5 88.667 142.5 122s84.167 59.666 123.5 78.999c47.333 24 90 37.667 128 41l147 -120c-43.333 -40 -84.5 -83.333 -123.5 -130
s-75.833 -97 -110.5 -151c-68.667 -111.333 -118.334 -218.333 -149.001 -321c-2.66699 -7.33301 -5 -16 -7 -26l-6 -24c-12.667 -50.667 -21.167 -98.334 -25.5 -143.001s-3.83301 -87 1.5 -127l-55 35c-22 98 -14 223 24 375c20.667 83.333 46.5 160.5 77.5 231.5
s67.5 136.833 109.5 197.5c-29.333 -12.667 -67.333 -37.5 -114 -74.5s-101.334 -83.833 -164.001 -140.5c-39.333 -36 -77.833 -69.167 -115.5 -99.5s-73.834 -57.5 -108.501 -81.5s-67.334 -44.5 -98.001 -61.5s-58.334 -29.833 -83.001 -38.5c-16 -6 -33.667 -9 -53 -9
c-65.333 0 -108.666 31.667 -129.999 95c-16 42.667 -24 94.667 -24 156l50 40c28 -93.333 65.667 -140 113 -140c28.667 0 75.667 20.333 141 61c32.667 20.667 63.834 43.167 93.501 67.5s59.167 50.5 88.5 78.5c27.333 25.333 45.333 55.666 54 90.999
c8 36 6.33301 69 -5 99c-9.33301 20.667 -21.333 36.667 -36 48s-31.667 17 -51 17c-13.333 0 -24 -1.33301 -32 -4l-1 -3c-10 -45.333 -35 -82.333 -75 -111c-39.333 -30 -79 -45 -119 -45c-42 0 -75.333 15 -100 45c-23.333 30 -29.333 67 -18 111
c10 40.667 34 76.667 72 108c38.667 30.667 78 46 118 46c4 10 5 21.667 3 35c-1.33301 6.66699 -2.5 13.167 -3.5 19.5s-2.83301 12.833 -5.5 19.5c-4 11.333 -8.66699 20.666 -14 27.999c-9.33301 12 -21.333 18 -36 18h-182l-72 109h906c84 0 135.667 28.667 155 86
c10 30 -8.66699 54 -56 72c-35.333 13.333 -70.666 21 -105.999 23l-225 -5h-29c-50.667 0 -97.167 1.5 -139.5 4.5s-78.5 7.16699 -108.5 12.5c-56 12 -94.333 38.333 -115 79c-18 43.333 -20.667 91 -8 143c13.333 51.333 39 95.666 77 132.999l35 -20
c-12 -13.333 -21.667 -26.833 -29 -40.5s-12.666 -27.167 -15.999 -40.5c-10 -40 -2 -72 24 -96c26.667 -24.667 61.667 -37 105 -37c23.333 0 51.833 0.666992 85.5 2s73.834 3.33301 120.501 6c90.667 6 160 9 208 9c98.667 0 172 -30.333 220 -91c46 -58 54 -138 24 -240
h161z" />
    <glyph glyph-name="uni0989" unicode="&#x989;" horiz-adv-x="1237" 
d="M1567 1150l-700.005 -0.000976562l-92 -370c-10 -41.333 -11 -68.333 -3 -81c8.66699 -12 28.334 -18 59.001 -18c9.33301 0 25.5 8.5 48.5 25.5s51.167 41.167 84.5 72.5c22.667 24.667 45.334 47.667 68.001 69c32.667 29.333 60.334 44 83.001 44
c19.333 0 36 -7 50 -21c18.667 -20.667 34.167 -42.834 46.5 -66.501s21.833 -48.167 28.5 -73.5c8 -30 11.833 -61 11.5 -93s-4.83301 -63.333 -13.5 -94c-34.667 -131.333 -101.667 -240.666 -201 -327.999c-47.333 -39.333 -98.5 -70.166 -153.5 -92.499
s-111.167 -33.5 -168.5 -33.5h-14c-5.33301 0 -10.333 0.333008 -15 1c-94 8 -170.333 43.333 -229 106c-60 64 -101.667 155 -125 273c-14.667 75.333 -17 181 -7 317c3.33301 51.333 7.66602 98.5 12.999 141.5s11 82.5 17 118.5l52 -22
c-4 -38 -6.83301 -74.833 -8.5 -110.5s-2.16699 -70.167 -1.5 -103.5c6 -112 20.833 -207 44.5 -285s60.834 -138.333 111.501 -181c57.333 -48.667 128 -73 212 -73c89.333 0 175.333 31.667 258 95c68.667 49.333 119.334 123 152.001 221c5.33301 15.333 8 30.333 8 45
s-3 28.667 -9 42c-11.333 28 -29.666 47 -54.999 57c-16 -18.667 -35.5 -38 -58.5 -58l-74.5 -62c-38 -30 -74.333 -53.333 -109 -70s-66 -25 -94 -25c-40.667 0 -73 15 -97 45c-33.333 38.667 -37.666 107.334 -12.999 206.001l95 382h-495l-72 109h906
c84 0 135.667 28.667 155 86c10 30 -8.66699 54 -56 72c-33.333 13.333 -68.666 21 -105.999 23l-225 -5h-29c-50.667 0 -97.167 1.5 -139.5 4.5s-78.5 7.16699 -108.5 12.5c-56 12 -94.333 38.333 -115 79c-18.667 43.333 -21.334 91 -8.00098 143
c12.667 51.333 38.334 95.666 77.001 132.999l35 -20c-23.333 -27.333 -38.333 -54.333 -45 -81c-10 -40 -2 -72 24 -96c26.667 -24.667 61.667 -37 105 -37c23.333 0 52 0.666992 86 2s74 3.33301 120 6c91.333 6 160.666 9 207.999 9
c99.333 0 172.666 -30.333 219.999 -91c46 -58 54 -138 24 -240h166z" />
    <glyph glyph-name="uni098A" unicode="&#x98a;" horiz-adv-x="1332" 
d="M1662 1150h-645.001l-109 -437c-10 -40.667 -1.33301 -61 26 -61c17.333 0 42.166 10.833 74.499 32.5s69.166 51.5 110.499 89.5c10.667 12.667 25.167 29 43.5 49l64.5 68c20.667 20 37.667 30 51 30c10 0 20 -4 30 -12c90.667 -93.333 116 -221 76 -383
c-32 -126.667 -106.333 -235.334 -223 -326.001c-57.333 -45.333 -116.5 -78.166 -177.5 -98.499s-121.5 -29.5 -181.5 -27.5c-103.333 7.33301 -193.166 37.333 -269.499 90s-134.166 129 -173.499 229c-28.667 76 -44 158.833 -46 248.5s9.33301 186.5 34 290.5l48 -34
c-3.33301 -30 -6.16602 -60 -8.49902 -90s-3.5 -58.333 -3.5 -85c0 -42.667 3 -85.5 9 -128.5s18.667 -85.167 38 -126.5c20.667 -42 43.834 -78.5 69.501 -109.5s53.5 -54.167 83.5 -69.5c-18 42 -33.667 89.667 -47 143s-22.333 109 -27 167
c-4.66699 66.667 -4.83398 135.5 -0.500977 206.5s13.833 141.167 28.5 210.5l54 -39c-4.66699 -32 -8.66699 -64.5 -12 -97.5s-4 -64.833 -2 -95.5l10.5 -128.5c3.66699 -43.667 10.167 -86.5 19.5 -128.5c22.667 -80.667 58.167 -143.5 106.5 -188.5
s108.166 -68.167 179.499 -69.5c89.333 0 178.333 32.333 267 97c88.667 63.333 144.334 139.666 167.001 228.999c16 64 6 120.667 -30 170c-28.667 -34.667 -57.167 -65.667 -85.5 -93s-55.5 -50.666 -81.5 -69.999c-42 -30 -80 -52.833 -114 -68.5s-64 -23.5 -90 -23.5
c-86 0 -129 32 -129 96c0 38.667 6.66699 85.334 20 140.001l101 404h-645l-72 109h906c84 0 135.667 28.667 155 86c10 30 -8.66699 54 -56 72c-34 13.333 -69.333 21 -106 23l1 4c2.66699 0 -14.666 -1.16699 -51.999 -3.5s-95.333 -4.16602 -174 -5.49902h-30
c-54 0 -102 1.33301 -144 4s-77.667 7 -107 13c-51.333 11.333 -88 37.666 -110 78.999c-19.333 42 -22.333 89.667 -9 143c12.667 51.333 38.334 95.666 77.001 132.999l36 -20c-24 -26.667 -39.333 -53.667 -46 -81c-10 -39.333 -2 -71.333 24 -96
c26.667 -24.667 61.667 -37 105 -37c23.333 0 52 0.666992 86 2s74 3.33301 120 6c91.333 6 160.666 9 207.999 9c99.333 0 172.666 -30.333 219.999 -91c46 -58 54 -138 24 -240h261z" />
    <glyph glyph-name="uni098B" unicode="&#x98b;" horiz-adv-x="1380" 
d="M1738 1150l-248.999 -0.00195312l-258 -1036l-44 60c10 104.667 -3.33301 185.667 -40 243c-34 58 -75.333 91.333 -124 100l-144 -580l-46 61c4.66699 56.667 -0.666016 111.334 -15.999 164.001s-40 101 -74 145c-36.667 43.333 -82.167 79 -136.5 107
s-117.5 48 -189.5 60l-72 168c27.333 17.333 65.333 40 114 68l179 102c63.333 34 120.666 63.333 171.999 88s97.333 45 138 61c-24 74.667 -59 116 -105 124c-54 -51.333 -110.833 -90.166 -170.5 -116.499s-121.834 -39.5 -186.501 -39.5
c-119.333 0 -168 51.333 -146 154l1 7c5.33301 30 22.666 56.333 51.999 79c29.333 23.333 60 35 92 35s56 -11.667 72 -35c6.66699 -10.667 11 -23.167 13 -37.5s1.66699 -28.166 -1 -41.499c4 -5.33301 10.667 -9.5 20 -12.5s20.333 -4.5 33 -4.5c30.667 0 58.667 7 84 21
c52.667 30.667 93 71 121 121c12 20.667 27.667 31 47 31c5.33301 0 10.333 -1.16699 15 -3.5s9.33398 -5.16602 14.001 -8.49902c42 -32 81.333 -115.667 118 -251c3.33301 1.33301 6.83301 2.33301 10.5 3s7.16699 1.66699 10.5 3l117 469l75 -98l-179 -716
c36.667 -28.667 68.5 -59.834 95.5 -93.501s48.167 -69.834 63.5 -108.501l253 1016l75 -98l-26 -101h147zM1001 822.998c-16.667 -5.33301 -43.834 -16.667 -81.501 -34l-128.5 -61c-56 -28 -104.167 -53 -144.5 -75s-71.833 -40.333 -94.5 -55
c70.667 -38 131.834 -85.167 183.501 -141.5s93.167 -122.833 124.5 -199.5z" />
    <glyph glyph-name="uni098C" unicode="&#x98c;" horiz-adv-x="999" 
d="M1010 445c-63.333 -192 -186.001 -322.659 -368.001 -391.992c-52.667 -10.667 -79.667 -17 -81 -19c-15.333 0 -23.333 6.33301 -24 19c-12 12 -15 29.667 -9 53l12 47c14 14 26.5 32.167 37.5 54.5s20.833 49.166 29.5 80.499c18.667 61.333 10 123 -26 185
c-10.667 17.333 -24.834 30.333 -42.501 39s-36.5 12 -56.5 10c-47.333 -6 -85.333 -19.833 -114 -41.5s-47.667 -51.5 -57 -89.5c-3.33301 -14.667 2 -25.334 16 -32.001c10 8.66699 25.667 13 47 13c18 2 35.333 -2.66699 52 -14c20.667 -32.667 26 -68.667 16 -108
c-2.66699 -11.333 -6.33398 -22.333 -11.001 -33c-29.333 -67.333 -83.333 -101 -162 -101c-22.667 0 -41.167 7.66699 -55.5 23s-24.5 38 -30.5 68c-4.66699 23.333 -6.66699 48.166 -6 74.499s4 52.166 10 77.499c18 73.333 80.667 147.333 188 222v-1
c54.667 38.667 107.667 58 159 58c17.333 0 46.666 -7 87.999 -21c46.667 -24 78.334 -67.667 95.001 -131c7.33301 -30 11.333 -60.5 12 -91.5s-3.33301 -62.5 -12 -94.5c-6 -26 -7.33301 -39.333 -4 -40c4.66699 -4 15 0.333008 31 13
c78.667 62.667 128.334 125 149.001 187c10 32 11.667 63 5 93s-20.334 57 -41.001 81c-38 40 -86.167 79.167 -144.5 117.5s-126.166 75.166 -203.499 110.499c-59.333 27.333 -101.833 61.666 -127.5 102.999s-35.834 88 -30.501 140c4.66699 40 24.667 82 60 126
c35.333 34 66 51 92 51c1.33301 0 14.666 6 39.999 18c10.667 5.33301 19.834 9.33301 27.501 12s12.834 4 15.501 4c2.66699 -1.33301 5.66699 -2.33301 9 -3s6.33301 -1 9 -1c4 0 9.33301 1.16699 16 3.5s13.667 5.16602 21 8.49902c14 8.66699 23 13 27 13
c4 -0.666992 5.66699 -3 5 -7v-1l1 -4c0.666992 -2.66699 1.33398 -6.5 2.00098 -11.5s1.66699 -11.167 3 -18.5c2 -9.33301 3 -17.333 3 -24s-1.33301 -10.667 -4 -12l-19.5 -12.5l-20.5 -12.5l-34 -20.5c-12 -7 -23 -14.167 -33 -21.5
c-33.333 -21.333 -56.333 -57 -69 -107c-3.33301 -14.667 2.83398 -28.167 18.501 -40.5s38.5 -23.5 68.5 -33.5c17.333 -5.33301 35.5 -12 54.5 -20s37.833 -17 56.5 -27l133 -74c24 -16.667 43.833 -31.667 59.5 -45s28.167 -25 37.5 -35c17.333 -18 32 -35.5 44 -52.5
s22 -32.833 30 -47.5c4.66699 -4.66699 8.5 -16.334 11.5 -35.001s5.5 -43.334 7.5 -74.001c2.66699 -31.333 3 -60.166 1 -86.499s-6.66699 -49.5 -14 -69.5z" />
    <glyph glyph-name="uni098F" unicode="&#x98f;" horiz-adv-x="1269" 
d="M1158 -51l-50.001 49.998c3.33301 88.667 -4.33398 148.334 -23.001 179.001c-25.333 42 -80 63 -164 63c-21.333 0 -48.166 -1.5 -80.499 -4.5s-71.166 -7.83301 -116.499 -14.5c-89.333 -12 -154.666 -18 -195.999 -18c-24.667 0 -47.5 1.83301 -68.5 5.5
s-40.5 9.16699 -58.5 16.5c-50 19.333 -88.667 53.666 -116 102.999c-44 78.667 -51.667 175.667 -23 291c13.333 52.667 33 103 59 151c29.333 53.333 66 103.666 110 150.999l35 -47c-31.333 -34 -57.666 -74 -78.999 -120c-7.33301 -15.333 -14 -31.5 -20 -48.5
s-11 -34.167 -15 -51.5c-17.333 -70 -19.5 -126.667 -6.5 -170s42.5 -75 88.5 -95c41.333 -18 96.333 -27 165 -27c13.333 0 30.666 0.833008 51.999 2.5s45 3.83398 71 6.50098c26.667 3.33301 50.5 5.83301 71.5 7.5s38.167 2.5 51.5 2.5c70 0 125.667 -14.333 167 -43
c8.66699 -6.66699 22.5 -19 41.5 -37l73.5 -71l221 888c2 6 -2.33301 13.333 -13 22c-11.333 9.33301 -20 14 -26 14c-79.333 -5.33301 -168 -46.666 -266 -123.999c-50 -39.333 -90.667 -77.5 -122 -114.5s-53 -73.5 -65 -109.5c16 3.33301 30.667 5 44 5
c83.333 0 113.666 -42.667 90.999 -128c-26 -91.333 -80 -137 -162 -137c-14.667 0 -29.334 3 -44.001 9c-48 17.333 -82 43.833 -102 79.5s-23.333 79.834 -10 132.501c28.667 114 111.667 225 249 333c138.667 108 264.667 162 378 162c14 0 29.333 -5.83301 46 -17.5
s33.667 -28.5 51 -50.5c36.667 -44 51.334 -80.667 44.001 -110z" />
    <glyph glyph-name="uni0990" unicode="&#x990;" horiz-adv-x="1431" 
d="M1158 -51l-50.001 49.9951c3.33301 88.667 -4.33398 148.334 -23.001 179.001c-25.333 42 -80 63 -164 63c-21.333 0 -48.166 -1.5 -80.499 -4.5s-71.166 -7.83301 -116.499 -14.5c-89.333 -12 -154.666 -18 -195.999 -18c-24.667 0 -47.5 1.83301 -68.5 5.5
s-40.5 9.16699 -58.5 16.5c-50 19.333 -88.667 53.666 -116 102.999c-44 78.667 -51.667 175.667 -23 291c13.333 52.667 33 103 59 151c29.333 53.333 66 103.666 110 150.999l35 -47c-31.333 -34 -57.666 -74 -78.999 -120c-7.33301 -15.333 -14 -31.5 -20 -48.5
s-11 -34.167 -15 -51.5c-17.333 -70 -19.5 -126.667 -6.5 -170s42.5 -75 88.5 -95c41.333 -18 96.333 -27 165 -27c13.333 0 30.666 0.833008 51.999 2.5s45 3.83398 71 6.50098c26.667 3.33301 50.5 5.83301 71.5 7.5s38.167 2.5 51.5 2.5c70 0 125.667 -14.333 167 -43
c8.66699 -6.66699 22.5 -19 41.5 -37l73.5 -71l221 888c2 6 -2.33301 13.333 -13 22c-11.333 9.33301 -20 14 -26 14c-79.333 -5.33301 -168 -46.666 -266 -123.999c-50 -39.333 -90.667 -77.5 -122 -114.5s-53 -73.5 -65 -109.5c16 3.33301 30.667 5 44 5
c83.333 0 113.666 -42.667 90.999 -128c-26 -91.333 -80 -137 -162 -137c-14.667 0 -29.334 3 -44.001 9c-48 17.333 -82 43.833 -102 79.5s-23.333 79.834 -10 132.501c28.667 114 111.667 225 249 333c138.667 108 264.667 162 378 162c14 0 29.333 -5.83301 46 -17.5
s33.667 -28.5 51 -50.5c36.667 -44 51.334 -80.667 44.001 -110l-21 -83c29.333 0.666992 60.666 13.667 93.999 39c34.667 26 55.667 54 63 84c9.33301 36.667 4.5 72.334 -14.5 107.001s-47.167 64.667 -84.5 90c-11.333 6.66699 -36.833 17.167 -76.5 31.5l-153.5 55.5
c-67.333 23.333 -123.166 43.833 -167.499 61.5s-74.166 31.167 -89.499 40.5c-87.333 58.667 -123.333 132.667 -108 222c8 46.667 32.667 91 74 133c35.333 36 73.333 62.667 114 80l40 -61c-37.333 -10.667 -72 -30 -104 -58
c-32.667 -30.667 -52.667 -60.334 -60 -89.001c-4.66699 -17.333 6.33301 -36.666 33 -57.999s67 -43.666 121 -66.999c4 -2 27 -10 69 -24l58.5 -21l77.5 -28c67.333 -22.667 124.333 -45.5 171 -68.5s81 -44.167 103 -63.5c37.333 -34.667 60.833 -76.667 70.5 -126
s5.16699 -106 -13.5 -170c-20.667 -70.667 -64.334 -132 -131.001 -184l-91 -54c-12.667 -9.33301 -24 -18.666 -34 -27.999z" />
    <glyph glyph-name="uni0993" unicode="&#x993;" horiz-adv-x="1282" 
d="M1275 410c-15.333 -51.333 -38.5029 -98.4951 -69.5029 -141.495s-67.833 -80.5 -110.5 -112.5c-36.667 -25.333 -76.334 -45 -119.001 -59s-86.667 -21 -132 -21c-6.66699 0 -13.167 0.166992 -19.5 0.5s-12.833 0.833008 -19.5 1.5c-100.667 8 -187 52.333 -259 133
c-28 32 -53.5 69.333 -76.5 112s-43.833 91 -62.5 145c-15.333 48 -28 99.5 -38 154.5s-17 114.5 -21 178.5c-6 86 -6.66699 179 -2 279l59 -29c0 -44 1.33301 -86.5 4 -127.5s6.66699 -80.5 12 -118.5c6.66699 -48 15.334 -93.333 26.001 -136s24 -82.334 40 -119.001
c44.667 -97.333 99 -172.333 163 -225c54 -44 112 -69 174 -75c20 -2 39.667 -3 59 -3c40.667 0 77.667 4.83301 111 14.5s63 23.5 89 41.5c38.667 28.667 69.167 57.5 91.5 86.5s35.5 56.167 39.5 81.5c7.33301 77.333 -16.667 124.666 -72 141.999
c-18 -14 -36 -24.833 -54 -32.5s-34 -11.167 -48 -10.5c-27.333 1.33301 -49 10 -65 26c-23.333 21.333 -30.333 50.666 -21 87.999c7.33301 29.333 20.333 53.5 39 72.5s41.667 32.167 69 39.5c10.667 2.66699 22 4 34 4c26 0 49 -8 69 -24
c32 15.333 59.167 34.666 81.5 57.999s39.5 48.666 51.5 75.999c8.66699 23.333 12.667 45.5 12 66.5s-6.33398 39.833 -17.001 56.5c-21.333 32.667 -54.666 51.667 -99.999 57c-5.33301 1.33301 -11 2 -17 2h-18c-53.333 0 -113.666 -16.667 -180.999 -50
c-42.667 -20 -86 -55.333 -130 -106c44.667 -26.667 59.667 -68.667 45 -126c-10 -40 -32.667 -74 -68 -102c-38 -28.667 -76 -43 -114 -43c-25.333 0 -46.5 5.33301 -63.5 16s-29.833 25.334 -38.5 44.001c-6.66699 16 -10 35.5 -10 58.5s3.66699 46.167 11 69.5
c15.333 46.667 41.833 92.167 79.5 136.5s86.834 86.5 147.501 126.5c90 59.333 190 89 300 89h20c6.66699 0 13.667 -0.333008 21 -1c92.667 -6.66699 158.334 -38.667 197.001 -96c33.333 -55.333 40.333 -121.333 21 -198c-24 -97.333 -79.333 -172.333 -166 -225
c60 -82.667 75.333 -174.334 46 -275.001z" />
    <glyph glyph-name="uni0994" unicode="&#x994;" horiz-adv-x="1508" 
d="M1643 1026c-12 -44.667 -28.332 -85.332 -48.999 -121.999s-44.334 -70.334 -71.001 -101.001c-87.333 -94.667 -171.333 -159.334 -252 -194.001c21.333 -68 22.666 -134.333 3.99902 -199c-15.333 -51.333 -38.333 -98.5 -69 -141.5s-67.667 -80.5 -111 -112.5
c-36.667 -25.333 -76.334 -45 -119.001 -59s-86.334 -21 -131.001 -21c-6.66699 0 -13.167 0.166992 -19.5 0.5s-13.166 0.833008 -20.499 1.5c-102 8 -188 51.667 -258 131c-56 62 -102.667 148.333 -140 259c-32 98.667 -51.667 214.334 -59 347.001
c-3.33301 41.333 -5 83.833 -5 127.5s1 89.5 3 137.5l61 -29c0.666992 -39.333 1.83398 -77.5 3.50098 -114.5s4.5 -72.833 8.5 -107.5c6.66699 -52 15.167 -101.167 25.5 -147.5s24.5 -90.166 42.5 -131.499c21.333 -46 45.166 -87.5 71.499 -124.5
s54.166 -68.167 83.499 -93.5c56 -48.667 116.667 -76 182 -82c20 -2 40 -3 60 -3c40 0 76.667 4.83301 110 14.5s63 23.5 89 41.5c38.667 28.667 69.167 57.5 91.5 86.5s35.5 56.167 39.5 81.5c7.33301 77.333 -16.667 124.666 -72 141.999
c-18.667 -14 -37.167 -24.833 -55.5 -32.5s-34.833 -11.167 -49.5 -10.5c-26.667 1.33301 -47.667 10 -63 26c-22.667 22 -29.334 51.333 -20.001 88c7.33301 29.333 20.333 53.5 39 72.5s41.667 32.167 69 39.5c10.667 2.66699 22 4 34 4c26 0 49 -8 69 -24
c32 15.333 59.167 34.666 81.5 57.999s39.5 48.666 51.5 75.999c8.66699 23.333 12.667 45.5 12 66.5s-6.33398 39.833 -17.001 56.5c-21.333 32.667 -54.666 51.667 -99.999 57c-5.33301 1.33301 -11 2 -17 2h-18c-53.333 0 -113.666 -16.667 -180.999 -50
c-42.667 -20 -86 -55.333 -130 -106c44.667 -26.667 59.667 -68.667 45 -126c-10 -40 -32.667 -74 -68 -102c-38 -28.667 -76 -43 -114 -43c-24.667 0 -45.667 5.33301 -63 16s-30.333 25.334 -39 44.001c-6.66699 16 -10 35.5 -10 58.5s3.66699 46.167 11 69.5
c15.333 46.667 41.833 92.167 79.5 136.5s86.834 86.5 147.501 126.5c90 59.333 190.333 89 301 89h19c6.66699 0 13.667 -0.333008 21 -1c92.667 -6.66699 158.334 -38.667 197.001 -96c34 -54 41 -120 21 -198c-16 -64 -49.333 -121.333 -100 -172
c31.333 9.33301 64.166 24.833 98.499 46.5s68.833 49.5 103.5 83.5c38 36.667 65.333 89.334 82 158.001c10 38.667 7 79 -9 121c-14.667 41.333 -39.334 73 -74.001 95c-24 14 -58.5 29.667 -103.5 47s-98.5 35.666 -160.5 54.999c-60 16.667 -112.5 34 -157.5 52
s-80.167 35.667 -105.5 53c-35.333 25.333 -59.166 56.333 -71.499 93s-14.5 78 -6.5 124c4.66699 23.333 11.834 47.5 21.501 72.5s22.167 48.833 37.5 71.5c44 68.667 82.667 107.667 116 117l45 -58c-36.667 -11.333 -70.334 -35.333 -101.001 -72
c-31.333 -34.667 -51.333 -69 -60 -103c-8 -31.333 2.5 -61.333 31.5 -90s70.5 -54.334 124.5 -77.001l52.5 -18l72.5 -25c18.667 -6.66699 39.5 -13.667 62.5 -21s47.167 -15.666 72.5 -24.999c64.667 -24.667 116.334 -47 155.001 -67s65.334 -38.667 80.001 -56
c32 -36.667 51.5 -78.667 58.5 -126s1.5 -101.666 -16.5 -162.999z" />
    <glyph glyph-name="uni0995" unicode="&#x995;" horiz-adv-x="1346" 
d="M1701 1150h-587.001l-26 -106c121.333 -13.333 214.333 -64.666 279 -153.999c65.333 -92 80.333 -199.333 45 -322c-8.66699 -28.667 -20.5 -55.334 -35.5 -80.001s-32.833 -47 -53.5 -67c-42.667 -40 -91.334 -60.667 -146.001 -62c-38 -1.33301 -66.333 11.667 -85 39
c-19.333 25.333 -23.333 57.666 -12 96.999c8.66699 32.667 33.334 64.667 74.001 96c20 14 51 21 93 21c16.667 0 31.834 -5.66699 45.501 -17s25.167 -26.666 34.5 -45.999c3.33301 6.66699 6.66602 12.667 9.99902 18s6 10 8 14c4 7.33301 6.66699 13 8 17l2 8
c10 40 8.66699 78.167 -4 114.5s-35 69.5 -67 99.5c-30 24 -62.5 42.333 -97.5 55s-71.5 19 -109.5 19h-14c-4 0 -8.33301 -0.333008 -13 -1l-238 -956l-45 61c-0.666992 27.333 -2.5 53.833 -5.5 79.5s-7.5 50.834 -13.5 75.501c-9.33301 36 -21.5 69.833 -36.5 101.5
s-32.5 60.5 -52.5 86.5c-37.333 45.333 -82.666 80.666 -135.999 105.999c-50.667 24.667 -109.334 40.667 -176.001 48l-106 189c36 32.667 79.833 65.5 131.5 98.5s111.834 66.5 180.501 100.5c78 37.333 153 69.333 225 96s142.333 47.667 211 63l27 108h-743l-72 109
h1427zM948.999 881c-42 -9.33301 -88.332 -23.499 -138.999 -42.499s-106.667 -43.833 -168 -74.5c-14.667 -6.66699 -39.5 -19.834 -74.5 -39.501s-81.167 -47.167 -138.5 -82.5c53.333 -18.667 101.666 -42.667 144.999 -72c59.333 -40.667 107.333 -90.667 144 -150
c32 -52 56.333 -110 73 -174z" />
    <glyph glyph-name="uni0996" unicode="&#x996;" horiz-adv-x="1189" 
d="M1538 1150h-224.003l-302 -1213l-46 61c0.666992 26 -0.5 51 -3.5 75s-7.5 47.333 -13.5 70c-18.667 73.333 -55.667 138.666 -111 195.999c-41.333 42 -89 75.667 -143 101c-56.667 26.667 -121 45.667 -193 57l-129 228c22.667 -3.33301 40.334 -5.33301 53.001 -6
s20.667 -0.666992 24 0c35.333 -2.66699 74.833 0.5 118.5 9.5s88.834 22.833 135.501 41.5c68 28.667 121.333 59.334 160 92.001c46.667 38.667 75.667 80.334 87 125.001c6 26 7.66699 49.167 5 69.5s-9.66699 36.5 -21 48.5c-48 -37.333 -95.167 -69.833 -141.5 -97.5
s-88.833 -48.5 -127.5 -62.5c-19.333 -7.33301 -42.5 -13.666 -69.5 -18.999s-57.167 -10 -90.5 -14c-5.33301 -0.666992 -10.5 -1.16699 -15.5 -1.5s-9.83301 -0.5 -14.5 -0.5c-17.333 0 -33.166 2.33301 -47.499 7s-26.833 11 -37.5 19c-17.333 13.333 -29.333 30 -36 50
s-7 41.667 -1 65c3.33301 15.333 9.83301 29.833 19.5 43.5s20.667 25.5 33 35.5s25.833 18 40.5 24s29.667 9 45 9c14.667 0 28 -2.83301 40 -8.5s21.833 -13.334 29.5 -23.001s12.834 -21.167 15.501 -34.5s2.66699 -27.333 0 -42c14.667 -8.66699 32.334 -13 53.001 -13
c48 0 102.333 24.333 163 73c41.333 34 74.333 69.667 99 107c13.333 18 27.666 27 42.999 27c10 0 20 -5.33301 30 -16v1c67.333 -73.333 84 -178.333 50 -315c-20 -78.667 -62.667 -145 -128 -199c-51.333 -42.667 -118 -78.334 -200 -107.001
c30.667 -15.333 61.667 -34.5 93 -57.5s61.666 -51.5 90.999 -85.5c24 -30.667 46.667 -63.167 68 -97.5s39 -73.5 53 -117.5l300 1203l35 -47c-13.333 -54 -15 -92.833 -5 -116.5s31.667 -35.5 65 -35.5h79z" />
    <glyph glyph-name="uni0997" unicode="&#x997;" horiz-adv-x="1199" 
d="M1530 1150l-223 -0.000976562l-302 -1213l-75 99l145 552c28.667 109.333 21.667 216.333 -21 321c-10.667 28 -23.334 53.333 -38.001 76s-31.667 42.334 -51 59.001c-42 37.333 -95 60.666 -159 69.999c-13.333 2 -26 3 -38 3c-53.333 0 -107.333 -15 -162 -45
c-30 -17.333 -55.667 -39.166 -77 -65.499s-36.333 -55.166 -45 -86.499c44.667 14.667 99 22 163 22c57.333 0 100.666 -13.333 129.999 -40c17.333 -16.667 28.333 -37.667 33 -63s4 -50.333 -2 -75c-19.333 -60.667 -53 -121.667 -101 -183
c-25.333 -34 -54.833 -67.5 -88.5 -100.5s-71.5 -65.833 -113.5 -98.5l-88 136c44.667 27.333 85.167 54.666 121.5 81.999s69.166 55.666 98.499 84.999c28 26 49.833 49.5 65.5 70.5s25.5 39.167 29.5 54.5c10 32 -1.33301 48 -34 48
c-13.333 0 -31.666 -3.33301 -54.999 -10s-51 -16 -83 -28c-82 -34 -131 -50.333 -147 -49c-80.667 11.333 -107 67 -79 167c14 48.667 34.833 91.167 62.5 127.5s61.834 67.5 102.501 93.5c94.667 56.667 185.334 83.334 272.001 80.001c98 -5.33301 177.333 -36 238 -92
c78.667 -72 125.667 -183.667 141 -335l8 51.5l11 71.5c6.66699 46.667 13.5 88.5 20.5 125.5s13.833 69.167 20.5 96.5l75 301l34 -47c-14 -58 -14 -99 0 -123c10 -19.333 30.333 -29 61 -29h78z" />
    <glyph glyph-name="uni0998" unicode="&#x998;" horiz-adv-x="1174" 
d="M463 1150h-191.999l-63 109h1242l74 -109h-248l-302 -1213l-46 61c0 10 -0.833008 22.833 -2.5 38.5s-4.16699 33.167 -7.5 52.5c-10.667 46 -27.5 88.167 -50.5 126.5s-52.833 72.5 -89.5 102.5c-18 14.667 -37.5 27.667 -58.5 39s-42.833 21 -65.5 29
c-25.333 9.33301 -52.833 16.5 -82.5 21.5s-59.834 8.16699 -90.501 9.5l-50.5 78l-51.5 78c25.333 22 63.166 53.167 113.499 93.5l183.5 141.5c-29.333 -6.66699 -58.333 -10 -87 -10c-15.333 0 -29.333 1.33301 -42 4c-60 11.333 -103.167 34.833 -129.5 70.5
s-35.166 82.167 -26.499 139.5c4.66699 28 13 53.667 25 77c12 22.667 27.667 43 47 61zM1177 1150h-447.002c-34.667 -4.66699 -68 -20.667 -100 -48c-36.667 -30 -59.667 -66.667 -69 -110c-14 -78 25.333 -118.333 118 -121c56.667 -1.33301 95.334 6 116.001 22
l38.5 26.5l43.5 27.5l82 -110c-39.333 -16 -101.333 -54.667 -186 -116l-105 -81c-30.667 -24 -55 -44.667 -73 -62c36.667 -10.667 72 -25.667 106 -45c42.667 -25.333 80.667 -56.333 114 -93c30 -32 55.833 -66.833 77.5 -104.5s38.834 -77.5 51.501 -119.5z" />
    <glyph glyph-name="uni0999" unicode="&#x999;" horiz-adv-x="1144" 
d="M1169 334c-24.667 -98.667 -80.332 -182.996 -166.999 -252.996c-87.333 -70.667 -180.666 -106 -279.999 -106c-249.333 0 -403 121.333 -461 364c-26 108.667 -32.667 244.334 -20 407.001c3.33301 30 7.16602 61.167 11.499 93.5s9.16602 65.5 14.499 99.5l46 -30
c-3.33301 -33.333 -6.16602 -65.5 -8.49902 -96.5s-3.16602 -61.167 -2.49902 -90.5c-0.666992 -60 3 -115 11 -165s19.333 -96 34 -138c34.667 -94.667 89 -166.334 163 -215.001c28 -15.333 61.5 -27.5 100.5 -36.5s82.5 -13.5 130.5 -13.5
c65.333 0 139.333 20.333 222 61c76.667 34.667 126 96.334 148 185.001c16 63.333 -1 114 -51 152c-46.667 -48 -104.334 -93.333 -173.001 -136c-66 -40.667 -125.667 -58 -179 -52c-42.667 4.66699 -79 25 -109 61c-32.667 44 -41 98.333 -25 163l61 245
c-82.667 25.333 -144 77.666 -184 156.999c-12 25.333 -21.833 53.333 -29.5 84s-12.834 64 -15.501 100l157 68c-5.33301 -88.667 4.66699 -158 30 -208c1.33301 -1.33301 2.33301 -2.83301 3 -4.5s1.33398 -3.16699 2.00098 -4.5l13 -26
c4.66699 -9.33301 9.66699 -18.333 15 -27c5.33301 -9.33301 11 -17 17 -23s12 -10 18 -12c15.333 60.667 49.666 120.667 102.999 180c72 76.667 151.667 115 239 115c30.667 0 58 -4.33301 82 -13s45.333 -21.334 64 -38.001c17.333 -17.333 29 -38.333 35 -63
s5.33301 -52.334 -2 -83.001c-9.33301 -36.667 -26.166 -70.334 -50.499 -101.001s-55.166 -57.667 -92.499 -81c-30 -18 -63.167 -31.667 -99.5 -41s-71.833 -13.333 -106.5 -12l-47.5 2.5c-18.333 1 -37.833 3.16699 -58.5 6.5l-52 -209c-15.333 -60.667 3 -91 55 -91
c43.333 0 96.666 25.333 159.999 76c8 6.66699 19.667 17 35 31l61 55c22.667 22.667 45.334 34 68.001 34c11.333 0 20.666 -4.66699 27.999 -14v1c21.333 -16 39.5 -35.333 54.5 -58s26.5 -49.334 34.5 -80.001c17.333 -70 16.666 -143.333 -2.00098 -220z
M957.002 907.004c96.667 25.333 151.666 65.001 164.999 119.001c11.333 44 -15 66 -79 66c-21.333 0 -48.333 -3.66699 -81 -11h1c-60 -16.667 -107.5 -39.334 -142.5 -68.001s-58.167 -64.667 -69.5 -108c30.667 -8.66699 62.334 -13 95.001 -13c35.333 0 72.333 5 111 15
z" />
    <glyph glyph-name="uni099A" unicode="&#x99a;" horiz-adv-x="951" 
d="M1301 1150l-733.998 -0.00292969c-8.66699 -36 -7.33398 -78 3.99902 -126c8 -30 32 -59.667 72 -89c14.667 -11.333 30.5 -21.666 47.5 -30.999s35.5 -17.333 55.5 -24c109.333 -38.667 174.333 -64 195 -76c67.333 -43.333 90.666 -105.666 69.999 -186.999
c-24.667 -99.333 -106 -215.333 -244 -348c-152 -144 -276.667 -216 -374 -216c-49.333 0 -89.333 23.667 -120 71c-28.667 46.667 -36.667 95.334 -24 146.001l219 880h-195l-72 109h1028zM862.002 607.997c13.333 33.333 7.00195 54.001 -18.998 62.001
c-176.667 57.333 -283.667 157 -321 299l-174 -697c-12.667 -51.333 -0.666992 -77 36 -77c60 0 147.667 47.667 263 143c21.333 17.333 42.666 37.166 63.999 59.499s43.666 48.833 66.999 79.5c22.667 28 40.667 52.833 54 74.5s23.333 40.5 30 56.5z" />
    <glyph glyph-name="uni099B" unicode="&#x99b;" horiz-adv-x="1074" 
d="M1084 -211c-90 123.333 -197.669 217 -323.002 281c-111.333 57.333 -255.666 100.666 -432.999 129.999l-57 202c68.667 -18 127.667 -27 177 -27c148.667 0 292 45.333 430 136c105.333 67.333 164.666 131.666 177.999 192.999c10 46 -0.5 84 -31.5 114
s-70.167 45 -117.5 45c-7.33301 0 -14.666 -2 -21.999 -6c2.66699 -14 0.333984 -32.667 -6.99902 -56c-20 -68 -82 -136.333 -186 -205c-91.333 -60 -172.666 -90.667 -243.999 -92c-41.333 -1.33301 -76 8.33398 -104 29.001c-36 26.667 -47.333 66.334 -34 119.001
l124 498h-162l-78 109h1144l78 -109h-875c7.33301 -58.667 28 -101.334 62 -128.001c47.333 -36 106 -54 176 -54c38.667 0 77 4.66699 115 14c12.667 4.66699 25 7 37 7c80 0 138.833 -35.5 176.5 -106.5s45.167 -147.833 22.5 -230.5c-22 -87.333 -82.333 -169 -181 -245
c-80 -61.333 -173 -109.333 -279 -144c109.333 -60 204.666 -130.167 285.999 -210.5s127 -144.166 137 -191.499zM737.998 823c1.33301 7.33301 1.66699 15.6689 1 25.002c-59.333 20.667 -118 52.667 -176 96c-26 17.333 -44.333 41.666 -55 72.999l-86 -346
c-12 -47.333 0 -70 36 -68c50 2.66699 106 27.667 168 75s99.333 95.666 112 144.999z" />
    <glyph glyph-name="uni099C" unicode="&#x99c;" horiz-adv-x="1401" 
d="M1743 1150h-670l-13.5 -4.5c-5 -1.66699 -10.167 -3.5 -15.5 -5.5c-4.66699 -1.33301 -10.334 -3.16602 -17.001 -5.49902l-18 -6.5c-9.33301 -4 -17.5 -10 -24.5 -18s-11.5 -18 -13.5 -30c-8.66699 -48 10 -86.667 56 -116c35.333 -24 84.666 -34.333 147.999 -31
c32.667 1.33301 70.5 6.83301 113.5 16.5s91.833 23.834 146.5 42.501l21.5 -31c7 -10 14.167 -19.667 21.5 -29l79 -113c-88 -65.333 -161.333 -140.666 -220 -225.999c-62 -92 -107.333 -195.333 -136 -310c-11.333 -45.333 -17.666 -90.333 -18.999 -135
c-2 -68.667 8 -135.667 30 -201l-73 24c-12.667 53.333 -19.667 108.666 -21 165.999c-3.33301 101.333 9.33398 209.666 38.001 324.999c15.333 62.667 42.666 128.667 81.999 198c27.333 48.667 60.333 98.667 99 150c-83.333 -1.33301 -158 7.66699 -224 27
s-123 47.666 -171 84.999c-22.667 18 -42 38.167 -58 60.5s-27.667 44.833 -35 67.5c-35.333 8 -85 -27 -149 -105c-67.333 -80 -104.666 -140.333 -111.999 -181c-10 -60 14.667 -90 74 -90c32 0 84 17 156 51c72 33.333 112.333 50 121 50c38 0 70.667 -51.333 98 -154
c16 -70.667 17 -133.334 3 -188.001c-22 -89.333 -73 -160.333 -153 -213c-76.667 -52.667 -156.667 -79.667 -240 -81c-104 -3.33301 -193 43.667 -267 141c-26.667 36 -47.5 79.333 -62.5 130s-24.167 108.334 -27.5 173.001
c-7.33301 113.333 3.33398 227.666 32.001 342.999l16.5 59l17.5 59l39 -34c-28 -125.333 -38.667 -234.333 -32 -327c7.33301 -118.667 41.333 -214 102 -286l1 1c39.333 -44 106.333 -70 201 -78c5.33301 -0.666992 10.333 -1 15 -1h15c58.667 0 111 13 157 39
c66 36.667 107.333 81.334 124 134.001c26.667 80.667 12.667 121 -42 121c-5.33301 0 -39 -11.667 -101 -35c-61.333 -24 -103.333 -36 -126 -36c-38 1.33301 -70.667 10 -98 26s-50 39 -68 69c-15.333 27.333 -24.833 57.833 -28.5 91.5s-0.833984 70.167 8.49902 109.5
c26 112 109.667 216 251 312h-501l-72 109h1470z" />
    <glyph glyph-name="uni099D" unicode="&#x99d;" horiz-adv-x="1334" 
d="M1669 1150l-222 -0.000976562l-263 -1054l-45 62c4.66699 36.667 4.66699 72.834 0 108.501s-13.334 69.167 -26.001 100.5c-16 34 -36.833 63.167 -62.5 87.5s-54.167 41.833 -85.5 52.5l-142 -570l-44 62c-7.33301 132.667 -45 248 -113 346
c-80.667 109.333 -182.667 167.333 -306 174l-107 189c50.667 34 107.334 68.333 170.001 103s129.667 69 201 103c68.667 32 136.667 61.833 204 89.5s127.333 50.834 180 69.501l19 77h-754l-72 109h951l-154 -620c16.667 -10.667 33.5 -24.334 50.5 -41.001
s31.833 -34.334 44.5 -53.001c16 -23.333 30 -45.833 42 -67.5s21.667 -42.167 29 -61.5l260 1042l35 -47c-10 -41.333 -11.333 -76.666 -4 -105.999c4.66699 -18.667 12.5 -31 23.5 -37s24.5 -9 40.5 -9h77zM967 908.999c-66 -19.333 -140.668 -49.1689 -224.001 -89.502
s-177 -90.833 -281 -151.5c77.333 -32.667 145.333 -88 204 -166c25.333 -35.333 49.333 -74.666 72 -117.999s43.334 -91.666 62.001 -144.999z" />
    <glyph glyph-name="uni099E" unicode="&#x99e;" horiz-adv-x="1833" 
d="M1872 370c-14 -56 -41.332 -105.661 -81.999 -148.994c-23.333 -24 -47.666 -42.5 -72.999 -55.5s-51.333 -19.5 -78 -19.5c-37.333 -1.33301 -76.333 7.16699 -117 25.5s-79.334 43.166 -116.001 74.499c-32.667 30 -61.167 62 -85.5 96s-43.5 69 -57.5 105l-124 -498
l-40 41c3.33301 88.667 -8.33398 149.667 -35.001 183c-17.333 18 -40.833 32 -70.5 42s-66.167 15 -109.5 15h-16c-5.33301 0 -10.666 -0.333008 -15.999 -1c-11.333 -0.666992 -29.333 -2.16699 -54 -4.5l-97 -9.5c-69.333 -6 -124.333 -9 -165 -9
c-49.333 0 -90.666 4.66699 -123.999 14c-111.333 36 -169.333 113 -174 231c-1.33301 47.333 5 99.666 19 156.999c19.333 76.667 49 144.667 89 204c24 36 51 68.667 81 98l28 -59l-37 -36.5c-11.333 -11.667 -21.666 -23.834 -30.999 -36.501
c-10.667 -15.333 -20.167 -31.666 -28.5 -48.999s-14.833 -37 -19.5 -59c-15.333 -64.667 -18.333 -118 -9 -160c8 -40.667 27.667 -72.667 59 -96c43.333 -32.667 120.333 -49 231 -49l-1 -4c-1.33301 0 5.5 0.833008 20.5 2.5s38.5 3.16699 70.5 4.5h84
c153.333 0 259.333 -48.333 318 -145l100.5 398.5l100.5 399.5c6 23.333 3 46.666 -9 69.999s-28.333 35.666 -49 36.999c-66.667 3.33301 -144.667 -34.334 -234 -113.001c-45.333 -39.333 -81.833 -76.833 -109.5 -112.5s-47.167 -71.167 -58.5 -106.5
c44.667 6 79.667 -3 105 -27c12 -13.333 19.667 -28.666 23 -45.999s1 -36.666 -7 -57.999c-32 -90.667 -92 -133 -180 -127c-28 2.66699 -52.5 10.167 -73.5 22.5s-37.5 28.833 -49.5 49.5c-12 20 -18.333 43.167 -19 69.5s3.66602 53.5 12.999 81.5
c18 53.333 47.667 107.833 89 163.5s93.666 110.167 156.999 163.5c121.333 102 230.333 153 327 153c5.33301 0 10.666 -0.166992 15.999 -0.5s10.333 -0.833008 15 -1.5c24.667 -3.33301 46.5 -10.5 65.5 -21.5s35.833 -25.167 50.5 -42.5c30.667 -36 40 -78.667 28 -128
l-69 -275c24.667 36.667 53.5 73 86.5 109s71.167 72.667 114.5 110c103.333 86.667 190.666 130.667 261.999 132c75.333 1.33301 127 -24.334 155 -77.001c30.667 -49.333 36.334 -112 17.001 -188c-10 -42 -27.167 -82.333 -51.5 -121s-53.833 -74.667 -88.5 -108
c21.333 -40.667 34.833 -82.834 40.5 -126.501s3.16699 -87.834 -7.5 -132.501zM1820 442.006c4 16 1.99902 38.335 -6.00098 67.002c-3.33301 13.333 -7.16602 25 -11.499 35s-8.5 17.667 -12.5 23c-30 -20.667 -68.667 -41.334 -116 -62.001
c-36.667 -6.66699 -67.667 -0.333984 -93 18.999c-24 20 -34 48 -30 84c0.666992 5.33301 1.5 10.333 2.5 15s1.83301 9.33398 2.5 14.001c8.66699 34 25.5 61.5 50.5 82.5s55.833 35.5 92.5 43.5c11.333 2 23.166 1.5 35.499 -1.5s24.166 -8.5 35.499 -16.5
c24 -18 38.667 -37 44 -57c40.667 32 67.667 74.333 81 127c10.667 44 7.33398 81.667 -9.99902 113c-17.333 30.667 -47.666 46 -90.999 46c-75.333 0 -171 -41.667 -287 -125v1c-112.667 -83.333 -178.667 -162.333 -198 -237c-20.667 -78 2.66602 -150.333 69.999 -217
c64.667 -67.333 136.334 -101 215.001 -101c46 0 92.667 13.667 140 41c46 27.333 74.667 62.666 86 105.999z" />
    <glyph glyph-name="uni099F" unicode="&#x99f;" horiz-adv-x="1018" 
d="M1367 1150l-790.006 0.00390625l-207 -830c-6 -26 -2 -48.333 12 -67c13.333 -18 33.666 -27 60.999 -27c38 0 80.833 12.833 128.5 38.5s96.167 60.5 145.5 104.5c44 42 81.833 84.667 113.5 128s56.834 86.666 75.501 129.999l-26.5 -3.5
c-7.66699 -1 -15.834 -1.5 -24.501 -1.5c-32.667 0 -60.667 11.333 -84 34c-23.333 23.333 -29.666 57 -18.999 101c10.667 42 32.334 75.333 65.001 100s70 37 112 37c57.333 0 99 -21 125 -63h-1c26.667 -41.333 31.334 -97.333 14.001 -168
c-5.33301 -22 -15.166 -47.333 -29.499 -76s-31.5 -59 -51.5 -91c-22 -36 -47.667 -71.5 -77 -106.5s-60.333 -67.5 -93 -97.5c-69.333 -64 -135.833 -113.5 -199.5 -148.5s-121.5 -52.5 -173.5 -52.5c-50.667 0 -95.667 25 -135 75c-37.333 50 -49.666 101.333 -36.999 154
l207 830h-205l-72 109h907c4.66699 11.333 8 21 10 29s4 15 6 21c0.666992 3.33301 1.66699 6.66602 3 9.99902s2 5.66602 2 6.99902c16.667 69.333 -35.333 105.666 -156 108.999c-28 0 -62.167 0.5 -102.5 1.5l-140.5 3.5c-93.333 3.33301 -169.666 15.333 -228.999 36
c-59.333 21.333 -100 52.333 -122 93c-21.333 38 -25.666 82.333 -12.999 133c12 48 36.333 95.667 73 143l33 -14c-22.667 -44 -37 -78 -43 -102c-8 -32 -4.66699 -59.333 10 -82c20.667 -28.667 59.667 -47 117 -55c27.333 -4 65 -6 113 -6c20.667 0 43 0.333008 67 1
s50.333 1.66699 79 3c11.333 0.666992 23.833 1.16699 37.5 1.5s26.167 0.5 37.5 0.5c36 0 69 -1.33301 99 -4s57.333 -6.66699 82 -12c126.667 -28 174.667 -133.667 144 -317h81z" />
    <glyph glyph-name="uni09A0" unicode="&#x9a0;" horiz-adv-x="936" 
d="M1280 1150l-426.005 -0.00292969c126 -185.333 159 -397.666 99 -636.999c-1.33301 -5.33301 -2.83301 -10.666 -4.5 -15.999s-3.16699 -10.666 -4.5 -15.999c-14.667 -54 -38 -105.5 -70 -154.5s-72 -94.5 -120 -136.5c-55.333 -48 -109.333 -84.833 -162 -110.5
s-102 -38.5 -148 -38.5c-55.333 -0.666992 -102.666 8.5 -141.999 27.5s-71.666 46.833 -96.999 83.5c-23.333 37.333 -38 79.333 -44 126s-2.33301 96.667 11 150c7.33301 28.667 21 59 41 91c106 30.667 206 86.667 300 168c102.667 87.333 166 178.333 190 273
c9.33301 36.667 14.833 70.667 16.5 102s0.166992 60.666 -4.5 87.999h-442l-72 109h495c-0.666992 6 -7.66699 22.833 -21 50.5s-28.666 69.167 -45.999 124.5c-37.333 124 -45.333 228 -24 312c7.33301 28.667 19.333 55.834 36 81.501s37.334 50.5 62.001 74.5
c12 12 25 23.667 39 35s29 22.333 45 33l93 -116c-38 -12.667 -70.333 -29.334 -97 -50.001c-25.333 -19.333 -45.666 -41.333 -60.999 -66s-27 -52 -35 -82c-8.66699 -34.667 -8.66699 -72.667 0 -114c8 -38.667 22.333 -81.167 43 -127.5s48.667 -98.166 84 -155.499h394z
M887.995 612.997c16 68.667 18.999 136.831 8.99902 204.498s-33.667 135.167 -71 202.5c-4 -39.333 -9.33301 -73 -16 -101c-4.66699 -18 -9.66699 -34 -15 -48c-51.333 -121.333 -113.666 -219 -186.999 -293c-37.333 -37.333 -81 -72 -131 -104
s-105.667 -61.667 -167 -89c-6 -4 -11.833 -11.667 -17.5 -23s-11.167 -26.666 -16.5 -45.999c-31.333 -126 10 -189 124 -189c22 0 47 4 75 12s54.667 18 80 30c85.333 46.667 156.833 107.334 214.5 182.001s97.167 162 118.5 262z" />
    <glyph glyph-name="uni09A1" unicode="&#x9a1;" horiz-adv-x="1204" 
d="M1632 1150l-736 -0.000976562l-92 -368c-10.667 -45.333 -11.334 -74.333 -2.00098 -87c8.66699 -12 29 -18 61 -18c20 0 66 34.333 138 103l13.5 13.5l13.5 13.5l22.5 23.5l23.5 22.5c34.667 30.667 64 46 88 46c20 0 37 -8 51 -24v1c18.667 -20 34.667 -42.667 48 -68
s23.666 -51.333 30.999 -78c18 -64 18 -129 0 -195c-36 -137.333 -106.667 -252.666 -212 -345.999c-100.667 -86.667 -212 -130 -334 -130h-18c-6 0 -11.667 0.333008 -17 1c-64.667 5.33301 -124.167 22.833 -178.5 52.5s-100.5 72.834 -138.5 129.501
c-20 29.333 -37.333 61.666 -52 96.999s-26.334 74.333 -35.001 117c-17.333 92.667 -22 195.334 -14 308.001c1.33301 25.333 3.33301 49.833 6 73.5s5 46.5 7 68.5c2.66699 24 5.66699 47 9 69l10 63l75 -25c-5.33301 -37.333 -8.66602 -74.666 -9.99902 -111.999
c-0.666992 -20 -1.16699 -39.5 -1.5 -58.5s-0.166016 -37.167 0.500977 -54.5c4 -96.667 15 -181.334 33 -254.001s44.667 -130.334 80 -173.001c60 -82 156.667 -123 290 -123c94 0 184.333 33.333 271 100c36.667 28 68.5 62.5 95.5 103.5s48.833 87.5 65.5 139.5
c4 10 6.33301 23.667 7 41s-2 33.666 -8 48.999c-10.667 30 -29.667 50 -57 60c-18 -19.333 -38.333 -39.666 -61 -60.999s-49 -43.333 -79 -66c-41.333 -32 -80 -56.667 -116 -74s-68.333 -26 -97 -26c-43.333 0 -77.666 15.667 -102.999 47
c-34.667 41.333 -39 114 -13 218l95 381h-520l-76 109h1359z" />
    <glyph glyph-name="uni09A2" unicode="&#x9a2;" horiz-adv-x="1012" 
d="M1367 1150l-790.005 0.00195312l-207 -830c-6 -26 -2 -48.333 12 -67c13.333 -18 33.666 -27 60.999 -27c38 0 80.833 12.833 128.5 38.5s96.167 60.5 145.5 104.5c44 42 81.833 84.667 113.5 128s56.834 86.666 75.501 129.999l-26.5 -3.5
c-7.66699 -1 -15.834 -1.5 -24.501 -1.5c-32.667 0 -60.667 11.333 -84 34c-23.333 23.333 -29.666 57 -18.999 101c10.667 42 32.334 75.333 65.001 100s70 37 112 37c57.333 0 99 -21 125 -63h-1c26.667 -41.333 31.334 -97.333 14.001 -168
c-5.33301 -22 -15.166 -47.333 -29.499 -76s-31.5 -59 -51.5 -91c-22 -36 -47.667 -71.5 -77 -106.5s-60.333 -67.5 -93 -97.5c-69.333 -64 -135.833 -113.5 -199.5 -148.5s-121.5 -52.5 -173.5 -52.5c-50.667 0 -95.667 25 -135 75
c-19.333 25.333 -32.666 50.666 -39.999 75.999s-7.66602 51.333 -0.999023 78l207 830h-201l-72 109h1095z" />
    <glyph glyph-name="uni09A3" unicode="&#x9a3;" horiz-adv-x="1076" 
d="M1424 1150l-224.997 -0.00390625l-302 -1213l-76 99l147 557c32 120 22.667 239.667 -28 359c-10 22.667 -23.167 41.5 -39.5 56.5s-36.166 27.833 -59.499 38.5c-43.333 20 -98.333 30 -165 30c-35.333 0 -67.833 -4.5 -97.5 -13.5s-57.5 -24.167 -83.5 -45.5
c-22 -18 -41.667 -40.333 -59 -67c-18 -28 -31 -57.667 -39 -89c-5.33301 -22 -8.66602 -42.833 -9.99902 -62.5s-0.333008 -37.5 3 -53.5c5.33301 -22 15.666 -40.167 30.999 -54.5s37.333 -23.166 66 -26.499c-4.66699 10 -7 20.5 -7 31.5s1.66699 22.833 5 35.5
c10.667 44 30 78 58 102s64 35.667 108 35c24.667 -0.666992 44.167 -6.16699 58.5 -16.5s24.5 -23.833 30.5 -40.5c11.333 -33.333 10.666 -67.333 -2.00098 -102c-20.667 -50.667 -58 -90.334 -112 -119.001c-43.333 -23.333 -85.333 -35 -126 -35
c-5.33301 0 -10.833 0.166992 -16.5 0.5s-10.834 1.16602 -15.501 2.49902c-38.667 5.33301 -73.5 16.333 -104.5 33s-54.5 39 -70.5 67c-34.667 56.667 -41.334 128.334 -20.001 215.001c12 48 30.333 93.667 55 137s55 80.333 91 111c43.333 38 90.333 66.333 141 85
c48.667 18 101 27 157 27c43.333 0 90 -12.667 140 -38c10.667 -5.33301 20.5 -11.166 29.5 -17.499s17.5 -12.833 25.5 -19.5c9.33301 -8 18.166 -16.167 26.499 -24.5s15.833 -17.166 22.5 -26.499c16.667 -25.333 31.167 -52.166 43.5 -80.499s22.5 -59.5 30.5 -93.5
c2 -18.667 4.33301 -37.334 7 -56.001s6.33398 -39.667 11.001 -63c1.33301 4.66699 2.83301 9.33398 4.5 14.001s3.16699 10 4.5 16c9.33301 36.667 16.666 88.334 21.999 155.001c3.33301 44 6.5 79.333 9.5 106s5.5 43.667 7.5 51l75 301l35 -47
c-13.333 -54 -15 -92.833 -5 -116.5s32 -35.5 66 -35.5h80z" />
    <glyph glyph-name="uni09A4" unicode="&#x9a4;" horiz-adv-x="1326" 
d="M1687 1149h-1417l-83 110h1417zM1386 519c-29.333 -118.667 -100.167 -219.168 -212.5 -301.501s-232.5 -120.166 -360.5 -113.499c-152.667 6 -266.334 87.667 -341.001 245c-107.333 218 -154 454.333 -140 709l51 -22c41.333 -294.667 105 -499.667 191 -615
c70 -90.667 173.667 -133.667 311 -129c76.667 5.33301 153.334 30.833 230.001 76.5s130.334 103.5 161.001 173.5c12 28.667 20.333 52.334 25 71.001c18 71.333 9.83301 132 -24.5 182s-87.166 75 -158.499 75c-16.667 0 -32 -2.66699 -46 -8
c18.667 -30.667 23 -66.334 13 -107.001c-12.667 -51.333 -39 -92.833 -79 -124.5s-87 -47.5 -141 -47.5c-71.333 0 -118.333 24.667 -141 74c-16.667 37.333 -18.334 80.333 -5.00098 129c20 72.667 60.667 129.334 122 170.001c68 46.667 135.333 70 202 70
c149.333 0 253.166 -46.833 311.499 -140.5s68.833 -215.834 31.5 -366.501zM907.999 801.999c-2 -10 1.99805 -15.001 11.998 -15.001c11.333 0 18 5 20 15c1.33301 4.66699 0.833008 8.33398 -1.5 11.001s-6.16602 4 -11.499 4c-9.33301 0 -15.666 -5 -18.999 -15z
M857.997 801.998c-2 -10 1.99805 -15.001 11.998 -15.001c11.333 0 18 5 20 15c1.33301 4.66699 0.833008 8.33398 -1.5 11.001s-6.16602 4 -11.499 4c-9.33301 0 -15.666 -5 -18.999 -15zM820.995 771.997c-3.33301 -10 0.333008 -15 11 -15s17.667 5 21 15
c2 10 -2.33301 15 -13 15s-17 -5 -19 -15zM811.994 731.997c-2 -10 1.66699 -14.999 11 -14.999c5.33301 0 9.83301 1.16699 13.5 3.5s6.16699 6.16602 7.5 11.499c2 10 -2.33301 15 -13 15s-17 -5 -19 -15zM834.994 701.998c-3.33301 -10 0.333008 -15 11 -15
s17.667 5 21 15c2 10 -2.66699 15 -14 15c-10 0 -16 -5 -18 -15zM874.993 700.998c-2 -10 1.99805 -15.001 11.998 -15.001c11.333 0 18 5 20 15c1.33301 4.66699 0.833008 8.33398 -1.5 11.001s-6.16602 4 -11.499 4c-9.33301 0 -15.666 -5 -18.999 -15zM917.991 709.997
c-3.33301 -10 0.333008 -15 11 -15s17.667 5 21 15c2 10 -2.66699 15 -14 15c-10 0 -16 -5 -18 -15zM946.99 748.997c-2 -10 2 -15 12 -15c11.333 0 18 5 20 15s-2.33301 15 -13 15s-17 -5 -19 -15zM945.99 790.997c-3.33301 -10 0.333008 -15 11 -15s17.667 5 21 15
c2 10 -2.66699 15 -14 15c-10 0 -16 -5 -18 -15z" />
    <glyph glyph-name="uni09A5" unicode="&#x9a5;" horiz-adv-x="1134" 
d="M1473 1150h-223.997l-299 -1199l-51 46c-8.66699 54 -24.667 104.667 -48 152s-52.666 89.333 -87.999 126c-34.667 33.333 -84.334 61.333 -149.001 84s-143 38.667 -235 48l-118 224c44 3.33301 91 10.166 141 20.499s101.333 23.833 154 40.5
c28 9.33301 55.333 20.833 82 34.5s52.667 30.167 78 49.5c35.333 28 66.666 60 93.999 96s50.333 76 69 120c15.333 41.333 9.66602 77.333 -17.001 108c-27.333 30.667 -62.333 46 -105 46c-16 0 -35.167 -3.16699 -57.5 -9.5s-46.5 -15.166 -72.5 -26.499
c-26.667 -13.333 -49.667 -26.833 -69 -40.5s-34 -27.167 -44 -40.5c42 -22.667 53.667 -63.334 35 -122.001c-10.667 -37.333 -33.334 -67 -68.001 -89c-31.333 -20 -66 -28.667 -104 -26c-20.667 2 -38.5 7.5 -53.5 16.5s-26.833 20.667 -35.5 35s-14 30.833 -16 49.5
s-0.333008 38.667 5 60c22.667 89.333 88 165 196 227c82.667 46.667 165.667 70 249 70h16c6 0 11.667 -0.333008 17 -1c73.333 -6.66699 132 -40.334 176 -101.001c42.667 -59.333 54 -128.666 34 -207.999c-38 -153.333 -170.333 -292.666 -397 -417.999
c85.333 -26.667 155.666 -65.334 210.999 -116.001c59.333 -60 102.666 -133.333 129.999 -220l309 1240l36 -30c-5.33301 -20 -8.66602 -38.167 -9.99902 -54.5s-0.666016 -30.166 2.00098 -41.499c2 -17.333 8.33301 -28.5 19 -33.5s25.667 -7.5 45 -7.5h91z" />
    <glyph glyph-name="uni09A6" unicode="&#x9a6;" horiz-adv-x="1026" 
d="M1364 1150l-843.996 -0.00195312l-130 -523c32.667 31.333 73.5 64 122.5 98s106.5 69.333 172.5 106c117.333 63.333 221 106 311 128l168 -120c-78 -105.333 -142 -208 -192 -308s-86.667 -197.667 -110 -293c-12.667 -50 -22.334 -99.667 -29.001 -149
s-10.334 -100 -11.001 -152l-55 27c-6.66699 68.667 -6.33398 140.167 0.999023 214.5s20.333 151.5 39 231.5c12.667 56.667 57.667 176.667 135 360c-50 -15.333 -101.333 -36 -154 -62s-105 -57.333 -157 -94c-51.333 -37.333 -99.333 -77.166 -144 -119.499
s-84.334 -86.166 -119.001 -131.499l-106 147l159 640h-148l-72 109h1092z" />
    <glyph glyph-name="uni09A7" unicode="&#x9a7;" horiz-adv-x="1064" 
d="M1406 1150l-233.998 0.000976562l-302 -1213l-47 61c0 11.333 -1.5 29 -4.5 53l-11.5 89c-11.333 46 -31.5 88.833 -60.5 128.5s-65.167 74.5 -108.5 104.5c-74.667 52 -171 84 -289 96l-89 174l81.5 57.5c29 19.667 60.5 39.834 94.5 60.501l51.5 29.5l62.5 37.5
l29.5 17.5l32.5 19.5c-65.333 0.666992 -115.333 18.667 -150 54c-23.333 23.333 -38.833 49.166 -46.5 77.499s-7.83398 57.833 -0.500977 88.5c15.333 62.667 45.666 112 90.999 148c46.667 37.333 94.667 59.333 144 66c46 6 83.667 -2.66699 113 -26
c28 -23.333 36.667 -56 26 -98c-10.667 -43.333 -32.334 -74 -65.001 -92c-25.333 -13.333 -49.333 -20 -72 -20c-12 0 -22 1.33301 -30 4c-14.667 5.33301 -26.667 10.666 -36 15.999s-16 11.666 -20 18.999c-20 -12 -33 -29.667 -39 -53
c-6.66699 -27.333 5 -55.666 35 -84.999c22.667 -22.667 64.334 -34 125.001 -34c8 0 20 2.16699 36 6.5s34 10.5 54 18.5c37.333 18 79.5 37.167 126.5 57.5s96.5 40.5 148.5 60.5l46 186h237zM1009 900.001c-46.667 -18.667 -93.668 -39.167 -141.001 -61.5
s-95.333 -46.5 -144 -72.5c-135.333 -73.333 -218.666 -125 -249.999 -155c54 -28 103 -57.667 147 -89s83 -66 117 -104c47.333 -51.333 83 -109.333 107 -174z" />
    <glyph glyph-name="uni09A8" unicode="&#x9a8;" horiz-adv-x="1064" 
d="M1417 1150h-245.002l-302 -1213l-47 61c10.667 49.333 18.334 101.833 23.001 157.5s7 116.834 7 183.501v-1c-0.666992 44 -6.83398 87.667 -18.501 131s-28.167 85 -49.5 125c-26 44 -55.5 77.667 -88.5 101s-68.5 35 -106.5 35c-28 0 -49.333 -8 -64 -24
c20.667 -32 24.667 -68 12 -108c-6.66699 -19.333 -16.667 -37.833 -30 -55.5s-28.666 -33.167 -45.999 -46.5s-36.333 -23.5 -57 -30.5s-42.334 -10.5 -65.001 -10.5c-48.667 0 -84.667 17 -108 51c-22.667 33.333 -27.334 76.666 -14.001 129.999
c20.667 82 71.334 146 152.001 192c58.667 33.333 121.334 50 188.001 50h22c8 0 15.667 -0.666992 23 -2c18.667 -2.66699 37 -7.66699 55 -15s35.667 -17.333 53 -30c26.667 -19.333 52.334 -45.333 77.001 -78c27.333 -34 51.333 -71.167 72 -111.5
s36.667 -88.5 48 -144.5l163 653h-798l-72 109h1144z" />
    <glyph glyph-name="uni09AA" unicode="&#x9aa;" horiz-adv-x="1276" 
d="M1605 1150l-220.998 -0.000976562l-301 -1208l-85 99l141 499c9.33301 36.667 13.166 76.5 11.499 119.5s-8.16699 87.5 -19.5 133.5c-7.33301 31.333 -14.833 57.5 -22.5 78.5s-15.167 36.167 -22.5 45.5l-105.5 -85.5l-112.5 -90.5l-151 -121l-143 -115l-140 66
c12.667 8.66699 26.5 18.667 41.5 30s31.167 24.333 48.5 39c38.667 30.667 61.667 61.334 69 92.001c8 31.333 8 60 0 86c-12 29.333 -32 44 -60 44c-7.33301 0 -18.333 -2.16699 -33 -6.5s-31 -9.83301 -49 -16.5c-37.333 -14.667 -63.333 -22 -78 -22
c-19.333 0 -37.333 9.66699 -54 29c-14.667 18.667 -18.334 37.667 -11.001 57c18 44.667 43.5 86.5 76.5 125.5s70.833 73.5 113.5 103.5c54 36.667 111 63.667 171 81c47.333 13.333 93.333 20 138 20h14c5.33301 0 10.333 -0.333008 15 -1
c28 -3.33301 55.167 -8.5 81.5 -15.5s51.166 -16.167 74.499 -27.5c28.667 -14 54.5 -31 77.5 -51s41.833 -42.667 56.5 -68c6.66699 -11.333 12.834 -23 18.501 -35s11.167 -24.667 16.5 -38c6 -15.333 11.667 -32 17 -50s10 -37.667 14 -59
c3.33301 -16.667 6.5 -34.667 9.5 -54s5.83301 -40 8.5 -62c2 6 4 12.333 6 19l5 21c4 17.333 8.66699 43.666 14 78.999l6.5 44c2.33301 16 4.5 33.333 6.5 52c3.33301 30.667 7.33301 55.334 12 74.001c4 18 8.16699 33.833 12.5 47.5s8.5 28.167 12.5 43.5l76 306l35 -47
c-13.333 -54 -15 -92.833 -5 -116.5s31.667 -35.5 65 -35.5h77zM859.002 901.999l157.002 126c-21.333 26 -47 46.167 -77 60.5s-64 21.5 -102 21.5c-82 0 -145 -13 -189 -39c-62 -33.333 -105 -70.333 -129 -111c35.333 4 64.666 -0.666992 87.999 -14
c21.333 -12 36.666 -31 45.999 -57c7.33301 -19.333 10.5 -42 9.5 -68s-5.16699 -55 -12.5 -87z" />
    <glyph glyph-name="uni09AB" unicode="&#x9ab;" horiz-adv-x="1389" 
d="M1736 1150l-1144 0.000976562l80 -82c22 -22.667 39.667 -42 53 -58c21.333 -26.667 41 -55 59 -85s35 -62 51 -96l-71.5 -52c-30.333 -22 -68.166 -48 -113.499 -78c-38 -25.333 -71.667 -49.166 -101 -71.499s-51.666 -40.5 -66.999 -54.5
c77.333 -30 143.666 -74 198.999 -132c31.333 -32.667 59.5 -69.5 84.5 -110.5s46.833 -87.167 65.5 -138.5l200 802c18.667 2.66699 37 4.66699 55 6s35 2 51 2c35.333 0 65.333 -3.33301 90 -10h-1c112.667 -30 184.667 -84.667 216 -164c23.333 -58 25 -128.333 5 -211
c-13.333 -54.667 -43.333 -102 -90 -142c-22 -18 -45.667 -32.167 -71 -42.5s-51.666 -15.5 -78.999 -15.5c-32.667 0 -58.667 13 -78 39c-18 26.667 -23 56 -15 88c8.66699 34 27.334 62 56.001 84c14 10.667 28.667 19 44 25s29.666 9 42.999 9
c41.333 0 70.666 -11.667 87.999 -35c0.666992 -2 2.66699 -5.16699 6 -9.5l10 -12.5c8 6.66699 15 14.667 21 24s10.333 19.666 13 30.999c7.33301 30 4.66602 57.333 -8.00098 82s-34 46 -64 64c-21.333 11.333 -44.5 20.166 -69.5 26.499s-50.5 9.5 -76.5 9.5
c-5.33301 0 -11.166 -0.166992 -17.499 -0.5s-12.166 -0.833008 -17.499 -1.5c-14 -1.33301 -24.5 -4.16602 -31.5 -8.49902s-12.833 -9.5 -17.5 -15.5l-214 -859l-70 55c3.33301 56 -5.83398 108 -27.501 156s-56.5 92.667 -104.5 134
c-93.333 82.667 -198.666 125.667 -315.999 129l-86 186c27.333 23.333 58.166 48.333 92.499 75l115.5 86l210 141c-35.333 36.667 -69.333 64 -102 82c-8.66699 4.66699 -19.167 8.5 -31.5 11.5s-26.833 5.83301 -43.5 8.5c-39.333 8 -63.333 13.667 -72 17
c-18.667 7.33301 -40.5 20.666 -65.5 39.999s-51.833 43.333 -80.5 72h-25l-72 109h1463z" />
    <glyph glyph-name="uni09AC" unicode="&#x9ac;" horiz-adv-x="1033" 
d="M1395 1150l-230.996 0.000976562l-302 -1213l-50 61c-4.66699 63.333 -19.334 123.5 -44.001 180.5s-57.334 109.167 -98.001 156.5c-22.667 21.333 -47 41.166 -73 59.499s-53.333 34.333 -82 48s-58.334 24.5 -89.001 32.5s-61.334 12.333 -92.001 13l-93 202
c50 34 100.167 65.833 150.5 95.5s101.833 57.5 154.5 83.5c74 36.667 147 69 219 97c90 34.667 181 63.667 273 87l24 97h-789l-72 109h1123zM996.004 883.001c-38 -7.33301 -80.3311 -19.1689 -126.998 -35.502s-98.334 -37.166 -155.001 -62.499
c-109.333 -48 -200 -96.667 -272 -146c50 -19.333 94.667 -44.166 134 -74.499s74.666 -66.5 105.999 -108.5c24.667 -32 48.5 -69.833 71.5 -113.5s45.833 -95.167 68.5 -154.5z" />
    <glyph glyph-name="uni09AD" unicode="&#x9ad;" horiz-adv-x="1264" 
d="M1605 1150h-1332l-72 109h1332zM1354 622c-35.333 -139.333 -106.665 -256.334 -213.998 -351.001h1c-111.333 -98.667 -236.333 -148 -375 -148c-71.333 0 -139 17.333 -203 52c-54 29.333 -102 70 -144 122c-36.667 45.333 -66.667 99.333 -90 162
c-10 28 -19 56.667 -27 86s-14.333 62.333 -19 99c-2.66699 25.333 -5 52.166 -7 80.499s-3 59.5 -3 93.5c0.666992 56.667 4.33398 122.667 11.001 198l89 -20c-0.666992 -26 -0.833984 -50.833 -0.500977 -74.5s1.16602 -46.834 2.49902 -69.501
c2.66699 -65.333 10.667 -126 24 -182c11.333 -52 28.666 -100.333 51.999 -145c32 -53.333 69.333 -97.666 112 -132.999c38 -32 80.167 -56 126.5 -72s96.5 -23 150.5 -21c86 3.33301 171.667 36.666 257 99.999c84 62 136.667 135.667 158 221
c27.333 109.333 4 166 -70 170c-66 -57.333 -130 -101.666 -192 -132.999s-120.333 -47.666 -175 -48.999c-40 -0.666992 -75 3.83301 -105 13.5s-55 23.5 -75 41.5c-20 20.667 -33.5 46 -40.5 76s-5.83301 64.333 3.5 103c17.333 69.333 52.666 118 105.999 146
c36.667 20 81.334 30 134.001 30c16.667 0 31.667 -4.16699 45 -12.5s24.333 -19.5 33 -33.5c18 -31.333 23 -62.666 15 -93.999c-8 -32.667 -38.333 -73 -91 -121c124 10 240 88.667 348 236c138.667 -126 193 -249.667 163 -371zM791.001 931.999
c-3.33301 -10 0.333008 -15 11 -15s17.667 5 21 15c2 10 -2.33301 15 -13 15s-17 -5 -19 -15zM741 931.999c-3.33301 -10 0.333008 -15 11 -15s17.667 5 21 15c2 10 -2.33301 15 -13 15s-17 -5 -19 -15zM702.999 901.999c-2 -10 1.99805 -15.001 11.998 -15.001
c11.333 0 18 5 20 15c1.33301 4.66699 0.833008 8.33398 -1.5 11.001s-6.16602 4 -11.499 4c-9.33301 0 -15.666 -5 -18.999 -15zM693.997 861.998c-2 -10 1.99805 -15.001 11.998 -15.001c11.333 0 18 5 20 15c1.33301 4.66699 0.833008 8.33398 -1.5 11.001
s-6.16602 4 -11.499 4c-9.33301 0 -15.666 -5 -18.999 -15zM716.995 831.997c-3.33301 -10 0.333008 -15 11 -15s17.667 5 21 15c2 10 -2.33301 15 -13 15s-17 -5 -19 -15zM757.994 830.997c-3.33301 -10 0.333008 -15 11 -15s17.667 5 21 15c2 10 -2.66699 15 -14 15
c-10 0 -16 -5 -18 -15zM799.993 839.997c-3.33301 -10 0.333008 -15 11 -15s17.667 5 21 15c2 10 -2.33301 15 -13 15s-17 -5 -19 -15zM829.992 878.997c-3.33301 -10 0.333008 -15 11 -15s17.667 5 21 15c2 10 -2.66699 15 -14 15c-10 0 -16 -5 -18 -15zM827.991 920.997
c-2 -10 1.66699 -14.999 11 -14.999c5.33301 0 9.83301 1.16699 13.5 3.5s6.16699 6.16602 7.5 11.499c2 10 -2.33301 15 -13 15s-17 -5 -19 -15z" />
    <glyph glyph-name="uni09AE" unicode="&#x9ae;" horiz-adv-x="1147" 
d="M1476 1150h-216.999l-302 -1213l-51 61c4.66699 67.333 6.66699 108.333 6 123c-0.666992 16 -2 32.167 -4 48.5s-5 32.833 -9 49.5c-12 57.333 -31 105.666 -57 144.999c-16 24.667 -34.667 45.334 -56 62.001s-45.333 30 -72 40c-64.667 -70 -131 -105 -199 -105
c-53.333 0 -95.333 15 -126 45c-31.333 30 -40 73 -26 129c7.33301 29.333 19 55.5 35 78.5s36 43.167 60 60.5c42.667 30 85.667 45 129 45c55.333 0 96.666 -12.667 123.999 -38c2 4 3.33301 8.33301 4 13s1.66699 8.66699 3 12c18 73.333 13.667 133 -13 179
c-30 52.667 -89 87 -177 103l-77 15c-30.667 6.66699 -51.334 15 -62.001 25c-14 12.667 -26.667 29.667 -38 51s-20.666 45 -27.999 71h-50l-72 109h1203zM1155 1150l-589.997 0.00195312c20.667 -16.667 46.667 -41.334 78 -74.001s67.666 -73.334 108.999 -122.001
c34.667 -52.667 55.167 -109.667 61.5 -171s0.5 -124.333 -17.5 -189c31.333 -29.333 60.166 -64.5 86.499 -105.5s49.166 -93.5 68.499 -157.5zM565.004 592.002c-2 -10 1.66699 -14.999 11 -14.999c5.33301 0 9.83301 1.16699 13.5 3.5s6.16699 6.16602 7.5 11.499
c2 10 -2.33301 15 -13 15s-17 -5 -19 -15zM515.004 592.003c-2 -10 1.66699 -14.999 11 -14.999c5.33301 0 9.83301 1.16699 13.5 3.5s6.16699 6.16602 7.5 11.499c2 10 -2.33301 15 -13 15s-17 -5 -19 -15zM478.004 562.004c-3.33301 -10 0.333008 -15 11 -15
s17.667 5 21 15c2 10 -2.66699 15 -14 15c-10 0 -16 -5 -18 -15zM469.003 522.004c-3.33301 -10 0.333008 -15 11 -15s17.667 5 21 15c2 10 -2.66699 15 -14 15c-10 0 -16 -5 -18 -15zM491.002 492.004c-2 -10 1.66699 -14.999 11 -14.999
c5.33301 0 9.83301 1.16699 13.5 3.5s6.16699 6.16602 7.5 11.499c2 10 -2.33301 15 -13 15s-17 -5 -19 -15zM532.002 491.005c-3.33301 -10 0.333008 -15 11 -15s17.667 5 21 15c2 10 -2.33301 15 -13 15s-17 -5 -19 -15zM574.001 500.005
c-2 -10 1.66699 -14.999 11 -14.999c5.33301 0 9.83301 1.16699 13.5 3.5s6.16699 6.16602 7.5 11.499c2 10 -2.33301 15 -13 15s-17 -5 -19 -15zM604.001 539.006c-3.33301 -10 0.333008 -15 11 -15s17.667 5 21 15c2 10 -2.33301 15 -13 15s-17 -5 -19 -15zM602 581.006
c-2 -10 1.99805 -15.001 11.998 -15.001c11.333 0 18 5 20 15c1.33301 4.66699 0.833008 8.33398 -1.5 11.001s-6.16602 4 -11.499 4c-9.33301 0 -15.666 -5 -18.999 -15z" />
    <glyph glyph-name="uni09AF" unicode="&#x9af;" horiz-adv-x="1090" 
d="M1409 1150h-210.998l-302 -1213l-57 61c2.66699 107.333 -35 201.666 -113 282.999c-93.333 100 -217.333 150 -372 150l-105 192c26 22 56 45.833 90 71.5l116 83.5l110 75l127 85c-18.667 30.667 -61 54.667 -127 72c-20.667 0.666992 -44.334 2.5 -71.001 5.5
s-54 7.16699 -82 12.5c-22.667 9.33301 -43.834 24.333 -63.501 45s-39.5 46.334 -59.5 77.001h-16l-72 109h1137zM1088 1150l-522.999 0.000976562c82 -58 146.333 -114.333 193 -169c19.333 -22 35.666 -43.5 48.999 -64.5s23.666 -41.5 30.999 -61.5
c-38.667 -24.667 -89.167 -59 -151.5 -103l-229.5 -163c19.333 -5.33301 39.5 -13 60.5 -23s42.167 -21.833 63.5 -35.5s42.333 -28.834 63 -45.501s40.334 -34 59.001 -52c35.333 -35.333 65.833 -71.833 91.5 -109.5s45.5 -75.5 59.5 -113.5z" />
    <glyph glyph-name="uni09B0" unicode="&#x9b0;" horiz-adv-x="1027" 
d="M1374 1150l-223.004 0.00195312l-302 -1213l-48 62c-3.33301 33.333 -8.16602 62.5 -14.499 87.5s-12.166 45.167 -17.499 60.5c-19.333 46 -43 89.167 -71 129.5s-60 75.5 -96 105.5c-82.667 70 -176 105.333 -280 106l-94 202c46 31.333 92.5 60.666 139.5 87.999
s94.5 53.333 142.5 78c110.667 56.667 222 104 334 142c30.667 10.667 61.334 20.667 92.001 30s61.334 17.666 92.001 24.999l24 97h-786l-72 109h1109zM532.996 158.002c-7.33301 -28.667 -25.333 -55 -54 -79c-29.333 -23.333 -58.333 -35 -87 -35
c-14 0 -27 2.83301 -39 8.5s-23 14.5 -33 26.5c-16.667 22.667 -21.334 49 -14.001 79c6.66699 28 24.667 54.333 54 79c28.667 23.333 58.334 35 89.001 35s54 -11.667 70 -35c16 -24.667 20.667 -51 14 -79zM985.996 883.002
c-38 -7.33301 -80.334 -19.1689 -127.001 -35.502s-98.334 -37.166 -155.001 -62.499l-69.5 -32l-64.5 -32c-26 -13.333 -50.667 -26.833 -74 -40.5s-45.333 -27.5 -66 -41.5c50 -20 94.333 -44.833 133 -74.5s73.334 -63.5 104.001 -101.5
c26.667 -33.333 52.334 -73.166 77.001 -119.499s47.667 -97.833 69 -154.5z" />
    <glyph glyph-name="uni09B2" unicode="&#x9b2;" horiz-adv-x="1219" 
d="M1548 1150l-229.001 -0.00390625l-302 -1213l-75 99l141 564c12 48 4.33301 103.667 -23 167c-25.333 59.333 -57.666 89.666 -96.999 90.999c-20 0 -38.333 -13 -55 -39c-17.333 -25.333 -29 -50.333 -35 -75c-2 -9.33301 -3.5 -19.166 -4.5 -29.499
s-0.833008 -20.166 0.5 -29.499l-86 -40c-0.666992 32 -5.5 60.667 -14.5 86s-22.167 48.333 -39.5 69c-35.333 41.333 -84 62 -146 62c-58.667 0 -116.334 -22.667 -173.001 -68c-54 -44.667 -88.333 -96.667 -103 -156c-13.333 -51.333 -13 -90.333 1 -117
c16 -30 47.333 -46 94 -48c-1.33301 8 -0.833008 18.5 1.5 31.5s5.83301 29.167 10.5 48.5c6.66699 26.667 26 51.334 58 74.001c15.333 10.667 30.666 18.834 45.999 24.501s31.666 8.5 48.999 8.5c25.333 0 49.333 -9.66699 72 -29c27.333 -25.333 36 -58 26 -98
c-12.667 -50.667 -41.667 -91 -87 -121c-43.333 -27.333 -88.666 -41 -135.999 -41c-83.333 0 -146 28.667 -188 86c-40.667 56 -50 133.667 -28 233c18 80.667 55.333 152.667 112 216c67.333 73.333 147.333 110 240 110c56.667 0 105.667 -20.333 147 -61
c27.333 -28 52 -65 74 -111c23.333 53.333 49 93.333 77 120c27.333 26 56.333 41 87 45c28.667 1.33301 54.334 -9 77.001 -31c12.667 -11.333 24.167 -26.166 34.5 -44.499s19.833 -40.833 28.5 -67.5c4.66699 -13.333 8.83398 -28 12.501 -44s7.16699 -33 10.5 -51
l94 379h-947l-72 109h1275z" />
    <glyph glyph-name="uni09B6" unicode="&#x9b6;" horiz-adv-x="1184" 
d="M458 812c-3.33301 -10 0.333008 -15 11 -15s17.667 5 21 15c2 10 -2.33301 15 -13 15s-17 -5 -19 -15zM407.999 812c-3.33301 -10 0.333008 -15 11 -15s17.667 5 21 15c2 10 -2.33301 15 -13 15s-17 -5 -19 -15zM369.998 782c-2 -10 1.99805 -15.001 11.998 -15.001
c11.333 0 18 5 20 15c1.33301 4.66699 0.833008 8.33398 -1.5 11.001s-6.16602 4 -11.499 4c-9.33301 0 -15.666 -5 -18.999 -15zM361.996 741.999c-3.33301 -10 0.333008 -15 11 -15s17.667 5 21 15c2 10 -2.66699 15 -14 15c-10 0 -16 -5 -18 -15zM383.995 711.999
c-2 -10 1.66699 -14.999 11 -14.999c5.33301 0 9.83301 1.16699 13.5 3.5s6.16699 6.16602 7.5 11.499c2 10 -2.33301 15 -13 15s-17 -5 -19 -15zM424.995 711c-3.33301 -10 0.333008 -15 11 -15s17.667 5 21 15c2 10 -2.33301 15 -13 15s-17 -5 -19 -15zM466.994 720
c-2 -10 1.66699 -14.999 11 -14.999c5.33301 0 9.83301 1.16699 13.5 3.5s6.16699 6.16602 7.5 11.499c2 10 -2.33301 15 -13 15s-17 -5 -19 -15zM496.994 759.001c-3.33301 -10 0.333008 -15 11 -15s17.667 5 21 15c2 10 -2.66699 15 -14 15c-10 0 -16 -5 -18 -15z
M494.993 801.001c-2 -10 1.66699 -14.999 11 -14.999c5.33301 0 9.83301 1.16699 13.5 3.5s6.16699 6.16602 7.5 11.499c2 10 -2.33301 15 -13 15s-17 -5 -19 -15zM1502.99 1150l-196.998 -0.00195312l-305 -1226l-96 110l198 718c3.33301 11.333 4 26.5 2 45.5
s-6 40.167 -12 63.5c-3.33301 8 -6.33301 16.167 -9 24.5s-5 16.166 -7 23.499c-4.66699 12.667 -8.66699 24 -12 34s-7.66602 19 -12.999 27l-20.5 37c-6.33301 11.333 -13.166 21.666 -20.499 30.999c-34 49.333 -66 74 -96 74c-20.667 0 -47.667 -16 -81 -48l-22 -25
c-8 -9.33301 -15.833 -19.166 -23.5 -29.499s-14.334 -20.5 -20.001 -30.5s-9.16699 -18.667 -10.5 -26l30 -11.5c9.33301 -3.66699 18.166 -7.66699 26.499 -12s16.5 -10 24.5 -17s16 -15.833 24 -26.5c32.667 -46 43 -91.333 31 -136c-4 -16 -11 -30.833 -21 -44.5
s-21.833 -25.5 -35.5 -35.5s-28.334 -17.833 -44.001 -23.5s-30.834 -8.5 -45.501 -8.5c-16 0 -31.833 3.5 -47.5 10.5s-30 17.167 -43 30.5s-23.667 29.833 -32 49.5s-12.5 42.167 -12.5 67.5c-5.33301 -10 -12 -20.667 -20 -32s-16.833 -22.5 -26.5 -33.5
s-19.667 -21.167 -30 -30.5s-20.833 -17.333 -31.5 -24c-17.333 -10.667 -34.666 -19.5 -51.999 -26.5s-33.833 -11.167 -49.5 -12.5s-30.334 0.333984 -44.001 5.00098s-25.167 13.334 -34.5 26.001c-12 16 -17.167 34 -15.5 54s7.66699 40 18 60
s23.666 39.167 39.999 57.5s32.5 33.833 48.5 46.5c16.667 12.667 35.5 24.167 56.5 34.5s44.833 21.166 71.5 32.499l-10 40c-3.33301 14 -7 27.833 -11 41.5s-8.66699 26.167 -14 37.5s-11.333 21 -18 29c-12.667 14.667 -28 26 -46 34c-19.333 10 -42.666 15 -69.999 15
h-100l-83 109h221c38.667 0 73.334 -8.33301 104.001 -25c31.333 -17.333 56.333 -42.666 75 -75.999c4.66699 -8.66699 9.5 -20 14.5 -34s9.83301 -29 14.5 -45s8.83398 -32 12.501 -48l9.5 -43c6.66699 22.667 15.5 45 26.5 67s23.5 42.667 37.5 62s28.833 36.5 44.5 51.5
s31.167 26.833 46.5 35.5c24.667 14 48.5 25 71.5 33s49.833 12 80.5 12c17.333 0 31.5 -2.83301 42.5 -8.5s20.167 -12.167 27.5 -19.5c25.333 -23.333 49 -56.333 71 -99c18.667 -31.333 42 -95.666 70 -192.999c1.33301 12 2.66602 25.5 3.99902 40.5l5 57.5
c1.33301 25.333 3.16602 47.5 5.49902 66.5s5.5 36.167 9.5 51.5l79 318l44 -57c-10.667 -41.333 -14 -72.333 -10 -93c2 -20.667 9 -35 21 -43c9.33301 -7.33301 23.333 -11 42 -11h56zM770.995 812c-3.33301 -10 0.333008 -15 11 -15s17.667 5 21 15
c2 10 -2.33301 15 -13 15s-17 -5 -19 -15zM720.994 812c-3.33301 -10 0.333008 -15 11 -15s17.667 5 21 15c2 10 -2.33301 15 -13 15s-17 -5 -19 -15zM682.993 782c-2 -10 1.99805 -15.001 11.998 -15.001c11.333 0 18 5 20 15
c1.33301 4.66699 0.833008 8.33398 -1.5 11.001s-6.16602 4 -11.499 4c-9.33301 0 -15.666 -5 -18.999 -15zM674.991 741.999c-3.33301 -10 0.333008 -15 11 -15s17.667 5 21 15c2 10 -2.66699 15 -14 15c-10 0 -16 -5 -18 -15zM696.99 711.999
c-2 -10 1.66699 -14.999 11 -14.999c5.33301 0 9.83301 1.16699 13.5 3.5s6.16699 6.16602 7.5 11.499c2 10 -2.33301 15 -13 15s-17 -5 -19 -15zM737.99 711c-3.33301 -10 0.333008 -15 11 -15s17.667 5 21 15c2 10 -2.33301 15 -13 15s-17 -5 -19 -15zM779.989 720
c-2 -10 1.66699 -14.999 11 -14.999c5.33301 0 9.83301 1.16699 13.5 3.5s6.16699 6.16602 7.5 11.499c2 10 -2.33301 15 -13 15s-17 -5 -19 -15zM809.989 759.001c-3.33301 -10 0.333008 -15 11 -15s17.667 5 21 15c2 10 -2.66699 15 -14 15c-10 0 -16 -5 -18 -15z
M807.988 801.001c-2 -10 1.66699 -14.999 11 -14.999c5.33301 0 9.83301 1.16699 13.5 3.5s6.16699 6.16602 7.5 11.499c2 10 -2.33301 15 -13 15s-17 -5 -19 -15z" />
    <glyph glyph-name="uni09B7" unicode="&#x9b7;" horiz-adv-x="1081" 
d="M1409 1150l-211 0.00195312l-302 -1213l-57 61c2.66699 107.333 -35 201.666 -113 282.999c-93.333 100 -217.333 150 -372 150l-105 192c46.667 39.333 106.334 84.666 179.001 135.999l264 179c-18.667 30.667 -61 54.667 -127 72c-20.667 1.33301 -44 3.5 -70 6.5
s-53 6.83301 -81 11.5c-24 10 -46.333 25.333 -67 46s-40.334 46 -59.001 76h-15l-72 109h1137zM1088 1150l-521 -0.00195312c38.667 -21.333 73.5 -46 104.5 -74s59.5 -58.667 85.5 -92c14 -19.333 27.5 -39.166 40.5 -59.499l40.5 -61.5c24 -32 48.833 -58.167 74.5 -78.5
s50.5 -33.166 74.5 -38.499zM957 625c-10 6.66699 -21.501 16.501 -34.501 29.501l-43 44.5c-15.667 16.667 -31.667 35 -48 55l-49.5 63l-130 -88.5l-195 -139.5c19.333 -5.33301 39.5 -13 60.5 -23s42.167 -21.833 63.5 -35.5s42.333 -28.834 63 -45.501
s40.334 -34 59.001 -52c35.333 -35.333 65.833 -71.833 91.5 -109.5s45.5 -75.5 59.5 -113.5z" />
    <glyph glyph-name="uni09B8" unicode="&#x9b8;" horiz-adv-x="1208" 
d="M1551 1150l-214 -0.00292969l-302 -1213l-106 99l133 492c5.33301 44.667 -5 93.334 -31 146.001c-25.333 52 -57.333 78 -96 78c-26.667 0 -57.167 -11 -91.5 -33s-71.166 -54 -110.499 -96c-5.33301 -6 -10.666 -11.667 -15.999 -17s-10.333 -10.666 -15 -15.999
l-40.5 -43.5l-22.5 -23.5c-30.667 -28 -60.667 -49.5 -90 -64.5s-58 -22.5 -86 -22.5c-108 0 -160.667 68.333 -158 205l74 55c12.667 -81.333 35 -122 67 -122c16 0 34.5 6.66699 55.5 20s43.167 32.333 66.5 57l33 38.5l68 82.5c6 45.333 8.66699 85 8 119
s-5 59.667 -13 77c-10.667 21.333 -30.334 38.333 -59.001 51s-64 21.334 -106 26.001c-20 1.33301 -40.167 3.16602 -60.5 5.49902s-39.5 5.5 -57.5 9.5c-11.333 2 -22.833 10.833 -34.5 26.5s-22.834 36.834 -33.501 63.501h-40l-72 109h1277zM1217 1150
l-595.999 -0.00292969c52.667 -21.333 90.667 -64.666 114 -129.999c8 -21.333 12.167 -48.166 12.5 -80.499s-2.5 -70.166 -8.5 -113.499c69.333 58.667 127.333 88 174 88c42 0 81 -30.333 117 -91c7.33301 -14 17.166 -31.5 29.499 -52.5s26.833 -47.5 43.5 -79.5z" />
    <glyph glyph-name="uni09B9" unicode="&#x9b9;" horiz-adv-x="1021" 
d="M966 -112l-33.499 40.9971l-33.5 41v-1l-61.5 59l-40.5 38c-10.667 10 -20 18 -28 24l-23 18l-53.5 39l-53.5 38l-86.5 54l-84.5 54c-24.667 10 -54.834 20.333 -90.501 31s-75.834 21.667 -120.501 33l-49 265c34 -23.333 64.167 -41.5 90.5 -54.5
s49.333 -22.833 69 -29.5s36.167 -10.667 49.5 -12s24.333 -2.33301 33 -3c5.33301 -0.666992 10.333 -1 15 -1h15c44.667 0 91 6.16699 139 18.5s93 29.333 135 51s78.167 46.834 108.5 75.501s49.5 59.334 57.5 92.001c6 26 5.5 49 -1.5 69s-18.167 36.833 -33.5 50.5
s-33.833 24.167 -55.5 31.5s-43.834 11 -66.501 11c-10 0 -18.667 -0.333008 -26 -1s-14 -2.66699 -20 -6c-7.33301 -26 -19 -50.167 -35 -72.5s-35 -41.666 -57 -57.999s-46.5 -29.333 -73.5 -39s-54.833 -14.5 -83.5 -14.5c-13.333 0 -26.333 2.66699 -39 8
s-23.334 13.333 -32.001 24s-14.667 23.834 -18 39.501s-2.66602 33.167 2.00098 52.5c4 15.333 9.83301 30.5 17.5 45.5s18.667 29.667 33 44s32.333 28.166 54 41.499s48.5 26 80.5 38l91 28c2 2 3.16699 5.5 3.5 10.5s-0.5 10.167 -2.5 15.5c-2.66699 3.33301 -5 7 -7 11
l-6 12c-2.66699 4.66699 -5.5 9 -8.5 13s-6.16699 8 -9.5 12c-10.667 12.667 -22 21 -34 25h-319l-91 109h1144l86 -109h-661v-17v-13c0 -4 0.333008 -8 1 -12c0 -4 -0.166992 -8.16699 -0.5 -12.5s-0.166016 -8.5 0.500977 -12.5c0.666992 -6 3 -12.333 7 -19l4 -6l5 -5
c3.33301 -0.666992 6 -1.5 8 -2.5s4.66699 -1.83301 8 -2.5c4.66699 0 11 -1.5 19 -4.5s20 -7.16699 36 -12.5c4.66699 -2 9.83398 -3.83301 15.501 -5.5s11.834 -3.83398 18.501 -6.50098c25.333 -12 48.166 -28.667 68.499 -50s36.833 -45.333 49.5 -72
s20.667 -55.5 24 -86.5s1.33301 -61.833 -6 -92.5c-13.333 -51.333 -35 -95.666 -65 -132.999s-64.167 -69 -102.5 -95s-79 -47 -122 -63s-84.167 -28.333 -123.5 -37l116.5 -86.5c31 -23.667 57.167 -44.834 78.5 -63.501s39.333 -35.667 54 -51s28.667 -31.666 42 -48.999
l113 -158l3 -151l-2 -2z" />
    <glyph glyph-name="uni09BC" unicode="&#x9bc;" horiz-adv-x="1054" 
d="M542 156c-7.33301 -30 -24.999 -56.001 -52.999 -78.001c-30.667 -22.667 -60 -34 -88 -34c-15.333 0 -28.833 3 -40.5 9s-21.334 14 -29.001 24s-12.667 21.833 -15 35.5s-1.83301 28.167 1.5 43.5c7.33301 28 25 54 53 78c27.333 23.333 56.333 35 87 35
s54 -11.667 70 -35c8 -11.333 13.333 -23.666 16 -36.999s2 -27 -2 -41z" />
    <glyph glyph-name="uni09BD" unicode="&#x9bd;" horiz-adv-x="1047" 
d="M642 1259c8.66699 -2.66699 17.168 -5.6709 25.501 -9.00391s16.333 -8.16602 24 -14.499s15.334 -14.5 23.001 -24.5s15.5 -23 23.5 -39l8 -43c2 -10.667 3.5 -19.167 4.5 -25.5s1.5 -10.833 1.5 -13.5s0.333008 -5 1 -7c0.666992 -6 3 -12.333 7 -19l4 -6l5 -5
c3.33301 -0.666992 6 -1.5 8 -2.5s4.66699 -1.83301 8 -2.5c4.66699 0 11 -1.5 19 -4.5s20 -7.16699 36 -12.5c4.66699 -2 9.83398 -3.83301 15.501 -5.5s11.834 -3.83398 18.501 -6.50098c25.333 -12 48.166 -28.667 68.499 -50s36.833 -45.333 49.5 -72
s20.667 -55.5 24 -86.5s1.33301 -61.833 -6 -92.5c-13.333 -51.333 -35 -95.666 -65 -132.999s-64.167 -69 -102.5 -95s-79 -47 -122 -63s-84.167 -28.333 -123.5 -37l116.5 -86.5c31 -23.667 57.167 -44.834 78.5 -63.501s39.333 -35.667 54 -51s28.667 -31.666 42 -48.999
l113 -158l3 -151l-2 -2l-36 59l-33.5 41l-33.5 41v-1l-61.5 59l-40.5 38c-10.667 10 -20 18 -28 24l-23 18l-53.5 39l-53.5 38l-86.5 54l-84.5 54c-24.667 10 -54.834 20.333 -90.501 31s-75.834 21.667 -120.501 33l-49 265c34 -23.333 64.167 -41.5 90.5 -54.5
s49.333 -22.833 69 -29.5s36.167 -10.667 49.5 -12s24.333 -2.33301 33 -3c5.33301 -0.666992 10.333 -1 15 -1h15c44.667 0 91 6.16699 139 18.5s93 29.333 135 51s78.167 46.834 108.5 75.501s49.5 59.334 57.5 92.001c6 26 5.5 49 -1.5 69s-18.167 36.833 -33.5 50.5
s-33.833 24.167 -55.5 31.5s-43.834 11 -66.501 11c-10 0 -18.667 -0.333008 -26 -1s-14 -2.66699 -20 -6c-7.33301 -26 -19 -50.167 -35 -72.5s-35 -41.666 -57 -57.999s-46.5 -29.333 -73.5 -39s-54.833 -14.5 -83.5 -14.5c-13.333 0 -26.333 2.66699 -39 8
s-23.334 13.333 -32.001 24s-14.667 23.834 -18 39.501s-2.66602 33.167 2.00098 52.5c4 15.333 9.83301 30.5 17.5 45.5s18.667 29.667 33 44s32.333 28.166 54 41.499s48.5 26 80.5 38l91 28c2 2 3.16699 5.5 3.5 10.5s-0.5 10.167 -2.5 15.5c-2.66699 3.33301 -5 7 -7 11
l-6 12c-2.66699 4.66699 -5.5 9 -8.5 13s-6.16699 8 -9.5 12c-10.667 12.667 -22 21 -34 25h-319l-91 109h459z" />
    <glyph glyph-name="uni09BE" unicode="&#x9be;" horiz-adv-x="459" 
d="M816 1152l-221 -0.000976562l-309 -1238l-90 85l221 830c12.667 50 9 110.667 -11 182c-24.667 80.667 -63 127.667 -115 141h-16l-82 107h124c52.667 -11.333 91 -49.666 115 -114.999c14 -38.667 25.333 -95 34 -169c2 -16.667 4 -28.667 6 -36
c10 28.667 17.333 75.334 22 140.001c4.66699 82 10.667 137 18 165l51 206l33 -48c-14.667 -90.667 5 -138.334 59 -143.001h79z" />
    <glyph glyph-name="uni09BF" unicode="&#x9bf;" horiz-adv-x="451" 
d="M1564 1420c-47.333 46 -90.334 84.8301 -129.001 116.497s-74 56.834 -106 75.501c-44 24.667 -90.833 42.834 -140.5 54.501s-102.5 17.5 -158.5 17.5c-48 0 -96.167 -7.66699 -144.5 -23s-97.166 -38 -146.499 -68c-23.333 -15.333 -45.5 -31.5 -66.5 -48.5
s-40.167 -35.167 -57.5 -54.5c-36.667 -40 -61.667 -78.667 -75 -116s-9.66602 -75.666 11.001 -114.999h167l71 -109h-232l-299 -1201l-72 104l273 1097h-186l-72 109h289c-10 8 -19.667 18.167 -29 30.5s-17.5 26 -24.5 41s-12.167 30.833 -15.5 47.5
s-3.66602 33 -0.999023 49c44 114.667 123.667 206 239 274c106 63.333 218.667 95 338 95c47.333 0 96.666 -7.66699 147.999 -23s104.666 -38 159.999 -68s105.5 -64.5 150.5 -103.5s82.5 -81.167 112.5 -126.5c-0.666992 -6 -1 -23.333 -1 -52z" />
    <glyph glyph-name="uni09C0" unicode="&#x9c0;" horiz-adv-x="480" 
d="M817 1150l-277.004 -0.000976562l-301 -1208l-72 99l276 1109h-171l-72 109h269c9.33301 72 6.33301 134.333 -9 187c-18.667 67.333 -59 126 -121 176c-51.333 40.667 -112.666 71 -183.999 91c-66 18.667 -141.667 28 -227 28c-39.333 0 -76.833 -1.83301 -112.5 -5.5
s-69.834 -9.16699 -102.501 -16.5c-28 -6 -52.167 -12 -72.5 -18s-37.166 -12.667 -50.499 -20c-22.667 -13.333 -36.667 -29.666 -42 -48.999c-6 -33.333 24.667 -53 92 -59c0.666992 -1.33301 44 -6 130 -14c14 -1.33301 28.833 -2.66602 44.5 -3.99902
s32.5 -2.66602 50.5 -3.99902c24.667 -2 47.5 -4.33301 68.5 -7s40.5 -5.66699 58.5 -9c36.667 -7.33301 65.334 -15.666 86.001 -24.999c38 -16.667 63 -40.334 75 -71.001c11.333 -27.333 12.333 -59.666 3 -96.999c-3.33301 -13.333 -7.33301 -27.333 -12 -42
s-10.334 -29.667 -17.001 -45h-101c11.333 6.66699 21.666 16.167 30.999 28.5s19.333 26.833 30 43.5c4.66699 22 -2.16602 39.5 -20.499 52.5s-46.166 22.833 -83.499 29.5l-32 4c-10.667 1.33301 -22.334 2.66602 -35.001 3.99902
c-24.667 1.33301 -47.667 2.66602 -69 3.99902s-41.333 2.66602 -60 3.99902c-42.667 3.33301 -77.167 6.16602 -103.5 8.49902s-43.166 4.83301 -50.499 7.5h1c-51.333 13.333 -89.333 34.333 -114 63c-28 33.333 -36.667 76 -26 128c8.66699 37.333 31 71.333 67 102
c40 33.333 95.333 61.333 166 84c90.667 28 186 41.333 286 40c73.333 -2 142 -13.667 206 -35c88 -29.333 162 -75 222 -137c50.667 -56 86.334 -121 107.001 -195c18.667 -69.333 23.334 -146.666 14.001 -231.999h190z" />
    <glyph glyph-name="uni09C1" unicode="&#x9c1;" 
d="M-14 -517c-37.333 53.333 -78.8281 102.161 -124.495 146.494s-96.167 85.5 -151.5 123.5c-24.667 -28 -62.334 -55.667 -113.001 -83s-95.334 -43.666 -134.001 -48.999c-6 -0.666992 -11.833 -1.16699 -17.5 -1.5s-11.167 -0.5 -16.5 -0.5
c-21.333 0 -40.833 2.83301 -58.5 8.5s-33.5 13.834 -47.5 24.501c-38.667 32 -49.334 76.667 -32.001 134c13.333 50.667 45.666 90.334 96.999 119.001c43.333 24.667 91 37.334 143 38.001c79.333 3.33301 138.666 -13.667 177.999 -51
c8.66699 12.667 16.667 28.334 24 47.001s14.333 40.667 21 66c12.667 52.667 16.667 100.334 12 143.001l46 -33c11.333 -39.333 6 -103.333 -16 -192l-11 -42l-12 -45c0.666992 -1.33301 1.66699 -2.33301 3 -3v1c3.33301 -3.33301 7 -6.33301 11 -9
s7.66699 -5.66699 11 -9c48 -43.333 89.333 -86 124 -128s59 -80.667 73 -116c-4 -30 -6 -59 -6 -87zM-533.995 -301.005c75.333 14 135.333 48.333 180 103c-32.667 32.667 -79.334 49 -140.001 49c-83.333 0 -132.666 -25.667 -147.999 -77
c-8.66699 -29.333 -0.666992 -50.333 24 -63c25.333 -15.333 53.333 -19.333 84 -12zM-352.995 -197.005l-1 -1l2 -2z" />
    <glyph glyph-name="uni09C2" unicode="&#x9c2;" 
d="M-209 -327c-44 -22.667 -87.333 -39.832 -130 -51.499s-85 -17.5 -127 -17.5c-48.667 0 -86 20 -112 60c-26 39.333 -33 83 -21 131c15.333 61.333 52 112 110 152c56.667 38.667 116 58 178 58c17.333 0 36.333 -8.33301 57 -25c2 10 3.83301 23.167 5.5 39.5
s3.5 36.833 5.5 61.5c58 -25.333 75.667 -72 53 -140l-11 -31c-30 8.66699 -62.333 13 -97 13c-70 0 -122 -13 -156 -39c-30 -12 -51 -42.333 -63 -91c-6.66699 -26 1.33301 -47.333 24 -64c22.667 -16 49 -24 79 -24c22 0 58.667 7.33301 110 22
c50.667 14 85.667 28 105 42l250 -270c4 -16.667 6.16699 -33.334 6.5 -50.001s-1.5 -34.667 -5.5 -54z" />
    <glyph glyph-name="uni09C3" unicode="&#x9c3;" 
d="M-254 -730c-25.333 34 -56.6689 68.501 -94.002 103.501s-80 69.833 -128 104.5l-125 92l-126 92l395 244l32.5 49c11.667 17.333 22.167 33.666 31.5 48.999l40 -166l-312 -189c34.667 -24 67.334 -49.5 98.001 -76.5s59.334 -54.833 86.001 -83.5
c39.333 -42 68.5 -81.5 87.5 -118.5s25.167 -70.167 18.5 -99.5z" />
    <glyph glyph-name="uni09C4" unicode="&#x9c4;" 
d="M-426 -850c-26 34 -57.499 68.498 -94.499 103.498s-79.5 70.167 -127.5 105.5l-125.5 91l-125.5 91l394 246l30.5 45c11 16 20.833 31.333 29.5 46l-193 140l395 246l32.5 49l32.5 49l39 -168l-312 -189c34 -24 66.5 -49.333 97.5 -76s59.833 -54.334 86.5 -83.001
c39.333 -42 68.333 -82.167 87 -120.5s24.667 -72.166 18 -101.499c-54.667 70 -130 140.333 -226 211l-47 37c5.33301 -25.333 11 -50.666 17 -75.999l18 -76l-313 -190c70 -48.667 132.333 -101.667 187 -159c81.333 -87.333 115.666 -160.666 102.999 -219.999z" />
    <glyph glyph-name="uni09C7" unicode="&#x9c7;" horiz-adv-x="700" 
d="M1037 1150h-83.0029c-54.667 0 -162.667 -72.333 -324 -217c-78.667 -71.333 -144.5 -144.5 -197.5 -219.5s-92.167 -148.833 -117.5 -221.5c-2 -6 -4 -13 -6 -21l-5 -20c-10.667 -42 -17 -85 -19 -129s1 -89 9 -135c2.66699 -18.667 8.83398 -36.167 18.501 -52.5
s21.5 -31.5 35.5 -45.5c14 -12 30.833 -22.333 50.5 -31s38.167 -13 55.5 -13c10.667 0 20.667 1 30 3c-36 32 -47 75 -33 129c8.66699 34.667 25.334 62.334 50.001 83.001s56.667 34.667 96 42c42.667 7.33301 74.334 -4.33398 95.001 -35.001
c22 -29.333 28 -64.666 18 -105.999c-15.333 -60 -48 -108 -98 -144c-50 -34 -104 -48 -162 -42c-114.667 12.667 -190 78 -226 196c-30 101.333 -29 215 3 341c24 91.333 61.833 179.166 113.5 263.499s117.5 166.5 197.5 246.5c4 3.33301 17.5 15.333 40.5 36l103.5 92
h-409l-74 109h766z" />
    <glyph glyph-name="uni09C8" unicode="&#x9c8;" horiz-adv-x="707" 
d="M1037 1150l-81.998 -0.00292969c-57.333 -16 -117 -45.667 -179 -89s-125 -100 -189 -170c-56 -62.667 -104.333 -126.667 -145 -192s-71.667 -127 -93 -185c-6 -17.333 -11.667 -35 -17 -53s-10 -35 -14 -51c-12.667 -50 -19.667 -95.5 -21 -136.5
s3.33398 -77.5 14.001 -109.5c25.333 -80.667 83 -118.667 173 -114c-35.333 31.333 -46.333 73.666 -33 126.999c8.66699 34.667 25.334 62.334 50.001 83.001s56.667 34.667 96 42c42.667 7.33301 74.334 -4.33398 95.001 -35.001c22 -29.333 28 -64.666 18 -105.999
c-13.333 -53.333 -47.333 -99 -102 -137c-53.333 -37.333 -106 -53.666 -158 -48.999c-60 6.66699 -111.333 32.667 -154 78c-16.667 18.667 -30.5 36.834 -41.5 54.501s-18.5 33.5 -22.5 47.5c-11.333 50 -16.5 103.5 -15.5 160.5s9.16699 115.833 24.5 176.5
c30 120 82.5 234 157.5 342s173.5 213.333 295.5 316h-421l-72 109h628c16 0 29.167 5.33301 39.5 16s18.833 30.667 25.5 60c7.33301 33.333 -1.5 58.333 -26.5 75s-64.167 25.667 -117.5 27c-14.667 -6.66699 -37 -10 -67 -10c-47.333 0 -85 0.5 -113 1.5
s-46.333 2.16699 -55 3.5c-54.667 10.667 -93.667 40.334 -117 89.001c-22 48.667 -28.333 92.334 -19 131.001c9.33301 36.667 35.666 74 78.999 112l19 -24c-28 -19.333 -45.333 -42.333 -52 -69c-16.667 -67.333 20.666 -101 111.999 -101
c9.33301 0 21.666 0.5 36.999 1.5s33 2.83301 53 5.5s37.167 4.5 51.5 5.5s26.166 1.5 35.499 1.5c33.333 0 65.666 -4.33301 96.999 -13s61.333 -21.334 90 -38.001c67.333 -40 98.333 -89 93 -147c-5.33301 -21.333 -10 -42.333 -14 -63s-8 -43.667 -12 -69z" />
    <glyph glyph-name="uni09CB" unicode="&#x9cb;" horiz-adv-x="1908" 
d="M1038 1150h-83.001c-54.667 0 -162.667 -72.333 -324 -217c-78.667 -71.333 -144.5 -144.5 -197.5 -219.5s-92.167 -148.833 -117.5 -221.5c-2 -6 -4 -13 -6 -21l-5 -20c-10.667 -42 -17 -85 -19 -129s1 -89 9 -135c2.66699 -18.667 8.83398 -36.167 18.501 -52.5
s21.5 -31.5 35.5 -45.5c14 -12 30.833 -22.333 50.5 -31s38.167 -13 55.5 -13c10.667 0 20.667 1 30 3c-36 32 -47 75 -33 129c8.66699 34.667 25.334 62.334 50.001 83.001s56.667 34.667 96 42c43.333 7.33301 74.666 -4.33398 93.999 -35.001
c22.667 -29.333 29 -64.666 19 -105.999c-15.333 -60 -48 -108 -98 -144c-50 -34 -104 -48 -162 -42c-114.667 12.667 -190 78 -226 196c-30 101.333 -29 215 3 341c24 91.333 61.833 179.166 113.5 263.499s117.5 166.5 197.5 246.5c4 3.33301 17.5 15.333 40.5 36
l103.5 92h-410l-73 109h766zM2224 1150l-209.997 -0.00195312l-306 -1229l-83 78l218 827c4.66699 23.333 6.16699 50.833 4.5 82.5s-7.16699 64.834 -16.5 99.501c-12 38.667 -27.833 70.167 -47.5 94.5s-42.5 40.166 -68.5 47.499h-14l-75 99h114
c50 -10 87.333 -47 112 -111c6.66699 -19.333 12.667 -43 18 -71s10.333 -60.333 15 -97c1.33301 -10.667 2.66602 -20.5 3.99902 -29.5s2.33301 -15.167 3 -18.5c4.66699 8.66699 8.66699 19.667 12 33c7.33301 31.333 12.666 73 15.999 125
c1.33301 36.667 3.66602 69.167 6.99902 97.5s6.33301 48.833 9 61.5l48 192h14c0 -3.33301 1.16699 -7 3.5 -11s5.83301 -9.66699 10.5 -17h-1c1.33301 -1.33301 2.16602 -2.66602 2.49902 -3.99902s0.833008 -2.66602 1.5 -3.99902c-6.66699 -44.667 -4.66699 -79 6 -103
s29.334 -38.333 56.001 -43h73z" />
    <glyph glyph-name="uni09CC" unicode="&#x9cc;" horiz-adv-x="1945" 
d="M2265 1150h-242.004l-307 -1231l-84 108l280 1123h-211l-73 109h303c14.667 13.333 26.5 25.666 35.5 36.999s15.833 25.333 20.5 42c15.333 44 3.33301 74.667 -36 92c-5.33301 2.66699 -12.333 4.83398 -21 6.50098s-18.167 3.16699 -28.5 4.5
s-21.166 2.33301 -32.499 3s-22.333 1 -33 1c-11.333 -0.666992 -24 -1 -38 -1h-37c-67.333 0 -133.166 2.5 -197.499 7.5s-125.166 12.167 -182.499 21.5c-60 10 -105.667 35.667 -137 77c-16 21.333 -25.833 45 -29.5 71s-1.5 54 6.5 84c14 58 46.667 107.333 98 148
l28 -27c-30.667 -39.333 -50 -75 -58 -107c-11.333 -46.667 1.66699 -82 39 -106c28.667 -21.333 68.667 -29.333 120 -24c122 10 240.333 15 355 15c106.667 0 182.834 -23.333 228.501 -70s61.5 -112 47.5 -196c-2 -7.33301 -5 -17.5 -9 -30.5s-10 -29.167 -18 -48.5h142z
M1038 1150h-83.001c-54.667 0 -162.667 -72.333 -324 -217c-78.667 -71.333 -144.5 -144.5 -197.5 -219.5s-92.167 -148.833 -117.5 -221.5c-2 -6 -4 -13 -6 -21l-5 -20c-10.667 -42 -17 -85 -19 -129s1 -89 9 -135c2.66699 -18.667 8.83398 -36.167 18.501 -52.5
s21.5 -31.5 35.5 -45.5c14 -12 30.833 -22.333 50.5 -31s38.167 -13 55.5 -13c10.667 0 20.667 1 30 3c-36 32 -47 75 -33 129c8.66699 34.667 25.334 62.334 50.001 83.001s56.667 34.667 96 42c43.333 7.33301 74.666 -4.33398 93.999 -35.001
c22.667 -29.333 29 -64.666 19 -105.999c-15.333 -60 -48 -108 -98 -144c-50 -34 -104 -48 -162 -42c-114.667 12.667 -190 78 -226 196c-30 101.333 -29 215 3 341c24 91.333 61.833 179.166 113.5 263.499s117.5 166.5 197.5 246.5c4 3.33301 17.5 15.333 40.5 36
l103.5 92h-409l-74 109h766z" />
    <glyph glyph-name="uni09CD" unicode="&#x9cd;" 
d="M-159 -386l-35 -36l-331 239l95 82z" />
    <glyph glyph-name="uni09CE" unicode="&#x9ce;" horiz-adv-x="847" 
d="M833 -13c16.667 28 28.8301 49.667 36.4971 65s11.834 24.666 12.501 27.999c8.66699 33.333 5.33398 64.833 -9.99902 94.5s-41 56.167 -77 79.5c-12.667 7.33301 -39.167 21 -79.5 41l-158.5 78c-48 23.333 -90.833 46.5 -128.5 69.5s-66.167 43.167 -85.5 60.5
c-47.333 46 -79 99.167 -95 159.5s-15 126.833 3 199.5c27.333 109.333 85.333 199.666 174 270.999c90 72 189.333 108 298 108c84 0 149 -24.667 195 -74s61.333 -115.333 46 -198c-14 -68.667 -47.333 -125 -100 -169c-26.667 -21.333 -55.167 -36.833 -85.5 -46.5
s-61.5 -13.5 -93.5 -11.5c-76 7.33301 -131 37 -165 89s-43.333 126 -28 222c-14.667 -5.33301 -29.167 -14.166 -43.5 -26.499s-28.833 -28.166 -43.5 -47.499c-31.333 -39.333 -51 -74.333 -59 -105c-12 -50 -8 -95 12 -135s55 -76 105 -108l109.5 -58.5l150.5 -82.5
c92.667 -52.667 155.334 -109.667 188.001 -171c36 -71.333 40 -163.333 12 -276l-8.5 -32.5l-9.5 -34.5l-3 -9zM888.996 983c5.33301 21.333 2.83301 40.832 -7.5 58.499s-26.166 33.167 -47.499 46.5c-40 20.667 -84 31 -132 31c-46 0 -85.333 -8.66699 -118 -26
c-6 -12 -10.333 -22.333 -13 -31c-11.333 -46 -4.33301 -90 21 -132h-1c14 -20 29.667 -35.667 47 -47s37.666 -17.666 60.999 -18.999c38.667 -1.33301 77.667 9 117 31c38.667 20.667 63 50 73 88z" />
    <glyph glyph-name="uni09D7" unicode="&#x9d7;" horiz-adv-x="520" 
d="M836 1150h-242.001l-307 -1231l-83 108l280 1123h-212l-72 109h303c14.667 13.333 26.5 25.5 35.5 36.5s16.167 25.167 21.5 42.5c14.667 44.667 2.33398 75.334 -36.999 92.001c-10 5.33301 -26.167 9.16602 -48.5 11.499s-44.5 3.5 -66.5 3.5
c-11.333 -0.666992 -24 -1 -38 -1h-37c-67.333 0 -133.333 2.5 -198 7.5s-125 12.167 -181 21.5c-60 10 -105.667 35.667 -137 77c-31.333 44 -39.333 95.667 -24 155c6.66699 28.667 18.5 55.5 35.5 80.5s38.167 47.5 63.5 67.5l28 -27c-29.333 -39.333 -48 -75 -56 -107
c-12 -48 0.333008 -83.333 37 -106c28.667 -21.333 68 -29.333 118 -24c122 10 241 15 357 15c107.333 0 183.5 -23.333 228.5 -70s60.5 -112 46.5 -196c-2 -7.33301 -5 -17.5 -9 -30.5s-10 -29.167 -18 -48.5h141z" />
    <glyph glyph-name="uni09DC" unicode="&#x9dc;" horiz-adv-x="1244" 
d="M1632 1150l-735.997 0.00195312l-92 -368c-11.333 -45.333 -12 -74.333 -2 -87c8.66699 -12 29 -18 61 -18c20.667 0 66.667 34.333 138 103l13 13.5c4 4.33301 8.66699 8.83301 14 13.5c14.667 16 30 31.333 46 46c34.667 30.667 64 46 88 46c20 0 37 -8 51 -24v1
c19.333 -20 35.5 -42.667 48.5 -68s23.167 -51.333 30.5 -78c9.33301 -32 13.833 -64.167 13.5 -96.5s-4.83301 -65.166 -13.5 -98.499c-36 -137.333 -106.667 -252.666 -212 -345.999c-100.667 -86.667 -212 -130 -334 -130c-40 0 -77.667 4.66699 -113 14
s-67.666 22.166 -96.999 38.499s-56 35.666 -80 57.999s-44.667 46.5 -62 72.5c-40.667 59.333 -69.667 130.666 -87 213.999c-9.33301 46.667 -15 95.5 -17 146.5s-1 104.833 3 161.5c2 25.333 4.16699 49.833 6.5 73.5l6.5 68.5c2.66699 24 5.66699 47 9 69l10 63l75 -25
c-2.66699 -18.667 -4.83398 -37.334 -6.50098 -56.001s-2.83398 -37.334 -3.50098 -56.001c-1.33301 -20 -1.83301 -39.5 -1.5 -58.5s0.5 -37.167 0.5 -54.5c4 -97.333 15 -182.166 33 -254.499s44.667 -129.833 80 -172.5c60 -82 156.667 -123 290 -123
c94 0 184.333 33.333 271 100c37.333 28 69.166 62.5 95.499 103.5s48.166 87.5 65.499 139.5c4 10 6.33301 23.667 7 41s-2 33.666 -8 48.999c-11.333 30 -30.333 50 -57 60l-61.5 -61c-22.333 -21.333 -48.5 -43.333 -78.5 -66c-42 -32 -80.833 -56.667 -116.5 -74
s-67.834 -26 -96.501 -26c-43.333 0 -77.666 15.667 -102.999 47c-34.667 40.667 -39 113.334 -13 218.001l95 381h-520l-76 109h1359zM808.003 -181.998c-8 -31.333 -25.998 -57.667 -53.998 -79c-30.667 -21.333 -60 -32 -88 -32c-15.333 0 -29 2.83301 -41 8.5
s-21.833 13.5 -29.5 23.5s-12.834 21.833 -15.501 35.5s-2 28.167 2 43.5c7.33301 29.333 25 56 53 80c27.333 23.333 56.666 35 87.999 35s55 -11.667 71 -35c17.333 -23.333 22 -50 14 -80z" />
    <glyph glyph-name="uni09DD" unicode="&#x9dd;" horiz-adv-x="1061" 
d="M1367 1150l-790 -0.000976562l-195 -782c-6 -24.667 -2 -47 12 -67c14 -18 34.333 -27 61 -27c38.667 0 79.834 11.5 123.501 34.5s90.167 56.833 139.5 101.5c50.667 46 91.834 89 123.501 129s55.167 77.333 70.5 112l-26.5 -3.5
c-7.66699 -1 -15.834 -1.5 -24.501 -1.5c-32 0 -60 11.333 -84 34c-23.333 23.333 -29.666 56.666 -18.999 99.999c10.667 42 32.5 75.667 65.5 101s70.5 38 112.5 38c57.333 0 98.666 -21 123.999 -63h-1c14 -21.333 22 -46.166 24 -74.499s-1.33301 -60.166 -10 -95.499
c-13.333 -52.667 -40.833 -108.167 -82.5 -166.5s-95.834 -118.166 -162.501 -179.499c-69.333 -64.667 -135.833 -114.334 -199.5 -149.001s-121.5 -52 -173.5 -52c-52.667 0 -97.667 24.667 -135 74c-38 50 -50.333 101.667 -37 155l195 782h-205l-72 109h1095z
M478 -102.001c-8 -31.333 -25.998 -57.667 -53.998 -79c-30.667 -21.333 -60 -32 -88 -32c-15.333 0 -29 2.83301 -41 8.5s-21.833 13.5 -29.5 23.5s-12.834 21.833 -15.501 35.5s-2 28.167 2 43.5c7.33301 29.333 25 56 53 80c27.333 23.333 56.666 35 87.999 35
s55 -11.667 71 -35c17.333 -23.333 22 -50 14 -80z" />
    <glyph glyph-name="uni09DF" unicode="&#x9df;" horiz-adv-x="1081" 
d="M1386 1150l-197.998 -0.000976562l-302 -1213l-47 61c1.33301 108 -36.334 202.333 -113.001 283c-93.333 100 -217.333 150 -372 150l-106 193c46.667 38.667 106.5 83.667 179.5 135l264.5 179c-9.33301 15.333 -24.833 29 -46.5 41s-48.5 22.333 -80.5 31
c-20.667 1.33301 -44.167 3.5 -70.5 6.5s-53.833 6.83301 -82.5 11.5c-22.667 9.33301 -43.834 24.333 -63.501 45s-39.5 46.334 -59.5 77.001h-16l-72 109h1114zM595.002 157.999c-7.33301 -28.667 -25.333 -55 -54 -79c-29.333 -23.333 -58.666 -35 -87.999 -35
c-15.333 0 -28.5 3 -39.5 9s-21.167 14.667 -30.5 26c-16.667 22.667 -21.334 49 -14.001 79c6.66699 28 24.667 54.333 54 79c28.667 23.333 57.667 35 87 35c31.333 0 55 -11.667 71 -35c16 -24.667 20.667 -51 14 -79zM1088 1150l-523.001 -0.000976562
c74 -53.333 133.833 -104.666 179.5 -153.999s76.834 -96.333 93.501 -141l-150.5 -102.5l-230.5 -163.5c42 -11.333 83.5 -30 124.5 -56s81.5 -59.333 121.5 -100c36.667 -36 67.5 -72.667 92.5 -110s44.5 -75 58.5 -113z" />
    <glyph glyph-name="uni09E0" unicode="&#x9e0;" horiz-adv-x="1437" 
d="M780 -302c-24.667 33.333 -55.6611 67.499 -92.9941 102.499s-80.333 70.5 -129 106.5l-124 91.5l-125 90.5l394 246l26.5 40.5l26.5 39.5c-0.666992 0.666992 -1.66699 1 -3 1v2l-1 -1c-80.667 80 -184.334 131 -311.001 153l-73 165
c88.667 62.667 184.5 120.5 287.5 173.5s213.5 102.5 331.5 148.5c-15.333 32.667 -35.833 58.334 -61.5 77.001s-54.834 30.334 -87.501 35.001c-62.667 -52 -124.167 -92 -184.5 -120s-117.166 -42 -170.499 -42c-26 0 -49.333 3.66699 -70 11s-37.334 18 -50.001 32
s-21.334 31.333 -26.001 52s-4 44.334 2 71.001c8 32.667 25.167 60.167 51.5 82.5s56.166 34.166 89.499 35.499c30 1.33301 52.667 -6.83398 68 -24.501s19.333 -40.834 12 -69.501l-3 -12c-0.666992 -3.33301 -2.33398 -7 -5.00098 -11c8 -5.33301 17.667 -8 29 -8
c17.333 0 38.333 5.16699 63 15.5s51.334 24.833 80.001 43.5c24 16.667 46.667 34.334 68 53.001s40.333 38 57 58c96.667 -46.667 162 -132.334 196 -257.001c3.33301 1.33301 6.83301 2.33301 10.5 3s7.16699 1.66699 10.5 3l97 387l74 -97l-158 -637
c32 -25.333 61.5 -56.333 88.5 -93s49.167 -77 66.5 -121l235 942l68 -74l-28 -133h177l76 -109h-273l-235 -943l-34 62c3.33301 36 2 72.167 -4 108.5s-15 70.5 -27 102.5c-16.667 36 -36.834 65.5 -60.501 88.5s-50.834 37.833 -81.501 44.5l-142 -569l-42 54
c7.33301 56.667 4 109.334 -10 158.001s-40 94 -78 136l16.5 -63.5l16.5 -62.5l-312 -188c34 -24.667 66.5 -50.5 97.5 -77.5s59.833 -54.5 86.5 -82.5c39.333 -42.667 68 -82.667 86 -120s23.667 -70.333 17 -99zM1026.01 917.999
c-22.667 -7.33301 -53.833 -19.999 -93.5 -37.999l-132.5 -63c-50.667 -26.667 -94 -50.334 -130 -71.001s-63 -38 -81 -52c134.667 -69.333 233.667 -183 297 -341z" />
    <glyph glyph-name="uni09E1" unicode="&#x9e1;" horiz-adv-x="1550" 
d="M1524 265c-15.333 -78.667 -48.8379 -146.168 -100.505 -202.501s-118.167 -101.5 -199.5 -135.5c-6 -2.66699 -14.667 -6 -26 -10s-20.333 -6 -27 -6c-4 0 -7.83301 0.666992 -11.5 2s-6.83398 4 -9.50098 8s-4.16699 9.83301 -4.5 17.5s1.16699 18.167 4.5 31.5
c0.666992 2.66699 1.66699 5.83398 3 9.50098l4 10.5l3.5 9c1 2.66699 1.83301 5 2.5 7c12.667 13.333 23.167 28.833 31.5 46.5s14.833 36.167 19.5 55.5c14.667 58.667 6.66699 103 -24 133c-15.333 31.333 -39.666 44.666 -72.999 39.999
c-31.333 -4 -63.666 -21 -96.999 -51c-4 -6 -8.83301 -14.833 -14.5 -26.5s-11.5 -24.5 -17.5 -38.5c-3.33301 -16 -5.83301 -30.167 -7.5 -42.5s-0.166992 -19.166 4.5 -20.499c8.66699 5.33301 16.667 9.66602 24 12.999s14 5 20 5c15.333 0 27 -7.66699 35 -23h-1
c8.66699 -12.667 13.5 -27.167 14.5 -43.5s-1.83301 -33.166 -8.5 -50.499c-10 -24 -24 -42.667 -42 -56s-38 -20.666 -60 -21.999c-33.333 -2 -57.5 9.83301 -72.5 35.5s-19.833 66.5 -14.5 122.5c33.333 133.333 101.333 224 204 272c26.667 11.333 50.334 17 71.001 17
c24 0 47.333 -6.33301 70 -19c35.333 -17.333 59 -46.166 71 -86.499s10.333 -91.5 -5 -153.5c-7.33301 -28.667 -0.333008 -35 21 -19c62.667 47.333 101.334 95.333 116.001 144c6.66699 23.333 6.83398 46.166 0.500977 68.499s-17.833 42.166 -34.5 59.499
c-29.333 27.333 -65.666 55.833 -108.999 85.5s-92.666 58.5 -147.999 86.5c-25.333 10 -45.333 20.333 -60 31s-24 21.667 -28 33c-65.333 -190 -187.666 -318 -366.999 -384c-49.333 -12 -75.666 -18 -78.999 -18l-1 -4c-14 0 -21.667 7.33301 -23 22
c-12 10 -15.333 26.333 -10 49l13 50c26.667 28 48.667 72 66 132c9.33301 30 11.833 60.833 7.5 92.5s-15.166 62.834 -32.499 93.501c-12 18 -26.333 31.333 -43 40s-36 11.667 -58 9s-44 -10.667 -66 -24s-43.667 -32.666 -65 -57.999
c-10 -10.667 -18.667 -23.667 -26 -39s-13.666 -33.333 -18.999 -54c-6 -11.333 -9.66699 -20 -11 -26c-4 -14.667 1 -25.667 15 -33c8.66699 9.33301 24.334 14 47.001 14c18.667 1.33301 35.334 -3.33398 50.001 -14.001c21.333 -33.333 27.333 -69 18 -107
c-2.66699 -10.667 -6.33398 -21.334 -11.001 -32.001c-29.333 -68.667 -83.333 -103 -162 -103c-16 0 -29.833 5 -41.5 15s-21.167 24 -28.5 42s-12.5 39.667 -15.5 65s-3.83301 53.666 -2.5 84.999c0 4.66699 0.666992 9.66699 2 15l4 16
c5.33301 22 15.666 48.167 30.999 78.5s32.666 60.833 51.999 91.5c39.333 58 82.666 102.833 129.999 134.5s97.333 47.5 150 47.5c18 0 48 -7 90 -21c46.667 -22 78.334 -64.333 95.001 -127c7.33301 -30 11.166 -61 11.499 -93s-3.5 -63 -11.5 -93
c-6.66699 -28 -8.33398 -42.333 -5.00098 -43c4.66699 -3.33301 15 1 31 13c80 64 130.333 127.333 151 190c20.667 65.333 7.66699 122 -39 170c-37.333 41.333 -84.666 81 -141.999 119s-125.333 75 -204 111c-120.667 54.667 -173.334 136 -158.001 244l2 15.5
c0.666992 5 1.66699 10.167 3 15.5c5.33301 19.333 12.166 37.166 20.499 53.499s19.166 32.166 32.499 47.499c31.333 28.667 62.666 43 93.999 43c4.66699 0 9.16699 -0.166992 13.5 -0.5s8.83301 -0.833008 13.5 -1.5c48.667 -22 67.334 -55.667 56.001 -101
c-10 -40 -37.333 -67.667 -82 -83l-2 -7c-3.33301 -14.667 2.83398 -28.667 18.501 -42s38.167 -25 67.5 -35c17.333 -5.33301 36 -12.166 56 -20.499s38.667 -17.5 56 -27.5l66.5 -36l66.5 -36c23.333 -17.333 43 -32.666 59 -45.999s29 -24.666 39 -33.999
c34.667 -35.333 59 -69.333 73 -102c13.333 -8 20 -24.667 20 -50l4 3c24 22 48.333 33 73 33c39.333 0 57 -20 53 -60c0.666992 -10 0.333984 -18.667 -0.999023 -26c-6.66699 -26 -26.334 -47 -59.001 -63c-10 -19.333 12.333 -37 67 -53l81 -40l35.5 -18l40.5 -20l24 -12
c71.333 -55.333 115.666 -102 132.999 -140c19.333 -36 22 -89.333 8 -160z" />
    <glyph glyph-name="uni09E2" unicode="&#x9e2;" horiz-adv-x="646" 
d="M615 132c-16 -70 -45.6699 -128.837 -89.0029 -176.504s-97.333 -84.167 -162 -109.5c-10 -4.66699 -23.667 -8.33398 -41 -11.001c-14 -1.33301 -24.833 3 -32.5 13s-6.83398 22.333 2.49902 37v-1c5.33301 11.333 9 20.666 11 27.999c22 32.667 36.667 63.667 44 93
c0.666992 4.66699 1.33398 8.5 2.00098 11.5s1 5.83301 1 8.5c3.33301 13.333 3.16602 28.833 -0.500977 46.5s-10.167 35.167 -19.5 52.5c-6.66699 11.333 -16 19.333 -28 24s-25 5.33398 -39 2.00098c-30 -3.33301 -56 -18.666 -78 -45.999
c-7.33301 -6 -13.833 -13.667 -19.5 -23s-10.5 -21 -14.5 -35c-9.33301 -26 -8.66602 -42 2.00098 -48c10 8.66699 20 13 30 13c26.667 3.33301 42.334 -13.667 47.001 -51c-0.666992 -19.333 -3.66699 -36.333 -9 -51c-16.667 -42 -45.667 -65 -87 -69
c-32 -2.66699 -55.167 7.83301 -69.5 31.5s-18.166 60.5 -11.499 110.5c7.33301 46 27.666 90.333 60.999 133c35.333 45.333 75.333 77.666 120 96.999c10.667 4.66699 21.334 8.33398 32.001 11.001s20.667 4 30 4c10.667 0 21 -1.5 31 -4.5s19.333 -7.16699 28 -12.5
c33.333 -15.333 55.333 -40.166 66 -74.499s9.66699 -77.833 -3 -130.5c-3.33301 -14 -3 -21 1 -21s9.66699 2.33301 17 7v-1c50.667 42 82.667 83.667 96 125c13.333 40.667 4.33301 76.334 -27 107.001c-24 24 -55.5 48.667 -94.5 74s-83.5 50.333 -133.5 75
c-36.667 18 -64 40.667 -82 68s-23.667 57 -17 89c0 3.33301 0.5 7.33301 1.5 12s1.83301 9 2.5 13c6.66699 26.667 20.334 49.667 41.001 69c20.667 20 44 27 70 21c23.333 -7.33301 35.666 -23.333 36.999 -48c0 -36 -17.333 -61.333 -52 -76
c-2 -7.33301 4.83301 -16.666 20.5 -27.999s38.5 -24.666 68.5 -39.999l63.5 -30.5c21.667 -10.333 43.834 -20.166 66.501 -29.499c28 -17.333 51 -35.333 69 -54s31.667 -38.334 41 -59.001s14.5 -43 15.5 -67s-1.83301 -50.333 -8.5 -79z" />
    <glyph glyph-name="uni09E3" unicode="&#x9e3;" horiz-adv-x="1299" 
d="M1349 442c-6.66699 -30.667 -17.8369 -61.1699 -33.5039 -91.5029s-34.834 -59.5 -57.501 -87.5c-22.667 -27.333 -48.334 -51.333 -77.001 -72s-58.334 -37.334 -89.001 -50.001c-20.667 -10.667 -39.667 -16 -57 -16c-8 0 -14.333 3.16699 -19 9.5
s-5.33398 15.166 -2.00098 26.499c1.33301 7.33301 4 15 8 23c2.66699 4.66699 5 9.83398 7 15.501l5 14.5c18.667 20 33.667 52.333 45 97c2 7.33301 3 14.333 3 21c2.66699 32 -5 65.333 -23 100c-8 26 -29 37 -63 33c-32 -5.33301 -58.667 -23.333 -80 -54
c-15.333 -10 -26.333 -29.333 -33 -58l-6 -21c-3.33301 -14.667 -1 -24.667 7 -30c5.33301 4.66699 10.5 8.16699 15.5 10.5s9.83301 4.16602 14.5 5.49902c26.667 1.33301 42 -17.667 46 -57c0 -9.33301 -0.666992 -18.333 -2 -27s-3.33301 -16.667 -6 -24
c-18.667 -44.667 -49.667 -70 -93 -76c-26 -3.33301 -48.333 11.667 -67 45c-9.33301 -36 -22.666 -69.667 -39.999 -101s-39 -62.333 -65 -93c-26.667 -30 -56.5 -56.167 -89.5 -78.5s-67.167 -40.166 -102.5 -53.499c-10.667 -4.66699 -24.667 -7 -42 -7
c-19.333 0 -35 7.66699 -47 23c-2 3.33301 -1.66699 10 1 20c1.33301 5.33301 4 12.666 8 21.999c2.66699 4.66699 4.83398 9 6.50098 13s2.83398 7.66699 3.50098 11c21.333 26.667 38 62.667 50 108c4.66699 15.333 7.33398 26.333 8.00098 33
c8.66699 38.667 1 79.667 -23 123c-7.33301 13.333 -18.333 22.833 -33 28.5s-31.667 7.16699 -51 4.5c-33.333 -5.33301 -65 -24 -95 -56c-18.667 -24 -32 -48.333 -40 -73c-9.33301 -33.333 -8 -53 4 -59c8.66699 7.33301 20.334 11 35.001 11
c14 0.666992 25.333 -3.66602 34 -12.999v1c24.667 -24.667 28.667 -61.667 12 -111c-27.333 -54 -64.333 -82.667 -111 -86c-4 -1.33301 -9 -2 -15 -2c-40 0 -63 27.333 -69 82c-2 20 -2.16699 41.5 -0.5 64.5s5.83398 45.833 12.501 68.5c6 20.667 13.833 41.5 23.5 62.5
s20.834 42.167 33.501 63.5c70 98 144.333 147 223 147c10 0 21.167 -2.16699 33.5 -6.5s24.166 -10.166 35.499 -17.499c36.667 -24.667 61.167 -58.167 73.5 -100.5s11.166 -93.833 -3.50098 -154.5l-5 -17c-1.33301 -7.33301 -1.66602 -11.666 -0.999023 -12.999v1
c2 -1.33301 5.66699 -1 11 1l19 9c59.333 53.333 97.666 104.666 114.999 153.999c12 36 5.16699 73.5 -20.5 112.5s-67.5 79.5 -125.5 121.5l-74 40.5l-73 40.5c-34 19.333 -60.5 37.333 -79.5 54s-30.833 31.667 -35.5 45c-14 29.333 -18.667 64.666 -14 105.999
c6.66699 37.333 21.667 71.666 45 102.999c22 27.333 45.667 41 71 41c8.66699 0 18.334 -1.66699 29.001 -5c13.333 -4 23 -11.167 29 -21.5s9 -23.166 9 -38.499c0 -13.333 -1.33301 -24.333 -4 -33c-2.66699 -13.333 -9.16699 -25.166 -19.5 -35.499
s-21.5 -18.166 -33.5 -23.499l-1 -5c-4.66699 -16.667 15.666 -34 60.999 -52c22.667 -8.66699 50.667 -21.5 84 -38.5s71.333 -38.5 114 -64.5c32.667 -28.667 59.834 -55.167 81.501 -79.5s38.5 -46.166 50.5 -65.499c0 -8.66699 1 -16.834 3 -24.501s4 -14.5 6 -20.5
c37.333 91.333 91 152.333 161 183c20.667 8.66699 41 13 61 13c20.667 0 40 -4.33301 58 -13c35.333 -19.333 57.833 -48.333 67.5 -87s8.83398 -81.334 -2.49902 -128.001c-4 -15.333 -5 -23.666 -3 -24.999c4.66699 -1.33301 10.334 1.33398 17.001 8.00098
c53.333 42.667 87 84.667 101 126c10.667 33.333 5.66699 66.5 -15 99.5s-56 65.833 -106 98.5c-10.667 5.33301 -23.5 12.166 -38.5 20.499l-50.5 27.5c-5.33301 3.33301 -10.833 6.33301 -16.5 9s-11.167 5.66699 -16.5 9c-83.333 46 -118.666 104 -105.999 174
c6.66699 34.667 19 63.334 37 86.001c26.667 26 53 36 79 30c22 -6.66699 34 -22.334 36 -47.001c-0.666992 -38 -18.334 -66 -53.001 -84c-7.33301 -14.667 9 -31.667 49 -51h-1c58.667 -16 113.667 -41 165 -75c60 -42 97.667 -85.667 113 -131
c7.33301 -23.333 11.833 -47.166 13.5 -71.499s0.166992 -49.166 -4.5 -74.499z" />
    <glyph glyph-name="uni09E6" unicode="&#x9e6;" horiz-adv-x="1133" 
d="M1173 526c-32 -128 -105.666 -238 -220.999 -330c-58 -46 -117.167 -80.167 -177.5 -102.5s-122.5 -33.5 -186.5 -33.5c-64.667 0 -122 11.167 -172 33.5s-92.333 56.5 -127 102.5c-68.667 92 -87 202 -55 330c16 64.667 42.333 124.334 79 179.001
s83.667 105.334 141 152.001c58 46.667 117.667 81.5 179 104.5s124.333 34.5 189 34.5c127.333 0 225.666 -46.333 294.999 -139c34.667 -46.667 56.667 -97.334 66 -152.001s6 -114.334 -10 -179.001zM927.001 371c64 77.333 106.334 158 127.001 242
c30 120 8.33301 205.333 -65 256c-29.333 22.667 -67.333 34 -114 34c-60.667 0 -128 -20.667 -202 -62c-34.667 -19.333 -69 -43.666 -103 -72.999s-65 -60 -93 -92c-30.667 -38.667 -57.334 -78.834 -80.001 -120.501s-39 -82.5 -49 -122.5
c-14.667 -59.333 -16.167 -111 -4.5 -155s35.5 -78.667 71.5 -104c34 -20.667 71.667 -31 113 -31c30 0 62.5 5.5 97.5 16.5s70.833 26.167 107.5 45.5c36 20.667 70.167 45 102.5 73s62.833 59 91.5 93z" />
    <glyph glyph-name="uni09E7" unicode="&#x9e7;" horiz-adv-x="926" 
d="M922 363c-16.667 -54.667 -44.332 -106.334 -82.999 -155.001s-86.667 -94 -144 -136c-62 -44.667 -122.833 -79.167 -182.5 -103.5s-114.834 -36.5 -165.501 -36.5c-49.333 0 -91.666 15.333 -126.999 46c-40 34.667 -54.333 75.334 -43 122.001
c16 64 57.667 117.333 125 160c29.333 18 59.166 31.667 89.499 41s62.166 14 95.499 14c43.333 0 82.166 -8 116.499 -24s64.5 -39 90.5 -69c28 12.667 52.333 33.167 73 61.5s36.334 64.166 47.001 107.499c11.333 45.333 12 86 2 122c-4 14 -25.667 47 -65 99
s-93 118.333 -161 199c-58 68.667 -99.667 129.334 -125 182.001s-33.666 96.667 -24.999 132c22 89.333 76 134 162 134c83.333 0 113 -49 89 -147c-3.33301 -12.667 -7.5 -25 -12.5 -37s-10.833 -24.667 -17.5 -38l100.5 -134.5
c37.667 -50.333 75.5 -103.833 113.5 -160.5c68 -138.667 83.667 -265 47 -379z" />
    <glyph glyph-name="uni09E8" unicode="&#x9e8;" horiz-adv-x="1097" 
d="M1069 -234c-202 269.333 -465.33 446.667 -789.997 532c-54.667 158 -68.667 300.667 -42 428l4 1c18.667 -72.667 77.667 -136.667 177 -192c46 -24 89.833 -42.667 131.5 -56s80.167 -20.666 115.5 -21.999c58 -1.33301 120 12 186 40c34.667 15.333 63.167 34 85.5 56
s36.833 46.667 43.5 74c11.333 45.333 -1.33398 94.333 -38.001 147c-17.333 26 -37.5 49.333 -60.5 70s-46.833 37.667 -71.5 51l-83 38.5l-80 38.5c-78 41.333 -108.333 96.333 -91 165c9.33301 38 29.666 68.667 60.999 92c26.667 20 54.334 30 83.001 30
c29.333 0 53.666 -11.667 72.999 -35c19.333 -24 24.333 -54 15 -90c45.333 -20 87.166 -43.333 125.499 -70s71.833 -56.334 100.5 -89.001c38 -46 63.167 -93.667 75.5 -143s11.5 -100.333 -2.5 -153c-24.667 -95.333 -73.5 -174.333 -146.5 -237
s-170.5 -110.334 -292.5 -143.001c73.333 -44.667 145 -101.167 215 -169.5s140.333 -150.166 211 -245.499z" />
    <glyph glyph-name="uni09E9" unicode="&#x9e9;" horiz-adv-x="1276" 
d="M1323 528c-18 -72 -44.832 -137.836 -80.499 -197.503s-78.834 -111.167 -129.501 -154.5c-55.333 -44 -114.333 -79.333 -177 -106s-123 -40 -181 -40c-137.333 0 -252.333 83.333 -345 250c-28.667 52 -52.334 112.5 -71.001 181.5s-31 141.833 -37 218.5
c-2.66699 27.333 -3.16699 65 -1.5 113s5.5 106.333 11.5 175l76 -35c-9.33301 -74.667 -8.33301 -150.667 3 -228s32 -152.666 62 -225.999c15.333 -35.333 36.333 -68.666 63 -99.999s57.334 -58.666 92.001 -81.999c31.333 -19.333 62.833 -34.333 94.5 -45
s62.167 -16 91.5 -16c86.667 0 176.667 34 270 102c92.667 67.333 150 150 172 248c11.333 50.667 14.666 99.5 9.99902 146.5s-16 90.5 -34 130.5c-19.333 38 -43.166 67.333 -71.499 88s-60.166 31.334 -95.499 32.001c0.666992 -9.33301 0.5 -19.5 -0.5 -30.5
s-2.83301 -22.167 -5.5 -33.5c-12.667 -50.667 -41.334 -94.667 -86.001 -132c-45.333 -36 -93.333 -54 -144 -54c-26 0 -48.667 4.66699 -68 14s-36 22.666 -50 39.999c-12.667 18.667 -20.834 39 -24.501 61s-2.16699 45.667 4.5 71c15.333 62 47.333 109.333 96 142
c61.333 41.333 135.333 62 222 62c62.667 0 123.334 -16 182.001 -48c62.667 -35.333 108 -84 136 -146c24 -57.333 37.5 -119.5 40.5 -186.5s-5.16699 -138.5 -24.5 -214.5z" />
    <glyph glyph-name="uni09EA" unicode="&#x9ea;" horiz-adv-x="1104" 
d="M1046 316c-28 -114 -106.337 -203.329 -235.004 -267.996c-105.333 -53.333 -218.666 -80 -339.999 -80c-88 0 -162.333 32 -223 96c-64 65.333 -85 141.666 -63 228.999c16.667 69.333 65.334 132.666 146.001 189.999c30.667 21.333 64.167 40.666 100.5 57.999
s74.833 32.333 115.5 45c-14 5.33301 -30.5 12.5 -49.5 21.5l-68.5 33.5c-67.333 47.333 -87.666 124 -60.999 230c14.667 57.333 39.334 108.833 74.001 154.5s79 85.834 133 120.501c48.667 30.667 100.167 54.167 154.5 70.5s110.833 24.5 169.5 24.5
c40.667 0 78 -6.83301 112 -20.5s64 -32.834 90 -57.501c30 -28 50.333 -58.833 61 -92.5s11 -70.5 1 -110.5c-33.333 -134 -135.666 -234 -306.999 -300c84.667 -30.667 142.667 -74.834 174 -132.501s36.666 -128.167 15.999 -211.5zM1033 940.004
c16.667 66 3.66602 118.333 -39.001 157c-43.333 40 -98.666 60 -165.999 60c-59.333 0 -116.333 -15.667 -171 -47c-62.667 -36 -101.334 -83 -116.001 -141c-8 -32 -7.83301 -62.833 0.5 -92.5s23.833 -56.5 46.5 -80.5c19.333 -19.333 43.166 -36.5 71.499 -51.5
s58.5 -26.5 90.5 -34.5c80.667 34 145.334 70.5 194.001 109.5s78.334 79.167 89.001 120.5zM878.995 266.004c14.667 64 -3.66699 124.331 -55 180.998c-24 26.667 -50.833 47.834 -80.5 63.501s-59.834 26.167 -90.501 31.5c-26.667 -6 -56 -18.5 -88 -37.5
s-63 -40.833 -93 -65.5c-64 -55.333 -102.667 -110.333 -116 -165c-7.33301 -30 -6.83301 -57.5 1.5 -82.5s22.833 -46.5 43.5 -64.5c20 -15.333 43.167 -27 69.5 -35s55.166 -12 86.499 -12c72.667 0 135.334 15.333 188.001 46s97.334 77.334 134.001 140.001z" />
    <glyph glyph-name="uni09EB" unicode="&#x9eb;" horiz-adv-x="1190" 
d="M1311 798c-129.333 -45.333 -245.667 -106.665 -349 -183.998c-62.667 -48.667 -113.167 -98.667 -151.5 -150s-63.166 -103 -74.499 -155c-15.333 -74.667 -3.33301 -139.667 36 -195c34.667 -52 88.667 -90.667 162 -116c-34 -12.667 -67.333 -22.334 -100 -29.001
s-65 -10 -97 -10c-7.33301 0 -14.333 0.166992 -21 0.5s-13.667 0.833008 -21 1.5c-191.333 16.667 -327.833 68.167 -409.5 154.5s-109.834 204.166 -84.501 353.499c1.33301 7.33301 2.83301 15 4.5 23s3.5 15.667 5.5 23c19.333 78.667 51.5 153.334 96.5 224.001
s102.833 138.667 173.5 204c143.333 134.667 308.333 228.667 495 282l150 -39c-70 -58.667 -110.667 -110.667 -122 -156c-10 -40.667 -2.66699 -71.334 22 -92.001c20.667 -16 46 -24 76 -24c5.33301 0 10.5 0.166992 15.5 0.5s10.167 0.833008 15.5 1.5
c71.333 -54.667 131 -92.667 179 -114zM1049 808.001c-59.333 7.33301 -103.334 33.002 -132.001 77.002c-29.333 47.333 -40.666 101.666 -33.999 162.999c-63.333 -26 -124.833 -60.833 -184.5 -104.5s-115.167 -91.5 -166.5 -143.5
c-51.333 -54.667 -94.5 -111.834 -129.5 -171.501s-60.5 -120.834 -76.5 -183.501c-14 -57.333 -13.833 -110.333 0.5 -159s41.5 -92.667 81.5 -132c36 -31.333 78.167 -57.333 126.5 -78s101.833 -34.667 160.5 -42c-40.667 54 -67.334 107 -80.001 159
s-12.667 103.667 0 155c24.667 98.667 73.334 187.334 146.001 266.001c36.667 39.333 77.167 74 121.5 104s90.833 55.333 139.5 76z" />
    <glyph glyph-name="uni09EC" unicode="&#x9ec;" horiz-adv-x="1216" 
d="M1270 453c-32 -130 -99.0029 -241.334 -201.003 -334.001c-108.667 -98.667 -227 -148 -355 -148c-165.333 0 -288 124.667 -368 374c-35.333 112 -55.666 218.333 -60.999 319s4.33398 198 29.001 292l42 -23l-8 -183c0 -39.333 5.33301 -83.5 16 -132.5
s27.334 -102.167 50.001 -159.5c23.333 -59.333 47.833 -108.333 73.5 -147s52.167 -67.667 79.5 -87c57.333 -38 132 -57 224 -57c98 0 185.667 33.333 263 100c38.667 34 70.667 71.167 96 111.5s44.333 85.5 57 135.5c12.667 51.333 5 112 -23 182
c-20 -30.667 -43.167 -58.167 -69.5 -82.5s-56.166 -46.5 -89.499 -66.5c-67.333 -38 -134 -57 -200 -57c-90 -1.33301 -146.667 31 -170 97c-8.66699 23.333 -13.334 53 -14.001 89s2 78.667 8 128l26 220c-31.333 0.666992 -55 10.834 -71 30.501s-19.333 45.5 -10 77.5
c21.333 68 72 102 152 102c55.333 0 87 -27 95 -81c1.33301 -12.667 0.833008 -31.167 -1.5 -55.5s-6.83301 -55.166 -13.5 -92.499l-41.5 -141.5c-12.333 -43.667 -22.833 -84.167 -31.5 -121.5c-22.667 -88.667 -4.66699 -134.334 54 -137.001
c24.667 -1.33301 53.667 7.66699 87 27s71 48 113 86c32 31.333 62.667 63.833 92 97.5s54 65.5 74 95.5c114.667 -106 147 -258.667 97 -458z" />
    </font>
</defs>
</svg>
